<svg width="149" height="171" viewBox="0 0 149 171" fill="none" xmlns="http://www.w3.org/2000/svg">
<path d="M40.1673 4H108.309C128.751 4 145 20.2701 145 40.739V104.77C145 125.239 128.751 141.509 108.309 141.509H83.6729L82.6245 142.558L50.1264 163.027V141.509H40.6915C20.2491 141.509 4 125.239 4 104.77V40.739C4 20.2701 20.2491 4 40.6915 4H40.1673Z" fill="#1B1839" stroke="white" stroke-opacity="0.16" stroke-width="8"/>
<path d="M79.4794 36.0156H97.301V82.7266C97.301 87.975 96.2527 92.6986 93.6319 96.8973C91.011 101.096 87.3419 103.72 82.6244 106.344C77.907 108.444 72.6653 109.494 66.3754 109.494C60.0854 109.494 54.8438 108.444 50.1263 106.344C45.4088 104.245 41.7397 101.096 39.1189 96.8973C36.498 92.6986 35.4497 87.975 35.4497 82.7266V36.0156H53.2713V81.1521C53.2713 83.7763 53.7954 85.8756 54.8438 87.975C55.8921 90.0744 57.4646 91.6489 59.5612 92.6986C61.6579 93.7483 63.7545 94.2731 66.3754 94.2731C68.9962 94.2731 71.0928 93.7483 73.1895 92.6986C75.2861 91.6489 76.8586 90.0744 77.907 87.975C78.9553 85.8756 79.4794 83.7763 79.4794 81.1521V36.0156Z" fill="white" fill-opacity="0.16"/>
<path d="M114.599 109.493C111.978 109.493 109.881 108.443 107.784 106.869C106.212 105.294 105.164 102.67 105.164 100.571C105.164 97.9465 106.212 95.8472 107.784 94.2726C109.881 92.6981 111.978 91.6484 114.599 91.6484C117.219 91.6484 119.316 92.6981 120.888 94.2726C122.985 95.8472 123.509 97.9465 123.509 100.571C123.509 102.145 123.509 103.72 121.937 105.294C120.888 106.869 119.84 107.919 118.268 108.443C116.695 109.493 115.123 109.493 113.55 109.493H114.599Z" fill="white" fill-opacity="0.16"/>
</svg>
