<svg width="301" height="302" viewBox="0 0 301 302" fill="none" xmlns="http://www.w3.org/2000/svg">
<path d="M294 87C294 42.8172 258.183 7 214 7L86.9999 7C42.8171 7 6.99992 42.8172 6.99992 87V173.892C6.99992 218.074 42.8171 253.892 86.9999 253.892H114.481C114.481 253.892 118.584 253.752 124.849 257.047C130.845 260.201 178.4 292.076 182.481 294.813C182.613 294.902 182.76 294.785 182.76 294.625V254.892C182.76 254.339 183.207 253.892 183.76 253.892H191.5H214C258.183 253.892 294 218.074 294 173.892V87Z" stroke="white" stroke-width="13"/>
<path d="M112.784 160C109.965 160 107.55 160.997 105.54 162.993C103.556 164.989 102.577 167.404 102.603 170.24C102.577 173.023 103.556 175.4 105.54 177.369C107.55 179.365 109.965 180.363 112.784 180.363C115.447 180.363 117.797 179.365 119.833 177.369C121.895 175.4 122.939 173.023 122.966 170.24C122.939 168.35 122.443 166.63 121.478 165.08C120.538 163.531 119.298 162.297 117.757 161.378C116.243 160.459 114.586 160 112.784 160Z" fill="white"/>
<path d="M146.723 160C143.903 160 141.488 160.997 139.478 162.993C137.494 164.989 136.515 167.404 136.541 170.24C136.515 173.023 137.494 175.4 139.478 177.369C141.488 179.365 143.903 180.363 146.723 180.363C149.385 180.363 151.735 179.365 153.771 177.369C155.834 175.4 156.878 173.023 156.904 170.24C156.878 168.35 156.382 166.63 155.416 165.08C154.476 163.531 153.236 162.297 151.696 161.378C150.182 160.459 148.524 160 146.723 160Z" fill="white"/>
<path d="M181.631 160C178.811 160 176.396 160.997 174.386 162.993C172.402 164.989 171.423 167.404 171.449 170.24C171.423 173.023 172.402 175.4 174.386 177.369C176.396 179.365 178.811 180.363 181.631 180.363C184.293 180.363 186.643 179.365 188.679 177.369C190.741 175.4 191.786 173.023 191.812 170.24C191.786 168.35 191.29 166.63 190.324 165.08C189.384 163.531 188.144 162.297 186.604 161.378C185.09 160.459 183.432 160 181.631 160Z" fill="white"/>
</svg>
