<svg width="369" height="287" viewBox="0 0 369 287" fill="none" xmlns="http://www.w3.org/2000/svg">
<g filter="url(#filter0_d_1493_192)">
<path d="M328 72.0001C328 27.8173 292.183 -8 248 -8L121 -8C76.8172 -8 41 27.8172 41 72L41 121.392C41 165.574 76.8172 201.392 121 201.392H148.481C148.481 201.392 152.584 201.252 158.849 204.547C164.667 207.608 209.625 237.717 216.007 241.995C216.339 242.218 216.76 241.963 216.76 241.562V202.392C216.76 201.839 217.207 201.392 217.76 201.392H225.5H248C292.183 201.392 328 165.575 328 121.392V72.0001Z" stroke="white" stroke-width="13" shape-rendering="crispEdges"/>
</g>
<path d="M146.784 127.962C149.475 127.962 151.848 126.953 153.901 124.941C155.983 122.954 157.039 120.552 157.066 117.741V117.738C157.039 115.83 156.538 114.093 155.563 112.527L155.562 112.528C154.614 110.966 153.363 109.72 151.809 108.793C150.279 107.864 148.603 107.399 146.784 107.399C143.938 107.399 141.499 108.408 139.47 110.422H139.469C137.466 112.437 136.477 114.879 136.503 117.741C136.477 120.551 137.467 122.952 139.47 124.939C141.499 126.954 143.938 127.962 146.784 127.962Z" fill="white" stroke="#1B1839" stroke-width="0.2" stroke-linejoin="round"/>
<path d="M180.723 127.962C183.413 127.962 185.787 126.953 187.84 124.941C189.921 122.954 190.977 120.552 191.004 117.741V117.738C190.977 115.83 190.477 114.093 189.501 112.527L189.5 112.528C188.552 110.966 187.301 109.72 185.747 108.793C184.217 107.864 182.542 107.399 180.723 107.399C177.877 107.399 175.437 108.408 173.408 110.422H173.407C171.404 112.437 170.415 114.879 170.441 117.741C170.416 120.551 171.406 122.952 173.408 124.939C175.437 126.954 177.877 127.962 180.723 127.962Z" fill="white" stroke="#1B1839" stroke-width="0.2" stroke-linejoin="round"/>
<path d="M215.631 127.962C218.321 127.962 220.695 126.953 222.748 124.941C224.829 122.954 225.885 120.552 225.912 117.741V117.738C225.885 115.83 225.385 114.093 224.409 112.527L224.408 112.528C223.46 110.966 222.209 109.72 220.655 108.793C219.125 107.864 217.45 107.399 215.631 107.399C212.785 107.399 210.345 108.408 208.316 110.422H208.315C206.312 112.437 205.323 114.879 205.349 117.741C205.324 120.551 206.314 122.952 208.316 124.939C210.345 126.954 212.785 127.962 215.631 127.962Z" fill="white" stroke="#1B1839" stroke-width="0.2" stroke-linejoin="round"/>
<defs>
<filter id="filter0_d_1493_192" x="0.500011" y="-44.5" width="368" height="331.154" filterUnits="userSpaceOnUse" color-interpolation-filters="sRGB">
<feFlood flood-opacity="0" result="BackgroundImageFix"/>
<feColorMatrix in="SourceAlpha" type="matrix" values="0 0 0 0 0 0 0 0 0 0 0 0 0 0 0 0 0 0 127 0" result="hardAlpha"/>
<feOffset dy="4"/>
<feGaussianBlur stdDeviation="17"/>
<feComposite in2="hardAlpha" operator="out"/>
<feColorMatrix type="matrix" values="0 0 0 0 0 0 0 0 0 0 0 0 0 0 0 0 0 0 0.1 0"/>
<feBlend mode="normal" in2="BackgroundImageFix" result="effect1_dropShadow_1493_192"/>
<feBlend mode="normal" in="SourceGraphic" in2="effect1_dropShadow_1493_192" result="shape"/>
</filter>
</defs>
</svg>
