<svg width="99" height="110" viewBox="0 0 99 110" fill="none" xmlns="http://www.w3.org/2000/svg">
<path d="M67.6115 3.98705L24.964 7.73075C12.1697 8.85387 2.89377 19.9296 4.01834 32.7404L7.53621 72.8154C8.66078 85.6262 19.7245 94.9164 32.5187 93.7933L47.9375 92.4398L48.6513 93.0392L70.1155 104.065L68.9332 90.5968L74.8383 90.0784C87.6325 88.9553 96.9085 77.8796 95.7839 65.0688L92.266 24.9938C91.1414 12.183 80.0778 2.89273 67.2835 4.01584L67.6115 3.98705Z" fill="#1B1839" stroke="white" stroke-opacity="0.16" stroke-width="6"/>
<path d="M50.9993 25.6376L62.1533 24.6585L64.7196 53.8935C65.0079 57.1783 64.6113 60.1923 63.2017 62.9641C61.7921 65.736 59.6399 67.58 56.8315 69.4816C53.9943 71.0547 50.7714 71.9996 46.8347 72.3452C42.898 72.6908 39.5598 72.3218 36.4919 71.267C33.424 70.2123 30.9546 68.443 29.0837 65.9591C27.2127 63.4752 26.2971 60.5765 26.0087 57.2916L23.4424 28.0566L34.5964 27.0775L37.0762 55.3271C37.2204 56.9695 37.6638 58.2546 38.4352 59.5109C39.2067 60.7673 40.2773 61.6663 41.6472 62.2081C43.0172 62.7499 44.3582 62.9632 45.9985 62.8192C47.6388 62.6752 48.9222 62.2315 50.1768 61.4594C51.4313 60.6872 52.329 59.6154 52.8698 58.2438C53.4105 56.8723 53.6233 55.5296 53.4791 53.8872L50.9993 25.6376Z" fill="white" fill-opacity="0.16"/>
</svg>
