<svg width="62" height="69" viewBox="0 0 62 69" fill="none" xmlns="http://www.w3.org/2000/svg">
<path d="M20.4204 3.28003L46.4054 5.69169C54.2009 6.41519 59.8215 13.1947 59.0971 21.0003L56.8309 45.4178C56.1065 53.2234 49.3342 58.8527 41.5387 58.1292L32.1441 57.2573L31.7072 57.6205L18.59 64.2759L19.3515 56.07L15.7536 55.7361C7.95813 55.0126 2.33754 48.2331 3.06198 40.4275L5.32815 16.01C6.05259 8.20444 12.8248 2.57509 20.6203 3.29858L20.4204 3.28003Z" fill="#1B1839" stroke="white" stroke-opacity="0.16" stroke-width="5"/>
<path d="M34.2786 16.8806L41.0746 17.5113L39.4215 35.3241C39.2357 37.3255 38.6688 39.0897 37.5207 40.5981C36.3727 42.1065 34.8806 42.9773 32.9888 43.8111C31.1155 44.4447 29.0795 44.6595 26.6809 44.4368C24.2823 44.2142 22.3206 43.6284 20.596 42.6609C18.8713 41.6934 17.5836 40.3626 16.7327 38.6687C15.8819 36.9748 15.6493 35.1364 15.8351 33.135L17.4883 15.3223L24.2844 15.953L22.6869 33.1653C22.594 34.166 22.7196 34.9852 23.0451 35.8228C23.3705 36.6605 23.9145 37.3166 24.6768 37.7911C25.4392 38.2656 26.2202 38.5399 27.2196 38.6327C28.219 38.7254 29.0372 38.5995 29.8738 38.2734C30.7105 37.9473 31.3659 37.4026 31.84 36.6391C32.314 35.8756 32.5882 35.0936 32.6811 34.0929L34.2786 16.8806Z" fill="white" fill-opacity="0.16"/>
<path d="M45.0704 46.1427C44.0709 46.0499 43.3086 45.5755 42.5647 44.9008C42.0208 44.2447 41.7139 43.2069 41.7882 42.4063C41.8811 41.4056 42.3552 40.6422 43.0106 40.0974C43.8658 39.5712 44.7025 39.2451 45.7019 39.3378C46.7013 39.4306 47.4637 39.9051 48.0077 40.5612C48.7515 41.2358 48.8771 42.0549 48.7842 43.0556C48.7285 43.6561 48.6727 44.2565 48.0174 44.8013C47.5619 45.3646 47.1249 45.7278 46.5067 45.8723C45.8699 46.2169 45.2703 46.1612 44.6706 46.1056L45.0704 46.1427Z" fill="white" fill-opacity="0.16"/>
</svg>
