<svg width="26" height="24" viewBox="0 0 26 24" fill="none" xmlns="http://www.w3.org/2000/svg">
<rect width="25.0435" height="24" rx="6" fill="#4E8CFF"/>
<path d="M13.274 6H16.1742V14.1773C16.1742 15.1224 15.9609 15.9457 15.5342 16.6472C15.1076 17.3447 14.5127 17.8853 13.7495 18.2691C12.9863 18.6487 12.0998 18.8386 11.09 18.8386C10.0685 18.8386 9.17613 18.6487 8.41292 18.2691C7.64971 17.8853 7.05675 17.3447 6.63405 16.6472C6.21135 15.9457 6 15.1224 6 14.1773V6H8.90607V13.9111C8.90607 14.3486 8.99609 14.7386 9.17613 15.0811C9.36008 15.4236 9.61644 15.6919 9.94521 15.8858C10.274 16.0798 10.6556 16.1768 11.09 16.1768C11.5245 16.1768 11.9041 16.0798 12.229 15.8858C12.5577 15.6919 12.8141 15.4236 12.998 15.0811C13.182 14.7386 13.274 14.3486 13.274 13.9111V6Z" fill="white"/>
<path d="M19.045 18.8571C18.6223 18.8571 18.2603 18.7003 17.9589 18.3867C17.6614 18.073 17.5147 17.6934 17.5186 17.2477C17.5147 16.8102 17.6614 16.4368 17.9589 16.1272C18.2603 15.8136 18.6223 15.6568 19.045 15.6568C19.4442 15.6568 19.7965 15.8136 20.1018 16.1272C20.411 16.4368 20.5675 16.8102 20.5714 17.2477C20.5675 17.5448 20.4932 17.8151 20.3483 18.0586C20.2074 18.3021 20.0215 18.496 19.7906 18.6405C19.5636 18.7849 19.3151 18.8571 19.045 18.8571Z" fill="white"/>
</svg>
