<svg width="15" height="13" viewBox="0 0 15 13" fill="none" xmlns="http://www.w3.org/2000/svg">
<path d="M7.27403 0H10.1742V8.17732C10.1742 9.12236 9.96092 9.94566 9.53431 10.6472C9.10769 11.3447 8.51278 11.8853 7.74957 12.2691C6.98636 12.6487 6.09987 12.8386 5.09008 12.8386C4.06855 12.8386 3.17619 12.6487 2.41298 12.2691C1.64977 11.8853 1.05681 11.3447 0.634112 10.6472C0.211411 9.94566 6.10352e-05 9.12236 6.10352e-05 8.17732V0H2.90613V7.91114C2.90613 8.34858 2.99615 8.73856 3.17619 9.08109C3.36014 9.42362 3.6165 9.69186 3.94527 9.88582C4.27403 10.0798 4.65564 10.1768 5.09008 10.1768C5.52452 10.1768 5.90417 10.0798 6.22902 9.88582C6.55779 9.69186 6.81415 9.42362 6.9981 9.08109C7.18206 8.73856 7.27403 8.34858 7.27403 7.91114V0Z" fill="white"/>
<path d="M13.0451 12.8571C12.6224 12.8571 12.2603 12.7003 11.959 12.3867C11.6615 12.073 11.5147 11.6934 11.5187 11.2477C11.5147 10.8102 11.6615 10.4368 11.959 10.1272C12.2603 9.8136 12.6224 9.65679 13.0451 9.65679C13.4443 9.65679 13.7965 9.8136 14.1018 10.1272C14.411 10.4368 14.5676 10.8102 14.5715 11.2477C14.5676 11.5448 14.4932 11.8151 14.3484 12.0586C14.2075 12.3021 14.0216 12.496 13.7907 12.6405C13.5637 12.7849 13.3151 12.8571 13.0451 12.8571Z" fill="white"/>
</svg>
