<svg width="150" height="155" viewBox="0 0 150 155" fill="none" xmlns="http://www.w3.org/2000/svg">
<path d="M109.116 46.9072C113.835 46.5795 117.87 51.1378 118.025 55.6912C118.18 60.2886 113.563 64.9888 111.958 69.1411C117.259 69.6449 120.974 74.2227 120.052 79.637C119.834 80.9184 118.689 82.8698 118.064 84.0877C112.36 95.1998 104.741 108.219 98.1497 118.877C91.6604 129.367 83.91 132.131 75.6796 139.971C69.4279 145.923 68.3949 158.013 57.5406 152.893C47.5641 148.188 37.544 140.504 27.6694 135.315C20.0257 128.233 30.5115 121.082 31.4863 112.978C32.0538 108.273 30.3902 99.7825 26.3793 96.8137C22.3683 93.845 12.678 90.2795 7.63397 87.746C6.30507 87.0809 0.780911 84.5474 0.27166 83.6964C-0.999042 81.5689 2.51721 75.6069 4.02557 73.8021C12.5325 63.634 24.4004 71.4252 34.0811 74.883L23.6924 57.2123C22.4604 54.9038 25.1425 53.099 26.8546 51.9937C36.249 45.9436 44.625 49.6656 50.2607 58.3861L64.1657 34.3914C68.5307 28.938 75.9512 29.9945 79.4286 35.7902C83.459 31.6378 90.3218 32.7138 93.2997 37.5802C95.4482 34.0637 97.2039 30.4347 101.821 30.0434C109.601 29.3782 114.164 36.4749 110.968 43.5716C110.745 44.0704 108.839 46.6724 109.125 46.912L109.116 46.9072Z" fill="white"/>
<path d="M109.116 46.3326C113.835 46.0049 117.87 50.5632 118.025 55.1166C118.18 59.714 113.563 64.4142 111.958 68.5665C117.259 69.0703 120.974 73.6482 120.052 79.0624C119.834 80.3438 118.689 82.2953 118.064 83.5131C112.36 94.6252 104.741 107.645 98.1497 118.302C91.6604 128.793 83.9101 131.556 75.6796 139.396C69.4279 145.349 68.3949 157.439 57.5406 152.318C47.5641 147.613 37.544 139.929 27.6694 134.74C20.0257 127.658 30.5115 120.508 31.4863 112.404C32.0538 107.699 30.3902 99.2079 26.3793 96.2392C22.3683 93.2704 12.678 89.7049 7.63397 87.1715C6.30507 86.5063 0.780911 83.9728 0.27166 83.1218C-0.999042 80.9943 2.51721 75.0323 4.02557 73.2276C12.5325 63.0594 24.4004 70.8506 34.0811 74.3084L23.6924 56.6377C22.4604 54.3292 25.1425 52.5244 26.8546 51.4191C36.249 45.3691 44.625 49.091 50.2607 57.8115L64.1657 33.8168C68.5307 28.3635 75.9512 29.4199 79.4286 35.2156C83.459 31.0632 90.3218 32.1392 93.2997 37.0057C95.4482 33.4891 97.2039 29.8601 101.821 29.4688C109.601 28.8036 114.164 35.9003 110.968 42.997C110.745 43.4959 108.839 46.0978 109.125 46.3375L109.116 46.3326ZM37.2821 135.249L61.6388 148.924C64.6022 149.129 65.902 144.644 67.3521 142.478C74.1421 132.349 84.851 128.186 92.3345 118.899C98.9548 107.019 106.21 95.4517 112.729 83.518C113.442 82.2121 115.319 79.3118 115.498 78.05C116.167 73.2569 110.086 71.413 107.753 75.629L94.3279 99.027C92.2569 100.983 89.3372 98.9096 90.54 96.2832L112.947 57.2001C114.911 51.8642 108.179 48.4308 105.046 53.1749L89.7155 80.0308C87.1353 82.0898 84.4339 79.7178 86.1605 76.8028L106.885 40.6836C109.242 35.4406 102.811 31.5181 99.3573 35.9639L78.1191 73.0026C76.3101 75.2035 73.1333 73.3987 74.0597 70.7087L89.7543 43.1339C91.0978 38.1697 85.1032 35.1422 81.9313 39.187L60.761 76.2012C59.6261 77.2283 58.3408 77.3897 57.1768 76.2892C53.2289 71.0218 50.1055 65.0647 46.0945 59.851C41.0505 53.2923 36.4867 50.7882 28.7364 55.6693C33.8968 66.5515 43.2524 76.4653 45.9199 88.3648C47.6126 95.931 48.5098 106.363 46.4195 113.841C44.397 121.075 39.8477 128.167 37.2821 135.259V135.249ZM58.2632 70.0045L59.2672 69.4078L74.9909 41.8721C77.023 36.6437 72.1682 32.4816 67.9147 36.5312L53.418 61.7584L58.2632 70.0045ZM33.3584 132.764C35.5555 126.538 39.3967 120.425 41.4579 114.208C43.4076 108.32 43.2088 102.832 42.6074 96.7234C42.3018 93.6128 40.614 82.8381 38.0872 81.1997C30.6909 79.0966 18.9442 70.7039 11.3248 73.4183C8.61367 74.3867 5.57757 77.8886 5.42722 80.7644L29.0759 92.4389C36.5788 99.3938 38.1357 111.015 33.8919 120.205C31.787 124.763 25.5742 129.884 33.3584 132.764Z" fill="black"/>
<path d="M118.893 7.76306C120.494 7.76306 121.454 9.3526 121.051 10.8345C120.857 11.5486 117.327 17.5057 116.774 18.0192C114.746 19.8973 112.321 17.9654 113.185 15.119C113.345 14.6005 116.507 9.30858 116.934 8.86351C117.472 8.29617 118.04 7.76795 118.888 7.76795L118.893 7.76306Z" fill="black"/>
<path d="M39.3142 29.1851C39.9496 29.0531 40.2163 29.0971 40.808 29.3172C41.3997 29.5373 47.4913 33.1321 47.7484 33.4402C49.3537 35.333 47.7969 38.0963 44.8335 37.0986C44.1933 36.8834 38.2181 33.2837 37.9611 32.9169C37.0299 31.6061 37.6216 29.5324 39.3142 29.19V29.1851Z" fill="black"/>
<path d="M139.249 29.1852C141.688 28.6618 143.192 31.1024 141.635 33.049C141.368 33.3815 135.252 37.0497 134.738 37.2062C132.003 38.0523 130.441 35.3624 132.066 33.4353C132.337 33.1174 138.836 29.2683 139.249 29.1803V29.1852Z" fill="black"/>
<path d="M138.725 58.9805C139.705 57.9241 146.136 57.9437 147.678 58.1931C150.646 58.6675 150.636 62.3944 148.401 62.8297C147.314 63.04 140.98 63.0351 139.884 62.8297C138.235 62.5216 137.702 60.0859 138.725 58.9854V58.9805Z" fill="black"/>
<path d="M60.9259 7.76307C61.3236 7.76307 61.7989 7.95381 62.1384 8.16412C62.9241 8.65321 66.3482 14.4538 66.6246 15.4809C67.4588 18.567 64.4761 19.9022 62.5264 17.4617C61.9735 16.7672 58.9277 11.5095 58.7676 10.8297C58.4087 9.33304 59.2914 7.75818 60.9259 7.75818V7.76307Z" fill="black"/>
<path d="M141.742 91.4315C141.577 91.6076 140.432 92.126 140.18 92.1407C139.069 92.2287 131.896 88.0324 131.586 86.9613C131.159 85.494 131.78 84.0707 133.288 83.7969C134.355 83.6012 139.802 86.7803 140.878 87.6411C142.023 88.5557 142.978 90.1159 141.737 91.4315H141.742Z" fill="black"/>
<path d="M88.2217 0.52463C89.313 -0.507347 91.7283 0.0355411 92.0338 1.69355C92.2375 2.79889 92.2424 9.19128 92.0338 10.2819C91.607 12.522 88.0423 12.522 87.5039 9.48473C87.2226 7.88541 87.1305 1.55172 88.2217 0.519739V0.52463Z" fill="black"/>
<path d="M58.2632 70.0047L53.4181 61.7586L67.9147 36.5314C72.1682 32.4867 77.023 36.6488 74.9909 41.8723L59.2672 69.408L58.2632 70.0047Z" fill="white"/>
</svg>
