<svg width="120" height="120" viewBox="0 0 120 120" fill="none" xmlns="http://www.w3.org/2000/svg">
<path d="M93.8358 7.58576C91.9762 0.17744 82.3266 -2.48923 76.756 2.70232L57.8167 21.5244C58.0975 15.6212 54.3402 9.89796 48.8869 7.68392C47.668 7.18767 43.0682 5.90342 41.9366 6.03429C40.9441 6.14609 39.3927 7.09224 39.0818 8.1011L33.2713 25.8898C30.6646 24.7937 25.2031 22.1924 22.4901 23.1522C20.9932 23.6812 20.6823 24.6982 20.1806 26.0207C17.7485 32.4092 16.0825 40.1611 13.9884 46.8223C11.4417 54.9259 5.91751 67.5558 6.26925 75.6649C6.35923 77.7617 7.54805 81.2572 7.02453 82.9341C6.08656 85.9253 1.64212 87.6349 0.480561 91.3922C-0.680994 95.1495 0.409668 97.9798 2.87184 100.878C6.79549 105.5 14.3429 113.004 18.9564 116.968C21.8521 119.458 24.4806 120.655 28.3742 119.556C32.1997 118.476 34.621 113.309 37.3531 112.709C38.85 112.379 42.891 113.628 44.8514 113.699C61.0614 114.293 72.227 98.427 82.7574 88.0493C92.8923 78.0643 103.352 67.9212 113.446 57.6608C118.269 52.3683 116.584 43.3349 109.896 40.6083C114.836 35.2204 112.988 25.4672 105.809 23.1495C109.375 14.8632 102.708 6.44057 93.8385 7.58849L93.8358 7.58576ZM105.997 76.1148C103.42 76.7037 102.736 80.5592 104.723 82.1816C107.164 84.172 112.731 85.3772 115.545 87.1741C119.436 87.9812 121.503 83.1659 118.716 81.0037C117.789 80.2838 109.44 76.4583 108.262 76.1911C107.518 76.0221 106.749 75.943 105.997 76.1148ZM96.0798 91.1468C94.9755 92.2838 94.9428 94.0153 95.6599 95.335C96.2843 96.4883 101.792 102.517 102.97 103.567C105.945 106.225 110.114 103.61 108.865 99.8503C108.598 99.0459 104.399 94.4488 103.491 93.5026C101.56 91.4904 98.9319 88.2129 96.0798 91.1441V91.1468ZM84.1834 97.6553C83.1636 97.8898 81.9585 99.4795 81.8221 100.483C81.6449 101.781 82.3729 103.139 82.8528 104.325C83.4172 105.715 85.9994 111.662 86.7137 112.461C88.9278 114.937 93.1405 113.094 92.8678 109.854C92.7669 108.644 89.4513 101.265 88.6742 99.8667C87.6763 98.0725 86.3511 97.1564 84.1834 97.6553Z" fill="white"/>
<path d="M93.8354 7.58576C102.708 6.43784 109.375 14.8605 105.805 23.1468C112.985 25.4644 114.833 35.2177 109.893 40.6055C116.581 43.3322 118.266 52.3629 113.443 57.6581C103.349 67.9184 92.8892 78.0616 82.7543 88.0466C72.2239 98.4243 61.0583 114.291 44.8483 113.696C42.8878 113.625 38.8442 112.377 37.35 112.706C34.6179 113.309 32.1966 118.473 28.3711 119.553C24.4748 120.652 21.849 119.455 18.9533 116.966C14.3398 113.001 6.79513 105.497 2.86875 100.876C0.406577 97.9771 -0.711352 95.2368 0.477469 91.3895C1.66629 87.5422 6.08347 85.9253 7.02144 82.9314C7.54496 81.2572 6.35614 77.7589 6.26616 75.6622C5.91442 67.5531 11.4413 54.9232 13.9853 46.8196C16.0794 40.1584 17.7454 32.4065 20.1775 26.0179C20.682 24.6955 20.9901 23.6785 22.487 23.1495C25.2 22.1897 30.6588 24.791 33.2682 25.8871L39.0787 8.09837C39.3923 7.08951 40.9437 6.14609 41.9335 6.03157C43.0678 5.90342 47.6649 7.18767 48.8838 7.68119C54.3371 9.89524 58.0944 15.6185 57.8135 21.5217L76.7584 2.70232C82.3289 -2.48923 91.9785 0.17744 93.8381 7.58576H93.8354ZM78.2689 20.4338C78.6806 20.5455 78.7215 20.322 78.9506 20.1665C80.2594 19.2695 84.7611 14.5933 85.9063 13.2163C86.5961 12.3847 87.2778 11.6294 87.286 10.4869C87.3023 8.2238 85.2328 6.74595 83.0542 7.08951C80.8756 7.43307 75.9349 13.8462 73.9226 15.4303C73.8272 15.9566 78.5416 18.8578 78.2716 20.4392L78.2689 20.4338ZM39.275 40.0657L47.5695 31.8666C48.6138 28.1229 51.2232 23.6921 50.7024 19.7766C50.3262 16.9464 47.4005 13.9225 44.4639 13.9007C44.3739 14.6887 44.153 15.4576 43.9131 16.2129C43.0705 18.8659 38.348 31.2695 38.4625 32.81C38.5279 33.6962 39.166 34.9968 39.2668 36.1175C39.3841 37.3936 39.1905 38.7787 39.275 40.0657ZM90.8115 28.6137C91.2232 28.7255 91.2641 28.5019 91.4932 28.3465C92.5184 27.643 98.7488 21.2354 99.226 20.2647C100.794 17.0882 98.2062 13.9989 94.817 14.7678C92.6029 15.2695 87.7604 21.7507 85.6309 23.2995C87.7631 24.5646 89.9635 26.2061 90.8088 28.6164L90.8115 28.6137ZM83.8995 30.6151C81.7945 28.5237 79.6241 29.549 77.7209 31.2068C71.1823 36.8973 65.2682 44.6874 58.7679 50.427C58.1898 50.9396 56.6711 52.1529 55.9731 52.2865C53.1482 52.8155 50.5552 49.0555 52.5102 46.6233L71.5913 27.5312C74.6915 23.5749 69.4482 19.6212 66.1244 23.155L34.3807 54.6696C32.003 55.294 29.8299 54.1052 29.4673 51.624C29.939 45.4835 35.4386 37.0636 29.5845 32.1666C28.8865 31.583 26.8006 30.157 26.0426 31.065C23.6677 38.9532 21.3582 46.8659 18.8933 54.7269C16.911 61.0527 12.9165 69.4181 13.3582 75.9321C13.6827 80.7365 15.6104 83.714 12.1176 88.3029C10.5579 90.3534 5.57086 93.08 7.774 95.6949L24.5593 112.445C27.0078 114.002 29.6445 109.421 31.5068 107.965C36.9656 103.698 41.26 106.937 47.0378 106.591C51.9649 106.296 56.8183 103.875 60.4093 100.603L93.65 67.5858C96.3603 63.5313 91.3868 59.3513 87.8013 62.5551L70.1844 80.1121C66.8742 81.9662 63.4332 77.7917 65.7181 74.8305L89.8572 50.7078C93.0337 46.5797 88.0849 42.0779 84.2539 45.3772L67.455 62.1161C63.9322 63.7821 60.622 60.2156 62.9887 56.8346L84.104 35.6867C85.1374 34.3152 85.151 31.8666 83.894 30.6178L83.8995 30.6151ZM100.821 29.4944C98.6288 29.9498 93.7509 36.4856 91.6295 38.0207C93.9145 39.4331 95.7004 40.9 96.9465 43.3377C97.29 43.4195 97.4209 43.0923 97.6282 42.9314C99.0978 41.808 103.133 37.7289 104.306 36.2484C105.478 34.7678 106.214 33.5272 105.391 31.6103C104.636 29.8544 102.626 29.1182 100.818 29.4917L100.821 29.4944ZM95.1687 55.6049C96.1312 55.7167 97.4782 56.6983 98.1735 57.3745C98.7679 57.9525 100.306 60.6028 100.739 60.5074C102.732 58.6778 104.54 56.6274 106.348 54.656C107.024 53.9171 108.213 53.1754 108.767 52.1666C110.517 48.9709 107.101 45.3227 103.608 47.005C102.872 47.3595 96.0085 54.0861 95.4387 54.9232C95.2832 55.1523 95.0569 55.1904 95.1687 55.6049Z" fill="black"/>
<path d="M105.996 76.1147C106.749 75.9429 107.518 76.0192 108.262 76.191C109.44 76.4582 117.789 80.2864 118.716 81.0035C121.503 83.1631 119.436 87.981 115.545 87.174C112.731 85.3798 107.163 84.1746 104.723 82.1815C102.735 80.5591 103.42 76.7036 105.996 76.1147Z" fill="black"/>
<path d="M96.0794 91.147C98.9287 88.2131 101.557 91.4932 103.49 93.5055C104.398 94.4517 108.6 99.0488 108.865 99.8532C110.111 103.613 105.944 106.228 102.97 103.57C101.794 102.517 96.2839 96.4885 95.6595 95.3378C94.9424 94.0181 94.9751 92.284 96.0794 91.1497V91.147Z" fill="black"/>
<path d="M84.1828 97.6551C86.3505 97.1561 87.6756 98.0723 88.6736 99.8664C89.4507 101.265 92.7636 108.643 92.8672 109.854C93.1398 113.093 88.9299 114.937 86.7131 112.461C85.9987 111.662 83.4166 105.715 82.8522 104.324C82.3695 103.138 81.6443 101.781 81.8215 100.483C81.9578 99.4792 83.163 97.8896 84.1828 97.6551Z" fill="black"/>
<path d="M83.8998 30.6149C85.1568 31.8637 85.1432 34.3123 84.1098 35.6838L62.9946 56.8317C60.6278 60.2128 63.938 63.782 67.4608 62.1132L84.2597 45.3743C88.088 42.0751 93.0396 46.5768 89.863 50.7049L65.7239 74.8276C63.439 77.7888 66.8801 81.9633 70.1902 80.1092L87.8071 62.5522C91.3927 59.3484 96.3661 63.5311 93.6558 67.5829L60.4151 100.6C56.8241 103.872 51.9707 106.293 47.0436 106.588C41.2659 106.934 36.9714 103.695 31.5126 107.962C29.6503 109.418 27.0136 113.999 24.5651 112.442L7.77981 95.692C5.5794 93.0771 10.5665 90.3505 12.1234 88.3C15.6162 83.7084 13.6885 80.7336 13.364 75.9292C12.925 69.4152 16.9168 61.0499 18.8991 54.724C21.364 46.8631 23.6708 38.9503 26.0484 31.0621C26.8064 30.1541 28.8923 31.5774 29.5903 32.1637C35.4444 37.058 29.9448 45.4779 29.4731 51.6211C29.8357 54.1023 32.0061 55.2912 34.3865 54.6668L66.1302 23.1521C69.454 19.6183 74.6946 23.5693 71.5972 27.5284L52.516 46.6204C50.561 49.0526 53.1541 52.8126 55.9789 52.2837C56.6796 52.1528 58.1957 50.9367 58.7737 50.4241C65.274 44.6817 71.1882 36.8917 77.7267 31.2039C79.6299 29.5488 81.8003 28.5209 83.9053 30.6122L83.8998 30.6149Z" fill="white"/>
<path d="M39.2753 40.0659C39.1908 38.7761 39.3843 37.391 39.2671 36.1177C39.1635 34.997 38.5282 33.6964 38.4627 32.8102C38.3482 31.2697 43.0708 18.8661 43.9133 16.2131C44.1533 15.4578 44.3741 14.6889 44.4641 13.9009C47.4007 13.9254 50.3237 16.9466 50.7027 19.7768C51.2235 23.6923 48.6141 28.1231 47.5698 31.8668L39.2753 40.0659Z" fill="white"/>
<path d="M100.821 29.4943C102.628 29.1181 104.638 29.8542 105.393 31.6129C106.217 33.5298 105.489 34.765 104.308 36.251C103.127 37.737 99.1001 41.8079 97.6305 42.934C97.4232 43.0922 97.2924 43.4194 96.9488 43.3403C95.7027 40.9027 93.9168 39.4357 91.6318 38.0233C93.7504 36.4909 98.6284 29.9551 100.823 29.4971L100.821 29.4943Z" fill="white"/>
<path d="M90.8112 28.6136C89.966 26.206 87.7628 24.5646 85.6333 23.2967C87.7628 21.7506 92.6054 15.2694 94.8194 14.765C98.2086 13.996 100.794 17.0853 99.2284 20.2619C98.7512 21.2326 92.5208 27.6402 91.4956 28.3437C91.2666 28.5018 91.2257 28.7227 90.8139 28.6109L90.8112 28.6136Z" fill="white"/>
<path d="M95.1688 55.6047C95.057 55.1902 95.2834 55.1521 95.4388 54.923C96.0086 54.0859 102.869 47.3593 103.608 47.0048C107.103 45.3225 110.52 48.9707 108.767 52.1664C108.213 53.1752 107.024 53.9169 106.348 54.6558C104.54 56.6299 102.733 58.6776 100.739 60.5072C100.306 60.6054 98.768 57.9523 98.1736 57.3743C97.4783 56.6981 96.1313 55.7165 95.1688 55.6047Z" fill="white"/>
<path d="M78.2688 20.4336C78.5415 18.8522 73.8271 15.951 73.9198 15.4248C75.9321 13.8433 80.8155 7.43567 83.0514 7.08393C85.2872 6.73219 87.2995 8.21822 87.2831 10.4813C87.275 11.6238 86.5933 12.3818 85.9034 13.2107C84.7583 14.5877 80.2566 19.2639 78.9478 20.161C78.7187 20.3191 78.6778 20.54 78.2661 20.4282L78.2688 20.4336Z" fill="white"/>
</svg>
