<svg width="111" height="197" viewBox="0 0 111 197" fill="none" xmlns="http://www.w3.org/2000/svg">
<path d="M34.3433 34.6943C36.9389 37.3563 51.48 49.3396 54.3361 49.529C56.5054 49.6711 62.4544 45.0483 64.439 43.5753C74.1535 36.3758 86.4352 25.6429 83.2192 12.106C80.1452 -0.834047 63.4396 -3.73751 54.715 5.46548C42.1301 -5.81683 24.1267 1.17896 25.633 19.0118C26.1255 24.8519 30.3647 30.6162 34.3433 34.6943ZM55.4823 71.8047C54.7671 71.9989 54.696 71.6153 54.2982 71.3405C47.6103 66.7272 40.0698 53.2993 31.5725 52.3851C25.9313 51.7741 20.4512 52.8446 16.9178 57.6284C6.45965 71.8047 28.9816 84.8585 36.5316 94.303C31.3404 96.1882 26.7271 98.9969 25.0314 104.581C23.7099 108.934 24.5815 112.174 26.1208 116.328C16.1363 116.47 9.72309 127.586 13.7823 136.467C9.91729 137.94 6.7912 139.011 4.13877 142.421C-2.03761 150.369 1.15952 157.166 6.9333 163.702C14.5733 172.351 28.8111 187.517 38.8999 192.363C79.5152 211.882 128.917 162.276 104.102 122.897C97.2723 112.06 85.1659 103.497 76.877 93.7252C76.6591 93.1758 76.9102 92.6832 77.0049 92.1574C78.5537 83.5702 85.2511 72.5247 86.6389 63.8758C87.302 59.7504 85.5448 55.3075 81.694 53.4177C70.1465 47.7481 58.7742 62.1612 55.487 71.8047H55.4823Z" fill="#4E8CFF"/>
<path d="M55.4822 71.8048C58.7741 62.1613 70.1416 47.7482 81.6892 53.4177C85.54 55.3076 87.2972 59.7504 86.6341 63.8759C85.2463 72.5247 78.5489 83.5702 77.0001 92.1575C76.9053 92.6832 76.6543 93.1711 76.8722 93.7253C85.1658 103.497 97.2675 112.06 104.098 122.897C128.912 162.272 79.5151 211.882 38.895 192.363C28.8063 187.517 14.5732 172.351 6.92848 163.702C1.1547 157.166 -2.04243 150.369 4.13395 142.421C6.78638 139.006 9.91246 137.936 13.7774 136.467C9.71353 127.586 16.1267 116.47 26.116 116.328C24.5814 112.174 23.7051 108.939 25.0266 104.581C26.7223 98.997 31.3356 96.1882 36.5268 94.3031C28.9721 84.8538 6.45483 71.8048 16.913 57.6285C20.4464 52.8399 25.9218 51.7742 31.5677 52.3852C40.0649 53.2993 47.6007 66.7273 54.2934 71.3406C54.6912 71.6153 54.7623 71.999 55.4775 71.8048H55.4822ZM92.2705 174.894C108.299 158.487 109.042 136.676 93.8714 119.392C76.0291 99.068 53.4029 80.842 35.1295 60.6693C29.1473 55.4023 18.5423 59.0968 20.6453 68.0488C21.1285 70.0997 24.534 73.6473 26.1018 75.3666C39.615 90.1776 56.5384 104.046 69.4691 119.165C70.3974 120.25 72.6662 122.722 72.4672 124.039C72.1736 125.929 69.398 127.634 67.8302 126.014L43.3426 101.242C36.181 97.3345 27.4611 105.581 31.2409 112.87L57.7889 142.729C58.2388 145.007 54.9517 147.328 53.0192 145.547C45.8908 139.319 39.866 130.154 32.9886 123.911C26.9165 118.398 16.0888 125.09 18.997 133.64C19.5844 135.364 23.8851 139.754 25.4055 141.441C31.8329 148.541 38.7624 155.271 45.2798 162.295C47.4302 165.313 44.4983 168.993 41.2964 166.748C33.8223 160.434 27.5038 150.682 20.2712 144.439C15.781 140.564 8.64308 143.941 7.22214 149.298C6.07591 153.623 7.85683 155.683 10.4761 158.734C16.2783 165.488 31.1888 181.052 38.4261 185.253C57.5757 196.37 77.7011 189.805 92.2658 174.894H92.2705ZM72.0647 88.3825L80.5619 62.5023C80.6093 56.7854 75.4323 57.8416 71.7378 59.8688C68.427 61.6829 65.3057 65.8652 63.4632 69.1192C62.4164 70.9664 59.6787 76.0582 60.6734 77.7491C61.0807 78.4453 69.9853 87.2978 70.8805 87.9136C71.2831 88.193 71.3494 88.572 72.0694 88.3778L72.0647 88.3825Z" fill="black"/>
<path d="M34.3433 34.6943C30.3694 30.6115 26.1302 24.8519 25.6329 19.0118C24.1267 1.17896 42.1301 -5.81683 54.7149 5.46548C63.4395 -3.74225 80.1451 -0.834047 83.2191 12.106C86.4352 25.6477 74.1535 36.3758 64.4389 43.5753C62.4496 45.0483 56.5006 49.6711 54.336 49.529C51.4799 49.3396 36.9389 37.361 34.3433 34.6943ZM40.2118 6.08596C32.7992 7.22272 30.3789 14.2327 32.2592 20.9159C33.4907 25.3066 38.6109 30.4126 41.9832 33.4534C43.8921 35.1775 52.2425 42.0359 54.0992 42.6895C55.1744 43.0685 56.1785 41.9649 57.0642 41.4059C62.8712 37.7352 73.7177 28.6316 76.427 22.4032C80.5998 12.8165 73.5898 2.81305 63.2927 6.90064C59.0441 8.58683 58.8025 11.7366 56.4248 13.2949C52.5977 15.8052 51.8872 11.8171 50.0637 9.74253C47.847 7.22272 43.5321 5.57442 40.2118 6.08596Z" fill="black"/>
<path d="M92.2705 174.894C77.7058 189.8 57.5852 196.365 38.4308 185.253C31.1935 181.052 16.283 165.488 10.4808 158.733C7.86154 155.683 6.08062 153.623 7.22685 149.298C8.6478 143.941 15.7857 140.564 20.2759 144.439C27.5038 150.681 33.827 160.434 41.3011 166.747C44.503 168.988 47.4349 165.308 45.2845 162.295C38.7671 155.271 31.8329 148.54 25.4102 141.44C23.8851 139.754 19.5843 135.364 19.0018 133.639C16.0983 125.09 26.9259 118.397 32.9933 123.911C39.866 130.153 45.8955 139.319 53.024 145.547C54.9564 147.333 58.2483 145.012 57.7936 142.729L31.2456 112.87C27.4659 105.581 36.1857 97.3295 43.3473 101.242L67.8349 126.014C69.4027 127.634 72.1783 125.928 72.472 124.039C72.6756 122.727 70.4021 120.249 69.4738 119.165C56.5479 104.046 39.6244 90.1774 26.1065 75.3664C24.5387 73.6471 21.1332 70.0995 20.6501 68.0486C18.5423 59.0966 29.1521 55.4022 35.1342 60.6691C53.4076 80.8466 76.0291 99.0678 93.8762 119.392C109.047 136.671 108.303 158.487 92.2752 174.894H92.2705Z" fill="white"/>
<path d="M72.0647 88.3823C71.3447 88.5765 71.2784 88.1928 70.8758 87.9181C69.9854 87.2976 61.0808 78.4451 60.6687 77.7536C59.6693 76.0627 62.4117 70.971 63.4585 69.1237C65.2962 65.8698 68.4223 61.6874 71.7331 59.8734C75.4276 57.8462 80.6093 56.7899 80.5572 62.5069L72.0599 88.387L72.0647 88.3823Z" fill="white"/>
<path d="M40.2118 6.08594C43.5321 5.5744 47.847 7.2227 50.0637 9.74251C51.8825 11.8171 52.593 15.8005 56.4248 13.2949C58.8025 11.7366 59.0441 8.58681 63.2927 6.90062C73.5898 2.81303 80.5998 12.8165 76.427 22.4031C73.7177 28.6316 62.8712 37.7351 57.0642 41.4059C56.1785 41.9648 55.1744 43.0732 54.0992 42.6895C52.2425 42.0359 43.8921 35.1774 41.9833 33.4534C38.6109 30.4078 33.4955 25.3019 32.2592 20.9159C30.3836 14.2327 32.7992 7.2227 40.2118 6.08594Z" fill="#4E8CFF"/>
</svg>
