<svg width="110" height="197" viewBox="0 0 110 197" fill="none" xmlns="http://www.w3.org/2000/svg">
<path d="M33.563 34.6943C36.1586 37.3563 50.6996 49.3396 53.5557 49.529C55.725 49.6711 61.674 45.0483 63.6586 43.5753C73.3731 36.3758 85.6548 25.6429 82.4388 12.106C79.3648 -0.834047 62.6592 -3.73751 53.9346 5.46548C41.3497 -5.81683 23.3464 1.17896 24.8526 19.0118C25.3451 24.8519 29.5843 30.6162 33.563 34.6943ZM54.7019 71.8047C53.9867 71.9989 53.9156 71.6153 53.5178 71.3405C46.8299 66.7272 39.2894 53.2993 30.7921 52.3851C25.151 51.7741 19.6708 52.8446 16.1374 57.6284C5.67926 71.8047 28.2013 84.8585 35.7512 94.303C30.56 96.1882 25.9467 98.9969 24.251 104.581C22.9295 108.934 23.8011 112.174 25.3404 116.328C15.3559 116.47 8.9427 127.586 13.0019 136.467C9.13689 137.94 6.01081 139.011 3.35838 142.421C-2.818 150.369 0.379125 157.166 6.1529 163.702C13.7929 172.351 28.0307 187.517 38.1195 192.363C78.7348 211.882 128.136 162.276 103.322 122.897C96.4919 112.06 84.3855 103.497 76.0966 93.7252C75.8787 93.1758 76.1298 92.6832 76.2245 92.1574C77.7733 83.5702 84.4707 72.5247 85.8585 63.8758C86.5216 59.7504 84.7644 55.3075 80.9136 53.4177C69.3661 47.7481 57.9938 62.1612 54.7066 71.8047H54.7019Z" fill="#F64747"/>
<path d="M54.7018 71.8047C57.9937 62.1612 69.3612 47.748 80.9088 53.4176C84.7596 55.3075 86.5168 59.7503 85.8537 63.8758C84.4659 72.5246 77.7685 83.5701 76.2197 92.1574C76.1249 92.6831 75.8739 93.171 76.0918 93.7251C84.3854 103.497 96.4871 112.06 103.317 122.897C128.132 162.272 78.7347 211.882 38.1146 192.362C28.0259 187.517 13.7928 172.351 6.14808 163.702C0.374303 157.166 -2.82283 150.369 3.35355 142.421C6.00599 139.006 9.13207 137.935 12.997 136.467C8.93314 127.586 15.3463 116.47 25.3356 116.328C23.801 112.174 22.9247 108.939 24.2462 104.581C25.9419 98.9968 30.5552 96.1881 35.7464 94.303C28.1917 84.8537 5.67443 71.8047 16.1326 57.6284C19.666 52.8398 25.1414 51.7741 30.7873 52.3851C39.2845 53.2992 46.8203 66.7272 53.513 71.3405C53.9108 71.6152 53.9819 71.9989 54.6971 71.8047H54.7018ZM91.4901 174.894C107.518 158.487 108.262 136.676 93.091 119.392C75.2487 99.0679 52.6225 80.8419 34.3491 60.6692C28.3669 55.4022 17.7619 59.0967 19.8649 68.0486C20.3481 70.0995 23.7536 73.6472 25.3214 75.3665C38.8346 90.1775 55.758 104.046 68.6887 119.165C69.617 120.249 71.8858 122.722 71.6869 124.039C71.3932 125.929 68.6176 127.634 67.0498 126.014L42.5622 101.242C35.4006 97.3343 26.6808 105.581 30.4605 112.87L57.0085 142.729C57.4584 145.007 54.1713 147.328 52.2388 145.547C45.1104 139.319 39.0856 130.153 32.2082 123.911C26.1361 118.397 15.3084 125.09 18.2167 133.64C18.804 135.364 23.1047 139.754 24.6251 141.44C31.0525 148.54 37.982 155.271 44.4994 162.295C46.6498 165.312 43.7179 168.993 40.516 166.748C33.0419 160.434 26.7234 150.681 19.4908 144.439C15.0006 140.564 7.86269 143.941 6.44174 149.298C5.29551 153.623 7.07643 155.683 9.69571 158.733C15.4979 165.488 30.4084 181.052 37.6457 185.253C56.7953 196.37 76.9207 189.805 91.4854 174.894H91.4901ZM71.2843 88.3824L79.7815 62.5022C79.8289 56.7853 74.6519 57.8415 70.9574 59.8687C67.6466 61.6828 64.5253 65.8651 62.6828 69.1191C61.636 70.9663 58.8983 76.058 59.893 77.749C60.3003 78.4452 69.2049 87.2977 70.1001 87.9135C70.5027 88.1929 70.569 88.5718 71.289 88.3776L71.2843 88.3824Z" fill="black"/>
<path d="M33.5629 34.6943C29.589 30.6115 25.3498 24.8519 24.8525 19.0118C23.3463 1.17896 41.3497 -5.81683 53.9345 5.46548C62.6591 -3.74225 79.3647 -0.834047 82.4387 12.106C85.6547 25.6477 73.373 36.3758 63.6585 43.5753C61.6692 45.0483 55.7202 49.6711 53.5556 49.529C50.6995 49.3396 36.1585 37.361 33.5629 34.6943ZM39.4314 6.08596C32.0188 7.22272 29.5984 14.2327 31.4788 20.9159C32.7103 25.3066 37.8304 30.4126 41.2028 33.4534C43.1116 35.1775 51.4621 42.0359 53.3188 42.6895C54.3939 43.0685 55.3981 41.9649 56.2838 41.4059C62.0907 37.7352 72.9373 28.6316 75.6466 22.4032C79.8194 12.8165 72.8094 2.81305 62.5123 6.90064C58.2636 8.58683 58.0221 11.7366 55.6444 13.2949C51.8173 15.8052 51.1068 11.8171 49.2833 9.74253C47.0666 7.22272 42.7517 5.57442 39.4314 6.08596Z" fill="black"/>
<path d="M91.4901 174.894C76.9254 189.8 56.8048 196.365 37.6504 185.253C30.4131 181.052 15.5026 165.488 9.70042 158.733C7.08114 155.683 5.30023 153.623 6.44646 149.298C7.8674 143.941 15.0053 140.564 19.4955 144.439C26.7234 150.681 33.0466 160.434 40.5207 166.747C43.7226 168.988 46.6545 165.308 44.5041 162.295C37.9867 155.271 31.0525 148.54 24.6298 141.44C23.1047 139.754 18.804 135.364 18.2214 133.639C15.3179 125.09 26.1455 118.397 32.2129 123.911C39.0856 130.153 45.1151 139.319 52.2436 145.547C54.176 147.333 57.4679 145.012 57.0132 142.729L30.4652 112.87C26.6855 105.581 35.4053 97.3295 42.5669 101.242L67.0545 126.014C68.6223 127.634 71.3979 125.928 71.6916 124.039C71.8952 122.727 69.6217 120.249 68.6934 119.165C55.7675 104.046 38.844 90.1774 25.3261 75.3664C23.7583 73.6471 20.3528 70.0995 19.8697 68.0486C17.7619 59.0966 28.3717 55.4022 34.3538 60.6691C52.6272 80.8466 75.2487 99.0678 93.0958 119.392C108.267 136.671 107.523 158.487 91.4948 174.894H91.4901Z" fill="white"/>
<path d="M71.2843 88.3824C70.5643 88.5766 70.498 88.1929 70.0954 87.9182C69.205 87.2978 60.3004 78.4453 59.8883 77.7537C58.8889 76.0628 61.6313 70.9711 62.6781 69.1239C64.5158 65.8699 67.6419 61.6876 70.9527 59.8735C74.6472 57.8463 79.8289 56.79 79.7768 62.507L71.2795 88.3871L71.2843 88.3824Z" fill="white"/>
<path d="M39.4314 6.08594C42.7517 5.5744 47.0666 7.2227 49.2833 9.74251C51.1021 11.8171 51.8126 15.8005 55.6444 13.2949C58.0221 11.7366 58.2637 8.58681 62.5123 6.90062C72.8094 2.81303 79.8194 12.8165 75.6466 22.4031C72.9373 28.6316 62.0908 37.7351 56.2838 41.4059C55.3981 41.9648 54.394 43.0732 53.3188 42.6895C51.4621 42.0359 43.1117 35.1774 41.2029 33.4534C37.8305 30.4078 32.7151 25.3019 31.4788 20.9159C29.6032 14.2327 32.0188 7.2227 39.4314 6.08594Z" fill="#F64747"/>
</svg>
