<svg width="212" height="196" viewBox="0 0 212 196" fill="none" xmlns="http://www.w3.org/2000/svg">
<path d="M123.161 48.6212C145.519 50.1768 162.847 68.1957 164.696 90.0773C165.992 105.401 160.686 118.497 150.328 129.52C131.317 149.749 109.932 168.454 90.7176 188.567C85.2255 193.164 78.601 192.726 73.4539 187.91L12.7379 127.767C-10.1816 102.518 -1.46684 59.3637 33.2198 50.1067C51.8483 45.1353 70.2268 51.8793 82.3058 66.2983C92.507 54.3923 107.189 47.5082 123.161 48.6212Z" fill="white"/>
<path d="M123.161 48.6212C107.192 47.5104 92.507 54.3923 82.3081 66.2983C70.2246 51.8793 51.8483 45.1353 33.2198 50.1067C-1.46906 59.3637 -10.1816 102.518 12.7379 127.767L73.4539 187.91C78.601 192.726 85.2277 193.164 90.7176 188.567C109.932 168.454 131.317 149.749 150.328 129.52C160.686 118.497 165.992 105.401 164.696 90.0773C162.847 68.1957 145.519 50.1768 123.161 48.6212ZM121.704 147.946C109.802 159.85 97.8 171.666 85.8404 183.517C83.6219 185.204 81.3746 185.296 79.1185 183.614L18.4887 123.385C2.44377 106.164 2.89056 77.135 22.6272 62.8387C38.7518 51.1584 60.8241 53.838 74.4603 67.9415C76.1281 69.6659 78.5987 73.958 80.3107 74.8542C84.8252 77.2205 86.9508 71.6925 89.2799 69.048C105.615 50.5099 136.103 50.9327 150.629 71.3661C162.285 87.7614 159.133 109.43 145.904 123.823C138.412 131.972 129.602 140.045 121.704 147.946Z" fill="black"/>
<path d="M127.087 52.5471C111.118 51.4363 96.4331 58.3182 86.2341 70.2242C74.1506 55.8052 55.7743 49.0612 37.1459 54.0326C2.45697 63.2896 -6.25562 106.444 16.6639 131.693L77.3799 191.836C82.527 196.652 89.1538 197.09 94.6436 192.493C113.858 172.38 135.243 153.675 154.254 133.446C164.612 122.423 169.918 109.327 168.622 94.0032C166.773 72.1216 149.445 54.1027 127.087 52.5471ZM125.63 151.872C113.728 163.776 101.726 175.592 89.7664 187.443C87.5479 189.13 85.3007 189.222 83.0446 187.539L22.4147 127.311C6.3698 110.09 6.81659 81.0609 26.5532 66.7646C42.6778 55.0843 64.7501 57.7639 78.3863 71.8674C80.0541 73.5918 82.5248 77.8839 84.2368 78.7801C88.7512 81.1464 90.8768 75.6184 93.2059 72.9739C109.541 54.4358 140.029 54.8586 154.555 75.292C166.211 91.6873 163.059 113.356 149.83 127.749C142.338 135.897 133.528 143.971 125.63 151.872Z" fill="black"/>
<path d="M121.704 147.946C129.605 140.045 138.413 131.971 145.904 123.823C159.134 109.43 162.286 87.7611 150.629 71.3657C136.104 50.9324 105.615 50.5095 89.2803 69.0477C86.9512 71.6922 84.8256 77.2201 80.3112 74.8538C78.5992 73.9555 76.1285 69.6633 74.4608 67.9412C60.8245 53.8399 38.7522 51.1581 22.6276 62.8383C2.89101 77.1347 2.4442 106.163 18.4892 123.385L79.119 183.613C81.3751 185.296 83.6224 185.204 85.8409 183.517C97.8005 171.666 109.802 159.85 121.704 147.946Z" fill="#F64747"/>
<path d="M36.0555 69.1584C38.7303 68.4732 41.454 70.0862 42.1395 72.761C42.8248 75.436 41.212 78.1606 38.5369 78.8459C29.3124 81.2093 26.3822 88.467 26.6033 93.4084C26.7267 96.167 24.5905 98.5037 21.8318 98.6272C19.0735 98.7504 16.7377 96.6141 16.6141 93.8557C16.2149 84.9364 21.5531 72.8738 36.0555 69.1584Z" fill="white" fill-opacity="0.57"/>
<path d="M115.16 0.0518057C109.05 0.576863 104.663 5.21936 104.064 11.2485L104.037 86.6077C104.484 92.6189 108.67 97.2547 114.669 98.1141C115.295 98.2038 118.413 98.2622 118.53 98.4327L118.599 111.983C118.914 115.098 122.258 116.282 124.874 115.008L145.495 98.3205C164.25 98.1163 183.051 98.5696 201.782 98.0894C207.277 97.2188 211.508 92.6189 211.973 87.0722C211.829 61.3466 212.233 35.5784 211.769 9.8798C210.709 4.09071 206.103 0.372674 200.282 0.00244141L115.16 0.0518057Z" fill="white"/>
<path d="M115.16 0.0516082L200.282 0C206.103 0.370233 210.709 4.08827 211.769 9.87736C212.231 35.576 211.829 61.3464 211.973 87.0697C211.511 92.6165 207.279 97.2163 201.782 98.087C183.053 98.5671 164.25 98.1116 145.495 98.3181L124.874 115.005C122.258 116.278 118.914 115.095 118.599 111.981L118.53 98.4303C118.411 98.262 115.295 98.2014 114.669 98.1116C108.67 97.2545 104.484 92.6187 104.037 86.6052L104.064 11.2483C104.663 5.21916 109.05 0.576665 115.16 0.0516082ZM123.554 109.894L143.483 93.2111L200.127 93.1842C204.293 92.8768 206.666 90.2358 207.016 86.143C206.902 61.2252 207.218 36.2918 206.853 11.3852C206.457 7.37997 203.463 5.39866 199.653 5.11594C171.288 5.2416 142.875 4.85341 114.536 5.31115C110.372 6.0965 109.205 9.41288 108.991 13.2341C108.592 20.3246 109.308 27.7831 108.991 34.9141C109.566 51.1123 108.262 68.0398 108.991 84.2874C109.234 89.7062 111.014 92.805 116.819 93.1774C118.525 93.2874 121.228 92.7691 122.613 93.7317C122.813 93.8708 123.551 94.627 123.551 94.8042V109.894H123.554Z" fill="black"/>
<path d="M123.553 109.894V94.8041C123.553 94.6269 122.815 93.8707 122.615 93.7316C121.23 92.7712 118.527 93.2873 116.821 93.1774C111.016 92.8049 109.236 89.7062 108.993 84.2873C108.264 68.0397 109.568 51.1122 108.993 34.914C109.31 27.7831 108.594 20.3246 108.993 13.2341C109.209 9.41506 110.374 6.09643 114.538 5.31109C142.877 4.85334 171.29 5.24153 199.655 5.11587C203.465 5.3986 206.459 7.37766 206.854 11.3851C207.22 36.2895 206.904 61.2252 207.018 86.1429C206.668 90.2357 204.295 92.8789 200.129 93.1841L143.485 93.211L123.556 109.894H123.553ZM171.862 39.1638C172.919 32.356 176.812 24.801 172.452 18.3769C169.678 14.2887 164.028 12.7359 160.649 17.0441C159.078 19.0478 159.495 20.8227 158.968 23.1024C158.526 25.0052 157.206 27.4577 156.193 29.1518C153.389 33.8482 149.47 37.6604 144.841 40.555C144.379 40.3665 143.997 40.0277 143.521 39.8639C142.145 39.3927 134.254 39.4645 132.45 39.6215C128.844 39.9334 125.706 43.4405 125.405 46.9723C124.696 55.2723 125.946 64.573 125.414 72.9761C125.76 75.6306 127.45 78.2267 129.951 79.2746C132.039 80.1497 138.677 80.0554 141.133 79.8714C143.077 79.7256 144.87 78.9806 145.878 77.2618L146.078 77.217C148.909 78.202 151.708 79.3755 154.669 79.9455C156.923 80.3785 158.995 80.2619 161.249 80.4885C167.42 79.9657 174.711 81.1684 180.749 80.4638C184.563 80.0195 187.145 75.7719 186.503 72.1145C189.34 69.7764 190.449 66.128 188.606 62.7779C192.059 60.3164 193.41 56.0419 190.775 52.4159C194.481 48.3366 193.421 41.3583 187.89 39.6171C187.513 39.4981 186.334 39.1548 186.029 39.1548H171.862V39.1638Z" fill="white"/>
<path d="M171.862 39.1635H186.03C186.335 39.1635 187.513 39.5069 187.89 39.6258C193.422 41.367 194.479 48.3453 190.775 52.4246C193.411 56.0506 192.059 60.3251 188.607 62.7866C190.45 66.1367 189.341 69.7851 186.503 72.1232C187.147 75.7784 184.564 80.026 180.75 80.4725C174.711 81.1771 167.42 79.9744 161.249 80.4972C158.995 80.2706 156.925 80.3873 154.669 79.9542C151.708 79.3843 148.909 78.2108 146.078 77.2257L145.878 77.2706C144.871 78.9894 143.077 79.7343 141.133 79.8802C138.677 80.0642 132.037 80.1562 129.951 79.2833C127.448 78.2354 125.76 75.6393 125.415 72.9849C125.947 64.5817 124.696 55.2788 125.406 46.9811C125.706 43.4493 128.845 39.9422 132.45 39.6303C134.255 39.4732 142.148 39.4014 143.521 39.8726C144 40.0364 144.379 40.3752 144.841 40.5637C149.47 37.6692 153.387 33.8569 156.193 29.1605C157.206 27.4664 158.526 25.0139 158.968 23.1112C159.498 20.8337 159.078 19.0566 160.649 17.0528C164.028 12.7447 169.678 14.2974 172.453 18.3857C176.812 24.8097 172.92 32.3647 171.862 39.1725V39.1635ZM181.592 73.2362C179.827 72.7493 179.106 70.2967 180.379 68.9572C181.47 67.8083 183.12 68.753 184.126 66.9759C185.652 64.2765 182.561 64.5368 181.641 63.0469C181.1 62.1718 181.134 60.8008 181.771 59.9773C182.555 58.9676 183.542 59.3244 184.597 59.0888C186.11 58.7522 187.455 57.1479 186.963 55.557C186.413 53.7776 181.978 54.9871 182.734 51.3453C183.194 49.1307 186.339 50.459 187.459 48.177C188.485 46.0903 187.291 44.2413 185.08 43.9766C179.827 43.3483 173.434 44.4074 168.062 43.9631C166.834 43.815 166.046 42.6235 166.017 41.4478C166.675 38.3939 167.557 35.4074 168.221 32.3535C169.02 28.6781 170.551 24.0132 167.896 20.7574C167.267 19.9855 165.709 18.9309 164.807 19.8082C164.47 20.1358 163.976 23.4949 163.763 24.3363C161.366 33.7626 154.797 40.5256 146.801 45.6101L146.767 72.6438C150.112 73.8936 153.933 75.3229 157.529 75.5383C164.654 75.9647 172.199 75.2063 179.369 75.5316C180.53 75.3611 181.877 74.5847 181.587 73.2339L181.592 73.2362ZM141.631 44.9257C141.324 44.8023 140.998 44.7529 140.668 44.7283C138.827 44.5891 134.686 44.5084 132.935 44.7485C131.211 44.9841 130.685 46.364 130.515 47.901C131.031 55.5907 129.844 64.1509 130.524 71.7395C130.638 73.0051 131.076 74.4389 132.493 74.7261C133.642 74.9594 139.229 74.919 140.513 74.7642C140.926 74.7149 141.622 74.4478 141.777 74.0417L141.631 44.928V44.9257Z" fill="black"/>
<path d="M181.591 73.2364C181.879 74.5872 180.534 75.3636 179.373 75.5341C172.206 75.2087 164.659 75.9672 157.533 75.5408C153.935 75.3254 150.114 73.8961 146.772 72.6463L146.805 45.6126C154.804 40.5303 161.372 33.7674 163.767 24.3388C163.981 23.4951 164.474 20.1383 164.811 19.8107C165.714 18.9334 167.272 19.988 167.9 20.7599C170.556 24.0157 169.025 28.6806 168.226 32.356C167.561 35.4099 166.679 38.3964 166.021 41.4503C166.05 42.6238 166.838 43.8175 168.066 43.9656C173.438 44.4099 179.834 43.3508 185.084 43.9791C187.293 44.2438 188.487 46.0928 187.464 48.1795C186.344 50.4615 183.199 49.1354 182.738 51.3478C181.982 54.9896 186.42 53.7824 186.968 55.5595C187.459 57.1481 186.112 58.7547 184.602 59.0913C183.544 59.3269 182.559 58.9701 181.775 59.9798C181.138 60.8011 181.104 62.1721 181.645 63.0494C182.566 64.5393 185.657 64.2768 184.13 66.9784C183.125 68.7555 181.475 67.8108 180.384 68.9597C179.111 70.2992 179.831 72.7495 181.596 73.2387L181.591 73.2364Z" fill="white"/>
<path d="M141.631 44.926L141.777 74.0397C141.622 74.4459 140.926 74.7129 140.513 74.7623C139.229 74.9171 133.644 74.9575 132.492 74.7241C131.078 74.4369 130.638 73.0031 130.524 71.7376C129.843 64.1489 131.033 55.5909 130.515 47.8991C130.685 46.3598 131.21 44.9798 132.934 44.7465C134.685 44.5086 138.827 44.5894 140.668 44.7263C140.998 44.751 141.323 44.8003 141.631 44.9238V44.926Z" fill="#4E8CFF"/>
</svg>
