<svg width="212" height="196" viewBox="0 0 212 196" fill="none" xmlns="http://www.w3.org/2000/svg">
<path d="M123.161 48.6144C145.519 50.17 162.847 68.1889 164.696 90.0704C165.992 105.394 160.686 118.49 150.328 129.513C131.317 149.743 109.932 168.447 90.7176 188.561C85.2255 193.157 78.601 192.719 73.4539 187.903L12.7379 127.76C-10.1816 102.511 -1.46684 59.3569 33.2198 50.0999C51.8483 45.1285 70.2268 51.8724 82.3058 66.2914C92.507 54.3855 107.189 47.5014 123.161 48.6144Z" fill="white"/>
<path d="M123.161 48.6144C107.192 47.5036 92.507 54.3855 82.3081 66.2914C70.2246 51.8724 51.8483 45.1285 33.2198 50.0999C-1.46906 59.3569 -10.1816 102.511 12.7379 127.76L73.4539 187.903C78.601 192.719 85.2277 193.157 90.7176 188.561C109.932 168.447 131.317 149.743 150.328 129.513C160.686 118.49 165.992 105.394 164.696 90.0704C162.847 68.1889 145.519 50.17 123.161 48.6144ZM121.704 147.939C109.802 159.843 97.8 171.659 85.8404 183.51C83.6219 185.197 81.3746 185.289 79.1185 183.607L18.4887 123.378C2.44377 106.157 2.89056 77.1282 22.6272 62.8318C38.7518 51.1516 60.8241 53.8312 74.4603 67.9347C76.1281 69.659 78.5987 73.9512 80.3107 74.8473C84.8252 77.2136 86.9508 71.6857 89.2799 69.0412C105.615 50.503 136.103 50.9259 150.629 71.3592C162.285 87.7546 159.133 109.424 145.904 123.816C138.412 131.965 129.602 140.039 121.704 147.939Z" fill="black"/>
<path d="M127.087 52.5402C111.118 51.4293 96.4331 58.3113 86.2341 70.2172C74.1506 55.7982 55.7743 49.0543 37.1459 54.0257C2.45697 63.2827 -6.25562 106.437 16.6639 131.686L77.3799 191.829C82.527 196.645 89.1538 197.083 94.6436 192.486C113.858 172.373 135.243 153.668 154.254 133.439C164.612 122.416 169.918 109.32 168.622 93.9962C166.773 72.1146 149.445 54.0958 127.087 52.5402ZM125.63 151.865C113.728 163.769 101.726 175.585 89.7664 187.436C87.5479 189.123 85.3007 189.215 83.0446 187.533L22.4147 127.304C6.3698 110.083 6.81659 81.0539 26.5532 66.7576C42.6778 55.0774 64.7501 57.757 78.3863 71.8605C80.0541 73.5848 82.5248 77.877 84.2368 78.7731C88.7512 81.1394 90.8768 75.6115 93.2059 72.9669C109.541 54.4288 140.029 54.8517 154.555 75.285C166.211 91.6803 163.059 113.349 149.83 127.742C142.338 135.89 133.528 143.964 125.63 151.865Z" fill="black"/>
<path d="M121.704 147.939C129.605 140.038 138.413 131.964 145.904 123.816C159.134 109.423 162.286 87.7541 150.629 71.3588C136.104 50.9255 105.615 50.5026 89.2803 69.0407C86.9512 71.6852 84.8256 77.2132 80.3112 74.8469C78.5992 73.9486 76.1285 69.6564 74.4608 67.9342C60.8245 53.8329 38.7522 51.1511 22.6276 62.8314C2.89101 77.1277 2.4442 106.156 18.4892 123.378L79.119 183.606C81.3751 185.289 83.6224 185.197 85.8409 183.51C97.8005 171.659 109.802 159.843 121.704 147.939Z" fill="#4E8CFF"/>
<path d="M36.0556 69.1515C38.7305 68.4663 41.4541 70.0793 42.1396 72.754C42.8249 75.4291 41.2121 78.1537 38.537 78.839C29.3125 81.2024 26.3823 88.4601 26.6035 93.4015C26.7268 96.1601 24.5906 98.4968 21.832 98.6202C19.0736 98.7435 16.7378 96.6071 16.6142 93.8487C16.215 84.9294 21.5532 72.8669 36.0556 69.1515Z" fill="#ffffff" fill-opacity="0.57"/>
<path d="M115.16 0.0449698C109.05 0.570027 104.663 5.21252 104.064 11.2417L104.037 86.6009C104.484 92.6121 108.67 97.2478 114.669 98.1072C115.295 98.197 118.413 98.2553 118.53 98.4259L118.599 111.976C118.914 115.091 122.258 116.276 124.874 115.001L145.495 98.3137C164.25 98.1095 183.051 98.5627 201.782 98.0826C207.277 97.2119 211.508 92.6121 211.973 87.0653C211.829 61.3398 212.233 35.5716 211.769 9.87296C210.709 4.08387 206.103 0.365838 200.282 -0.00439453L115.16 0.0449698Z" fill="white"/>
<path d="M115.16 0.0447722L200.282 -0.00683594C206.103 0.363397 210.709 4.08143 211.769 9.87052C212.231 35.5691 211.829 61.3396 211.973 87.0629C211.511 92.6096 207.279 97.2095 201.782 98.0801C183.053 98.5603 164.25 98.1048 145.495 98.3112L124.874 114.999C122.258 116.271 118.914 115.088 118.599 111.974L118.53 98.4234C118.411 98.2551 115.295 98.1945 114.669 98.1048C108.67 97.2477 104.484 92.6119 104.037 86.5984L104.064 11.2415C104.663 5.21232 109.05 0.569829 115.16 0.0447722ZM123.554 109.887L143.483 93.2043L200.127 93.1773C204.293 92.8699 206.666 90.2289 207.016 86.1362C206.902 61.2184 207.218 36.2849 206.853 11.3784C206.457 7.37313 203.463 5.39183 199.653 5.1091C171.288 5.23476 142.875 4.84658 114.536 5.30432C110.372 6.08966 109.205 9.40605 108.991 13.2273C108.592 20.3178 109.308 27.7763 108.991 34.9072C109.566 51.1055 108.262 68.0329 108.991 84.2805C109.234 89.6994 111.014 92.7981 116.819 93.1706C118.525 93.2806 121.228 92.7622 122.613 93.7248C122.813 93.864 123.551 94.6201 123.551 94.7974V109.887H123.554Z" fill="black"/>
<path d="M123.553 109.887V94.7973C123.553 94.62 122.815 93.8639 122.615 93.7248C121.23 92.7644 118.527 93.2805 116.821 93.1705C111.016 92.7981 109.236 89.6993 108.993 84.2805C108.264 68.0329 109.568 51.1054 108.993 34.9071C109.31 27.7762 108.594 20.3177 108.993 13.2272C109.209 9.40822 110.374 6.08959 114.538 5.30425C142.877 4.84651 171.29 5.23469 199.655 5.10904C203.465 5.39176 206.459 7.37082 206.854 11.3783C207.22 36.2826 206.904 61.2183 207.018 86.1361C206.668 90.2289 204.295 92.8721 200.129 93.1773L143.485 93.2042L123.556 109.887H123.553ZM171.862 39.157C172.919 32.3492 176.812 24.7942 172.452 18.3701C169.678 14.2818 164.028 12.7291 160.649 17.0373C159.078 19.041 159.495 20.8159 158.968 23.0956C158.526 24.9984 157.206 27.4509 156.193 29.145C153.389 33.8413 149.47 37.6536 144.841 40.5481C144.379 40.3597 143.997 40.0208 143.521 39.857C142.145 39.3858 134.254 39.4576 132.45 39.6147C128.844 39.9266 125.706 43.4337 125.405 46.9655C124.696 55.2654 125.946 64.5661 125.414 72.9693C125.76 75.6237 127.45 78.2199 129.951 79.2677C132.039 80.1428 138.677 80.0486 141.133 79.8646C143.077 79.7187 144.87 78.9738 145.878 77.255L146.078 77.2101C148.909 78.1952 151.708 79.3687 154.669 79.9386C156.923 80.3717 158.995 80.255 161.249 80.4817C167.42 79.9588 174.711 81.1615 180.749 80.457C184.563 80.0127 187.145 75.7651 186.503 72.1077C189.34 69.7696 190.449 66.1211 188.606 62.7711C192.059 60.3096 193.41 56.0351 190.775 52.409C194.481 48.3298 193.421 41.3514 187.89 39.6102C187.513 39.4913 186.334 39.148 186.029 39.148H171.862V39.157Z" fill="white"/>
<path d="M171.862 39.1566H186.03C186.335 39.1566 187.513 39.4999 187.89 39.6188C193.422 41.36 194.479 48.3384 190.775 52.4176C193.411 56.0437 192.059 60.3182 188.607 62.7797C190.45 66.1297 189.341 69.7782 186.503 72.1163C187.147 75.7715 184.564 80.0191 180.75 80.4656C174.711 81.1701 167.42 79.9674 161.249 80.4903C158.995 80.2636 156.925 80.3803 154.669 79.9472C151.708 79.3773 148.909 78.2038 146.078 77.2188L145.878 77.2636C144.871 78.9824 143.077 79.7273 141.133 79.8732C138.677 80.0572 132.037 80.1492 129.951 79.2763C127.448 78.2285 125.76 75.6324 125.415 72.9779C125.947 64.5747 124.696 55.2718 125.406 46.9741C125.706 43.4423 128.845 39.9352 132.45 39.6233C134.255 39.4662 142.148 39.3944 143.521 39.8656C144 40.0294 144.379 40.3683 144.841 40.5567C149.47 37.6622 153.387 33.8499 156.193 29.1536C157.206 27.4595 158.526 25.007 158.968 23.1042C159.498 20.8267 159.078 19.0496 160.649 17.0459C164.028 12.7377 169.678 14.2904 172.453 18.3787C176.812 24.8028 172.92 32.3578 171.862 39.1656V39.1566ZM181.592 73.2292C179.827 72.7423 179.106 70.2898 180.379 68.9502C181.47 67.8014 183.12 68.746 184.126 66.9689C185.652 64.2696 182.561 64.5299 181.641 63.04C181.1 62.1649 181.134 60.7939 181.771 59.9704C182.555 58.9607 183.542 59.3174 184.597 59.0818C186.11 58.7453 187.455 57.1409 186.963 55.55C186.413 53.7707 181.978 54.9801 182.734 51.3384C183.194 49.1237 186.339 50.4521 187.459 48.1701C188.485 46.0833 187.291 44.2344 185.08 43.9696C179.827 43.3413 173.434 44.4004 168.062 43.9562C166.834 43.8081 166.046 42.6166 166.017 41.4408C166.675 38.387 167.557 35.4004 168.221 32.3466C169.02 28.6712 170.551 24.0062 167.896 20.7504C167.267 19.9785 165.709 18.9239 164.807 19.8013C164.47 20.1289 163.976 23.4879 163.763 24.3293C161.366 33.7557 154.797 40.5186 146.801 45.6031L146.767 72.6368C150.112 73.8867 153.933 75.316 157.529 75.5314C164.654 75.9577 172.199 75.1993 179.369 75.5247C180.53 75.3541 181.877 74.5778 181.587 73.227L181.592 73.2292ZM141.631 44.9188C141.324 44.7953 140.998 44.746 140.668 44.7213C138.827 44.5822 134.686 44.5014 132.935 44.7415C131.211 44.9771 130.685 46.3571 130.515 47.8941C131.031 55.5837 129.844 64.1439 130.524 71.7326C130.638 72.9981 131.076 74.4319 132.493 74.7191C133.642 74.9525 139.229 74.9121 140.513 74.7573C140.926 74.7079 141.622 74.4409 141.777 74.0347L141.631 44.921V44.9188Z" fill="black"/>
<path d="M181.591 73.2296C181.879 74.5804 180.534 75.3567 179.373 75.5273C172.206 75.2019 164.659 75.9603 157.533 75.534C153.935 75.3186 150.114 73.8893 146.772 72.6395L146.805 45.6057C154.804 40.5235 161.372 33.7605 163.767 24.332C163.981 23.4883 164.474 20.1315 164.811 19.8039C165.714 18.9266 167.272 19.9812 167.9 20.753C170.556 24.0088 169.025 28.6738 168.226 32.3492C167.561 35.403 166.679 38.3896 166.021 41.4434C166.05 42.617 166.838 43.8107 168.066 43.9588C173.438 44.403 179.834 43.344 185.084 43.9722C187.293 44.237 188.487 46.0859 187.464 48.1727C186.344 50.4547 183.199 49.1286 182.738 51.341C181.982 54.9827 186.42 53.7755 186.968 55.5527C187.459 57.1413 186.112 58.7479 184.602 59.0845C183.544 59.3201 182.559 58.9633 181.775 59.973C181.138 60.7943 181.104 62.1652 181.645 63.0426C182.566 64.5325 185.657 64.27 184.13 66.9715C183.125 68.7486 181.475 67.804 180.384 68.9528C179.111 70.2924 179.831 72.7427 181.596 73.2318L181.591 73.2296Z" fill="white"/>
<path d="M141.631 44.9192L141.777 74.0329C141.622 74.439 140.926 74.7061 140.513 74.7554C139.229 74.9102 133.644 74.9506 132.492 74.7173C131.078 74.4301 130.638 72.9963 130.524 71.7307C129.843 64.1421 131.033 55.5841 130.515 47.8922C130.685 46.353 131.21 44.973 132.934 44.7397C134.685 44.5018 138.827 44.5826 140.668 44.7195C140.998 44.7441 141.323 44.7935 141.631 44.9169V44.9192Z" fill="white"/>
</svg>
