<svg width="194" height="194" viewBox="0 0 194 194" fill="none" xmlns="http://www.w3.org/2000/svg">
<path d="M91.1882 0.17107C65.3719 1.72542 40.4759 13.9577 23.6818 33.4993C21.6343 35.8815 18.5168 41.0862 16.6498 42.7594C15.5578 43.7369 13.4134 44.3137 12.0572 45.212C4.0521 50.5223 -0.615357 60.1787 0.186036 69.7734C0.406199 72.3889 1.87248 75.502 1.92973 77.7565C2.0222 81.6181 0.357763 87.5626 0.133197 91.8513C-2.85662 149.028 44.8967 196.772 102.06 193.778C155.163 190.995 196.651 145.096 193.868 91.8513C193.643 87.567 191.974 81.6137 192.071 77.7565C192.128 75.4007 193.612 72.0235 193.815 69.3331C194.524 59.8793 189.777 50.8306 182.124 45.4718C180.698 44.4723 178.408 43.6973 177.356 42.755C175.559 41.1434 172.486 36.0444 170.526 33.7327C151.165 10.937 121.161 -1.63427 91.1882 0.17107Z" fill="white"/>
<path d="M91.1878 0.170701C121.161 -1.63023 151.165 10.9367 170.526 33.7367C172.485 36.0485 175.559 41.1474 177.355 42.759C178.408 43.7013 180.697 44.4807 182.124 45.4758C189.781 50.8302 194.523 59.8833 193.815 69.3371C193.612 72.0275 192.133 75.4048 192.071 77.7605C191.974 81.6178 193.643 87.571 193.867 91.8554C196.65 145.1 155.163 190.999 102.059 193.782C44.9007 196.772 -2.85259 149.027 0.132815 91.851C0.357382 87.5622 2.02181 81.6178 1.92935 77.7561C1.8721 75.4972 0.405817 72.3885 0.185654 69.773C-0.615739 60.1783 4.05171 50.5176 12.0568 45.2116C13.4086 44.3134 15.5574 43.7365 16.6494 42.759C18.5164 41.0858 21.6339 35.8855 23.6814 33.499C40.4755 13.9573 65.3671 1.72065 91.1878 0.170701ZM164.37 40.9889C164.551 40.3196 164.194 40.258 163.938 39.8837C161.838 36.8454 156.735 32.2088 153.811 29.7562C131.139 10.7561 100.532 4.40664 72.0072 12.6936C55.517 17.4843 40.7749 27.3784 29.6347 40.3372C29.4409 41.2619 30.0045 40.9405 30.599 41.1166C32.8358 41.7815 35.3281 41.7947 37.3492 43.1289C53.4651 13.3937 97.8147 32.1956 86.2077 64.7621C82.4297 75.3563 75.1688 89.3455 70.083 99.7152C66.8554 106.294 64.7859 113.484 55.6227 110.336C40.885 102.692 24.6414 97.1701 10.4717 88.5529C10.0534 88.2975 10.1678 87.8132 9.59101 88.5441C5.03805 133.004 36.1559 174.465 79.7393 183.091C130.135 193.069 181.424 156.05 184.647 104.202C184.814 101.498 185.105 90.8426 184.568 88.8303C184.497 88.5749 184.044 87.9144 183.753 88.3239C181.648 90.0324 179.275 91.2565 176.858 92.4498C164.198 98.7068 151.01 103.991 138.382 110.336C134.564 111.969 129.976 110.917 127.735 107.346C121.795 94.0041 114.402 80.7107 108.81 67.2676C105.08 58.3025 104.367 50.3987 109.316 41.6406C119.928 22.8651 146.911 24.3754 156.651 43.1289L164.366 40.9889H164.37ZM132.151 37.1317C124.749 37.3122 117.29 42.7634 115.525 50.042C113.662 57.6993 116.445 61.9969 119.382 68.5841C124.239 79.4734 129.804 90.0676 134.476 101.049L135.441 101.679C149.764 94.8848 164.537 88.8611 178.421 81.2347C192.696 69.0333 180.917 45.6167 162.587 50.4295C159.271 51.3013 157.963 53.1991 153.877 52.1292C149.346 50.9403 148.58 46.744 146.057 43.6617C142.926 39.8353 137.14 37.004 132.147 37.1273L132.151 37.1317ZM58.1458 37.5808C54.2269 38.1444 49.8764 40.9977 47.5031 44.1108C45.3543 46.9245 44.8655 50.2974 41.0743 51.7725C36.5478 53.5338 35.1563 51.451 31.4004 50.4471C14.4082 45.9029 2.07025 66.3781 13.7697 79.5262C17.5917 83.8194 37.6045 92.1372 44.0025 95.0873C48.9209 97.355 53.8482 99.6623 58.8679 101.697L59.6693 100.746C64.7154 87.8792 72.3771 75.3255 77.4012 62.5561C82.8436 48.7298 73.0684 35.4276 58.1502 37.5808H58.1458Z" fill="black"/>
<path d="M164.369 40.989L156.654 43.129C146.914 24.3755 119.931 22.8652 109.319 41.6407C104.37 50.3988 105.083 58.3026 108.813 67.2677C114.405 80.7108 121.798 93.9998 127.738 107.346C129.975 110.917 134.563 111.965 138.385 110.336C151.014 103.991 164.197 98.7025 176.861 92.4499C179.278 91.2566 181.652 90.0325 183.756 88.324C184.047 87.9101 184.501 88.575 184.571 88.8304C185.108 90.8427 184.818 101.499 184.65 104.202C181.427 156.051 130.138 193.069 79.7427 183.091C36.1504 174.456 5.03699 132.999 9.58996 88.5398C10.1668 87.8089 10.0523 88.2976 10.4706 88.5486C24.6403 97.1702 40.8839 102.692 55.6216 110.332C64.7848 113.48 66.8543 106.289 70.0819 99.7109C75.1677 89.3456 82.4331 75.352 86.2066 64.7578C97.8136 32.1913 53.464 13.3894 37.3481 43.1246C35.3314 41.7904 32.8348 41.7728 30.5979 41.1123C30.0035 40.9362 29.4398 41.2576 29.6336 40.3329C40.7694 27.3741 55.5159 17.48 72.0061 12.6893C100.526 4.40233 131.137 10.7518 153.81 29.7519C156.734 32.2045 161.837 36.8411 163.937 39.8794C164.197 40.2537 164.549 40.3153 164.369 40.9846V40.989ZM55.9298 126.954C47.1894 130.842 52.1254 137.768 56.5023 142.911C77.4486 167.539 116.219 167.675 137.293 143.149C141.895 137.795 147.095 130.115 137.298 126.844L55.9298 126.954Z" fill="white"/>
<path d="M132.152 37.1319C137.149 37.0086 142.931 39.8399 146.062 43.6664C148.585 46.753 149.355 50.9449 153.882 52.1338C157.968 53.2038 159.276 51.306 162.591 50.4342C180.922 45.6214 192.701 69.0379 178.426 81.2394C164.542 88.8614 149.769 94.8851 135.445 101.684L134.481 101.054C129.809 90.0723 124.243 79.4781 119.387 68.5888C116.445 62.0015 113.667 57.6995 115.529 50.0467C117.392 42.3938 124.754 37.3169 132.156 37.1363L132.152 37.1319Z" fill="#F64747"/>
<path d="M58.1444 37.581C73.067 35.4323 82.8378 48.7301 77.3954 62.5563C72.3713 75.3258 64.714 87.8795 59.6635 100.746L58.8621 101.697C53.8424 99.6626 48.9151 97.3553 43.9967 95.0876C37.5987 92.1374 17.5815 83.8197 13.7639 79.5265C2.06445 66.3784 14.4024 45.9032 31.3946 50.4474C35.1505 51.4513 36.542 53.5296 41.0685 51.7727C44.8597 50.2977 45.3485 46.9248 47.4973 44.1111C49.875 40.998 54.2211 38.1491 58.1399 37.581H58.1444Z" fill="#F64747"/>
<path d="M55.9313 126.954L137.299 126.844C147.096 130.116 141.896 137.795 137.295 143.149C116.221 167.675 77.45 167.535 56.5037 142.911C52.1269 137.768 47.1908 130.842 55.9313 126.954ZM131.346 135.659H62.6551C62.4613 136.43 62.9721 136.54 63.3112 136.985C78.9603 157.416 115.041 157.411 130.685 136.985C131.024 136.54 131.535 136.43 131.342 135.659H131.346Z" fill="black"/>
<path d="M131.345 135.659C131.539 136.43 131.028 136.54 130.689 136.984C115.045 157.411 78.9599 157.416 63.3151 136.984C62.9761 136.54 62.4653 136.43 62.659 135.659H131.35H131.345Z" fill="#4E8CFF"/>
<path d="M67.5304 43.3162C71.7372 45.515 76.177 51.149 74.1765 58.7579C73.7551 60.3601 72.1145 61.317 70.5122 60.8957C68.91 60.4743 67.9527 58.8344 68.3738 57.2322C69.4997 52.9499 67.0934 49.8584 64.751 48.6341C63.2826 47.8666 62.7149 46.0537 63.4824 44.5853C64.2499 43.117 66.062 42.5488 67.5304 43.3162Z" fill="white" fill-opacity="0.71"/>
<path d="M172.53 55.3162C176.737 57.515 181.177 63.149 179.177 70.7579C178.755 72.3601 177.114 73.317 175.512 72.8957C173.91 72.4743 172.953 70.8344 173.374 69.2322C174.5 64.9499 172.093 61.8584 169.751 60.6341C168.283 59.8666 167.715 58.0537 168.482 56.5853C169.25 55.117 171.062 54.5488 172.53 55.3162Z" fill="white" fill-opacity="0.71"/>
</svg>
