<svg width="201" height="201" viewBox="0 0 201 201" fill="none" xmlns="http://www.w3.org/2000/svg">
<path d="M94.9356 0.165607C12.3177 5.0861 -29.9921 102.885 24.3568 165.784C29.1724 171.357 35.2968 175.406 39.8707 180.368C44.887 185.808 45.9814 189.466 54.3403 191.436C63.1507 193.511 71.2588 196.908 79.9643 198.645C155.204 213.667 219.48 143.097 196.136 69.7047C194.253 63.7809 192.976 60.4109 191.581 54.1953C189.688 45.7406 185.99 44.7784 180.513 39.7257C177.111 36.5882 173.86 31.5264 170.28 28.0697C150.607 9.05351 122.37 -1.46696 94.9356 0.165607Z" fill="white"/>
<path d="M94.9356 0.165607C122.375 -1.46696 150.611 9.05351 170.28 28.0697C173.855 31.5309 177.106 36.5882 180.513 39.7257C185.99 44.7784 189.688 45.7406 191.581 54.1953C192.972 60.4109 194.253 63.7855 196.136 69.7047C219.48 143.097 155.204 213.667 79.9643 198.645C71.2634 196.908 63.1507 193.511 54.3403 191.436C45.986 189.466 44.887 185.808 39.8707 180.368C35.2968 175.411 29.1724 171.357 24.3568 165.784C-29.9921 102.885 12.3177 5.0861 94.9356 0.165607ZM167.535 37.8788C168.018 37.3361 164.082 33.6879 163.439 33.086C122.616 -4.85977 57.0263 1.95322 25.1548 47.5875C1.97968 80.7678 3.27478 125.882 28.4655 157.571C29.1861 158.479 37.4173 168.01 38.0192 167.394C39.5059 161.115 42.6068 154.94 45.6987 149.304C48.029 145.053 51.9918 138.022 54.9788 134.414C56.8986 132.098 59.5162 130.447 62.2067 132.955C63.479 134.141 66.6712 139.581 67.8569 141.442C69.8269 144.529 71.5507 147.808 73.3656 150.977L151.118 73.2252C147.944 71.4148 144.67 69.6819 141.582 67.7164C139.626 66.4715 134.432 63.4343 133.105 62.0571C128.855 57.6246 135.289 54.3823 138.39 52.2891C147.159 46.3654 157.292 40.6468 167.535 37.8833V37.8788ZM167.872 46.2012C165.998 46.5159 161.41 48.7276 159.477 49.6624C157.543 50.5973 143.817 58.1764 143.835 59.093C150.438 62.9829 157.794 68.1587 165.013 70.7398C188.042 78.9756 190.03 42.4664 167.877 46.2012H167.872ZM72.2256 187.911C77.3969 189.388 82.6503 190.87 88.0177 191.504C149.253 198.778 198.909 149.094 191.645 87.8772C191.006 82.5098 189.529 77.2564 188.051 72.0851C183.837 76.317 179.232 79.8147 173.007 80.2981C178.465 99.9755 175.506 121.281 165.168 138.801C148.067 167.786 113.081 181.836 80.4431 172.862C79.9643 179.091 76.462 183.692 72.2301 187.906L72.2256 187.911ZM163.772 79.0349L159.34 77.2929L77.4379 159.195L79.1799 163.627C128.49 179.602 175.634 138.19 166.025 87.0472C165.783 85.7704 164.388 79.5593 163.777 79.0349H163.772ZM59.2289 143.69C58.3488 143.672 51.0433 156.96 50.1631 158.784C46.9619 165.41 43.4642 172.647 49.2237 179.223C56.6387 187.696 71.8471 182.767 72.2529 171.275C72.4217 166.573 67.8113 158.137 65.4627 153.864C63.5566 150.393 61.3494 147.033 59.2289 143.69Z" fill="black"/>
<path d="M167.535 37.8786C157.292 40.6467 147.159 46.3606 138.39 52.2844C135.294 54.3775 128.859 57.6153 133.105 62.0524C134.427 63.4342 139.626 66.4667 141.582 67.7117C144.669 69.6771 147.948 71.4055 151.118 73.2205L73.3656 150.972C71.5506 147.803 69.8269 144.524 67.8568 141.437C66.6712 139.581 63.479 134.136 62.2067 132.95C59.5162 130.442 56.8986 132.089 54.9787 134.41C51.9918 138.021 48.0289 145.049 45.6987 149.299C42.6068 154.94 39.5104 161.11 38.0192 167.389C37.4173 168.005 29.186 158.474 28.4655 157.567C3.27477 125.882 1.97966 80.7676 25.1548 47.5873C57.0263 1.95306 122.616 -4.85994 163.439 33.0904C164.082 33.6877 168.022 37.3405 167.535 37.8832V37.8786ZM100.048 59.3117L104.644 35.3705C104.494 30.4545 98.0274 29.2643 96.331 34.8506C94.3974 41.203 91.0593 57.2003 90.5258 63.7032C90.1792 67.9078 92.0991 69.1846 96.1166 68.8335C105.424 68.0218 115.913 64.1091 125.348 62.9554C129.995 60.9169 128.969 54.9886 123.993 54.7196L100.048 59.3163V59.3117ZM62.0517 127.122C62.6947 126.521 63.0184 125.303 63.2647 124.459C65.3214 117.473 67.3096 106.41 68.4314 99.077C69.12 94.5806 70.3513 89.9292 63.8484 90.3715C54.7553 90.9917 43.5964 95.447 34.2616 96.3728C29.8017 97.6542 30.6225 104.111 35.0551 104.485L59.4478 99.9024L54.8602 124.291C55.1019 127.793 59.5025 129.48 62.0425 127.118L62.0517 127.122Z" fill="#FFCF4A"/>
<path d="M163.773 79.0352C164.384 79.5642 165.784 85.7753 166.021 87.0476C175.629 138.191 128.485 179.598 79.1756 163.628L77.4336 159.195L159.335 77.2932L163.768 79.0352H163.773Z" fill="#F5968A"/>
<path d="M72.2255 187.911C76.4574 183.697 79.9551 179.092 80.4385 172.867C113.076 181.841 148.062 167.791 165.163 138.806C175.501 121.281 178.461 99.9805 173.002 80.3031C179.231 79.8242 183.833 76.322 188.046 72.0901C189.524 77.2614 191.006 82.5148 191.64 87.8822C198.9 149.099 149.248 198.783 88.0131 191.509C82.6457 190.871 77.3923 189.393 72.2209 187.916L72.2255 187.911Z" fill="#FFCF4A"/>
<path d="M167.872 46.2014C190.026 42.462 188.038 78.9758 165.008 70.74C157.789 68.1589 150.434 62.9831 143.831 59.0932C143.812 58.1811 157.63 50.5473 159.472 49.6626C161.406 48.7323 165.993 46.5206 167.868 46.2014H167.872Z" fill="#A4C9FF"/>
<path d="M59.2281 143.69C61.3486 147.033 63.5557 150.394 65.4619 153.864C67.8104 158.142 72.4208 166.573 72.2521 171.275C71.8462 182.771 56.6379 187.696 49.2229 179.224C43.4679 172.643 46.961 165.411 50.1623 158.785C51.0424 156.96 58.3479 143.672 59.2281 143.69Z" fill="#A4C9FF"/>
<path d="M62.0513 127.123C59.5112 129.485 55.1106 127.798 54.8689 124.295L59.4565 99.9072L35.0638 104.49C30.6313 104.121 29.8059 97.659 34.2703 96.3775C43.6051 95.4518 54.764 90.9965 63.8571 90.3763C70.36 89.9294 69.1288 94.5808 68.4402 99.0818C67.3138 106.419 65.3301 117.478 63.2734 124.464C63.0272 125.308 62.7034 126.525 62.0604 127.127L62.0513 127.123Z" fill="black"/>
<path d="M100.048 59.3121L123.994 54.7153C128.964 54.9844 129.995 60.9127 125.348 62.9511C115.918 64.1094 105.425 68.0221 96.1171 68.8293C92.095 69.1804 90.1796 67.9036 90.5262 63.699C91.0598 57.1961 94.3979 41.1988 96.3314 34.8464C98.0324 29.2601 104.499 30.4503 104.645 35.3663L100.048 59.3075V59.3121Z" fill="black"/>
</svg>
