<svg width="194" height="194" viewBox="0 0 194 194" fill="none" xmlns="http://www.w3.org/2000/svg">
  <circle cx="97" cy="97" r="97" fill="white"/>
  <path d="M91.1878 0.170579C121.161 -1.63035 151.165 10.9365 170.526 33.7366C172.485 36.0483 175.559 41.1473 177.355 42.7589C178.408 43.7012 180.697 44.4806 182.124 45.4757C189.781 50.8301 194.523 59.8832 193.815 69.337C193.612 72.0274 192.133 75.4047 192.071 77.7604C191.974 81.6177 193.643 87.5709 193.867 91.8552C196.65 145.099 155.163 190.999 102.059 193.782C44.9007 196.772 -2.85259 149.027 0.132815 91.8508C0.357382 87.5621 2.02181 81.6177 1.92935 77.756C1.8721 75.4971 0.405817 72.3884 0.185654 69.7729C-0.615739 60.1782 4.05171 50.5174 12.0568 45.2115C13.4086 44.3132 15.5574 43.7364 16.6494 42.7589C18.5164 41.0857 21.6339 35.8854 23.6814 33.4988C40.4755 13.9572 65.3671 1.72053 91.1878 0.170579ZM164.37 40.9888C164.551 40.3195 164.194 40.2578 163.938 39.8836C161.838 36.8453 156.735 32.2087 153.811 29.7561C131.139 10.756 100.532 4.40651 72.0072 12.6934C55.517 17.4842 40.7749 27.3783 29.6347 40.3371C29.4409 41.2618 30.0045 40.9403 30.599 41.1165C32.8358 41.7814 35.3281 41.7946 37.3492 43.1288C53.4651 13.3936 97.8147 32.1955 86.2077 64.762C82.4297 75.3562 75.1688 89.3454 70.083 99.715C66.8554 106.294 64.7859 113.484 55.6227 110.336C40.885 102.692 24.6414 97.17 10.4717 88.5528C10.0534 88.2974 10.1678 87.813 9.59101 88.544C5.03805 133.004 36.1559 174.465 79.7393 183.091C130.135 193.069 181.424 156.05 184.647 104.202C184.814 101.498 185.105 90.8425 184.568 88.8302C184.497 88.5748 184.044 87.9143 183.753 88.3238C181.648 90.0323 179.275 91.2564 176.858 92.4497C164.198 98.7067 151.01 103.991 138.382 110.336C134.564 111.969 129.976 110.917 127.735 107.346C121.795 94.004 114.402 80.7106 108.81 67.2674C105.08 58.3024 104.367 50.3986 109.316 41.6405C119.928 22.865 146.911 24.3753 156.651 43.1288L164.366 40.9888H164.37ZM132.151 37.1315C124.749 37.3121 117.29 42.7633 115.525 50.0419C113.662 57.6992 116.445 61.9967 119.382 68.584C124.239 79.4733 129.804 90.0675 134.476 101.049L135.441 101.679C149.764 94.8847 164.537 88.861 178.421 81.2346C192.696 69.0331 180.917 45.6166 162.587 50.4294C159.271 51.3012 157.963 53.199 153.877 52.129C149.346 50.9402 148.58 46.7438 146.057 43.6616C142.926 39.8351 137.14 37.0038 132.147 37.1271L132.151 37.1315ZM58.1458 37.5807C54.2269 38.1443 49.8764 40.9976 47.5031 44.1107C45.3543 46.9244 44.8655 50.2973 41.0743 51.7724C36.5478 53.5337 35.1563 51.4509 31.4004 50.447C14.4082 45.9028 2.07025 66.378 13.7697 79.5261C17.5917 83.8193 37.6045 92.137 44.0025 95.0872C48.9209 97.3549 53.8482 99.6622 58.8679 101.697L59.6693 100.745C64.7154 87.8791 72.3771 75.3254 77.4012 62.556C82.8436 48.7297 73.0684 35.4275 58.1502 37.5807H58.1458Z" fill="black"/>
</svg>