<svg width="220" height="220" viewBox="0 0 220 220" fill="none" xmlns="http://www.w3.org/2000/svg">
<path d="M30.8631 188.882V213.954C30.8631 214.579 33.8806 217.931 34.6435 218.419C38.8501 221.146 43.1117 219.813 46.3422 216.372C55.862 206.219 63.7253 188.71 72.9427 177.699C74.8879 174.574 72.1866 168.502 72.9015 166.022C73.0389 165.534 79.1151 159.242 79.6719 158.954C80.6685 158.439 80.6823 158.803 81.404 159.297C91.7142 166.379 102.753 190.469 117.49 179.623C136.138 158.445 160.951 139.446 179.001 118.138C190.528 104.531 193.696 86.2592 187.022 69.5813C185.393 65.508 182.561 62.1079 180.815 58.1307L187.93 50.829C193.511 58.536 204.282 63.0146 208.701 51.6533C213.499 39.3165 215.114 23.7858 219.719 11.1399C220.895 4.79299 215.705 -0.489266 209.327 0.0465158C196.542 1.11808 179.152 9.4639 166.024 11.7581C157.184 18.2013 162.278 26.499 169.014 31.9324L157.707 43.0052C145.279 39.4058 131.649 40.759 120.452 47.2708C116.411 49.62 113.489 53.2194 109.572 55.0122C105.406 53.0683 102.018 49.2285 97.7492 46.8312C63.7734 27.7698 22.7455 56.6676 28.9935 94.9348C32.4371 116.023 48.5624 124.643 61.0584 139.679L53.7381 146.892L42.0532 146.837C30.9456 156.117 14.6004 163.316 4.04958 172.74C0.399747 176.003 -1.2224 179.142 1.03898 184.012C2.03564 186.148 5.54113 188.896 7.83688 188.896H30.8631V188.882Z" fill="white"/>
<path d="M30.8631 188.887H7.83687C5.548 188.887 2.03564 186.146 1.03898 184.003C-1.2224 179.14 0.399747 175.994 4.04958 172.731C14.6004 163.3 30.9387 156.108 42.0532 146.828L53.7381 146.883L61.0584 139.67C48.5555 124.634 32.4371 116.014 28.9935 94.9257C22.7386 56.6586 63.7666 27.7607 97.7491 46.8222C102.018 49.2195 105.406 53.0592 109.572 55.0031C113.489 53.2103 116.411 49.611 120.452 47.2618C131.649 40.75 145.279 39.3968 157.707 42.9962L169.014 31.9233C162.278 26.49 157.184 18.1922 166.024 11.7491C179.152 9.45487 196.542 1.10905 209.327 0.0374826C215.705 -0.498299 220.902 4.78396 219.719 11.1309C215.114 23.7836 213.492 39.3144 208.701 51.6442C204.282 63.0124 193.511 58.5338 187.929 50.8199L180.815 58.1217C182.561 62.1057 185.393 65.499 187.022 69.5723C193.696 86.2502 190.528 104.522 179.001 118.129C160.958 139.444 136.145 158.443 117.49 179.614C102.753 190.46 91.7142 166.37 81.404 159.288C80.6822 158.794 80.6616 158.43 79.6718 158.945C79.1151 159.233 73.0389 165.525 72.9014 166.013C72.1935 168.486 74.8879 174.565 72.9427 177.69C63.7184 188.701 55.862 206.203 46.3422 216.363C43.1117 219.811 38.8501 221.137 34.6435 218.41C33.8806 217.915 30.8631 214.57 30.8631 213.945V188.873V188.887ZM208.887 10.9867L173.138 20.2461C172.045 21.1184 172.691 20.9398 173.151 21.6336C175.44 25.1162 181.998 27.9118 181.386 32.5622C180.877 36.4363 171.488 42.7695 169.007 46.3413C167.728 48.1754 170.897 50.1399 172.457 50.5658C176.251 51.603 183.73 35.0831 190.72 39.1152C191.751 39.7059 198.7 47.8319 199.264 47.3923L208.894 10.9935L208.887 10.9867ZM69.2035 51.6992C49.1329 54.1033 35.7089 74.8889 39.29 94.2594C42.335 110.766 57.8622 120.135 68.4199 131.826L97.3367 103.855C99.2269 103.402 100.911 103.615 102.609 104.487C103.763 105.085 113.318 114.626 114.397 116.062C116.383 118.72 116.94 120.588 115.036 123.604L87.9682 150.86L108.162 171.755L110.115 172.326L171.103 111.624C195.009 83.6262 168.876 43.0236 133.416 52.6677C123.497 55.3672 117.813 65.5745 108.857 65.2723C101.949 65.0387 100.134 60.4365 95.0135 57.1188C87.1571 52.0289 78.4827 50.5864 69.2035 51.6923V51.6992ZM99.5981 115.67L66.0692 149.177L70.5988 153.704L104.128 120.197L99.5981 115.67ZM14.3667 178.583H33.9562C35.702 178.583 40.486 182.76 40.486 184.422V205.372C41.9844 205.668 42.933 203.312 43.799 202.151C50.5076 193.194 56.4531 183.076 63.0105 173.947L60.9415 158.821L45.813 156.76L14.3736 178.583H14.3667Z" fill="black"/>
<path d="M69.2019 51.6964C78.4743 50.5836 87.1555 52.0261 95.0119 57.1229C100.133 60.4406 101.947 65.0497 108.855 65.2764C117.811 65.5786 123.496 55.3713 133.414 52.6718C168.868 43.0277 195.001 83.6304 171.102 111.628L110.113 172.33L108.161 171.76L87.9666 150.864L115.034 123.608C116.938 120.599 116.375 118.724 114.395 116.066C113.323 114.623 103.762 105.082 102.607 104.491C100.909 103.619 99.2254 103.399 97.3352 103.86L68.4184 131.83C57.8607 120.146 42.3403 110.777 39.2885 94.2636C35.7142 74.893 49.1313 54.1006 69.2019 51.7033V51.6964Z" fill="#F64747"/>
<path d="M14.3655 178.578L45.8049 156.756L60.9335 158.816L63.0024 173.942C56.4451 183.071 50.5064 193.189 43.791 202.146C42.9249 203.3 41.9764 205.663 40.4779 205.367V184.417C40.4779 182.755 35.694 178.578 33.9481 178.578H14.3586H14.3655Z" fill="#4E8CFF"/>
<path d="M208.886 10.9864L199.256 47.3851C198.693 47.8248 191.744 39.6987 190.713 39.108C183.715 35.0759 176.237 51.5958 172.45 50.5586C170.889 50.1327 167.728 48.1682 168.999 46.3342C171.481 42.7692 180.87 36.4291 181.378 32.555C181.99 27.8978 175.433 25.1021 173.144 21.6264C172.69 20.9327 172.044 21.1181 173.13 20.2389L208.879 10.9795L208.886 10.9864Z" fill="white"/>
<path d="M99.5974 115.67L66.0662 149.179L70.596 153.706L104.127 120.197L99.5974 115.67Z" fill="white"/>
<path d="M151.498 60.4152C160.39 63.7779 170.577 73.9187 168.425 89.5226C167.935 93.0785 164.654 95.5639 161.098 95.0736C157.542 94.583 155.056 91.3019 155.547 87.7459C156.68 79.5248 151.528 74.3247 146.899 72.5743C143.541 71.3044 141.849 67.5531 143.119 64.1954C144.389 60.8378 148.14 59.1454 151.498 60.4152Z" fill="white" fill-opacity="0.45"/>
</svg>
