<svg width="149" height="169" viewBox="0 0 149 169" fill="none" xmlns="http://www.w3.org/2000/svg">
<path d="M26.1098 71.9402C30.2182 53.0917 48.8285 41.1424 67.6771 45.2508L111.861 54.8816C130.71 58.99 142.659 77.6003 138.551 96.4489L134.567 114.724C130.459 133.573 111.849 145.522 93.0002 141.414L85.0195 139.674C85.0195 139.674 83.1874 139.275 81.8544 140.834C80.5747 142.331 56.2873 151.63 54.3436 152.372C54.2587 152.405 54.1772 152.383 54.1079 152.324L48.8374 147.866C48.4048 147.5 48.2731 146.889 48.5169 146.377L54.1681 134.518C54.5139 133.792 54.0931 132.933 53.3076 132.762L48.8157 131.783C29.9672 127.675 18.0179 109.064 22.1263 90.2157L26.1098 71.9402Z" fill="black"/>
<path d="M137.332 96.1831C141.293 78.0077 129.771 60.062 111.595 56.1004L67.4114 46.4696C49.236 42.5079 31.2903 54.0304 27.3287 72.2058L23.3451 90.4818L23.1708 91.3328C19.745 109.214 31.1898 126.665 49.0813 130.564L53.5735 131.544C55.1443 131.886 55.9861 133.603 55.2945 135.055L49.6436 146.914L54.4622 150.989C56.4071 150.243 62.1787 148.023 67.8828 145.728C71.1161 144.428 74.3178 143.108 76.7865 142.022C78.0228 141.478 79.0613 141 79.8225 140.615C80.2044 140.423 80.5005 140.261 80.7103 140.134C80.9658 139.98 80.9723 139.947 80.9065 140.024C81.8097 138.967 82.8995 138.566 83.7487 138.436C84.1683 138.372 84.5328 138.374 84.7971 138.392C84.9299 138.401 85.04 138.414 85.1224 138.427C85.1637 138.433 85.1985 138.439 85.2258 138.444C85.2391 138.447 85.2508 138.448 85.2606 138.45L85.2844 138.456C85.2838 138.46 85.2721 138.517 85.1278 139.18L85.2856 138.456L93.2654 140.195C111.441 144.157 129.386 132.634 133.348 114.459L137.332 96.1831ZM135.786 114.99C131.531 134.512 112.256 146.888 92.734 142.633L84.7542 140.894C84.7313 140.89 84.687 140.885 84.6273 140.881C84.5065 140.873 84.3296 140.871 84.1251 140.902C83.7251 140.963 83.2321 141.143 82.8024 141.645C82.5767 141.909 82.2431 142.123 82.0019 142.269C81.7144 142.443 81.3551 142.637 80.9466 142.843C80.127 143.257 79.042 143.756 77.7911 144.306C75.2855 145.408 72.0542 146.74 68.8133 148.043C62.3294 150.652 55.7648 153.165 54.7894 153.538C54.1972 153.764 53.6454 153.567 53.3025 153.277L48.0313 148.819C47.1661 148.087 46.9038 146.863 47.3913 145.84L53.0422 133.981L48.55 133.002C29.3332 128.814 17.0411 110.07 20.7205 90.8648L20.9073 89.9504L24.8909 71.6745C29.1461 52.1528 48.421 39.7767 67.9427 44.0319L112.127 53.6626C131.649 57.9177 144.025 77.1927 139.769 96.7144L135.786 114.99Z" fill="black"/>
<path d="M91.8956 95.394C92.3014 95.4825 92.6177 95.7019 92.8444 96.0522C93.0674 96.4017 93.1326 96.7802 93.0398 97.1876C92.9562 97.589 92.7408 97.9004 92.3934 98.1216C92.0414 98.3458 91.6625 98.4137 91.2567 98.3252C90.8734 98.2416 90.5665 98.0243 90.336 97.6732C90.1009 97.325 90.0251 96.9501 90.1087 96.5487C90.1718 96.2773 90.2972 96.0453 90.4848 95.8526C90.6687 95.6591 90.8859 95.5204 91.1365 95.4364C91.3832 95.3516 91.6363 95.3375 91.8956 95.394Z" fill="black"/>
<path d="M86.1331 97.4133C85.6957 97.3179 85.3458 97.0681 85.089 96.678L84.9985 96.5293C84.8057 96.1784 84.7487 95.7994 84.8317 95.4005L84.8327 95.3957C84.9036 95.0911 85.0463 94.8275 85.2593 94.6082C85.4651 94.3916 85.7096 94.2354 85.9908 94.1409L85.9901 94.1398C86.2721 94.0429 86.5629 94.0267 86.8573 94.0909C87.3149 94.1907 87.676 94.4415 87.9313 94.8357L87.932 94.8369C88.184 95.2319 88.2586 95.6656 88.1541 96.1247C88.0589 96.5774 87.8112 96.9336 87.4197 97.183C87.0235 97.4353 86.5907 97.513 86.1331 97.4133ZM86.1757 97.2177C86.5816 97.3061 86.9607 97.2379 87.3126 97.0137L87.4365 96.9268C87.7116 96.7135 87.8858 96.4313 87.9589 96.0801C88.0516 95.6729 87.9863 95.2945 87.7635 94.9451C87.5368 94.5948 87.2205 94.375 86.8146 94.2865C86.5554 94.23 86.3025 94.2443 86.0558 94.329C85.8052 94.413 85.5872 94.552 85.4033 94.7455C85.2159 94.9381 85.0908 95.1701 85.0277 95.4412C84.9442 95.8427 85.0204 96.2172 85.2555 96.5653C85.486 96.9165 85.7924 97.1341 86.1757 97.2177Z" fill="black"/>
<path d="M81.7337 93.179C82.1396 93.2675 82.4558 93.4869 82.6826 93.8372C82.9056 94.1867 82.9707 94.5652 82.878 94.9726C82.7944 95.3741 82.5789 95.6854 82.2315 95.9066C81.8795 96.1308 81.5006 96.1987 81.0948 96.1102C80.7115 96.0267 80.4046 95.8093 80.1741 95.4582C79.939 95.11 79.8633 94.7352 79.9468 94.3337C80.0099 94.0624 80.1353 93.8304 80.3229 93.6377C80.5068 93.4442 80.724 93.3054 80.9746 93.2214C81.2214 93.1367 81.4744 93.1225 81.7337 93.179Z" fill="black"/>
<path d="M75.9712 95.1983C75.5337 95.103 75.1839 94.8531 74.9271 94.463L74.8365 94.3143C74.6437 93.9634 74.5868 93.5844 74.6698 93.1855L74.6708 93.1808C74.7416 92.8762 74.8844 92.6126 75.0974 92.3932C75.3031 92.1766 75.5477 92.0205 75.8289 91.926L75.8281 91.9248C76.1101 91.8279 76.4009 91.8118 76.6953 91.8759C77.1529 91.9757 77.5141 92.2265 77.7694 92.6208L77.7701 92.6219C78.0221 93.0169 78.0967 93.4506 77.9922 93.9097C77.897 94.3624 77.6493 94.7186 77.2577 94.968C76.8616 95.2203 76.4288 95.2981 75.9712 95.1983ZM76.0138 95.0027C76.4196 95.0912 76.7988 95.0229 77.1507 94.7988L77.2746 94.7118C77.5496 94.4986 77.7238 94.2164 77.797 93.8652C77.8897 93.4579 77.8244 93.0796 77.6016 92.7301C77.3749 92.3798 77.0585 92.16 76.6527 92.0715C76.3935 92.015 76.1406 92.0293 75.8938 92.114C75.6433 92.198 75.4252 92.337 75.2413 92.5305C75.0539 92.7231 74.9288 92.9552 74.8658 93.2263C74.7823 93.6277 74.8585 94.0022 75.0935 94.3504C75.324 94.7015 75.6305 94.9192 76.0138 95.0027Z" fill="black"/>
<path d="M71.5718 90.9641C71.9776 91.0525 72.2939 91.2719 72.5207 91.6223C72.7436 91.9718 72.8088 92.3502 72.716 92.7576C72.6325 93.1591 72.417 93.4704 72.0696 93.6917C71.7176 93.9159 71.3387 93.9837 70.9329 93.8953C70.5496 93.8117 70.2427 93.5944 70.0122 93.2432C69.7771 92.895 69.7013 92.5202 69.7849 92.1187C69.848 91.8474 69.9734 91.6154 70.161 91.4227C70.3449 91.2292 70.5621 91.0904 70.8127 91.0065C71.0594 90.9217 71.3125 90.9076 71.5718 90.9641Z" fill="black"/>
<path d="M65.8093 92.9834C65.3719 92.888 65.022 92.6382 64.7652 92.248L64.6747 92.0994C64.4819 91.7484 64.4249 91.3694 64.5079 90.9706L64.509 90.9658C64.5798 90.6612 64.7225 90.3976 64.9355 90.1782C65.1413 89.9617 65.3858 89.8055 65.667 89.711L65.6663 89.7098C65.9483 89.6129 66.2391 89.5968 66.5335 89.661C66.9911 89.7607 67.3522 90.0115 67.6075 90.4058L67.6082 90.407C67.8602 90.802 67.9348 91.2357 67.8303 91.6947C67.7351 92.1475 67.4874 92.5037 67.0959 92.753C66.6997 93.0053 66.2669 93.0831 65.8093 92.9834ZM65.8519 92.7878C66.2578 92.8762 66.6369 92.808 66.9888 92.5838L67.1127 92.4969C67.3878 92.2836 67.562 92.0014 67.6351 91.6502C67.7278 91.2429 67.6626 90.8646 67.4397 90.5152C67.2414 90.2087 66.9746 90.002 66.6392 89.8959L66.4908 89.8566C66.2316 89.8001 65.9787 89.8143 65.732 89.8991C65.4814 89.983 65.2634 90.122 65.0795 90.3155C64.8921 90.5082 64.767 90.7402 64.7039 91.0113C64.6204 91.4127 64.6966 91.7872 64.9317 92.1354C65.1622 92.4865 65.4686 92.7042 65.8519 92.7878Z" fill="black"/>
<path d="M19.8421 65.4532C23.9506 46.6046 42.5609 34.6553 61.4094 38.7637L105.594 48.3946C124.442 52.503 136.392 71.1133 132.283 89.9619L128.3 108.237C124.191 127.086 105.581 139.035 86.7326 134.927L78.7518 133.187C78.7518 133.187 76.9197 132.788 75.5867 134.347C74.3528 135.79 51.7263 144.488 48.3679 145.774C48.1828 145.844 48.0086 145.676 48.0508 145.482L51.7359 128.575C51.8826 127.902 51.4559 127.238 50.7827 127.091L48.5773 126.61L42.5481 125.296C23.6995 121.188 11.7503 102.577 15.8587 83.7287L19.8421 65.4532Z" fill="white"/>
<path d="M52.2338 140.935C54.9248 139.887 58.3045 138.56 61.6066 137.227C64.7123 135.973 67.7244 134.725 70.0243 133.708C71.1787 133.197 72.1174 132.761 72.7861 132.421C73.0948 132.264 73.3105 132.142 73.4497 132.059C74.6612 130.779 76.0862 130.268 77.1999 130.099C77.7804 130.01 78.2843 130.012 78.6559 130.037C78.8437 130.05 79.004 130.069 79.1311 130.088C79.1947 130.098 79.2509 130.107 79.2983 130.116C79.3221 130.12 79.3445 130.125 79.3641 130.129L79.4129 130.14C79.4128 130.146 79.3879 130.271 78.8485 132.746L79.4164 130.141L87.3962 131.88C104.562 135.621 121.51 124.739 125.252 107.573L129.236 89.2975C132.977 72.1319 122.095 55.1832 104.929 51.4416L60.7452 41.8109C43.5796 38.0693 26.6309 48.9517 22.8893 66.1173L18.9057 84.3932C15.1644 101.559 26.0467 118.508 43.2122 122.249L51.4467 124.044C53.8028 124.558 55.2964 126.884 54.7829 129.24L52.2338 140.935ZM131.346 108.902C126.871 129.433 106.599 142.449 86.0678 137.974L78.2106 136.262C78.1924 136.262 78.1669 136.262 78.1386 136.266C78.0756 136.275 78.0313 136.286 77.9569 136.373C77.5231 136.881 76.9663 137.222 76.742 137.359C76.4098 137.562 76.0214 137.772 75.6157 137.979C74.7979 138.395 73.7401 138.885 72.5477 139.412C70.1532 140.472 67.0665 141.75 63.9417 143.012C57.6843 145.538 51.167 148.042 49.4831 148.686C46.6306 149.778 44.5152 147.058 45.0036 144.817L48.29 129.74L41.8838 128.343C21.3525 123.868 8.33642 103.596 12.8114 83.0648L16.795 64.7889C21.2702 44.2575 41.5421 31.2413 62.0736 35.7165L106.258 45.3473C126.789 49.8225 139.805 70.0944 135.33 90.6259L131.346 108.902Z" fill="black"/>
<path d="M84.6565 95.1882C83.417 94.918 82.424 94.2148 81.6817 93.0845L81.5459 92.873C80.8951 91.8096 80.6954 90.6674 80.9484 89.4514L80.949 89.4486C81.1525 88.5737 81.5573 87.8235 82.1637 87.2006L82.1644 87.2018C82.7571 86.5781 83.4572 86.1294 84.2653 85.8586L84.266 85.8598C85.0639 85.5859 85.8825 85.5394 86.7198 85.722C88.0291 86.0074 89.0515 86.717 89.7829 87.8469L89.7838 87.8471C90.5036 88.9753 90.7138 90.2004 90.4146 91.5148C90.1445 92.8102 89.4468 93.817 88.326 94.5307C87.1907 95.2538 85.9659 95.4735 84.6565 95.1882Z" fill="black" stroke="black" stroke-width="0.2" stroke-linejoin="round"/>
<path d="M71.477 92.3155C70.2375 92.0453 69.2445 91.3421 68.5022 90.2118L68.3664 90.0003C67.7156 88.9369 67.5158 87.7947 67.7689 86.5788L67.7695 86.5759C67.973 85.701 68.3778 84.9508 68.9842 84.3279L68.9849 84.3291C69.5776 83.7054 70.2777 83.2567 71.0858 82.9859L71.0865 82.9871C71.8844 82.7132 72.703 82.6668 73.5403 82.8493C74.8496 83.1348 75.872 83.8444 76.6033 84.9742L76.6043 84.9744C77.3241 86.1026 77.5343 87.3277 77.2351 88.6421C76.965 89.9375 76.2673 90.9443 75.1465 91.6581C74.0112 92.3811 72.7864 92.6008 71.477 92.3155Z" fill="black" stroke="black" stroke-width="0.2" stroke-linejoin="round"/>
<path d="M58.2975 89.4428C57.058 89.1726 56.065 88.4694 55.3227 87.3391L55.1869 87.1276C54.5361 86.0642 54.3363 84.922 54.5894 83.7061L54.59 83.7032C54.7935 82.8283 55.1983 82.0781 55.8047 81.4552L55.8054 81.4564C56.3981 80.8327 57.0982 80.384 57.9062 80.1132L57.907 80.1144C58.7048 79.8405 59.5235 79.7941 60.3608 79.9766C61.6701 80.2621 62.6925 80.9717 63.4238 82.1015L63.4248 82.1017C64.1446 83.2299 64.3548 84.455 64.0556 85.7694C63.7855 87.0648 63.0878 88.0716 61.967 88.7854C60.8317 89.5085 59.6069 89.7281 58.2975 89.4428Z" fill="black" stroke="black" stroke-width="0.2" stroke-linejoin="round"/>
<path d="M41.207 3.44366C46.3719 4.16312 51.1061 6.76648 54.6909 10.3672C56.4232 9.83933 58.002 8.87794 59.7568 8.38933C82.8504 1.95965 99.4229 30.4884 78.6562 46.7094C71.4248 52.3585 60.6508 60.1819 52.8237 64.8698C48.814 67.2719 45.0652 67.8519 41.4654 64.2186C34.9946 54.4154 25.506 45.0353 19.3318 35.2201C9.76843 20.0161 23.2103 0.940739 41.207 3.44366Z" fill="#F64747" stroke="black" stroke-width="5"/>
<path d="M71.1948 16.6206C75.5928 18.2837 80.6203 23.2929 79.5555 31.0177C79.3673 32.3826 78.1084 33.3366 76.7435 33.1486C75.3785 32.9604 74.4244 31.7017 74.6126 30.3367C75.287 25.4455 72.1917 22.3319 69.4301 21.2876C68.1413 20.8002 67.4917 19.3605 67.9789 18.0717C68.4663 16.7829 69.9059 16.1332 71.1948 16.6206Z" fill="white" fill-opacity="0.52"/>
</svg>
