<svg width="120" height="136" viewBox="0 0 120 136" fill="none" xmlns="http://www.w3.org/2000/svg">
<path d="M21.2804 57.668C24.5738 42.5587 39.492 32.9801 54.6012 36.2734L90.0199 43.9936C105.129 47.2869 114.708 62.2052 111.414 77.3144L108.221 91.9642C104.928 107.073 90.0097 116.652 74.9005 113.359L68.503 111.964C68.503 111.964 67.0344 111.644 65.9659 112.894C64.9401 114.094 45.471 121.548 43.9129 122.143C43.8449 122.169 43.7796 122.152 43.724 122.105L39.4991 118.531C39.1523 118.238 39.0468 117.748 39.2422 117.337L43.7723 107.831C44.0495 107.249 43.7121 106.561 43.0825 106.423L39.4817 105.639C24.3725 102.345 14.7939 87.427 18.0872 72.3178L21.2804 57.668Z" fill="black"/>
<path d="M110.437 77.1014C113.613 62.5318 104.376 48.1464 89.8067 44.9707L54.3883 37.2506C39.8187 34.0748 25.4332 43.3114 22.2575 57.881L19.0642 72.5312L18.9245 73.2134C16.1784 87.5471 25.3527 101.536 39.6947 104.662L43.2957 105.447C44.5548 105.721 45.2296 107.098 44.6752 108.261L40.1454 117.768L44.008 121.034C45.5671 120.437 50.1937 118.657 54.7661 116.818C57.358 115.775 59.9245 114.717 61.9034 113.847C62.8945 113.411 63.727 113.027 64.3371 112.719C64.6432 112.564 64.8807 112.435 65.0488 112.333C65.2536 112.209 65.2588 112.183 65.2061 112.245C65.9301 111.398 66.8037 111.076 67.4844 110.972C67.8208 110.921 68.113 110.922 68.3248 110.936C68.4313 110.944 68.5195 110.954 68.5856 110.964C68.6187 110.969 68.6466 110.974 68.6685 110.978C68.6792 110.98 68.6885 110.982 68.6964 110.983L68.7154 110.988C68.715 110.991 68.7056 111.037 68.5899 111.568L68.7164 110.988L75.1131 112.382C89.6826 115.558 104.068 106.321 107.244 91.7516L110.437 77.1014ZM109.198 92.1775C105.787 107.826 90.3359 117.747 74.6871 114.336L68.2905 112.942C68.2721 112.939 68.2366 112.935 68.1887 112.932C68.0919 112.925 67.9501 112.924 67.7862 112.949C67.4655 112.998 67.0703 113.141 66.7259 113.544C66.5449 113.756 66.2776 113.927 66.0842 114.044C65.8537 114.184 65.5657 114.339 65.2382 114.504C64.5813 114.836 63.7115 115.236 62.7088 115.677C60.7003 116.561 58.11 117.628 55.5121 118.673C50.3145 120.764 45.0522 122.779 44.2703 123.077C43.7956 123.259 43.3533 123.101 43.0785 122.869L38.853 119.295C38.1594 118.708 37.9491 117.727 38.3399 116.907L42.8698 107.401L39.2688 106.616C23.8644 103.258 14.0109 88.2336 16.9604 72.8382L17.1101 72.1052L20.3034 57.4551C23.7144 41.8062 39.1654 31.8855 54.8142 35.2964L90.2326 43.0166C105.881 46.4275 115.802 61.8785 112.391 77.5274L109.198 92.1775Z" fill="black"/>
<path d="M76.6179 76.7313C77.0237 76.8198 77.34 77.0392 77.5667 77.3895C77.7897 77.739 77.8548 78.1174 77.7621 78.5248C77.6785 78.9263 77.4631 79.2377 77.1157 79.4589C76.7637 79.6831 76.3848 79.7509 75.979 79.6625C75.5957 79.5789 75.2888 79.3616 75.0583 79.0104C74.8232 78.6622 74.7474 78.2874 74.831 77.8859C74.8941 77.6146 75.0194 77.3826 75.2071 77.1899C75.391 76.9964 75.6082 76.8577 75.8587 76.7737C76.1055 76.6889 76.3586 76.6748 76.6179 76.7313Z" fill="black"/>
<path d="M70.8553 78.7507C70.4179 78.6553 70.0681 78.4055 69.8112 78.0154L69.7207 77.8667C69.5279 77.5158 69.4709 77.1368 69.5539 76.7379L69.555 76.7331C69.6258 76.4286 69.7686 76.1649 69.9815 75.9456C70.1873 75.729 70.4318 75.5728 70.713 75.4783L70.7123 75.4772C70.9943 75.3803 71.2851 75.3641 71.5795 75.4283C72.0371 75.5281 72.3983 75.7789 72.6535 76.1731L72.6543 76.1743C72.9063 76.5693 72.9808 77.003 72.8763 77.4621C72.7811 77.9148 72.5335 78.271 72.1419 78.5204C71.7457 78.7727 71.3129 78.8504 70.8553 78.7507ZM70.898 78.5551C71.3038 78.6435 71.6829 78.5753 72.0349 78.3511L72.1588 78.2642C72.4338 78.0509 72.608 77.7688 72.6811 77.4175C72.7738 77.0103 72.7086 76.6319 72.4858 76.2825C72.259 75.9322 71.9427 75.7124 71.5369 75.6239C71.2777 75.5674 71.0247 75.5817 70.778 75.6664C70.5274 75.7504 70.3094 75.8894 70.1255 76.0829C69.9381 76.2755 69.813 76.5075 69.75 76.7786C69.6664 77.1801 69.7426 77.5546 69.9777 77.9027C70.2082 78.2539 70.5147 78.4715 70.898 78.5551Z" fill="black"/>
<path d="M66.456 74.5165C66.8618 74.6049 67.1781 74.8243 67.4049 75.1746C67.6279 75.5241 67.693 75.9026 67.6002 76.31C67.5167 76.7115 67.3012 77.0228 66.9538 77.244C66.6018 77.4682 66.2229 77.5361 65.8171 77.4476C65.4338 77.3641 65.1269 77.1467 64.8964 76.7956C64.6613 76.4474 64.5856 76.0726 64.6691 75.6711C64.7322 75.3998 64.8576 75.1678 65.0452 74.9751C65.2291 74.7816 65.4463 74.6428 65.6969 74.5589C65.9437 74.4741 66.1967 74.4599 66.456 74.5165Z" fill="black"/>
<path d="M60.6935 76.5356C60.256 76.4403 59.9062 76.1904 59.6494 75.8003L59.5588 75.6516C59.366 75.3007 59.3091 74.9217 59.3921 74.5228L59.3931 74.518C59.4639 74.2135 59.6067 73.9498 59.8197 73.7305C60.0254 73.5139 60.27 73.3577 60.5512 73.2632L60.5504 73.2621C60.8324 73.1652 61.1232 73.149 61.4176 73.2132C61.8752 73.313 62.2364 73.5638 62.4917 73.9581L62.4924 73.9592C62.7444 74.3542 62.819 74.7879 62.7145 75.247C62.6192 75.6997 62.3716 76.0559 61.98 76.3053C61.5838 76.5576 61.1511 76.6353 60.6935 76.5356ZM60.7361 76.34C61.1419 76.4284 61.521 76.3602 61.873 76.136L61.9969 76.0491C62.2719 75.8358 62.4461 75.5537 62.5193 75.2024C62.612 74.7952 62.5467 74.4168 62.3239 74.0674C62.0972 73.7171 61.7808 73.4973 61.375 73.4088C61.1158 73.3523 60.8628 73.3666 60.6161 73.4513C60.3656 73.5353 60.1475 73.6743 59.9636 73.8678C59.7762 74.0604 59.6511 74.2924 59.5881 74.5635C59.5045 74.965 59.5808 75.3395 59.8158 75.6876C60.0463 76.0388 60.3528 76.2564 60.7361 76.34Z" fill="black"/>
<path d="M56.294 72.3014C56.6999 72.3898 57.0161 72.6092 57.2429 72.9596C57.4659 73.3091 57.531 73.6875 57.4383 74.0949C57.3547 74.4964 57.1392 74.8077 56.7918 75.029C56.4399 75.2531 56.0609 75.321 55.6551 75.2325C55.2718 75.149 54.9649 74.9316 54.7344 74.5805C54.4993 74.2323 54.4236 73.8575 54.5071 73.456C54.5702 73.1847 54.6956 72.9527 54.8832 72.76C55.0671 72.5665 55.2843 72.4277 55.5349 72.3438C55.7817 72.259 56.0347 72.2448 56.294 72.3014Z" fill="black"/>
<path d="M50.5316 74.3208C50.0942 74.2254 49.7443 73.9756 49.4875 73.5854L49.397 73.4368C49.2042 73.0858 49.1472 72.7068 49.2302 72.308L49.2312 72.3032C49.3021 71.9986 49.4448 71.735 49.6578 71.5156C49.8636 71.2991 50.1081 71.1429 50.3893 71.0484L50.3886 71.0472C50.6706 70.9503 50.9614 70.9342 51.2558 70.9984C51.7134 71.0981 52.0745 71.3489 52.3298 71.7432L52.3305 71.7444C52.5825 72.1394 52.6571 72.5731 52.5526 73.0321C52.4574 73.4849 52.2097 73.8411 51.8182 74.0904C51.422 74.3427 50.9892 74.4205 50.5316 74.3208ZM50.5742 74.1252C50.9801 74.2136 51.3592 74.1454 51.7111 73.9212L51.835 73.8343C52.1101 73.621 52.2843 73.3388 52.3574 72.9876C52.4501 72.5803 52.3848 72.202 52.162 71.8526C51.9637 71.5461 51.6968 71.3394 51.3615 71.2333L51.2131 71.194C50.9539 71.1375 50.701 71.1517 50.4543 71.2365C50.2037 71.3204 49.9857 71.4594 49.8018 71.653C49.6144 71.8456 49.4893 72.0776 49.4262 72.3487C49.3427 72.7501 49.4189 73.1246 49.654 73.4728C49.8845 73.8239 50.1909 74.0416 50.5742 74.1252Z" fill="black"/>
<path d="M16.2562 52.468C19.5496 37.3588 34.4678 27.7801 49.577 31.0735L84.9957 38.7936C100.105 42.087 109.684 57.0052 106.39 72.1144L103.197 86.7643C99.9037 101.873 84.9855 111.452 69.8763 108.159L63.4789 106.764C63.4789 106.764 62.0102 106.444 60.9417 107.694C59.9526 108.851 41.8149 115.823 39.1228 116.854C38.9744 116.911 38.8348 116.775 38.8686 116.62L41.8226 103.067C41.9402 102.528 41.5981 101.995 41.0585 101.877L39.2906 101.492L34.4576 100.439C19.3484 97.1453 9.7697 82.2271 13.063 67.1178L16.2562 52.468Z" fill="white"/>
<path d="M42.2217 112.975C44.3788 112.135 47.088 111.071 49.735 110.003C52.2246 108.998 54.6391 107.997 56.4828 107.182C57.4081 106.772 58.1606 106.423 58.6966 106.15C58.9441 106.024 59.117 105.927 59.2286 105.86C60.1997 104.834 61.3421 104.424 62.2348 104.289C62.7001 104.218 63.104 104.219 63.402 104.239C63.5525 104.249 63.681 104.265 63.7828 104.28C63.8338 104.288 63.8789 104.295 63.9169 104.302C63.936 104.306 63.9539 104.31 63.9696 104.313L64.0087 104.321C64.0087 104.327 63.9887 104.427 63.5563 106.411L64.0116 104.322L70.4083 105.716C84.1683 108.716 97.7545 99.992 100.754 86.2321L103.947 71.5819C106.947 57.8217 98.2231 44.2355 84.4629 41.2362L49.0445 33.5161C35.2844 30.5168 21.6981 39.2402 18.6988 53.0004L15.5056 67.6506C12.5065 81.4106 21.2298 94.997 34.9899 97.9963L41.5907 99.435C43.4794 99.8467 44.6767 101.711 44.2651 103.6L42.2217 112.975ZM105.639 87.2969C102.052 103.755 85.8016 114.189 69.3434 110.602L63.045 109.229C63.0304 109.229 63.01 109.229 62.9873 109.232C62.9368 109.24 62.9012 109.249 62.8416 109.318C62.4938 109.725 62.0475 109.999 61.8677 110.109C61.6014 110.271 61.2901 110.44 60.9648 110.605C60.3093 110.939 59.4614 111.332 58.5055 111.755C56.5861 112.604 54.1117 113.628 51.6068 114.64C46.5908 116.665 41.3665 118.672 40.0167 119.189C37.7301 120.064 36.0344 117.883 36.4259 116.087L39.0603 104.001L33.925 102.882C17.4669 99.2942 7.03309 83.0439 10.6203 66.5857L13.8135 51.9356C17.4009 35.4773 33.6511 25.0434 50.1094 28.6308L85.5278 36.3509C101.986 39.9383 112.42 56.1885 108.833 72.6467L105.639 87.2969Z" fill="black"/>
<path d="M70.6222 77.8128C69.3827 77.5426 68.3897 76.8394 67.6474 75.7091L67.5116 75.4976C66.8608 74.4342 66.661 73.292 66.9141 72.0761L66.9147 72.0732C67.1182 71.1983 67.523 70.4481 68.1294 69.8252L68.1301 69.8264C68.7228 69.2027 69.4229 68.754 70.231 68.4832L70.2317 68.4844C71.0296 68.2105 71.8482 68.1641 72.6855 68.3466C73.9948 68.6321 75.0172 69.3417 75.7486 70.4715L75.7495 70.4717C76.4693 71.5999 76.6795 72.825 76.3803 74.1394C76.1102 75.4348 75.4125 76.4416 74.2917 77.1554C73.1564 77.8785 71.9316 78.0981 70.6222 77.8128Z" fill="black" stroke="black" stroke-width="0.2" stroke-linejoin="round"/>
<path d="M57.4426 74.9402C56.2031 74.6701 55.2101 73.9668 54.4679 72.8366L54.3321 72.6251C53.6813 71.5617 53.4815 70.4194 53.7346 69.2035L53.7352 69.2006C53.9386 68.3257 54.3434 67.5755 54.9498 66.9527L54.9505 66.9538C55.5433 66.3302 56.2434 65.8815 57.0514 65.6107L57.0521 65.6118C57.85 65.338 58.6686 65.2915 59.5059 65.474C60.8152 65.7595 61.8376 66.4691 62.569 67.5989L62.5699 67.5991C63.2897 68.7274 63.5 69.9524 63.2008 71.2669C62.9306 72.5623 62.2329 73.569 61.1121 74.2828C59.9769 75.0059 58.752 75.2255 57.4426 74.9402Z" fill="black" stroke="black" stroke-width="0.2" stroke-linejoin="round"/>
<path d="M44.2632 72.0674C43.0237 71.7973 42.0307 71.094 41.2884 69.9638L41.1526 69.7523C40.5018 68.6889 40.302 67.5466 40.5551 66.3307L40.5557 66.3278C40.7592 65.4529 41.164 64.7027 41.7704 64.0799L41.7711 64.081C42.3638 63.4574 43.0639 63.0087 43.8719 62.7379L43.8727 62.739C44.6705 62.4652 45.4892 62.4187 46.3265 62.6012C47.6358 62.8867 48.6582 63.5963 49.3895 64.7261L49.3905 64.7263C50.1103 65.8546 50.3205 67.0796 50.0213 68.394C49.7512 69.6895 49.0535 70.6962 47.9327 71.41C46.7974 72.1331 45.5726 72.3527 44.2632 72.0674Z" fill="black" stroke="black" stroke-width="0.2" stroke-linejoin="round"/>
<path d="M33.3824 2.76048C37.5227 3.3372 41.3177 5.42409 44.1913 8.31045C45.5799 7.88731 46.8454 7.11666 48.2521 6.72498C66.7642 1.57087 80.0489 24.4398 63.4021 37.4428C57.6053 41.9712 48.9688 48.2424 42.6945 52.0004C39.4802 53.9259 36.4752 54.3908 33.5896 51.4783C28.4025 43.62 20.7963 36.1008 15.847 28.2328C8.18092 16.0451 18.9561 0.754107 33.3824 2.76048Z" fill="#4E8CFF" stroke="black" stroke-width="5"/>
<path d="M57.421 13.3233C60.9465 14.6565 64.9766 18.6719 64.123 24.8642C63.9722 25.9583 62.963 26.723 61.8689 26.5723C60.7747 26.4215 60.0099 25.4124 60.1608 24.3182C60.7014 20.3974 58.2201 17.9016 56.0064 17.0644C54.9733 16.6737 54.4526 15.5197 54.8431 14.4865C55.2338 13.4534 56.3879 12.9326 57.421 13.3233Z" fill="#ffffff" fill-opacity="0.52"/>
</svg>
