<svg width="197" height="187" viewBox="0 0 197 187" fill="none" xmlns="http://www.w3.org/2000/svg">
<path d="M70.3743 133.104H51.7542C48.0334 133.104 43.0335 128.36 42.347 124.701C41.2654 102.506 42.1721 80.0938 41.8807 57.821C42.4215 51.7362 46.573 47.439 52.7127 46.9565H156.363C162.561 47.2512 167.046 51.6099 167.532 57.8048V121.621C167.046 127.758 163.092 132.194 156.992 133.101L97.0933 133.111L75.4163 152.236C74.1177 152.829 72.0905 152.767 71.1871 151.556C71.0413 151.362 70.371 149.879 70.371 149.781V133.104H70.3743ZM76.527 142.819L93.2138 127.933L95.3705 126.822C116.147 126.816 137.109 127.486 157.817 126.476C159.132 125.815 160.181 124.97 160.738 123.568L161.059 57.8015C160.988 54.8126 158.481 53.2258 155.716 53.106L53.3798 53.1222C50.8669 53.255 48.7685 54.9939 48.3508 57.4842L48.503 123.085C49.3773 126.563 52.5961 126.783 55.6304 126.968C60.8311 127.279 66.5661 126.922 71.8477 126.968C72.4824 126.974 73.0717 126.647 73.7032 126.699C74.5257 126.767 76.5302 127.881 76.5302 128.733V142.819H76.527Z" fill="black"/>
<path d="M15.5826 0.105044C21.1071 -0.46813 25.754 1.52988 29.7338 5.20209C31.2299 4.23384 32.3957 2.8511 33.9986 2.00915C43.7005 -3.08789 56.0707 2.14192 58.6224 12.8962C62.2817 28.3298 47.7257 42.2317 35.893 49.5632C34.7272 50.2853 31.3335 52.4841 30.226 52.6655C28.6296 52.9278 26.1199 51.1564 24.7404 50.3371C12.5742 43.0964 -4.61779 27.0734 1.14957 11.2544C3.35808 5.19885 9.18697 0.76889 15.5826 0.105044ZM44.3287 34.8517C49.0112 29.949 53.6226 23.2457 52.8486 16.0827C51.9127 7.39116 41.9065 3.52466 35.1061 8.94553C32.6385 10.9112 32.5511 13.4208 28.7559 12.9739C26.6186 12.7214 25.6763 10.2506 24.0733 8.91639C19.1641 4.83292 11.81 6.01489 8.25435 11.2415C0.722122 22.3131 16.6706 37.5783 25.1938 43.0931C26.2721 43.7926 29.1218 45.8586 30.226 45.5445C35.1773 42.4811 40.31 39.0615 44.3287 34.855V34.8517Z" fill="black"/>
<path d="M117.575 139.341C122.248 138.71 127.083 139.759 130.489 143.123C142.724 133.299 158.883 142.958 156.418 158.431C154.851 168.272 146.603 176.416 138.805 181.944C137.62 182.783 133.067 185.898 131.998 186.144C129.579 186.701 127.611 185.114 125.648 183.887C114.803 177.09 101.319 164.049 105.441 149.879C106.912 144.827 112.313 140.057 117.575 139.344V139.341ZM119.198 145.491C115.632 145.912 112.281 148.742 111.325 152.197C108.706 161.688 119.155 171.669 126.163 176.568C127.209 177.3 130.198 179.535 131.254 179.282C132.429 179 137.96 174.914 139.178 173.897C145.372 168.722 154.702 157.472 148.549 149.325C145.35 145.083 139.932 144.059 135.632 147.362C133.864 148.719 133.061 150.954 130.441 150.944C128.19 150.934 127.167 148.554 125.587 147.356C123.835 146.028 121.396 145.235 119.198 145.494V145.491Z" fill="black"/>
<path d="M160.327 0.0987347C164.488 -0.3611 168.772 0.785249 171.942 3.53778C180.721 -3.09744 193.901 -0.0113673 196.573 11.2773C199.478 23.5438 186.955 35.7068 177.535 41.594C176.415 42.2967 173.594 44.1716 172.454 44.3174C170.68 44.5408 164.689 40.2728 163.018 39.0033C155.913 33.6213 147.105 24.3113 147.247 14.8005C147.358 7.32656 152.833 0.927733 160.327 0.0987347ZM161.946 6.25145C154.495 6.44899 152.076 13.6639 154.618 19.8781C157.655 27.3035 165.492 33.4724 172.218 37.4684C179.608 33.2522 190.744 23.9875 190.851 14.726C190.932 7.79935 182.383 4.12715 176.939 7.96126C175.158 9.21771 174.556 11.3874 171.894 11.3679C169.472 11.3517 169.057 9.55773 167.529 8.25918C166 6.96064 163.983 6.19316 161.946 6.24822V6.25145Z" fill="black"/>
<path d="M76.527 142.819V128.733C76.527 127.878 74.5225 126.767 73.7 126.699C73.0685 126.647 72.4791 126.971 71.8444 126.968C66.5628 126.919 60.8278 127.279 55.6272 126.968C52.5897 126.787 49.3741 126.563 48.4997 123.085L48.3475 57.4842C48.7685 54.9972 50.8637 53.255 53.3766 53.1223L155.712 53.1061C158.481 53.2259 160.988 54.8126 161.056 57.8016L160.735 123.568C160.178 124.973 159.129 125.818 157.814 126.476C137.102 127.486 116.144 126.816 95.3673 126.822L93.2106 127.933L76.5237 142.819H76.527ZM90.0565 60.9783C82.249 61.0463 75.3321 66.438 72.4856 73.5266C65.3679 91.2529 83.8422 107.545 97.2811 115.754C99.4734 117.091 102.867 119.643 105.438 119.105C106.439 118.898 109.897 116.638 111.024 115.948C124.372 107.768 141.493 93.089 136.671 75.3919C133.423 63.4783 119.541 57.468 108.696 63.7503C106.954 64.7574 105.613 66.2599 103.939 67.3448C100.468 63.5301 95.309 60.933 90.0597 60.9783H90.0565Z" fill="white"/>
<path d="M44.3286 34.8519C40.3099 39.0584 35.1773 42.478 30.2259 45.5414C29.1184 45.8556 26.272 43.7895 25.1937 43.0901C16.6705 37.5753 0.718789 22.3068 8.25425 11.2352C11.8099 6.00861 19.164 4.82664 24.0732 8.9101C25.6762 10.2443 26.6217 12.7151 28.7558 12.9677C32.551 13.4145 32.6384 10.9049 35.106 8.93924C41.9064 3.51837 51.9126 7.38487 52.8485 16.0764C53.6192 23.2427 49.0112 29.9459 44.3286 34.8454V34.8519Z" fill="#F64747"/>
<path d="M119.198 145.491C121.396 145.232 123.835 146.025 125.587 147.353C127.167 148.551 128.19 150.931 130.441 150.941C133.064 150.954 133.864 148.719 135.632 147.359C139.932 144.056 145.35 145.079 148.549 149.322C154.699 157.472 145.373 168.722 139.178 173.894C137.96 174.91 132.429 178.994 131.254 179.279C130.198 179.535 127.209 177.297 126.163 176.565C119.156 171.662 108.702 161.685 111.325 152.194C112.281 148.739 115.632 145.908 119.198 145.487V145.491Z" fill="#F64747"/>
<path d="M161.946 6.25142C163.983 6.19637 165.997 6.96708 167.529 8.26239C169.061 9.5577 169.472 11.3517 171.894 11.3711C174.553 11.3906 175.155 9.21768 176.939 7.96447C182.383 4.13035 190.932 7.79932 190.851 14.7292C190.744 23.9907 179.608 33.2554 172.218 37.4716C165.492 33.4756 157.655 27.3099 154.618 19.8813C152.076 13.6671 154.495 6.45219 161.946 6.25466V6.25142Z" fill="#F64747"/>
<path d="M90.0563 60.9781C95.3056 60.9328 100.464 63.5299 103.936 67.3446C105.61 66.2597 106.954 64.7604 108.693 63.7501C119.534 57.4711 133.42 63.4813 136.668 75.3917C141.493 93.0888 124.372 107.768 111.021 115.948C109.897 116.638 106.436 118.895 105.435 119.105C102.864 119.643 99.47 117.091 97.2777 115.754C83.8388 107.544 65.3677 91.2527 72.4822 73.5264C75.3287 66.4379 82.2456 61.0494 90.0531 60.9781H90.0563ZM88.4307 67.4514C83.9101 68.0635 80.0857 71.4021 78.4115 75.5665C73.3533 88.1569 85.8531 99.9831 95.0757 106.622C96.575 107.7 102.712 111.968 104.052 112.243C105.056 112.447 109.505 109.494 110.632 108.756C119.505 102.949 131.892 92.14 131.267 80.4693C130.706 69.9805 119.049 63.4263 110.376 70.2882C107.983 72.1825 106.07 76.3826 102.316 74.4493C101.245 73.8988 99.5186 71.5414 98.3787 70.6152C95.5549 68.316 92.1256 66.9495 88.4339 67.4514H88.4307Z" fill="black"/>
<path d="M88.4306 67.4514C92.1222 66.9495 95.5516 68.316 98.3753 70.6152C99.5152 71.5414 101.241 73.8988 102.313 74.4493C106.066 76.3826 107.98 72.1825 110.373 70.2881C119.045 63.4262 130.703 69.9805 131.263 80.4693C131.888 92.14 119.502 102.949 110.629 108.756C109.502 109.494 105.053 112.447 104.049 112.243C102.708 111.968 96.5716 107.7 95.0723 106.622C85.8497 99.9831 73.35 88.1569 78.4081 75.5665C80.0823 71.4021 83.9067 68.0667 88.4274 67.4514H88.4306Z" fill="#F64747"/>
</svg>
