<svg width="197" height="187" viewBox="0 0 197 187" fill="none" xmlns="http://www.w3.org/2000/svg">
<path d="M70.3741 133.612H51.7541C48.0333 133.612 43.0334 128.868 42.3469 125.209C41.2653 103.013 42.172 80.6014 41.8806 58.3285C42.4214 52.2438 46.5728 47.9466 52.7126 47.4641H156.363C162.561 47.7588 167.046 52.1175 167.532 58.3123V122.129C167.046 128.266 163.092 132.702 156.991 133.609L97.0931 133.618L75.4161 152.744C74.1176 153.336 72.0904 153.275 71.1869 152.064C71.0412 151.869 70.3709 150.386 70.3709 150.289V133.612H70.3741ZM76.5269 143.327L93.2137 128.44L95.3704 127.33C116.147 127.323 137.108 127.993 157.817 126.983C159.132 126.323 160.181 125.477 160.738 124.075L161.059 58.3091C160.988 55.3202 158.481 53.7334 155.716 53.6136L53.3797 53.6298C50.8668 53.7626 48.7684 55.5015 48.3506 57.9917L48.5028 123.593C49.3772 127.071 52.596 127.291 55.6303 127.475C60.8309 127.786 66.5659 127.43 71.8476 127.475C72.4823 127.482 73.0716 127.155 73.7031 127.207C74.5256 127.275 76.5301 128.389 76.5301 129.24V143.327H76.5269Z" fill="black"/>
<path d="M15.5826 0.612491C21.1071 0.0393162 25.754 2.03733 29.7338 5.70953C31.2299 4.74129 32.3957 3.35855 33.9986 2.5166C43.7005 -2.58045 56.0707 2.64936 58.6224 13.4037C62.2817 28.8373 47.7257 42.7392 35.893 50.0706C34.7272 50.7928 31.3335 52.9916 30.226 53.1729C28.6296 53.4352 26.1199 51.6639 24.7404 50.8446C12.5742 43.6038 -4.61779 27.5808 1.14957 11.7619C3.35808 5.70629 9.18697 1.27634 15.5826 0.612491ZM44.3287 35.3592C49.0112 30.4564 53.6226 23.7532 52.8486 16.5901C51.9127 7.89861 41.9065 4.03211 35.1061 9.45298C32.6385 11.4186 32.5511 13.9283 28.7559 13.4814C26.6186 13.2288 25.6763 10.758 24.0733 9.42383C19.1641 5.34037 11.81 6.52234 8.25435 11.7489C0.722122 22.8206 16.6706 38.0858 25.1938 43.6006C26.2721 44.3 29.1218 46.3661 30.226 46.0519C35.1773 42.9885 40.31 39.5689 44.3287 35.3624V35.3592Z" fill="black"/>
<path d="M117.575 139.849C122.248 139.217 127.083 140.266 130.489 143.631C142.724 133.806 158.883 143.466 156.418 158.938C154.851 168.779 146.603 176.924 138.805 182.451C137.62 183.29 133.067 186.405 131.998 186.651C129.579 187.208 127.611 185.622 125.648 184.394C114.803 177.597 101.319 164.557 105.441 150.386C106.912 145.334 112.313 140.564 117.575 139.852V139.849ZM119.198 145.998C115.632 146.419 112.281 149.249 111.325 152.705C108.706 162.196 119.155 172.176 126.163 177.076C127.209 177.808 130.198 180.042 131.254 179.789C132.429 179.508 137.96 175.421 139.178 174.404C145.372 169.229 154.702 157.98 148.549 149.832C145.35 145.59 139.932 144.567 135.632 147.87C133.864 149.227 133.061 151.461 130.441 151.451C128.19 151.442 127.167 149.062 125.587 147.863C123.835 146.536 121.396 145.742 119.198 146.001V145.998Z" fill="black"/>
<path d="M160.327 0.606303C164.488 0.146468 168.772 1.29282 171.942 4.04535C180.721 -2.58987 193.901 0.496201 196.573 11.7848C199.478 24.0514 186.955 36.2144 177.535 42.1015C176.415 42.8042 173.594 44.6792 172.454 44.8249C170.68 45.0484 164.689 40.7803 163.018 39.5109C155.913 34.1289 147.105 24.8189 147.247 15.3081C147.358 7.83413 152.833 1.4353 160.327 0.606303ZM161.946 6.75902C154.495 6.95656 152.076 14.1714 154.618 20.3857C157.655 27.811 165.492 33.9799 172.218 37.976C179.608 33.7597 190.744 24.495 190.851 15.2336C190.932 8.30692 182.383 4.63471 176.939 8.46883C175.158 9.72528 174.556 11.8949 171.894 11.8755C169.472 11.8593 169.057 10.0653 167.529 8.76675C166 7.4682 163.983 6.70073 161.946 6.75578V6.75902Z" fill="black"/>
<path d="M76.527 143.327V129.24C76.527 128.385 74.5225 127.275 73.7 127.207C73.0685 127.155 72.4791 127.479 71.8444 127.476C66.5628 127.427 60.8278 127.786 55.6272 127.476C52.5897 127.294 49.3741 127.071 48.4997 123.593L48.3475 57.9919C48.7685 55.5049 50.8637 53.7627 53.3766 53.63L155.712 53.6138C158.481 53.7336 160.988 55.3203 161.056 58.3093L160.735 124.075C160.178 125.481 159.129 126.326 157.814 126.983C137.102 127.994 116.144 127.323 95.3673 127.33L93.2106 128.441L76.5237 143.327H76.527ZM90.0565 61.486C82.249 61.554 75.3321 66.9457 72.4856 74.0343C65.3679 91.7606 83.8422 108.052 97.2811 116.261C99.4734 117.599 102.867 120.151 105.438 119.613C106.439 119.406 109.897 117.145 111.024 116.456C124.372 108.276 141.493 93.5967 136.671 75.8996C133.423 63.986 119.541 57.9757 108.696 64.258C106.954 65.2651 105.613 66.7676 103.939 67.8525C100.468 64.0378 95.309 61.4407 90.0597 61.486H90.0565Z" fill="#ffffff" fill-opacity="0.54"/>
<path d="M44.3286 35.3595C40.3099 39.566 35.1773 42.9856 30.2259 46.049C29.1184 46.3631 26.272 44.2971 25.1937 43.5976C16.6705 38.0829 0.718789 22.8144 8.25425 11.7427C11.8099 6.51618 19.164 5.33421 24.0732 9.41767C25.6762 10.7518 26.6217 13.2226 28.7558 13.4752C32.551 13.9221 32.6384 11.4124 35.106 9.44681C41.9064 4.02594 51.9126 7.89244 52.8485 16.584C53.6192 23.7503 49.0112 30.4535 44.3286 35.353V35.3595Z" fill="#4E8CFF"/>
<path d="M119.198 145.998C121.396 145.739 123.835 146.532 125.587 147.86C127.167 149.058 128.19 151.438 130.441 151.448C133.064 151.461 133.864 149.227 135.632 147.867C139.932 144.564 145.35 145.587 148.549 149.829C154.699 157.98 145.373 169.23 139.178 174.401C137.96 175.418 132.429 179.501 131.254 179.786C130.198 180.042 127.209 177.804 126.163 177.073C119.156 172.17 108.702 162.193 111.325 152.701C112.281 149.246 115.632 146.416 119.198 145.995V145.998Z" fill="#4E8CFF"/>
<path d="M161.946 6.75887C163.983 6.70382 165.997 7.47453 167.529 8.76984C169.061 10.0651 169.472 11.8591 171.894 11.8786C174.553 11.898 175.155 9.72513 176.939 8.47191C182.383 4.6378 190.932 8.30676 190.851 15.2367C190.744 24.4981 179.608 33.7628 172.218 37.9791C165.492 33.983 157.655 27.8174 154.618 20.3888C152.076 14.1745 154.495 6.95964 161.946 6.76211V6.75887Z" fill="#4E8CFF"/>
<path d="M90.0563 61.4857C95.3056 61.4404 100.464 64.0375 103.936 67.8521C105.61 66.7673 106.954 65.268 108.693 64.2577C119.534 57.9786 133.42 63.9889 136.668 75.8992C141.493 93.5964 124.372 108.275 111.021 116.455C109.897 117.145 106.436 119.402 105.435 119.613C102.864 120.15 99.47 117.598 97.2777 116.261C83.8388 108.052 65.3677 91.7603 72.4822 74.034C75.3287 66.9454 82.2456 61.5569 90.0531 61.4857H90.0563ZM88.4307 67.959C83.9101 68.571 80.0857 71.9097 78.4115 76.0741C73.3533 88.6645 85.8531 100.491 95.0757 107.129C96.575 108.207 102.712 112.476 104.052 112.751C105.056 112.955 109.505 110.001 110.632 109.263C119.505 103.457 131.892 92.6476 131.267 80.9769C130.706 70.4881 119.049 63.9338 110.376 70.7957C107.983 72.6901 106.07 76.8902 102.316 74.9569C101.245 74.4064 99.5186 72.0489 98.3787 71.1228C95.5549 68.8236 92.1256 67.4571 88.4339 67.959H88.4307Z" fill="black"/>
<path d="M88.4306 67.959C92.1222 67.4571 95.5516 68.8236 98.3753 71.1228C99.5152 72.0489 101.241 74.4064 102.313 74.9569C106.066 76.8901 107.98 72.6901 110.373 70.7957C119.045 63.9338 130.703 70.4881 131.263 80.9768C131.888 92.6476 119.502 103.457 110.629 109.263C109.502 110.001 105.053 112.955 104.049 112.751C102.708 112.476 96.5716 108.207 95.0723 107.129C85.8497 100.491 73.35 88.6645 78.4081 76.0741C80.0823 71.9097 83.9067 68.5743 88.4274 67.959H88.4306Z" fill="#4E8CFF"/>
</svg>
