<svg width="141" height="129" viewBox="0 0 141 129" fill="none" xmlns="http://www.w3.org/2000/svg">
<path d="M132.963 0.782227C137.139 1.89204 139.927 5.45618 140.336 9.77734V118.884C139.883 124.027 135.879 127.839 130.735 128.174H10.4258C7.83945 128.044 5.15279 127.103 3.36133 125.312L3.07227 125.005C1.65753 123.419 0.687772 120.998 0.5 118.884V10.0879C0.765641 5.01658 4.39404 0.943871 9.46777 0.498047L132.963 0.782227Z" fill="white" stroke="black"/>
<path d="M132.966 0.782227C137.139 1.89529 139.93 5.45677 140.339 9.77734V118.884C139.886 124.027 135.882 127.838 130.738 128.17H10.4103C7.82588 128.04 5.14956 127.1 3.36145 125.312C1.79344 123.743 0.703359 121.139 0.503052 118.884V10.0869C0.765919 5.01611 4.39421 0.943734 9.4679 0.498047L132.966 0.782227ZM88.8546 2.74609H88.8146L88.7755 2.75293C83.3177 3.62664 78.793 7.91454 78.2472 13.5703C78.2137 13.9162 78.2372 14.4448 78.2531 14.9717C78.2696 15.523 78.2812 16.1194 78.2365 16.6719C78.1909 17.2347 78.0903 17.693 77.922 17.9971C77.7725 18.2671 77.5898 18.3925 77.299 18.3926H2.71301V31.5527H138.123V9.45117C138.123 8.70765 137.853 7.92937 137.443 7.19824C137.031 6.46214 136.459 5.74158 135.81 5.10449C134.53 3.84994 132.854 2.82864 131.384 2.74121L131.368 2.74023H131.354L88.8546 2.74609ZM9.13293 2.71094C8.95047 2.71101 8.75786 2.75748 8.58215 2.81445C8.3996 2.87366 8.20179 2.95603 7.99915 3.05176C7.59342 3.24343 7.13904 3.50241 6.69934 3.78125C6.2586 4.06075 5.82372 4.3657 5.45618 4.65137C5.09701 4.93054 4.77462 5.21238 4.58118 5.44629C4.28044 5.80985 3.8205 6.60466 3.44543 7.36523C3.25429 7.75286 3.07668 8.14927 2.94543 8.49805C2.8231 8.82319 2.71312 9.17786 2.71301 9.45117V15.4189L2.8595 15.5654L3.33899 16.0459L3.48547 16.1924H75.2794L75.4279 16.0293C76.0063 15.3947 76.0908 14.5828 76.0929 13.8711C76.0939 13.5218 76.0725 13.1283 76.0656 12.8018C76.0582 12.456 76.0644 12.1385 76.1095 11.8457C76.5739 8.86216 78.8929 5.77357 81.0197 3.55762L81.8322 2.71094H9.13293ZM138.123 34.5264L137.977 34.3799L137.496 33.9004L137.351 33.7539H3.48547L2.71301 34.5264V119.22C2.71301 119.328 2.73982 119.44 2.75989 119.516C2.78352 119.605 2.81565 119.705 2.85168 119.81C2.92407 120.019 3.02116 120.269 3.12219 120.516C3.32332 121.007 3.55331 121.52 3.66516 121.744L3.66711 121.748C4.44586 123.277 5.47736 124.291 6.73743 124.943C7.98562 125.59 9.42746 125.866 11.0031 125.976L11.0206 125.977H11.0372L130.419 125.957V125.956C132.055 126.005 133.965 125.108 135.444 123.868C136.922 122.63 138.123 120.918 138.123 119.22V34.5264Z" fill="black" stroke="black"/>
<path d="M136.937 34.7537L137.123 34.9402V119.22C137.123 120.479 136.192 121.936 134.802 123.101C133.419 124.261 131.735 125.002 130.437 124.958H130.419L11.0488 124.975C9.54629 124.869 8.26692 124.609 7.19727 124.055C6.1343 123.505 5.24764 122.648 4.55762 121.294L4.33887 120.826C4.24771 120.621 4.14395 120.38 4.0459 120.139C3.94845 119.901 3.86029 119.671 3.79688 119.486C3.7651 119.393 3.74149 119.318 3.72656 119.261C3.71713 119.226 3.71387 119.207 3.71289 119.202V34.9412L3.90039 34.7537H136.937Z" fill="white" stroke="black"/>
<path d="M131.332 3.73999C132.448 3.8114 133.903 4.63869 135.108 5.82007C135.702 6.40231 136.213 7.04867 136.571 7.68823C136.933 8.33279 137.123 8.93966 137.123 9.4519V30.5535H3.71289V19.3923H77.2988C78.0172 19.3922 78.5044 19.0101 78.7969 18.4822C79.0705 17.9879 79.1846 17.3558 79.2334 16.7527C79.283 16.1394 79.2695 15.4938 79.2529 14.9421C79.2356 14.366 79.2176 13.9305 79.2432 13.6667C79.7394 8.52508 83.8548 4.56926 88.8955 3.74585L131.332 3.73999ZM113.762 11.4519C110.253 8.82007 106.312 9.97068 104.078 12.53C101.841 15.0941 101.246 19.1497 104.422 22.3308C106.159 24.0709 108.146 24.6736 110.022 24.4617C111.882 24.2515 113.59 23.2466 114.814 21.8513C116.039 20.4559 116.811 18.636 116.751 16.7595C116.691 14.8665 115.786 12.9702 113.762 11.4519ZM131.855 22.9773C138.084 18.2348 133.67 8.55937 125.915 10.1521C125.163 10.3067 124.256 10.8414 123.48 11.4373C122.796 11.963 122.145 12.5896 121.732 13.1599L121.571 13.4001C119.522 16.709 120.555 20.2935 122.841 22.4373C125.129 24.5833 128.741 25.348 131.855 22.9773ZM94.0928 10.5496C92.9602 10.0763 91.7019 9.92699 90.3564 10.0759V10.0564L89.7725 10.156C86.7939 10.6616 84.9144 13.0189 84.3848 15.6316C83.8556 18.2429 84.6538 21.201 87.1182 22.9548C90.4359 25.3146 94.0246 24.512 96.2529 22.3298C98.4701 20.1583 99.3794 16.5784 97.3506 13.3972C96.4884 12.0455 95.3899 11.0917 94.0928 10.5496Z" fill="white" stroke="black"/>
<path d="M9.13379 3.71094H79.5156C77.5771 5.88821 75.5747 8.77831 75.1211 11.6904C75.0614 12.0706 75.0569 12.4581 75.0645 12.8213C75.0725 13.205 75.0916 13.5249 75.0908 13.8672C75.0895 14.4368 75.023 14.8658 74.8125 15.1914H3.90039L3.71289 15.0039V9.45117C3.71299 9.38037 3.75709 9.18111 3.88184 8.84961C3.99791 8.5412 4.16075 8.17673 4.34277 7.80762C4.71408 7.05467 5.13068 6.34997 5.35156 6.08301C5.47173 5.93771 5.72202 5.71114 6.07031 5.44043C6.41026 5.17623 6.81896 4.89004 7.23535 4.62598C7.65281 4.36125 8.06981 4.1237 8.42676 3.95508C8.60507 3.87086 8.76146 3.80752 8.89062 3.76562C9.02675 3.72149 9.10436 3.71094 9.13379 3.71094Z" fill="white" stroke="black"/>
<path d="M104.832 13.1868C106.79 10.9426 110.151 9.99406 113.162 12.2522C114.963 13.6028 115.702 15.2255 115.751 16.7922C115.802 18.3754 115.149 19.9564 114.063 21.1936C112.977 22.4309 111.486 23.2911 109.91 23.469C108.447 23.634 106.871 23.217 105.418 21.8997L105.13 21.6243C102.389 18.8786 102.877 15.4263 104.832 13.1868ZM111.977 14.1663C111.253 13.531 110.251 13.1951 109.012 13.3323C107.769 13.47 106.859 14.1018 106.308 14.9592C105.765 15.805 105.582 16.8504 105.73 17.8254C105.879 18.8017 106.366 19.7454 107.208 20.3616C108.061 20.9849 109.221 21.2317 110.625 20.9094C112.665 20.4415 113.476 18.344 113.225 16.5793C113.097 15.6773 112.691 14.793 111.977 14.1663Z" fill="black" stroke="black"/>
<path d="M126.117 11.1306C132.849 9.74484 136.613 18.0974 131.25 22.1814C128.592 24.2046 125.523 23.582 123.525 21.7078C121.524 19.8312 120.666 16.7619 122.422 13.9265V13.9255C122.721 13.4418 123.354 12.7964 124.09 12.2312C124.832 11.6613 125.592 11.2401 126.117 11.1306ZM130.53 14.488C128.879 12.7061 126.532 13.0944 125.116 14.3474C124.403 14.9789 123.885 15.8561 123.787 16.8464C123.688 17.8492 124.024 18.9124 124.919 19.8835C125.815 20.8552 126.836 21.2612 127.829 21.2068C128.808 21.1531 129.69 20.6574 130.339 19.9597C131.581 18.6252 132.106 16.3693 130.675 14.6521L130.53 14.488Z" fill="black" stroke="black"/>
<path d="M89.9399 11.1418C91.3566 10.9017 92.6191 11.0155 93.7075 11.47C94.7258 11.8952 95.6221 12.6306 96.3618 13.7112L96.5073 13.9319C98.2422 16.6536 97.4882 19.7178 95.5532 21.6125C93.6293 23.4964 90.5756 24.1829 87.6978 22.136C85.6118 20.6527 84.8994 18.1255 85.3647 15.8293C85.8204 13.5812 87.3852 11.6426 89.7905 11.1663L89.9399 11.1418ZM94.0278 14.3665C93.3286 13.6199 92.3056 13.1895 91.0161 13.3069L90.7544 13.3381C88.6997 13.6344 87.6134 15.3479 87.5259 17.0227C87.4382 18.7007 88.3487 20.4905 90.397 20.9084C91.8768 21.21 93.056 20.8652 93.8687 20.1184C94.666 19.3857 95.0522 18.3198 95.0747 17.2747C95.0972 16.2297 94.7584 15.1465 94.0278 14.3665Z" fill="black" stroke="black"/>
<path d="M109.123 14.3264C110.108 14.2172 110.823 14.4851 111.317 14.9182C111.82 15.3598 112.134 16.0095 112.235 16.72C112.429 18.0891 111.834 19.4445 110.647 19.8635L110.402 19.9348C109.234 20.2019 108.381 19.9795 107.798 19.553C107.205 19.1191 106.834 18.4318 106.718 17.6731C106.603 16.9131 106.75 16.1191 107.149 15.4993C107.54 14.8913 108.184 14.4304 109.123 14.3264Z" fill="white" stroke="black"/>
<path d="M125.83 15.1421C126.942 14.1311 128.615 13.8934 129.797 15.1675C130.942 16.4029 130.619 18.1211 129.566 19.2231C129.048 19.7658 128.388 20.1098 127.719 20.1519C127.066 20.1928 126.341 19.9514 125.654 19.2065C124.966 18.4608 124.76 17.6927 124.833 17.0063C124.907 16.3066 125.279 15.643 125.83 15.1421Z" fill="white" stroke="black"/>
<path d="M90.8975 14.3279C92.0093 14.1672 92.7904 14.5088 93.2979 15.0505C93.8201 15.6084 94.093 16.423 94.0752 17.2527C94.0573 18.0824 93.7499 18.8693 93.1914 19.3826C92.6483 19.8814 91.8084 20.1756 90.5957 19.9285H90.5947C89.1464 19.6322 88.4569 18.3852 88.5254 17.0769C88.5943 15.7649 89.421 14.5422 90.8975 14.3279Z" fill="white" stroke="black"/>
<path d="M58.5881 49.5833C63.1203 49.621 67.4936 51.3309 70.9888 54.0298C72.4221 53.3796 73.6743 52.3732 75.1315 51.7543C94.3084 43.61 111.806 66.3274 95.7384 82.6474C90.1433 88.3308 81.7404 96.2873 75.5236 101.21C72.3389 103.732 69.1736 104.654 65.6618 101.929C58.9804 94.2101 49.7458 87.1961 43.3186 79.4335C33.3631 67.409 42.7968 49.455 58.5881 49.5833Z" fill="#4E8CFF" stroke="black" stroke-width="5"/>
</svg>
