<svg width="141" height="129" viewBox="0 0 141 129" fill="none" xmlns="http://www.w3.org/2000/svg">
<path d="M132.963 0.78418C137.139 1.894 139.927 5.45813 140.336 9.7793V118.886C139.883 124.029 135.879 127.841 130.735 128.176H10.4258C7.83945 128.046 5.15279 127.105 3.36133 125.313L3.07227 125.007C1.65753 123.42 0.687772 121 0.5 118.886V10.0898C0.765641 5.01854 4.39404 0.945825 9.46777 0.5L132.963 0.78418Z" fill="white" stroke="black"/>
<path d="M132.966 0.78418C137.139 1.89724 139.93 5.45872 140.339 9.7793V118.886C139.886 124.029 135.882 127.84 130.738 128.172H10.4102C7.82582 128.042 5.14949 127.102 3.36139 125.313C1.79337 123.745 0.703298 121.141 0.502991 118.886V10.0889C0.765858 5.01806 4.39415 0.945687 9.46783 0.5L132.966 0.78418ZM88.8546 2.74805H88.8145L88.7755 2.75488C83.3176 3.6286 78.7929 7.9165 78.2471 13.5723C78.2136 13.9182 78.2371 14.4468 78.253 14.9736C78.2696 15.5249 78.2811 16.1213 78.2364 16.6738C78.1908 17.2367 78.0903 17.6949 77.9219 17.999C77.7724 18.2691 77.5897 18.3944 77.2989 18.3945H2.71295V31.5547H138.123V9.45312C138.123 8.7096 137.853 7.93133 137.443 7.2002C137.031 6.4641 136.459 5.74353 135.81 5.10645C134.53 3.85189 132.854 2.83059 131.384 2.74316L131.368 2.74219H131.354L88.8546 2.74805ZM9.13287 2.71289C8.95041 2.71296 8.7578 2.75944 8.58209 2.81641C8.39954 2.87561 8.20173 2.95798 7.99908 3.05371C7.59336 3.24539 7.13898 3.50437 6.69928 3.7832C6.25854 4.0627 5.82366 4.36765 5.45612 4.65332C5.09695 4.93249 4.77456 5.21434 4.58112 5.44824C4.28038 5.8118 3.82044 6.60661 3.44537 7.36719C3.25423 7.75481 3.07662 8.15122 2.94537 8.5C2.82304 8.82514 2.71306 9.17982 2.71295 9.45312V15.4209L2.85944 15.5674L3.33893 16.0479L3.48541 16.1943H75.2794L75.4278 16.0312C76.0062 15.3966 76.0908 14.5847 76.0928 13.873C76.0938 13.5238 76.0724 13.1303 76.0655 12.8037C76.0581 12.4579 76.0643 12.1404 76.1094 11.8477C76.5738 8.86411 78.8928 5.77552 81.0196 3.55957L81.8321 2.71289H9.13287ZM138.123 34.5283L137.977 34.3818L137.496 33.9023L137.351 33.7559H3.48541L2.71295 34.5283V119.222C2.71295 119.33 2.73976 119.442 2.75983 119.518C2.78346 119.607 2.81559 119.707 2.85162 119.812C2.92401 120.021 3.0211 120.271 3.12213 120.518C3.32326 121.009 3.55325 121.522 3.6651 121.746L3.66705 121.75C4.4458 123.279 5.4773 124.293 6.73737 124.945C7.98556 125.592 9.4274 125.868 11.003 125.978L11.0206 125.979H11.0372L130.419 125.959V125.958C132.055 126.007 133.965 125.11 135.444 123.87C136.921 122.632 138.123 120.92 138.123 119.222V34.5283Z" fill="black" stroke="black"/>
<path d="M136.937 34.7555L137.123 34.942V119.222C137.123 120.481 136.192 121.938 134.802 123.103C133.419 124.263 131.735 125.003 130.437 124.96H130.419L11.0489 124.977C9.54635 124.871 8.26698 124.611 7.19733 124.057C6.13437 123.507 5.2477 122.65 4.55768 121.296L4.33893 120.828C4.24777 120.623 4.14401 120.381 4.04596 120.141C3.94851 119.903 3.86035 119.673 3.79694 119.488C3.76516 119.395 3.74155 119.32 3.72662 119.263C3.71719 119.228 3.71393 119.209 3.71295 119.204V34.943L3.90045 34.7555H136.937Z" fill="white" stroke="black"/>
<path d="M131.332 3.74194C132.448 3.81335 133.903 4.64064 135.108 5.82202C135.702 6.40427 136.213 7.05062 136.571 7.69019C136.933 8.33474 137.123 8.94162 137.123 9.45386V30.5554H3.71295V19.3943H77.2989C78.0172 19.3942 78.5045 19.0121 78.7969 18.4841C79.0706 17.9899 79.1846 17.3578 79.2335 16.7546C79.2831 16.1414 79.2696 15.4957 79.253 14.9441C79.2357 14.368 79.2176 13.9324 79.2432 13.6687C79.7394 8.52703 83.8548 4.57121 88.8956 3.7478L131.332 3.74194ZM113.762 11.4539C110.253 8.82203 106.312 9.97263 104.078 12.532C101.841 15.0961 101.246 19.1517 104.422 22.3328C106.159 24.0729 108.146 24.6755 110.023 24.4636C111.882 24.2535 113.59 23.2486 114.815 21.8533C116.039 20.4578 116.811 18.6379 116.751 16.7615C116.691 14.8685 115.786 12.9722 113.762 11.4539ZM131.856 22.9792C138.084 18.2368 133.67 8.56132 125.915 10.1541C125.163 10.3087 124.256 10.8433 123.481 11.4392C122.796 11.965 122.145 12.5916 121.732 13.1619L121.571 13.4021C119.522 16.7109 120.556 20.2955 122.841 22.4392C125.129 24.5852 128.741 25.35 131.856 22.9792ZM94.0928 10.5515C92.9603 10.0782 91.702 9.92894 90.3565 10.0779V10.0583L89.7725 10.158C86.7939 10.6635 84.9144 13.0209 84.3848 15.6335C83.8557 18.2448 84.6539 21.203 87.1182 22.9568C90.436 25.3166 94.0247 24.514 96.253 22.3318C98.4702 20.1603 99.3794 16.5804 97.3506 13.3992C96.4884 12.0474 95.39 11.0936 94.0928 10.5515Z" fill="#4E8CFF" stroke="black"/>
<path d="M9.13385 3.71289H79.5157C77.5772 5.89016 75.5748 8.78026 75.1212 11.6924C75.0614 12.0725 75.0569 12.4601 75.0645 12.8232C75.0725 13.207 75.0917 13.5268 75.0909 13.8691C75.0895 14.4388 75.0231 14.8677 74.8126 15.1934H3.90045L3.71295 15.0059V9.45312C3.71305 9.38232 3.75716 9.18306 3.8819 8.85156C3.99797 8.54315 4.16082 8.17868 4.34283 7.80957C4.71414 7.05663 5.13074 6.35192 5.35162 6.08496C5.47179 5.93967 5.72208 5.71309 6.07037 5.44238C6.41032 5.17818 6.81902 4.89199 7.23541 4.62793C7.65287 4.3632 8.06987 4.12566 8.42682 3.95703C8.60513 3.87282 8.76153 3.80947 8.89069 3.76758C9.02681 3.72344 9.10442 3.71289 9.13385 3.71289Z" fill="#4E8CFF" stroke="black"/>
<path d="M104.831 13.1887C106.79 10.9445 110.151 9.99602 113.162 12.2542C114.963 13.6047 115.702 15.2275 115.751 16.7942C115.802 18.3774 115.149 19.9583 114.063 21.1956C112.977 22.4328 111.486 23.293 109.91 23.4709C108.447 23.6359 106.871 23.2189 105.418 21.9016L105.13 21.6262C102.389 18.8806 102.877 15.4282 104.831 13.1887ZM111.977 14.1682C111.253 13.533 110.251 13.197 109.012 13.3342C107.769 13.472 106.859 14.1037 106.308 14.9612C105.764 15.807 105.582 16.8523 105.73 17.8274C105.879 18.8037 106.366 19.7474 107.208 20.3635C108.061 20.9869 109.221 21.2337 110.625 20.9114C112.665 20.4434 113.476 18.346 113.225 16.5813C113.097 15.6792 112.691 14.795 111.977 14.1682Z" fill="black" stroke="black"/>
<path d="M126.117 11.1327C132.849 9.74691 136.613 18.0995 131.25 22.1835C128.592 24.2067 125.523 23.5841 123.525 21.7098C121.524 19.8333 120.666 16.764 122.422 13.9286V13.9276C122.721 13.4438 123.354 12.7985 124.09 12.2333C124.832 11.6634 125.592 11.2422 126.117 11.1327ZM130.53 14.4901C128.879 12.7082 126.532 13.0964 125.116 14.3495C124.403 14.981 123.885 15.8582 123.787 16.8485C123.688 17.8513 124.024 18.9145 124.919 19.8856C125.815 20.8572 126.836 21.2633 127.829 21.2089C128.808 21.1551 129.69 20.6594 130.339 19.9618C131.581 18.6273 132.106 16.3714 130.675 14.6542L130.53 14.4901Z" fill="black" stroke="black"/>
<path d="M89.9399 11.1438C91.3566 10.9036 92.6191 11.0175 93.7075 11.4719C94.7258 11.8972 95.6221 12.6326 96.3618 13.7131L96.5073 13.9338C98.2422 16.6556 97.4882 19.7198 95.5532 21.6145C93.6293 23.4984 90.5756 24.1848 87.6978 22.1379C85.6118 20.6547 84.8994 18.1275 85.3647 15.8313C85.8204 13.5832 87.3852 11.6446 89.7905 11.1682L89.9399 11.1438ZM94.0278 14.3684C93.3286 13.6219 92.3056 13.1915 91.0161 13.3088L90.7544 13.3401C88.6997 13.6363 87.6134 15.3498 87.5259 17.0247C87.4382 18.7027 88.3487 20.4925 90.397 20.9104C91.8768 21.212 93.056 20.8671 93.8687 20.1204C94.666 19.3876 95.0522 18.3218 95.0747 17.2766C95.0972 16.2317 94.7584 15.1484 94.0278 14.3684Z" fill="black" stroke="black"/>
<path d="M109.123 14.3285C110.108 14.2193 110.823 14.4871 111.317 14.9203C111.82 15.3619 112.134 16.0116 112.235 16.722C112.429 18.0911 111.834 19.4465 110.647 19.8656L110.402 19.9369C109.234 20.204 108.381 19.9816 107.798 19.5551C107.205 19.1212 106.834 18.4339 106.718 17.6752C106.603 16.9152 106.75 16.1211 107.149 15.5013C107.54 14.8934 108.184 14.4324 109.123 14.3285Z" fill="white" stroke="black"/>
<path d="M125.83 15.144C126.942 14.1331 128.615 13.8954 129.797 15.1694C130.942 16.4048 130.619 18.1231 129.566 19.2251C129.047 19.7677 128.388 20.1117 127.718 20.1538C127.066 20.1947 126.341 19.9534 125.654 19.2085C124.966 18.4628 124.76 17.6946 124.833 17.0083C124.907 16.3085 125.279 15.6449 125.83 15.144Z" fill="white" stroke="black"/>
<path d="M90.8975 14.3297C92.0094 14.1691 92.7905 14.5106 93.2979 15.0524C93.8202 15.6102 94.093 16.4249 94.0753 17.2545C94.0574 18.0842 93.7499 18.8712 93.1915 19.3844C92.6483 19.8833 91.8084 20.1774 90.5958 19.9303H90.5948C89.1465 19.634 88.4569 18.387 88.5255 17.0787C88.5943 15.7667 89.4211 14.544 90.8975 14.3297Z" fill="white" stroke="black"/>
<path d="M58.5881 49.5853C63.1203 49.6231 67.4936 51.333 70.9888 54.0319C72.4221 53.3817 73.6743 52.3752 75.1315 51.7564C94.3084 43.6121 111.806 66.3295 95.7384 82.6494C90.1433 88.3329 81.7404 96.2894 75.5236 101.212C72.3389 103.734 69.1736 104.656 65.6618 101.931C58.9804 94.2121 49.7458 87.1982 43.3186 79.4356C33.3631 67.4111 42.7968 49.4571 58.5881 49.5853Z" fill="#F64747" stroke="black" stroke-width="5"/>
</svg>
