<svg width="171" height="165" viewBox="0 0 171 165" fill="none" xmlns="http://www.w3.org/2000/svg">
<path d="M45.5915 1C46.0973 1.00854 46.5409 1.1852 46.8991 1.48145C47.5512 2.02079 47.8423 2.89015 48.0065 3.59375C48.1813 4.34239 48.2697 5.1868 48.3464 5.88672C48.4296 6.64652 48.495 7.17925 48.5954 7.48828H48.5964C48.8695 8.32896 49.2745 8.87627 49.7487 9.26758C50.2364 9.66988 50.846 9.94764 51.5847 10.1719C52.3401 10.4012 53.1344 10.5493 54.0349 10.7471C54.8748 10.9315 55.7786 11.1568 56.6384 11.5283C56.6503 11.5323 56.6627 11.5346 56.6745 11.5391C57.0417 11.6771 57.2948 12.0168 57.321 12.4082C57.4082 13.7129 57.0408 14.7096 56.1931 15.3721C55.4524 15.9508 54.4649 16.159 53.655 16.3096C51.8351 16.6478 50.3136 16.8286 49.3552 18.166L49.3542 18.165C48.6243 19.1847 48.5583 20.4105 48.3493 21.9414C48.1573 23.3475 47.8121 25.1014 45.9577 26.0176C45.6899 26.1499 45.3766 26.1548 45.1042 26.0322C43.0092 25.0896 42.6886 23.1513 42.4929 21.6426C42.2928 20.1005 42.1897 18.8739 41.4079 17.9092L41.2419 17.7197C40.9081 17.3653 40.3799 17.0823 39.654 16.8477C38.9303 16.6137 38.1285 16.4622 37.2927 16.2949C36.505 16.1373 35.6333 15.9572 34.9479 15.6494C34.2506 15.3361 33.4717 14.7603 33.3786 13.6982C33.2971 12.7679 33.7248 12.0695 34.3376 11.6123C34.8903 11.1999 35.6009 10.9711 36.2331 10.8184C36.8775 10.6626 37.5862 10.5549 38.1628 10.4561C38.786 10.3492 39.2298 10.256 39.5065 10.1426C41.5119 9.31583 42.1364 7.75602 42.4548 6.05762C42.5354 5.6278 42.5934 5.20239 42.6511 4.77637C42.7072 4.36169 42.7647 3.93077 42.8425 3.54004C42.9799 2.84936 43.2501 1.83821 44.1638 1.37402L44.3386 1.29004C44.7479 1.10419 45.1682 0.992915 45.5915 1Z" fill="#4E8CFF" stroke="black" stroke-width="2" stroke-linejoin="round"/>
<path d="M10.9736 19.51C11.8471 19.4159 12.5036 19.8231 12.918 20.4006C13.2847 20.9118 13.4746 21.562 13.5938 22.1243C13.7166 22.7038 13.791 23.332 13.8574 23.8459C13.9295 24.4034 13.9888 24.7895 14.0654 25.0266V25.0276C14.3621 25.9475 14.7726 26.4743 15.1924 26.804C15.623 27.142 16.1389 27.3326 16.7422 27.4592C17.0449 27.5228 17.3562 27.5672 17.6846 27.6106C18.0005 27.6524 18.3529 27.6949 18.6807 27.7512C19.3143 27.8601 20.1057 28.0539 20.7031 28.6282L20.7041 28.6292C21.0557 28.9677 21.3588 29.3802 21.4609 29.8762C21.5731 30.4211 21.4112 30.9066 21.1309 31.2766C20.8741 31.6154 20.5231 31.8567 20.2012 32.0315C19.8689 32.2119 19.4957 32.359 19.127 32.4827C18.3923 32.7289 17.5663 32.9137 16.9082 33.0588C16.5686 33.1337 16.2804 33.1967 16.0459 33.2551C15.9302 33.2839 15.8391 33.3096 15.7695 33.3313C15.6944 33.3547 15.6717 33.365 15.6807 33.3606V33.3616C14.448 33.9682 14.0325 35.2714 13.7432 36.9417C13.6142 37.6861 13.4979 38.5937 13.2861 39.2805C13.075 39.9652 12.6386 40.8748 11.5771 41.1028C11.0904 41.2072 10.6108 41.134 10.1943 40.8752C9.8096 40.6361 9.55324 40.2853 9.37695 39.9612C9.03384 39.3303 8.83417 38.4892 8.67871 37.7356C8.50946 36.915 8.38604 36.1619 8.20801 35.4524C8.02553 34.7252 7.83817 34.2946 7.66602 34.0969V34.0959C7.44153 33.8391 7.04469 33.6027 6.44238 33.3889C5.84729 33.1777 5.17083 33.0281 4.45996 32.8704C3.79259 32.7222 3.04267 32.5564 2.45605 32.3088C1.91399 32.0801 1.0958 31.6062 1.00977 30.6204L1 30.4475C0.992515 30.0475 1.08336 29.6675 1.27832 29.3245C1.4944 28.9443 1.80445 28.6702 2.11816 28.469C2.71441 28.0866 3.49165 27.8671 4.16309 27.6956C4.89645 27.5082 5.56661 27.3641 6.19629 27.1477C6.82189 26.9327 7.25375 26.6934 7.51562 26.4124C7.78912 26.1188 8.0111 25.6625 8.19727 25.0325C8.38301 24.4039 8.50225 23.7197 8.64062 22.9954C8.76991 22.3186 8.92405 21.5566 9.19727 20.9485C9.47735 20.3253 10.0019 19.6148 10.9736 19.51Z" fill="#4E8CFF" stroke="black" stroke-width="2" stroke-linejoin="round"/>
<path d="M107.943 82.9098C108.088 79.0408 107.492 75.2369 106.489 71.5306C103.823 61.6809 97.2882 55.5628 95.3939 45.0442C93.8171 36.2757 95.7403 32.5115 96.3717 24.5276C96.7217 20.0873 94.8887 17.2886 90.7032 15.7555C80.9429 12.183 76.9846 18.4276 72.8604 25.9161C70.3852 30.4179 68.6208 35.115 67.8342 40.2206C55.411 39.6493 35.8543 34.5726 30.3373 49.8353C26.4296 60.6612 24.6183 84.2115 24.1997 96.1078C23.9832 102.284 23.0956 110.796 27.1116 115.637C37.9579 128.72 68.0362 135.503 83.7826 129.392L117.992 134.664C118.194 148.386 125.671 169.174 143.088 164.26C162.024 158.916 171.603 125.031 170.727 107.675C170.496 103.101 168.349 89.9102 163.99 87.6683C163.121 87.22 158.91 86.9488 157.557 86.8837C148.179 86.4389 138.805 86.5763 129.402 85.8098C122.214 85.224 115.015 84.2477 107.947 82.9062L107.943 82.9098Z" fill="white"/>
<path d="M107.943 82.9097C115.015 84.2548 122.21 85.2311 129.398 85.8132C138.801 86.5798 148.175 86.4424 157.553 86.8872C158.91 86.9523 163.117 87.2234 163.986 87.6718C168.345 89.9137 170.492 103.104 170.723 107.679C171.603 125.031 162.02 158.919 143.084 164.264C125.667 169.178 118.191 148.393 117.989 134.668L83.7789 129.396C68.0326 135.506 37.9543 128.719 27.1079 115.641C23.0956 110.795 23.9832 102.284 24.1997 96.1077C24.6183 84.2078 26.4296 60.6575 30.3409 49.8315C35.8579 34.5725 55.4146 39.6455 67.8377 40.2169C68.6243 35.1112 70.3888 30.4106 72.864 25.9124C76.9846 18.4239 80.9429 12.1756 90.7068 15.7517C94.8923 17.2849 96.7253 20.0836 96.3753 24.5239C95.7439 32.5078 93.8207 36.2719 95.3975 45.0405C97.2918 55.5627 103.826 61.6772 106.493 71.5269C107.496 75.2332 108.091 79.0371 107.947 82.9061L107.943 82.9097ZM45.1419 108.962H38.1059C35.7389 108.962 34.2956 104.536 38.4992 103.932C45.3728 104.283 52.5965 104.186 59.2141 106.25C61.0001 106.807 64.3522 107.733 64.1682 110.174C63.8506 114.368 58.6872 111.027 56.7641 110.517C55.0032 110.051 51.6873 109.472 49.9084 109.414C49.3275 109.396 49.1759 109.255 48.7646 109.863C50.3306 115.435 62.2702 117.235 66.4161 114.549C70.562 111.862 74.9099 100.089 72.0125 95.9594C68.7831 91.3564 53.6501 89.035 48.2089 88.7168C45.9826 88.5866 37.9363 89.317 36.8141 87.8418C35.9914 86.757 36.4352 84.5296 37.828 84.0957C39.3002 83.6365 45.6651 83.8932 47.5053 83.9981C55.88 84.4718 64.4893 86.1242 72.0377 89.7907C76.9413 86.6666 78.9836 77.4786 75.0867 72.9913C70.7965 68.052 53.2352 66.5586 46.7873 66.2766C44.6151 66.1826 39.127 67.4662 38.6507 64.6458C37.9507 60.4984 45.9213 61.4711 48.5914 61.5759C55.2306 61.8399 62.8692 62.8921 69.2413 64.7471C70.4501 65.0978 74.015 66.7973 74.7223 66.4827C76.097 65.8716 77.5547 62.046 77.8831 60.5852C79.3913 53.8668 76.6851 48.7721 70.3996 46.2301C64.114 43.6881 47.3466 42.8818 41.2883 44.8886C35.2301 46.8954 34.4218 52.218 33.3538 57.5478C30.9507 69.5273 29.3126 83.8896 28.894 96.1077C28.775 99.6115 28.4574 106.196 28.9951 109.414C29.6229 113.157 37.9615 118.533 41.2919 120.233C54.9491 127.201 79.0594 131.601 90.6165 118.913C91.9336 117.467 93.9686 113.261 94.6794 112.683C96.7614 110.976 99.2619 112.987 98.3815 115.85C97.9196 117.351 94.3439 121.936 93.1315 123.241C92.8464 123.549 89.9671 125.404 90.6093 125.953C110.985 128.654 131.364 131.663 151.812 133.865C153.569 134.053 159.949 134.968 161.093 134.574C161.403 134.465 161.486 134.295 161.659 134.06C162.612 132.751 164.401 125.06 164.769 123.075C166.678 112.784 166.804 101.553 161.977 92.0434C143.622 91.2913 125.104 91.219 107.052 87.6031C105.822 91.4215 104.155 95.2833 101.441 98.3025C100.175 99.7127 95.7835 103.885 94.4052 100.635C93.1351 97.6444 95.9423 97.2178 97.4578 95.757C106.056 87.4729 103.361 73.2589 98.2444 63.8793C93.4743 55.1324 90.5047 50.721 89.8877 40.0722C89.5702 34.6158 90.9593 30.642 91.3202 25.605C91.5366 22.5785 91.7387 21.3889 88.6934 20.2933C82.8264 18.178 81.2171 21.4938 78.547 25.822C75.5882 30.6167 72.7919 36.3225 72.6042 42.0248C84.0243 45.8974 85.9331 60.5562 78.7021 69.3537C83.999 77.0592 82.3284 86.5654 75.8697 92.9185C79.0088 98.4074 77.5367 104.808 75.1516 110.286C71.814 117.959 67.2496 121.198 58.6584 120.54C53.3831 120.135 41.8296 115.934 45.1419 108.955V108.962Z" fill="black"/>
<path d="M45.1419 108.962C41.8295 115.937 53.3831 120.143 58.6584 120.548C67.2496 121.206 71.8104 117.966 75.1516 110.293C77.5367 104.815 79.0088 98.4147 75.8697 92.9258C82.3284 86.5726 83.999 77.0665 78.7021 69.361C85.933 60.5635 84.0243 45.9047 72.6042 42.0321C72.7954 36.3262 75.5882 30.6239 78.547 25.8293C81.2207 21.4974 82.8264 18.1853 88.6933 20.3006C91.7387 21.3998 91.5366 22.5858 91.3201 25.6123C90.9593 30.6493 89.5701 34.6231 89.8877 40.0795C90.5047 50.7283 93.4743 55.1397 98.2444 63.8865C103.361 73.2662 106.056 87.4802 97.4578 95.7642C95.9423 97.2251 93.1351 97.6517 94.4052 100.642C95.7835 103.889 100.175 99.7164 101.441 98.3098C104.155 95.2906 105.822 91.4252 107.052 87.6104C125.104 91.2263 143.618 91.2986 161.977 92.0507C166.804 101.561 166.678 112.795 164.769 123.082C164.401 125.067 162.612 132.755 161.659 134.067C161.486 134.306 161.403 134.476 161.093 134.581C159.949 134.971 153.573 134.06 151.812 133.872C131.364 131.67 110.985 128.662 90.6093 125.961C89.9671 125.411 92.8464 123.556 93.1315 123.249C94.3402 121.943 97.9196 117.358 98.3815 115.858C99.2619 112.994 96.7614 110.984 94.6794 112.69C93.9722 113.269 91.9372 117.474 90.6165 118.92C79.0593 131.612 54.9491 127.212 41.2919 120.24C37.9615 118.541 29.6229 113.164 28.995 109.421C28.4538 106.203 28.7749 99.6188 28.894 96.115C29.3126 83.8969 30.9507 69.5309 33.3538 57.5551C34.4218 52.2217 35.36 46.8593 41.2883 44.8959C47.2166 42.9324 64.3991 43.8111 70.3996 46.2374C76.4001 48.6636 79.3913 53.8777 77.8831 60.5925C77.5547 62.0533 76.0934 65.8789 74.7222 66.49C74.0114 66.8046 70.4465 65.1051 69.2413 64.7543C62.8692 62.8958 55.2341 61.8436 48.5914 61.5832C45.9249 61.4784 37.9543 60.5057 38.6507 64.6531C39.127 67.4735 44.6151 66.1899 46.7873 66.2839C53.2388 66.5659 70.7965 68.0557 75.0867 72.9986C78.9836 77.4859 76.9413 86.6703 72.0377 89.798C64.4929 86.1279 55.88 84.479 47.5053 84.0054C45.6615 83.9005 39.3002 83.6438 37.828 84.103C36.4388 84.5369 35.9914 86.7679 36.8141 87.849C37.9326 89.3243 45.9826 88.5939 48.2089 88.7241C53.6501 89.0423 68.7831 91.3637 72.0125 95.9667C74.9099 100.1 70.4537 111.945 66.4161 114.556C62.3785 117.167 50.3306 115.438 48.7646 109.87C49.1759 109.259 49.3275 109.403 49.9084 109.421C51.6909 109.479 55.0032 110.058 56.764 110.524C58.6872 111.034 63.8506 114.375 64.1681 110.181C64.3522 107.744 61.0001 106.818 59.214 106.258C52.5965 104.193 45.3728 104.291 38.4991 103.94C34.2955 104.544 35.7388 108.969 38.1058 108.969H45.1419V108.962Z" fill="white"/>
</svg>
