<svg width="210" height="176" viewBox="0 0 210 176" fill="none" xmlns="http://www.w3.org/2000/svg">
<path d="M146.944 93.9098C147.088 90.0408 146.493 86.2369 145.49 82.5306C142.823 72.6809 136.289 66.5628 134.395 56.0442C132.818 47.2757 134.741 43.5115 135.372 35.5276C135.722 31.0873 133.889 28.2886 129.704 26.7555C119.944 23.183 115.985 29.4276 111.861 36.9161C109.386 41.4179 107.621 46.115 106.835 51.2206C94.4117 50.6493 74.8551 45.5726 69.3381 60.8353C65.4304 71.6612 63.619 95.2115 63.2005 107.108C62.984 113.284 62.0964 121.796 66.1123 126.637C76.9587 139.72 107.037 146.503 122.783 140.392L156.993 145.664C157.195 159.386 164.671 180.174 182.088 175.26C201.024 169.916 210.604 136.031 209.727 118.675C209.496 114.101 207.35 100.91 202.991 98.6683C202.121 98.22 197.91 97.9488 196.557 97.8837C187.18 97.4389 177.805 97.5763 168.402 96.8098C161.215 96.224 154.016 95.2477 146.948 93.9062L146.944 93.9098Z" fill="white"/>
<path d="M146.944 93.9097C154.016 95.2548 161.211 96.2311 168.399 96.8132C177.802 97.5798 187.176 97.4424 196.554 97.8872C197.91 97.9523 202.118 98.2234 202.987 98.6718C207.346 100.914 209.493 114.104 209.724 118.679C210.604 136.031 201.021 169.919 182.085 175.264C164.668 180.178 157.191 159.393 156.989 145.668L122.78 140.396C107.033 146.506 76.9551 139.719 66.1087 126.641C62.0963 121.795 62.984 113.284 63.2005 107.108C63.619 95.2078 65.4303 71.6575 69.3417 60.8315C74.8587 45.5725 94.4153 50.6455 106.838 51.2169C107.625 46.1112 109.39 41.4106 111.865 36.9124C115.985 29.4239 119.944 23.1756 129.708 26.7517C133.893 28.2849 135.726 31.0836 135.376 35.5239C134.745 43.5078 132.821 47.2719 134.398 56.0405C136.293 66.5627 142.827 72.6772 145.494 82.5269C146.497 86.2332 147.092 90.0371 146.948 93.9061L146.944 93.9097ZM84.1427 119.962H77.1066C74.7396 119.962 73.2963 115.536 77.4999 114.932C84.3736 115.283 91.5973 115.186 98.2148 117.25C100.001 117.807 103.353 118.733 103.169 121.174C102.851 125.368 97.688 122.027 95.7648 121.517C94.004 121.051 90.688 120.472 88.9091 120.414C88.3282 120.396 88.1767 120.255 87.7653 120.863C89.3313 126.435 101.271 128.235 105.417 125.549C109.563 122.862 113.911 111.089 111.013 106.959C107.784 102.356 92.6509 100.035 87.2097 99.7168C84.9834 99.5866 76.937 100.317 75.8149 98.8418C74.9922 97.757 75.436 95.5296 76.8288 95.0957C78.3009 94.6365 84.6659 94.8932 86.5061 94.9981C94.8808 95.4718 103.49 97.1242 111.038 100.791C115.942 97.6666 117.984 88.4786 114.087 83.9913C109.797 79.052 92.2359 77.5586 85.788 77.2766C83.6159 77.1826 78.1277 78.4662 77.6514 75.6458C76.9514 71.4984 84.922 72.4711 87.5921 72.5759C94.2313 72.8399 101.87 73.8921 108.242 75.7471C109.451 76.0978 113.016 77.7973 113.723 77.4827C115.098 76.8716 116.555 73.046 116.884 71.5852C118.392 64.8668 115.686 59.7721 109.4 57.2301C103.115 54.6881 86.3473 53.8818 80.2891 55.8886C74.2308 57.8954 73.4226 63.218 72.3546 68.5478C69.9515 80.5273 68.3133 94.8896 67.8948 107.108C67.7757 110.611 67.4582 117.196 67.9958 120.414C68.6236 124.157 76.9623 129.533 80.2927 131.233C93.9499 138.201 118.06 142.601 129.617 129.913C130.934 128.467 132.969 124.261 133.68 123.683C135.762 121.976 138.263 123.987 137.382 126.85C136.92 128.351 133.345 132.936 132.132 134.241C131.847 134.549 128.968 136.404 129.61 136.953C149.986 139.654 170.365 142.663 190.813 144.865C192.57 145.053 198.95 145.968 200.093 145.574C200.404 145.465 200.487 145.295 200.66 145.06C201.612 143.751 203.402 136.06 203.77 134.075C205.679 123.784 205.805 112.553 200.977 103.043C182.622 102.291 164.105 102.219 146.053 98.6031C144.822 102.422 143.155 106.283 140.442 109.303C139.176 110.713 134.784 114.885 133.406 111.635C132.136 108.644 134.943 108.218 136.459 106.757C145.057 98.4729 142.362 84.2589 137.245 74.8793C132.475 66.1324 129.505 61.721 128.888 51.0722C128.571 45.6158 129.96 41.642 130.321 36.605C130.537 33.5785 130.739 32.3889 127.694 31.2933C121.827 29.178 120.218 32.4938 117.548 36.822C114.589 41.6167 111.793 47.3225 111.605 53.0248C123.025 56.8974 124.934 71.5562 117.703 80.3537C123 88.0592 121.329 97.5654 114.87 103.918C118.01 109.407 116.537 115.808 114.152 121.286C110.815 128.959 106.25 132.198 97.6591 131.54C92.3839 131.135 80.8303 126.934 84.1427 119.955V119.962Z" fill="black"/>
<path d="M84.1427 119.962C80.8303 126.937 92.3839 131.142 97.6591 131.547C106.25 132.206 110.811 128.966 114.152 121.293C116.537 115.815 118.01 109.415 114.87 103.926C121.329 97.5725 123 88.0663 117.703 80.3609C124.934 71.5634 123.025 56.9046 111.605 53.032C111.796 47.3261 114.589 41.6238 117.548 36.8292C120.221 32.4973 121.827 29.1852 127.694 31.3005C130.739 32.3997 130.537 33.5857 130.321 36.6122C129.96 41.6491 128.571 45.623 128.888 51.0794C129.505 61.7282 132.475 66.1396 137.245 74.8864C142.362 84.266 145.057 98.4801 136.459 106.764C134.943 108.225 132.136 108.652 133.406 111.642C134.784 114.889 139.176 110.716 140.442 109.31C143.155 106.29 144.822 102.425 146.053 98.6103C164.105 102.226 182.619 102.298 200.977 103.051C205.805 112.56 205.679 123.795 203.77 134.082C203.402 136.067 201.612 143.755 200.66 145.067C200.487 145.306 200.404 145.476 200.093 145.581C198.95 145.971 192.574 145.06 190.813 144.872C170.365 142.67 149.986 139.661 129.61 136.96C128.968 136.411 131.847 134.556 132.132 134.249C133.341 132.943 136.92 128.358 137.382 126.858C138.263 123.994 135.762 121.983 133.68 123.69C132.973 124.269 130.938 128.474 129.617 129.92C118.06 142.612 93.9499 138.212 80.2927 131.24C76.9623 129.541 68.6236 124.164 67.9958 120.421C67.4546 117.203 67.7757 110.619 67.8948 107.115C68.3133 94.8968 69.9515 80.5308 72.3546 68.555C73.4226 63.2215 74.3607 57.8592 80.2891 55.8957C86.2174 53.9323 103.4 54.811 109.4 57.2372C115.401 59.6635 118.392 64.8776 116.884 71.5923C116.555 73.0532 115.094 76.8788 113.723 77.4898C113.012 77.8044 109.447 76.105 108.242 75.7542C101.87 73.8957 94.2349 72.8434 87.5921 72.5831C84.9257 72.4782 76.9551 71.5056 77.6514 75.653C78.1277 78.4734 83.6159 77.1897 85.788 77.2837C92.2396 77.5658 109.797 79.0555 114.087 83.9985C117.984 88.4858 115.942 97.6701 111.038 100.798C103.494 97.1278 94.8808 95.4789 86.5061 95.0052C84.6623 94.9004 78.3009 94.6436 76.8288 95.1029C75.4396 95.5368 74.9922 97.7678 75.8149 98.8489C76.9334 100.324 84.9834 99.5938 87.2097 99.724C92.6509 100.042 107.784 102.364 111.013 106.967C113.911 111.1 109.454 122.945 105.417 125.556C101.379 128.167 89.3313 126.438 87.7653 120.87C88.1767 120.259 88.3282 120.403 88.9092 120.421C90.6916 120.479 94.004 121.058 95.7648 121.524C97.688 122.034 102.851 125.375 103.169 121.181C103.353 118.744 100.001 117.818 98.2148 117.257C91.5973 115.193 84.3736 115.29 77.4999 114.94C73.2963 115.543 74.7396 119.969 77.1066 119.969H84.1427V119.962Z" fill="white"/>
<path d="M30.8948 0.187972C35.5676 -0.443491 40.4023 0.605707 43.809 3.97027C56.0432 -5.85465 72.2022 3.80512 69.7379 19.2776C68.1705 29.1187 59.9227 37.263 52.1249 42.7907C50.9397 43.6294 46.3867 46.7446 45.318 46.9907C42.899 47.5477 40.9302 45.961 38.9678 44.7336C28.1228 37.9365 14.6386 24.896 18.761 10.7253C20.2311 5.6736 25.6326 0.903624 30.8948 0.191204V0.187972ZM32.5171 6.33745C28.9518 6.75843 25.6002 9.58867 24.6449 13.0439C22.0251 22.5353 32.475 32.5157 39.4827 37.4152C40.5286 38.147 43.5176 40.3814 44.5732 40.1288C45.7487 39.8471 51.2797 35.7604 52.4973 34.7436C58.6921 29.5688 68.0216 18.3191 61.8689 10.1716C58.6694 5.92943 53.2518 4.90613 48.9514 8.20917C47.1833 9.56601 46.3802 11.8004 43.7604 11.7907C41.5098 11.781 40.4865 9.40086 38.9063 8.2027C37.1543 6.87501 34.7159 6.08163 32.5171 6.34069V6.33745Z" fill="black"/>
<path d="M32.5173 6.33752C34.7161 6.07846 37.1545 6.87184 38.9064 8.19953C40.4867 9.39769 41.51 11.7778 43.7606 11.7875C46.3836 11.8005 47.1835 9.56608 48.9516 8.206C53.252 4.90297 58.6696 5.92626 61.869 10.1684C68.0185 18.3191 58.6923 29.5689 52.4975 34.7404C51.2799 35.7572 45.7489 39.8407 44.5734 40.1257C43.5177 40.3815 40.5288 38.1438 39.4829 37.412C32.4752 32.5092 22.0221 22.5321 24.6451 13.0408C25.6004 9.58552 28.952 6.75526 32.5173 6.33428V6.33752Z" fill="#F64747"/>
<path d="M15.4256 59.5596C18.9213 56.9541 22.942 56.9731 25.9588 58.7627C29.0723 60.6099 31.0733 64.3176 30.3543 68.832C29.5032 74.1757 25.2756 78.5928 21.1482 81.6777L20.325 82.2773C19.9896 82.5147 19.1828 83.0703 18.3836 83.585C17.9843 83.8421 17.5816 84.0922 17.2381 84.2881C17.0666 84.3859 16.9046 84.4735 16.7625 84.542C16.6293 84.6061 16.4829 84.6689 16.3514 84.6992C15.533 84.8877 14.8034 84.7065 14.1619 84.4102C13.5437 84.1245 12.9414 83.6959 12.4314 83.377H12.4305C9.37095 81.4594 5.92205 78.6516 3.52324 75.3018C1.12333 71.9503 -0.263082 67.996 0.94511 63.8428C1.38733 62.3235 2.40879 60.8766 3.6873 59.7607C4.84926 58.7466 6.25602 57.9794 7.69316 57.6865V57.668L8.12675 57.6094C10.7026 57.2614 13.4135 57.7868 15.4256 59.5596ZM25.0721 63.9746C23.4394 61.8099 20.7288 61.3176 18.5701 62.9756C18.3597 63.1371 18.1701 63.3301 17.9715 63.5479C17.7822 63.7554 17.5672 64.0057 17.3435 64.2227C16.9004 64.6526 16.3492 65.0304 15.535 65.0732L15.368 65.0771C14.5388 65.0736 13.9602 64.6235 13.5193 64.1758C13.3045 63.9576 13.0909 63.7056 12.909 63.5039C12.7645 63.3437 12.6296 63.2032 12.4949 63.085L12.3601 62.9736C11.4703 62.2993 10.2367 61.9061 9.15702 62.0332L9.1121 62.0381C7.44959 62.2535 5.87443 63.5207 5.29277 65.0889L5.18925 65.4092C4.51936 67.8362 5.50528 70.3887 7.23417 72.7373C8.95463 75.0744 11.3432 77.1136 13.2703 78.4609L13.8758 78.8887C14.1175 79.0567 14.3898 79.24 14.6629 79.4072C14.9354 79.5741 15.1916 79.7148 15.4051 79.8037C15.5117 79.8481 15.5964 79.8739 15.658 79.8867C15.6889 79.8931 15.7073 79.8941 15.7156 79.8945C15.7178 79.8938 15.7205 79.8936 15.7234 79.8926C15.736 79.8881 15.7537 79.8814 15.7752 79.8721C15.8185 79.8533 15.8736 79.8262 15.9402 79.791C16.074 79.7203 16.2399 79.6228 16.4305 79.5039C16.8113 79.2662 17.2717 78.9546 17.7371 78.627C18.6708 77.9697 19.5984 77.2678 19.9226 76.9971C21.6194 75.5797 23.7333 73.3383 24.9969 70.918C26.2633 68.4921 26.6164 66.0209 25.0721 63.9756V63.9746Z" fill="black" stroke="black"/>
<path d="M9.09832 61.5351C10.3248 61.3906 11.685 61.8332 12.6623 62.5738C13.5438 63.2421 14.1146 64.5698 15.37 64.5752C16.8331 64.5825 17.2793 63.3361 18.2656 62.5774C20.6644 60.7349 23.6864 61.3057 25.4711 63.6721C28.9014 68.2187 23.6991 74.4939 20.2435 77.3787C19.5643 77.9459 16.4791 80.2237 15.8234 80.3827C15.2345 80.5254 13.5672 79.2772 12.9838 78.8689C9.07484 76.1341 3.24392 70.5687 4.70707 65.2743C5.23994 63.3469 7.10952 61.7682 9.09832 61.5333V61.5351Z" fill="#F64747"/>
</svg>
