<svg width="145" height="137" viewBox="0 0 145 137" fill="none" xmlns="http://www.w3.org/2000/svg">
<path d="M83.4197 113.697L58.8896 113.708C56.0529 117.029 52.9998 120.162 49.7103 123.041C47.1927 125.243 42.2855 129.566 39.5799 131.138C38.3495 131.853 37.5065 132.263 36.0853 131.551C32.9069 128.939 29.6003 126.47 26.5017 123.762C23.0242 120.723 19.3075 117.567 16.7642 113.705C15.8813 113.192 5.54295 113.973 3.31009 113.628C1.70949 113.38 -0.121796 111.535 0.00636579 109.812V3.84485C0.000669712 1.85123 1.8462 0 3.85122 0H141.149C142.77 0.0484167 144.325 1.00821 144.849 2.56608L144.997 110.102C144.909 112.033 143.565 113.366 141.682 113.623C139.677 113.896 130.068 113.264 129.307 113.779C127.855 117.678 124.981 120.774 122.065 123.625C118.399 127.205 113.259 131.904 109.232 135C107.443 136.376 106.711 137.008 104.561 135.701C102.547 134.479 99.2491 131.5 97.284 129.873C91.8158 125.345 85.9801 120.549 83.4169 113.694L83.4197 113.697ZM113.37 5.13786H4.85942V18.3812L5.28663 18.8085H112.943L113.37 18.3812V5.13786ZM140.141 5.13786H118.211V18.3812L118.639 18.8085H139.714L140.141 18.3812V5.13786ZM140.141 23.3653H5.28663L4.85942 23.7925V108.806H14.258C11.9226 99.0349 19.4784 89.5651 29.7057 91.5075C33.0009 92.1341 35.5214 94.2074 37.4695 96.839C46.6857 84.5725 64.8277 94.347 60.681 108.806H82.3261C82.3517 95.6429 98.2495 90.0009 106.107 100.826C114.349 90.1575 130.076 95.2698 130.173 108.806H140.141V23.3653ZM35.9799 104.458C35.416 103.882 34.4847 101.148 33.8582 100.171C28.8627 92.3648 17.9034 96.708 18.8177 106.098C19.336 111.438 24.6818 115.875 28.4953 119.205C31.4373 121.776 34.7667 123.915 37.4695 126.743C40.5283 123.992 43.926 121.637 47.0133 118.92C51.4818 114.99 56.8959 110.695 56.4032 104.11C55.7453 95.3267 44.6067 92.9885 40.6935 100.923C40.2207 101.88 40.0128 103.711 39.3065 104.378C38.452 105.184 36.823 105.318 35.9799 104.455V104.458ZM116.437 99.764C113.595 100.1 110.339 102.717 109.089 105.238C108.406 106.619 108.579 108.516 106.654 108.795C103.655 109.231 103.886 106.423 102.775 104.446C98.4232 96.7137 87.1136 99.2883 87.1678 108.661C87.219 117.809 100.237 125.345 106.147 130.998C106.406 131.041 107.625 130.004 107.964 129.742C112.168 126.481 123.116 117.251 124.685 112.572C126.71 106.539 123.523 98.9238 116.437 99.7611V99.764Z" fill="black"/>
<path d="M140.141 23.3652V108.806H130.173C130.076 95.2697 114.349 90.1603 106.107 100.826C98.2494 90.0008 82.3517 95.6428 82.326 108.806H60.6809C64.8277 94.3469 46.6857 84.5724 37.4694 96.8389C35.5214 94.2074 33.0009 92.1311 29.7057 91.5074C19.4784 89.5651 11.9197 99.0348 14.2579 108.806H4.85938V23.7924L5.28658 23.3652H140.141ZM54.3555 30.5679C48.3262 31.1831 42.9348 34.8144 39.7706 39.9066C26.7779 60.8027 58.1832 79.577 70.669 91.5558C73.3433 93.615 75.5192 90.9435 77.4872 89.3002C83.3399 84.4215 89.6569 78.9048 95.1451 73.636C103.427 65.6814 112.25 55.2433 107.061 42.9142C100.801 28.036 81.8789 26.0823 72.7737 39.3143C72.4604 39.3911 68.9744 35.3868 68.2169 34.7659C64.2837 31.5477 59.4307 30.0524 54.3526 30.5679H54.3555Z" fill="white"/>
<path d="M113.37 5.13782V18.3812L112.942 18.8084H5.28658L4.85938 18.3812V5.13782H113.37ZM99.9098 9.47823C97.2042 9.9624 97.2782 13.5965 99.3317 14.1917C100.084 14.411 105.72 14.3826 106.663 14.2345C109.294 13.8186 109.118 10.0421 106.893 9.47823C105.896 9.2276 101.012 9.27887 99.9127 9.47823H99.9098Z" fill="#4E8CFF"/>
<path d="M116.437 99.7639C123.523 98.9266 126.71 106.542 124.685 112.574C123.116 117.254 112.168 126.484 107.964 129.745C107.625 130.007 106.406 131.047 106.147 131.001C100.24 125.348 87.2191 117.812 87.1678 108.664C87.1137 99.2883 98.4261 96.7165 102.775 104.449C103.886 106.423 103.655 109.231 106.654 108.798C108.579 108.519 108.406 106.622 109.089 105.241C110.339 102.72 113.592 100.103 116.437 99.7668V99.7639Z" fill="#F64747"/>
<path d="M35.9798 104.457C36.82 105.318 38.4519 105.187 39.3063 104.381C40.0098 103.714 40.2205 101.883 40.6933 100.926C44.6065 92.9913 55.7452 95.3323 56.4031 104.113C56.8958 110.698 51.4817 114.992 47.0131 118.923C43.9258 121.64 40.5281 123.995 37.4693 126.746C34.7637 123.918 31.4372 121.779 28.4952 119.207C24.6816 115.878 19.3387 111.441 18.8175 106.101C17.9033 96.708 28.8626 92.3675 33.858 100.174C34.4846 101.151 35.4188 103.885 35.9798 104.46V104.457Z" fill="#F64747"/>
<path d="M140.141 5.13782V18.3812L139.714 18.8084H118.639L118.211 18.3812V5.13782H140.141Z" fill="#4E8CFF"/>
<path d="M54.3556 30.568C59.4337 30.0496 64.2867 31.5477 68.2199 34.766C68.9774 35.384 72.4606 39.3912 72.7767 39.3143C81.8819 26.0823 100.804 28.0361 107.064 42.9142C112.253 55.2434 103.43 65.6815 95.1481 73.636C89.6599 78.9049 83.3429 84.4216 77.4902 89.3002C75.5222 90.9407 73.3435 93.615 70.672 91.5559C58.1834 79.577 26.7809 60.8028 39.7736 39.9067C42.9407 34.8144 48.332 31.1832 54.3584 30.568H54.3556ZM70.7375 46.9157C69.9429 46.0357 68.7923 42.9541 67.7471 41.5016C57.7391 27.5661 37.3414 39.1463 42.6559 55.7703C44.8033 62.4831 52.399 69.2159 57.5426 73.9208C62.4412 78.4008 67.6218 82.6558 72.7454 86.8566C77.6155 82.4137 82.8759 78.3638 87.7403 73.9208C93.3253 68.8228 101.781 61.21 103.274 53.5687C105.316 43.1164 96.5208 33.2622 85.7381 35.7486C79.9766 37.0786 76.5333 41.7949 74.2719 46.9243C73.2324 47.6306 71.6717 47.9496 70.7375 46.9157Z" fill="black"/>
<path d="M99.9098 9.4782C101.012 9.28168 105.896 9.23042 106.89 9.4782C109.115 10.0393 109.291 13.8158 106.66 14.2344C105.717 14.3825 100.081 14.411 99.3288 14.1917C97.2782 13.5965 97.2013 9.96236 99.907 9.4782H99.9098Z" fill="black"/>
<path d="M70.7376 46.9157C71.6717 47.9524 73.2324 47.6334 74.272 46.9242C76.5333 41.7949 79.9766 37.0757 85.7382 35.7485C96.5237 33.2622 105.316 43.1193 103.274 53.5687C101.781 61.21 93.3254 68.82 87.7404 73.9208C82.8759 78.3637 77.6184 82.4137 72.7454 86.8566C67.6218 82.6557 62.4412 78.4008 57.5426 73.9208C52.399 69.2158 44.8033 62.4831 42.6559 55.7703C37.3414 39.1462 57.7391 27.5661 67.7471 41.5016C68.7895 42.9541 69.9429 46.0356 70.7376 46.9157Z" fill="#F64747"/>
</svg>
