<svg width="191" height="202" viewBox="0 0 191 202" fill="none" xmlns="http://www.w3.org/2000/svg">
<path d="M118.032 81.6774L123.984 82.1362C125.407 77.4327 130.11 74.3076 134.91 74.0002C136.172 73.9176 137.512 74.716 138.838 74.2663C139.646 73.991 139.907 72.5226 140.513 71.8113C146.148 65.2446 154.693 65.1666 160.245 71.8113C166.867 85.4678 173.961 98.9682 180.372 112.716C182.309 116.865 184.933 121.862 186.168 126.194C189.118 136.542 187.994 147.358 183.832 157.169C185.424 161.189 188.086 165.043 189.692 169.017C190.784 171.72 192.276 174.409 189.017 176.3C176.439 182.045 164.265 188.763 151.692 194.499C149.241 195.619 144.239 198.538 141.899 197.537C139.283 196.418 136.144 186.042 133.887 183.523C128.252 181.678 122.86 179.196 118.028 175.749V186.992C118.028 193.972 110.864 201.172 103.981 201.855L15.4434 201.924C8.65642 201.676 2.58534 197.01 0.68555 190.525C-0.695701 131.944 0.511173 73.1099 0.0844079 14.4366C0.864516 6.72729 6.89888 0.844353 14.5577 0H103.573C110.626 0.495598 118.032 7.78273 118.032 14.9093V81.6774ZM7.89926 14.4504V32.1175H109.772V13.5326C109.772 9.76053 104.587 7.62671 102.201 7.7965L13.6124 8.23244C11.0105 8.84735 8.32602 11.876 7.89926 14.4504ZM109.772 39.9186H8.58759L7.89926 40.6069V152.575L8.58759 153.264H98.9884L99.4519 152.355C94.1012 142.976 87.2959 134.023 83.2669 124.014C82.1243 116.236 87.1537 109.344 94.2068 106.641L83.1338 83.3064C79.2975 69.6591 94.9043 61.3165 104.266 71.3524L109.772 81.6774V39.9186ZM117.261 90.5431C116.022 91.6765 115.926 93.9159 116.417 95.4577L126.742 117.282C127.306 121.591 121.813 123.789 119.308 120.095L98.4974 77.1206C96.2718 73.2063 90.4393 74.7527 90.4531 79.1581C90.4577 80.8376 93.7295 87.1289 94.6932 89.1893C102.788 106.531 112.14 123.482 119.45 141.103C119.895 145.256 115.169 146.894 112.516 143.87L98.2312 114.332C95.5651 113.712 92.5961 116.58 91.6462 118.847C90.3567 121.908 91.3754 123.386 92.7154 126.038C97.598 135.707 112.103 160.441 119.652 167.017C123.236 170.142 127.885 172.766 132.267 174.593C135.75 176.043 138.471 175.3 140.765 178.943C142.482 181.669 144.051 185.547 145.116 188.594L181.822 171.147L175.366 157.151C176.187 153.75 177.986 150.836 178.844 147.294C181.492 136.331 179.312 129.434 174.879 119.595C168.992 106.531 161.7 90.5752 154.835 78.1485C153.403 75.5558 152.128 74.0231 148.911 75.1428C143.941 76.8774 146.823 81.5122 148.245 84.7335C150.209 89.1756 155.684 97.6283 156.478 101.74C157.483 106.939 152.435 109.367 149.503 105.507C145.487 100.226 143.028 90.3824 139.242 84.5638C136.057 79.672 129.803 82.8429 131.106 87.6475L141.807 109.541C142.72 114.038 137.182 116.58 134.359 112.845L123.791 91.291C122.323 89.2031 119.156 88.8085 117.266 90.5339L117.261 90.5431ZM104.495 161.065H7.89926V187.451C7.89926 190.223 12.612 194.187 15.4709 194.105L103.375 193.898C106.565 192.994 109.355 190.925 109.781 187.46C110.493 181.706 109.245 174.561 109.763 168.646L104.495 161.065Z" fill="black"/>
<path d="M117.262 90.5431C119.152 88.8177 122.314 89.2078 123.787 91.3003L134.355 112.854C137.182 116.59 142.716 114.047 141.803 109.55L131.102 87.6567C129.798 82.8476 136.053 79.6812 139.238 84.573C143.023 90.3871 145.483 100.235 149.498 105.517C152.431 109.376 157.478 106.948 156.473 101.749C155.68 97.6375 150.205 89.1894 148.241 84.7428C146.818 81.5214 143.932 76.8866 148.906 75.152C152.123 74.0278 153.399 75.565 154.831 78.1577C161.696 90.5798 168.987 106.54 174.875 119.604C179.312 129.448 181.487 136.34 178.84 147.303C177.986 150.841 176.187 153.759 175.361 157.16L181.818 171.156L145.111 188.603C144.047 185.56 142.477 181.678 140.761 178.952C138.467 175.309 135.746 176.052 132.263 174.602C127.88 172.776 123.232 170.146 119.648 167.026C112.104 160.445 97.5936 135.716 92.7111 126.047C91.3711 123.395 90.3524 121.917 91.6419 118.856C92.5963 116.59 95.5608 113.717 98.2269 114.341L112.512 143.88C115.164 146.904 119.891 145.265 119.446 141.113C112.136 123.491 102.784 106.54 94.6889 89.1986C93.7252 87.1382 90.4579 80.8468 90.4488 79.1673C90.435 74.7666 96.2674 73.2201 98.493 77.1298L119.304 120.105C121.809 123.799 127.302 121.601 126.738 117.292L116.413 95.467C115.922 93.9251 116.018 91.6857 117.257 90.5523L117.262 90.5431Z" fill="white"/>
<path d="M104.495 161.065L109.763 168.646C109.763 168.646 110.493 181.706 109.781 187.46C109.355 190.925 106.565 192.994 103.375 193.898L15.4708 194.105C12.6119 194.187 7.89917 190.223 7.89917 187.451V161.065H104.495ZM57.3489 165.314C41.4484 167.384 43.8851 191.847 60.8548 189.92C76.2045 188.176 73.9468 163.153 57.3489 165.314Z" fill="#4E8CFF" fill-opacity="0.39"/>
<path d="M7.89917 14.4503C8.32594 11.8759 11.0104 8.84726 13.6123 8.23236L102.201 7.79641C104.587 7.62662 109.772 11.2472 109.772 13.5325V32.1174H7.89917V14.4503ZM22.4643 16.1619C16.8704 18.1076 18.4398 24.2659 24.1988 24.3118H71.914C78.9533 23.6143 78.3154 16.6988 72.8455 16.0472L22.4643 16.1619ZM89.448 16.6116C86.323 17.5386 86.2083 23.3481 90.0262 24.1374C96.6159 25.5003 96.2396 14.6017 89.448 16.6116Z" fill="#4E8CFF" fill-opacity="0.39"/>
<path d="M29.3569 75.8311C34.8131 75.0831 39.5213 76.8866 43.9541 79.8556C45.0509 79.9473 47.1572 78.0246 48.4237 77.4602C65.4989 69.8564 78.7607 87.106 68.9451 102.112C61.97 110.748 53.6458 118.361 45.5556 125.983C43.33 126.699 42.3343 126.098 40.7006 124.822C36.3779 121.445 20.7895 105.64 18.3803 101.253C12.6672 90.8597 16.9211 77.529 29.3615 75.8265L29.3569 75.8311ZM30.2655 83.623C26.3879 84.2701 23.474 88.1155 23.552 91.9564C23.7126 100.148 37.9014 109.711 42.761 115.887L43.8348 116.493C44.514 116.112 45.1335 115.653 45.7117 115.13C49.1487 112.024 61.6351 99.7713 63.1953 96.3617C66.949 88.1614 61.3414 81.1313 52.5583 84.3481C49.8325 85.3439 46.3082 89.3683 44.3488 89.4738C42.1507 89.5977 40.8062 87.3446 39.2597 86.3442C36.4651 84.5454 33.7531 83.0448 30.2701 83.623H30.2655Z" fill="black"/>
<path d="M57.349 165.314C73.9424 163.153 76.2047 188.176 60.8549 189.92C43.8852 191.847 41.4486 167.384 57.349 165.314ZM58.7165 173.092C52.6316 173.675 53.6963 182.738 59.4828 182.165C65.2694 181.591 64.0717 172.578 58.7165 173.092Z" fill="black"/>
<path d="M22.4642 16.162L72.8454 16.0472C78.3108 16.7035 78.9486 23.6143 71.9139 24.3118H24.1988C18.4397 24.2705 16.8703 18.1076 22.4642 16.162Z" fill="black"/>
<path d="M89.448 16.6117C96.2396 14.6018 96.6159 25.5004 90.0262 24.1375C86.2083 23.3482 86.323 17.5387 89.448 16.6117Z" fill="black"/>
<path d="M30.2653 83.623C33.7482 83.0448 36.4603 84.5453 39.2549 86.3442C40.8013 87.34 42.1459 89.5931 44.344 89.4738C46.3034 89.3636 49.8277 85.3438 52.5535 84.348C61.3366 81.1312 66.9442 88.166 63.1905 96.3617C61.6302 99.7666 49.1439 112.024 45.7069 115.13C45.1287 115.653 44.5092 116.112 43.83 116.493L42.7562 115.887C37.892 109.715 23.7078 100.147 23.5472 91.9564C23.4692 88.1155 26.3831 84.27 30.2607 83.623H30.2653Z" fill="#F64747"/>
<path d="M58.7162 173.092C64.0715 172.578 65.3059 181.591 59.4826 182.164C53.6593 182.738 52.6314 173.675 58.7162 173.092Z" fill="white"/>
</svg>
