<svg width="136" height="144" viewBox="0 0 136 144" fill="none" xmlns="http://www.w3.org/2000/svg">
<path d="M84.0398 58.1549L88.2775 58.4816C89.2904 55.1326 92.6394 52.9076 96.057 52.6887C96.9555 52.6299 97.9096 53.1984 98.8538 52.8782C99.4289 52.6821 99.6151 51.6366 100.046 51.1302C104.059 46.4547 110.142 46.3991 114.096 51.1302C118.811 60.8537 123.862 70.4661 128.426 80.255C129.805 83.2087 131.674 86.7668 132.553 89.8511C134.654 97.2189 133.853 104.92 130.89 111.905C132.024 114.768 133.919 117.512 135.062 120.342C135.84 122.266 136.902 124.181 134.582 125.527C125.626 129.618 116.958 134.401 108.006 138.485C106.261 139.282 102.699 141.36 101.033 140.648C99.1708 139.851 96.9359 132.463 95.3284 130.67C91.3161 129.356 87.4771 127.589 84.0366 125.135V133.14C84.0366 138.109 78.9363 143.236 74.0353 143.723L10.9958 143.772C6.16344 143.595 1.84078 140.272 0.488117 135.656C-0.495344 93.945 0.363959 52.0548 0.0600991 10.279C0.615542 4.78988 4.91206 0.601186 10.3652 0H73.7445C78.7664 0.35287 84.0398 5.54136 84.0398 10.6155V58.1549ZM5.62433 10.2888V22.8679H78.1587V9.6353C78.1587 6.94957 74.4666 5.43027 72.7676 5.55116L9.69214 5.86156C7.83957 6.29938 5.92819 8.4558 5.62433 10.2888ZM78.1587 28.4224H6.11443L5.62433 28.9124V108.635L6.11443 109.125H70.4805L70.8105 108.478C67.0008 101.8 62.1554 95.4251 59.2867 88.2991C58.4731 82.761 62.0541 77.8535 67.0759 75.9291L59.1919 59.3148C56.4604 49.5978 67.5726 43.6578 74.2379 50.8034L78.1587 58.1549V28.4224ZM83.4909 64.4673C82.6087 65.2744 82.5401 66.8688 82.8897 67.9666L90.2412 83.506C90.6431 86.574 86.7321 88.139 84.9481 85.5088L70.1309 54.9105C68.5462 52.1234 64.3935 53.2245 64.4033 56.3611C64.4066 57.557 66.7362 62.0365 67.4223 63.5035C73.1858 75.8507 79.8446 87.9201 85.0494 100.467C85.3664 103.424 82.001 104.59 80.1125 102.437L69.9414 81.4051C68.0431 80.964 65.9291 83.0061 65.2528 84.6201C64.3347 86.7994 65.06 87.8515 66.0141 89.74C69.4905 96.6242 79.8185 114.235 85.1932 118.917C87.745 121.142 91.0548 123.011 94.175 124.311C96.6549 125.344 98.5924 124.815 100.226 127.409C101.448 129.35 102.565 132.111 103.324 134.28L129.459 121.858L124.862 111.892C125.446 109.471 126.727 107.397 127.338 104.874C129.224 97.0686 127.672 92.1578 124.515 85.1527C120.323 75.8507 115.132 64.4902 110.244 55.6423C109.224 53.7963 108.316 52.705 106.026 53.5022C102.487 54.7373 104.539 58.0373 105.552 60.3309C106.95 63.4937 110.848 69.5121 111.413 72.4396C112.129 76.1415 108.535 77.8699 106.447 75.1221C103.588 71.3614 101.837 64.353 99.1413 60.21C96.8738 56.7271 92.4205 58.9848 93.3484 62.4057L100.968 77.994C101.618 81.196 97.6743 83.0061 95.6649 80.3465L88.1403 64.9999C87.0948 63.5133 84.8403 63.2323 83.4942 64.4608L83.4909 64.4673ZM74.4013 114.679H5.62433V133.466C5.62433 135.44 8.97986 138.263 11.0154 138.204L73.604 138.057C75.8748 137.413 77.8613 135.94 78.1652 133.473C78.6716 129.376 77.7829 124.289 78.1521 120.077L74.4013 114.679Z" fill="black"/>
<path d="M83.4909 64.4673C84.8371 63.2388 87.0883 63.5165 88.1371 65.0064L95.6617 80.353C97.6744 83.0126 101.615 81.2025 100.965 78.0005L93.3452 62.4122C92.4172 58.988 96.8706 56.7336 99.1381 60.2165C101.834 64.3562 103.585 71.3679 106.444 75.1285C108.532 77.8763 112.126 76.1479 111.41 72.4461C110.845 69.5186 106.947 63.5034 105.549 60.3374C104.536 58.0438 102.481 54.7438 106.022 53.5087C108.313 52.7082 109.221 53.8028 110.24 55.6488C115.128 64.4934 120.32 75.8571 124.512 85.1592C127.672 92.1676 129.22 97.0751 127.335 104.881C126.727 107.4 125.447 109.478 124.858 111.899L129.455 121.864L103.32 134.286C102.562 132.12 101.445 129.356 100.223 127.415C98.5892 124.821 96.6517 125.35 94.1718 124.318C91.0515 123.018 87.7417 121.145 85.19 118.924C79.8185 114.238 69.4872 96.6307 66.0108 89.7465C65.0568 87.858 64.3314 86.8059 65.2495 84.6266C65.9291 83.0126 68.0398 80.9672 69.9381 81.4116L80.1093 102.443C81.9978 104.596 85.3631 103.43 85.0462 100.473C79.8414 87.9266 73.1826 75.8571 67.419 63.51C66.7329 62.0429 64.4066 57.5635 64.4 56.3676C64.3902 53.2343 68.543 52.1332 70.1276 54.9169L84.9449 85.5153C86.7289 88.1455 90.6398 86.5805 90.2379 83.5125L82.8865 67.9731C82.5369 66.8753 82.6055 65.2809 83.4877 64.4738L83.4909 64.4673Z" fill="white"/>
<path d="M74.4012 114.679L78.1521 120.077C78.1521 120.077 78.6716 129.376 78.1651 133.473C77.8613 135.94 75.8748 137.413 73.604 138.057L11.0153 138.204C8.9798 138.263 5.62427 135.44 5.62427 133.466V114.679H74.4012ZM40.8328 117.705C29.5116 119.179 31.2465 136.597 43.3291 135.224C54.2582 133.983 52.6507 116.166 40.8328 117.705Z" fill="#4E8CFF" fill-opacity="0.39"/>
<path d="M5.62427 10.2888C5.92813 8.45586 7.83951 6.29944 9.69207 5.86162L72.7675 5.55122C74.4666 5.43033 78.1586 8.00824 78.1586 9.63536V22.868H5.62427V10.2888ZM15.9947 11.5075C12.0119 12.8929 13.1293 17.2776 17.2298 17.3103H51.2033C56.2153 16.8136 55.7612 11.8898 51.8665 11.4259L15.9947 11.5075ZM63.6877 11.8277C61.4626 12.4877 61.381 16.6241 64.0994 17.1861C68.7912 18.1565 68.5233 10.3966 63.6877 11.8277Z" fill="#4E8CFF" fill-opacity="0.39"/>
<path d="M20.9024 53.9924C24.7872 53.4599 28.1395 54.7439 31.2957 56.8579C32.0766 56.9232 33.5763 55.5542 34.478 55.1523C46.6357 49.7384 56.0782 62.0202 49.0895 72.7044C44.1231 78.8534 38.1962 84.2739 32.436 89.7009C30.8513 90.2106 30.1423 89.7826 28.9792 88.8743C25.9013 86.4695 14.8023 75.2169 13.0869 72.0934C9.01914 64.6929 12.0479 55.2014 20.9056 53.9892L20.9024 53.9924ZM21.5493 59.5403C18.7884 60.001 16.7137 62.739 16.7692 65.4738C16.8836 71.3059 26.9861 78.115 30.4462 82.5128L31.2107 82.9441C31.6943 82.6729 32.1354 82.3462 32.5471 81.9737C34.9943 79.7617 43.8846 71.038 44.9955 68.6104C47.6682 62.7717 43.6755 57.7662 37.4219 60.0566C35.4811 60.7656 32.9718 63.631 31.5767 63.7062C30.0116 63.7944 29.0543 62.1901 27.9532 61.4779C25.9634 60.1971 24.0324 59.1287 21.5526 59.5403H21.5493Z" fill="black"/>
<path d="M40.8329 117.705C52.6475 116.166 54.2583 133.983 43.3291 135.224C31.2466 136.597 29.5117 119.179 40.8329 117.705ZM41.8066 123.243C37.4741 123.658 38.2321 130.111 42.3522 129.703C46.4723 129.294 45.6195 122.877 41.8066 123.243Z" fill="black"/>
<path d="M15.9947 11.5075L51.8665 11.4258C55.7579 11.893 56.2121 16.8136 51.2033 17.3102H17.2297C13.1293 17.2808 12.0118 12.8928 15.9947 11.5075Z" fill="black"/>
<path d="M63.6877 11.8276C68.5234 10.3965 68.7913 18.1564 64.0994 17.186C61.381 16.624 61.4627 12.4876 63.6877 11.8276Z" fill="black"/>
<path d="M21.5492 59.5403C24.0291 59.1286 25.9601 60.1971 27.9499 61.4778C29.051 62.1868 30.0083 63.7911 31.5733 63.7061C32.9685 63.6277 35.4778 60.7656 37.4185 60.0566C43.6722 57.7662 47.6648 62.775 44.9922 68.6104C43.8813 71.0347 34.9909 79.7617 32.5437 81.9737C32.132 82.3462 31.6909 82.6729 31.2074 82.9441L30.4428 82.5128C26.9795 78.1183 16.8802 71.3059 16.7659 65.4738C16.7103 62.739 18.7851 60.001 21.5459 59.5403H21.5492Z" fill="#4E8CFF"/>
<path d="M41.8066 123.243C45.6196 122.877 46.4985 129.294 42.3522 129.703C38.206 130.111 37.4741 123.658 41.8066 123.243Z" fill="white"/>
</svg>
