<svg width="109" height="98" viewBox="0 0 109 98" fill="none" xmlns="http://www.w3.org/2000/svg">
<g filter="url(#filter0_d_1329_1101)">
<path d="M40.8895 17.8091C41.3661 17.4583 41.5504 16.3725 41.3548 15.8095C39.9295 12.6504 39.2191 8.98188 37.9153 5.82277C37.5848 5.02517 37.3892 4.06894 36.3529 4.00415C35.2153 3.93489 34.4667 4.73919 34.705 5.86968C36.245 9.16061 36.9081 12.8157 38.3154 16.1491C38.7336 17.1411 39.4934 18.8346 40.8895 17.8068V17.8091ZM55.2793 6.10204C54.6791 5.36476 53.7259 5.62616 53.083 6.18917L50.2302 13.7965C49.821 15.4252 50.4527 16.587 52.2647 16.0932C52.4535 16.0419 52.6401 15.595 52.7278 15.3984C53.4022 13.9015 55.3108 9.07348 55.5221 7.65702C55.6008 7.13199 55.6368 6.5444 55.2793 6.10427V6.10204ZM21.6797 18.2738C21.8146 18.4034 22.3227 18.3877 22.6059 18.5776C24.8068 20.0544 26.9672 21.5759 29.2602 22.9142C30.7327 23.5576 31.9422 21.777 30.8271 20.6867L23.0286 15.6844C21.4864 15.2979 20.9806 17.5991 21.6797 18.2738ZM90.1941 56.9763C91.3968 53.1469 92.7883 49.3712 94.1327 45.5887C95.6276 41.384 98.8648 36.6208 94.8903 32.7624C93.9596 31.8575 92.4646 31.2521 91.1832 31.0733C90.7156 31.0085 89.7759 31.328 89.6253 31.0733C89.3308 30.0478 90.0749 29.1542 90.1918 28.0438C90.9876 20.4454 81.5188 17.9655 78.5019 24.5831C76.3932 22.9879 75.1388 22.0272 72.3219 22.3489C69.0083 22.7265 67.1806 26.1381 66.5871 29.0536C66.2544 29.3441 64.3863 27.8271 63.8714 27.6193C61.5357 26.6743 59.0853 27.1591 57.1722 28.7543C54.6679 30.8432 53.7349 37.7312 52.0624 40.6803L51.3227 40.6467C50.2729 34.4916 44.7044 30.412 39.4979 35.526C38.1131 32.5345 37.1824 29.2994 33.3764 28.6582C30.7484 28.2158 29.4131 29.8043 27.3831 30.8566C25.0945 26.2632 18.3908 26.319 16.3923 31.1091C15.2008 33.9643 16.2709 35.2624 16.9071 37.9859C11.9276 37.6463 8.89048 41.7817 10.2753 46.4757C12.0737 52.5638 16.3226 59.3758 17.9187 65.4639C18.0176 65.8415 18.0716 66.1922 18.0266 66.5832C15.1918 65.093 12.348 62.3562 8.94218 62.8052C5.00357 63.3236 2.99829 67.9326 4.49775 71.4291C5.40148 73.5337 9.89986 76.8537 11.8512 78.4198C23.1185 87.457 34.6016 98.5028 49.7941 89.327C52.7278 87.5553 55.34 84.8073 57.2554 82.0012C63.0127 85.7345 71.1709 86.4606 77.5891 84.108C81.6334 82.6268 85.563 79.2844 88.9486 76.6302C92.8333 73.5851 98.7794 69.1793 102.109 65.8035C105.243 62.6265 104.395 57.0858 100.133 55.4682C99.1099 55.0795 96.8259 55.0504 95.7153 55.2046C94.7374 55.3409 90.6144 57.365 90.1896 56.9718L90.1941 56.9763Z" fill="white"/>
<path d="M77.9404 21.7139C80.1096 19.0582 83.418 18.2426 86.3174 19.0566C89.8812 20.0573 92.6821 23.464 92.1807 28.252V28.2529C92.1441 28.5999 92.0723 28.9146 91.9961 29.1855C93.4634 29.4845 95.1176 30.1945 96.2832 31.3271C97.5398 32.547 98.2907 33.9114 98.6123 35.373C98.9276 36.806 98.8033 38.2087 98.5127 39.4883C98.2241 40.759 97.7491 41.998 97.29 43.1143C96.8083 44.2855 96.3697 45.2684 96.0176 46.2588C95.1016 48.8361 94.178 51.3719 93.3086 53.9131C93.4749 53.8475 93.6352 53.7829 93.7852 53.7256C94.2524 53.547 94.9233 53.2956 95.4395 53.2236H95.4404C96.1495 53.1252 97.1251 53.0946 98.0439 53.1348C98.9105 53.1726 100.013 53.2828 100.844 53.5986H100.843C106.631 55.7954 107.546 63.1376 103.532 67.207C100.084 70.703 93.9667 75.2378 90.1826 78.2041C86.939 80.747 82.6982 84.3671 78.2773 85.9863V85.9854C71.8891 88.3269 63.9507 87.8775 57.8066 84.6357C55.9092 87.0833 53.5189 89.4141 50.8281 91.0391C42.5996 96.0088 35.2321 95.5039 28.5391 92.5312C22.0563 89.6519 16.0989 84.3913 10.5996 79.9805V79.9795C9.68677 79.2468 7.98886 77.9582 6.46875 76.6357C5.69971 75.9667 4.92966 75.2502 4.2793 74.541C3.65694 73.8624 3.02161 73.0595 2.66016 72.2178H2.65918C1.66071 69.8895 1.8445 67.2543 2.88281 65.124C3.93131 62.9728 5.93692 61.1835 8.68066 60.8223C11.0061 60.5156 13.0252 61.3205 14.6572 62.2119C14.6838 62.2264 14.7098 62.2422 14.7363 62.2568C14.0482 60.5078 13.2236 58.6879 12.3564 56.8066C10.9827 53.8264 9.50461 50.6764 8.54297 47.6465L8.35742 47.042C7.50484 44.1521 7.978 41.2673 9.61719 39.127C10.7578 37.6377 12.3873 36.609 14.3076 36.1846C14.1944 35.8029 14.0822 35.3962 14.001 34.9775C13.7284 33.5716 13.7983 32.1327 14.5469 30.3389C16.9443 24.5933 24.2562 23.9994 27.9648 28.1729C28.3458 27.9293 28.7788 27.6568 29.2373 27.4199C30.4365 26.8003 31.8671 26.3758 33.708 26.6855H33.709C36.2377 27.1116 37.8576 28.4509 38.9854 30.0664C39.4842 30.7811 39.909 31.5969 40.2842 32.3945C41.1692 31.8706 42.0857 31.5152 43.0225 31.3379C44.7704 31.007 46.4461 31.3215 47.9043 32.0928C49.4893 32.9312 50.7878 34.2838 51.7334 35.9219C51.9418 35.2491 52.1525 34.5581 52.4014 33.7832C52.7851 32.5883 53.2205 31.3374 53.7441 30.2295C54.2539 29.1509 54.9331 28.0183 55.8916 27.2188V27.2178C58.3222 25.1912 61.5439 24.5214 64.6191 25.7646C64.838 25.853 65.0367 25.9689 65.1533 26.0391C65.2259 26.0827 65.2994 26.1315 65.373 26.1787C65.7432 25.2657 66.2252 24.3649 66.833 23.5518C67.9365 22.0758 69.532 20.7992 71.6621 20.4248L72.0957 20.3613C73.7952 20.1673 75.1709 20.3524 76.4668 20.9092C76.9838 21.1314 77.4717 21.4101 77.9404 21.7139ZM20.9463 14.1758C21.6869 13.6734 22.5959 13.5139 23.5146 13.7441C23.7251 13.7969 23.9258 13.8838 24.1084 14.001L31.9072 19.0029L32.0723 19.1221C32.1254 19.1644 32.1769 19.2093 32.2256 19.2568C33.553 20.555 33.5004 22.3739 32.6582 23.5898C31.812 24.8112 30.1421 25.4825 28.459 24.7471C28.388 24.716 28.3189 24.6807 28.252 24.6416C25.9525 23.2996 23.7653 21.7687 21.6689 20.3584C21.6013 20.3451 21.446 20.3151 21.3066 20.2764C21.2169 20.2515 21.0783 20.2093 20.9238 20.1396C20.7772 20.0735 20.5333 19.9458 20.2939 19.7158L20.291 19.7129C19.6407 19.0853 19.4369 18.2755 19.3867 17.7051C19.3331 17.0945 19.4229 16.4539 19.6436 15.8721C19.8616 15.297 20.2632 14.6393 20.9463 14.1758ZM36.4746 2.00781H36.4775C37.7698 2.0886 38.6041 2.80476 39.0879 3.56836C39.2973 3.89895 39.4399 4.23111 39.5352 4.46973L39.7627 5.05762L39.7637 5.05957C40.4607 6.74849 40.9948 8.56227 41.5029 10.2344C41.9589 11.7349 42.3993 13.1405 42.9395 14.4375L43.1777 14.9873L43.2441 15.1533C43.5013 15.8938 43.4571 16.7023 43.3311 17.3008C43.2164 17.8452 42.9116 18.8043 42.0752 19.4199C42.0297 19.4534 41.9822 19.4835 41.9346 19.5127C41.3258 19.9245 40.5792 20.2003 39.7412 20.1094C38.8631 20.0141 38.224 19.5542 37.8174 19.1455C37.0809 18.4049 36.6535 17.3559 36.4727 16.9268C35.7205 15.1451 35.1706 13.286 34.6475 11.5801C34.1118 9.83339 33.5969 8.22093 32.8936 6.71777C32.8285 6.5788 32.7797 6.43236 32.748 6.28223C32.5181 5.19133 32.7359 4.03 33.5244 3.15137C34.3014 2.28576 35.4089 1.94292 36.4746 2.00781ZM53.9775 3.66992C54.9753 3.55962 56.0581 3.89086 56.8301 4.83887C56.8686 4.88624 56.9046 4.93599 56.9385 4.98633C57.7755 6.14148 57.5717 7.47486 57.5 7.95312C57.4198 8.48977 57.2112 9.19934 56.9932 9.87109C56.7616 10.5843 56.4716 11.3973 56.1719 12.1982C55.5772 13.7875 54.9159 15.407 54.5537 16.2119L54.5547 16.2129C54.5312 16.2656 54.4145 16.5394 54.2725 16.7891C54.2004 16.9157 54.0815 17.1102 53.9131 17.3037C53.7819 17.4545 53.4124 17.8541 52.79 18.0234V18.0225C51.4917 18.3762 49.8651 18.3046 48.8301 16.9619C47.9406 15.808 48.0288 14.3497 48.29 13.3096L48.3574 13.0947L51.21 5.4873L51.2568 5.37305C51.3744 5.10996 51.5481 4.87505 51.7656 4.68457C52.3086 4.2091 53.0764 3.76964 53.9775 3.66992Z" stroke="white" stroke-width="4" stroke-linejoin="round"/>
</g>
<path d="M78.1768 23.0918C80.0524 20.1573 83.2686 19.2395 86.0469 20.0195C89.0542 20.8639 91.4797 23.671 91.2197 27.749L91.1865 28.1484C91.113 28.8472 90.8321 29.5211 90.7031 29.9072C90.6815 29.9718 90.665 30.0327 90.6484 30.0889C90.6511 30.0886 90.6537 30.0882 90.6562 30.0879C90.8248 30.0697 91.0744 30.049 91.3203 30.083H91.3213C92.7549 30.283 94.4664 30.9558 95.5869 32.0449L95.792 32.251C96.7911 33.2866 97.3762 34.4083 97.6357 35.5879C97.9094 36.8318 97.8082 38.0781 97.5381 39.2676C97.269 40.4524 96.8205 41.6263 96.3652 42.7334C95.8985 43.8682 95.4382 44.903 95.0752 45.9238C93.9214 49.1702 92.7439 52.3807 91.6797 55.6221C91.9002 55.5401 92.1356 55.452 92.3789 55.3564C92.9604 55.128 93.6094 54.8629 94.1426 54.6592C94.6414 54.4686 95.197 54.2669 95.5771 54.2139H95.5781C96.2103 54.1261 97.1228 54.0954 98.001 54.1338C98.853 54.171 99.8172 54.2782 100.488 54.5332C105.513 56.4406 106.394 62.8828 102.82 66.5059C99.4316 69.9417 93.3997 74.4113 89.5654 77.417C86.2508 80.0156 82.1652 83.4957 77.9326 85.0459L77.9336 85.0469C71.5354 87.3921 63.4995 86.813 57.5303 83.3408C55.6163 85.9606 53.1202 88.4848 50.3105 90.1816L50.3115 90.1826C42.3991 94.9614 35.38 94.4756 28.9443 91.6172C22.614 88.8054 16.7919 83.6648 11.2256 79.2002V79.1992C10.2813 78.4413 8.6258 77.1865 7.125 75.8809C6.37023 75.2242 5.63136 74.5356 5.0166 73.8652C4.41577 73.2101 3.8728 72.5072 3.5791 71.8232C2.70501 69.785 2.85998 67.4547 3.78223 65.5625C4.7096 63.6598 6.45492 62.1237 8.81152 61.8135L9.18652 61.7754C11.0486 61.6353 12.7138 62.2903 14.1777 63.0898C14.9592 63.5167 15.7178 64.0037 16.4287 64.458C16.4941 64.4998 16.5603 64.5398 16.625 64.5811C15.8152 61.9692 14.5673 59.2148 13.2646 56.3887C11.881 53.3868 10.4342 50.2998 9.49707 47.3477L9.31641 46.7588C8.54391 44.1403 8.98723 41.5946 10.4111 39.7354C11.5994 38.1839 13.4159 37.1848 15.5996 37C15.5446 36.8187 15.491 36.6398 15.4355 36.4619C15.2668 35.9204 15.0937 35.361 14.9824 34.7871C14.7471 33.5732 14.7976 32.3343 15.4697 30.7236C17.6747 25.4398 24.6965 25.1182 27.7373 29.4971C27.9112 29.3893 28.0878 29.2798 28.2666 29.165C28.709 28.881 29.189 28.5707 29.6963 28.3086C30.7539 27.7621 31.9646 27.4065 33.542 27.6719H33.543C35.7587 28.0453 37.1605 29.1995 38.165 30.6387C38.8503 31.6205 39.3771 32.788 39.8604 33.8857C40.9505 33.0519 42.0772 32.5344 43.208 32.3203C44.7173 32.0346 46.1639 32.3034 47.4365 32.9766C49.4822 34.0586 51.0481 36.1587 51.8652 38.6777C51.9965 38.3296 52.1316 37.9537 52.2646 37.5518C52.6307 36.4458 52.9588 35.3178 53.3535 34.0889C53.7342 32.9036 54.1538 31.7039 54.6484 30.6572C55.1361 29.6252 55.7391 28.6472 56.5312 27.9863H56.5322C58.7043 26.1753 61.5404 25.5978 64.2461 26.6924L64.4365 26.7822C64.6349 26.8865 64.8492 27.0265 65.0176 27.1377C65.2928 27.3195 65.5557 27.5003 65.8389 27.6826C65.857 27.6943 65.8758 27.7045 65.8936 27.7158C66.2606 26.4849 66.8305 25.2249 67.6338 24.1504C68.6949 22.7312 70.2058 21.5838 72.208 21.3555L72.7754 21.3047C74.0607 21.2253 75.0987 21.4098 76.0723 21.8281C76.8091 22.1448 77.4876 22.5901 78.1768 23.0918ZM23.0293 14.666L23.2715 14.7148L23.4258 14.7666C23.4752 14.788 23.5229 14.8136 23.5684 14.8428L31.3672 19.8447L31.4502 19.9043C31.4767 19.9254 31.5021 19.948 31.5264 19.9717C32.4688 20.8932 32.4304 22.1611 31.8359 23.0195C31.2393 23.8808 30.0691 24.3587 28.8594 23.8301C28.824 23.8146 28.7892 23.7968 28.7559 23.7773C26.4371 22.424 24.2427 20.8811 22.0762 19.4268C22.0742 19.4261 22.0717 19.4255 22.0693 19.4248C22.0308 19.4131 21.9788 19.4015 21.8906 19.3838C21.8235 19.3703 21.69 19.3446 21.5742 19.3125C21.5116 19.2951 21.4259 19.2686 21.335 19.2275C21.248 19.1883 21.1151 19.1179 20.9873 18.9951L20.9854 18.9932C20.573 18.5951 20.4214 18.0556 20.3828 17.6182C20.3425 17.1605 20.4108 16.6704 20.5791 16.2266C20.7461 15.7862 21.0396 15.3216 21.5078 15.0039C21.9428 14.7088 22.4678 14.5831 23.0293 14.666ZM36.4141 3.00586H36.415C37.3202 3.06245 37.8914 3.54832 38.2432 4.10352C38.4028 4.35552 38.5183 4.6201 38.6064 4.84082L38.8389 5.44043L38.8398 5.44141C39.5143 7.0756 40.0325 8.83595 40.5459 10.5254C41.0008 12.0223 41.4542 13.4717 42.0176 14.8242L42.2666 15.3984L42.2998 15.4814C42.4772 15.9924 42.4561 16.6027 42.3525 17.0947C42.2546 17.5597 42.0196 18.2187 41.4824 18.6143C41.4689 18.6242 41.4533 18.6314 41.4395 18.6406C40.9593 18.9829 40.4213 19.1772 39.8496 19.1152C39.2735 19.0527 38.8339 18.7495 38.5264 18.4404C37.9496 17.8605 37.5884 16.9994 37.3936 16.5371C36.6659 14.8133 36.1321 13.0106 35.6035 11.2871C35.0686 9.54286 34.5355 7.86826 33.7988 6.29395C33.7663 6.22452 33.7424 6.15117 33.7266 6.07617C33.552 5.24818 33.7246 4.4255 34.2686 3.81934C34.8068 3.21967 35.5968 2.9561 36.4141 3.00586ZM54.0869 4.66406C54.7827 4.58706 55.5186 4.81221 56.0547 5.4707C56.0599 5.47705 56.0634 5.48476 56.0684 5.49121C56.7133 6.30115 56.5868 7.29784 56.5107 7.80566C56.4441 8.25106 56.2605 8.88938 56.042 9.5625C55.8167 10.2566 55.5321 11.0545 55.2354 11.8477C54.6432 13.4304 53.989 15.0342 53.6396 15.8096L53.6387 15.8086C53.6038 15.887 53.5134 16.1015 53.4033 16.2949C53.347 16.3939 53.2661 16.5246 53.1592 16.6475C53.0709 16.7489 52.8622 16.9675 52.5273 17.0586V17.0576C51.4252 17.3579 50.3063 17.2391 49.6221 16.3516C49.0106 15.5583 49.0278 14.48 49.2607 13.5527L49.2939 13.4453L52.1465 5.83789C52.2045 5.68335 52.2997 5.54527 52.4238 5.43652C52.856 5.05807 53.4396 4.73576 54.0869 4.66406Z" fill="white" stroke="white" stroke-width="2" stroke-linejoin="round"/>
<path d="M90.1944 56.9775C90.6193 57.3707 94.7423 55.3466 95.7202 55.2103C96.8307 55.0561 99.1125 55.0852 100.138 55.4739C104.4 57.0892 105.247 62.6322 102.114 65.8092C98.7843 69.1828 92.8359 73.5886 88.9535 76.636C85.5679 79.2902 81.6383 82.6325 77.594 84.1137C71.1758 86.4663 63.0176 85.7402 57.2603 82.0069C55.3449 84.8108 52.7327 87.5588 49.7989 89.3328C34.6065 98.5085 23.1234 87.4605 11.8561 78.4255C9.90474 76.8616 5.40411 73.5417 4.50264 71.4348C3.00318 67.9384 5.00845 63.327 8.94706 62.8109C12.3529 62.3641 15.1967 65.0987 18.0315 66.5889C18.0765 66.1979 18.0225 65.8472 17.9236 65.4696C16.3275 59.3793 12.0764 52.5673 10.2802 46.4814C8.89536 41.7897 11.9302 37.652 16.912 37.9916C16.2758 35.2659 15.2057 33.9678 16.3972 31.1148C18.3979 26.3247 25.0994 26.2689 27.388 30.8623C29.4202 29.81 30.7556 28.2193 33.3813 28.6639C37.1873 29.3074 38.1202 32.5424 39.5028 35.5317C44.7093 30.4177 50.2755 34.4951 51.3276 40.6525L52.0672 40.686C53.7398 37.7369 54.6727 30.8489 57.1771 28.76C59.0902 27.1648 61.5383 26.6777 63.8763 27.625C64.3889 27.8328 66.2593 29.3476 66.592 29.0594C67.1855 26.1438 69.0132 22.7322 72.3268 22.3546C75.1436 22.0329 76.3981 22.9936 78.5067 24.5888C81.5236 17.9712 90.9925 20.4511 90.1967 28.0495C90.0798 29.1599 89.3357 30.0558 89.6302 31.0791C89.7808 31.3337 90.7182 31.0143 91.1881 31.0791C92.4695 31.2578 93.9644 31.8632 94.8951 32.7681C98.8697 36.6287 95.6325 41.392 94.1375 45.5944C92.7932 49.3769 91.4016 53.1526 90.1989 56.982L90.1944 56.9775ZM93.2698 35.1519C91.3454 32.8954 88.414 34.2873 87.3416 36.6064C85.3813 40.8513 84.4304 46.2848 82.3667 50.4292C81.137 52.9002 79.1722 51.7675 79.7252 49.368L87.6654 27.9937C88.387 23.8962 83.5964 22.0843 81.3775 25.5428L73.4284 47.804C72.3313 49.1512 70.7756 48.3916 70.6363 46.8299L76.8859 28.8806C76.7442 25.1719 72.365 23.6929 70.4002 27.1447C67.761 33.1903 66.0929 39.799 63.611 45.867C63.375 46.4457 62.9411 47.8152 62.3296 47.956C60.9516 48.2732 60.3514 47.1852 60.5267 45.9385C60.9134 43.1949 63.4582 38.4027 64.3214 35.4022C64.7621 33.8718 65.2589 32.6296 64.0135 31.2757C63.0715 30.2546 61.8576 29.9486 60.502 30.2658C58.7193 30.6836 58.3191 32.2944 57.7189 33.7534C56.1317 37.614 55.0909 41.7874 53.5465 45.6749C57.3457 56.5776 63.5189 65.0742 59.7331 77.085C59.5218 77.7531 58.9868 78.5529 58.7485 79.25C58.699 79.7862 60.801 80.6687 61.3068 80.8831C75.274 86.7992 83.5536 77.2057 93.2248 69.2722C95.6887 67.2525 98.3055 65.4138 100.639 63.2243C101.615 61.6492 101.268 59.1961 99.6183 58.2242C98.1391 57.3506 96.6734 57.7349 95.1379 58.2063C92.1413 59.1268 86.0962 62.5093 83.4952 62.7417C82.4903 62.8311 80.6514 61.8257 79.4959 61.6894C77.3872 61.4392 75.3977 61.8815 73.5745 62.9182C72.8573 63.327 70.7127 65.3154 70.2473 65.4361C69.6651 65.5903 68.5995 64.6675 68.4871 64.147C68.269 63.1327 71.4546 61.0415 72.3178 60.55C75.3842 58.8051 77.8481 58.6196 81.2561 59.2676C81.9867 59.4061 82.5375 59.9311 83.3311 59.8976C83.8032 59.8775 86.3188 58.8207 86.5323 58.4789L93.9622 38.2708C94.1915 37.3146 93.906 35.8959 93.2698 35.1519ZM35.0584 53.3425C34.258 54.0619 33.3206 53.347 32.9249 52.565L24.8679 31.975C22.8086 28.8337 18.5261 30.8288 18.7531 34.2471C20.8056 41.0434 24.5599 47.851 26.6776 54.5266C27.3003 56.4882 26.5269 58.0187 24.5756 56.6156L19.2005 42.9693C16.9794 39.7409 12.553 40.7843 13.0768 45.0337C13.2971 46.821 15.7272 52.0646 16.5298 54.1133C18.3732 58.823 21.217 64.3481 22.631 69.051C23.1638 70.8227 23.2583 72.1185 20.891 71.6717C18.4901 70.6037 12.8317 65.9544 10.496 65.8986C9.3697 65.8718 8.46598 66.1622 7.83652 67.0961C7.17109 68.0813 7.02272 69.2789 7.28574 70.4496C7.54877 71.6203 11.0602 74.1918 12.1393 75.0654C18.0989 79.8845 28.4108 89.1607 35.9306 89.7952C51.503 91.1089 61.4102 76.14 56.8466 61.8592C54.3288 53.9815 50.1384 46.1172 47.652 38.1547C46.4628 36.3539 44.5767 35.5496 42.6433 36.8745C41.0764 37.9491 41.1753 39.6091 41.6474 41.2177C42.6838 44.741 44.8037 48.2777 45.7547 51.8836C45.6265 54.1826 43.8865 54.1312 42.9378 52.221C40.1727 46.6467 38.6305 39.446 35.7935 33.8517C33.8961 30.1094 28.6064 31.8454 29.5416 36.2668C31.1197 41.0725 33.7028 45.9854 35.1775 50.7732C35.418 51.5552 35.7777 52.6991 35.0539 53.3492L35.0584 53.3425Z" fill="black"/>
<path d="M40.8887 17.8107C39.4927 18.8385 38.7328 17.1427 38.3147 16.153C36.9074 12.8218 36.2464 9.16451 34.7043 5.87358C34.466 4.74532 35.2123 3.93879 36.3521 4.00805C37.3885 4.07284 37.584 5.02683 37.9145 5.82666C39.2184 8.98354 39.9288 12.652 41.3541 15.8134C41.5496 16.3742 41.3675 17.46 40.8887 17.813V17.8107Z" fill="black"/>
<path d="M21.6808 18.2734C20.9817 17.601 21.4875 15.2975 23.0296 15.684L30.8282 20.6863C31.9432 21.7766 30.7338 23.5572 29.2613 22.9138C26.9683 21.5755 24.8079 20.0541 22.607 18.5773C22.3238 18.3874 21.8157 18.403 21.6808 18.2734Z" fill="black"/>
<path d="M55.2807 6.10127C55.6404 6.5414 55.6022 7.12899 55.5235 7.65402C55.3144 9.07272 53.4035 13.8985 52.7291 15.3954C52.6415 15.592 52.4526 16.0389 52.266 16.0902C50.4541 16.584 49.8224 15.4245 50.2315 13.7935L53.0843 6.18617C53.7273 5.62316 54.6782 5.35953 55.2807 6.09904V6.10127Z" fill="black"/>
<path d="M35.0583 53.3416C35.7821 52.6915 35.4224 51.5476 35.1819 50.7656C33.7072 45.9801 31.1264 41.0671 29.546 36.2592C28.613 31.8378 33.9028 30.0996 35.7979 33.8441C38.6327 39.4384 40.1771 46.6391 42.9422 52.2134C43.8909 54.1258 45.6287 54.175 45.7591 51.876C44.8081 48.2701 42.6882 44.7334 41.6518 41.2101C41.1775 39.6015 41.0808 37.9415 42.6477 36.8669C44.5811 35.542 46.4672 36.3463 47.6564 38.1471C50.1405 46.1119 54.3332 53.9739 56.851 61.8516C61.4146 76.1346 51.5074 91.1036 35.935 89.7876C28.4152 89.1531 18.1033 79.8746 12.1437 75.0578C11.0646 74.1864 7.54192 71.5702 7.29014 70.442C7.03835 69.3137 7.17548 68.0737 7.84091 67.0885C8.47037 66.1568 9.37409 65.8642 10.5004 65.891C12.8361 65.9446 18.4945 70.5961 20.8954 71.6641C23.2626 72.1087 23.1682 70.8151 22.6354 69.0434C21.2214 64.3427 18.3776 58.8154 16.5342 54.1057C15.7339 52.0592 13.3015 46.8156 13.0812 45.0261C12.5574 40.7789 16.9816 39.7333 19.2049 42.9617L24.58 56.608C26.5313 58.0111 27.3047 56.4806 26.682 54.5191C24.5643 47.8456 20.81 41.0358 18.7575 34.2395C18.5305 30.8212 22.813 28.8261 24.8723 31.9674L32.9293 52.5575C33.325 53.3394 34.2624 54.0543 35.0628 53.3349L35.0583 53.3416Z" fill="white"/>
<path d="M93.2696 35.1507C93.9058 35.8969 94.1913 37.3134 93.962 38.2696L86.5321 58.4777C86.3186 58.8195 83.803 59.8785 83.3309 59.8964C82.5373 59.9276 81.9866 59.4049 81.2559 59.2663C77.8479 58.6184 75.384 58.8039 72.3176 60.5487C71.4544 61.0403 68.2666 63.1292 68.4869 64.1458C68.5993 64.6663 69.6649 65.589 70.2471 65.4349C70.7103 65.312 72.8572 63.3236 73.5743 62.917C75.3952 61.8803 77.3848 61.438 79.4957 61.6882C80.6512 61.8245 82.4901 62.8298 83.495 62.7405C86.096 62.5103 92.1388 59.1278 95.1377 58.2051C96.6732 57.7337 98.1367 57.3494 99.6181 58.223C101.268 59.1948 101.614 61.648 100.639 63.223C98.3053 65.4125 95.6885 67.2513 93.2246 69.2709C83.5535 77.2045 75.2738 86.798 61.3066 80.8819C60.8008 80.6674 58.6988 79.7849 58.7483 79.2487C58.9866 78.5517 59.5216 77.7518 59.7329 77.0838C63.5187 65.0729 57.3455 56.5742 53.5463 45.6737C55.0907 41.7862 56.1315 37.6128 57.7187 33.7521C58.3189 32.2932 58.7191 30.6802 60.5018 30.2646C61.8551 29.9474 63.0713 30.2534 64.0133 31.2744C65.2609 32.6261 64.7619 33.8705 64.3212 35.401C63.458 38.3992 60.9132 43.1937 60.5265 45.9373C60.3512 47.1862 60.9514 48.272 62.3295 47.9547C62.9409 47.814 63.3748 46.4444 63.6109 45.8658C66.0927 39.7978 67.763 33.1891 70.4 27.1435C72.3648 23.6917 76.7441 25.1685 76.8857 28.8794L70.6361 46.8287C70.7754 48.3904 72.3311 49.15 73.4282 47.8028L81.3773 25.5416C83.5962 22.0853 88.3868 23.895 87.6652 27.9925L79.725 49.3667C79.172 51.7662 81.1368 52.899 82.3665 50.428C84.4302 46.2836 85.3811 40.8501 87.3414 36.6052C88.4115 34.2861 91.3453 32.8942 93.2696 35.1507Z" fill="white"/>
<defs>
<filter id="filter0_d_1329_1101" x="-0.000244141" y="0" width="108.981" height="97.7754" filterUnits="userSpaceOnUse" color-interpolation-filters="sRGB">
<feFlood flood-opacity="0" result="BackgroundImageFix"/>
<feColorMatrix in="SourceAlpha" type="matrix" values="0 0 0 0 0 0 0 0 0 0 0 0 0 0 0 0 0 0 127 0" result="hardAlpha"/>
<feOffset dx="1" dy="1"/>
<feComposite in2="hardAlpha" operator="out"/>
<feColorMatrix type="matrix" values="0 0 0 0 0 0 0 0 0 0 0 0 0 0 0 0 0 0 0.17 0"/>
<feBlend mode="normal" in2="BackgroundImageFix" result="effect1_dropShadow_1329_1101"/>
<feBlend mode="normal" in="SourceGraphic" in2="effect1_dropShadow_1329_1101" result="shape"/>
</filter>
</defs>
</svg>
