<svg width="22" height="22" viewBox="0 0 22 22" fill="none" xmlns="http://www.w3.org/2000/svg">
<path fill-rule="evenodd" clip-rule="evenodd" d="M11.009 1.83398C5.68314 1.83398 1.82397 6.18459 1.82397 11.0144C1.82397 12.5567 2.27314 14.144 3.06147 15.5945C3.20814 15.8342 3.22647 16.1362 3.12564 16.4217L2.51147 18.4781C2.37397 18.9739 2.79564 19.3402 3.26314 19.1933L5.11481 18.6434C5.61897 18.4781 6.01314 18.6884 6.48064 18.9739C7.81897 19.7625 9.48731 20.1673 10.9906 20.1673C15.5373 20.1673 20.1573 16.6512 20.1573 10.9869C20.1573 6.10197 16.2156 1.83398 11.009 1.83398Z" fill="white" stroke="#898989" stroke-width="1.5" stroke-linecap="round" stroke-linejoin="round"/>
<path d="M7.04468 10.1348C7.63563 10.1348 8.11591 10.6149 8.11597 11.2041C8.11597 11.7951 7.63566 12.2753 7.04468 12.2754C6.45365 12.2754 5.97339 11.7951 5.97339 11.2041C5.97345 10.6149 6.45368 10.1348 7.04468 10.1348ZM11.2087 10.1348C11.7997 10.1348 12.28 10.6149 12.28 11.2041C12.28 11.7951 11.7998 12.2754 11.2087 12.2754C10.6178 12.2753 10.1375 11.7951 10.1375 11.2041C10.1375 10.6149 10.6178 10.1348 11.2087 10.1348ZM15.3728 10.1348C15.9638 10.1348 16.444 10.6149 16.4441 11.2041C16.4441 11.7951 15.9638 12.2754 15.3728 12.2754C14.782 12.2751 14.3025 11.795 14.3025 11.2041C14.3025 10.615 14.782 10.135 15.3728 10.1348Z" fill="#898989"/>
</svg>
