<?xml version="1.0" encoding="UTF-8"?>
<svg id="Calque_1" xmlns="http://www.w3.org/2000/svg" version="1.1" viewBox="0 0 18.2 16.8">
  <!-- Generator: Adobe Illustrator 29.3.1, SVG Export Plug-In . SVG Version: 2.1.0 Build 151)  -->
  <defs>
    <style>
      .st0 {
        fill: #898989;
      }

      .st1 {
        fill: none;
        stroke: #898989;
        stroke-width: 1.5px;
      }
    </style>
  </defs>
  <path class="st1" d="M5.9,1h6.5c2.8,0,5,2.2,5,5v2c0,2.8-2.2,5-5,5h-.8c-.1,0-.2,0-.2.2v2.4c0,.2-.2.3-.3.2l-4.1-2.7s0,0-.1,0h-1c-2.8,0-5-2.2-5-5v-2C.9,3.3,3.1,1,5.9,1Z" shape-rendering="crispEdges"/>
  <path class="st0" d="M5.9,6c.6,0,1.1.4,1.1,1,0,.6-.5,1-1.1,1s-1.1-.4-1.1-1c0-.6.5-1,1.1-1ZM9.1,6c.6,0,1.1.4,1.1,1,0,.6-.5,1-1.1,1s-1.1-.4-1.1-1c0-.6.5-1,1.1-1ZM12.2,6c.6,0,1.1.4,1.1,1,0,.6-.5,1-1.1,1-.6,0-1.1-.4-1.1-1,0-.6.5-1,1.1-1Z"/>
</svg>