<svg width="41" height="41" viewBox="0 0 41 41" fill="none" xmlns="http://www.w3.org/2000/svg">
<rect width="41" height="41" rx="6" fill="#F5FAFF"/>
<path d="M18.5626 8.62461C21.6474 8.17774 25.0671 11.968 26.6068 14.2998C28.0392 16.4687 30.1424 20.8633 28.7877 23.38C28.2234 24.4289 27.4905 24.5529 26.4008 24.6629C23.8314 24.9218 21.2378 25.0263 18.6636 25.247L18.5175 25.3359L22.2653 30.9144C23.6005 33.5114 20.3486 35.7848 18.3714 33.5371L14.0959 27.2568C14.0314 27.2224 13.3731 27.5851 13.1959 27.642C10.2075 28.6059 7.39787 25.6681 8.40825 22.721C9.03391 20.8953 11.0718 20.2136 12.4583 19.0789L17.1325 9.58308C17.3952 9.11515 18.0349 8.69948 18.5618 8.62383L18.5626 8.62461ZM19.0305 9.73048C17.3027 9.88022 17.6245 12.3657 17.8957 13.5246C18.6652 16.8095 21.6855 21.2127 24.6467 22.8629C25.7488 23.4774 27.1983 24.0007 27.813 22.4597C28.9322 19.656 25.6874 14.6164 23.8143 12.6067C22.8264 11.5468 20.5476 9.59946 19.0305 9.73048ZM23.7544 23.7278C23.2896 23.323 22.7689 22.9916 22.2995 22.5907C20.1248 20.7377 18.0061 17.6205 17.1069 14.9003C16.9304 14.3669 16.8457 13.8124 16.6856 13.2789C16.6693 13.2236 16.6747 13.1464 16.5993 13.1627L13.5775 19.4384L16.7447 24.1949L23.7544 23.7278ZM12.7583 20.2846C11.3112 21.3881 8.91966 22.2203 9.39921 24.503C9.80725 26.4465 11.8443 27.2248 13.5231 26.2172C14.2817 25.7625 14.9781 25.1674 15.7258 24.6917L12.7583 20.2838V20.2846ZM15.0286 26.5322L19.3033 32.8953C20.2608 33.9372 21.8743 32.8399 21.3217 31.5703L17.2141 25.4763C17.0859 25.3835 16.8092 25.4022 16.66 25.4537C16.2138 25.6065 15.5486 26.3786 15.0286 26.5322Z" fill="black" stroke="black" stroke-width="0.4"/>
<path d="M34.5547 9.98924L30.4292 12.7087C29.7935 12.9738 29.2401 12.2564 29.7764 11.7619L33.8801 9.04948C34.505 8.83345 34.9472 9.48309 34.5555 9.98924H34.5547Z" fill="black"/>
<path d="M30.8955 15.4542C31.0246 15.4207 31.152 15.4355 31.2818 15.4472C32.7749 15.579 34.4023 16.1342 35.9164 16.284C36.5537 16.5897 36.3827 17.3516 35.7112 17.4249L30.9803 16.5671C30.3888 16.4797 30.3624 15.593 30.8955 15.455V15.4542Z" fill="black"/>
<path d="M27.5192 4.71046C27.9848 4.60361 28.2498 4.84772 28.2871 5.30395L27.8138 9.73445C27.5752 10.3537 26.7288 10.2359 26.6729 9.5738L27.1407 5.08948C27.1773 4.93272 27.363 4.74633 27.5185 4.71046H27.5192Z" fill="black"/>
<path d="M22.8443 19.021C22.9189 18.9329 23.1272 18.8362 23.2103 18.7465C24.5503 17.2959 23.4357 15.1247 21.4616 15.386C20.9727 15.4507 20.2694 16.1994 19.8901 15.4928C19.3717 14.5274 21.488 14.1678 22.0958 14.2138C24.9521 14.433 26.0013 18.3262 23.693 19.8422C22.9803 20.3102 22.3982 19.549 22.8451 19.0202L22.8443 19.021Z" fill="black"/>
</svg>
