<svg width="74" height="80" viewBox="0 0 74 80" fill="none" xmlns="http://www.w3.org/2000/svg">
<g filter="url(#filter0_d_1329_963)">
<path d="M40.232 11.2418L48.8563 32.3091L67.9985 40.5324C69.2541 41.3004 69.4325 43.8922 68.8219 45.0569C67.7516 47.0984 51.8821 51.9812 48.9181 54.0226C45.4327 59.2702 44.1428 69.8166 40.6369 74.4499C37.6592 78.3792 35.6352 73.6564 34.5169 71.2821C32.0195 65.9769 30.6472 59.635 28.0126 54.3106L8.81553 45.9784C6.61314 44.3722 7.37471 41.6588 9.50163 40.2957C13.5908 37.6655 24.6027 35.368 27.6764 32.2899C30.6678 29.2245 34.0846 12.285 37.3916 11.2674C38.1052 11.0499 39.6351 10.9027 40.232 11.2418Z" fill="white"/>
<path d="M38.7963 9.54688C39.1256 9.53386 39.4824 9.54002 39.8265 9.58398C40.1058 9.61969 40.4713 9.69118 40.8236 9.85938L40.973 9.9375L41.4242 10.1934L41.6205 10.6738L50.0111 31.1719L68.5902 39.1543L68.6898 39.1963L68.7816 39.2529C69.9872 39.9905 70.4486 41.3961 70.5951 42.4365C70.747 43.5155 70.6497 44.8009 70.1508 45.7529V45.7539C69.9522 46.1325 69.6572 46.4188 69.4222 46.6172C69.1687 46.8313 68.8736 47.0337 68.5658 47.2227C67.9497 47.601 67.1686 47.9964 66.3051 48.3945C64.5727 49.1933 62.3556 50.0736 60.1215 50.9385C57.8669 51.8113 55.5975 52.6672 53.6898 53.4385C51.957 54.139 50.6789 54.7102 50.0052 55.1084C48.4962 57.5118 47.3986 61.089 46.2181 64.9092C45.6221 66.8379 45.0083 68.8046 44.3177 70.584C43.6308 72.354 42.834 74.0331 41.8334 75.3555H41.8324C40.9822 76.4774 39.9713 77.2952 38.7543 77.4365C37.4978 77.5823 36.5066 76.9561 35.8363 76.3066C35.1662 75.6574 34.6294 74.8127 34.2123 74.0547C33.7898 73.2868 33.4269 72.4885 33.1595 71.9209C31.8669 69.1749 30.8714 66.1734 29.8949 63.2832C28.9691 60.543 28.0578 57.8922 26.9056 55.4648L8.21814 47.3545L8.0658 47.2881L7.93201 47.1904C6.376 46.0556 5.77786 44.4101 6.05701 42.791C6.32143 41.2574 7.33755 39.9016 8.68982 39.0342L9.1449 38.7568C10.2483 38.117 11.6397 37.5247 13.098 36.9668C14.7777 36.3242 16.6712 35.6809 18.4701 35.0459C20.2924 34.4026 22.0328 33.7635 23.4984 33.1025C24.9999 32.4254 26.0502 31.7947 26.6146 31.2295C26.8269 31.0072 27.1217 30.5726 27.4808 29.8672C27.8348 29.1718 28.2063 28.3063 28.5941 27.3105C29.3729 25.3111 30.1682 22.9206 30.9984 20.5205C31.817 18.1542 32.6705 15.7749 33.5404 13.915C33.9744 12.9871 34.4389 12.1303 34.9379 11.4502C35.4034 10.8159 36.0604 10.1079 36.9506 9.83398L36.9545 9.83301C37.4604 9.67876 38.1526 9.57233 38.7963 9.54688Z" stroke="white" stroke-width="3"/>
</g>
<path d="M36.2727 2.33789C36.3997 2.34441 36.5193 2.35807 36.6252 2.37891C36.7225 2.39802 36.8429 2.42995 36.9504 2.49121L37.1057 2.5791L37.1702 2.74512L47.5901 29.79L64.3938 33.2725L64.4797 33.29L64.554 33.3359C64.8088 33.4922 65.0444 33.7722 65.2522 34.0693C65.4701 34.3811 65.697 34.7703 65.9231 35.2051C66.3763 36.0764 66.845 37.1658 67.2502 38.2617C67.6552 39.3571 68.0024 40.4743 68.2092 41.4023C68.3124 41.8652 68.3836 42.294 68.4065 42.6562C68.4277 42.9911 68.4162 43.3652 68.2688 43.6475C68.1561 43.863 67.9708 44.0563 67.7698 44.2266C67.5625 44.4021 67.3049 44.581 67.0129 44.7607C66.4289 45.1203 65.6664 45.509 64.7903 45.9141C63.0359 46.7252 60.7757 47.626 58.469 48.5215C56.1556 49.4195 53.7957 50.3114 51.8176 51.1133C49.891 51.8943 48.3899 52.5678 47.6487 53.0547C45.929 55.696 44.7286 59.6559 43.4983 63.6484C42.8817 65.6493 42.2589 67.65 41.5618 69.4512C40.9094 71.1368 40.1823 72.6761 39.3147 73.8945L39.1389 74.1338C38.3296 75.2048 37.4899 75.8054 36.6233 75.9756C35.7468 76.1477 34.9497 75.859 34.2776 75.3799C32.9652 74.4442 31.9618 72.6667 31.3821 71.4326C30.0714 68.6406 29.2091 65.415 28.344 62.2451C27.4906 59.1181 26.6315 56.0426 25.3411 53.375L5.70239 44.8281L5.65161 44.8066L5.60669 44.7734C4.97637 44.3124 4.24829 43.5024 3.56763 42.5488C2.88149 41.5876 2.21945 40.4459 1.73267 39.2959C1.2492 38.1536 0.920962 36.9622 0.945557 35.9141C0.970335 34.8594 1.36054 33.894 2.35083 33.3418C3.51688 32.5897 5.37891 32.2208 7.45923 32.0088C9.56314 31.7944 11.9987 31.7324 14.3713 31.6572C16.7565 31.5816 19.0779 31.4924 20.9983 31.2266C21.9576 31.0937 22.8007 30.9187 23.4915 30.6865C24.1874 30.4526 24.6918 30.1721 25.011 29.8516C25.3193 29.5328 25.6007 29.0102 25.8469 28.2832C26.0914 27.561 26.2875 26.6796 26.4514 25.6855C26.7798 23.6944 26.9679 21.3172 27.1682 18.9736C27.3671 16.6463 27.5794 14.3452 27.9602 12.5586C28.1504 11.6664 28.3885 10.871 28.7053 10.2539C28.9554 9.76687 29.2812 9.33959 29.7161 9.09082C29.8124 5.86643 31.3376 4.0794 32.9846 3.16797C33.8203 2.7056 34.6737 2.47477 35.3625 2.38281C35.707 2.33684 36.0183 2.32485 36.2727 2.33789Z" fill="black" stroke="black"/>
<path d="M33.3467 0.942383C33.6473 0.930465 33.9549 0.936589 34.2363 0.972656C34.4411 0.998915 34.6549 1.04368 34.8486 1.12109L35.0352 1.20996L35.1846 1.2959L35.25 1.45508L44.0723 23.0664L63.6387 31.4951L63.6719 31.5098L63.7021 31.5283C64.5425 32.0438 64.9468 33.1019 65.083 34.0723C65.221 35.0557 65.1128 36.1426 64.7334 36.8682C64.6206 37.0839 64.4355 37.277 64.2344 37.4473C64.0272 37.6227 63.7704 37.8008 63.4785 37.9805C62.8944 38.3401 62.1312 38.7286 61.2549 39.1338C59.5006 39.9449 57.2412 40.8458 54.9346 41.7412C52.6211 42.6393 50.2613 43.5321 48.2832 44.334C46.357 45.1149 44.8557 45.7875 44.1143 46.2744C42.3944 48.9158 41.1943 52.8762 39.9639 56.8691C39.3473 58.8699 38.7244 60.8698 38.0273 62.6709C37.3315 64.4688 36.5501 66.1003 35.6045 67.3535H35.6035C34.8003 68.4164 33.985 68.9994 33.1416 69.0977C32.2849 69.1973 31.5583 68.7801 30.9795 68.2178C30.4008 67.6554 29.907 66.89 29.4932 66.1357C29.0774 65.3781 28.721 64.5929 28.4365 63.9873C27.1333 61.2113 26.1266 58.1678 25.1133 55.1602C24.1163 52.2009 23.1119 49.2732 21.8086 46.5967L2.16797 38.0488L2.11719 38.0264L2.07227 37.9932C0.784468 37.0513 0.333529 35.7458 0.552734 34.4707C0.76718 33.2235 1.61064 32.0565 2.80469 31.2891L3.2373 31.0244C4.29396 30.4105 5.66301 29.8228 7.16113 29.248C8.87745 28.5896 10.8048 27.9329 12.6787 27.2695C14.5605 26.6034 16.3929 25.9285 17.9492 25.2246C19.5175 24.5154 20.7515 23.8003 21.4766 23.0723C21.8078 22.7303 22.1714 22.1649 22.5615 21.3965C22.9494 20.6325 23.3467 19.7001 23.7529 18.6543C24.5663 16.5603 25.3989 14.0541 26.249 11.5898C27.0952 9.13689 27.9599 6.72421 28.8311 4.85645C29.2663 3.92324 29.7122 3.1065 30.1689 2.48242C30.6144 1.87378 31.1233 1.37406 31.709 1.19336L31.71 1.19238C32.1279 1.06461 32.7505 0.966047 33.3467 0.942383Z" fill="white" stroke="black"/>
<defs>
<filter id="filter0_d_1329_963" x="4.49048" y="8.04102" width="68.6703" height="71.917" filterUnits="userSpaceOnUse" color-interpolation-filters="sRGB">
<feFlood flood-opacity="0" result="BackgroundImageFix"/>
<feColorMatrix in="SourceAlpha" type="matrix" values="0 0 0 0 0 0 0 0 0 0 0 0 0 0 0 0 0 0 127 0" result="hardAlpha"/>
<feOffset dx="1" dy="1"/>
<feComposite in2="hardAlpha" operator="out"/>
<feColorMatrix type="matrix" values="0 0 0 0 0 0 0 0 0 0 0 0 0 0 0 0 0 0 0.17 0"/>
<feBlend mode="normal" in2="BackgroundImageFix" result="effect1_dropShadow_1329_963"/>
<feBlend mode="normal" in="SourceGraphic" in2="effect1_dropShadow_1329_963" result="shape"/>
</filter>
</defs>
</svg>
