<svg width="155" height="136" viewBox="0 0 155 136" fill="none" xmlns="http://www.w3.org/2000/svg">
<path d="M114.848 11.5171C114.986 11.6469 115.277 12.1086 115.537 13.2368C115.786 14.3148 115.922 15.5847 116.065 16.9058C116.179 17.9574 116.307 19.175 116.555 20.1411L116.669 20.5386C117.361 22.6937 118.472 24.298 119.896 25.4868C121.295 26.6538 122.901 27.3405 124.466 27.8208C125.996 28.2906 127.666 28.6098 129.104 28.9292C130.114 29.1533 131.052 29.3872 131.923 29.6792C131.81 30.1852 131.592 30.4048 131.417 30.5435C130.929 30.9286 130.081 31.1932 128.55 31.481C125.883 31.9822 121.31 32.4257 118.535 36.3413H118.534C116.557 39.1334 116.386 42.5639 116.082 44.813C115.823 46.7287 115.498 47.895 114.734 48.6509C113.787 47.8242 113.452 46.5101 113.169 44.3022C112.847 41.7939 112.631 38.0188 109.96 35.1499C108.732 33.8314 107.091 33.0711 105.552 32.5679C104.009 32.0636 102.33 31.7465 100.936 31.4644C99.4444 31.1626 98.3378 30.9102 97.582 30.5669C97.2239 30.4042 97.0704 30.2734 97.0166 30.2144C96.9934 30.1889 97.0038 30.2031 97.0029 30.1929C96.9895 30.0384 96.9859 29.9818 97.2109 29.812C97.5562 29.5515 98.1968 29.2843 99.2021 29.0386C100.184 28.7987 101.246 28.6373 102.378 28.4409C103.416 28.2609 104.62 28.0361 105.562 27.646L105.565 27.645C110.875 25.4331 112.411 21.0511 113.069 17.4976C113.232 16.618 113.347 15.7627 113.448 15.0073C113.552 14.2296 113.639 13.5819 113.75 13.0181C113.939 12.0553 114.125 11.7925 114.151 11.7515C114.558 11.5478 114.776 11.5198 114.848 11.5171Z" fill="white" stroke="black" stroke-width="4" stroke-linejoin="round"/>
<path d="M142.315 1.6369C142.396 1.81068 142.477 2.05502 142.551 2.37616C142.702 3.03016 142.785 3.80556 142.875 4.633C142.945 5.27889 143.026 6.05957 143.188 6.68768L143.262 6.94647C143.707 8.33228 144.425 9.37329 145.352 10.1467C146.259 10.9038 147.295 11.345 148.287 11.6496C149.254 11.9463 150.312 12.1483 151.197 12.3449C151.729 12.4631 152.223 12.5848 152.684 12.7267C152.63 12.8279 152.573 12.8751 152.536 12.9045C152.288 13.1005 151.82 13.2572 150.86 13.4377C149.236 13.743 146.26 14.028 144.459 16.5695V16.5705C143.182 18.3743 143.07 20.593 142.886 21.9611C142.749 22.9766 142.585 23.5995 142.283 24.0139C141.9 23.5548 141.728 22.8439 141.574 21.6447C141.378 20.1114 141.24 17.6612 139.508 15.801C138.7 14.9337 137.631 14.4433 136.654 14.1242C135.676 13.8043 134.612 13.6035 133.749 13.4289C132.814 13.2396 132.154 13.0867 131.714 12.8869C131.657 12.8611 131.612 12.8384 131.575 12.8185C131.761 12.6952 132.109 12.5514 132.679 12.4123C133.279 12.2655 133.928 12.1668 134.641 12.0432C135.283 11.9318 136.062 11.7881 136.679 11.5324L136.682 11.5314C140.107 10.1041 141.092 7.26718 141.509 5.01971C141.612 4.46468 141.684 3.92615 141.747 3.45624C141.812 2.96941 141.865 2.5738 141.933 2.23163C142.01 1.836 142.084 1.6563 142.115 1.58905C142.174 1.56195 142.222 1.54337 142.261 1.53046C142.277 1.55859 142.295 1.59353 142.315 1.6369Z" fill="white" stroke="black" stroke-width="3" stroke-linejoin="round"/>
<path d="M32.9056 44.5077C48.7417 43.7707 63.7128 54.6626 67.8232 69.9347C71.8817 85.0165 65.5362 95.4482 56.9867 106.994C49.8177 116.678 41.8322 125.823 34.5006 135.39L33.6702 134.881C24.9374 121.858 11.8277 109.686 4.42346 95.9672C-7.94925 73.0382 6.93536 45.7186 32.9021 44.5077H32.9056ZM32.5596 53.5069C18.5434 54.5899 7.77959 66.8311 8.74145 80.9234C9.22238 87.9678 14.2358 95.2268 18.2978 100.776C23.3285 107.644 29.1239 114.028 34.2204 120.858C34.6944 120.958 35.0888 120.304 35.3829 119.996C40.0434 115.159 46.6381 106.063 50.7588 100.431C57.2047 91.6181 62.2562 83.5253 59.0903 72.0902C55.9141 60.624 44.479 52.5866 32.5561 53.5069H32.5596Z" fill="black"/>
<path d="M57.544 123.986H48.2021V132.981H57.544V123.986Z" fill="black"/>
<path d="M94.565 123.986H85.2231V132.981H94.565V123.986Z" fill="black"/>
<path d="M131.586 123.986H122.245V132.981H131.586V123.986Z" fill="black"/>
<path d="M116.016 59.977V69.3188H107.539L107.021 68.7998V59.977H116.016Z" fill="black"/>
<path d="M116.016 94.9219V104.264H107.539L107.021 103.745V95.4409L107.539 94.9219H116.016Z" fill="black"/>
<path d="M152 110.142L143.011 111.869C143.115 109.658 141.361 108.257 140.285 106.572L145.945 99.7695C149.031 102.534 151.093 106.07 152 110.139V110.142Z" fill="black"/>
<path d="M142.315 130.559L138.489 123.11L142.821 118.418L150.592 122.117C148.872 125.639 146.031 129.134 142.315 130.559Z" fill="black"/>
<path d="M134.7 95.2684L134.354 104.264H125.358V95.2684H134.7Z" fill="black"/>
<path d="M116.016 77.6227H107.021V86.6185H116.016V77.6227Z" fill="black"/>
<path d="M75.8816 123.986H66.8857V132.981H75.8816V123.986Z" fill="black"/>
<path d="M112.903 123.986H103.907V132.981H112.903V123.986Z" fill="black"/>
<path d="M32.5595 53.5069C44.4825 52.5865 55.921 60.6239 59.0937 72.0901C62.2596 83.5252 57.2081 91.618 50.7622 100.43C46.6415 106.063 40.0468 115.159 35.3863 119.996C35.0922 120.301 34.6978 120.955 34.2238 120.858C29.1238 114.028 23.3319 107.648 18.3012 100.776C14.2358 95.2267 9.22578 87.9712 8.74485 80.9233C7.78299 66.8311 18.5434 54.5898 32.563 53.5069H32.5595ZM31.5077 63.1808C12.8518 65.6858 14.2012 95.673 34.5317 95.545C56.8759 95.4031 55.4781 59.9631 31.5077 63.1808Z" fill="#4E8CFF"/>
<path d="M31.5079 63.1808C55.4783 59.9631 56.8761 95.4031 34.5319 95.545C14.2014 95.673 12.852 65.6858 31.5079 63.1808ZM33.9472 71.8168C24.5846 72.3358 25.0102 87.0059 34.8606 86.6253C44.1297 86.2689 43.7526 71.2736 33.9472 71.8168Z" fill="black"/>
</svg>
