<svg width="157" height="154" viewBox="0 0 157 154" fill="none" xmlns="http://www.w3.org/2000/svg">
<path d="M95.5607 124.401C95.2967 124.624 96.3057 125.828 96.5132 126.117C102.124 133.915 109.108 141.205 114.807 148.997C116.071 153.832 110.781 154.671 108.76 150.647H6.29012C4.26896 154.897 -1.48334 153.825 0.358654 148.802L19.4858 124.866C19.7624 124.159 17.8859 124.391 17.2729 124.259C11.6558 123.049 7.70462 119.214 6.12981 113.716C5.04536 87.9945 5.96007 62.04 5.6646 36.2364C6.68618 25.0336 15.6667 16.0405 26.8821 15.0158L87.869 15.0001C99.3642 15.4056 108.508 25.1216 109.401 36.5319L109.385 111.349C108.574 118.413 102.878 124.432 95.5607 124.401ZM102.473 32.301C99.7728 24.8953 93.725 21.139 85.9862 20.6549H29.0636C21.3215 21.139 15.2769 24.8984 12.5768 32.301H102.476H102.473ZM11.7878 37.959L11.3163 38.4305V78.0364L11.7878 78.5079H54.2228L54.6943 78.0364V38.4305L54.2228 37.959H11.7878ZM60.8238 37.959L60.3523 38.4305V78.0364L60.8238 78.5079H103.259L103.73 78.0364V38.4305L103.259 37.959H60.8238ZM103.73 84.1659H11.3163V110.727C11.3163 114.521 15.4875 118.692 19.3349 118.739L95.0987 118.755C99.1881 119.01 103.73 114.754 103.73 110.727V84.1659ZM92.0999 130.373C92.1314 129.776 91.6127 129.298 91.2827 128.833C90.6603 127.956 88.0576 124.567 87.2215 124.407L27.3536 124.564L22.9466 130.373H92.0999ZM103.73 144.518L97.453 136.493L96.6515 136.037L18.9986 136.012L17.735 136.32L11.3132 144.515H103.727L103.73 144.518Z" fill="black"/>
<path d="M103.73 84.1657V110.727C103.73 114.753 99.1914 119.01 95.0988 118.755L19.335 118.739C15.4876 118.692 11.3164 114.521 11.3164 110.727V84.1657H103.73ZM27.9132 89.9023C11.6025 91.1565 15.4342 116.545 31.4432 112.625C45.2424 109.246 41.5458 88.8556 27.9132 89.9023ZM85.7568 89.9054C72.4668 90.6913 70.8102 109.778 83.8582 112.682C100.848 116.463 102.706 88.9027 85.7568 89.9054ZM46.9241 93.3694C45.1198 94.8279 45.9434 98.2258 48.5963 98.5936C51.8402 99.0462 63.2097 99.0462 66.4567 98.5936C67.9655 98.383 68.9494 97.4149 69.0908 95.8746C69.3235 93.3757 67.1986 92.8319 65.2214 92.6559C61.2074 92.2975 54.1757 92.3384 50.1271 92.6401C49.4042 92.6936 47.4144 92.9702 46.9241 93.3694ZM68.1258 109.536C69.9301 108.077 69.1066 104.679 66.4536 104.311C63.2097 103.859 51.8402 103.859 48.5932 104.311C46.7166 104.572 45.6164 106.185 46.0942 107.986C46.6034 109.903 48.0179 110.095 49.8254 110.249C53.8834 110.595 60.8365 110.57 64.9196 110.265C65.6426 110.211 67.6323 109.935 68.1227 109.536H68.1258Z" fill="#4E8CFF"/>
<path d="M102.473 32.301H12.5735C15.2736 24.8984 21.3214 21.139 29.0603 20.6549H85.986C93.7249 21.139 99.7726 24.8953 102.473 32.301Z" fill="#4E8CFF"/>
<path d="M85.7565 89.9051C102.705 88.9024 100.848 116.463 83.8579 112.682C70.8131 109.777 72.4696 90.6909 85.7565 89.9051ZM84.7852 95.868C78.3194 97.1976 79.5924 108.727 87.7871 107.043C94.5578 105.65 92.9799 94.1832 84.7852 95.868Z" fill="black"/>
<path d="M27.913 89.9022C41.5488 88.8524 45.2422 109.243 31.443 112.625C15.434 116.548 11.6023 91.1596 27.913 89.9022ZM27.2624 95.8683C21.4849 97.0565 21.6578 106.153 27.5232 107.093C36.8432 108.586 36.5163 93.9666 27.2624 95.8683Z" fill="black"/>
<path d="M46.9237 93.3693C47.4141 92.9701 49.4038 92.6935 50.1268 92.6401C54.1754 92.3383 61.207 92.3006 65.2211 92.6558C67.1982 92.8318 69.3231 93.3756 69.0905 95.8745C68.9459 97.4148 67.9652 98.3829 66.4564 98.5935C63.2125 99.0462 51.843 99.0462 48.596 98.5935C45.943 98.2226 45.1194 94.8278 46.9237 93.3693Z" fill="black"/>
<path d="M68.1255 109.535C67.6352 109.935 65.6454 110.211 64.9225 110.265C60.8393 110.57 53.8862 110.595 49.8282 110.249C48.0208 110.095 46.6063 109.903 46.0971 107.986C45.6193 106.185 46.7194 104.572 48.596 104.311C51.8399 103.859 63.2093 103.859 66.4564 104.311C69.1094 104.682 69.9329 108.077 68.1287 109.535H68.1255Z" fill="black"/>
<path d="M84.7854 95.8682C92.9801 94.1834 94.558 105.65 87.7873 107.043C79.5926 108.728 78.3196 97.1978 84.7854 95.8682Z" fill="white"/>
<path d="M27.2623 95.8686C36.5194 93.9669 36.8432 108.586 27.5232 107.093C21.6577 106.154 21.4817 97.0567 27.2623 95.8686Z" fill="white"/>
<path d="M141.779 54.5008C141.88 54.5981 142.096 54.9393 142.288 55.7733C142.473 56.5756 142.575 57.5213 142.682 58.5057C142.766 59.2886 142.862 60.1961 143.047 60.9168L143.132 61.2137C143.648 62.8208 144.476 64.0173 145.539 64.9041C146.582 65.7747 147.78 66.2873 148.946 66.6453C150.087 66.9954 151.331 67.2327 152.402 67.4705C153.151 67.6368 153.847 67.8101 154.493 68.0262C154.409 68.3949 154.249 68.5543 154.121 68.6551C153.76 68.9403 153.131 69.137 151.99 69.3514C150.005 69.7245 146.593 70.0555 144.523 72.9764H144.522C143.048 75.0586 142.92 77.6168 142.694 79.2908C142.502 80.7122 142.261 81.5767 141.699 82.1375C141.002 81.524 140.755 80.5495 140.545 78.9109C140.305 77.0437 140.144 74.2276 138.151 72.0877C137.235 71.1037 136.011 70.537 134.863 70.1619C133.713 69.7861 132.462 69.5498 131.424 69.3397C130.313 69.1148 129.49 68.9269 128.928 68.6717C128.662 68.5509 128.549 68.4546 128.51 68.4119C128.493 68.3941 128.502 68.4066 128.502 68.4012C128.492 68.2902 128.488 68.2515 128.653 68.1268C128.909 67.9341 129.384 67.7355 130.132 67.5526C130.862 67.374 131.653 67.2536 132.497 67.1072C133.27 66.9732 134.17 66.8056 134.872 66.5145L134.874 66.5135C138.834 64.8639 139.979 61.5955 140.47 58.9471C140.591 58.2916 140.677 57.6543 140.752 57.0916C140.83 56.5121 140.894 56.0298 140.977 55.6102C141.115 54.9046 141.252 54.7068 141.273 54.6736C141.563 54.5287 141.722 54.504 141.779 54.5008Z" fill="white" stroke="black" stroke-width="3" stroke-linejoin="round"/>
<path d="M33.7793 1.50079C33.8804 1.59809 34.0956 1.93929 34.2881 2.77325C34.4733 3.5756 34.575 4.5213 34.6816 5.50568C34.7664 6.28863 34.8619 7.1961 35.0469 7.91681L35.1318 8.21368C35.6481 9.82079 36.4763 11.0173 37.5391 11.9041C38.5824 12.7747 39.7801 13.2873 40.9463 13.6453C42.0869 13.9954 43.3314 14.2327 44.4023 14.4705C45.151 14.6368 45.8469 14.8101 46.4932 15.0262C46.4087 15.3949 46.2487 15.5543 46.1211 15.6551C45.7601 15.9403 45.131 16.137 43.9902 16.3514C42.0049 16.7245 38.5934 17.0555 36.5234 19.9764H36.5225C35.048 22.0586 34.9203 24.6168 34.6943 26.2908C34.5024 27.7122 34.2606 28.5767 33.6992 29.1375C33.0023 28.524 32.7551 27.5495 32.5449 25.9109C32.3054 24.0437 32.1437 21.2276 30.1514 19.0877C29.2352 18.1037 28.0108 17.537 26.8633 17.1619C25.7135 16.7861 24.4621 16.5498 23.4238 16.3397C22.3128 16.1148 21.4895 15.9269 20.9277 15.6717C20.6618 15.5509 20.5486 15.4546 20.5098 15.4119C20.4935 15.3941 20.5024 15.4066 20.502 15.4012C20.4923 15.2902 20.488 15.2515 20.6533 15.1268C20.9088 14.9341 21.3835 14.7355 22.1318 14.5526C22.8625 14.374 23.6534 14.2536 24.4971 14.1072C25.2702 13.9732 26.1697 13.8056 26.8721 13.5145L26.874 13.5135C30.8337 11.8639 31.9787 8.59549 32.4697 5.94708C32.5912 5.29162 32.6766 4.65426 32.752 4.09161C32.8296 3.51211 32.894 3.02982 32.9766 2.61017C33.1153 1.90458 33.252 1.70675 33.2734 1.67365C33.5632 1.52874 33.7225 1.50403 33.7793 1.50079Z" fill="white" stroke="black" stroke-width="3" stroke-linejoin="round"/>
<path d="M126.821 34.0018C126.888 34.0675 127.031 34.2932 127.158 34.8436C127.281 35.3766 127.349 36.0056 127.42 36.66C127.484 37.2545 127.557 37.9574 127.719 38.4598C128.062 39.5283 128.613 40.3241 129.319 40.9139C130.013 41.4928 130.81 41.8341 131.585 42.0721C132.343 42.3049 133.171 42.4628 133.883 42.6209C134.379 42.7311 134.84 42.8451 135.269 42.9881C135.212 43.231 135.107 43.3358 135.023 43.4022C134.784 43.5912 134.367 43.7225 133.608 43.8651C132.331 44.1052 130.161 44.3185 128.775 46.0975L128.644 46.2752C127.663 47.66 127.578 49.3612 127.428 50.4734C127.3 51.4162 127.14 51.9891 126.77 52.3611C126.309 51.9541 126.144 51.3077 126.005 50.2205C125.846 48.9799 125.739 47.1074 124.414 45.6844C123.805 45.0299 122.99 44.6525 122.228 44.4031C121.463 44.1532 120.63 43.9959 119.94 43.8563C119.202 43.7068 118.655 43.5823 118.282 43.4129C118.106 43.3328 118.031 43.269 118.006 43.241C117.996 43.2301 118.002 43.238 118.002 43.2361C117.996 43.1636 117.992 43.1388 118.101 43.0565C118.27 42.9287 118.585 42.7962 119.083 42.6746C119.568 42.556 120.094 42.476 120.654 42.3787C121.168 42.2896 121.765 42.1787 122.232 41.9852L122.234 41.9842C124.868 40.8872 125.629 38.7136 125.955 36.9529C126.036 36.5172 126.093 36.0935 126.144 35.7195C126.195 35.3345 126.238 35.0139 126.293 34.7352C126.384 34.2721 126.473 34.1388 126.488 34.1151C126.678 34.0204 126.783 34.0043 126.821 34.0018Z" fill="white" stroke="black" stroke-width="2" stroke-linejoin="round"/>
</svg>
