<svg width="93" height="124" viewBox="0 0 93 124" fill="none" xmlns="http://www.w3.org/2000/svg">
<path d="M41.7763 16.1193C41.6168 15.6356 40.1224 15.9876 39.8058 14.544C39.5627 13.4447 39.6361 9.5164 39.778 8.29307C40.2516 4.2381 43.9292 0.692221 47.9842 0.28951C52.0391 -0.113201 60.3517 -0.0752093 64.4548 0.276846C67.95 0.578246 71.3211 3.11862 72.4685 6.44668C73.0586 8.15883 73.8818 14.2274 72.4507 15.3798C71.7694 15.9294 70.9057 15.3975 70.9057 16.8741V35.49H78.1241C81.1736 35.49 85.8618 38.1697 87.8677 40.4365C92.7889 46.001 91.5808 50.7347 91.6644 57.3858C91.8264 70.3587 92.7281 84.9804 91.9379 97.933C91.5681 104.007 88.6833 109.72 82.8123 111.99C87.4093 126.135 65.5464 128.091 67.484 113.244H45.0715C47.5131 127.931 25.0752 126.247 29.8723 111.987C25.1613 110.062 21.4027 105.091 21 99.9567L21.0405 48.8174C21.3267 42.6831 28.1095 35.49 34.3072 35.49H41.7789V16.1193H41.7763ZM68.3704 10.9272C68.5756 8.45264 67.4865 5.75777 64.8398 5.21322C62.0157 4.63321 52.1936 4.85357 48.9846 5.09165C45.7756 5.32973 44.1825 7.75106 44.5624 10.9272H68.3704ZM66.3442 15.7394H46.3353V35.4951H66.3442V15.7394ZM33.8614 40.3732C29.1201 41.29 25.9262 45.3146 25.5691 50.0636C26.4531 65.8909 24.3813 83.0251 25.5565 98.6979C25.9921 104.5 29.7659 108.267 35.5609 108.702C49.0884 107.922 63.7203 109.705 77.1186 108.702C82.6654 108.287 86.5431 104.759 87.1231 99.2044V49.5443C86.5659 44.9119 83.0757 40.9278 78.3724 40.3124L33.864 40.3757L33.8614 40.3732ZM34.5985 113.292C33.1269 114.816 33.446 117.043 35.067 118.314C38.3419 120.885 42.5412 116.584 40.0059 113.375L34.5985 113.292ZM72.8433 113.292C71.2933 114.743 71.7289 117.073 73.3119 118.314C76.5842 120.885 80.6417 116.711 78.2533 113.373L72.8433 113.292Z" fill="black"/>
<path d="M33.8612 40.3733L78.3696 40.3099C83.073 40.9279 86.5631 44.912 87.1203 49.5419V99.202C86.5403 104.756 82.6627 108.284 77.1159 108.7C63.7175 109.703 49.0857 107.92 35.5582 108.7C29.7632 108.264 25.9894 104.498 25.5537 98.6954C24.3785 83.0201 26.4503 65.8859 25.5664 50.0611C25.9235 45.3122 29.1173 41.2876 33.8587 40.3707L33.8612 40.3733Z" fill="#4E8CFF"/>
<path d="M68.3703 10.9272H44.5622C44.1823 7.75106 45.6766 5.3348 48.9844 5.09165C52.2922 4.84851 62.0156 4.63322 64.8396 5.21322C67.4863 5.75777 68.5754 8.45264 68.3703 10.9272Z" fill="#4E8CFF"/>
<path d="M34.5985 113.292L40.0059 113.375C42.5413 116.584 38.3419 120.887 35.067 118.314C33.4486 117.043 33.1295 114.814 34.5985 113.292Z" fill="white" fill-opacity="0.27"/>
<path d="M72.8432 113.292L78.2532 113.373C80.6391 116.711 76.5841 120.885 73.3117 118.314C71.7288 117.07 71.2931 114.743 72.8432 113.292Z" fill="white" fill-opacity="0.27"/>
<path d="M49.7417 63.0743C49.8627 63.0763 49.9435 63.1099 50.0259 63.1788C50.2563 63.3716 50.5086 63.8525 50.7124 64.7354C50.9057 65.5727 51.01 66.5505 51.1157 67.5264C51.215 68.4425 51.321 69.4394 51.5444 70.1348C52.0335 71.6574 52.8106 72.7722 53.7964 73.5948C54.7691 74.4065 55.8973 74.8936 57.0298 75.2413C58.1453 75.5837 59.3554 75.8151 60.4478 76.0577C61.3465 76.2573 62.1938 76.4706 62.979 76.7647C62.9288 77.5236 62.6641 77.8886 62.3687 78.1221C61.8979 78.4941 61.1479 78.7049 60.019 78.9171C58.0236 79.2921 54.9926 79.5993 53.0522 82.0919L52.8677 82.3399C51.4825 84.296 51.3614 86.6929 51.1265 88.4327C50.9046 90.0761 50.6018 91.1719 49.6558 91.8497C48.5222 91.1221 48.2228 89.8965 47.9858 88.0489C47.7388 86.1229 47.5812 83.4997 45.7222 81.503C44.8899 80.6092 43.7591 80.0752 42.645 79.711C41.5294 79.3463 40.3115 79.1159 39.2612 78.9034C38.1625 78.6811 37.2807 78.4843 36.6577 78.2012C36.0496 77.925 35.9563 77.696 35.9409 77.5186C35.9142 77.2093 36.009 77.0128 36.2886 76.8018C36.6284 76.5454 37.1863 76.3285 37.9507 76.1417C38.7031 75.9578 39.5197 75.8324 40.3491 75.6885C41.1312 75.5529 41.9742 75.3933 42.6167 75.127L42.6187 75.126C46.3468 73.5729 47.4366 70.5138 47.9155 67.9307C48.0344 67.2893 48.1183 66.6636 48.1938 66.0997C48.2709 65.5246 48.3373 65.0256 48.4233 64.588C48.5899 63.7411 48.777 63.4514 48.8999 63.3516L48.9487 63.3194C49.3448 63.1158 49.5982 63.0718 49.7417 63.0743Z" fill="black" stroke="black" stroke-width="2" stroke-linejoin="round"/>
<path d="M48.8047 61.2C48.9257 61.2021 49.0065 61.2356 49.0889 61.3045C49.3192 61.4973 49.5716 61.9782 49.7754 62.8611C49.9687 63.6984 50.073 64.6762 50.1787 65.6522C50.2779 66.5683 50.384 67.5652 50.6074 68.2606C51.0965 69.7831 51.8736 70.8979 52.8594 71.7205C53.8321 72.5322 54.9603 73.0193 56.0928 73.367C57.2083 73.7094 58.4184 73.9408 59.5107 74.1834C60.4095 74.383 61.2568 74.5963 62.042 74.8904C61.9918 75.6494 61.7271 76.0144 61.4316 76.2479C60.9609 76.6198 60.2109 76.8306 59.082 77.0428C57.0866 77.4178 54.0556 77.7251 52.1152 80.2176L51.9307 80.4656C50.5455 82.4217 50.4244 84.8186 50.1895 86.5584C49.9675 88.2019 49.6648 89.2976 48.7188 89.9754C47.5852 89.2479 47.2858 88.0222 47.0488 86.1746C46.8018 84.2486 46.6442 81.6255 44.7852 79.6287C43.9529 78.7349 42.8221 78.2009 41.708 77.8367C40.5924 77.4721 39.3745 77.2416 38.3242 77.0291C37.2255 76.8068 36.3437 76.61 35.7207 76.327C35.1126 76.0507 35.0193 75.8217 35.0039 75.6443C34.9772 75.3351 35.072 75.1385 35.3516 74.9276C35.6913 74.6712 36.2493 74.4542 37.0137 74.2674C37.7661 74.0835 38.5827 73.9581 39.4121 73.8143C40.1942 73.6786 41.0372 73.519 41.6797 73.2527L41.6816 73.2518C45.4098 71.6986 46.4996 68.6396 46.9785 66.0565C47.0974 65.4151 47.1813 64.7894 47.2568 64.2254C47.3339 63.6503 47.4002 63.1514 47.4863 62.7137C47.6529 61.8668 47.84 61.5772 47.9629 61.4774L48.0117 61.4451C48.4078 61.2415 48.6612 61.1976 48.8047 61.2Z" fill="white" stroke="black" stroke-width="2" stroke-linejoin="round"/>
<path d="M71.1924 53.001C71.2641 53.0601 71.4195 53.292 71.5576 53.8818C71.6852 54.4271 71.7547 55.0699 71.8281 55.7383C71.8866 56.2704 71.9519 56.8863 72.0791 57.375L72.1377 57.5762C72.4927 58.666 73.062 59.4748 73.7891 60.0732C74.5028 60.6607 75.3225 61.0069 76.1221 61.249C76.9051 61.4861 77.759 61.6467 78.498 61.8086C79.0216 61.9233 79.509 62.0437 79.9619 62.1943C79.904 62.4537 79.7906 62.5671 79.6963 62.6406C79.44 62.8404 78.9972 62.9755 78.2119 63.1211C76.8844 63.3672 74.6558 63.5842 73.2295 65.3906L73.0938 65.5703C72.0811 66.9809 71.9927 68.7151 71.8369 69.8535C71.7023 70.8367 71.532 71.4333 71.1201 71.8193C70.6113 71.3976 70.4388 70.7249 70.292 69.5957C70.1371 68.4049 70.0296 66.6536 68.8906 65.2461L68.6484 64.9688C68.0224 64.3057 67.1857 63.9235 66.3994 63.6699C65.6107 63.4156 64.7519 63.2562 64.0361 63.1133C63.2722 62.9608 62.7004 62.8318 62.3086 62.6562C62.1225 62.5728 62.0407 62.5051 62.0107 62.4727C61.9967 62.4574 62.002 62.4628 62.002 62.459C61.9953 62.383 61.9917 62.3512 62.1133 62.2607C62.2951 62.1256 62.6284 61.9889 63.1455 61.8643C63.6505 61.7425 64.1977 61.6607 64.7773 61.5615C65.3102 61.4704 65.924 61.3577 66.4023 61.1621L66.4033 61.1611C69.1133 60.0475 69.9017 57.8383 70.2402 56.0371C70.3238 55.5924 70.3827 55.1602 70.4346 54.7783C70.488 54.3848 70.533 54.0567 70.5898 53.7715C70.7216 53.1109 70.8498 53.1 70.7832 53.1338V53.1328C71.0259 53.0098 71.1512 52.9995 71.1865 53C71.1994 53.0002 71.1886 52.9978 71.1924 53.001Z" fill="white" stroke="black" stroke-width="2" stroke-linejoin="round"/>
<path d="M10.5117 2.00781C10.5214 2.01299 10.5698 2.04174 10.6416 2.14941C10.8014 2.38907 10.949 2.8143 11.0713 3.43457C11.1899 4.03641 11.2635 4.69885 11.3438 5.36621C11.419 5.99245 11.5047 6.6788 11.6602 7.19629C12.1015 8.66834 12.7787 9.70685 13.6309 10.4268C14.4765 11.1411 15.4205 11.4788 16.2842 11.6738C16.7136 11.7708 17.1356 11.8343 17.5176 11.8887C17.9125 11.9449 18.2473 11.9883 18.5645 12.0469C19.1344 12.1522 19.4566 12.2785 19.6523 12.4365L19.7295 12.5068C19.9088 12.6927 19.9679 12.8118 19.9883 12.8623C19.9443 12.9189 19.8387 13.0211 19.6191 13.1494C19.3921 13.282 19.0967 13.4133 18.7451 13.54C18.0386 13.7948 17.2126 13.9961 16.4512 14.1768C16.0814 14.2645 15.7166 14.3496 15.4141 14.4307C15.1379 14.5046 14.8092 14.6006 14.5625 14.7314C12.1141 16.0278 11.544 18.7452 11.2266 20.7168C11.0524 21.7986 10.9575 22.642 10.7676 23.3047C10.6766 23.6221 10.586 23.8088 10.5107 23.9111C10.4726 23.963 10.4461 23.9802 10.4297 23.9883C10.422 23.98 10.4116 23.9709 10.4014 23.958C10.3641 23.9108 10.3177 23.8392 10.2656 23.7363C10.0388 23.2876 9.85688 22.5625 9.67578 21.6182C9.50702 20.7381 9.3375 19.6595 9.12305 18.7402C8.9265 17.8977 8.65029 16.9769 8.16602 16.3086L8.06641 16.1777C7.46081 15.4305 6.60273 14.9732 5.78027 14.6592C4.95351 14.3435 4.04508 14.131 3.27148 13.9463C2.45245 13.7508 1.81718 13.5926 1.37207 13.3906C1.15749 13.2932 1.05395 13.2137 1.01074 13.1689C1.00746 13.1655 1.00414 13.1627 1.00195 13.1602C0.991195 12.9981 1.02162 12.9086 1.05176 12.8516C1.08711 12.7847 1.15909 12.6951 1.31445 12.5879C1.65874 12.3504 2.21184 12.1566 3.00195 11.9395C3.72875 11.7397 4.65315 11.5202 5.47949 11.2148C6.31441 10.9063 7.19994 10.4607 7.84863 9.71191C8.4802 8.98277 8.84448 8.04355 9.08984 7.15039C9.33634 6.25298 9.49232 5.28017 9.63867 4.45605C9.79313 3.58634 9.93301 2.90867 10.1299 2.4375C10.225 2.20996 10.3087 2.09348 10.3623 2.04004C10.3996 2.00292 10.4115 2.00445 10.4248 2.00293C10.4657 1.99818 10.4879 2.00051 10.4961 2.00195C10.5034 2.00325 10.5072 2.00541 10.5117 2.00781Z" fill="white" stroke="black" stroke-width="2" stroke-linejoin="round"/>
</svg>
