<svg width="136" height="136" viewBox="0 0 136 136" fill="none" xmlns="http://www.w3.org/2000/svg">
<path d="M116.223 38.6592V96.6217H123.907C126.59 96.6217 126.094 105.799 125.905 107.841C125.804 108.939 125.26 111.112 123.907 111.112H116.223V115.943H128.737C128.975 115.943 130.033 116.772 130.23 117.084C130.929 118.195 130.946 126.341 130.687 127.987C130.564 128.769 130.27 129.502 129.572 129.946C127.565 131.219 116.71 129.924 116.223 130.429C116.249 131.895 116.491 133.893 115.081 134.776C113.834 135.562 104.125 135.562 102.878 134.776C102.562 134.578 101.737 133.525 101.737 133.283V38.6592H88.3437C85.9725 38.6592 82.9163 34.9488 82.5211 32.6259C81.7351 28.0196 81.8844 11.733 82.4157 6.82377C82.8768 2.49414 85.0724 0 90.0782 0L128.737 0.0175644C132.422 0.452283 135.14 3.11329 135.544 6.82377C136.11 12.0755 136.207 27.1546 135.504 32.2526C135.166 34.7116 132.189 38.6592 129.616 38.6592H116.223ZM130.169 5.39227L87.9705 5.25175C87.2899 5.68647 87.2811 6.94233 87.2196 7.68442C86.719 13.81 86.7059 24.8756 87.2196 30.9968C87.4216 33.4294 87.6192 33.6446 90.0738 33.851H127.877C130.309 33.649 130.525 33.4514 130.731 30.9968C131.24 24.8624 131.232 13.8276 130.731 7.68442C130.665 6.88085 130.665 6.07289 130.169 5.39227ZM111.393 38.6592H106.562V130.433H111.393V38.6592ZM121.057 101.452H116.223V106.287H121.057V101.452ZM125.883 120.773H116.223V125.603H125.883V120.773Z" fill="black"/>
<path d="M72.7948 43.8891C90.447 47.7445 97.8109 65.8182 87.8519 81.2046C76.1716 99.2477 60.166 116.145 48.1608 134.161C46.9356 135.54 45.4471 135.549 44.2132 134.161L3.45938 79.6326C-5.14278 64.8961 3.06857 47.0682 19.5747 43.8891C18.7667 31.9629 21.3795 20.2035 32.2211 13.7178C49.8162 3.19677 71.2272 14.6795 72.7465 34.9356C72.9661 37.8733 72.5577 40.9427 72.7948 43.8891ZM67.8988 43.4675C68.0612 37.2497 68.3686 31.6555 65.4529 25.9822C57.5358 10.5826 34.443 10.7539 26.7761 26.272C24.0053 31.8838 24.3259 37.3595 24.4752 43.4675C34.1444 43.832 40.2656 49.8478 46.1892 56.654C52.0908 49.7863 58.1812 43.7793 67.9031 43.4675H67.8988ZM20.8393 48.4427C6.31798 50.1727 -0.391613 68.589 9.15903 79.637L46.1848 128.668L84.9626 76.998C95.9491 57.2951 71.4468 38.8305 55.6212 53.3651C53.7199 55.1127 48.1652 62.7796 46.1848 62.7796C44.2044 62.7796 38.7989 55.2752 36.9854 53.5671C32.5768 49.4175 26.8552 47.7225 20.8393 48.4427Z" fill="black"/>
<path d="M130.169 5.39222C130.665 6.07284 130.665 6.88081 130.731 7.68438C131.232 13.8231 131.24 24.8624 130.731 30.9967C130.529 33.4513 130.318 33.8509 127.877 33.8509H90.0738C87.6104 33.8509 87.4259 33.4294 87.2196 30.9967C86.7058 24.8799 86.719 13.8144 87.2196 7.68438C87.281 6.94667 87.2854 5.68643 87.9704 5.25171L130.169 5.39222ZM94.1399 9.77454C92.6601 10.1434 92.2298 11.1007 92.0629 12.5278C91.8346 14.4906 91.8434 26.3729 92.3967 27.5804C92.9499 28.788 94.1268 28.9109 95.3431 29.0251H122.607C124.737 28.8275 125.62 28.4367 125.888 26.1577C126.12 24.1993 126.107 12.3126 125.554 11.105C125.001 9.89749 123.824 9.77454 122.607 9.66037C122.607 9.66037 103.273 10.24 94.1399 9.77454Z" fill="white"/>
<path d="M111.393 38.6592H106.562V130.433H111.393V38.6592Z" fill="white"/>
<path d="M125.883 120.773H116.223V125.603H125.883V120.773Z" fill="white"/>
<path d="M121.057 101.452H116.223V106.287H121.057V101.452Z" fill="white"/>
<path d="M20.8394 48.4425C26.8552 47.7267 32.5724 49.4217 36.9854 53.5669C38.8034 55.275 44.1737 62.7794 46.1848 62.7794C48.1959 62.7794 53.7199 55.1082 55.6213 53.3649C71.4468 38.826 95.9447 57.2905 84.9626 76.9978L46.1848 128.668L9.16345 79.6368C-0.387192 68.5888 6.32241 50.1726 20.8438 48.4425H20.8394ZM44.9772 72.576C42.4699 72.9799 40.0987 75.0921 39.3523 77.4984C38.5531 80.0891 38.6014 89.7452 39.6025 92.2349C41.9825 98.1541 50.7164 97.9653 52.8988 91.9231C53.8692 89.2446 53.8165 79.167 52.6265 76.5719C51.3268 73.7396 48.0554 72.0842 44.9772 72.576Z" fill="#4E8CFF"/>
<path d="M94.14 9.77457L122.607 9.6604C123.824 9.77018 124.983 9.84483 125.554 11.1051C126.125 12.3653 126.116 24.1993 125.888 26.1578C125.62 28.4367 124.737 28.8275 122.607 29.0251H95.3431C94.1268 28.9154 92.9675 28.8407 92.3967 27.5805C91.8259 26.3202 91.8346 14.4906 92.063 12.5278C92.2298 11.1007 92.6602 10.1434 94.14 9.77457ZM121.053 14.5082H96.902V24.1686H121.053V14.5082Z" fill="black"/>
<path d="M44.9772 72.5761C48.0598 72.0799 51.3268 73.7397 52.6265 76.572C53.8165 79.1627 53.8648 89.2403 52.8988 91.9233C50.7164 97.9654 41.9825 98.1543 39.6025 92.235C38.6014 89.7497 38.5531 80.0893 39.3522 77.4985C40.0943 75.0922 42.4655 72.9801 44.9772 72.5761ZM48.0554 77.8454C47.2694 77.0594 44.9421 77.1165 44.1737 78.0342C43.4755 79.1364 43.493 90.4303 44.3142 91.2471C45.0211 91.954 47.0235 91.9277 47.871 91.3876C48.9644 90.685 48.9556 78.7456 48.0598 77.8498L48.0554 77.8454Z" fill="black"/>
</svg>
