<svg width="244" height="195" viewBox="0 0 244 195" fill="none" xmlns="http://www.w3.org/2000/svg">
<path d="M201.491 77.359C207.077 79.1775 210.533 84.268 211.106 90.0116C212.211 101.05 210.004 113.304 210.825 124.48C210.373 129.393 205.651 134.319 201.089 135.843C196.752 137.293 191.91 136.432 187.415 136.737C186.94 138.89 186.839 140.95 186.266 143.124C183.125 155.036 172.244 164.892 160.231 167.324C159.521 171.995 157.897 176.285 152.947 177.789C150.593 178.506 143.607 178.472 140.971 178.231C137.294 177.896 134.223 175.442 133.268 171.868C132.706 169.762 133.382 167.116 131.607 165.837C129.32 167.95 125.897 171.851 122.565 171.851C119.601 171.851 116.162 168.255 114.022 166.332C109.624 162.387 105.05 157.909 100.79 153.777C94.2725 147.454 87.9897 140.88 81.6634 134.369C77.9293 137.571 74.1416 140.896 68.9774 141.372C64.3356 141.801 59.081 141.673 57.2056 136.673C52.7012 136.429 47.6107 137.35 43.2871 135.927C38.3674 134.306 34.084 129.004 33.6386 123.806C32.6506 112.323 34.3285 99.3486 33.7391 87.7108C34.9213 82.8413 38.4009 78.6785 43.3239 77.3724C42.8986 56.8396 52.4266 34.8366 67.4703 20.975C111.523 -19.6117 187.01 1.35316 199.867 61.0627C201.066 66.6321 201.046 71.746 201.491 77.3556V77.359ZM195.409 76.4079C195.014 48.2259 178.755 24.3575 153.332 12.8235C134.601 4.32708 111.949 4.20986 92.9396 11.9494C67.1957 22.4318 49.5096 48.4872 49.3924 76.4079H57.0951C57.4166 69.7165 57.9625 63.5879 60.1963 57.2381C77.7283 7.36463 144.977 -1.55379 175.928 40.7978C183.4 51.0224 187.321 63.7553 187.707 76.4079H195.409ZM181.009 68.0353C177.676 47.0772 160.677 28.3395 140.408 22.3983C116.048 15.2583 91.1914 22.4687 75.384 42.2814C69.6304 49.4919 64.9921 58.8523 63.7965 68.0353H69.6572C70.7457 68.0353 74.6406 69.6898 75.7424 70.3227C77.4939 71.3308 78.4082 72.6905 80.0358 73.732C94.3729 63.2898 112.957 67.8311 122.24 82.4294C125.164 78.5814 128.225 74.7032 132.448 72.2149C142.736 66.1565 155.024 66.8263 164.726 73.6918C166.598 71.6958 172.144 68.032 174.82 68.032H181.015L181.009 68.0353ZM63.1233 74.0636V135.183C65.2332 136.302 69.5668 135.129 71.824 134.172C74.2621 133.133 75.7323 131.365 77.4738 129.439C70.1931 117.869 65.481 106.047 68.6492 92.1449C69.8515 86.8735 72.236 82.3624 75.1764 77.9049C75.1563 76.9772 70.7624 74.0636 69.6539 74.0636H63.1233ZM95.2068 74.164C86.3219 74.8137 78.934 81.1601 75.8429 89.2949C66.546 113.743 88.1371 133.177 103.807 148.422C108.991 153.465 115.227 159.825 120.726 164.323C121.105 164.631 122.103 165.498 122.511 165.438C123.067 165.117 123.586 164.731 124.082 164.323C129.173 160.157 135.14 153.817 139.997 149.091C154.856 134.624 176.507 115.632 170.057 92.2219C164.367 71.5719 138.814 67.3421 127.491 85.6779C126.048 88.0155 124.789 93.7625 120.944 91.7698C119.149 90.8388 118.874 88.5112 117.994 87.0175C112.903 78.3838 105.649 73.4005 95.2135 74.164H95.2068ZM181.678 74.0636H175.148C173.842 74.0636 169.28 76.5954 169.284 77.9082C169.284 78.4273 171.735 81.4716 172.237 82.3323C181.025 97.4698 176.849 115.698 167.057 129.151C169.401 133.271 174.193 135.374 178.838 135.675C179.763 135.736 181.059 135.94 181.682 135.18V74.0602L181.678 74.0636ZM57.43 82.4361H46.8806C46.6696 82.4361 44.5363 83.1997 44.1378 83.3772C41.9341 84.3517 40.35 86.0061 39.7606 88.3772C40.2462 99.5663 38.843 111.73 39.6668 122.805C39.8745 125.618 40.8557 127.688 43.2536 129.265C43.9268 129.707 46.1907 130.662 46.8806 130.662H57.0951L57.43 82.4361ZM198.256 82.4361C195.091 81.9873 190.982 82.7676 187.707 82.4361V130.662H196.916C197.214 130.662 199.927 129.687 200.399 129.456C204.043 127.688 204.877 124.235 205.135 120.461C205.798 110.712 204.646 100.179 205.081 90.3465C204.877 86.6659 202.014 82.9686 198.256 82.4361ZM180.339 141.717C177.063 141.416 174.167 141.369 171.069 140.099C167.793 138.76 165.838 136.462 163.426 134.018L136.802 161.138C137.662 161.198 138.446 160.823 139.297 160.79C143.774 160.615 150.764 160.344 155.07 160.786C156.346 160.917 157.076 161.52 158.399 161.5C159.89 161.476 162.723 160.458 164.156 159.859C171.792 156.66 178.152 149.718 180.339 141.717ZM153.882 167.166H139.146C137.94 174.839 145.127 171.222 149.705 172.471C151.028 172.183 152.364 171.815 153.228 170.703L153.882 167.169V167.166Z" fill="black"/>
<path d="M95.2069 74.164C105.642 73.4038 112.896 78.3838 117.987 87.0175C118.868 88.5112 119.142 90.8354 120.937 91.7698C124.782 93.7658 126.041 88.0156 127.485 85.6779C138.808 67.3421 164.364 71.5719 170.051 92.2219C176.501 115.632 154.849 134.624 139.99 149.091C135.134 153.82 129.169 160.157 124.075 164.323C123.58 164.728 123.061 165.117 122.505 165.438C122.096 165.498 121.098 164.634 120.72 164.323C115.224 159.822 108.985 153.462 103.8 148.422C88.1304 133.177 66.5393 113.743 75.8362 89.2949C78.9273 81.1635 86.3152 74.8137 95.2002 74.164H95.2069ZM94.8653 82.848C87.9362 83.6049 82.2361 90.9191 81.8677 97.6607C81.4994 104.402 87.1324 104.228 87.829 100.276C88.5256 96.3245 87.8491 94.1375 91.4158 91.1368C93.8237 89.1107 95.2102 89.7738 97.377 88.7255C100.351 87.2888 99.286 82.3691 94.8653 82.8514V82.848Z" fill="#4E8CFF"/>
<path d="M195.41 76.4078H187.707C187.322 63.7552 183.4 51.0223 175.928 40.7978C144.977 -1.55384 77.7287 7.36457 60.1933 57.2381C57.9595 63.5878 57.417 69.7198 57.0921 76.4078H49.3894C49.5066 48.4871 67.1928 22.4318 92.9366 11.9494C111.946 4.2098 134.598 4.32702 153.329 12.8235C178.752 24.3541 195.011 48.2259 195.406 76.4078H195.41Z" fill="#ffffff" fill-opacity="0.49"/>
<path d="M57.4303 82.4362L57.0954 130.662H46.8809C46.191 130.662 43.9271 129.707 43.2539 129.265C40.856 127.688 39.8748 125.618 39.6671 122.805C38.8433 111.727 40.2465 99.563 39.7609 88.3773C40.347 86.0062 41.9344 84.3518 44.1381 83.3772C44.5366 83.1997 46.6699 82.4362 46.8809 82.4362H57.4303Z" fill="#ffffff" fill-opacity="0.49"/>
<path d="M198.256 82.4361C202.013 82.9686 204.877 86.6659 205.081 90.3465C204.646 100.179 205.801 110.708 205.135 120.461C204.877 124.235 204.043 127.688 200.399 129.456C199.927 129.687 197.214 130.662 196.916 130.662H187.706V82.4361C190.982 82.7677 195.091 81.9873 198.256 82.4361Z" fill="#ffffff" fill-opacity="0.49"/>
<path d="M181.678 74.0635V135.183C181.055 135.943 179.763 135.739 178.835 135.679C174.19 135.374 169.401 133.271 167.053 129.155C176.846 115.698 181.022 97.4731 172.234 82.3355C171.735 81.4748 169.284 78.4272 169.28 77.9115C169.277 76.5987 173.838 74.0668 175.144 74.0668H181.675L181.678 74.0635Z" fill="#ffffff" fill-opacity="0.49"/>
<path d="M63.1238 74.0635H69.6544C70.7595 74.0635 75.1568 76.9771 75.1769 77.9048C72.2364 82.3623 69.8519 86.8768 68.6496 92.1448C65.4815 106.047 70.1935 117.869 77.4743 129.439C75.7328 131.365 74.2626 133.133 71.8245 134.172C69.5673 135.129 65.2337 136.302 63.1238 135.183V74.0635Z" fill="#ffffff" fill-opacity="0.49"/>
<path d="M153.882 167.166L153.229 170.699C152.365 171.811 151.029 172.179 149.706 172.467C145.128 171.218 137.941 174.839 139.146 167.163H153.882V167.166Z" fill="#ffffff" fill-opacity="0.53"/>
<path d="M94.8655 82.8479C99.2862 82.3657 100.351 87.2854 97.3773 88.7221C95.2104 89.7704 93.824 89.1106 91.416 91.1334C87.8493 94.1308 88.5191 96.3512 87.8292 100.273C87.1393 104.195 81.5163 104.131 81.868 97.6573C82.2196 91.1836 87.9364 83.6015 94.8655 82.8446V82.8479Z" fill="black"/>
<path d="M225.323 104.172H240.983" stroke="black" stroke-width="5" stroke-linecap="round"/>
<path d="M19.0216 104.172H3.36174" stroke="black" stroke-width="5" stroke-linecap="round"/>
<path d="M225.323 89.8741L235.536 85.7889" stroke="black" stroke-width="5" stroke-linecap="round"/>
<path d="M19.0216 89.8741L8.80865 85.7889" stroke="black" stroke-width="5" stroke-linecap="round"/>
<path d="M226.004 118.47L234.855 122.556" stroke="black" stroke-width="5" stroke-linecap="round"/>
<path d="M18.3407 118.47L9.48947 122.556" stroke="black" stroke-width="5" stroke-linecap="round"/>
</svg>
