<svg width="145" height="144" viewBox="0 0 145 144" fill="none" xmlns="http://www.w3.org/2000/svg">
<path d="M137.849 71.9456V30.8217L63.1423 43.05L62.8429 43.9602C62.5708 63.6936 63.3993 83.5449 62.5436 103.23C62.4589 105.201 62.7159 107.3 62.5194 109.253C61.1526 122.9 42.0966 134.629 33.0312 143.568C30.4277 144.801 28.7343 143.132 26.8686 141.647C19.7748 136.005 5.28467 123.299 1.81938 115.292C-5.81272 97.6661 11.9975 77.9962 28.6618 90.5662C29.3724 91.1014 30.5396 92.7252 31.2653 92.825L31.6735 92.7706C32.1392 91.7606 33.5241 90.6569 34.4584 89.9645C41.2227 84.957 49.26 85.7311 55.6009 90.9986V15.8539C55.6009 15.624 56.5262 14.5657 56.8014 14.3329C58.3526 13.0054 63.0002 12.5549 65.2136 12.1618C90.6741 7.63815 116.401 4.02772 141.913 0C143.155 0.281215 144.123 0.955525 144.571 2.17715L144.815 85.4136C144.217 92.3412 134.102 101.561 129.086 106.272C125.176 109.943 120.543 114.098 116.386 117.46C112.3 120.765 111.744 120.484 107.771 117.297C103.504 113.874 98.5874 109.447 94.6051 105.667C86.3229 97.8052 78.7966 88.4344 83.9703 76.2787C88.884 64.7338 103.559 61.5346 111.995 71.3378C119.031 63.364 131.26 63.6543 137.849 71.9486V71.9456ZM137.849 7.84075L62.8581 20.2384V35.6598L137.849 23.2622V7.84075ZM106.292 75.68C97.9706 67.4764 87.5324 77.5668 90.2871 87.9053C92.0197 94.4065 103.577 104.086 108.814 108.688C109.265 109.084 111.75 111.264 111.995 111.264C115.76 108.125 119.775 104.805 123.337 101.431C126.836 98.1167 131.877 93.4872 133.543 88.9576C137.843 77.2524 125.593 66.536 116.688 77.2433C115.593 78.5587 114.846 80.9898 112.881 81.3013C108.98 81.9181 108.509 77.8632 106.292 75.68ZM17.4434 94.089C12.3967 94.4155 8.01215 99.5802 7.52532 104.455C6.93265 110.387 8.90417 114.079 12.6537 118.37C18.154 124.66 24.9546 129.93 31.2169 135.424L46.082 122.15C52.1719 116.072 58.2982 108.513 53.1214 99.6739C49.4989 93.4933 42.2054 92.1386 36.9924 97.3335C34.9301 99.3897 34.0986 103.82 30.5607 103.212C28.0631 102.782 27.422 99.8402 25.9615 98.1106C23.9537 95.7279 20.6305 93.8833 17.4464 94.092L17.4434 94.089Z" fill="black"/>
<path d="M17.4434 94.0889C20.6275 93.8833 23.9507 95.7278 25.9585 98.1076C27.419 99.8402 28.06 102.782 30.5577 103.209C34.0956 103.817 34.9271 99.3866 36.9894 97.3304C42.2024 92.1355 49.4989 93.4902 53.1184 99.6709C58.2982 108.509 52.1719 116.069 46.0789 122.147L31.2139 135.421C24.9516 129.927 18.151 124.657 12.6507 118.367C8.90116 114.079 6.92661 110.384 7.5223 104.452C8.00913 99.5741 12.3967 94.4125 17.4404 94.0859L17.4434 94.0889Z" fill="#4E8CFF"/>
<path d="M106.292 75.68C108.508 77.8632 108.983 81.9182 112.881 81.3013C114.846 80.9898 115.593 78.5587 116.688 77.2433C125.59 66.536 137.842 77.2494 133.543 88.9576C131.879 93.4873 126.836 98.1167 123.337 101.431C119.775 104.805 115.759 108.129 111.995 111.264C111.75 111.264 109.267 109.084 108.814 108.688C103.577 104.083 92.0195 94.4065 90.2869 87.9053C87.5322 77.5669 97.9674 67.4795 106.292 75.68Z" fill="#4E8CFF"/>
</svg>
