<svg width="152" height="131" viewBox="0 0 152 131" fill="none" xmlns="http://www.w3.org/2000/svg">
<path d="M141.926 13.6479H150.336C150.483 13.6479 152.254 15.3717 151.964 15.9451L151.871 107.068C151.37 107.859 150.662 108.749 149.638 108.764C140.047 108.197 130.123 109.326 120.621 109.041C118.28 108.97 117.293 107.574 117.568 105.341C117.944 102.281 123.466 103.425 125.245 103.368C125.796 103.35 126.39 103.044 127.059 103.029C133.437 102.894 139.843 103.165 146.22 103.047V19.3464H141.926V94.6739C141.926 95.6177 140.101 96.704 139.116 96.7895C133.258 97.3059 126.05 96.2908 119.916 96.6363C109.405 97.224 96.4496 100.7 87.2842 105.832C82.1199 108.724 79.1888 112.991 72.5644 110.986C70.7321 110.43 69.229 109.08 67.3107 108.735L2.50876 108.76C1.43869 108.796 0.350726 108.418 0 107.339L0.0322095 15.0796C0.279149 14.8303 1.35638 13.6479 1.45659 13.6479H9.86684C10.2605 11.0657 9.00792 2.9489 10.6828 1.28208C11.0801 0.886744 12.3076 0.523463 12.9017 0.459355C20.2812 -0.349124 29.4538 -0.0143358 36.8405 0.872498C50.9519 2.56069 64.8163 7.61101 75.8892 16.5043C78.1295 15.215 80.0012 13.4663 82.1879 12.0772C99.1373 1.30345 120.02 -1.1861 139.796 0.630311C140.405 0.769212 141.926 2.34343 141.926 2.78507V13.6479ZM73.2122 35.3735V22.0176C61.2517 11.0444 43.6045 6.4535 27.6 5.7946C23.7277 5.63433 19.3901 5.67351 15.593 6.16857V90.5781C33.9202 89.8016 51.6282 92.4479 67.8511 101.078C69.6513 102.036 71.2796 103.396 73.2122 104.112V80.4276C62.762 71.5628 42.3591 60.6394 47.7023 43.9997C50.5796 35.0352 59.9741 30.1558 69.0142 33.3149C70.4923 33.8314 71.7377 34.8749 73.2122 35.37V35.3735ZM136.2 6.16857C127.721 5.3316 118.767 5.81953 110.368 7.35102C98.9762 9.42742 87.6635 14.0183 78.9383 21.6615V35.7297C93.5507 25.5934 110.826 40.2565 103.94 56.5151C99.4558 67.1001 87.1625 73.0765 78.9383 80.4276V104.112C95.698 93.1353 116.298 89.3315 136.2 90.9342V6.16857ZM9.86684 19.3464H5.57224V103.044H57.6443L57.7123 102.62C55.361 101.729 52.9954 100.807 50.5797 100.102C42.3483 97.6977 33.6625 96.3621 25.0876 96.2659C21.2082 96.2196 15.3246 97.281 11.8388 96.6292C11.1839 96.5045 9.85969 95.1618 9.85969 94.681V19.3464H9.86684ZM61.309 38.3083C58.2598 38.7855 54.5414 41.8877 53.4606 44.7476C48.5111 57.8542 67.937 68.1722 75.9464 75.2383C83.3618 69.2157 99.2876 60.4293 99.7099 49.8158C100.104 39.9502 89.1595 34.3977 81.6153 41.0685C80.3197 42.2153 78.3693 45.6914 77.7108 46.0832C74.3753 48.0813 72.9975 43.2304 71.2045 41.4674C68.549 38.8568 65.0202 37.7277 61.309 38.3083Z" fill="black"/>
<path d="M97.4731 108.461C99.921 108.204 101.939 110.153 102.315 110.117C102.791 110.074 103.829 109.109 104.616 108.835C109.036 107.296 113.127 111.079 112.544 115.655C112.175 118.533 108.793 121.845 106.681 123.708C104.688 125.464 103.178 127.626 100.587 125.834C98.5109 124.402 93.5435 119.58 92.7204 117.279C91.3461 113.433 93.1176 108.913 97.4695 108.461H97.4731ZM98.0851 111.748C95.5763 111.748 95.0287 114.587 95.9378 116.578C96.4173 117.632 101.8 123.078 102.555 122.814C104.849 120.887 112.297 115.349 108.113 112.293C105.064 110.063 104.284 115.128 102.043 114.804C100.519 114.583 100.189 111.745 98.0851 111.748Z" fill="black"/>
<path d="M77.0522 117.368C78.8416 117.005 79.4464 117.838 80.6024 117.903C82.6351 118.013 83.7446 116.1 86.4609 118.526C89.8358 121.539 87.03 125.304 84.4926 127.629C80.9925 130.831 80.7133 130.991 77.1416 127.804C74.6901 125.617 72.2887 122.65 74.3358 119.306C74.8404 118.48 76.1038 117.564 77.0486 117.372L77.0522 117.368ZM82.059 121.813C79.747 123.733 78.6447 119.053 77.1202 121.005C75.6958 122.825 79.6003 125.542 80.9101 126.49C82.0554 125.076 85.4767 123.224 84.4854 121.215C83.4941 119.206 82.4956 121.453 82.059 121.817V121.813Z" fill="black"/>
<path d="M73.2123 35.3736C71.7414 34.8785 70.4924 33.8314 69.0143 33.3185C59.9706 30.1594 50.5798 35.0388 47.7024 44.0033C42.3592 60.643 62.7621 71.5628 73.2123 80.4311V104.116C71.2833 103.396 69.6514 102.039 67.8512 101.081C51.6284 92.455 33.9203 89.8052 15.5931 90.5816V6.16859C19.3902 5.67353 23.7278 5.63792 27.6001 5.79463C43.6046 6.44996 61.2518 11.0408 73.2123 22.0176V35.3736Z" fill="white"/>
<path d="M136.2 6.16859V90.9342C116.298 89.3315 95.6981 93.1353 78.9384 104.112V80.4276C87.1626 73.0729 99.4559 67.1001 103.94 56.5151C110.826 40.2565 93.5508 25.5935 78.9384 35.7297V21.6615C87.66 14.0148 98.9763 9.42388 110.368 7.35103C118.767 5.81955 127.725 5.33162 136.2 6.16859Z" fill="white"/>
<path d="M61.309 38.3084C65.0203 37.7278 68.549 38.8568 71.2045 41.4675C72.9975 43.2269 74.3718 48.0813 77.7108 46.0833C78.3693 45.688 80.3198 42.2118 81.6153 41.0686C89.1631 34.3977 100.104 39.9502 99.7099 49.8158C99.2876 60.4293 83.3618 69.2158 75.9465 75.2384C67.937 68.1722 48.5111 57.8579 53.4607 44.7477C54.5379 41.8913 58.2599 38.7856 61.309 38.3084Z" fill="#4E8CFF"/>
<path d="M98.0852 111.748C100.186 111.748 100.519 114.587 102.043 114.804C104.284 115.128 105.064 110.063 108.113 112.293C112.297 115.349 104.846 120.887 102.555 122.814C101.8 123.077 96.4175 117.632 95.9379 116.578C95.0289 114.583 95.58 111.748 98.0852 111.748Z" fill="#4E8CFF"/>
<path d="M82.0591 121.813C82.4957 121.45 83.5014 119.213 84.4855 121.211C85.4697 123.209 82.0555 125.072 80.9103 126.486C79.5969 125.542 75.6959 122.821 77.1203 121.001C78.6485 119.049 79.7507 123.729 82.0591 121.81V121.813Z" fill="#4E8CFF"/>
</svg>
