<svg width="152" height="173" viewBox="0 0 152 173" fill="none" xmlns="http://www.w3.org/2000/svg">
<path d="M32.4443 55.9634L34.3145 53.234C39.3178 47.4685 49.1263 48.6646 51.9009 55.9634C52.7985 56.1883 52.6108 55.3024 53.2388 54.7572C57.713 50.8829 63.5115 50.7193 67.9482 54.7572C68.6751 55.4182 68.9788 56.57 69.9788 56.9857C70.9651 51.7279 70.8593 45.7069 72.1323 40.5616C74.924 29.2862 91.8278 30.3459 91.4797 44.5449C91.2204 55.0979 89.8416 66.3222 89.0976 76.9229C87.9406 93.4595 89.4457 113.792 78.9955 127.49C77.743 129.133 74.395 131.944 73.7159 133.123C73.1323 134.138 73.4462 135.259 73.3951 136.377C77.7533 135.971 76.1765 140.343 76.5007 143.161C78.7191 144.091 85.6847 144.664 85.5926 147.737C85.4868 151.278 78.9136 151.043 76.5144 152.443C76.2175 155.224 77.6406 159.262 73.3951 158.87C74.0196 164.751 72.634 170.759 66.2451 172.343L26.796 172.51C19.7451 171.866 17.653 165.013 18.4482 158.866C14.4176 159.142 15.6463 155.033 15.2265 152.372C12.4962 150.886 5.54083 151.373 6.57834 146.841C7.08003 144.643 13.3972 144.095 15.3323 143.144C15.6087 140.193 14.2777 136.234 18.4619 136.183C18.397 135.498 18.6393 134.598 18.2776 133.992C18.025 133.573 13.4928 130.264 12.4757 129.225C2.51364 119.046 0.271397 106.094 0.0051945 92.2737C-0.138145 84.7874 2.60578 79.0185 9.59188 75.8428C9.42807 71.6652 9.43148 67.4535 9.2506 63.2793C8.64311 49.3665 6.68755 34.0907 6.84795 20.3619C6.99471 7.90072 24.448 4.97369 28.366 16.934C30.3727 29.828 31.0109 42.9775 32.4477 55.9668L32.4443 55.9634ZM28.6492 71.2631L23.82 20.1064C22.687 12.3986 12.6464 12.9983 11.9502 20.3449L14.7419 73.8085L15.3971 74.2378L28.6458 71.2631H28.6492ZM68.2758 136.384V131.443C68.2758 131.02 73.4497 126.437 74.2517 125.483C79.1184 119.707 81.3094 112.211 82.2275 104.823L86.3809 42.4902C86.0772 37.3278 78.685 36.568 77.2413 41.577C75.6953 53.0228 74.2278 64.489 72.7569 75.945C72.0299 81.6014 72.0606 90.8391 69.2314 95.596C64.8015 103.048 53.6313 104.469 48.8157 96.8602L48.3209 96.867C46.8022 98.8161 44.7203 99.5487 42.6863 100.779C45.4097 104.605 48.4744 110.081 49.6109 114.64C50.6041 118.624 46.966 120.133 45.2527 117.632C43.6453 115.281 42.3552 110.214 40.6897 107.195C38.0516 102.418 32.9153 95.947 27.1203 95.1871C25.7415 95.0065 24.3217 95.4359 22.9702 94.9009C21.0283 94.1274 20.9908 91.4457 22.7859 90.4643C28.7891 88.0177 46.8977 84.0684 49.1775 77.6283C50.6348 73.512 48.1912 72.7351 44.594 73.0554C34.6115 75.795 23.4276 76.9706 13.5952 79.9249C7.00836 81.9013 4.95724 86.331 5.13812 92.9416C5.47258 105.052 7.69775 118.198 17.0763 126.683C18.2708 127.763 22.687 130.349 23.1853 131.146C23.9907 132.431 23.373 134.881 23.5641 136.391H68.2724L68.2758 136.384ZM47.1127 67.8897C47.6622 63.3645 49.5427 55.2138 42.7511 54.6754C35.4408 54.0927 36.6216 65.024 35.8537 69.5968C39.6625 69.2561 43.2221 67.491 47.1127 67.8931V67.8897ZM59.3102 57.0675C57.3069 57.4866 55.6619 59.497 55.1227 61.4052C54.5834 63.3134 53.8497 69.2493 53.9077 71.1336C54.0033 74.2515 55.7029 74.3537 54.2968 78.6403C53.0511 82.426 52.1262 84.5694 51.8975 88.8526C51.7167 92.243 52.7576 96.3014 56.853 96.5297C61.3955 96.7852 62.5729 92.3316 63.1121 88.8049C64.4193 80.2452 64.7776 71.4846 66.2383 62.9386C66.0882 59.1631 63.2623 56.2428 59.3068 57.0675H59.3102ZM46.0923 87.66L34.1507 92.2567C36.7957 95.1292 39.8775 97.3372 43.5326 94.4715C45.8295 92.669 45.5326 90.2122 46.0923 87.66ZM71.6886 141.495H20.4959V153.762H71.6886V141.495ZM68.2758 158.873H23.5675V164.155C23.5675 166.083 26.1647 167.249 27.8199 167.406L64.6923 167.392C65.9789 167.709 68.2758 165.484 68.2758 164.496V158.873Z" fill="black"/>
<path d="M99.736 1.04007C105.961 0.300644 111.104 3.17316 114.657 8.09358C119.667 -0.149145 131.899 -1.91082 137.844 6.4171C146.581 18.6636 130.407 32.8252 121.817 40.1206C120.735 41.0372 116.438 44.8025 115.531 45.0956C115.124 45.2251 114.78 45.2864 114.35 45.2421C112.944 45.0922 105.579 38.7849 104.074 37.4151C99.4937 33.2477 91.3096 25.3696 89.5657 19.5291C87.2313 11.6953 90.924 2.08958 99.7394 1.04348L99.736 1.04007ZM112.548 14.8098C111.831 14.0158 110.964 11.6033 109.995 10.3732C104.367 3.24131 92.9512 5.65723 94.0126 15.7707C94.8454 23.7135 108.449 34.1541 114.312 39.1018C115.022 39.1222 121.319 33.7418 122.346 32.8081C126.192 29.3086 134.305 21.2056 134.933 16.0705C136.086 6.59088 126.339 2.9619 119.991 9.3305C118.67 10.656 116.817 14.7484 115.991 15.2152C114.923 15.8218 113.411 15.7604 112.555 14.8098H112.548Z" fill="black"/>
<path d="M139.994 37.1255C142.778 36.5496 142.366 39.906 143.086 41.7324C143.734 43.3749 145.703 45.5965 147.283 46.4007C148.73 47.1367 152.007 47.1674 152 49.1642C151.993 51.161 149.116 51.1405 147.577 51.8766C145.789 52.7318 143.97 54.5514 143.226 56.3915C142.543 58.0748 142.84 61.4516 140.594 61.4482C138.185 61.4414 138.4 57.8465 137.605 56.0712C136.809 54.2959 135.164 52.6501 133.339 51.8118C131.755 51.086 129.322 51.3007 129.127 49.1676C129.117 47.2356 132.427 47.1095 133.837 46.3394C135.369 45.5011 137.355 43.2454 137.963 41.5996C138.523 40.0798 138.113 37.5208 139.99 37.1323L139.994 37.1255ZM140.758 45.9271L140.055 46.1417C139.424 47.2628 138.243 48.619 137.011 48.9972L140.301 52.3741L143.836 49.1608C142.632 48.3702 141.229 47.3276 140.761 45.9271H140.758Z" fill="black"/>
<path d="M68.276 136.384H23.5677C23.38 134.874 23.9977 132.421 23.1888 131.139C22.6906 130.345 18.2743 127.759 17.0798 126.676C7.70134 118.191 5.47616 105.045 5.1417 92.9346C4.96082 86.3206 7.01195 81.8943 13.5987 79.918C23.4346 76.9671 34.6151 75.7881 44.5976 73.0484C48.1948 72.7281 50.6384 73.5085 49.1811 77.6213C46.9013 84.0615 28.7927 88.0108 22.7895 90.4573C20.9944 91.4387 21.0319 94.1204 22.9738 94.8939C24.3219 95.4323 25.7451 94.9995 27.1239 95.1801C32.9189 95.9434 38.0552 102.414 40.6933 107.188C42.3588 110.204 43.6489 115.274 45.2563 117.625C46.9661 120.126 50.6077 118.62 49.6145 114.634C48.478 110.074 45.4099 104.598 42.6898 100.772C44.7239 99.5417 46.8057 98.8125 48.3245 96.86L48.8193 96.8532C53.6314 104.466 64.8051 103.041 69.235 95.589C72.0642 90.8322 72.0335 81.5944 72.7604 75.938C74.2314 64.482 75.6989 53.0158 77.2449 41.57C78.6886 36.561 86.0808 37.3209 86.3845 42.4832L82.2311 104.817C81.313 112.204 79.1254 119.704 74.2553 125.476C73.4533 126.43 68.2794 131.013 68.2794 131.436V136.377L68.276 136.384Z" fill="white"/>
<path d="M28.6491 71.263L15.4005 74.2378L14.7452 73.8084L11.9535 20.3448C12.6497 13.0017 22.6903 12.4019 23.8234 20.1063L28.6525 71.263H28.6491Z" fill="white"/>
<path d="M71.6888 141.495V153.762H20.4961V141.495H71.6888ZM28.5914 144.636C25.298 145.39 26.2911 151.192 30.4957 149.942C33.1475 149.155 32.7277 143.689 28.5914 144.636ZM43.8127 145.349C41.6967 147.659 44.4202 151.329 47.304 149.686C50.9523 147.615 46.6146 142.285 43.8127 145.349ZM61.6994 144.63C58.4777 145.332 59.2217 151.227 63.5184 149.86C66.3921 148.947 65.5491 143.791 61.6994 144.63Z" fill="#4E8CFF"/>
<path d="M59.3103 57.0674C63.2624 56.2394 66.0882 59.163 66.2418 62.9385C64.7811 71.4879 64.4227 80.2452 63.1156 88.8048C62.5764 92.3315 61.3989 96.7851 56.8564 96.5296C52.761 96.2979 51.7201 92.243 51.901 88.8525C52.1262 84.5693 53.0545 82.426 54.3002 78.6402C55.7097 74.3536 54.0067 74.2514 53.9112 71.1335C53.8531 69.2492 54.604 63.2452 55.1261 61.4051C55.6483 59.5651 57.3069 57.4865 59.3137 57.0674H59.3103Z" fill="white"/>
<path d="M68.2758 158.873V164.495C68.2758 165.484 65.979 167.709 64.6923 167.392L27.8199 167.405C26.1647 167.252 23.5675 166.087 23.5675 164.155V158.873H68.2758Z" fill="white"/>
<path d="M47.1127 67.8895C43.2255 67.4874 39.6659 69.2525 35.8538 69.5932C36.6217 65.0204 35.4408 54.0925 42.7511 54.6718C49.5427 55.2102 47.6622 63.3609 47.1127 67.8861V67.8895Z" fill="white"/>
<path d="M46.0923 87.6599C45.5292 90.2087 45.8295 92.6689 43.5327 94.4715C39.8775 97.3372 36.7957 95.1291 34.1508 92.2566L46.0923 87.6599Z" fill="white"/>
<path d="M112.547 14.8097C113.404 15.7604 114.916 15.8217 115.984 15.2152C116.81 14.7484 118.663 10.656 119.984 9.33045C126.332 2.96184 136.079 6.59082 134.926 16.0705C134.301 21.209 126.189 29.312 122.339 32.8081C121.312 33.7417 115.015 39.1188 114.305 39.1017C108.445 34.154 94.8416 23.7101 94.0055 15.7706C92.9441 5.65717 104.36 3.24126 109.988 10.3731C110.957 11.6032 111.827 14.0158 112.541 14.8097H112.547Z" fill="#4E8CFF"/>
<path d="M140.758 45.9271C141.229 47.3276 142.632 48.3703 143.833 49.1608L140.298 52.3741L137.008 48.9973C138.236 48.619 139.417 47.2629 140.052 46.1418L140.755 45.9271H140.758Z" fill="white"/>
<path d="M28.5913 144.637C32.7277 143.689 33.1475 149.155 30.4957 149.942C26.2876 151.193 25.2979 145.39 28.5913 144.637Z" fill="black"/>
<path d="M61.6991 144.63C65.5488 143.791 66.3918 148.947 63.5181 149.86C59.2214 151.227 58.4774 145.332 61.6991 144.63Z" fill="black"/>
<path d="M43.8125 145.349C46.6179 142.285 50.9522 147.615 47.3039 149.686C44.4166 151.325 41.6966 147.659 43.8125 145.349Z" fill="black"/>
</svg>
