<svg width="147" height="89" viewBox="0 0 147 89" fill="none" xmlns="http://www.w3.org/2000/svg">
<path d="M7.46674 0.0755428C3.31709 0.763243 0.589737 3.7537 0.225048 7.94502C-0.306357 14.0796 0.620996 20.9905 0.256307 27.2084C0.865859 31.1028 4.854 30.1416 7.70379 31.4831C17.7223 36.198 17.6806 52.7914 7.36515 57.2849C4.64561 58.4701 1.18887 57.6496 0.292776 61.1532C1.47281 69.2441 -4.17207 87.614 8.17007 88.5857C52.1568 88.3408 96.2426 89.0311 140.172 88.2392C143.652 87.1608 145.806 84.2693 146.119 80.6407C146.531 75.8763 146.541 66.6209 146.119 61.8644C145.752 57.7199 142.277 58.5301 139.242 57.2797C127.898 52.6039 128.778 34.1844 140.323 30.8215C142.621 30.152 145.301 30.6704 145.994 27.6356C145.694 21.2796 146.807 13.6811 146.083 7.4605C145.59 3.2275 142.334 0.395949 138.174 0L7.46674 0.0755428Z" fill="white"/>
<path d="M7.46678 0.0755428L138.177 0C142.334 0.398553 145.59 3.2275 146.085 7.4605C146.809 13.6785 145.697 21.2796 145.997 27.6356C145.306 30.673 142.626 30.152 140.326 30.8215C128.781 34.1844 127.9 52.6039 139.245 57.2797C142.279 58.5301 145.754 57.7199 146.122 61.8644C146.544 66.6209 146.533 75.8763 146.122 80.6407C145.807 84.2693 143.652 87.1608 140.175 88.2392C96.2452 89.0311 52.1595 88.3408 8.17272 88.5857C-4.16942 87.614 1.47806 69.2441 0.295424 61.1532C1.19152 57.6496 4.64825 58.4701 7.3678 57.2849C17.6833 52.7914 17.725 36.2006 7.70644 31.4831C4.85665 30.1416 0.868508 31.1002 0.258956 27.2084C0.623645 20.9905 -0.303708 14.0796 0.227696 7.94502C0.589781 3.7537 3.31714 0.763243 7.46678 0.0755428ZM104.433 6.00175H8.18053C7.5293 6.00175 6.23205 7.1948 6.24247 7.97107L6.2607 24.5931C6.37792 24.9343 9.64971 25.8435 10.3921 26.1925C14.5313 28.1488 18.285 32.5251 19.8219 36.8206C23.8752 48.1338 18.285 61.247 6.21121 63.99L6.23986 80.6198C6.2581 81.2919 7.68039 82.5865 8.18053 82.5865H104.433V73.86C104.433 73.6985 105.032 72.5133 105.209 72.2919C106.563 70.5778 110.163 71.526 110.163 73.0786V82.5865H138.166C138.599 82.5865 140.24 81.3336 140.104 80.6172L140.094 63.8571C126.194 60.8771 121.028 43.6768 128.859 32.3818C130.615 29.8524 133.441 27.2267 136.296 26.0128C137.012 25.708 139.956 24.9812 140.086 24.5931L140.104 7.97107C140.115 7.1948 138.815 6.00175 138.166 6.00175H110.554L110.163 6.39249V14.2073C110.163 15.0513 108.118 16.1896 107.23 16.1063C105.902 15.9838 104.433 14.473 104.433 13.1653V6.00175Z" fill="black"/>
<path d="M104.432 6.00183V13.1654C104.432 14.473 105.902 15.9839 107.23 16.1063C108.118 16.1897 110.163 15.0513 110.163 14.2073V6.39257L110.554 6.00183H138.166C138.817 6.00183 140.115 7.19489 140.104 7.97115L140.086 24.5932C139.953 24.9787 137.012 25.7081 136.296 26.0129C133.441 27.2268 130.614 29.8525 128.859 32.3819C121.028 43.6743 126.194 60.8772 140.094 63.8572L140.104 80.6173C140.24 81.3311 138.599 82.5866 138.166 82.5866H110.163V73.0787C110.163 71.5235 106.563 70.5779 105.209 72.292C105.032 72.5134 104.432 73.7012 104.432 73.8601V82.5866H8.18038C7.68024 82.5866 6.25795 81.292 6.23971 80.6199L6.21106 63.9901C18.2849 61.2471 23.8751 48.1339 19.8218 36.8207C18.2823 32.5252 14.5312 28.1515 10.392 26.1926C9.65217 25.8435 6.37777 24.9318 6.26055 24.5932L6.24232 7.97115C6.2319 7.19489 7.53176 6.00183 8.18038 6.00183H104.432ZM88.9721 23.8065C83.1084 17.8829 73.1342 16.867 66.5359 22.1576C65.9264 22.6473 63.3631 25.5987 62.9203 25.5205C47.0328 7.21833 21.8328 29.2378 36.0505 47.9437L61.1802 73.8705C62.4957 74.9177 64.0925 74.6208 65.2361 73.4772C72.8945 64.7794 82.4494 56.9047 89.837 48.0636C95.7085 41.0381 95.4636 30.3657 88.9721 23.8065ZM106.706 21.6887C105.274 21.9804 104.628 23.322 104.461 24.6531C104.091 27.5862 104.161 34.3747 104.422 37.3964C104.836 42.2051 109.702 41.744 110.148 38.9359C109.767 34.2601 110.708 28.6569 110.168 24.0956C109.968 22.392 108.381 21.3448 106.706 21.6861V21.6887ZM105.302 47.2482C104.677 47.9151 104.495 49.2384 104.422 50.1449C104.169 53.2916 104.096 59.8222 104.461 62.8882C104.88 66.4335 108.736 67.1212 110.15 63.9458V48.6054C109.595 46.3912 106.897 45.5498 105.302 47.2482Z" fill="white"/>
<path d="M88.9724 23.8064C95.4638 30.3656 95.7087 41.0379 89.8372 48.0634C82.4496 56.9019 72.8948 64.7792 65.2363 73.4771C64.0953 74.6206 62.4985 74.9202 61.1804 73.8704L36.0507 47.9436C21.833 29.235 47.0331 7.21561 62.9205 25.5204C63.3633 25.5986 65.9266 22.6472 66.5361 22.1575C73.1344 16.8669 83.1087 17.8828 88.9724 23.8064ZM42.5786 45.9639C47.8927 51.7937 53.6183 57.2536 59.1121 62.9115C59.6878 63.5028 62.4907 67.0455 63.1081 66.9361C67.7188 62.1743 72.5118 57.5558 77.0861 52.7653C83.0618 46.5057 91.9211 39.8501 86.3049 30.2457C82.9628 24.5305 75.2236 23.0509 70.0424 27.2266C68.0548 28.8287 66.1767 32.1526 64.4444 33.3508C61.7092 35.242 59.9066 31.2565 58.3306 29.5659C46.7674 17.169 32.3231 32.0796 39.9763 43.2313C40.6015 44.143 41.818 45.1251 42.5786 45.9613V45.9639Z" fill="black"/>
<path d="M105.302 47.2481C106.897 45.5497 109.595 46.3911 110.148 48.6053V63.9457C108.736 67.1211 104.88 66.4334 104.461 62.8881C104.096 59.8221 104.169 53.2915 104.422 50.1448C104.495 49.2383 104.677 47.915 105.302 47.2481Z" fill="black"/>
<path d="M106.706 21.6886C108.381 21.3474 109.965 22.3945 110.168 24.0982C110.708 28.6594 109.767 34.2626 110.148 38.9384C109.702 41.7491 104.836 42.2076 104.422 37.3989C104.161 34.3772 104.091 27.5888 104.461 24.6556C104.63 23.3245 105.276 21.9803 106.706 21.6912V21.6886Z" fill="black"/>
<path d="M42.5784 45.9639C41.8178 45.1303 40.6013 44.1483 39.9761 43.2339C32.3255 32.0823 46.7672 17.1717 58.3304 29.5685C59.9064 31.2591 61.709 35.2446 64.4442 33.3535C66.1765 32.1552 68.052 28.8313 70.0422 27.2293C75.2234 23.0536 82.9626 24.5332 86.3047 30.2484C91.9209 39.8528 83.0616 46.5083 77.0859 52.768C72.5116 57.561 67.716 62.177 63.1079 66.9388C62.4905 67.0456 59.6876 63.5055 59.1119 62.9142C53.6155 57.2563 47.8925 51.7963 42.5784 45.9665V45.9639Z" fill="#4E8CFF"/>
</svg>
