<svg width="152" height="148" viewBox="0 0 152 148" fill="none" xmlns="http://www.w3.org/2000/svg">
<path d="M107.574 0.172636C77.413 2.83447 61.5799 38.0549 78.6156 62.9918C95.1419 87.1857 132.438 85.5848 146.532 59.8129C162.251 31.0767 140.221 -2.71133 107.574 0.172636ZM65.406 64.091C64.9464 64.2327 64.6515 64.6272 64.4256 65.0294C54.031 89.6829 36.0187 112.521 11.6562 124.478C9.77571 125.401 1.23488 128.465 0.579951 129.105C-0.657129 130.315 0.246744 132.33 1.77107 132.579C3.2571 132.82 7.11388 131.008 8.71098 130.342C32.9126 120.281 55.8656 95.7266 66.2295 71.8122C67.0721 69.8704 70.5574 62.5131 65.4022 64.0872L65.406 64.091ZM99.1213 111.571C98.6923 111.636 98.2097 111.981 97.8765 112.272C95.6475 114.218 93.1963 117.546 90.8026 119.752C80.0135 129.695 66.961 137.998 53.4335 143.659C51.8441 146.512 53.4987 147.546 56.3558 146.96C63.2766 145.535 79.4352 134.31 85.3985 129.664C88.8378 126.987 98.9068 118.925 100.933 115.708C102.001 114.007 101.572 111.2 99.1213 111.571ZM48.5695 129.606C40.787 134.451 32.0087 138.626 23.0887 140.89C21.3346 141.334 15.5092 141.644 15.0381 143.184C14.1649 146.026 16.4973 146.125 18.6 145.972C25.4326 145.478 36.44 140.97 42.679 137.883C44.2799 137.09 50.3313 134.045 51.1509 132.95C52.6944 130.882 51.0398 128.741 48.5695 129.603V129.606Z" fill="white"/>
<path d="M107.574 0.172605C140.22 -2.71136 162.25 31.0766 146.532 59.8129C132.434 85.5809 95.1417 87.1857 78.6154 62.9918C61.5796 38.0548 77.4127 2.83826 107.574 0.172605ZM131.308 10.1037C131.074 9.77817 125.215 7.25805 124.318 6.94399C119.539 5.2703 113.257 4.24003 108.206 4.63452C107.551 4.68431 106.938 4.59239 106.505 5.232C115.226 9.03899 122.212 15.9751 126.808 24.1865C129.795 22.1605 131.63 17.9858 131.794 14.4354C131.833 13.5813 131.722 10.6744 131.312 10.1075L131.308 10.1037ZM78.5464 28.0165C83.6479 25.6649 90.021 25.2666 95.6013 25.7032C104.215 26.3773 109.872 31.6282 119.508 28.5718C123.123 27.4267 123.629 27.082 121.599 23.8342C117.643 17.5032 108.248 8.8743 100.565 8.10064C96.4745 7.69084 94.8698 8.4913 91.6028 10.6208C85.7851 14.4163 80.2891 21.2489 78.5502 28.0127L78.5464 28.0165ZM145.559 31.0537C145.119 28.1237 143.943 25.3853 142.572 22.7809L136 13.8494C136.007 19.1348 133.909 24.8108 129.454 27.8863L132.744 36.4463L133.709 36.6722L145.563 31.0575L145.559 31.0537ZM129.098 39.1196L125.467 30.7473C121.113 32.9878 116.172 34.041 111.274 33.7768C104.046 33.3861 97.2673 29.357 89.8487 29.5485C87.1562 29.6174 79.1822 31.2183 77.4127 33.2061C74.3411 36.6569 77.1791 51.4521 79.7529 55.5272C97.4243 55.5004 112.989 44.9871 129.098 39.1157V39.1196ZM146.716 35.6726C146.015 34.9564 136.015 40.8929 134.089 41.0652L136.046 49.0315C137.585 49.1426 138.98 48.9435 140.519 49.3418C142.469 49.8435 143.441 51.4865 145.18 52.1453C146.314 46.745 147.72 41.2184 146.712 35.6764L146.716 35.6726ZM130.243 43.3364C114.602 49.9316 99.2551 58.4762 81.9896 59.9967C86.1106 65.3587 90.8981 70.1079 97.3133 72.6318C101.289 74.1945 102.281 74.3591 106.318 72.8386C111.603 70.8471 116.758 65.9102 120.485 61.7279C123.935 57.8558 126.417 52.9113 131.312 50.5406L130.24 43.3402L130.243 43.3364ZM135.613 66.6992C137.336 64.5812 142.231 59.6827 142.702 57.1549C143.12 54.9144 138.382 52.4709 136.371 53.2943C136.471 57.7983 136.436 62.2679 135.609 66.6992H135.613ZM132.162 55.5923C130.649 56.1859 129.079 57.9898 127.938 59.2193C124.552 62.8769 121.825 66.9711 117.995 70.3415C115.601 72.448 112.917 74.0604 110.331 75.8873C114.816 75.7839 119.324 75.0945 123.552 73.6008C126.984 72.3867 128.271 71.8888 129.937 68.4955C130.542 67.266 132.162 62.6739 132.162 61.5287V55.5923Z" fill="black"/>
<path d="M65.4061 64.0912C70.5613 62.5209 67.076 69.8782 66.2334 71.8162C55.8657 95.7267 32.9165 120.284 8.71489 130.346C7.11779 131.008 3.26101 132.824 1.77498 132.583C0.25065 132.334 -0.653223 130.315 0.583858 129.109C1.23878 128.469 9.77579 125.405 11.6601 124.482C36.0226 112.525 54.0311 89.6869 64.4295 65.0333C64.6554 64.6312 64.9503 64.2367 65.4099 64.095L65.4061 64.0912Z" fill="black"/>
<path d="M99.1212 111.571C101.572 111.196 102.001 114.007 100.933 115.708C98.9105 118.925 88.8377 126.987 85.3984 129.664C79.4351 134.31 63.2765 145.535 56.3557 146.96C53.4986 147.546 51.8479 146.512 53.4335 143.659C66.9647 137.994 80.0135 129.695 90.8025 119.752C93.1962 117.546 95.6474 114.221 97.8764 112.272C98.2097 111.981 98.6884 111.636 99.1212 111.571Z" fill="black"/>
<path d="M48.5697 129.607C51.0362 128.745 52.6946 130.886 51.1511 132.954C50.3353 134.049 44.2801 137.094 42.6792 137.887C36.4402 140.974 25.4328 145.482 18.6002 145.976C16.4937 146.129 14.1612 146.026 15.0383 143.188C15.5132 141.648 21.3348 141.338 23.0889 140.893C32.0089 138.63 40.7872 134.455 48.5697 129.61V129.607Z" fill="black"/>
<path d="M129.098 39.1197C112.99 44.991 97.4246 55.5043 79.7531 55.5311C77.1793 51.456 74.3413 36.6608 77.413 33.21C79.1824 31.2223 87.1564 29.6214 89.8489 29.5524C97.2675 29.3609 104.047 33.3939 111.274 33.7807C116.172 34.045 121.113 32.9917 125.468 30.7512L129.098 39.1235V39.1197Z" fill="#4E8CFF" fill-opacity="0.5"/>
<path d="M130.244 43.3365L131.316 50.5368C126.421 52.9076 123.936 57.8559 120.489 61.7242C116.762 65.9065 111.607 70.8433 106.322 72.8349C102.285 74.3554 101.293 74.1907 97.3174 72.6281C90.9022 70.1041 86.1147 65.3588 81.9937 59.993C99.2592 58.4725 114.602 49.9317 130.247 43.3326L130.244 43.3365Z" fill="#4E8CFF" fill-opacity="0.5"/>
<path d="M78.5468 28.0165C80.2856 21.2528 85.7854 14.4201 91.5993 10.6246C94.8625 8.49513 96.4711 7.69084 100.561 8.10447C108.248 8.87813 117.639 17.5032 121.596 23.838C123.626 27.0858 123.12 27.4267 119.504 28.5757C109.868 31.632 104.211 26.3811 95.5978 25.707C90.0176 25.2704 83.6445 25.6649 78.543 28.0203L78.5468 28.0165Z" fill="#4E8CFF" fill-opacity="0.5"/>
<path d="M131.308 10.1037C131.718 10.6744 131.833 13.5813 131.791 14.4316C131.626 17.9858 129.792 22.1605 126.804 24.1827C122.208 15.9674 115.222 9.03516 106.501 5.22817C106.938 4.58856 107.547 4.68431 108.202 4.63069C113.254 4.2362 119.535 5.26647 124.315 6.94016C125.211 7.25422 131.071 9.77434 131.304 10.0999L131.308 10.1037Z" fill="#4E8CFF" fill-opacity="0.5"/>
<path d="M145.56 31.0537L133.706 36.6684L132.741 36.4424L129.451 27.8825C133.905 24.8108 136.004 19.131 135.996 13.8456L142.568 22.7771C143.943 25.3853 145.115 28.1199 145.556 31.0498L145.56 31.0537Z" fill="#4E8CFF" fill-opacity="0.5"/>
<path d="M132.162 55.5923V61.5287C132.162 62.6701 130.538 67.266 129.937 68.4955C128.271 71.8888 126.984 72.3867 123.553 73.6008C119.328 75.0945 114.816 75.7839 110.332 75.8873C112.917 74.0604 115.602 72.4518 117.995 70.3415C121.825 66.9711 124.552 62.8769 127.938 59.2193C129.075 57.9898 130.646 56.1859 132.162 55.5923Z" fill="#4E8CFF" fill-opacity="0.5"/>
<path d="M146.716 35.6727C147.724 41.2146 146.318 46.7451 145.184 52.1415C143.442 51.4828 142.473 49.8436 140.523 49.338C138.984 48.9397 137.59 49.1388 136.05 49.0278L134.093 41.0614C136.019 40.8929 146.019 34.9526 146.72 35.6688L146.716 35.6727Z" fill="#4E8CFF" fill-opacity="0.5"/>
<path d="M135.613 66.6992C136.441 62.268 136.471 57.7984 136.375 53.2943C138.386 52.4709 143.124 54.9144 142.706 57.1549C142.235 59.6827 137.341 64.5813 135.617 66.6992H135.613Z" fill="#4E8CFF" fill-opacity="0.5"/>
<path d="M62.958 103.862C63.0237 104.055 63.091 104.308 63.1543 104.627C63.2743 105.233 63.3495 105.901 63.4346 106.604C63.5024 107.165 63.5832 107.816 63.7207 108.361L63.7832 108.589C64.2669 110.193 65.0194 111.357 65.9912 112.173C66.9528 112.98 68.0184 113.354 68.9619 113.565C69.4302 113.671 69.8869 113.74 70.2891 113.797C70.7108 113.857 71.0476 113.9 71.3682 113.959C71.9486 114.066 72.1893 114.184 72.3018 114.272C72.0986 114.387 71.8265 114.508 71.4873 114.63C70.7744 114.885 69.9327 115.09 69.1318 115.279C68.7478 115.37 68.358 115.46 68.0332 115.547C67.7481 115.623 67.3572 115.734 67.0479 115.896C64.2612 117.363 63.6443 120.427 63.3145 122.464C63.1513 123.472 63.0602 124.225 62.916 124.835C62.8033 124.456 62.6939 123.975 62.5811 123.39C62.409 122.498 62.2252 121.342 61.998 120.374C61.7918 119.495 61.4866 118.451 60.917 117.671L60.7998 117.519L60.6631 117.359C59.968 116.586 59.0498 116.116 58.2139 115.799C57.3152 115.458 56.3336 115.23 55.5303 115.039C54.6593 114.832 54.041 114.677 53.6221 114.488C53.6137 114.485 53.6055 114.48 53.5977 114.477C53.6081 114.469 53.6182 114.459 53.6309 114.45C53.9206 114.251 54.4293 114.066 55.2627 113.838C56.0013 113.636 57.0049 113.398 57.8945 113.071C58.7964 112.74 59.808 112.244 60.5615 111.379C61.2902 110.543 61.6941 109.485 61.958 108.53C62.2235 107.569 62.3918 106.528 62.543 105.682C62.6847 104.888 62.8084 104.291 62.958 103.862Z" fill="white" stroke="black" stroke-width="3" stroke-linejoin="round"/>
<path d="M84.4678 81.501C84.4835 81.5125 84.5298 81.5511 84.5977 81.6523C84.8038 81.9601 85.0038 82.5239 85.1719 83.373C85.3345 84.1947 85.4358 85.0996 85.5469 86.0195C85.6504 86.8768 85.77 87.8314 85.9883 88.5557V88.5566C86.6038 90.601 87.5509 92.0518 88.749 93.0596C89.9368 94.0586 91.2605 94.5276 92.4629 94.7979C93.0605 94.9322 93.6468 95.0209 94.1748 95.0957C94.7223 95.1733 95.1811 95.2334 95.6162 95.3135C96.5113 95.4782 96.9327 95.6747 97.1611 95.9092V95.9102C97.3308 96.0852 97.4172 96.211 97.4609 96.2871C97.3906 96.3572 97.2611 96.4653 97.0352 96.5967C96.7301 96.7741 96.3303 96.9511 95.8486 97.124C94.8796 97.4719 93.744 97.7474 92.6914 97.9961C92.1819 98.1165 91.6775 98.2338 91.2578 98.3457C90.8778 98.447 90.4116 98.5819 90.0576 98.7686C86.6171 100.582 85.8236 104.381 85.3857 107.089C85.1436 108.586 85.0153 109.732 84.7559 110.633C84.6322 111.062 84.5112 111.302 84.4199 111.426C84.4187 111.427 84.4162 111.428 84.415 111.43C84.379 111.377 84.3328 111.305 84.2812 111.203C83.9772 110.604 83.7298 109.625 83.4795 108.325C83.2478 107.122 83.0117 105.63 82.7148 104.363C82.4252 103.127 82.0054 101.742 81.2305 100.789L81.2295 100.788C80.3733 99.7363 79.1658 99.0977 78.0225 98.6631C76.8722 98.2258 75.6096 97.9322 74.543 97.6787C73.4088 97.4091 72.5448 97.1941 71.9424 96.9219C71.6754 96.8012 71.5534 96.7114 71.502 96.6641C71.497 96.4947 71.5297 96.4073 71.5566 96.3564C71.5937 96.2869 71.6775 96.1768 71.8809 96.0371C72.3378 95.7234 73.0826 95.462 74.1748 95.1631C75.1727 94.89 76.4591 94.5863 77.6064 94.1641C78.7661 93.7373 80.0102 93.1157 80.9258 92.0635C81.8163 91.04 82.3252 89.7274 82.666 88.4922C83.0086 87.2505 83.2262 85.9044 83.4277 84.7744C83.6414 83.5762 83.8323 82.6598 84.0977 82.0273C84.2253 81.7233 84.3331 81.5796 84.3916 81.5215C84.4008 81.5124 84.4074 81.5057 84.4121 81.502C84.4405 81.4988 84.4581 81.5002 84.4678 81.501Z" fill="white" stroke="black" stroke-width="3" stroke-linejoin="round"/>
</svg>
