<svg width="194" height="151" viewBox="0 0 194 151" fill="none" xmlns="http://www.w3.org/2000/svg">
<path d="M12.0584 37.1338L151.697 36.9985C159.032 37.7333 164.373 43.9902 164.995 51.1982V147.251C164.594 151.799 162.363 150.582 159.361 150.591C155.146 150.605 150.904 150.704 146.712 150.659L132.287 137.099L33.5472 137.063L31.7486 137.519L18.2612 150.663C14.0644 150.713 9.82706 150.614 5.61224 150.596C3.47103 150.587 1.45152 151.79 0.198344 148.833L0 50.7699C0.815917 44.157 5.40488 38.5132 12.0584 37.1338ZM151.008 144.754H157.995L158.694 143.198L158.685 52.0998C158.135 45.6626 154.1 43.2915 148.091 42.8587H17.3281C11.5491 42.9534 6.92853 45.5093 6.31096 51.6715L6.28391 143.198L6.98262 144.754H13.9698V53.0194C13.9698 51.5363 17.274 50.1704 18.6849 50.522H146.743C148.06 50.2561 151.008 51.6986 151.008 53.0194V144.754ZM139.738 56.851H25.2393C25.041 57.6399 25.5639 57.7526 25.911 58.2079C26.4835 58.9562 31.1987 63.7705 31.7486 64.0906C32.1904 64.343 32.5555 64.6 33.101 64.5414C66.4544 64.2078 99.9746 65.0958 133.224 64.0906C134.852 62.026 137.511 60.2319 139.062 58.2079C139.409 57.7526 139.932 57.6399 139.734 56.851H139.738ZM20.2807 139.344C21.0696 139.543 21.1823 139.02 21.6376 138.673C22.6518 137.897 27.7772 132.727 27.935 131.897C27.6826 110.882 28.4985 89.686 27.5203 68.7742L20.2852 61.8096V139.344H20.2807ZM144.697 139.344V61.8096C143.078 63.6759 138.544 66.8899 137.462 68.7742C137.115 69.3828 136.916 69.8516 137.006 70.5728L137.042 131.897C137.2 132.727 142.326 137.897 143.34 138.673C143.795 139.02 143.908 139.543 144.697 139.344ZM45.0738 70.8253H34.255V81.1933H44.3976L45.0738 80.5171V70.8253ZM62.2035 70.8253H51.3847V81.1933H61.5273L62.2035 80.5171V70.8253ZM79.3332 70.8253H68.5145V81.1933H79.3332V70.8253ZM96.463 70.8253H85.6442V81.1933H96.463V70.8253ZM113.593 70.8253H102.774V80.5171L103.45 81.1933H113.593V70.8253ZM130.722 70.8253H119.904V80.5171L120.58 81.1933H130.722V70.8253ZM45.0738 87.5042H34.255V97.4214H45.0738V87.5042ZM62.2035 87.5042H51.3847V97.4214H62.2035V87.5042ZM79.3332 87.5042H68.5145V97.4214H79.3332V87.5042ZM96.463 87.5042H85.6442V97.4214H96.463V87.5042ZM113.593 87.5042H102.774V97.4214H113.593V87.5042ZM130.722 87.5042H119.904V97.4214H130.722V87.5042ZM45.0738 114.1V104.409L44.3976 103.732H34.9311L34.255 104.409V114.1H45.0738ZM62.2035 114.1V104.409L61.5273 103.732H51.3847V114.1H62.2035ZM79.3332 103.732H68.5145V114.1H79.3332V103.732ZM96.463 103.732H85.6442V114.1H96.463V103.732ZM113.593 103.732H103.45L102.774 104.409V114.1H113.593V103.732ZM130.722 114.1V104.409L130.046 103.732H120.58L119.904 104.409V114.1H130.722ZM45.0738 120.411H34.255V130.779H45.0738V120.411ZM62.2035 120.411H51.3847V130.779H62.2035V120.411ZM79.3332 120.411H68.5145V130.779H79.3332V120.411ZM96.463 120.411H85.6442V130.779H96.463V120.411ZM113.593 120.411H102.774V130.779H113.593V120.411ZM130.722 120.411H119.904V130.779H130.722V120.411Z" fill="black"/>
<path d="M109.63 63.3844C109.853 63.3882 109.987 63.4453 110.136 63.5689C110.596 63.9523 111.156 64.9714 111.617 66.9635C112.052 68.8415 112.288 71.0385 112.528 73.2516C112.739 75.1863 112.965 77.3172 113.419 78.8971L113.513 79.2057C114.637 82.6928 116.427 85.2538 118.702 87.1451C120.944 89.0092 123.539 90.1232 126.127 90.9146C128.672 91.6931 131.436 92.2192 133.908 92.7662C135.886 93.2037 137.744 93.6667 139.466 94.2955C139.328 95.8345 138.768 96.5563 138.181 97.0191C137.161 97.8218 135.512 98.2937 132.942 98.775C128.298 99.6447 120.999 100.364 116.553 106.615H116.552C113.362 111.103 113.084 116.607 112.555 120.513C112.061 124.154 111.399 126.521 109.428 128.001C107.054 126.406 106.399 123.754 105.87 119.647C105.312 115.315 104.954 109.284 100.667 104.696C98.7376 102.631 96.1252 101.41 93.5801 100.581C91.0304 99.7503 88.2489 99.2257 85.8682 98.7457C83.3663 98.2413 81.3892 97.7979 80.001 97.1695C78.6479 96.5571 78.5325 96.0942 78.5088 95.8219C78.4564 95.2198 78.6217 94.8503 79.2051 94.4117C79.9388 93.8602 81.1685 93.3759 82.8984 92.9547C84.5983 92.5408 86.4423 92.2599 88.333 91.9332C90.106 91.6268 92.0459 91.2628 93.5322 90.649L93.5361 90.6471C102.111 87.0878 104.614 80.0655 105.708 74.1842C105.979 72.7256 106.171 71.3047 106.343 70.0289C106.518 68.7248 106.668 67.6037 106.862 66.6217C107.296 64.427 107.773 63.9951 107.933 63.9137H107.934C108.812 63.4638 109.351 63.3797 109.63 63.3844Z" fill="white" stroke="black" stroke-width="5" stroke-linejoin="round"/>
<path d="M151.008 144.754V53.0194C151.008 51.6986 148.06 50.2561 146.744 50.5221H18.6852C17.2743 50.1705 13.97 51.5363 13.97 53.0194V144.754H6.98289L6.28418 143.198L6.31123 51.6716C6.9288 45.5049 11.5538 42.9534 17.3284 42.8542H148.096C154.105 43.296 158.135 45.6626 158.689 52.0998L158.698 143.198L158 144.754H151.012H151.008Z" fill="#4E8CFF"/>
<path d="M168.487 39.5C168.539 39.5009 168.53 39.5007 168.558 39.5234C168.775 39.7039 169.186 40.3475 169.546 41.8984C169.88 43.336 170.062 45.0274 170.253 46.7754C170.416 48.2736 170.598 50.0045 170.974 51.3066L171.052 51.5615C171.967 54.3934 173.433 56.4937 175.308 58.0479C177.149 59.5746 179.267 60.4759 181.341 61.1084C183.373 61.728 185.586 62.1484 187.512 62.5732C188.909 62.8816 190.211 63.204 191.42 63.6152C191.273 64.4007 190.948 64.7472 190.666 64.9688C189.979 65.5084 188.805 65.8644 186.767 66.2451C183.187 66.9136 177.175 67.495 173.521 72.6182H173.52C170.909 76.2807 170.683 80.78 170.275 83.7783C169.918 86.4082 169.463 88.0222 168.318 89.0596C166.91 87.9291 166.449 86.1128 166.061 83.1016C165.629 79.7609 165.341 74.813 161.819 71.0547C160.21 69.337 158.053 68.3422 156.013 67.6797C153.968 67.0156 151.741 66.5973 149.878 66.2227C147.894 65.8238 146.398 65.4851 145.368 65.0205C144.878 64.7994 144.652 64.6163 144.561 64.5166C144.507 64.4585 144.509 64.4477 144.505 64.4033C144.483 64.1475 144.503 64.0269 144.841 63.7734C145.33 63.4069 146.213 63.0468 147.56 62.7197C148.876 62.4001 150.301 62.1831 151.806 61.9238C153.193 61.6848 154.78 61.3909 156.014 60.8828L156.018 60.8809C163.018 57.983 165.052 52.2441 165.928 47.5498C166.144 46.3885 166.297 45.2588 166.432 44.2578C166.57 43.2284 166.687 42.3652 166.836 41.6133C167.146 40.046 167.457 39.8274 167.422 39.8467C168.049 39.5296 168.381 39.4982 168.487 39.5Z" fill="white" stroke="black" stroke-width="5" stroke-linejoin="round"/>
<path d="M78.8232 2.5127C78.9655 2.69725 79.2476 3.20913 79.5088 4.34277C79.7929 5.57636 79.9498 7.03289 80.1152 8.56348C80.2459 9.77246 80.3934 11.1961 80.6846 12.332L80.8184 12.7998C81.6272 15.3228 82.9283 17.2083 84.6016 18.6074C86.2424 19.9793 88.1218 20.7834 89.9404 21.3428C91.7163 21.889 93.6564 22.2605 95.3076 22.6279C96.4064 22.8724 97.4272 23.1241 98.375 23.4326C98.2463 23.8646 98.0449 24.0491 97.8984 24.165C97.3782 24.5769 96.4464 24.8773 94.6748 25.2109C91.7206 25.7673 86.5866 26.2719 83.3086 30.4883L82.9971 30.9082C80.6825 34.1833 80.4819 38.2092 80.1348 40.7852C79.8522 42.8823 79.5029 44.1517 78.7578 44.9824C77.826 44.0693 77.467 42.6307 77.1553 40.1953C76.7869 37.3173 76.5359 32.8811 73.4043 29.5107C71.9558 27.9519 70.0261 27.0609 68.2363 26.4746C66.4428 25.8871 64.4917 25.5176 62.8877 25.1924C61.1624 24.8426 59.9087 24.554 59.0605 24.168C58.7171 24.0116 58.5578 23.8875 58.4951 23.8291C58.4886 23.7722 58.5032 23.7396 58.6689 23.6143C59.0348 23.3377 59.741 23.0364 60.8945 22.7539C62.0187 22.4786 63.2345 22.2925 64.5469 22.0645C65.741 21.8569 67.1524 21.5945 68.2617 21.1338L68.2666 21.1328C74.4818 18.5383 76.2737 13.3927 77.0381 9.26172C77.2272 8.23959 77.3599 7.24596 77.4766 6.37305C77.597 5.47219 77.6966 4.72927 77.8232 4.08398C78.0079 3.14304 78.1845 2.81235 78.2314 2.72949C78.5279 2.58469 78.7198 2.53214 78.8232 2.5127Z" fill="white" stroke="black" stroke-width="5" stroke-linejoin="round"/>
</svg>
