<svg width="173" height="126" viewBox="0 0 173 126" fill="none" xmlns="http://www.w3.org/2000/svg">
<path d="M62.7698 68.969C61.5934 70.3277 50.8191 76.8726 48.6899 77.8792C42.3604 80.8699 34.7924 81.831 28.0196 83.7199C19.0183 86.2301 3.62533 89.689 0.891379 99.6721C-2.97343 113.797 6.29714 117.439 17.7549 120.674C43.7274 128.014 72.2102 126.229 98.7337 123.366C119.566 119.709 142.228 119.912 162.899 116.283C169.199 115.177 171.436 110.637 172.554 104.813C173.793 98.3465 172.099 95.886 171.44 90.0162C169.986 77.0507 172.791 61.7033 163.777 50.871C157.625 43.4811 152.808 47.1512 146.284 51.6125C142.158 54.4335 138.442 57.8343 134.42 60.7878L130.013 55.6513C138.31 51.8404 137.092 47.5199 132.68 40.9626C129.06 35.5816 124.623 30.9339 117.722 34.2312C115.104 35.4822 111.086 39.0985 108.866 39.9104C107.897 40.2625 107.221 39.4713 106.107 39.985C104.74 40.6187 105.154 41.8904 104.458 42.6153C104.135 42.9509 99.3633 45.834 98.8414 46.0038C97.7188 46.3725 96.4057 46.1405 95.631 46.5174C94.6369 47.0021 95.0884 48.2489 94.5333 48.8413C94.2516 49.1395 88.2328 52.8304 87.657 53.0458C86.696 53.4103 85.6853 53.2156 84.8734 53.576C83.8295 54.0399 83.8875 55.2826 83.3241 55.8667C83.0756 56.1235 77.6822 59.5203 77.2929 59.6694C76.3153 60.0381 75.3211 59.8475 74.5133 60.2038C73.4695 60.6636 73.5275 61.9145 72.9641 62.4945C72.7156 62.7513 67.2808 66.1687 66.9328 66.2972C65.9552 66.6658 64.9611 66.4753 64.1533 66.8315C63.1053 67.2955 63.184 68.4802 62.7656 68.9648L62.7698 68.969Z" fill="white"/>
<path d="M62.77 68.9687C63.1884 68.4841 63.1056 67.2993 64.1577 66.8354C64.9655 66.4792 65.9555 66.6697 66.9372 66.301C67.2811 66.1726 72.7199 62.7552 72.9685 62.4984C73.5319 61.9184 73.4739 60.6674 74.5177 60.2076C75.3255 59.8514 76.3155 60.0419 77.2972 59.6733C77.6866 59.5283 83.08 56.1274 83.3285 55.8706C83.8919 55.2865 83.8339 54.0438 84.8777 53.5799C85.6855 53.2195 86.6962 53.4142 87.6614 53.0497C88.233 52.8343 94.256 49.1434 94.5377 48.8452C95.0928 48.2528 94.6413 47.006 95.6354 46.5213C96.41 46.1444 97.7232 46.3763 98.8457 46.0077C99.3635 45.8378 104.14 42.9548 104.463 42.6192C105.159 41.8902 104.744 40.6185 106.111 39.9888C107.226 39.471 107.901 40.2664 108.87 39.9143C111.091 39.1024 115.109 35.4861 117.727 34.2351C124.632 30.9378 129.068 35.5897 132.685 40.9664C137.096 47.5238 138.314 51.8442 130.017 55.6552L134.424 60.7917C138.447 57.8382 142.166 54.4373 146.288 51.6164C152.812 47.1551 157.63 43.485 163.781 50.8749C172.795 61.703 169.991 77.0504 171.445 90.0201C172.103 95.8898 173.797 98.3504 172.559 104.817C171.445 110.641 169.204 115.181 162.903 116.287C142.233 119.915 119.57 119.708 98.738 123.37C72.2146 126.237 43.7318 128.018 17.7593 120.678C6.30154 117.442 -2.96904 113.801 0.895773 99.6759C3.62972 89.6929 19.0227 86.234 28.024 83.7237C34.7968 81.8348 42.3648 80.8738 48.6943 77.883C50.8235 76.8764 61.5977 70.3315 62.7742 68.9728L62.77 68.9687ZM121.347 54.1681C121.885 54.5492 130.742 50.1997 131.591 48.9653C131.922 47.2545 125.829 39.2184 124.18 38.2822C120.519 36.2027 116.123 41.0658 113.029 42.8222C114.566 44.8478 116.633 46.3722 118.174 48.4309C119.475 50.1749 120.655 52.0886 121.347 54.1681ZM117.586 56.6742C115.776 52.1922 112.524 48.3232 108.473 45.7094L102.263 49.4334C105.445 52.4697 108.452 55.8747 110.134 59.9964L117.582 56.6784L117.586 56.6742ZM138.297 64.5447C147.485 70.0706 157.771 65.9034 158.587 54.8102C158.757 52.4987 159.117 51.0365 156.362 51.3182C153.421 51.6206 144.822 58.2483 142.245 60.4148C141.578 60.974 137.817 63.8778 138.302 64.5405L138.297 64.5447ZM91.4889 55.8582C91.0498 56.4961 94.5957 59.4662 95.2005 60.2118C96.6379 61.9806 97.7232 64.0103 99.1896 65.7584L105.95 62.2084C106.41 60.6467 100.088 53.1698 98.1498 52.3082L91.4848 55.8582H91.4889ZM142.821 71.218C137.37 69.8717 132.954 66.2886 129.176 62.283C127.95 60.9864 126.434 57.6394 124.628 58.095L65.0276 88.6283L69.9902 104.688C86.688 105.036 103.307 103.267 119.794 100.935C130.386 99.4357 140.911 97.2444 151.549 96.0307C151.723 95.401 151.383 95.343 151.143 94.9909C149.987 93.3133 147.862 91.7889 146.487 89.7053C142.945 84.3285 141.781 77.5475 142.817 71.218H142.821ZM147.464 71.6488C145.596 79.4778 149.399 88.9721 156.147 93.3009C156.752 93.6902 158.268 94.7175 158.831 94.7921C160.09 94.9537 166.453 93.3464 167.112 92.3025C165.828 82.5805 167.145 72.0092 164.502 62.5771C164.088 61.1065 163.57 59.4165 162.737 58.1282L160.592 63.447C157.874 68.6 153.185 71.1476 147.464 71.6529V71.6488ZM94.8028 68.2728C95.4614 67.3822 89.0201 59.7934 87.4709 59.2176C86.1453 58.8738 82.0237 62.3078 80.7271 63.099C83.5066 65.5761 85.7476 68.4095 87.6117 71.624L94.807 68.2686L94.8028 68.2728ZM83.6185 74.0721C82.003 70.7955 79.4223 68.2107 76.6966 65.8371L70.363 69.735C72.4548 72.2909 74.9817 74.6396 76.1705 77.8085L83.6185 74.0721ZM62.5256 84.4072C63.3168 84.9706 70.7813 80.4472 72.0158 79.6435C72.1442 79.0636 67.2231 72.6885 66.3407 72.4648C65.3217 72.2039 59.3029 76.7936 57.9401 77.6014C60.0112 79.4488 61.6972 81.7147 62.5215 84.4072H62.5256ZM65.3921 104.725C63.6731 98.7108 61.4735 92.373 58.7064 86.7684C57.9442 85.2274 55.7405 80.5383 53.9385 80.3809C52.9858 80.298 51.014 81.9757 49.937 82.4396C38.326 87.4519 24.4823 88.2058 12.5068 93.8891C11.0114 94.6016 8.74138 95.1649 10.8374 96.5277C14.1306 98.6693 21.5247 100.127 25.5386 100.881C38.5332 103.321 52.1863 104.195 65.3921 104.725ZM5.74646 98.9344C1.91479 110.566 7.78036 112.77 17.345 115.707C62.6789 129.633 115.759 114.232 162.012 111.668C167.866 111.125 169.257 101.813 167.924 97.2817C163.934 98.951 159.295 99.4067 155.008 100.107C119.04 105.993 84.0741 111.685 47.3771 108.458C36.5407 107.505 19.3168 105.575 9.60713 101.076C8.18217 100.413 7.12587 99.4978 5.74646 98.9344Z" fill="black"/>
<path d="M5.74618 98.9348C7.12972 99.4981 8.18188 100.414 9.60685 101.076C19.3165 105.579 36.5404 107.505 47.3768 108.458C84.0738 111.685 119.035 105.993 155.007 100.107C159.295 99.407 163.934 98.9513 167.923 97.282C169.257 101.814 167.865 111.126 162.012 111.668C115.759 114.232 62.6786 129.634 17.3448 115.707C7.78007 112.77 1.9145 110.562 5.74618 98.9348Z" fill="white"/>
<path d="M142.82 71.2183C141.781 77.5478 142.949 84.3288 146.491 89.7056C147.862 91.7892 149.991 93.3136 151.147 94.9912C151.387 95.3433 151.726 95.4013 151.552 96.0309C140.911 97.2446 130.389 99.4359 119.797 100.935C103.307 103.268 86.6916 105.041 69.9938 104.688L65.0312 88.6286L124.631 58.0953C126.433 57.6397 127.954 60.9867 129.18 62.2832C132.962 66.2889 137.373 69.8679 142.825 71.2183H142.82ZM125.559 74.3872C124.3 72.403 122.1 65.2492 119.491 65.3734C116.881 65.4977 115.224 72.8255 113.762 74.8138C111.765 75.6009 104.147 75.6257 103.294 77.3904C101.666 80.7705 108.658 83.7282 110.05 86.3876C110.717 88.6286 106.376 99.2868 111.782 97.9323C113.617 97.4725 118.24 93.6781 119.88 93.558C122.44 93.6201 127.643 98.2761 129.88 97.3896C133.173 96.0848 129.565 88.7238 130.083 85.9733C132.013 83.1234 136.189 81.1723 136.648 77.6265C136.218 74.4949 127.887 75.6879 125.551 74.3872H125.559Z" fill="#4E8CFF"/>
<path d="M65.3918 104.726C52.186 104.196 38.5329 103.321 25.5383 100.882C21.5202 100.128 14.1303 98.6738 10.8371 96.528C8.74109 95.1652 11.0111 94.5977 12.5065 93.8894C24.482 88.2019 38.3216 87.448 49.9367 82.4399C51.0138 81.976 52.9855 80.2983 53.9383 80.3812C55.7402 80.5386 57.9439 85.2277 58.7061 86.7687C61.4732 92.3733 63.6728 98.7111 65.3918 104.726Z" fill="#4E8CFF"/>
<path d="M147.464 71.649C153.184 71.1436 157.874 68.5961 160.591 63.443L162.737 58.1242C163.569 59.4125 164.087 61.1026 164.501 62.5731C167.144 72.0052 165.827 82.5765 167.111 92.2986C166.452 93.3424 160.09 94.9497 158.83 94.7881C158.267 94.7136 156.751 93.6863 156.146 93.2969C149.398 88.9681 145.6 79.4697 147.464 71.6448V71.649Z" fill="#4E8CFF"/>
<path d="M138.297 64.545C137.813 63.8822 141.574 60.9784 142.241 60.4192C144.822 58.2486 153.417 51.625 156.358 51.3226C159.117 51.0409 158.752 52.499 158.582 54.8146C157.771 65.9078 147.485 70.075 138.293 64.5491L138.297 64.545Z" fill="#4E8CFF"/>
<path d="M121.347 54.1684C120.651 52.089 119.474 50.1752 118.174 48.4313C116.637 46.3684 114.57 44.8481 113.029 42.8225C116.123 41.0662 120.514 36.2031 124.18 38.2825C125.829 39.2187 131.926 47.2549 131.591 48.9656C130.742 50.2001 121.885 54.5495 121.347 54.1684Z" fill="#4E8CFF"/>
<path d="M117.585 56.6744L110.138 59.9924C108.456 55.8667 105.448 52.4658 102.267 49.4294L108.476 45.7055C112.528 48.3193 115.779 52.1924 117.59 56.6703L117.585 56.6744Z" fill="#4E8CFF"/>
<path d="M91.4885 55.8583L98.1536 52.3083C100.092 53.17 106.413 60.6469 105.954 62.2086L99.1933 65.7586C97.7269 64.0105 96.6416 61.9807 95.2042 60.212C94.5953 59.4663 91.0536 56.4921 91.4927 55.8583H91.4885Z" fill="#4E8CFF"/>
<path d="M94.8025 68.273L87.6072 71.6283C85.7432 68.4138 83.5022 65.5804 80.7227 63.1033C82.0151 62.3121 86.1367 58.8781 87.4664 59.2219C89.0156 59.7936 95.457 67.3865 94.7984 68.2771L94.8025 68.273Z" fill="#4E8CFF"/>
<path d="M62.5253 84.4075C61.701 81.715 60.015 79.445 57.9438 77.6016C59.3025 76.798 65.3214 72.2083 66.3445 72.4651C67.2268 72.6888 72.1438 79.0639 72.0195 79.6438C70.7851 80.4474 63.3206 84.9667 62.5294 84.4075H62.5253Z" fill="#4E8CFF"/>
<path d="M83.6183 74.0723L76.1704 77.8087C74.9815 74.644 72.4547 72.2953 70.3628 69.7353L76.6964 65.8373C79.418 68.2109 82.0028 70.7957 83.6183 74.0723Z" fill="#4E8CFF"/>
<path d="M125.559 74.3872C127.896 75.6879 136.226 74.4949 136.657 77.6265C136.197 81.1765 132.021 83.1234 130.091 85.9733C129.573 88.7238 133.181 96.0848 129.888 97.3896C127.651 98.2761 122.448 93.6201 119.888 93.5579C118.248 93.6781 113.625 97.4725 111.79 97.9323C106.384 99.2868 110.726 88.6327 110.059 86.3875C108.663 83.7282 101.67 80.7705 103.302 77.3904C104.156 75.6216 111.769 75.5967 113.77 74.8138C115.228 72.8255 116.836 65.5018 119.499 65.3734C122.163 65.245 124.308 72.3988 125.568 74.3872H125.559ZM129.18 79.4657C127.635 79.4035 124.747 79.4533 123.393 78.8319C122.038 78.2105 120.634 74.5404 119.864 73.2522L116.885 78.6621L110.543 79.8799C109.818 80.4847 114.963 83.6826 114.93 84.8383L114.271 91.0601C116.504 90.7329 117.937 88.4463 120.265 88.5457C121.972 88.6203 124.213 90.5009 125.862 91.0601C126.052 88.2516 124.11 85.907 125.866 83.3968C126.251 82.85 129.76 79.9752 129.176 79.4657H129.18Z" fill="black"/>
<path d="M129.18 79.4656C129.76 79.9751 126.251 82.8499 125.87 83.3967C124.114 85.9069 126.053 88.2557 125.866 91.06C124.218 90.4967 121.977 88.616 120.27 88.5456C117.938 88.4462 116.504 90.7328 114.276 91.06L114.935 84.8382C114.968 83.6825 109.819 80.4846 110.548 79.8798L116.89 78.662L119.868 73.2521C120.639 74.5445 122.051 78.2229 123.397 78.8318C124.744 79.4407 127.639 79.3993 129.184 79.4656H129.18Z" fill="white"/>
<path d="M26.7188 21.1996C26.906 21.2027 27.0298 21.2549 27.1533 21.3568C27.4968 21.6405 27.8751 22.3484 28.1807 23.6556C28.4705 24.8955 28.6273 26.3439 28.7861 27.7924C28.9351 29.1503 29.0937 30.6338 29.4307 31.6693C30.1672 33.9338 31.3379 35.5901 32.8193 36.8109C34.2805 38.0149 35.9741 38.737 37.6738 39.2523C39.3489 39.7601 41.1657 40.1022 42.8076 40.4623C44.1567 40.7582 45.4288 41.076 46.6084 41.5121C46.5305 42.6166 46.1366 43.1477 45.6973 43.4906C44.9888 44.0435 43.8597 44.3583 42.1631 44.6732C39.0701 45.2473 34.3207 45.7123 31.4229 49.7504V49.7513C29.3376 52.6594 29.1552 56.225 28.8027 58.8031C28.4693 61.2416 28.0156 62.8641 26.5879 63.8676C24.8796 62.7901 24.434 60.9736 24.0781 58.2338C23.7072 55.3779 23.4699 51.4751 20.6719 48.5072C19.4209 47.1805 17.7223 46.3906 16.0508 45.851C14.3758 45.3102 12.548 44.9681 10.9697 44.6527C9.31912 44.3229 7.99248 44.0295 7.05469 43.6088C6.1343 43.1958 6.00406 42.8579 5.98242 42.6117C5.94348 42.1682 6.07784 41.8835 6.49902 41.5697C7.01036 41.1887 7.84952 40.8647 8.99902 40.5873C10.1303 40.3143 11.3589 40.1288 12.6045 39.9154C13.7797 39.7141 15.0444 39.4778 16.0078 39.0834L16.0107 39.0824C21.6093 36.7789 23.2505 32.2367 23.9717 28.3949C24.1505 27.4423 24.2772 26.5138 24.3906 25.6771C24.5064 24.8234 24.6062 24.0842 24.7354 23.4359C25.0206 22.0037 25.3437 21.654 25.5195 21.5648V21.5638C26.1148 21.2616 26.4986 21.196 26.7188 21.1996Z" fill="white" stroke="black" stroke-width="3" stroke-linejoin="round"/>
<path d="M59.8286 2.38821C59.9321 2.62276 60.0413 2.97675 60.1392 3.47318C60.2685 4.12931 60.3494 4.85346 60.4399 5.60696C60.5231 6.29859 60.6218 7.10145 60.8071 7.71829C61.3183 9.42315 62.1115 10.6536 63.1313 11.5152C64.1414 12.3684 65.2632 12.765 66.2632 12.9908C66.7595 13.1028 67.2442 13.1768 67.6733 13.2378C68.1222 13.3017 68.4847 13.3489 68.8296 13.4126C69.5445 13.5448 69.8084 13.6922 69.9282 13.8159C69.9496 13.8381 69.9665 13.861 69.9839 13.8804C69.9549 13.8992 69.923 13.9214 69.8862 13.9429C69.6594 14.0754 69.3532 14.2127 68.9722 14.3501C68.2046 14.6269 67.2998 14.8475 66.4448 15.0503C66.034 15.1478 65.6201 15.245 65.2749 15.3374C65.0456 15.3989 64.7585 15.4792 64.4946 15.5874L64.2427 15.7046C61.3168 17.2534 60.6628 20.4886 60.3101 22.6792C60.1105 23.9185 60.0113 24.8183 59.8071 25.5308C59.803 25.5452 59.7975 25.5591 59.7935 25.5728C59.6307 25.1186 59.4806 24.485 59.3257 23.6773C59.1407 22.7126 58.9456 21.4796 58.7036 20.4419C58.4835 19.4982 58.1619 18.3983 57.5688 17.5806L57.4458 17.4204C56.7066 16.5083 55.6736 15.9664 54.7271 15.605C53.7739 15.2411 52.7313 14.9978 51.8716 14.7925C50.9439 14.571 50.2737 14.4016 49.8159 14.1939C49.7417 14.1602 49.6857 14.13 49.6431 14.106C49.6575 14.0845 49.6996 14.0318 49.8101 13.9556C50.1353 13.7312 50.6939 13.529 51.5825 13.2847C52.3765 13.0664 53.4419 12.8128 54.3872 12.4634C55.3452 12.1093 56.4062 11.5826 57.1938 10.6734C57.9559 9.7936 58.3816 8.67817 58.6616 7.65872C58.9435 6.63259 59.1226 5.52045 59.2847 4.60794C59.4588 3.62762 59.6087 2.91208 59.8101 2.43021C59.8162 2.41555 59.8228 2.40165 59.8286 2.38821Z" fill="white" stroke="black" stroke-width="3" stroke-linejoin="round"/>
</svg>
