<svg width="155" height="159" viewBox="0 0 155 159" fill="none" xmlns="http://www.w3.org/2000/svg">
<path d="M51.5127 5.68567C51.5373 5.68609 51.5379 5.68696 51.5527 5.69934C51.6486 5.77952 51.8181 6.05373 51.9658 6.69348C52.1028 7.28718 52.178 7.98489 52.2559 8.70325C52.3272 9.36204 52.4072 10.1242 52.5811 10.6652C52.9535 11.8246 53.5499 12.6841 54.3125 13.3204C55.062 13.9458 55.924 14.3164 56.7705 14.5763C57.6001 14.831 58.5043 15.0029 59.292 15.1779C59.8705 15.3063 60.4098 15.4418 60.9102 15.6144C60.8513 15.9634 60.713 16.1179 60.5889 16.2159C60.3034 16.4415 59.8198 16.5888 58.9873 16.7452C57.5203 17.021 55.0728 17.2597 53.5859 19.3575C52.5245 20.8565 52.4317 22.6971 52.2646 23.9347C52.1171 25.0274 51.9273 25.7019 51.4443 26.1349C50.8513 25.6637 50.6592 24.9053 50.499 23.6564C50.3223 22.2788 50.205 20.2557 48.7734 18.7179C48.1195 18.0155 47.2413 17.6074 46.4082 17.3351C45.5736 17.0623 44.6643 16.8906 43.9023 16.7365C43.092 16.5725 42.4786 16.4325 42.0557 16.2404C41.8541 16.1488 41.7582 16.0719 41.7178 16.0275C41.6925 15.9997 41.6898 15.9885 41.6875 15.962C41.6772 15.8424 41.6929 15.7829 41.8359 15.6749C42.0393 15.5215 42.4033 15.373 42.9541 15.2384C43.493 15.1067 44.0768 15.0179 44.6914 14.9113C45.2587 14.8129 45.9051 14.6916 46.4072 14.4835L46.4092 14.4825C49.2609 13.2944 50.0884 10.9445 50.4453 9.01965C50.5337 8.54297 50.5952 8.07894 50.6504 7.66711C50.7071 7.24388 50.7553 6.8869 50.8164 6.57629C50.938 5.95855 51.0612 5.83972 51.0664 5.83215L51.0596 5.83508C51.3239 5.69919 51.4654 5.6849 51.5127 5.68567Z" fill="black" stroke="black" stroke-width="2" stroke-linejoin="round"/>
<path d="M50.8271 5C50.8517 5.00042 50.8524 5.00129 50.8672 5.01367C50.963 5.09385 51.1326 5.36806 51.2803 6.00781C51.4173 6.60151 51.4925 7.29922 51.5703 8.01758C51.6417 8.67637 51.7217 9.4385 51.8955 9.97949C52.2679 11.1389 52.8643 11.9984 53.627 12.6348C54.3764 13.2601 55.2384 13.6307 56.085 13.8906C56.9146 14.1453 57.8187 14.3172 58.6064 14.4922C59.185 14.6207 59.7243 14.7561 60.2246 14.9287C60.1658 15.2777 60.0274 15.4322 59.9033 15.5303C59.6178 15.7559 59.1342 15.9031 58.3018 16.0596C56.8347 16.3353 54.3872 16.574 52.9004 18.6719C51.8389 20.1708 51.7462 22.0114 51.5791 23.249C51.4316 24.3417 51.2418 25.0163 50.7588 25.4492C50.1657 24.978 49.9737 24.2197 49.8135 22.9707C49.6368 21.5931 49.5194 19.57 48.0879 18.0322C47.4339 17.3299 46.5557 16.9217 45.7227 16.6494C44.888 16.3766 43.9787 16.205 43.2168 16.0508C42.4064 15.8868 41.793 15.7468 41.3701 15.5547C41.1685 15.4631 41.0727 15.3862 41.0322 15.3418C41.007 15.314 41.0042 15.3028 41.002 15.2764C40.9916 15.1568 41.0073 15.0972 41.1504 14.9893C41.3537 14.8358 41.7178 14.6873 42.2686 14.5527C42.8075 14.421 43.3912 14.3322 44.0059 14.2256C44.5732 14.1272 45.2195 14.006 45.7217 13.7979L45.7236 13.7969C48.5753 12.6088 49.4029 10.2589 49.7598 8.33398C49.8481 7.85731 49.9097 7.39327 49.9648 6.98145C50.0215 6.55821 50.0698 6.20123 50.1309 5.89062C50.2524 5.27288 50.3757 5.15405 50.3809 5.14648L50.374 5.14941C50.6383 5.01353 50.7798 4.99923 50.8271 5Z" fill="white" stroke="black" stroke-width="2" stroke-linejoin="round"/>
<path d="M13.3369 23.7941C13.4028 23.7953 13.4376 23.8103 13.4814 23.8469C13.6353 23.9756 13.8408 24.3387 14.0127 25.0832C14.174 25.782 14.2617 26.6013 14.3516 27.4308C14.4349 28.2006 14.5265 29.0636 14.7217 29.6711C15.1444 30.9871 15.8179 31.9573 16.6768 32.674C17.5225 33.3797 18.4999 33.8001 19.4697 34.0978C20.4227 34.3904 21.4588 34.588 22.3779 34.7922C23.0967 34.9518 23.7703 35.12 24.3945 35.3449C24.3373 35.8735 24.1409 36.1172 23.9443 36.2726C23.579 36.5614 22.9798 36.7357 22.0195 36.9162C20.2969 37.2399 17.5413 37.512 15.8643 39.8781L15.8633 39.8791C14.6625 41.5751 14.5577 43.6555 14.3613 45.1096C14.1808 46.4466 13.9405 47.2995 13.2588 47.8381C12.4349 47.256 12.197 46.2981 12.0029 44.7853C11.7959 43.1712 11.661 40.8893 10.0449 39.1535C9.31411 38.3686 8.32725 37.9068 7.37305 37.5949C6.41719 37.2825 5.37462 37.0848 4.48828 36.9055C3.55364 36.7163 2.82462 36.5518 2.31543 36.3205C1.8211 36.0959 1.80291 35.9379 1.79688 35.8683C1.7794 35.6667 1.82917 35.5482 2.03125 35.3957C2.29344 35.1979 2.74091 35.0196 3.38379 34.8625C4.01478 34.7083 4.69898 34.6033 5.40625 34.4807C6.06629 34.3662 6.79764 34.2285 7.36035 33.9953H7.3623C10.592 32.6497 11.5319 29.9932 11.9414 27.7844C12.043 27.2366 12.1148 26.7032 12.1787 26.2258C12.2441 25.7371 12.3002 25.3196 12.3721 24.9543C12.5337 24.1326 12.7075 23.9996 12.7363 23.9846H12.7373C13.0585 23.8195 13.2482 23.7926 13.3369 23.7941Z" fill="black" stroke="black" stroke-width="2" stroke-linejoin="round"/>
<path d="M12.543 23C12.6088 23.0012 12.6437 23.0161 12.6875 23.0527C12.8414 23.1814 13.0469 23.5446 13.2188 24.2891C13.3801 24.9879 13.4678 25.8071 13.5576 26.6367C13.641 27.4064 13.7325 28.2694 13.9277 28.877C14.3505 30.193 15.024 31.1632 15.8828 31.8799C16.7286 32.5856 17.7059 33.006 18.6758 33.3037C19.6287 33.5962 20.6649 33.7939 21.584 33.998C22.3027 34.1577 22.9763 34.3258 23.6006 34.5508C23.5433 35.0794 23.347 35.3231 23.1504 35.4785C22.785 35.7672 22.1859 35.9416 21.2256 36.1221C19.503 36.4458 16.7474 36.7179 15.0703 39.084L15.0693 39.085C13.8685 40.781 13.7637 42.8614 13.5674 44.3154C13.3868 45.6525 13.1465 46.5054 12.4648 47.0439C11.641 46.4618 11.403 45.5039 11.209 43.9912C11.002 42.3771 10.8671 40.0951 9.25098 38.3594C8.52016 37.5745 7.5333 37.1127 6.5791 36.8008C5.62324 36.4883 4.58068 36.2907 3.69434 36.1113C2.75969 35.9222 2.03068 35.7577 1.52148 35.5264C1.02715 35.3018 1.00896 35.1438 1.00293 35.0742C0.985451 34.8726 1.03522 34.754 1.2373 34.6016C1.4995 34.4038 1.94697 34.2255 2.58984 34.0684C3.22084 33.9142 3.90504 33.8092 4.6123 33.6865C5.27235 33.572 6.0037 33.4344 6.56641 33.2012H6.56836C9.7981 31.8556 10.738 29.199 11.1475 26.9902C11.249 26.4425 11.3208 25.9091 11.3848 25.4316C11.4502 24.943 11.5063 24.5255 11.5781 24.1602C11.7397 23.3385 11.9135 23.2055 11.9424 23.1904H11.9434C12.2645 23.0254 12.4543 22.9985 12.543 23Z" fill="white" stroke="black" stroke-width="2" stroke-linejoin="round"/>
<path d="M82.5626 10.5994C83.3783 10.7346 84.0001 11.1019 84.4989 11.6625C85.5534 12.8481 86.1111 14.9532 86.3289 17.6826C86.543 20.3652 86.4162 23.4079 86.303 26.2855C86.1921 29.1033 86.088 31.8391 86.401 33.733C87.117 38.0701 88.7599 41.3314 91.0329 43.8806C93.2946 46.4172 96.1388 48.2019 99.187 49.6559C102.219 51.1021 105.54 52.2582 108.722 53.4767C111.74 54.6328 114.667 55.8566 117.3 57.4707C116.886 61.0516 115.542 62.8818 113.738 63.9182C111.717 65.0792 108.949 65.3608 105.592 65.4903C99.0785 65.7416 90.6303 65.3689 84.4532 71.8193C79.9565 76.5184 78.6774 82.8775 77.1579 88.1336C75.6496 93.3508 73.9307 97.4867 69.1725 99.2554C64.4535 95.9538 64.1278 91.0264 64.2452 85.0548C64.3631 79.0602 64.9505 72.0422 60.7982 66.0052C59.0189 63.4183 56.2736 61.5448 53.2855 60.0526C50.2959 58.5596 46.9505 57.396 43.9145 56.2985C40.8318 55.1841 38.1058 54.1501 36.1773 52.9041C34.2628 51.6671 33.3797 50.3873 33.4752 48.817C33.5788 47.1146 34.4209 46.0232 35.8287 45.2556C37.3028 44.4519 39.3671 44.03 41.7555 43.8086C44.1317 43.5882 46.6873 43.5755 49.1272 43.5157C51.5192 43.457 53.8439 43.3528 55.5992 42.9126L55.6013 42.9119C66.2656 40.2171 70.4581 32.4905 72.9038 25.3627C73.5137 23.5851 74.0195 21.8319 74.4881 20.2044C74.9599 18.5659 75.3897 17.0675 75.8573 15.7516C76.8242 13.0307 77.8188 11.5103 79.1726 11.0504L79.1736 11.0505C80.6216 10.5583 81.7246 10.4605 82.5626 10.5994Z" fill="black" stroke="black" stroke-width="2" stroke-linejoin="round"/>
<path d="M79.9743 8.91933C80.4383 8.99626 80.7552 9.18637 81.0352 9.50117C81.7374 10.2909 82.2751 11.9508 82.49 14.6432C82.6955 17.2188 82.5751 20.1648 82.4609 23.068C82.3526 25.8207 82.2337 28.7369 82.5773 30.8174C83.3367 35.4179 85.0968 38.9455 87.5702 41.7194C90.0154 44.4618 93.0541 46.3507 96.1978 47.8502C99.3013 49.3305 102.722 50.5238 105.842 51.7189C108.513 52.7417 111.036 53.7909 113.324 55.0902C112.851 57.641 111.806 58.7918 110.647 59.4577C108.99 60.4098 106.585 60.7018 103.19 60.8328C96.9042 61.0753 87.7129 60.6409 81.0268 67.6228L81.0257 67.6236C76.2079 72.6584 74.838 79.4936 73.3737 84.5584C71.9651 89.4308 70.5142 92.7522 67.0472 94.3801C63.6345 91.5871 63.2908 87.5868 63.4021 81.9256C63.5165 76.1085 64.1753 68.5172 59.6906 61.9966C57.7018 59.1052 54.6947 57.0908 51.6121 55.5514C48.5258 54.0101 45.0821 52.8141 42.0805 51.729C38.9626 50.6019 36.4077 49.621 34.6489 48.4846C32.9247 47.3706 32.5818 46.5248 32.6288 45.7496C32.6961 44.6434 33.1729 43.9752 34.2034 43.4133C35.3993 42.7612 37.2107 42.36 39.5511 42.143C41.8608 41.9288 44.3374 41.9166 46.8213 41.8557C49.1854 41.7978 51.6781 41.696 53.6216 41.2086L53.6258 41.2072C65.0192 38.3281 69.4688 30.0064 71.979 22.6904C72.6029 20.8721 73.1184 19.0841 73.5859 17.4603C74.0614 15.8091 74.4792 14.3583 74.9284 13.0944C75.9058 10.3438 76.7067 9.51692 77.3118 9.31133L77.3128 9.31147C78.611 8.8702 79.4549 8.83322 79.9743 8.91933Z" fill="white" stroke="black" stroke-width="5" stroke-linejoin="round"/>
<path d="M113.499 34.6055C118.999 28.0089 132.644 19.7887 147.574 20.8088M118.999 40.5089C124.137 35.485 135.999 32.0089 147.574 34.6056" stroke="black" stroke-width="5" stroke-linecap="round"/>
<path d="M101.335 134.58C101.451 138.101 101.189 141.664 101.32 145.188C101.451 148.713 102.448 153.189 101.751 156.755C100.376 158.169 98.5811 157.491 98.2807 155.55C97.8185 152.596 97.6028 148.247 97.4718 145.188C97.3177 141.668 97.6182 138.101 97.4872 134.58H78.9984V155.958C78.9984 157.903 75.1466 157.718 75.1466 156.343V134.58H58.9689C58.8341 138.228 59.1461 141.926 58.9843 145.574C58.8533 148.509 58.6453 152.719 58.1754 155.55C57.8596 157.46 55.8797 158.404 54.7049 156.755C53.8806 155.604 55.0631 147.962 55.1363 145.959C55.2711 142.176 55.0054 138.359 55.1209 134.58H37.2099C36.817 134.869 36.7901 134.916 36.7901 135.366C36.7901 137.227 37.3601 139.511 37.4179 141.306C37.572 146.175 37.2792 151.078 37.3948 155.95C36.7592 157.919 34.5598 158.211 33.7201 156.174C34.3095 133.49 30.6926 110.984 21.4212 90.2806C20.5546 89.5179 17.9122 90.0456 16.5025 89.8068C6.4954 88.1351 5.79437 72.0268 18.7019 71.0137H135.058C144.06 70.6748 148.613 82.2996 141.521 87.9079C138.925 89.9647 136.838 89.699 133.879 90.2806C128.71 102.795 124.7 115.938 122.952 129.427C122.424 133.49 121.912 138.39 121.731 142.457C121.619 145.019 122.239 155.118 121.557 156.532C120.983 157.722 119.015 157.846 118.341 156.659C117.293 149.734 118.098 142.515 118.676 135.532C118.719 135.208 118.279 134.573 118.087 134.573H101.331L101.335 134.58ZM117.821 74.6075C88.1927 74.8155 58.4373 75.6629 28.7128 75.2816C24.2177 75.2238 14.7345 72.8896 13.005 78.7944C11.9689 82.3381 14.0411 85.3849 17.5502 86.0551H136.591C141.159 85.7046 143.147 78.4362 139.222 76.0904C137.431 75.0196 132.616 74.6229 130.417 74.4958C126.253 74.257 121.989 74.5767 117.821 74.6036V74.6075ZM52.8021 108.388L47.9873 89.8993H25.8393L31.617 108.388H52.8021ZM75.1427 89.8993H52.4169L56.6539 108.388H75.1427V89.8993ZM104.031 89.8993H78.9946V108.388H99.6019L104.031 89.8993ZM129.839 89.8993H108.461C106.177 95.6847 104.713 102.129 104.031 108.388H123.676L129.839 89.8993ZM55.1132 130.729L53.5109 112.879L52.9947 112.24H33.1578L36.2392 130.729H55.1132ZM75.1427 112.24H57.0391L58.965 130.729H75.1427V112.24ZM99.4093 112.24H78.9946V130.729H97.4834L99.4093 112.24ZM122.52 112.24H103.454C102.745 113.033 102.699 114.751 102.537 115.945C101.882 120.845 101.882 125.825 101.335 130.729H119.054L122.52 112.24Z" fill="black" stroke="black"/>
<path d="M117.821 74.6073C121.989 74.5765 126.253 74.2568 130.417 74.4994C132.616 74.6266 137.431 75.0233 139.222 76.0941C143.147 78.4399 141.159 85.7083 136.591 86.0588H17.5502C14.0412 85.3886 11.9651 82.3418 13.0051 78.7981C14.7345 72.8932 24.2177 75.2274 28.7128 75.2852C58.4374 75.6627 88.1928 74.8191 117.821 74.6111V74.6073Z" fill="white"/>
</svg>
