<svg width="146" height="149" viewBox="0 0 146 149" fill="none" xmlns="http://www.w3.org/2000/svg">
<path d="M104.999 24.6055C110.499 18.0089 124.144 9.78873 139.074 10.8088M110.499 30.5089C115.637 25.485 127.499 22.0089 139.074 24.6056" stroke="black" stroke-width="5" stroke-linecap="round"/>
<path d="M92.8352 124.58C92.9508 128.101 92.6888 131.664 92.8198 135.188C92.9507 138.713 93.9484 143.189 93.2512 146.755C91.8761 148.169 90.0811 147.491 89.7807 145.55C89.3185 142.596 89.1028 138.247 88.9718 135.188C88.8177 131.668 89.1182 128.101 88.9872 124.58H70.4984V145.958C70.4984 147.903 66.6466 147.718 66.6466 146.343V124.58H50.4689C50.3341 128.228 50.6461 131.926 50.4843 135.574C50.3533 138.509 50.1453 142.719 49.6754 145.55C49.3596 147.46 47.3797 148.404 46.2049 146.755C45.3806 145.604 46.5631 137.962 46.6363 135.959C46.7711 132.176 46.5054 128.359 46.6209 124.58H28.7099C28.317 124.869 28.2901 124.916 28.2901 125.366C28.2901 127.227 28.8601 129.511 28.9179 131.306C29.072 136.175 28.7792 141.078 28.8948 145.95C28.2592 147.919 26.0598 148.211 25.2201 146.174C25.8095 123.49 22.1926 100.984 12.9212 80.2806C12.0546 79.5179 9.41223 80.0456 8.00246 79.8068C-2.0046 78.1351 -2.70563 62.0268 10.2019 61.0137H126.558C135.56 60.6748 140.113 72.2996 133.021 77.9079C130.425 79.9647 128.338 79.699 125.379 80.2806C120.21 92.7952 116.2 105.938 114.452 119.427C113.924 123.49 113.412 128.39 113.231 132.457C113.119 135.019 113.739 145.118 113.057 146.532C112.483 147.722 110.515 147.846 109.841 146.659C108.793 139.734 109.598 132.515 110.176 125.532C110.219 125.208 109.779 124.573 109.587 124.573H92.8313L92.8352 124.58ZM109.321 64.6075C79.6927 64.8155 49.9373 65.6629 20.2128 65.2816C15.7177 65.2238 6.23447 62.8896 4.505 68.7944C3.46885 72.3381 5.54114 75.3849 9.05016 76.0551H128.091C132.659 75.7046 134.647 68.4362 130.722 66.0904C128.931 65.0196 124.116 64.6229 121.917 64.4958C117.753 64.257 113.489 64.5767 109.321 64.6036V64.6075ZM44.3021 98.388L39.4873 79.8993H17.3393L23.117 98.388H44.3021ZM66.6427 79.8993H43.9169L48.1539 98.388H66.6427V79.8993ZM95.5315 79.8993H70.4946V98.388H91.1019L95.5315 79.8993ZM121.339 79.8993H99.9611C97.6769 85.6847 96.2132 92.1288 95.5315 98.388H115.176L121.339 79.8993ZM46.6132 120.729L45.0109 102.879L44.4947 102.24H24.6578L27.7392 120.729H46.6132ZM66.6427 102.24H48.5391L50.465 120.729H66.6427V102.24ZM90.9093 102.24H70.4946V120.729H88.9834L90.9093 102.24ZM114.02 102.24H94.9537C94.245 103.033 94.1987 104.751 94.037 105.945C93.3821 110.845 93.3822 115.825 92.8352 120.729H110.554L114.02 102.24Z" fill="black" stroke="black"/>
<path d="M109.321 64.6073C113.489 64.5765 117.753 64.2568 121.917 64.4994C124.116 64.6266 128.931 65.0233 130.722 66.0941C134.647 68.4399 132.659 75.7083 128.091 76.0588H9.05021C5.54119 75.3886 3.46506 72.3418 4.50505 68.7981C6.23452 62.8932 15.7177 65.2274 20.2128 65.2852C49.9374 65.6627 79.6928 64.8191 109.321 64.6111V64.6073Z" fill="#4E8CFF"/>
</svg>
