<svg width="136" height="171" viewBox="0 0 136 171" fill="none" xmlns="http://www.w3.org/2000/svg">
<path d="M131.931 110.09H92.5598L92.0836 109.614V88.3411C92.0836 88.249 91.6137 86.9346 91.5057 86.6964C90.5881 84.658 88.6577 83.9119 86.5367 83.7277L48.4231 83.7372C46.6959 83.6134 43.5017 86.0678 43.5017 87.7061V104.693H3.9752C2.53371 104.693 0.447686 107.119 0.22543 108.563L0 167.728C0.190505 169.442 0.984274 170.236 2.69882 170.426L133.912 170.176C135.096 169.56 135.582 168.404 135.595 167.096C134.595 150.484 136.884 132.389 135.595 115.955C135.423 113.78 134.388 110.586 131.931 110.094V110.09Z" fill="#4E8CFF" fill-opacity="0.25"/>
<path d="M131.931 110.09C134.385 110.586 135.423 113.78 135.595 115.952C136.884 132.389 134.595 150.484 135.595 167.093C135.585 168.401 135.1 169.556 133.912 170.172L2.69882 170.423C0.984274 170.233 0.190505 169.439 0 167.724L0.222255 108.563C0.444511 107.122 2.53371 104.693 3.97202 104.693H43.5017V87.7061C43.5017 86.0678 46.6959 83.6134 48.4231 83.7372L86.5367 83.7277C88.6545 83.9119 90.5881 84.658 91.5057 86.6964C91.6137 86.9377 92.0836 88.249 92.0836 88.3411V109.614L92.5598 110.09H131.931ZM87.0035 88.8174H48.585V150.096H87.0035V88.8174ZM43.5049 109.773H5.08647V150.096H43.5049V109.773ZM130.502 115.171H92.0836V150.096H130.502V115.171ZM130.502 155.176H5.08647V165.337H130.502V155.176Z" fill="black"/>
<path d="M87.0034 88.8175V150.096H48.585V88.8175H87.0034ZM65.0922 111.996L65.1144 127.058C65.5557 129.871 69.8104 129.989 70.1818 126.766C70.9407 120.213 69.6167 112.215 70.1564 105.506C69.9056 103.909 68.4482 103.147 66.9115 103.486C66.1876 103.645 62.2505 107.449 61.7742 108.201C60.1962 110.697 62.4632 113.17 65.0922 111.999V111.996Z" fill="#4E8CFF"/>
<path d="M65.0921 111.995C62.4631 113.167 60.1993 110.697 61.7741 108.198C62.2472 107.445 66.1843 103.642 66.9114 103.483C68.4481 103.143 69.9055 103.905 70.1563 105.502L70.1817 126.763C69.8071 129.985 65.5556 129.868 65.1143 127.055L65.0921 111.992V111.995Z" fill="black"/>
<path d="M26.6767 138.031C28.2356 138.117 30.4645 137.539 31.4012 139.181C32.268 140.705 31.4075 142.406 29.8009 142.902C28.3499 143.349 20.6504 143.318 18.9263 143.086C17.034 142.832 15.8115 141.851 16.2021 139.79C16.5672 137.853 26.2448 132.799 26.9338 129.22C27.4292 126.655 24.7335 125.531 22.5395 126.118C20.9139 126.553 20.1551 128.652 17.9865 127.512C14.9765 125.931 17.1927 123.115 19.3549 121.978C27.0831 117.92 35.478 125.391 30.6169 133.24C29.6485 134.802 28.1626 135.758 27.1497 137.075C26.9053 137.393 26.5338 137.479 26.6767 138.028V138.031Z" fill="black"/>
<path d="M109.788 120.648C114.674 120.063 118.919 124.28 118.04 129.227C117.897 130.036 117.214 130.874 117.173 131.544C117.11 132.532 118.056 133.989 118.132 135.323C118.51 141.794 111.023 145.077 105.946 141.47C102.828 139.253 104.384 135.615 107.721 136.52C109.019 136.872 109.95 138.714 112.058 137.533C114.992 135.888 111.115 133.446 111.115 131.84C111.115 130.233 115.227 127.404 111.683 125.89C109.14 124.804 107.219 128.998 104.955 126.585C102.209 123.654 107.184 120.959 109.785 120.648H109.788Z" fill="black"/>
<path d="M61.2344 2C61.3043 2.0012 61.3193 2.01071 61.3584 2.04297C61.5652 2.21383 61.9142 2.77587 62.2168 4.07031C62.4983 5.2749 62.6527 6.69049 62.8125 8.14746C62.9591 9.48405 63.1227 11.0288 63.4795 12.125C64.2439 14.4748 65.4657 16.2126 67.0244 17.4971C68.5561 18.7593 70.3188 19.5059 72.0518 20.0312C73.7518 20.5466 75.6028 20.8965 77.2236 21.252C78.4262 21.5157 79.549 21.7919 80.5908 22.1494C80.4713 22.8681 80.1786 23.1892 79.9131 23.3965C79.3141 23.8639 78.3046 24.1642 76.5957 24.4814C73.5777 25.0416 68.5804 25.5229 65.54 29.7598H65.5391C63.3629 32.7947 63.1735 36.5231 62.8301 39.0352C62.5237 41.2761 62.1304 42.6624 61.0947 43.5488C59.8259 42.5851 59.4288 41.0268 59.0967 38.4697C58.7334 35.6725 58.4927 31.576 55.5596 28.4648C54.2243 27.0486 52.432 26.225 50.7275 25.6748C49.0187 25.1232 47.1571 24.7759 45.5908 24.4629C43.9283 24.1307 42.6601 23.8465 41.7832 23.4531C41.3639 23.265 41.1605 23.1044 41.0723 23.0088C41.0152 22.9469 41.0086 22.922 41.0039 22.8682C40.9827 22.6263 41.0144 22.4992 41.3213 22.2705C41.7485 21.9523 42.5058 21.6477 43.6396 21.374C44.7495 21.1062 45.952 20.9248 47.2119 20.709C48.3782 20.5092 49.6978 20.2654 50.7207 19.8467L50.7236 19.8457C56.5536 17.4471 58.2524 12.6967 58.9863 8.78711C59.1678 7.82042 59.2959 6.88017 59.4092 6.04492C59.5256 5.18671 59.6235 4.46404 59.749 3.83398C60.0328 2.40914 60.3215 2.28308 60.2705 2.30957C60.8186 2.03149 61.1206 1.99808 61.2344 2Z" fill="white" stroke="black" stroke-width="4" stroke-linejoin="round"/>
<path d="M91.1982 41.0215C91.2304 41.0706 91.2734 41.1422 91.3213 41.2451C91.437 41.4938 91.5499 41.8383 91.6543 42.2881C91.8668 43.2036 91.9851 44.2872 92.1104 45.4375C92.2085 46.3392 92.3211 47.4191 92.5449 48.2852L92.6475 48.6426C93.266 50.5576 94.2622 51.9917 95.5439 53.0557C96.7995 54.0978 98.2347 54.7064 99.6152 55.1279C100.962 55.5392 102.435 55.8191 103.679 56.0938C104.462 56.2667 105.189 56.4447 105.866 56.6572C105.779 56.8684 105.669 56.9621 105.594 57.0215C105.224 57.3117 104.545 57.5333 103.203 57.7842C100.917 58.2115 96.8045 58.6045 94.3115 62.1035H94.3105C92.5384 64.5928 92.3859 67.6556 92.126 69.5703C91.9235 71.0616 91.6797 71.9664 91.1934 72.5625C90.5771 71.9046 90.3194 70.8789 90.0938 69.1289C89.8173 66.9851 89.6264 63.607 87.2266 61.043C86.1126 59.853 84.6336 59.177 83.2754 58.7354C81.9136 58.2926 80.433 58.0149 79.2236 57.7715C77.9174 57.5086 76.9818 57.2937 76.3535 57.0098C76.2022 56.9414 76.1037 56.8851 76.041 56.8438C76.0514 56.8358 76.0627 56.8253 76.0771 56.8145C76.3352 56.6208 76.8524 56.3988 77.7217 56.1875C78.5666 55.9821 79.4794 55.8434 80.4736 55.6719C81.374 55.5165 82.4524 55.3184 83.3027 54.9678L83.3057 54.9668C88.0522 53 89.4223 49.0918 90.0039 45.9717C90.1475 45.2013 90.2488 44.4531 90.3369 43.7988C90.4281 43.1218 90.5029 42.5689 90.5977 42.0898C90.7179 41.4818 90.8311 41.2306 90.873 41.1484C91.02 41.0792 91.1263 41.0406 91.1982 41.0215ZM76.002 56.9053C76.0004 56.8904 75.9753 56.9012 75.9961 56.8809C75.9974 56.8887 76.0012 56.8966 76.002 56.9053Z" fill="white" stroke="black" stroke-width="4" stroke-linejoin="round"/>
<path d="M32.6777 41.0244C32.7023 41.064 32.734 41.1164 32.7676 41.1865C32.8742 41.4096 32.9813 41.7243 33.0811 42.1426C33.2846 42.9961 33.3976 44.0095 33.5195 45.0986C33.6277 46.0652 33.756 47.2773 34.0479 48.1562C34.6571 49.9918 35.6381 51.364 36.8936 52.3779C38.1207 53.3689 39.5197 53.9438 40.8594 54.3418C42.1674 54.7304 43.5975 54.9956 44.8037 55.2549C45.519 55.4086 46.1857 55.567 46.8086 55.752C46.7495 55.8383 46.6906 55.8848 46.6484 55.917C46.3004 56.183 45.6484 56.3924 44.3428 56.6299C42.1377 57.031 38.123 57.4002 35.6816 60.7344H35.6807C33.9364 63.1184 33.785 66.0589 33.5352 67.8496C33.345 69.2127 33.1202 70.0317 32.6846 70.5732C32.1288 69.9735 31.8908 69.0418 31.6777 67.4336C31.4111 65.4211 31.2225 62.1773 28.8613 59.7227C27.7674 58.5856 26.3225 57.9449 25.0059 57.5283C23.6828 57.1098 22.2447 56.847 21.0713 56.6172C19.8026 56.3687 18.8968 56.1662 18.29 55.8994C18.2445 55.8794 18.2047 55.8593 18.1689 55.8418C18.4428 55.6858 18.9057 55.5113 19.6143 55.3438C20.4339 55.1499 21.3198 55.0185 22.2852 54.8564C23.1582 54.7099 24.2055 54.5225 25.0332 54.1904L25.0371 54.1895C29.6673 52.3224 31.0186 48.5968 31.5898 45.6143C31.7301 44.882 31.8286 44.1713 31.9141 43.5537C32.0027 42.9132 32.0743 42.3967 32.165 41.9502C32.2671 41.4481 32.3616 41.2176 32.4043 41.1289C32.5236 41.0753 32.6132 41.0422 32.6777 41.0244Z" fill="white" stroke="black" stroke-width="4" stroke-linejoin="round"/>
</svg>
