<svg width="99" height="110" viewBox="0 0 99 110" fill="none" xmlns="http://www.w3.org/2000/svg">
<path d="M67.6117 3.98705L24.9641 7.73075C12.1698 8.85387 2.89389 19.9296 4.01846 32.7404L7.53634 72.8154C8.6609 85.6262 19.7246 94.9164 32.5189 93.7933L47.9376 92.4398L48.6514 93.0392L70.1156 104.065L68.9333 90.5968L74.8384 90.0784C87.6327 88.9553 96.9086 77.8796 95.784 65.0688L92.2661 24.9938C91.1416 12.183 80.0779 2.89273 67.2836 4.01584L67.6117 3.98705Z" stroke="white" stroke-width="6"/>
<path d="M50.9993 25.6371L62.1533 24.658L64.7196 53.893C65.0079 57.1778 64.6113 60.1918 63.2017 62.9636C61.7921 65.7355 59.6399 67.5795 56.8315 69.4811C53.9943 71.0542 50.7714 71.9991 46.8347 72.3447C42.898 72.6903 39.5598 72.3213 36.4919 71.2665C33.424 70.2118 30.9546 68.4425 29.0837 65.9586C27.2127 63.4747 26.2971 60.576 26.0087 57.2911L23.4424 28.0562L34.5964 27.077L37.0762 55.3266C37.2204 56.969 37.6638 58.2541 38.4352 59.5105C39.2067 60.7668 40.2773 61.6658 41.6472 62.2076C43.0172 62.7494 44.3582 62.9627 45.9985 62.8187C47.6388 62.6747 48.9222 62.231 50.1768 61.4589C51.4313 60.6867 52.329 59.6149 52.8698 58.2434C53.4105 56.8718 53.6233 55.5291 53.4791 53.8867L50.9993 25.6371Z" fill="white"/>
</svg>
