<svg width="62" height="69" viewBox="0 0 62 69" fill="none" xmlns="http://www.w3.org/2000/svg">
<path d="M20.4204 3.28003L46.4054 5.69169C54.2009 6.41519 59.8215 13.1947 59.0971 21.0003L56.8309 45.4178C56.1065 53.2234 49.3342 58.8527 41.5387 58.1292L32.1442 57.2573L31.7072 57.6205L18.59 64.2759L19.3515 56.0701L15.7536 55.7361C7.95813 55.0126 2.33754 48.2331 3.06198 40.4275L5.32815 16.01C6.05259 8.20444 12.8248 2.57509 20.6203 3.29858L20.4204 3.28003Z" stroke="white" stroke-width="5"/>
<path d="M34.2787 16.8801L41.0748 17.5108L39.4216 35.3236C39.2358 37.325 38.6689 39.0892 37.5209 40.5976C36.3728 42.106 34.8808 42.9768 32.9889 43.8106C31.1157 44.4442 29.0797 44.659 26.6811 44.4364C24.2824 44.2137 22.3207 43.6279 20.5961 42.6604C18.8714 41.6929 17.5837 40.3622 16.7329 38.6683C15.882 36.9744 15.6495 35.136 15.8352 33.1345L17.4884 15.3218L24.2845 15.9525L22.687 33.1648C22.5941 34.1656 22.7197 34.9847 23.0452 35.8224C23.3707 36.66 23.9146 37.3161 24.677 37.7906C25.4394 38.2651 26.2203 38.5394 27.2197 38.6322C28.2192 38.725 29.0373 38.599 29.874 38.2729C30.7106 37.9469 31.366 37.4021 31.8401 36.6386C32.3142 35.8751 32.5884 35.0931 32.6812 34.0924L34.2787 16.8801Z" fill="white"/>
<path d="M45.0704 46.1432C44.0709 46.0504 43.3086 45.5759 42.5647 44.9013C42.0208 44.2452 41.7139 43.2074 41.7882 42.4068C41.8811 41.4061 42.3552 40.6426 43.0106 40.0979C43.8658 39.5716 44.7025 39.2456 45.7019 39.3383C46.7013 39.4311 47.4637 39.9056 48.0077 40.5616C48.7515 41.2363 48.8771 42.0554 48.7842 43.0561C48.7285 43.6565 48.6727 44.257 48.0174 44.8018C47.5619 45.3651 47.1249 45.7283 46.5067 45.8728C45.8699 46.2174 45.2703 46.1617 44.6706 46.1061L45.0704 46.1432Z" fill="white"/>
</svg>
