<svg width="27" height="26" viewBox="0 0 27 26" fill="none" xmlns="http://www.w3.org/2000/svg">
<path d="M18.838 2.40159C17.7055 1.75151 16.4677 1.28592 15.1713 1.02954C12.8386 0.56822 10.4207 0.804985 8.22332 1.70989C6.02595 2.6148 4.14783 4.14721 2.82646 6.11334C1.50509 8.07946 0.799805 10.391 0.799805 12.7556C0.799805 14.7323 1.28082 16.5948 2.13597 18.238L0.799805 24.7115L7.31092 23.383C8.96242 24.2319 10.8384 24.7115 12.8253 24.7115C15.2037 24.7115 17.5287 24.0103 19.5062 22.6965C21.4838 21.3828 23.0252 19.5156 23.9353 17.3309C24.5426 15.8734 24.8507 14.3182 24.8507 12.7556C24.8507 12.3469 24.8296 11.9376 24.7873 11.5295" stroke="black" stroke-width="1.6" stroke-linecap="round" stroke-linejoin="round"/>
<path d="M25.519 3.78906L13.1595 16.077L8.31592 11.2615" stroke="black" stroke-width="1.6" stroke-linecap="round" stroke-linejoin="round"/>
</svg>
