<svg width="26" height="31" viewBox="0 0 26 31" fill="none" xmlns="http://www.w3.org/2000/svg">
<path d="M13 5.74512C16.3422 5.74901 19.5455 7.06029 21.9072 9.39062C24.2689 11.7209 25.5958 14.8796 25.5996 18.1729L25.5918 18.6328C25.5055 20.9283 24.7748 23.1595 23.4775 25.0752C22.0937 27.1186 20.126 28.7121 17.8232 29.6533C15.5204 30.5945 12.9861 30.8412 10.541 30.3613C8.09587 29.8814 5.85066 28.6964 4.08887 26.958C2.32712 25.2196 1.12736 23.0054 0.641602 20.5957C0.155918 18.1861 0.405451 15.6881 1.3584 13.418C2.31142 11.1479 3.92599 9.20696 5.99805 7.84082C7.94071 6.56002 10.2036 5.83809 12.5332 5.75293L13 5.74512ZM16.8828 8.91406C15.0288 8.15629 12.9884 7.95751 11.0205 8.34375C9.05279 8.73001 7.24495 9.6841 5.8252 11.085C4.4053 12.486 3.43698 14.2719 3.04492 16.2168C2.65298 18.1615 2.85426 20.1773 3.62305 22.0088C4.39194 23.8404 5.69421 25.4054 7.36328 26.5059C9.03223 27.6062 10.9938 28.1934 13 28.1934C15.6892 28.1904 18.2687 27.1347 20.1719 25.2568C22.0752 23.3787 23.1474 20.8312 23.1504 18.1729L23.1426 17.8008C23.073 15.9481 22.4844 14.1483 21.4385 12.6035C20.3226 10.9557 18.7367 9.67187 16.8828 8.91406ZM16.79 12.6904C16.952 12.6904 17.1125 12.7221 17.2617 12.7832C17.411 12.8444 17.5466 12.9335 17.6602 13.0459L17.6611 13.0469C17.7751 13.1589 17.8654 13.2926 17.9268 13.4385C17.988 13.5841 18.0195 13.7401 18.0195 13.8975C18.0195 14.055 17.9881 14.2116 17.9268 14.3574C17.8654 14.5032 17.7749 14.6361 17.6611 14.748L17.6602 14.749L13.8691 18.4902C13.6394 18.717 13.3262 18.8456 12.999 18.8457C12.6717 18.8457 12.3588 18.717 12.1289 18.4902C11.8993 18.2637 11.7706 17.9577 11.7705 17.6396C11.7705 17.3215 11.8992 17.0147 12.1289 16.7881L15.9199 13.0469L15.9209 13.0459C16.0343 12.9337 16.1694 12.8443 16.3184 12.7832C16.4676 12.7221 16.6282 12.6905 16.79 12.6904ZM9.75 0.400391H16.25C16.5765 0.400391 16.8889 0.527735 17.1182 0.753906C17.3473 0.980021 17.4746 1.28608 17.4746 1.60352C17.4746 1.92082 17.3472 2.22607 17.1182 2.45215C16.8888 2.67844 16.5766 2.80664 16.25 2.80664H9.75C9.4234 2.80664 9.11117 2.67844 8.88184 2.45215C8.65284 2.22607 8.52541 1.92082 8.52539 1.60352C8.52539 1.28608 8.65268 0.98002 8.88184 0.753906C9.11115 0.527734 9.42349 0.400392 9.75 0.400391Z" fill="black" stroke="white" stroke-width="0.8"/>
</svg>
