<svg xmlns="http://www.w3.org/2000/svg" width="23" height="24" viewBox="0 0 23 24" fill="none">
  <path d="M11.6753 1.51428C11.7529 1.51884 11.8523 1.53066 11.9538 1.56355L12.0555 1.60448L12.2104 1.67893L12.2868 1.83419L15.3947 8.16121L21.4555 10.2901L21.4886 10.3015L21.521 10.3179C21.9288 10.5308 22.108 10.9767 22.1777 11.3062C22.2501 11.6485 22.2478 12.0639 22.1083 12.3829C22.052 12.5115 21.9621 12.6117 21.891 12.6808C21.8142 12.7555 21.7246 12.8274 21.6307 12.8946C21.4425 13.0292 21.202 13.1718 20.9365 13.3175C20.404 13.6099 19.72 13.9397 19.0305 14.2638C18.3343 14.591 17.6333 14.9128 17.0454 15.1998C16.5146 15.459 16.1266 15.6682 15.9226 15.808C15.5002 16.6022 15.2301 17.7573 14.9401 18.9967C14.7935 19.623 14.642 20.2629 14.4619 20.8447C14.2828 21.4232 14.066 21.9771 13.7761 22.4221C13.5299 22.7996 13.2222 23.0886 12.8298 23.162C12.4244 23.2378 12.0889 23.0559 11.8595 22.862C11.6302 22.668 11.4397 22.4086 11.2904 22.176C11.139 21.9403 11.0063 21.6934 10.9092 21.5191C10.4381 20.6728 10.0556 19.739 9.68244 18.8415C9.32928 17.9921 8.9819 17.1726 8.56506 16.4285L2.47045 14.2627L2.41831 14.2448L2.37121 14.2148C1.84561 13.8834 1.6164 13.3656 1.66999 12.837C1.7208 12.3368 2.01675 11.8774 2.43097 11.5686C2.78509 11.3039 3.27345 11.0515 3.78826 10.812C4.30712 10.5707 4.89392 10.3245 5.44995 10.0833C6.01368 9.83882 6.55081 9.59734 7.00011 9.35552C7.45879 9.10864 7.77414 8.88763 7.93852 8.69937C7.99899 8.62731 8.08333 8.48502 8.18257 8.2508C8.27917 8.02279 8.37712 7.73983 8.47814 7.41494C8.68102 6.76242 8.88102 5.98526 9.09167 5.20328C9.29922 4.4328 9.51742 3.6559 9.75287 3.04412C9.87028 2.73907 9.99932 2.45505 10.1437 2.22615C10.2779 2.0133 10.4746 1.76843 10.7583 1.65895L10.7592 1.65791C10.9187 1.59688 11.1382 1.54788 11.3433 1.5255C11.4484 1.51404 11.5635 1.50774 11.6753 1.51428Z" fill="black" stroke="black"/>
  <path d="M10.5132 0.502566C10.5908 0.507124 10.6902 0.518943 10.7917 0.55183L10.8934 0.592762L11.0483 0.667212L11.1246 0.822473L14.2326 7.14949L20.2934 9.27841L20.3265 9.28982L20.3589 9.30618C20.7667 9.51909 20.9459 9.96499 21.0156 10.2945C21.0879 10.6367 21.0857 11.0522 20.9461 11.3712C20.8899 11.4997 20.7999 11.6 20.7289 11.6691C20.6521 11.7437 20.5625 11.8157 20.4686 11.8829C20.2804 12.0175 20.0398 12.1601 19.7744 12.3058C19.2419 12.5982 18.5579 12.928 17.8684 13.2521C17.1722 13.5793 16.4712 13.9011 15.8833 14.1881C15.3525 14.4473 14.9645 14.6564 14.7605 14.7963C14.3381 15.5904 14.068 16.7456 13.7779 17.985C13.6314 18.6113 13.4799 19.2511 13.2998 19.8329C13.1207 20.4115 12.9039 20.9654 12.614 21.4104C12.3678 21.7878 12.0601 22.0769 11.6677 22.1503C11.2623 22.226 10.9268 22.0442 10.6974 21.8503C10.468 21.6563 10.2776 21.3968 10.1282 21.1643C9.97689 20.9286 9.84414 20.6817 9.74706 20.5074C9.27598 19.6611 8.89346 18.7272 8.52034 17.8298C8.16717 16.9803 7.81979 16.1609 7.40295 15.4168L1.30834 13.251L1.2562 13.2331L1.2091 13.2031C0.683502 12.8717 0.454295 12.3539 0.507878 11.8253C0.558695 11.325 0.854645 10.8657 1.26886 10.5569C1.62298 10.2922 2.11134 10.0398 2.62615 9.80032C3.14501 9.55898 3.73182 9.31281 4.28784 9.07163C4.85157 8.8271 5.3887 8.58563 5.838 8.34381C6.29668 8.09692 6.61203 7.87591 6.77641 7.68766C6.83688 7.61559 6.92122 7.4733 7.02046 7.23908C7.11706 7.01107 7.21501 6.72812 7.31603 6.40322C7.51891 5.7507 7.71891 4.97354 7.92956 4.19156C8.13711 3.42108 8.35531 2.64418 8.59076 2.0324C8.70817 1.72735 8.83721 1.44333 8.98155 1.21443C9.1158 1.00158 9.31254 0.756715 9.59622 0.647232L9.59713 0.64619C9.75655 0.585157 9.97605 0.536162 10.1812 0.513783C10.2863 0.50232 10.4014 0.496017 10.5132 0.502566Z" fill="white" stroke="black"/>
</svg>