<svg width="215" height="221" viewBox="0 0 215 221" fill="none" xmlns="http://www.w3.org/2000/svg">
          <path d="M34.6172 30.4314C32.8481 30.5537 31.3798 30.2904 30.2122 29.6414C29.0434 28.9738 28.1538 28.0155 27.5435 26.7667C26.9332 25.5178 26.5701 24.0553 26.4542 22.3794L25.666 10.9826L26.8672 10.8995L27.6476 22.1846C27.7468 23.6185 28.0511 24.9072 28.5605 26.0508C29.0687 27.1757 29.8122 28.0505 30.7909 28.6752C31.787 29.2799 33.0486 29.5294 34.5756 29.4238C36.1398 29.3156 37.3637 28.8848 38.2472 28.1314C39.1306 27.378 39.7373 26.4099 40.0671 25.227C40.3957 24.0254 40.511 22.717 40.4131 21.3017L39.6327 10.0167L40.8059 9.93554L41.5941 21.3323C41.71 23.0083 41.5516 24.5068 41.1191 25.8278C40.7051 27.1475 39.9653 28.2184 38.8994 29.0406C37.8323 29.8441 36.4049 30.3077 34.6172 30.4314ZM46.6626 29.3738L45.6445 14.653L46.8177 14.5718L47.0186 17.4769C47.4141 16.7011 47.885 16.0698 48.4313 15.5829C48.9777 15.096 49.5883 14.7264 50.2632 14.4739C50.9368 14.2028 51.6553 14.0408 52.4188 13.988C53.8341 13.8901 54.9727 14.1201 55.8345 14.678C56.715 15.2346 57.3676 16.0127 57.7923 17.0125C58.2343 17.9923 58.4984 19.1061 58.5847 20.3538L59.1488 28.5103L57.9756 28.5914L57.4598 21.1332C57.4031 20.3139 57.2925 19.5263 57.128 18.7705C56.9634 18.0147 56.7016 17.3405 56.3426 16.7479C55.9835 16.1552 55.4844 15.7032 54.8454 15.3919C54.2238 15.0607 53.4288 14.9286 52.4604 14.9955C51.2313 15.0805 50.2184 15.45 49.4216 16.1038C48.6435 16.7564 48.0744 17.591 47.7143 18.6076C47.3716 19.6043 47.2395 20.6706 47.3181 21.8065L47.8358 29.2927L46.6626 29.3738ZM77.4411 27.4417C76.8266 27.4842 76.1604 27.4554 75.4424 27.3554C74.7245 27.2554 74.0242 27.0044 73.3415 26.6025C72.6774 26.1994 72.091 25.5664 71.5822 24.7034L71.7851 27.6364L70.6678 27.7137L69.302 7.96483L70.4752 7.8837L71.0315 15.9285C71.6555 14.6691 72.4634 13.7712 73.4555 13.2348C74.4661 12.6972 75.558 12.3878 76.7312 12.3066C78.221 12.2036 79.4559 12.4737 80.436 13.1169C81.4346 13.7589 82.1974 14.6417 82.7241 15.7654C83.2509 16.8891 83.5607 18.1213 83.6534 19.4621C83.7539 20.9146 83.5826 22.2269 83.1398 23.3989C82.6969 24.5709 81.9952 25.5176 81.0347 26.2389C80.0915 26.9403 78.8937 27.3413 77.4411 27.4417ZM77.3995 26.4342C78.6844 26.3453 79.7067 25.9752 80.4662 25.3239C81.2431 24.6528 81.7929 23.8101 82.1158 22.7961C82.4386 21.7821 82.56 20.6978 82.4802 19.5432C82.3978 18.3514 82.1362 17.2749 81.6955 16.3137C81.2722 15.3325 80.6302 14.5724 79.7696 14.0331C78.9077 13.4752 77.8064 13.2427 76.4656 13.3354C75.2365 13.4204 74.2249 13.8084 73.4307 14.4996C72.6365 15.1907 72.06 16.0538 71.7012 17.089C71.3424 18.1243 71.2017 19.2005 71.279 20.3179C71.3614 21.5097 71.6416 22.5849 72.1195 23.5436C72.6161 24.5009 73.304 25.2486 74.1832 25.7865C75.0611 26.3059 76.1332 26.5217 77.3995 26.4342ZM94.0998 26.2896C92.5728 26.3952 91.2654 26.1582 90.1774 25.5786C89.1081 24.9976 88.2735 24.1572 87.6735 23.0573C87.0735 21.9574 86.7233 20.6812 86.6229 19.2287C86.5211 17.7575 86.6917 16.4359 87.1346 15.2639C87.5774 14.0919 88.2884 13.1446 89.2676 12.422C90.2653 11.6981 91.5277 11.2833 93.0547 11.1777C94.5818 11.0721 95.8799 11.3098 96.9492 11.8907C98.0371 12.4704 98.8811 13.3102 99.4811 14.4101C100.1 15.5087 100.46 16.7935 100.562 18.2647C100.662 19.7172 100.482 21.0301 100.02 22.2034C99.5772 23.3755 98.8569 24.3234 97.8591 25.0473C96.8799 25.7699 95.6269 26.184 94.0998 26.2896ZM94.0303 25.284C95.3711 25.1913 96.4498 24.8267 97.2665 24.1902C98.0832 23.5536 98.6623 22.7277 99.0037 21.7124C99.3452 20.6971 99.4734 19.5749 99.3884 18.3458C99.3047 17.1354 99.0238 16.0509 98.5459 15.0922C98.0667 14.1149 97.3788 13.3673 96.4822 12.8492C95.5844 12.3126 94.4651 12.0906 93.1243 12.1833C91.7835 12.2761 90.7054 12.65 89.89 13.3051C89.0733 13.9417 88.4949 14.7769 88.1547 15.8108C87.8319 16.8249 87.7124 17.9371 87.7961 19.1475C87.8811 20.3766 88.1532 21.4711 88.6125 22.431C89.0905 23.3897 89.7777 24.128 90.6743 24.6461C91.5708 25.1641 92.6895 25.3768 94.0303 25.284ZM110.482 25.1567C108.396 25.3009 106.848 24.8373 105.839 23.7657C104.829 22.6942 104.252 21.1155 104.108 19.0299L103.528 10.6499L104.702 10.5687L105.283 18.9766C105.355 20.0195 105.569 20.9496 105.925 21.767C106.3 22.5831 106.848 23.2094 107.571 23.6459C108.311 24.0626 109.258 24.2309 110.412 24.1511C111.623 24.0674 112.557 23.7782 113.215 23.2837C113.891 22.7692 114.349 22.0919 114.59 21.2519C114.849 20.3921 114.94 19.4128 114.864 18.314L114.283 9.90613L115.456 9.82499L116.035 18.205C116.178 20.272 115.824 21.9151 114.973 23.134C114.12 24.3344 112.623 25.0086 110.482 25.1567ZM125.855 24.0936C124.383 24.1953 123.331 23.8565 122.697 23.077C122.08 22.2776 121.723 21.1703 121.625 19.755L120.98 10.4253L118.382 10.605L118.314 9.6273L120.912 9.44765L120.607 5.03419L121.78 4.95305L122.085 9.36651L127.141 9.01686L127.209 9.99452L122.153 10.3442L122.775 19.3387C122.819 19.9718 122.918 20.5918 123.072 21.1986C123.244 21.7855 123.548 22.2603 123.985 22.6231C124.421 22.9858 125.077 23.1369 125.953 23.0764C126.288 23.0532 126.638 22.9822 127.004 22.8633C127.389 22.7431 127.705 22.5809 127.953 22.3767L128.436 23.2695C128.204 23.4352 127.952 23.5836 127.681 23.7147C127.408 23.8271 127.124 23.9122 126.828 23.9701C126.533 24.0279 126.208 24.0691 125.855 24.0936ZM137.5 23.2882C135.973 23.3938 134.666 23.1568 133.578 22.5771C132.508 21.9962 131.674 21.1558 131.074 20.0559C130.474 18.956 130.124 17.6798 130.023 16.2272C129.921 14.7561 130.092 13.4345 130.535 12.2625C130.978 11.0905 131.689 10.1431 132.668 9.42054C133.666 8.69664 134.928 8.28189 136.455 8.17629C137.982 8.07068 139.28 8.30835 140.349 8.8893C141.437 9.46895 142.281 10.3087 142.881 11.4086C143.5 12.5072 143.86 13.7921 143.962 15.2633C144.062 16.7158 143.882 18.0287 143.42 19.202C142.977 20.374 142.257 21.322 141.259 22.0459C140.28 22.7685 139.027 23.1826 137.5 23.2882ZM137.431 22.2826C138.771 22.1899 139.85 21.8252 140.667 21.1887C141.483 20.5522 142.063 19.7263 142.404 18.711C142.745 17.6956 142.874 16.5735 142.789 15.3444C142.705 14.134 142.424 13.0494 141.946 12.0908C141.467 11.1135 140.779 10.3658 139.882 9.8478C138.985 9.31113 137.865 9.08916 136.525 9.18189C135.184 9.27461 134.106 9.64855 133.29 10.3037C132.474 10.9402 131.895 11.7755 131.555 12.8094C131.232 13.8234 131.113 14.9356 131.196 16.1461C131.281 17.3752 131.553 18.4696 132.013 19.4296C132.491 20.3882 133.178 21.1266 134.075 21.6446C134.971 22.1627 136.09 22.3753 137.431 22.2826ZM148.003 22.3654L146.985 7.64456L148.158 7.56343L148.359 10.4685C148.754 9.69269 149.225 9.06137 149.771 8.57451C150.318 8.08765 150.928 7.71798 151.603 7.46548C152.277 7.19437 152.995 7.03241 153.759 6.97961C155.174 6.88173 156.313 7.11172 157.175 7.66959C158.055 8.22617 158.708 9.00433 159.132 10.0041C159.574 10.9839 159.838 12.0977 159.925 13.3454L160.489 21.5019L159.316 21.583L158.8 14.1248C158.743 13.3055 158.632 12.5179 158.468 11.7621C158.303 11.0063 158.042 10.3321 157.683 9.73947C157.323 9.14683 156.824 8.69485 156.185 8.38353C155.564 8.0523 154.769 7.92017 153.8 7.98714C152.571 8.07213 151.558 8.44157 150.762 9.09543C149.983 9.748 149.414 10.5826 149.054 11.5992C148.712 12.5959 148.579 13.6622 148.658 14.7981L149.176 22.2843L148.003 22.3654ZM17.8782 72.6027L12.278 72.7935C12.2265 72.0486 12.1595 71.0803 12.0771 69.8885C12.0133 68.6954 11.9324 67.3912 11.8346 65.9759C11.7553 64.5593 11.6741 63.1148 11.591 61.6424C11.5079 60.1699 11.4306 58.7813 11.359 57.4764C11.2862 56.153 11.225 54.9971 11.1754 54.0088C11.1257 53.0206 11.0954 52.3116 11.0844 51.882C12.3507 51.7945 13.6909 51.6924 15.1049 51.5759C16.5189 51.4594 17.8956 51.3455 19.2351 51.2342C20.592 51.1029 21.8284 50.9893 22.9445 50.8934C24.0592 50.7789 24.9505 50.6799 25.6183 50.5963L25.6959 53.3414L16.2274 53.6033C16.4397 55.5907 16.6321 57.5608 16.8046 59.5136L25.7518 58.6142L25.7649 61.6445L17.015 61.7444C17.3496 65.5009 17.6373 69.1204 17.8782 72.6027ZM33.5996 71.5155C32.0167 71.6249 30.6961 71.3327 29.6377 70.6387C28.5966 69.9248 28.0329 68.9441 27.9466 67.6964C27.8681 66.5604 28.205 65.4799 28.9574 64.4549C29.7284 63.4286 30.8263 62.5294 32.2511 61.7572C33.6746 60.9665 35.3271 60.3751 37.2085 59.983C36.4248 58.3906 35.4463 57.635 34.2731 57.7161C33.5655 57.765 32.6717 58.0982 31.5917 58.7155C30.5117 59.3328 29.4247 60.119 28.3307 61.0741L27.2995 58.3387C29.9647 56.5639 32.5357 55.5909 35.0125 55.4196C36.9492 55.2857 38.5408 55.7089 39.7874 56.6892C41.0328 57.6509 42.0053 59.2677 42.705 61.5395C43.4035 63.7927 43.8834 66.8094 44.1448 70.5897C43.7923 70.6328 43.1604 70.6952 42.2492 70.7769C41.358 70.876 40.3909 70.9616 39.3481 71.0337C39.3068 70.4378 39.257 69.8518 39.1984 69.2758C37.3653 70.6376 35.4991 71.3841 33.5996 71.5155ZM32.5421 67.1821C32.582 67.7594 32.837 68.2002 33.3072 68.5045C33.7959 68.8075 34.422 68.9326 35.1855 68.8798C36.5263 68.787 37.7806 68.1202 38.9485 66.8794C38.7002 64.9132 38.3708 63.2613 37.9602 61.9238C37.2443 62.123 36.5534 62.414 35.8875 62.7968C35.2403 63.1784 34.6535 63.6213 34.127 64.1255C33.6179 64.6097 33.2137 65.1242 32.9146 65.6688C32.6328 66.1935 32.5086 66.6979 32.5421 67.1821ZM50.6078 70.4515C49.3763 68.0668 48.1278 65.571 46.8623 62.9641C45.6154 60.3559 44.45 57.845 43.3662 55.4313C44.472 55.1864 45.4872 54.9852 46.4119 54.8277C47.3352 54.6516 48.1308 54.5218 48.7987 54.4381C49.4778 56.412 50.2459 58.4545 51.1029 60.5658C51.9587 62.6584 52.869 64.7285 53.8339 66.7762C54.5302 64.6698 55.1582 62.5213 55.7177 60.3308C56.2772 58.1403 56.7482 56.0215 57.1305 53.9742L60.1185 54.1605C59.3369 56.9277 58.5148 59.6509 57.6522 62.3301C56.7884 64.9907 55.9063 67.5216 55.0058 69.9228C54.3033 70.0462 53.5623 70.1536 52.7827 70.2449C52.0218 70.335 51.2968 70.4038 50.6078 70.4515ZM69.3389 69.0438C67.8678 69.1456 66.5124 68.8931 65.273 68.2865C64.0335 67.6799 63.0194 66.8145 62.2306 65.6903C61.4604 64.5647 61.0258 63.285 60.9266 61.8511C60.8481 60.7151 60.9888 59.6388 61.3489 58.6222C61.7089 57.6056 62.2449 56.6985 62.9569 55.9008C63.6863 55.0832 64.5396 54.4348 65.5168 53.9556C66.4928 53.4577 67.5488 53.1695 68.6847 53.0909C70.1559 52.9892 71.5112 53.2416 72.7507 53.8482C73.9901 54.4548 74.9949 55.3209 75.7651 56.4464C76.5526 57.5521 76.9966 58.8312 77.097 60.2837C77.1756 61.4197 77.0348 62.4959 76.6748 63.5125C76.3147 64.5291 75.77 65.4462 75.0407 66.2638C74.3287 67.0615 73.4847 67.7093 72.5087 68.2071C71.5501 68.6851 70.4935 68.964 69.3389 69.0438ZM69.9925 66.7252C70.9795 66.657 71.7233 66.1845 72.224 65.3079C72.7235 64.4126 72.921 63.2108 72.8167 61.7024C72.7291 60.4361 72.465 59.3223 72.0243 58.3611C71.5836 57.3999 71.0174 56.6532 70.3257 56.121C69.634 55.5887 68.8691 55.3516 68.0311 55.4096C67.0442 55.4778 66.301 55.9596 65.8015 56.8548C65.3008 57.7315 65.1026 58.924 65.2069 60.4324C65.2932 61.6801 65.5574 62.7938 65.9994 63.7737C66.4401 64.7349 67.0063 65.4816 67.698 66.0138C68.4083 66.5447 69.1731 66.7819 69.9925 66.7252ZM84.5338 67.9088C83.8821 67.9539 83.1359 67.9868 82.2953 68.0075C81.4747 68.0455 80.7099 68.0797 80.0009 68.11C79.9437 67.5526 79.8697 66.7532 79.7789 65.7116C79.6882 64.67 79.5858 63.4609 79.4719 62.0841C79.3753 60.6875 79.263 59.1983 79.1349 57.6167C79.0241 56.0152 78.9115 54.3858 78.7968 52.7284C79.2052 52.6815 79.7068 52.6281 80.3014 52.5682C80.896 52.5084 81.4913 52.4579 82.0872 52.4167C82.6818 52.3568 83.184 52.3128 83.5936 52.2844C83.631 52.8245 83.6683 53.3645 83.7057 53.9046C84.392 53.277 85.106 52.7786 85.8476 52.4092C86.6066 52.0199 87.3492 51.8002 88.0754 51.7499C89.0252 51.6843 89.9091 51.8851 90.7273 52.3524C91.5442 52.8011 92.225 53.4464 92.7697 54.2881C93.3331 55.1286 93.69 56.0956 93.8404 57.1892C93.1123 57.4828 92.3822 57.7484 91.6502 57.9862C90.9182 58.2239 90.2209 58.4218 89.5582 58.5799C89.5002 57.7419 89.3351 56.9768 89.0627 56.2846C88.8089 55.5912 88.4903 55.0425 88.1068 54.6387C87.7234 54.2348 87.3175 54.0477 86.8892 54.0773C86.3864 54.1121 85.849 54.458 85.2769 55.115C84.7049 55.7721 84.2636 56.5604 83.953 57.48C84.0979 59.8463 84.2254 61.9612 84.3356 63.8247C84.4445 65.6696 84.5106 67.031 84.5338 67.9088ZM95.0387 49.5844L94.7779 45.8134L99.5265 45.485L99.7873 49.256L95.0387 49.5844ZM96.3616 67.0908C96.3005 66.4776 96.2246 65.6502 96.1338 64.6086C96.0418 63.5484 95.9395 62.3393 95.8268 60.9811C95.7315 59.6031 95.6205 58.1326 95.4937 56.5696C95.3855 55.0054 95.2747 53.4038 95.1614 51.7651C95.9994 51.7071 96.8753 51.6559 97.7891 51.6114C98.7215 51.5657 99.4497 51.5434 99.9737 51.5446C100.068 52.904 100.157 54.3292 100.241 55.8203C100.344 57.3101 100.435 58.7632 100.515 60.1798C100.611 61.5765 100.69 62.8434 100.75 63.9807C100.809 65.1179 100.853 66.0131 100.879 66.6661C100.025 66.7626 99.2076 66.8472 98.4268 66.9199C97.6459 66.9926 96.9575 67.0496 96.3616 67.0908ZM111.269 66.1441C110.505 66.1969 109.635 66.2009 108.659 66.1561C107.682 66.0927 106.712 66.0008 105.749 65.8802C104.785 65.7411 103.933 65.5849 103.191 65.4116L104.186 61.9467C104.922 62.3075 105.731 62.6444 106.614 62.9576C107.514 63.2509 108.39 63.4803 109.244 63.6458C110.097 63.8114 110.822 63.8735 111.418 63.8323C112.218 63.7769 112.793 63.5594 113.141 63.1799C113.487 62.7817 113.647 62.3777 113.618 61.968C113.585 61.4839 113.352 61.0976 112.921 60.8094C112.488 60.5025 111.928 60.2512 111.241 60.0555C110.571 59.8399 109.846 59.6467 109.067 59.4761C108.364 59.3189 107.66 59.1431 106.954 58.9486C106.248 58.7542 105.596 58.5186 104.997 58.242C104.415 57.9454 103.931 57.5766 103.545 57.1355C103.177 56.6931 102.971 56.1461 102.926 55.4943C102.868 54.6563 103.113 53.8629 103.66 53.114C104.205 52.3465 105.012 51.7013 106.08 51.1784C107.148 50.6555 108.436 50.3419 109.944 50.2376C111.173 50.1526 112.423 50.2252 113.692 50.4555C114.98 50.6845 116.166 51.0516 117.249 51.5568L115.868 54.3186C114.799 53.7377 113.766 53.2758 112.769 52.9331C111.789 52.5705 110.872 52.4188 110.015 52.478C109.196 52.5347 108.584 52.7547 108.18 53.1382C107.776 53.5216 107.587 53.8996 107.613 54.272C107.637 54.6258 107.826 54.9122 108.178 55.1311C108.528 55.3314 108.989 55.496 109.559 55.625C110.148 55.7527 110.774 55.8778 111.437 56.0003C112.175 56.1176 112.934 56.271 113.714 56.4603C114.493 56.6309 115.221 56.8706 115.897 57.1794C116.574 57.4881 117.126 57.9083 117.556 58.4399C117.985 58.9529 118.227 59.6191 118.284 60.4385C118.353 61.4441 118.099 62.3599 117.52 63.1858C116.94 64.0117 116.108 64.6867 115.021 65.211C113.953 65.7339 112.703 66.0449 111.269 66.1441ZM137.714 64.3152C136.541 64.3963 135.457 64.1345 134.46 63.5298C133.483 62.9238 132.684 62.0529 132.062 60.917C131.441 59.7812 131.08 58.4777 130.978 57.0065C130.872 55.4795 131.056 54.0821 131.53 52.8144C132.022 51.5454 132.728 50.5143 133.646 49.7211C134.563 48.9092 135.608 48.4627 136.781 48.3816C137.842 48.3082 138.981 48.5382 140.197 49.0716C140.025 46.5948 139.88 44.4998 139.762 42.7866C140.19 42.757 140.694 42.7315 141.272 42.7102C141.868 42.669 142.465 42.6371 143.062 42.6145C143.659 42.5919 144.163 42.5758 144.574 42.5661C144.64 43.5158 144.718 44.6518 144.81 45.9739C144.9 47.2775 144.987 48.6748 145.072 50.1659C145.175 51.6556 145.268 53.1367 145.351 54.6092C145.451 56.0617 145.536 57.4218 145.605 58.6894C145.693 59.9557 145.757 61.0271 145.799 61.9036C145.86 62.7789 145.891 63.3661 145.893 63.6654C145.092 63.7207 144.272 63.7588 143.431 63.7795C142.592 63.8188 141.901 63.8478 141.36 63.8666C141.343 63.6245 141.31 63.2806 141.261 62.835C140.163 63.7342 138.981 64.2276 137.714 64.3152ZM135.134 55.8209C135.218 57.0314 135.433 58.1111 135.779 59.0602C136.143 59.9893 136.586 60.7164 137.109 61.2416C137.649 61.7469 138.226 61.9783 138.841 61.9358C139.679 61.8778 140.418 61.3309 141.057 60.295C140.962 59.1976 140.858 57.9605 140.744 56.5837C140.648 55.187 140.55 53.7718 140.451 52.3379C140.091 51.7452 139.658 51.298 139.151 50.9963C138.661 50.6747 138.137 50.5332 137.578 50.5718C136.703 50.6324 136.044 51.127 135.604 52.0556C135.18 52.9643 135.023 54.2194 135.134 55.8209ZM156.223 63.0351C154.715 63.1395 153.332 62.889 152.073 62.2837C150.833 61.6584 149.817 60.7744 149.027 59.6315C148.254 58.4687 147.815 57.1238 147.71 55.5968C147.604 54.0698 147.845 52.6872 148.433 51.449C149.04 50.2095 149.906 49.2047 151.032 48.4345C152.176 47.6631 153.502 47.2252 155.01 47.1209C156.426 47.023 157.714 47.252 158.875 47.8079C160.053 48.3439 161.026 49.1467 161.792 50.2164C162.577 51.2848 163.087 52.5687 163.321 54.0681L152.375 56.902C152.812 58.088 153.439 59.0364 154.256 59.7471C155.071 60.4391 155.953 60.7523 156.903 60.6867C157.778 60.6261 158.623 60.2683 159.439 59.6131C160.253 58.9394 160.86 58.1115 161.26 57.1296L163.359 58.6684C162.531 59.9606 161.498 60.9863 160.26 61.7456C159.021 62.5048 157.676 62.9347 156.223 63.0351ZM151.822 54.1897C151.83 54.3014 151.837 54.3945 151.842 54.469L158.288 53.1251C158.076 51.9422 157.628 51.0096 156.944 50.3271C156.261 49.6446 155.463 49.335 154.55 49.3981C153.601 49.4637 152.884 49.925 152.401 50.7817C151.916 51.6198 151.723 52.7558 151.822 54.1897ZM173.573 61.8353C172.81 61.8881 171.94 61.8921 170.964 61.8473C169.986 61.784 169.016 61.692 168.054 61.5714C167.09 61.4323 166.237 61.2761 165.495 61.1028L166.491 57.6379C167.227 57.9987 168.036 58.3356 168.918 58.6488C169.818 58.9421 170.694 59.1715 171.548 59.3371C172.401 59.5026 173.126 59.5647 173.722 59.5235C174.523 59.4681 175.097 59.2506 175.445 58.8711C175.792 58.4729 175.951 58.0689 175.923 57.6592C175.889 57.1751 175.657 56.7888 175.225 56.5006C174.792 56.1937 174.232 55.9424 173.545 55.7467C172.875 55.5311 172.151 55.3379 171.372 55.1673C170.669 55.0101 169.964 54.8343 169.258 54.6398C168.553 54.4454 167.9 54.2098 167.301 53.9332C166.719 53.6366 166.235 53.2678 165.849 52.8267C165.482 52.3843 165.275 51.8373 165.23 51.1855C165.172 50.3475 165.417 49.5541 165.964 48.8052C166.51 48.0377 167.316 47.3925 168.384 46.8696C169.452 46.3467 170.74 46.0331 172.248 45.9288C173.478 45.8438 174.727 45.9164 175.996 46.1467C177.285 46.3757 178.47 46.7428 179.553 47.248L178.172 50.0098C177.103 49.4289 176.07 48.967 175.073 48.6243C174.094 48.2617 173.176 48.11 172.319 48.1692C171.5 48.2259 170.888 48.4459 170.484 48.8294C170.081 49.2128 169.891 49.5908 169.917 49.9632C169.942 50.317 170.13 50.6034 170.482 50.8223C170.833 51.0226 171.293 51.1872 171.863 51.3162C172.452 51.4439 173.078 51.569 173.742 51.6915C174.479 51.8089 175.239 51.9622 176.019 52.1515C176.798 52.3221 177.525 52.5618 178.202 52.8706C178.878 53.1793 179.431 53.5995 179.86 54.1311C180.289 54.6441 180.531 55.3103 180.588 56.1297C180.658 57.1353 180.403 58.0511 179.824 58.877C179.245 59.7029 178.412 60.378 177.326 60.9022C176.258 61.4251 175.007 61.7361 173.573 61.8353ZM8.91487 111.229C8.71139 108.287 8.56224 105.724 8.46743 103.542C8.37262 101.359 8.36423 99.4791 8.44227 97.902L6.06794 98.0662L5.72262 95.5079L8.65561 95.3051C8.88521 93.7549 9.28023 92.5675 9.84067 91.7428C10.3998 90.8996 11.1626 90.2949 12.129 89.9286C13.1127 89.5425 14.3375 89.2613 15.8035 89.0851L15.856 91.4672C14.9807 91.5277 14.3165 91.7982 13.8632 92.2786C13.4286 92.7577 13.1452 93.6661 13.0132 95.0037L16.3373 94.7738L16.3474 97.3553L12.9116 97.5929C12.9137 98.4348 12.9428 99.3964 12.9988 100.478C13.0549 101.559 13.13 102.78 13.224 104.139C13.3064 105.331 13.3949 106.475 13.4895 107.573C13.5841 108.67 13.6861 109.739 13.7955 110.779C13.0146 110.852 12.1872 110.928 11.3133 111.007C10.4406 111.105 9.64114 111.179 8.91487 111.229ZM23.6459 110.295C22.063 110.404 20.7423 110.112 19.6839 109.418C18.6429 108.704 18.0792 107.723 17.9929 106.476C17.9144 105.34 18.2513 104.259 19.0037 103.234C19.7747 102.208 20.8726 101.309 22.2974 100.536C23.7209 99.7456 25.3734 99.1542 27.2548 98.7621C26.4711 97.1697 25.4926 96.4141 24.3194 96.4952C23.6118 96.5442 22.718 96.8773 21.638 97.4946C20.558 98.1119 19.471 98.8981 18.3769 99.8532L17.3458 97.1179C20.011 95.3431 22.582 94.37 25.0587 94.1988C26.9955 94.0648 28.5871 94.488 29.8337 95.4683C31.079 96.4301 32.0516 98.0468 32.7513 100.319C33.4498 102.572 33.9297 105.589 34.1911 109.369C33.8386 109.412 33.2067 109.474 32.2955 109.556C31.4042 109.655 30.4372 109.741 29.3943 109.813C29.3531 109.217 29.3032 108.631 29.2447 108.055C27.4116 109.417 25.5453 110.163 23.6459 110.295ZM22.5884 105.961C22.6283 106.539 22.8833 106.979 23.3534 107.284C23.8422 107.587 24.4683 107.712 25.2318 107.659C26.5726 107.566 27.8269 106.899 28.9948 105.659C28.7465 103.692 28.4171 102.04 28.0065 100.703C27.2905 100.902 26.5996 101.193 25.9338 101.576C25.2866 101.958 24.6997 102.4 24.1733 102.905C23.6641 103.389 23.26 103.903 22.9609 104.448C22.6791 104.973 22.5549 105.477 22.5884 105.961ZM40.6541 109.231C39.4226 106.846 38.1741 104.35 36.9086 101.743C35.6616 99.135 34.4963 96.6241 33.4125 94.2104C34.5183 93.9656 35.5335 93.7644 36.4581 93.6069C37.3815 93.4308 38.1771 93.3009 38.8449 93.2173C39.5241 95.1911 40.2922 97.2337 41.1492 99.3449C42.0049 101.438 42.9153 103.508 43.8802 105.555C44.5765 103.449 45.2044 101.3 45.764 99.11C46.3235 96.9195 46.7945 94.8006 47.1768 92.7533L50.1648 92.9396C49.3831 95.7068 48.5611 98.43 47.6985 101.109C46.8347 103.77 45.9525 106.301 45.0521 108.702C44.3496 108.825 43.6085 108.933 42.829 109.024C42.0681 109.114 41.3431 109.183 40.6541 109.231ZM59.3852 107.823C57.914 107.925 56.5587 107.672 55.3193 107.066C54.0798 106.459 53.0657 105.594 52.2769 104.469C51.5067 103.344 51.0721 102.064 50.9729 100.63C50.8943 99.4943 51.0351 98.418 51.3951 97.4014C51.7552 96.3848 52.2912 95.4776 53.0032 94.68C53.7325 93.8624 54.5858 93.2139 55.5631 92.7347C56.5391 92.2368 57.5951 91.9486 58.731 91.8701C60.2022 91.7683 61.5575 92.0208 62.7969 92.6274C64.0364 93.234 65.0412 94.1 65.8114 95.2256C66.5989 96.3312 67.0428 97.6103 67.1433 99.0628C67.2219 100.199 67.0811 101.275 66.7211 102.292C66.361 103.308 65.8163 104.225 65.087 105.043C64.375 105.841 63.531 106.488 62.555 106.986C61.5964 107.464 60.5398 107.743 59.3852 107.823ZM60.0388 105.504C61.0258 105.436 61.7696 104.964 62.2703 104.087C62.7697 103.192 62.9673 101.99 62.863 100.482C62.7754 99.2152 62.5113 98.1015 62.0706 97.1402C61.6299 96.179 61.0637 95.4323 60.372 94.9001C59.6803 94.3679 58.9154 94.1307 58.0774 94.1887C57.0904 94.257 56.3472 94.7387 55.8478 95.634C55.3471 96.5106 55.1489 97.7031 55.2532 99.2115C55.3395 100.459 55.6036 101.573 56.0456 102.553C56.4863 103.514 57.0525 104.261 57.7442 104.793C58.4546 105.324 59.2194 105.561 60.0388 105.504ZM74.5801 106.688C73.9283 106.733 73.1822 106.766 72.3416 106.787C71.5209 106.825 70.7561 106.859 70.0472 106.889C69.9899 106.332 69.9159 105.532 69.8252 104.491C69.7345 103.449 69.6321 102.24 69.5182 100.863C69.4216 99.4666 69.3093 97.9775 69.1812 96.3959C69.0704 94.7944 68.9577 93.1649 68.8431 91.5076C69.2515 91.4606 69.753 91.4072 70.3477 91.3474C70.9423 91.2875 71.5375 91.237 72.1335 91.1958C72.7281 91.136 73.2302 91.0919 73.6399 91.0636C73.6773 91.6036 73.7146 92.1436 73.752 92.6837C74.4383 92.0562 75.1523 91.5577 75.8939 91.1883C76.6529 90.7991 77.3955 90.5793 78.1217 90.5291C79.0715 90.4634 79.9554 90.6642 80.7736 91.1315C81.5905 91.5803 82.2713 92.2255 82.816 93.0672C83.3794 93.9077 83.7363 94.8747 83.8867 95.9683C83.1586 96.2619 82.4285 96.5276 81.6965 96.7653C80.9645 97.003 80.2671 97.201 79.6045 97.359C79.5465 96.5211 79.3813 95.756 79.1089 95.0638C78.8552 94.3703 78.5365 93.8216 78.1531 93.4178C77.7697 93.014 77.3638 92.8268 76.9355 92.8565C76.4327 92.8912 75.8953 93.2371 75.3232 93.8942C74.7512 94.5512 74.3099 95.3395 73.9992 96.2591C74.1442 98.6255 74.2717 100.74 74.3819 102.604C74.4908 104.449 74.5568 105.81 74.5801 106.688ZM85.0849 88.3635L84.8241 84.5925L89.5728 84.2641L89.8336 88.0351L85.0849 88.3635ZM86.4079 105.87C86.3468 105.257 86.2708 104.429 86.1801 103.388C86.0881 102.328 85.9857 101.118 85.8731 99.7603C85.7778 98.3822 85.6668 96.9117 85.54 95.3488C85.4318 93.7845 85.321 92.183 85.2077 90.5442C86.0457 90.4863 86.9216 90.4351 87.8353 90.3906C88.7677 90.3448 89.4959 90.3225 90.0199 90.3237C90.114 91.6831 90.2032 93.1084 90.2876 94.5994C90.3906 96.0892 90.4817 97.5424 90.561 98.9589C90.6576 100.356 90.7358 101.623 90.7958 102.76C90.8557 103.897 90.8989 104.792 90.9254 105.445C90.0713 105.542 89.2539 105.626 88.473 105.699C87.6922 105.772 87.0038 105.829 86.4079 105.87ZM101.315 104.923C100.552 104.976 99.6817 104.98 98.7056 104.935C97.7283 104.872 96.7583 104.78 95.7957 104.659C94.8318 104.52 93.979 104.364 93.2372 104.191L94.2326 100.726C94.9685 101.087 95.7777 101.424 96.6601 101.737C97.5598 102.03 98.4364 102.259 99.2898 102.425C100.143 102.59 100.868 102.653 101.464 102.611C102.265 102.556 102.839 102.339 103.187 101.959C103.534 101.561 103.693 101.157 103.664 100.747C103.631 100.263 103.398 99.8768 102.967 99.5885C102.534 99.2817 101.974 99.0304 101.287 98.8346C100.617 98.619 99.8927 98.4259 99.1137 98.2552C98.4105 98.098 97.7061 97.9222 97.0003 97.7277C96.2945 97.5333 95.6421 97.2978 95.0429 97.0211C94.461 96.7245 93.9771 96.3557 93.5911 95.9146C93.2237 95.4723 93.0175 94.9252 92.9724 94.2734C92.9144 93.4354 93.1589 92.642 93.7059 91.8931C94.2516 91.1257 95.0583 90.4805 96.1261 89.9575C97.1939 89.4346 98.482 89.121 99.9904 89.0167C101.219 88.9317 102.469 89.0043 103.738 89.2346C105.027 89.4636 106.212 89.8307 107.295 90.3359L105.914 93.0977C104.845 92.5168 103.812 92.055 102.815 91.7122C101.836 91.3496 100.918 91.1979 100.061 91.2572C99.2418 91.3138 98.6302 91.5339 98.2263 91.9173C97.8225 92.3008 97.6335 92.6787 97.6592 93.0511C97.6837 93.405 97.8719 93.6913 98.2238 93.9102C98.5745 94.1105 99.0349 94.2751 99.6052 94.4041C100.194 94.5318 100.82 94.6569 101.484 94.7794C102.221 94.8968 102.98 95.0501 103.761 95.2394C104.54 95.4101 105.267 95.6498 105.944 95.9585C106.62 96.2673 107.173 96.6874 107.602 97.2191C108.031 97.7321 108.273 98.3983 108.33 99.2176C108.4 100.223 108.145 101.139 107.566 101.965C106.987 102.791 106.154 103.466 105.068 103.99C104 104.513 102.749 104.824 101.315 104.923ZM134.551 108.266L133.135 87.791L134.309 87.7099L134.509 90.615C135.16 89.466 135.934 88.6173 136.831 88.0687C137.748 87.5188 138.839 87.2001 140.105 87.1125C141.595 87.0095 142.839 87.279 143.838 87.9209C144.854 88.543 145.635 89.4245 146.182 90.5655C146.727 91.6879 147.048 92.9474 147.145 94.3441C147.248 95.8339 147.087 97.1548 146.661 98.3069C146.254 99.4577 145.578 100.375 144.634 101.057C143.708 101.739 142.519 102.13 141.066 102.23C140.47 102.271 139.814 102.242 139.096 102.142C138.378 102.042 137.669 101.81 136.971 101.447C136.289 101.064 135.678 100.479 135.137 99.6933L135.725 108.185L134.551 108.266ZM141.081 101.219C142.384 101.129 143.397 100.759 144.119 100.111C144.859 99.4419 145.372 98.6019 145.657 97.5905C145.943 96.579 146.046 95.496 145.966 94.3414C145.883 93.1496 145.622 92.0731 145.181 91.1119C144.758 90.1307 144.116 89.3706 143.255 88.8313C142.393 88.2734 141.292 88.0409 139.951 88.1336C138.722 88.2186 137.71 88.6067 136.916 89.2978C136.122 89.9889 135.546 90.852 135.187 91.8873C134.828 92.9225 134.687 93.9987 134.765 95.1161C134.85 96.3451 135.14 97.4384 135.637 98.3957C136.151 99.3332 136.865 100.06 137.781 100.577C138.696 101.094 139.796 101.308 141.081 101.219ZM157.585 101.088C156.058 101.193 154.751 100.956 153.663 100.377C152.594 99.7958 151.759 98.9554 151.159 97.8555C150.559 96.7556 150.209 95.4794 150.108 94.0269C150.007 92.5557 150.177 91.2341 150.62 90.0621C151.063 88.8901 151.774 87.9428 152.753 87.2202C153.751 86.4963 155.013 86.0815 156.54 85.9759C158.067 85.8703 159.366 86.108 160.435 86.6889C161.523 87.2686 162.367 88.1084 162.967 89.2083C163.585 90.3069 163.945 91.5918 164.047 93.0629C164.148 94.5154 163.967 95.8284 163.506 97.0017C163.063 98.1737 162.342 99.1216 161.345 99.8455C160.366 100.568 159.112 100.982 157.585 101.088ZM157.516 100.082C158.857 99.9895 159.935 99.6249 160.752 98.9884C161.569 98.3518 162.148 97.5259 162.489 96.5106C162.831 95.4953 162.959 94.3731 162.874 93.144C162.79 91.9336 162.509 90.8491 162.032 89.8904C161.552 88.9131 160.864 88.1655 159.968 87.6474C159.07 87.1108 157.951 86.8888 156.61 86.9815C155.269 87.0743 154.191 87.4482 153.376 88.1033C152.559 88.7399 151.98 89.5751 151.64 90.609C151.318 91.6231 151.198 92.7353 151.282 93.9457C151.367 95.1748 151.639 96.2693 152.098 97.2292C152.576 98.1879 153.263 98.9262 154.16 99.4443C155.056 99.9623 156.175 100.175 157.516 100.082ZM173.967 99.9549C171.882 100.099 170.334 99.6355 169.324 98.5639C168.315 97.4924 167.738 95.9137 167.594 93.8281L167.014 85.4481L168.187 85.3669L168.769 93.7749C168.841 94.8177 169.055 95.7478 169.411 96.5652C169.785 97.3813 170.334 98.0076 171.056 98.4442C171.796 98.8608 172.743 99.0292 173.898 98.9493C175.108 98.8656 176.043 98.5764 176.701 98.0819C177.376 97.5674 177.835 96.8901 178.076 96.0502C178.334 95.1903 178.426 94.211 178.35 93.1123L177.768 84.7043L178.942 84.6232L179.521 93.0032C179.664 95.0702 179.31 96.7133 178.459 97.9322C177.606 99.1326 176.109 99.8068 173.967 99.9549ZM183.991 99.0652L182.973 84.3444L184.091 84.2671L184.319 87.5632C184.663 86.5852 185.144 85.8315 185.762 85.3023C186.38 84.773 187.065 84.3982 187.817 84.1778C188.569 83.9574 189.29 83.8233 189.979 83.7757C190.016 83.7731 190.063 83.7699 190.118 83.766C190.174 83.7622 190.221 83.7589 190.258 83.7564L190.328 84.762L190.132 84.7755C188.754 84.8708 187.647 85.2374 186.812 85.8752C185.977 86.513 185.39 87.3582 185.051 88.4107C184.711 89.4447 184.586 90.6134 184.676 91.917L185.165 98.9841L183.991 99.0652ZM26.8022 149.029L25.7842 134.308L26.8736 134.233L27.0648 136.998C27.378 136.116 27.7905 135.451 28.3022 135.004C28.8312 134.537 29.3799 134.219 29.9482 134.048C30.5151 133.859 31.0221 133.75 31.469 133.719C32.5677 133.643 33.5207 133.895 34.328 134.475C35.1353 135.056 35.7112 135.942 36.0556 137.134C36.1287 136.568 36.3322 135.993 36.666 135.408C36.9985 134.805 37.4864 134.285 38.1298 133.847C38.7731 133.41 39.5697 133.158 40.5194 133.093C41.6181 133.017 42.5274 133.178 43.2474 133.578C43.966 133.958 44.5107 134.529 44.8813 135.289C45.2693 136.029 45.4981 136.902 45.5677 137.908L46.2438 147.685L45.0706 147.766L44.4485 138.771C44.4035 138.119 44.3237 137.507 44.2093 136.935C44.0936 136.345 43.8993 135.834 43.6263 135.404C43.352 134.955 42.9637 134.617 42.4615 134.39C41.9767 134.143 41.3432 134.046 40.561 134.1C39.7789 134.154 39.13 134.377 38.6145 134.768C38.0989 135.159 37.6935 135.655 37.3982 136.256C37.1029 136.856 36.9053 137.515 36.8052 138.233C36.7039 138.933 36.6771 139.627 36.7247 140.316L37.2772 148.305L36.104 148.386L35.5264 140.034C35.4839 139.419 35.3942 138.799 35.2573 138.172C35.1191 137.527 34.9003 136.934 34.601 136.393C34.3203 135.851 33.9169 135.43 33.3909 135.129C32.8823 134.809 32.2369 134.676 31.4548 134.73C30.3747 134.805 29.5294 135.163 28.9188 135.804C28.3069 136.426 27.8849 137.222 27.6526 138.193C27.4377 139.143 27.3682 140.168 27.4442 141.266L27.9754 148.948L26.8022 149.029ZM56.561 147.168C55.0153 147.274 53.7079 147.037 52.6386 146.456C51.5693 145.876 50.7439 145.034 50.1626 143.933C49.5999 142.831 49.2683 141.553 49.1678 140.101C49.0712 138.704 49.235 137.42 49.6593 136.25C50.1009 135.059 50.8106 134.093 51.7884 133.352C52.765 132.592 53.9982 132.161 55.4879 132.058C56.5308 131.985 57.4468 132.109 58.2361 132.429C59.0254 132.749 59.6939 133.217 60.2418 133.834C60.8083 134.45 61.2515 135.177 61.5715 136.015C61.9088 136.834 62.1382 137.716 62.2597 138.662C62.2874 138.791 62.3064 138.93 62.3167 139.079C62.3257 139.21 62.3353 139.349 62.3456 139.498L50.3623 140.327C50.5018 141.534 50.8093 142.597 51.2847 143.519C51.7588 144.422 52.4335 145.114 53.3088 145.596C54.1829 146.06 55.2903 146.245 56.6311 146.152C57.1711 146.115 57.7253 146.011 58.2936 145.841C58.8606 145.652 59.3752 145.382 59.8375 145.032C60.2998 144.682 60.6525 144.237 60.8958 143.696L62.2087 143.605C61.9436 144.372 61.5106 145.01 60.9096 145.52C60.3087 146.029 59.6249 146.422 58.8582 146.7C58.0902 146.959 57.3245 147.115 56.561 147.168ZM50.3226 139.347L61.1048 138.602C60.9942 137.543 60.7124 136.58 60.2595 135.713C59.8066 134.846 59.1798 134.169 58.3789 133.682C57.578 133.195 56.6003 132.991 55.4458 133.071C54.3098 133.149 53.3515 133.496 52.5707 134.112C51.8086 134.726 51.235 135.495 50.8499 136.42C50.4834 137.343 50.3076 138.319 50.3226 139.347ZM71.5088 146.134C70.9129 146.175 70.3031 146.152 69.6796 146.064C69.0573 145.995 68.4578 145.849 67.8812 145.627C67.3045 145.405 66.7878 145.104 66.3311 144.724C65.8931 144.342 65.561 143.869 65.3349 143.305L66.6478 143.214C66.9856 143.771 67.4269 144.199 67.9715 144.498C68.5148 144.778 69.0889 144.963 69.6938 145.052C70.3174 145.14 70.9085 145.165 71.4672 145.126C71.9513 145.093 72.4516 145.021 72.9678 144.91C73.4828 144.781 73.9567 144.599 74.3895 144.363C74.8396 144.107 75.1914 143.783 75.445 143.392C75.6973 142.981 75.8028 142.478 75.7616 141.882C75.7191 141.268 75.5273 140.795 75.1863 140.463C74.8638 140.129 74.4634 139.886 73.985 139.732C73.5053 139.559 73.0387 139.442 72.5853 139.379C72.3208 139.342 72.0376 139.305 71.7357 139.27C71.4339 139.235 71.1228 139.2 70.8024 139.166C70.2373 139.111 69.6423 139.031 69.0174 138.925C68.3913 138.799 67.7979 138.607 67.2373 138.346C66.6766 138.085 66.2113 137.715 65.8414 137.236C65.4714 136.756 65.2594 136.125 65.2053 135.343C65.1525 134.579 65.2577 133.936 65.5208 133.413C65.8026 132.888 66.1846 132.459 66.6668 132.126C67.1677 131.792 67.7301 131.538 68.3543 131.364C68.997 131.189 69.6536 131.078 70.324 131.032C71.0503 130.981 71.7743 131.034 72.4961 131.19C73.2366 131.345 73.8922 131.627 74.4632 132.036C75.0341 132.446 75.4565 133.006 75.7302 133.717L74.557 133.798C74.1715 133.095 73.5675 132.613 72.7449 132.352C71.9222 132.09 71.1291 131.986 70.3656 132.039C69.9746 132.066 69.5389 132.124 69.0586 132.214C68.5782 132.303 68.1217 132.466 67.6889 132.701C67.2735 132.917 66.9303 133.231 66.6594 133.643C66.4071 134.053 66.3035 134.584 66.3486 135.236C66.3924 135.869 66.5861 136.37 66.9297 136.739C67.2733 137.109 67.695 137.388 68.1946 137.578C68.6929 137.749 69.198 137.883 69.7098 137.978C70.2961 138.069 70.9004 138.149 71.5227 138.218C72.1623 138.267 72.7852 138.346 73.3914 138.454C74.0548 138.576 74.6382 138.76 75.1417 139.006C75.6452 139.252 76.052 139.589 76.3623 140.016C76.6725 140.444 76.8508 140.993 76.8972 141.663C76.9526 142.464 76.8307 143.137 76.5315 143.681C76.2324 144.226 75.8145 144.676 75.2777 145.031C74.7582 145.366 74.1678 145.622 73.5064 145.799C72.8451 145.976 72.1792 146.087 71.5088 146.134ZM93.1134 144.64C92.5175 144.681 91.9078 144.658 91.2842 144.57C90.662 144.5 90.0625 144.355 89.4858 144.133C88.9091 143.911 88.3924 143.61 87.9358 143.23C87.4978 142.848 87.1657 142.375 86.9395 141.811L88.2524 141.72C88.5903 142.277 89.0315 142.705 89.5761 143.004C90.1194 143.284 90.6936 143.469 91.2985 143.558C91.922 143.646 92.5131 143.671 93.0718 143.632C93.556 143.599 94.0562 143.527 94.5725 143.416C95.0875 143.287 95.5613 143.104 95.9941 142.869C96.4442 142.613 96.796 142.289 97.0496 141.898C97.3019 141.487 97.4074 140.984 97.3662 140.388C97.3237 139.774 97.132 139.3 96.7909 138.968C96.4685 138.635 96.0681 138.392 95.5896 138.238C95.1099 138.065 94.6434 137.948 94.19 137.885C93.9254 137.847 93.6422 137.811 93.3404 137.776C93.0386 137.74 92.7274 137.706 92.407 137.672C91.8419 137.617 91.2469 137.537 90.6221 137.43C89.996 137.305 89.4026 137.112 88.8419 136.852C88.2813 136.591 87.816 136.221 87.446 135.742C87.076 135.262 86.864 134.631 86.8099 133.849C86.7571 133.085 86.8623 132.442 87.1255 131.919C87.4073 131.394 87.7893 130.965 88.2715 130.632C88.7723 130.298 89.3348 130.044 89.9589 129.87C90.6017 129.695 91.2583 129.584 91.9287 129.537C92.6549 129.487 93.379 129.54 94.1008 129.696C94.8412 129.851 95.4969 130.133 96.0678 130.542C96.6388 130.952 97.0611 131.512 97.3348 132.223L96.1616 132.304C95.7762 131.601 95.1722 131.119 94.3495 130.858C93.5269 130.596 92.7338 130.492 91.9703 130.545C91.5792 130.572 91.1435 130.63 90.6632 130.72C90.1829 130.809 89.7263 130.971 89.2936 131.207C88.8781 131.423 88.535 131.737 88.2641 132.148C88.0118 132.559 87.9082 133.09 87.9532 133.742C87.997 134.375 88.1907 134.876 88.5344 135.245C88.878 135.614 89.2996 135.894 89.7992 136.084C90.2976 136.255 90.8027 136.389 91.3145 136.484C91.9008 136.575 92.5051 136.655 93.1273 136.724C93.7669 136.773 94.3898 136.852 94.996 136.96C95.6594 137.082 96.2428 137.266 96.7463 137.512C97.2498 137.758 97.6567 138.095 97.9669 138.522C98.2772 138.95 98.4555 139.499 98.5018 140.169C98.5572 140.97 98.4353 141.643 98.1362 142.187C97.8371 142.732 97.4191 143.182 96.8823 143.537C96.3629 143.872 95.7725 144.128 95.1111 144.305C94.4497 144.482 93.7838 144.593 93.1134 144.64ZM108.691 143.562C107.164 143.668 105.866 143.43 104.797 142.849C103.727 142.268 102.893 141.437 102.295 140.356C101.713 139.255 101.372 137.978 101.272 136.525C101.171 135.073 101.343 133.761 101.785 132.589C102.246 131.397 102.975 130.439 103.972 129.715C104.969 128.972 106.231 128.548 107.758 128.443C108.596 128.385 109.377 128.462 110.103 128.673C110.829 128.885 111.47 129.234 112.028 129.719C112.604 130.203 113.059 130.827 113.392 131.59L112.107 131.678C111.73 130.825 111.137 130.23 110.328 129.893C109.517 129.537 108.647 129.392 107.715 129.456C106.431 129.545 105.38 129.917 104.565 130.572C103.767 131.207 103.188 132.043 102.83 133.078C102.488 134.093 102.36 135.215 102.445 136.444C102.526 137.618 102.806 138.683 103.284 139.642C103.762 140.601 104.45 141.348 105.347 141.885C106.264 142.42 107.383 142.642 108.705 142.551C109.692 142.483 110.563 142.226 111.318 141.781C112.073 141.336 112.607 140.663 112.919 139.762L114.204 139.673C113.941 140.477 113.53 141.16 112.97 141.723C112.41 142.285 111.767 142.723 111.04 143.035C110.312 143.329 109.529 143.504 108.691 143.562ZM124.048 142.5C122.503 142.607 121.195 142.37 120.126 141.789C119.057 141.208 118.231 140.367 117.65 139.266C117.087 138.164 116.756 136.886 116.655 135.434C116.558 134.037 116.722 132.753 117.147 131.582C117.588 130.392 118.298 129.426 119.276 128.685C120.252 127.925 121.485 127.493 122.975 127.39C124.018 127.318 124.934 127.442 125.723 127.762C126.513 128.081 127.181 128.55 127.729 129.167C128.296 129.782 128.739 130.509 129.059 131.348C129.396 132.167 129.625 133.049 129.747 133.995C129.775 134.124 129.794 134.263 129.804 134.412C129.813 134.542 129.823 134.682 129.833 134.831L117.849 135.66C117.989 136.866 118.297 137.93 118.772 138.852C119.246 139.754 119.921 140.447 120.796 140.929C121.67 141.392 122.778 141.578 124.118 141.485C124.658 141.448 125.213 141.344 125.781 141.174C126.348 140.985 126.862 140.715 127.325 140.365C127.787 140.015 128.14 139.57 128.383 139.029L129.696 138.938C129.431 139.705 128.998 140.343 128.397 140.852C127.796 141.362 127.112 141.755 126.345 142.033C125.577 142.292 124.812 142.448 124.048 142.5ZM117.81 134.68L128.592 133.934C128.481 132.876 128.2 131.913 127.747 131.046C127.294 130.179 126.667 129.502 125.866 129.015C125.065 128.528 124.088 128.324 122.933 128.404C121.797 128.482 120.839 128.829 120.058 129.445C119.296 130.059 118.722 130.828 118.337 131.753C117.971 132.676 117.795 133.652 117.81 134.68ZM122.314 125.135L119.611 121.757L121.007 121.66L123.375 125.061L122.314 125.135ZM133.871 141.625L132.853 126.904L134.026 126.823L134.227 129.728C134.622 128.952 135.093 128.321 135.639 127.834C136.186 127.347 136.796 126.977 137.471 126.725C138.145 126.454 138.863 126.292 139.627 126.239C141.042 126.141 142.181 126.371 143.043 126.929C143.923 127.485 144.576 128.263 145 129.263C145.442 130.243 145.707 131.357 145.793 132.605L146.357 140.761L145.184 140.842L144.668 133.384C144.611 132.565 144.501 131.777 144.336 131.021C144.172 130.265 143.91 129.591 143.551 128.999C143.192 128.406 142.693 127.954 142.054 127.643C141.432 127.311 140.637 127.179 139.669 127.246C138.439 127.331 137.427 127.701 136.63 128.355C135.852 129.007 135.282 129.842 134.922 130.858C134.58 131.855 134.448 132.921 134.526 134.057L135.044 141.543L133.871 141.625ZM156.673 140.244C155.128 140.351 153.82 140.114 152.751 139.533C151.682 138.952 150.856 138.111 150.275 137.01C149.712 135.907 149.381 134.63 149.28 133.177C149.184 131.781 149.347 130.497 149.772 129.326C150.213 128.136 150.923 127.17 151.901 126.428C152.877 125.669 154.111 125.237 155.6 125.134C156.643 125.062 157.559 125.186 158.349 125.505C159.138 125.825 159.806 126.293 160.354 126.91C160.921 127.526 161.364 128.253 161.684 129.092C162.021 129.91 162.251 130.793 162.372 131.739C162.4 131.868 162.419 132.007 162.429 132.156C162.438 132.286 162.448 132.426 162.458 132.575L150.475 133.403C150.614 134.61 150.922 135.674 151.397 136.595C151.871 137.498 152.546 138.191 153.421 138.673C154.295 139.136 155.403 139.322 156.744 139.229C157.284 139.191 157.838 139.088 158.406 138.917C158.973 138.728 159.488 138.459 159.95 138.109C160.412 137.759 160.765 137.313 161.008 136.773L162.321 136.682C162.056 137.449 161.623 138.087 161.022 138.596C160.421 139.105 159.737 139.499 158.971 139.776C158.203 140.035 157.437 140.191 156.673 140.244ZM150.435 132.424L161.217 131.678C161.107 130.619 160.825 129.656 160.372 128.79C159.919 127.923 159.292 127.246 158.491 126.759C157.69 126.271 156.713 126.068 155.558 126.147C154.422 126.226 153.464 126.573 152.683 127.188C151.921 127.802 151.347 128.572 150.962 129.496C150.596 130.42 150.42 131.396 150.435 132.424ZM171.621 139.21C171.025 139.252 170.416 139.228 169.792 139.14C169.17 139.071 168.57 138.925 167.994 138.703C167.417 138.481 166.9 138.18 166.444 137.8C166.006 137.419 165.673 136.946 165.447 136.382L166.76 136.291C167.098 136.847 167.539 137.275 168.084 137.574C168.627 137.855 169.201 138.04 169.806 138.129C170.43 138.217 171.021 138.241 171.58 138.203C172.064 138.169 172.564 138.097 173.08 137.987C173.595 137.858 174.069 137.675 174.502 137.439C174.952 137.184 175.304 136.86 175.557 136.468C175.81 136.058 175.915 135.555 175.874 134.959C175.832 134.344 175.64 133.871 175.299 133.539C174.976 133.206 174.576 132.962 174.097 132.808C173.618 132.636 173.151 132.518 172.698 132.456C172.433 132.418 172.15 132.382 171.848 132.346C171.546 132.311 171.235 132.276 170.915 132.242C170.35 132.188 169.755 132.107 169.13 132.001C168.504 131.876 167.91 131.683 167.35 131.422C166.789 131.162 166.324 130.792 165.954 130.312C165.584 129.833 165.372 129.202 165.318 128.419C165.265 127.656 165.37 127.013 165.633 126.489C165.915 125.964 166.297 125.536 166.779 125.203C167.28 124.869 167.843 124.615 168.467 124.441C169.109 124.265 169.766 124.154 170.436 124.108C171.163 124.058 171.887 124.111 172.609 124.267C173.349 124.421 174.005 124.703 174.576 125.113C175.147 125.522 175.569 126.083 175.843 126.793L174.669 126.875C174.284 126.172 173.68 125.689 172.857 125.428C172.035 125.167 171.242 125.063 170.478 125.116C170.087 125.143 169.651 125.201 169.171 125.29C168.691 125.38 168.234 125.542 167.801 125.778C167.386 125.994 167.043 126.307 166.772 126.719C166.52 127.13 166.416 127.661 166.461 128.312C166.505 128.946 166.699 129.447 167.042 129.816C167.386 130.185 167.807 130.465 168.307 130.655C168.805 130.826 169.31 130.959 169.822 131.055C170.409 131.145 171.013 131.225 171.635 131.294C172.275 131.344 172.898 131.422 173.504 131.53C174.167 131.653 174.751 131.837 175.254 132.083C175.758 132.329 176.164 132.665 176.475 133.093C176.785 133.52 176.963 134.07 177.01 134.74C177.065 135.541 176.943 136.213 176.644 136.758C176.345 137.303 175.927 137.752 175.39 138.108C174.871 138.443 174.28 138.699 173.619 138.876C172.958 139.052 172.292 139.164 171.621 139.21ZM73.4445 177.074C71.9175 177.18 70.6193 176.942 69.55 176.361C68.4807 175.78 67.6467 174.949 67.048 173.868C66.4667 172.766 66.1258 171.49 66.0253 170.037C65.9249 168.585 66.0961 167.272 66.5389 166.1C66.9991 164.908 67.7281 163.95 68.7259 163.227C69.7223 162.484 70.9841 162.06 72.5111 161.954C73.3491 161.896 74.1309 161.973 74.8566 162.185C75.5823 162.397 76.2239 162.745 76.7814 163.231C77.3575 163.715 77.8122 164.338 78.1456 165.101L76.8607 165.19C76.4836 164.337 75.8905 163.741 75.0813 163.404C74.2708 163.049 73.4 162.903 72.4689 162.968C71.184 163.057 70.1338 163.429 69.3184 164.084C68.5203 164.719 67.9419 165.554 67.5832 166.589C67.2417 167.605 67.1135 168.727 67.1985 169.956C67.2796 171.129 67.5592 172.195 68.0371 173.154C68.5151 174.112 69.203 174.86 70.1008 175.397C71.0172 175.932 72.1366 176.154 73.4587 176.063C74.4457 175.994 75.3167 175.738 76.0718 175.292C76.8269 174.847 77.3604 174.174 77.6723 173.273L78.9573 173.184C78.6948 173.988 78.2836 174.672 77.7238 175.234C77.1639 175.797 76.5205 176.234 75.7937 176.547C75.0655 176.84 74.2825 177.016 73.4445 177.074ZM88.3547 176.043C86.2691 176.187 84.7214 175.723 83.7117 174.652C82.702 173.58 82.1251 172.002 81.9808 169.916L81.4013 161.536L82.5745 161.455L83.156 169.863C83.2281 170.906 83.4421 171.836 83.798 172.653C84.1725 173.469 84.7211 174.096 85.4436 174.532C86.1834 174.949 87.1306 175.117 88.2852 175.037C89.4956 174.954 90.4299 174.664 91.088 174.17C91.7635 173.655 92.2218 172.978 92.4631 172.138C92.7218 171.278 92.8131 170.299 92.7371 169.2L92.1556 160.792L93.3288 160.711L93.9084 169.091C94.0513 171.158 93.6972 172.801 92.8459 174.02C91.9933 175.221 90.4963 175.895 88.3547 176.043ZM98.4345 175.149L97.0687 155.4L98.2419 155.319L99.6077 175.068L98.4345 175.149ZM109.101 174.608C107.63 174.71 106.578 174.371 105.944 173.591C105.327 172.792 104.97 171.685 104.872 170.27L104.227 160.94L101.629 161.119L101.561 160.142L104.159 159.962L103.854 155.549L105.027 155.468L105.332 159.881L110.388 159.531L110.456 160.509L105.4 160.859L106.022 169.853C106.066 170.486 106.165 171.106 106.319 171.713C106.491 172.3 106.795 172.775 107.231 173.138C107.668 173.5 108.324 173.651 109.199 173.591C109.535 173.568 109.885 173.497 110.251 173.378C110.636 173.258 110.952 173.095 111.2 172.891L111.683 173.784C111.451 173.95 111.199 174.098 110.928 174.229C110.655 174.342 110.37 174.427 110.075 174.485C109.78 174.542 109.455 174.584 109.101 174.608ZM120.663 173.808C119.117 173.915 117.81 173.678 116.741 173.097C115.671 172.516 114.846 171.675 114.265 170.574C113.702 169.472 113.37 168.194 113.27 166.742C113.173 165.345 113.337 164.061 113.761 162.891C114.203 161.7 114.913 160.734 115.891 159.993C116.867 159.233 118.1 158.802 119.59 158.699C120.633 158.626 121.549 158.75 122.338 159.07C123.127 159.389 123.796 159.858 124.344 160.475C124.91 161.09 125.354 161.818 125.674 162.656C126.011 163.475 126.24 164.357 126.362 165.303C126.389 165.432 126.408 165.571 126.419 165.72C126.428 165.85 126.437 165.99 126.448 166.139L114.464 166.968C114.604 168.174 114.911 169.238 115.387 170.16C115.861 171.063 116.536 171.755 117.411 172.237C118.285 172.701 119.392 172.886 120.733 172.793C121.273 172.756 121.827 172.652 122.396 172.482C122.963 172.293 123.477 172.023 123.94 171.673C124.402 171.323 124.755 170.878 124.998 170.337L126.311 170.246C126.046 171.013 125.613 171.651 125.012 172.161C124.411 172.67 123.727 173.063 122.96 173.341C122.192 173.6 121.427 173.756 120.663 173.808ZM114.425 165.988L125.207 165.243C125.096 164.184 124.814 163.221 124.362 162.354C123.909 161.487 123.282 160.81 122.481 160.323C121.68 159.836 120.702 159.632 119.548 159.712C118.412 159.79 117.454 160.137 116.673 160.753C115.911 161.367 115.337 162.136 114.952 163.061C114.585 163.984 114.41 164.96 114.425 165.988ZM135.611 172.775C135.015 172.816 134.405 172.793 133.782 172.705C133.159 172.636 132.56 172.49 131.983 172.268C131.407 172.046 130.89 171.745 130.433 171.365C129.995 170.983 129.663 170.51 129.437 169.946L130.75 169.855C131.088 170.412 131.529 170.84 132.074 171.139C132.617 171.419 133.191 171.604 133.796 171.693C134.419 171.781 135.011 171.806 135.569 171.767C136.053 171.734 136.554 171.662 137.07 171.551C137.585 171.422 138.059 171.24 138.492 171.004C138.942 170.748 139.293 170.424 139.547 170.033C139.799 169.622 139.905 169.119 139.864 168.523C139.821 167.909 139.629 167.435 139.288 167.104C138.966 166.77 138.566 166.527 138.087 166.373C137.607 166.2 137.141 166.083 136.687 166.02C136.423 165.983 136.14 165.946 135.838 165.911C135.536 165.875 135.225 165.841 134.904 165.807C134.339 165.752 133.744 165.672 133.12 165.565C132.493 165.44 131.9 165.247 131.339 164.987C130.779 164.726 130.313 164.356 129.943 163.877C129.573 163.397 129.361 162.766 129.307 161.984C129.255 161.22 129.36 160.577 129.623 160.054C129.905 159.529 130.287 159.1 130.769 158.767C131.27 158.433 131.832 158.179 132.456 158.005C133.099 157.83 133.756 157.719 134.426 157.672C135.152 157.622 135.876 157.675 136.598 157.831C137.339 157.986 137.994 158.268 138.565 158.677C139.136 159.087 139.559 159.647 139.832 160.358L138.659 160.439C138.274 159.736 137.67 159.254 136.847 158.993C136.024 158.731 135.231 158.627 134.468 158.68C134.077 158.707 133.641 158.765 133.161 158.855C132.68 158.944 132.224 159.107 131.791 159.342C131.376 159.558 131.032 159.872 130.762 160.284C130.509 160.694 130.406 161.225 130.451 161.877C130.494 162.51 130.688 163.011 131.032 163.38C131.375 163.749 131.797 164.029 132.297 164.219C132.795 164.39 133.3 164.524 133.812 164.619C134.398 164.71 135.003 164.79 135.625 164.859C136.264 164.908 136.887 164.987 137.493 165.095C138.157 165.217 138.74 165.401 139.244 165.647C139.747 165.893 140.154 166.23 140.464 166.657C140.775 167.085 140.953 167.634 140.999 168.304C141.055 169.105 140.933 169.778 140.634 170.322C140.334 170.867 139.917 171.317 139.38 171.672C138.86 172.007 138.27 172.263 137.609 172.44C136.947 172.617 136.281 172.728 135.611 172.775Z" fill="black"/>
          <g clip-path="url(#clip0_1601_4339)">
          <path d="M197.172 158.575C196.437 155.167 193.577 152.422 190.007 152.121C188.986 152.036 187.76 152.394 186.9 152.204C186.166 152.044 185.693 150.932 185.107 150.474C180.021 146.515 172.709 148.807 171.212 155.07C167.516 155.003 164.295 157.487 163.657 161.148C159.169 162.126 156.689 163.899 155.783 168.457C155.676 169.001 155.862 169.858 155.71 170.176C155.653 170.294 154.17 171.117 153.693 171.856C151.957 174.535 153.257 176.355 155.139 178.348C159.226 191.021 161.138 205.406 165.407 217.897C165.584 218.415 165.695 219.21 166.257 219.443L204.698 216.89L209.797 174.568C211.436 172.249 212.601 170.148 210.192 167.787C209.66 167.265 208.17 166.656 208.104 166.555C207.886 166.225 208.02 165.343 207.85 164.801C206.223 159.671 202.618 157.206 197.175 158.575L197.172 158.575Z" fill="white"/>
          <path d="M197.172 158.575C202.615 157.206 206.217 159.671 207.847 164.801C208.02 165.342 207.883 166.225 208.101 166.555C208.167 166.656 209.658 167.265 210.189 167.787C212.598 170.148 211.433 172.249 209.794 174.568L204.695 216.89L166.254 219.443C165.692 219.21 165.578 218.415 165.404 217.897C161.138 205.403 159.223 191.021 155.136 178.348C153.254 176.355 151.954 174.535 153.69 171.856C154.167 171.117 155.65 170.294 155.707 170.176C155.862 169.857 155.673 169.001 155.78 168.457C156.686 163.899 159.166 162.126 163.654 161.148C164.292 157.487 167.513 155.003 171.209 155.07C172.706 148.807 180.018 146.515 185.104 150.474C185.69 150.932 186.16 152.044 186.897 152.204C187.756 152.391 188.986 152.033 190.004 152.121C193.574 152.422 196.437 155.167 197.169 158.575L197.172 158.575ZM173.348 155.537C174.652 155.871 177.895 158.101 176.896 159.567L175.93 160.018C174.611 159.116 173.51 157.672 171.791 157.475C167.488 156.988 166.322 159.531 165.494 163.144C163.038 163.718 160.401 163.821 158.912 166.226C157.63 168.294 158.567 169.846 158.055 171.24C157.596 172.49 154.537 172.371 155.278 175.029C155.82 176.968 157.812 175.919 158.959 175.858C161.466 175.719 163.231 175.846 165.279 177.43C168.307 174.248 173.138 174.432 176.685 176.661C179.746 173.521 184.907 173.431 188.432 175.858C191.498 172.656 196.3 172.763 199.884 175.057C200.914 173.729 202.557 173.001 204.194 172.741C205.831 172.481 208.386 173.277 209.047 171.445C209.995 168.814 206.498 168.933 205.924 167.933C205.525 167.24 205.704 165.728 205.425 164.728C204.808 162.504 202.457 160.426 200.088 160.42C198.695 160.417 196.588 161.734 195.893 161.466C194.765 161.029 194.911 158.561 194.245 157.348C192.467 154.112 189.12 154.065 185.91 154.923C184.777 154.228 184.497 152.912 183.421 152.081C179.746 149.243 174.619 151.223 173.351 155.537L173.348 155.537ZM171.394 216.885L164.34 180.748C163.247 177.5 160.965 178.027 158.002 178.319L157.619 178.961L167.59 217.131L171.397 216.882L171.394 216.885ZM179.617 216.317C178.926 212.806 178.956 209.237 178.598 205.686C177.976 199.506 177.144 193.27 176.419 187.103C176.125 184.604 176.211 181.699 175.573 179.263C174.779 176.234 166.591 176.949 166.595 180.209L173.744 216.723L179.617 216.317ZM188.426 215.707L187.319 178.45C186.57 175.603 179.327 176.074 178.054 178.652L181.969 216.154L188.429 215.707L188.426 215.707ZM196.649 215.139L198.755 177.932C197.877 174.666 190.803 175.372 189.806 177.851C189.039 179.761 189.923 184.748 189.995 187.057C190.19 193.167 190.175 199.347 190.358 205.458C190.458 208.817 190.732 212.186 190.773 215.545L196.646 215.139L196.649 215.139ZM207.433 174.86C204.694 174.97 201.565 174.908 201.008 178.212L198.995 214.977L202.619 214.738L207.433 174.857L207.433 174.86Z" fill="black"/>
          <path d="M173.348 155.536C174.616 151.223 179.743 149.243 183.418 152.081C184.497 152.914 184.777 154.228 185.907 154.923C189.121 154.068 192.464 154.112 194.242 157.348C194.907 158.558 194.762 161.025 195.89 161.466C196.585 161.734 198.692 160.417 200.085 160.42C202.454 160.426 204.805 162.504 205.422 164.728C205.698 165.728 205.522 167.24 205.921 167.933C206.495 168.933 209.992 168.814 209.044 171.445C208.383 173.277 205.811 172.485 204.191 172.741C202.571 172.996 200.911 173.729 199.881 175.057C196.297 172.763 191.492 172.656 188.429 175.857C184.904 173.43 179.74 173.521 176.682 176.661C173.135 174.432 168.304 174.247 165.276 177.429C163.224 175.843 161.463 175.719 158.956 175.857C157.809 175.919 155.817 176.968 155.275 175.028C154.534 172.374 157.593 172.493 158.052 171.24C158.564 169.846 157.627 168.297 158.909 166.226C160.399 163.824 163.038 163.72 165.491 163.143C166.319 159.531 167.485 156.987 171.788 157.475C173.51 157.669 174.608 159.116 175.927 160.017L176.893 159.567C177.892 158.104 174.649 155.871 173.345 155.537L173.348 155.536ZM186.183 158.825C185.139 159.079 182.414 160.512 182.616 161.769C183.619 164.031 185.072 161.438 186.585 161.09C187.918 160.784 189.852 160.806 190.9 161.79C191.701 162.543 192.703 165.857 194.175 164.355C195.098 163.412 193.238 160.785 192.396 160.085C190.758 158.722 188.229 158.329 186.183 158.825ZM167.784 170.189C168.724 169.266 168.454 167.756 170.813 167.441C173.652 167.063 174.445 171.231 176.127 169.867C177.122 166.972 172.826 164.798 170.365 165.141C168.299 165.43 164.789 168.01 166.079 170.275C166.559 170.81 167.309 170.656 167.784 170.189ZM180.476 167.733C181.848 166.534 183.777 166.992 185.434 166.673C186.537 165.428 185.669 164.527 184.147 164.457C181.601 164.334 178.477 165.274 177.753 167.986C177.972 168.946 179.069 169.189 179.871 168.715C180.223 168.506 180.254 167.927 180.473 167.733L180.476 167.733ZM189.778 170.147C190.957 171.19 192.739 167.948 195.604 169.009C196.388 169.301 198.083 171.069 198.663 169.603C199.608 167.224 195.133 166.254 193.443 166.444C192.017 166.604 188.009 168.58 189.778 170.147Z" fill="#FFEEC8"/>
          <path d="M188.426 215.707L181.966 216.154L178.05 178.652C179.324 176.074 186.567 175.603 187.316 178.45L188.423 215.707L188.426 215.707Z" fill="#FF8888"/>
          <path d="M179.617 216.316L173.744 216.723L166.595 180.208C166.594 176.949 174.779 176.233 175.573 179.262C176.211 181.699 176.126 184.604 176.419 187.102C177.144 193.27 177.976 199.505 178.598 205.686C178.956 209.237 178.926 212.806 179.617 216.316Z" fill="white"/>
          <path d="M196.649 215.139L190.776 215.545C190.735 212.186 190.461 208.817 190.361 205.459C190.178 199.348 190.193 193.167 189.997 187.057C189.923 184.746 189.041 179.761 189.809 177.851C190.806 175.372 197.88 174.666 198.758 177.932L196.652 215.139L196.649 215.139Z" fill="white"/>
          <path d="M207.433 174.859L202.62 214.74L198.995 214.979L201.009 178.215C201.565 174.911 204.694 174.973 207.433 174.862L207.433 174.859Z" fill="#FF8888"/>
          <path d="M171.394 216.885L167.588 217.134L157.619 178.964L158.002 178.322C160.965 178.029 163.248 177.503 164.34 180.751L171.394 216.888L171.394 216.885Z" fill="#FF8888"/>
          <path d="M186.183 158.825C188.229 158.329 190.758 158.723 192.396 160.085C193.235 160.786 195.099 163.413 194.175 164.355C192.706 165.857 191.701 162.541 190.9 161.791C189.849 160.806 187.918 160.785 186.585 161.091C185.072 161.438 183.619 164.031 182.616 161.769C182.414 160.512 185.139 159.079 186.183 158.825Z" fill="black"/>
          <path d="M167.784 170.189C167.309 170.655 166.558 170.81 166.079 170.275C164.789 168.009 168.299 165.43 170.365 165.14C172.829 164.797 177.125 166.972 176.127 169.867C174.445 171.231 173.649 167.063 170.813 167.44C168.454 167.756 168.724 169.266 167.784 170.189Z" fill="black"/>
          <path d="M189.778 170.147C188.011 168.58 192.017 166.604 193.443 166.444C195.132 166.254 199.608 167.224 198.663 169.603C198.083 171.069 196.388 169.301 195.603 169.009C192.739 167.948 190.957 171.19 189.778 170.147Z" fill="black"/>
          <path d="M180.476 167.734C180.256 167.927 180.223 168.507 179.874 168.715C179.072 169.19 177.975 168.943 177.755 167.986C178.48 165.274 181.601 164.335 184.15 164.457C185.669 164.531 186.54 165.431 185.436 166.673C183.78 166.993 181.848 166.538 180.479 167.733L180.476 167.734Z" fill="black"/>
          </g>
          <defs>
          <clipPath id="clip0_1601_4339">
          <rect width="58.8152" height="69.9697" fill="white" transform="translate(151.221 150.448) rotate(-3.95612)"/>
          </clipPath>
          </defs>
        </svg>