<svg width="1192" height="1191" viewBox="0 0 1192 1191" fill="none" xmlns="http://www.w3.org/2000/svg">
<g filter="url(#filter0_d_1152_528)">
<path d="M678.274 173.6C678.274 171.391 680.065 169.6 682.274 169.6H878.283C880.492 169.6 882.283 171.391 882.283 173.6V714.664C882.283 777.656 867.278 832.534 837.269 879.297C807.26 925.785 765.411 961.82 711.725 987.402C658.038 1012.71 595.679 1025.36 524.648 1025.36C452.791 1025.36 390.019 1012.71 336.332 987.402C282.646 961.82 240.935 925.785 211.201 879.297C181.467 832.534 166.6 777.656 166.6 714.664V173.6C166.6 171.391 168.391 169.6 170.6 169.6H367.022C369.231 169.6 371.022 171.391 371.022 173.6V696.921C371.022 726.079 377.354 752.074 390.019 774.905C402.959 797.737 420.992 815.617 444.118 828.545C467.245 841.474 494.088 847.938 524.648 847.938C555.208 847.938 581.914 841.474 604.765 828.545C627.891 815.617 645.925 797.737 658.864 774.905C671.804 752.074 678.274 726.079 678.274 696.921V173.6Z" fill="#242046"/>
<path d="M1084.23 1026.6C1054.49 1026.6 1029.03 1016.15 1007.83 995.241C986.903 974.336 976.578 949.029 976.854 919.32C976.578 890.162 986.903 865.268 1007.83 844.637C1029.03 823.731 1054.49 813.278 1084.23 813.278C1112.31 813.278 1137.09 823.731 1158.56 844.637C1180.31 865.268 1191.32 890.162 1191.6 919.32C1191.32 939.126 1186.09 957.143 1175.91 973.373C1166 989.602 1152.92 1002.53 1136.67 1012.16C1120.71 1021.79 1103.22 1026.6 1084.23 1026.6Z" fill="#242046"/>
</g>
<defs>
<filter id="filter0_d_1152_528" x="9.15527e-05" y="9.15527e-05" width="1358.2" height="1190.2" filterUnits="userSpaceOnUse" color-interpolation-filters="sRGB">
<feFlood flood-opacity="0" result="BackgroundImageFix"/>
<feColorMatrix in="SourceAlpha" type="matrix" values="0 0 0 0 0 0 0 0 0 0 0 0 0 0 0 0 0 0 127 0" result="hardAlpha"/>
<feOffset dy="-3"/>
<feGaussianBlur stdDeviation="83.3"/>
<feComposite in2="hardAlpha" operator="out"/>
<feColorMatrix type="matrix" values="0 0 0 0 0 0 0 0 0 0 0 0 0 0 0 0 0 0 0.22 0"/>
<feBlend mode="normal" in2="BackgroundImageFix" result="effect1_dropShadow_1152_528"/>
<feBlend mode="normal" in="SourceGraphic" in2="effect1_dropShadow_1152_528" result="shape"/>
</filter>
</defs>
</svg>
