<svg width="525" height="600" viewBox="0 0 525 600" fill="none" xmlns="http://www.w3.org/2000/svg">
<path d="M141.97 15H381.19C452.955 15 510 72.0446 510 143.81V368.309C510 440.074 452.955 497.119 381.19 497.119H294.703L291.022 500.799L176.933 572.565V497.119H143.81C72.0446 497.119 15 440.074 15 368.309V143.81C15 72.0446 72.0446 15 143.81 15H141.97Z" stroke="black" stroke-opacity="0.05" stroke-width="30"/>
<path d="M279.981 127.249H342.546V291.022C342.546 309.424 338.866 325.985 329.665 340.706C320.465 355.428 307.584 364.628 291.022 373.829C274.461 381.19 256.059 384.87 233.978 384.87C211.896 384.87 193.494 381.19 176.933 373.829C160.372 366.468 147.491 355.428 138.29 340.706C129.089 325.985 125.409 309.424 125.409 291.022V127.249H187.974V285.502C187.974 294.703 189.814 302.063 193.494 309.424C197.175 316.784 202.695 322.305 210.056 325.985C217.416 329.665 224.777 331.506 233.978 331.506C243.178 331.506 250.539 329.665 257.9 325.985C265.26 322.305 270.781 316.784 274.461 309.424C278.141 302.063 279.981 294.703 279.981 285.502V127.249Z" fill="black" fill-opacity="0.04"/>
<path d="M403.272 384.869C394.071 384.869 386.711 381.189 379.35 375.668C373.83 370.148 370.15 360.947 370.15 353.587C370.15 344.386 373.83 337.025 379.35 331.505C386.711 325.984 394.071 322.304 403.272 322.304C412.473 322.304 419.834 325.984 425.354 331.505C432.715 337.025 434.555 344.386 434.555 353.587C434.555 359.107 434.555 364.627 429.034 370.148C425.354 375.668 421.674 379.349 416.153 381.189C410.633 384.869 405.112 384.869 399.592 384.869H403.272Z" fill="black" fill-opacity="0.04"/>
</svg>
