<svg width="113" height="130" viewBox="0 0 113 130" fill="none" xmlns="http://www.w3.org/2000/svg">
<path d="M30.8365 4H81.3981C96.5666 4 108.624 16.0726 108.624 31.2607V78.7723C108.624 93.9604 96.5666 106.033 81.3981 106.033H63.1182L62.3403 106.812L38.2263 122V106.033H31.2255C16.057 106.033 4 93.9604 4 78.7723V31.2607C4 16.0726 16.057 4 31.2255 4H30.8365Z" fill="#0E0431" stroke="white" stroke-opacity="0.09" stroke-width="8"/>
<path d="M60.0065 27.7559H73.2303V62.4159C73.2303 66.3103 72.4524 69.8153 70.5078 72.9308C68.5631 76.0463 65.8405 77.9935 62.3401 79.9407C58.8397 81.4984 54.9503 82.2773 50.2831 82.2773C45.6159 82.2773 41.7265 81.4984 38.2261 79.9407C34.7257 78.3829 32.0032 76.0463 30.0585 72.9308C28.1138 69.8153 27.3359 66.3103 27.3359 62.4159V27.7559H40.5597V61.2476C40.5597 63.1948 40.9487 64.7526 41.7265 66.3103C42.5044 67.8681 43.6712 69.0364 45.227 69.8153C46.7827 70.5941 48.3384 70.9836 50.2831 70.9836C52.2278 70.9836 53.7835 70.5941 55.3393 69.8153C56.895 69.0364 58.0618 67.8681 58.8397 66.3103C59.6176 64.7526 60.0065 63.1948 60.0065 61.2476V27.7559Z" fill="white" fill-opacity="0.09"/>
<path d="M86.0653 82.2771C84.1206 82.2771 82.5649 81.4982 81.0091 80.3299C79.8423 79.1615 79.0645 77.2143 79.0645 75.6566C79.0645 73.7094 79.8423 72.1516 81.0091 70.9833C82.5649 69.815 84.1206 69.0361 86.0653 69.0361C88.01 69.0361 89.5657 69.815 90.7325 70.9833C92.2883 72.1516 92.6772 73.7094 92.6772 75.6566C92.6772 76.8249 92.6772 77.9932 91.5104 79.1615C90.7325 80.3299 89.9546 81.1087 88.7878 81.4982C87.621 82.2771 86.4542 82.2771 85.2874 82.2771H86.0653Z" fill="white" fill-opacity="0.09"/>
</svg>
