<svg width="17" height="15" viewBox="0 0 17 15" fill="none" xmlns="http://www.w3.org/2000/svg">
<path d="M4.78283 5.89286C4.19521 5.89286 3.72047 6.37165 3.72047 6.96429C3.72047 7.55692 4.19521 8.03571 4.78283 8.03571C5.37045 8.03571 5.8452 7.55692 5.8452 6.96429C5.8452 6.37165 5.37045 5.89286 4.78283 5.89286ZM8.5011 5.89286C7.91348 5.89286 7.43874 6.37165 7.43874 6.96429C7.43874 7.55692 7.91348 8.03571 8.5011 8.03571C9.08872 8.03571 9.56346 7.55692 9.56346 6.96429C9.56346 6.37165 9.08872 5.89286 8.5011 5.89286ZM12.2194 5.89286C11.6318 5.89286 11.157 6.37165 11.157 6.96429C11.157 7.55692 11.6318 8.03571 12.2194 8.03571C12.807 8.03571 13.2817 7.55692 13.2817 6.96429C13.2817 6.37165 12.807 5.89286 12.2194 5.89286ZM8.5011 0C3.80679 0 0.00220335 3.11719 0.00220335 6.96429C0.00220335 8.55804 0.66286 10.0179 1.75842 11.1931C1.26376 12.5123 0.234595 13.6306 0.217996 13.644C-0.00111654 13.8783 -0.0608744 14.2199 0.0652811 14.5145C0.191437 14.8092 0.480266 15 0.798975 15C2.8407 15 4.45085 14.1395 5.41693 13.4498C6.37638 13.7545 7.41218 13.9286 8.5011 13.9286C13.1954 13.9286 17 10.8114 17 6.96429C17 3.11719 13.1954 0 8.5011 0ZM8.5011 12.3214C7.61469 12.3214 6.73824 12.1842 5.89831 11.9163L5.1447 11.6752L4.49732 12.1373C4.02258 12.4754 3.37188 12.8538 2.58839 13.1083C2.83074 12.7031 3.06645 12.2478 3.24905 11.7623L3.60096 10.8214L2.91706 10.0915C2.31616 9.44531 1.59575 8.37723 1.59575 6.96429C1.59575 4.01116 4.6932 1.60714 8.5011 1.60714C12.309 1.60714 15.4065 4.01116 15.4065 6.96429C15.4065 9.91741 12.309 12.3214 8.5011 12.3214Z" fill="#898989"/>
</svg>
