<svg xmlns="http://www.w3.org/2000/svg" width="104" height="104" viewBox="0 0 104 104" fill="none">
  <g filter="url(#filter0_d_1535_568)">
    <path d="M52.5696 4.35235C46.8182 4.16974 41.091 5.15659 35.665 6.98049C34.4488 7.38903 31.2583 9.0839 30.4261 9.1233C29.9106 9.14948 28.117 8.13695 27.0858 7.95056C20.6413 6.77762 13.9356 10.9549 13.0263 17.6859C12.8136 19.2566 13.7321 22.674 13.4926 23.4345C13.2107 24.3265 10.3995 28.0803 9.63982 29.5473C-3.40087 54.7494 8.67762 86.2853 35.5048 95.53C73.029 108.462 108.286 73.3211 95.604 35.6873C95.2841 34.7394 93.7184 31.6094 93.7193 31.0878C93.7224 30.3336 95.0934 27.771 95.2483 26.5189C96.1573 19.2485 90.0005 13.2673 82.872 13.4509C81.9764 13.4753 80.4789 14.1068 79.9119 13.9659C79.0976 13.7624 75.9687 11.2723 74.822 10.6089C68.1268 6.75598 60.3045 4.5994 52.5696 4.35235Z" fill="white"/>
    <path d="M53.3887 2.38296C60.941 2.74019 68.5412 4.8366 75.1608 8.50319L75.82 8.87581L75.8237 8.87813C76.5052 9.27243 77.7105 10.1606 78.651 10.8298C79.1618 11.1932 79.6315 11.5197 80.0128 11.7637C80.1263 11.8363 80.2243 11.8953 80.3062 11.9435C80.427 11.9173 80.5779 11.8824 80.7704 11.8329C81.0243 11.7676 81.3622 11.6785 81.6823 11.6082C81.995 11.5395 82.4028 11.4627 82.8173 11.4514L82.8202 11.4517C91.0244 11.2403 98.3116 18.1402 97.233 26.767C97.1665 27.3019 96.9908 27.8626 96.8311 28.3173C96.6624 28.7976 96.4588 29.3019 96.2795 29.743C96.0908 30.2069 95.934 30.5908 95.8201 30.9079C95.8039 30.9529 95.7917 30.9934 95.7798 31.0286C95.7944 31.0667 95.8092 31.1094 95.8273 31.1549C95.9622 31.4942 96.1524 31.9308 96.3676 32.4127C96.7084 33.1763 97.1655 34.1671 97.4086 34.7999L97.4992 35.0472L97.4991 35.0481C110.708 74.2469 73.9557 110.897 34.8532 97.4211C6.83555 87.7661 -5.7197 54.8791 7.8632 28.6286L7.86427 28.6277C8.31338 27.7605 9.30225 26.3192 10.088 25.1559C10.5063 24.5366 10.8902 23.9633 11.1857 23.4942C11.3628 23.2129 11.4676 23.0281 11.526 22.924C11.5214 22.8534 11.5146 22.7639 11.5025 22.6529C11.4592 22.2539 11.3826 21.7605 11.2922 21.1624C11.206 20.5918 11.11 19.9433 11.0517 19.3285C10.9959 18.7397 10.9595 18.045 11.0444 17.4173C12.1261 9.41415 20.0244 4.63221 27.4441 5.98263L27.4431 5.98254C28.2312 6.12531 29.1765 6.53982 29.7331 6.77672C30.022 6.89971 30.2492 6.99425 30.4329 7.06501C30.5066 7.03893 30.5935 7.00717 30.6936 6.96786C31.0755 6.81794 31.5493 6.60824 32.0729 6.36986C32.9066 5.99031 33.979 5.48077 34.7284 5.19321L35.0286 5.08422C40.6476 3.1955 46.6125 2.16201 52.6331 2.35317L53.3887 2.38296Z" stroke="white" stroke-width="4"/>
  </g>
  <path d="M52.5676 4.35276C60.3026 4.59981 68.1278 6.75667 74.8198 10.6123C75.9668 11.2727 79.0982 13.766 79.9097 13.9692C80.4767 14.1101 81.9741 13.4786 82.8698 13.4543C89.9954 13.2703 96.1522 19.2516 95.2461 26.5222C95.0914 27.7715 93.7204 30.334 93.7171 31.0912C93.7164 31.6098 95.2818 34.7427 95.6018 35.6906C108.283 73.3244 73.0268 108.466 35.5025 95.5334C8.67276 86.2854 -3.4028 54.7498 9.63496 29.5475C10.3944 28.0833 13.203 24.3263 13.4877 23.4346C13.7273 22.6741 12.8085 19.2597 13.0214 17.686C13.9278 10.9548 20.6364 6.77774 27.0809 7.95068C28.1122 8.13706 29.9057 9.1496 30.4212 9.12342C31.2537 9.0811 34.4472 7.38652 35.6602 6.98061C41.089 5.157 46.8134 4.16986 52.5676 4.35276ZM65.9617 12.6544C59.0551 10.0274 51.6531 9.30013 44.3563 10.5401L47.2536 12.9869C55.2142 23.038 44.6409 33.48 36.8161 39.4222C35.3387 40.542 30.6031 44.0781 28.9403 43.7474C26.8819 43.3337 20.0284 34.8322 18.4442 32.7644C18.039 32.2355 16.6748 29.7884 16.3942 29.6136C15.9331 29.3238 15.6082 30.3854 15.4232 30.7092C-2.03218 61.2589 24.242 98.2363 58.7898 91.9678C83.9286 87.4074 98.8818 60.857 90.1254 36.8258C89.6995 36.4481 87.5296 39.071 87.0741 39.4774C85.1265 41.2143 82.6 43.3544 80.5024 44.8762C79.3379 45.7201 75.6799 48.3359 74.424 48.216C72.856 48.0625 68.8162 43.6442 67.6248 42.2927C61.1818 34.9896 52.9723 22.8422 62.5649 14.5589L65.9617 12.6544ZM23.9605 13.3276C20.0856 13.6116 18.2831 17.4199 18.7782 20.9461C19.5674 26.5583 26.1507 33.212 29.7931 37.3527C34.5331 34.3447 43.8581 27.1699 44.5085 21.3066C44.8979 17.7786 41.7533 14.5766 38.2324 14.6771C35.2612 14.7636 33.9813 17.6298 31.7513 17.4028C29.9677 17.2223 29.735 15.7141 28.599 14.7601C27.297 13.6659 25.659 13.2021 23.9634 13.3279L23.9605 13.3276ZM69.2211 17.7567C66.8348 17.9211 64.2056 20.2368 63.8019 22.614C62.7855 28.6331 70.9516 37.8496 75.0566 41.7821C79.027 38.7754 83.7517 35.592 86.7591 31.5803C89.0137 28.5737 91.045 24.4754 88.1334 21.1518C86.2056 18.9502 82.9477 18.4722 80.4346 19.9622C79.2077 20.691 78.7527 21.9963 77.006 21.8313C75.0399 21.6477 75.1895 20.6013 74.2262 19.6907C72.8416 18.3851 71.1564 17.6219 69.2213 17.7538L69.2211 17.7567Z" fill="black"/>
  <path d="M65.9626 12.6562L62.5658 14.5608C52.9732 22.8441 61.1798 34.9911 67.6258 42.2945C68.8174 43.6431 72.8569 48.0644 74.425 48.2178C75.6806 48.3407 79.3418 45.7222 80.5033 44.878C82.6009 43.3562 85.1274 41.2162 87.075 39.4792C87.5305 39.0729 89.7004 36.4499 90.1263 36.8276C98.883 60.8559 83.9298 87.4063 58.7908 91.9696C24.2461 98.2355 -2.02805 61.2581 15.4273 30.7084C15.6123 30.3847 15.9373 29.323 16.3983 29.6128C16.676 29.7873 18.0402 32.2344 18.4483 32.7636C20.0325 34.8314 26.8857 43.3358 28.9445 43.7466C30.6069 44.0802 35.3425 40.5442 36.8203 39.4215C44.6479 33.4795 55.2213 23.0375 47.2577 12.9861L44.3604 10.5393C51.6572 9.29934 59.0563 10.0263 65.9658 12.6536L65.9626 12.6562ZM23.7472 45.7343C21.5248 45.7909 20.6462 47.2375 20.4983 49.3215C19.3835 65.0215 31.3744 79.7081 46.9693 81.8178C63.6142 84.0714 79.7727 72.1365 81.8599 55.3262C82.169 52.8306 81.3275 51.5488 78.8642 51.0542L23.7501 45.7346L23.7472 45.7343Z" fill="white"/>
  <path d="M23.9613 13.3257C25.6569 13.1998 27.2948 13.6637 28.5969 14.7578C29.7328 15.7119 29.9626 17.2198 31.7491 17.4005C33.9791 17.6276 35.2619 14.7616 38.2302 14.6749C41.7511 14.5744 44.8958 17.7763 44.5063 21.3044C43.8562 27.1648 34.5338 34.3427 29.7909 37.3505C26.1515 33.2101 19.5653 26.5561 18.7761 20.9439C18.2812 17.4148 20.0834 13.6094 23.9583 13.3254L23.9613 13.3257Z" fill="#FF7C7C"/>
  <path d="M69.2232 17.7564C71.1582 17.6245 72.8435 18.3877 74.228 19.6932C75.1943 20.6042 75.0421 21.6473 77.0078 21.8338C78.7546 21.9988 79.2096 20.6935 80.4365 19.9648C82.9495 18.4748 86.2075 18.9527 88.1352 21.1544C91.0469 24.4779 89.0185 28.5765 86.761 31.5829C83.7506 35.5942 79.0259 38.7776 75.0584 41.7846C70.9535 37.8521 62.7873 28.6356 63.8038 22.6166C64.2048 20.2361 66.8366 17.9236 69.2229 17.7593L69.2232 17.7564Z" fill="#FF7C7C"/>
  <path d="M23.7481 45.7338L78.8622 51.0535C81.3255 51.548 82.167 52.8299 81.8579 55.3255C79.7736 72.136 63.6122 84.0707 46.9672 81.817C31.3724 79.7074 19.3815 65.0208 20.4963 49.3207C20.6442 47.2368 21.5228 45.7902 23.7452 45.7336L23.7481 45.7338ZM75.812 56.6466L26.1714 51.7889C26.3372 56.1494 27.3765 61.0433 30.1256 64.5219C42.6759 56.4721 58.7127 58.0414 69.4614 68.3712C72.864 65.5035 74.79 60.9144 75.8091 56.6463L75.812 56.6466ZM48.408 64.9552C43.1894 64.7805 37.9221 66.2191 33.6156 69.1664C41.9444 77.4734 55.3831 78.8415 65.1403 72.2514C60.8346 67.8394 54.5699 65.1603 48.408 64.9552Z" fill="black"/>
  <path d="M75.8108 56.6453C74.7885 60.916 72.8625 65.5051 69.4632 68.3702C58.7144 58.0404 42.6776 56.471 30.1273 64.5209C27.3782 61.0423 26.3389 56.1483 26.1731 51.7878L75.8137 56.6456L75.8108 56.6453Z" fill="white"/>
  <path d="M48.407 64.9509C54.5689 65.156 60.8336 67.8351 65.1392 72.2471C55.3792 78.8369 41.9405 77.4688 33.6145 69.1621C37.9211 66.2148 43.1884 64.7762 48.407 64.9509Z" fill="white"/>
  <defs>
    <filter id="filter0_d_1535_568" x="0.366459" y="0.330811" width="102.877" height="102.94" filterUnits="userSpaceOnUse" color-interpolation-filters="sRGB">
      <feFlood flood-opacity="0" result="BackgroundImageFix"/>
      <feColorMatrix in="SourceAlpha" type="matrix" values="0 0 0 0 0 0 0 0 0 0 0 0 0 0 0 0 0 0 127 0" result="hardAlpha"/>
      <feOffset dx="1" dy="1"/>
      <feComposite in2="hardAlpha" operator="out"/>
      <feColorMatrix type="matrix" values="0 0 0 0 0 0 0 0 0 0 0 0 0 0 0 0 0 0 0.17 0"/>
      <feBlend mode="normal" in2="BackgroundImageFix" result="effect1_dropShadow_1535_568"/>
      <feBlend mode="normal" in="SourceGraphic" in2="effect1_dropShadow_1535_568" result="shape"/>
    </filter>
  </defs>
</svg>