<svg width="70" height="62" viewBox="0 0 70 62" fill="none" xmlns="http://www.w3.org/2000/svg">
<g filter="url(#filter0_d_1329_1008)">
<path d="M25.5546 4.85735C29.8428 5.45581 33.7777 7.5903 36.7608 10.5359C38.1973 10.1091 39.5054 9.32828 40.9607 8.93355C60.1126 3.73921 73.9301 27.0514 56.7311 40.2392C50.7421 44.832 41.8179 51.1907 35.3324 54.9981C32.0099 56.9489 28.8999 57.4137 25.9043 54.4415C20.5122 46.4291 12.6164 38.7552 7.47038 30.7337C-0.500354 18.3081 10.6131 2.77531 25.5546 4.85735Z" fill="white"/>
<path d="M40.9292 6.87539C51.2429 4.30659 60.1849 9.26193 64.2361 16.7401C68.3948 24.4168 67.341 34.624 57.9477 41.8267C52.3072 46.1521 44.0463 52.0607 37.6074 55.969L36.3449 56.7229C34.5404 57.7824 32.5639 58.5808 30.4809 58.5656C28.3127 58.5496 26.3051 57.656 24.496 55.8611L24.3555 55.7218L24.2453 55.5586C21.6207 51.6586 18.3751 47.8238 15.063 43.8762C11.7837 39.9677 8.44014 35.9491 5.78721 31.8137C1.31701 24.8452 2.21792 16.972 6.28589 11.2027C10.3425 5.44945 17.5772 1.72608 25.8311 2.87623L26.2762 2.94388C30.4209 3.61777 34.2113 5.57033 37.2292 8.23754C37.4874 8.13105 37.7616 8.01643 38.0598 7.88739C38.7376 7.59415 39.5521 7.24315 40.4372 7.00307L40.9292 6.87539Z" stroke="white" stroke-width="4"/>
</g>
<path d="M26.8817 7.60213C30.7918 8.1468 34.3758 10.1177 37.0897 12.8436C38.4011 12.444 39.5963 11.7161 40.9248 11.3462C58.4078 6.47866 70.954 28.0763 55.2325 40.3564C49.758 44.633 41.6016 50.5557 35.6761 54.1047C32.6406 55.9231 29.8025 56.3622 27.0773 53.6117C22.1787 46.1902 14.9953 39.089 10.3211 31.6584C3.08122 20.1483 13.2574 5.7073 26.8817 7.60213Z" fill="black" stroke="black" stroke-width="2"/>
<path d="M24.8331 5.55233C28.7432 6.09699 32.3273 8.06786 35.0411 10.7938C36.3525 10.3942 37.5477 9.66634 38.8762 9.29644C56.3592 4.42886 68.9054 26.0265 53.1839 38.3066C47.7094 42.5832 39.553 48.5059 33.6276 52.0549C30.592 53.8733 27.754 54.3124 25.0288 51.5619C20.1301 44.1404 12.9467 37.0392 8.27254 29.6086C1.03263 18.0984 11.2088 3.6575 24.8331 5.55233Z" fill="#FF1E1E" stroke="black" stroke-width="2"/>
<path d="M46.8654 17.2958C49.5756 18.3207 52.6502 21.3955 51.9917 26.1711" stroke="#FF7C7C" stroke-width="6" stroke-linecap="round"/>
<defs>
<filter id="filter0_d_1329_1008" x="0.812866" y="0.667969" width="68.7418" height="60.8984" filterUnits="userSpaceOnUse" color-interpolation-filters="sRGB">
<feFlood flood-opacity="0" result="BackgroundImageFix"/>
<feColorMatrix in="SourceAlpha" type="matrix" values="0 0 0 0 0 0 0 0 0 0 0 0 0 0 0 0 0 0 127 0" result="hardAlpha"/>
<feOffset dx="1" dy="1"/>
<feComposite in2="hardAlpha" operator="out"/>
<feColorMatrix type="matrix" values="0 0 0 0 0 0 0 0 0 0 0 0 0 0 0 0 0 0 0.17 0"/>
<feBlend mode="normal" in2="BackgroundImageFix" result="effect1_dropShadow_1329_1008"/>
<feBlend mode="normal" in="SourceGraphic" in2="effect1_dropShadow_1329_1008" result="shape"/>
</filter>
</defs>
</svg>
