<svg xmlns="http://www.w3.org/2000/svg" width="42" height="37" viewBox="0 0 42 37" fill="none">
  <path d="M18.5587 2.90799C21.2669 2.63225 23.8429 4.52418 23.9942 7.32111C23.4436 11.1377 23.4163 15.1727 22.863 18.9688C22.4254 21.9733 19.2047 23.6004 16.7091 21.6607C15.5697 20.7748 15.3898 19.7032 15.214 18.356C14.8023 15.2123 14.3076 11.1705 14.189 8.04184C14.0854 5.3077 15.8082 3.18782 18.5587 2.90799ZM18.5546 4.53919C16.7759 4.77943 15.7728 6.09122 15.8205 7.83845C15.9213 11.5254 16.8168 15.5126 16.9913 19.2337C17.6619 21.4546 20.6195 21.3931 21.2083 19.1518C21.3814 15.4648 22.2128 11.5936 22.3532 7.93537C22.4377 5.72949 20.7354 4.24571 18.5546 4.54056V4.53919Z" fill="black"/>
  <path d="M18.5557 24.1574C24.149 23.5076 24.7638 31.9026 19.4445 32.3027C14.1252 32.7027 13.4586 24.75 18.5557 24.1574ZM18.6539 25.7889C15.6384 26.2681 16.211 31.0657 19.4377 30.6602C22.6645 30.2547 21.987 25.2592 18.6539 25.7889Z" fill="black"/>
  <path d="M18.5531 4.53924C20.7339 4.24439 22.4362 5.72817 22.3517 7.93405C22.2114 11.5937 21.3799 15.4635 21.2068 19.1504C20.618 21.3918 17.6604 21.4519 16.9898 19.2323C16.8153 15.5127 15.9199 11.5254 15.819 7.83713C15.7713 6.09127 16.7745 4.77811 18.5531 4.53787V4.53924Z" fill="#FF8F8F"/>
  <path d="M18.6553 25.7902C21.9877 25.2604 22.5713 30.2691 19.4393 30.6624C16.3074 31.0557 15.6393 26.2695 18.6553 25.7902Z" fill="#FF8F8F"/>
  <path d="M31.0586 8.32275C32.5736 9.83778 33.4484 12.1103 33.4484 15.1404" stroke="white" stroke-opacity="0.44" stroke-width="2" stroke-linecap="round"/>
  <g filter="url(#filter0_d_1967_4673)">
    <path d="M16.8039 3.50221C19.2481 3.84268 21.4885 5.07467 23.1849 6.77863C24.0047 6.52884 24.7518 6.07388 25.5823 5.84265C36.5109 2.79992 44.3535 16.3006 34.526 23.9769C31.1039 26.6503 26.0053 30.3525 22.3013 32.571C20.4038 33.7077 18.6297 33.9822 16.9262 32.2628C13.864 27.6236 9.37371 23.1847 6.45188 18.5398C1.92621 11.3448 8.28732 2.31775 16.8039 3.50221Z" fill="black" stroke="black" stroke-width="2"/>
    <path d="M15.5227 2.22096C17.9669 2.56143 20.2073 3.79342 21.9037 5.49738C22.7234 5.24759 23.4706 4.79263 24.301 4.5614C35.2296 1.51867 43.0723 15.0194 33.2448 22.6957C29.8227 25.369 24.7241 29.0712 21.0201 31.2897C19.1225 32.4265 17.3485 32.7009 15.645 30.9816C12.5828 26.3424 8.09246 21.9034 5.17063 17.2586C0.644957 10.0635 7.00607 1.0365 15.5227 2.22096Z" fill="#FF1E1E" stroke="black"/>
    <path d="M29.2963 9.56027C30.9904 10.2009 32.9123 12.123 32.5007 15.1082" stroke="#FF7C7C" stroke-width="2" stroke-linecap="round"/>
  </g>
  <defs>
    <filter id="filter0_d_1967_4673" x="3.16309" y="1.61572" width="37.8467" height="33.8721" filterUnits="userSpaceOnUse" color-interpolation-filters="sRGB">
      <feFlood flood-opacity="0" result="BackgroundImageFix"/>
      <feColorMatrix in="SourceAlpha" type="matrix" values="0 0 0 0 0 0 0 0 0 0 0 0 0 0 0 0 0 0 127 0" result="hardAlpha"/>
      <feOffset dx="1" dy="1"/>
      <feComposite in2="hardAlpha" operator="out"/>
      <feColorMatrix type="matrix" values="0 0 0 0 0 0 0 0 0 0 0 0 0 0 0 0 0 0 0.17 0"/>
      <feBlend mode="normal" in2="BackgroundImageFix" result="effect1_dropShadow_1967_4673"/>
      <feBlend mode="normal" in="SourceGraphic" in2="effect1_dropShadow_1967_4673" result="shape"/>
    </filter>
  </defs>
</svg>