<svg xmlns="http://www.w3.org/2000/svg" width="23" height="24" viewBox="0 0 23 24" fill="none">
<path d="M12.3737 1.60327C12.4507 1.61317 12.549 1.63182 12.6481 1.67163L12.7467 1.71948L12.8961 1.80444L12.9615 1.9646L15.6256 8.49097L21.525 11.033L21.5573 11.0466L21.5885 11.0652C21.9806 11.3057 22.1286 11.7629 22.1754 12.0964C22.224 12.4429 22.1931 12.8572 22.0319 13.1658C21.9668 13.2902 21.8702 13.3839 21.7946 13.448C21.7128 13.5172 21.6185 13.5828 21.5201 13.6433C21.3231 13.7646 21.0733 13.8903 20.7985 14.0173C20.247 14.2723 19.5419 14.5541 18.8317 14.8298C18.1145 15.1082 17.3931 15.3809 16.7867 15.6267C16.2393 15.8486 15.8378 16.0305 15.6246 16.156C15.1484 16.9191 14.7993 18.0529 14.4244 19.2693C14.235 19.884 14.0398 20.5118 13.8199 21.0798C13.6013 21.6447 13.3468 22.1823 13.027 22.6062C12.7552 22.9658 12.4283 23.2329 12.0319 23.2791C11.6222 23.3267 11.3 23.1221 11.0846 22.9128C10.8691 22.7035 10.697 22.4315 10.5641 22.1892C10.4294 21.9437 10.314 21.6882 10.2291 21.5076C9.81756 20.6308 9.50038 19.6728 9.19006 18.7517C8.89634 17.8799 8.60633 17.0384 8.24182 16.2673L2.31116 13.6863L2.26038 13.6648L2.21545 13.6316C1.71397 13.2648 1.52104 12.7323 1.61096 12.2087C1.69617 11.7132 2.02311 11.2753 2.45764 10.9958C2.82918 10.7562 3.33379 10.5381 3.86389 10.3347C4.39817 10.1298 5.00056 9.92466 5.5719 9.72241C6.15115 9.51736 6.70367 9.31352 7.16858 9.10327C7.6432 8.88862 7.97305 8.6899 8.15002 8.51343C8.21532 8.44571 8.30928 8.30958 8.42444 8.08276C8.53654 7.86196 8.65378 7.58644 8.77698 7.26929C9.02439 6.63232 9.27753 5.8708 9.54163 5.10522C9.80185 4.35089 10.0731 3.59091 10.3502 2.99683C10.4884 2.7006 10.6367 2.42616 10.7965 2.20776C10.9451 2.00468 11.1583 1.77398 11.4489 1.68433L11.4498 1.68335C11.6131 1.63346 11.8354 1.59973 12.0416 1.59155C12.1473 1.58737 12.2625 1.58902 12.3737 1.60327Z" fill="black" stroke="black"/>
<path d="M11.2842 0.513672C11.3613 0.523571 11.4596 0.542217 11.5586 0.582031L11.6572 0.629883L11.8066 0.714844L11.8721 0.875L14.5361 7.40137L20.4355 9.94336L20.4678 9.95703L20.499 9.97559C20.8911 10.2161 21.0391 10.6733 21.0859 11.0068C21.1345 11.3533 21.1036 11.7676 20.9424 12.0762C20.8774 12.2006 20.7807 12.2943 20.7051 12.3584C20.6234 12.4276 20.529 12.4932 20.4307 12.5537C20.2336 12.675 19.9838 12.8007 19.709 12.9277C19.1575 13.1827 18.4524 13.4645 17.7422 13.7402C17.0251 14.0186 16.3036 14.2913 15.6973 14.5371C15.1499 14.759 14.7484 14.9409 14.5352 15.0664C14.0589 15.8295 13.7098 16.9633 13.335 18.1797C13.1455 18.7944 12.9503 19.4222 12.7305 19.9902C12.5119 20.5551 12.2573 21.0927 11.9375 21.5166C11.6658 21.8762 11.3389 22.1433 10.9424 22.1895C10.5327 22.2371 10.2105 22.0325 9.99512 21.8232C9.77966 21.6139 9.60755 21.3419 9.47461 21.0996C9.33987 20.8541 9.22448 20.5986 9.13965 20.418C8.72808 19.5412 8.4109 18.5832 8.10059 17.6621C7.80686 16.7903 7.51685 15.9488 7.15234 15.1777L1.22168 12.5967L1.1709 12.5752L1.12598 12.542C0.624496 12.1752 0.431563 11.6427 0.521484 11.1191C0.606695 10.6236 0.933631 10.1857 1.36816 9.90625C1.7397 9.66661 2.24432 9.44849 2.77441 9.24512C3.30869 9.04015 3.91108 8.83506 4.48242 8.63281C5.06168 8.42776 5.61419 8.22392 6.0791 8.01367C6.55373 7.79902 6.88357 7.6003 7.06055 7.42383C7.12584 7.35611 7.2198 7.21998 7.33496 6.99316C7.44706 6.77236 7.56431 6.49684 7.6875 6.17969C7.93492 5.54272 8.18805 4.7812 8.45215 4.01562C8.71237 3.2613 8.98365 2.50131 9.26074 1.90723C9.39892 1.611 9.54725 1.33656 9.70703 1.11816C9.85565 0.915085 10.0688 0.684377 10.3594 0.594727L10.3604 0.59375C10.5236 0.543861 10.746 0.510127 10.9521 0.501953C11.0578 0.497769 11.173 0.49942 11.2842 0.513672Z" fill="white" stroke="black"/>
</svg>