<svg width="41" height="41" viewBox="0 0 41 41" fill="none" xmlns="http://www.w3.org/2000/svg">
<rect width="41" height="41" rx="6" fill="#F5FAFF"/>
<path d="M27.9243 21.696L25.6552 18.2831L26.7858 14.3172C26.8569 14.0723 26.7858 13.8037 26.6039 13.622C26.4221 13.4403 26.1533 13.3692 25.9082 13.4403L21.9629 14.5937L18.5394 12.2869C18.326 12.1447 18.0493 12.121 17.82 12.2474C17.5907 12.3659 17.4405 12.6029 17.4326 12.8557L17.314 16.9796L14.0723 19.5234C13.8668 19.6814 13.7719 19.9421 13.8114 20.195C13.851 20.4478 14.0249 20.6611 14.27 20.748L17.3061 21.8382C17.3061 21.8382 17.2665 21.8698 17.2428 21.8856L8.40752 30.7803C8.1308 31.0568 8.1308 31.5071 8.40752 31.7836C8.54193 31.9258 8.72378 31.989 8.90563 31.989C9.08747 31.989 9.26932 31.9179 9.40373 31.7836L18.2469 22.9047C18.2944 22.8573 18.326 22.8099 18.3576 22.7546L19.5436 26.0253C19.591 26.1438 19.6622 26.2465 19.757 26.3334C19.8519 26.4124 19.9705 26.4677 20.097 26.4835C20.1365 26.4835 20.1682 26.4914 20.2077 26.4914C20.3184 26.4914 20.4212 26.4677 20.516 26.4203C20.6109 26.3729 20.6979 26.3018 20.7611 26.2149L23.2754 22.9521L27.3392 22.8099C27.6001 22.802 27.8294 22.6519 27.948 22.4228C28.0666 22.1937 28.0429 21.9172 27.9006 21.7039L27.9243 21.696ZM22.9117 21.538C22.6982 21.538 22.5084 21.6486 22.374 21.8145L20.437 24.3267L19.3538 21.3484C19.2826 21.1509 19.1245 20.9929 18.9269 20.9218L15.9541 19.8473L18.4446 17.896C18.6106 17.7696 18.7055 17.5721 18.7134 17.3588L18.8083 14.1908L21.4332 15.9605C21.5201 16.0158 21.615 16.0553 21.7178 16.0711C21.8206 16.0869 21.9234 16.079 22.0262 16.0553L25.0622 15.1626L24.1925 18.212C24.1609 18.3147 24.1609 18.4174 24.1767 18.5201C24.1925 18.6228 24.232 18.7176 24.2874 18.8045L26.0663 21.4274L22.9038 21.538H22.9117Z" fill="black" stroke="black" stroke-width="0.1"/>
<path d="M32.6064 15.4939V18.1122M33.9713 16.8031H31.2414M23.4418 8.2002V10.8185M24.8068 9.50933H22.0769M32.6064 8.2002V10.8185M33.9713 9.50933H31.2414" stroke="black" stroke-width="0.4" stroke-linecap="round" stroke-linejoin="round"/>
</svg>
