<svg
    width="36"
    height="36"
    viewBox="0 0 36 36"
    fill="none"
    xmlns="http://www.w3.org/2000/svg"
>
    <path d="M34.8048 22.0675C37.6947 10.0107 27.2997 -1.15336 14.9141 1.05107C4.92326 2.82984 -1.41744 13.131 1.48053 22.9119C1.72011 26.4429 0.45875 29.9386 0.775501 33.4189C0.815814 33.8607 0.876658 34.2305 2.1244 34.6147C5.65012 34.8534 9.60542 34.2917 13.0793 34.6089C13.6483 34.6608 14.3198 34.9192 14.913 35.0172C17.591 35.4579 20.156 35.3702 22.6267 34.6896C28.7221 33.0828 33.3892 28.2667 34.8048 22.0675Z" fill="black"/>
    <path d="M0.774902 19.9653C-1.71635 5.94305 13.2578 -4.48118 25.4624 2.99268C30.3698 5.99799 33.2085 11.3812 33.2026 16.9692L33.2017 17.4692H33.1733C33.1425 18.5436 33.0117 19.5894 32.7905 20.5981V20.6011C32.7542 20.7609 32.7148 20.9206 32.6733 21.0796L32.5415 21.5562C32.4342 21.9226 32.2129 22.4279 32.0298 22.8589C31.9344 23.0834 31.8465 23.2943 31.7778 23.478C31.7063 23.6696 31.6672 23.8004 31.6558 23.8735V23.8784L31.6538 23.8921C31.6533 23.8979 31.6527 23.907 31.6519 23.9165L31.644 24.0054L31.606 24.0854C30.554 26.3116 29.0166 28.2451 27.1235 29.7563L27.0269 29.8345L26.9058 29.8569C26.8967 29.8587 26.888 29.8597 26.8813 29.8608C26.8729 29.8652 26.8601 29.8721 26.8423 29.8823C26.7919 29.9111 26.7247 29.9532 26.6421 30.0073C26.4773 30.1153 26.2727 30.2581 26.0562 30.4106C25.6433 30.7015 25.1543 31.0519 24.9077 31.1899L24.9087 31.1909C23.0126 32.2546 20.9733 32.9068 18.8853 33.1626H18.8813C18.4056 33.2176 17.924 33.2528 17.436 33.2671V33.2837L16.939 33.2866C15.3184 33.2948 13.687 33.0698 12.0854 32.6187L1.67236 32.6216H1.17236V21.3716C1.17236 21.3908 1.17117 21.3547 1.13525 21.2212C1.1051 21.1091 1.06294 20.9721 1.01611 20.8218C0.929691 20.5444 0.813759 20.1846 0.774902 19.9653Z" fill="#FFE23B" stroke="black"/>
    <path d="M16.4074 4.51714C18.696 4.28413 20.873 5.88294 21.0008 8.24656C20.5355 11.4719 20.5125 14.8818 20.0448 18.0898C19.6751 20.6287 16.9534 22.0038 14.8444 20.3646C13.8815 19.6159 13.7294 18.7104 13.5808 17.5718C13.233 14.9152 12.8149 11.4996 12.7147 8.85563C12.6271 6.54508 14.083 4.75362 16.4074 4.51714ZM16.4039 5.89563C14.9008 6.09865 14.0531 7.20721 14.0934 8.68375C14.1786 11.7995 14.9354 15.169 15.0828 18.3136C15.6495 20.1904 18.1489 20.1385 18.6465 18.2443C18.7928 15.1286 19.4954 11.8572 19.614 8.76565C19.6855 6.90152 18.2468 5.64762 16.4039 5.89678V5.89563Z" fill="black"/>
    <path d="M16.4047 22.4746C21.1315 21.9254 21.651 29.0199 17.1558 29.358C12.6606 29.696 12.0973 22.9754 16.4047 22.4746ZM16.4877 23.8534C13.9394 24.2583 14.4232 28.3126 17.1501 27.97C19.8769 27.6273 19.3044 23.4057 16.4877 23.8534Z" fill="black"/>
    <path d="M16.4022 5.89576C18.2452 5.6466 19.6838 6.9005 19.6124 8.76464C19.4937 11.8573 18.7911 15.1276 18.6448 18.2433C18.1472 20.1375 15.6478 20.1882 15.0811 18.3125C14.9337 15.1691 14.1769 11.7996 14.0917 8.68273C14.0514 7.20735 14.8991 6.09763 16.4022 5.89461V5.89576Z" fill="#FF8686"/>
    <path d="M16.4892 23.8539C19.3053 23.4062 19.7984 27.639 17.1517 27.9713C14.505 28.3037 13.9404 24.259 16.4892 23.8539Z" fill="#FF8686"/>
    <path d="M26.9702 9.09277C28.2505 10.3731 28.9898 12.2935 28.9898 14.8542" stroke="white" stroke-opacity="0.44" stroke-width="2" stroke-linecap="round"/>
</svg>