<svg width="83" height="83" viewBox="0 0 83 83" fill="none" xmlns="http://www.w3.org/2000/svg">
<g filter="url(#filter0_d_1329_1038)">
<path d="M74.9562 48.3855C78.972 29.6943 67.0754 11.2867 48.3863 7.27132C29.6972 3.25592 11.2875 15.1521 7.27165 33.8433C3.2558 52.5345 15.1524 70.9421 33.8436 74.9579C52.5348 78.9738 70.9424 67.0772 74.9583 48.386L74.9562 48.3855Z" fill="white"/>
<path d="M48.806 5.31586C67.9189 9.42232 80.3146 27.7586 77.2777 46.8382L77.334 46.8503L76.9139 48.8057C72.666 68.5768 53.1942 81.1613 33.4231 76.9134C13.6522 72.6654 1.06851 53.1938 5.31635 33.4228C9.56439 13.652 29.0373 1.06873 48.806 5.31586Z" stroke="white" stroke-width="4"/>
</g>
<path d="M74.9562 48.3855C70.9403 67.0767 52.5327 78.9733 33.8415 74.9575C15.1503 70.9416 3.25625 52.5324 7.27165 33.8433C11.287 15.1542 29.6951 3.25547 48.3863 7.27132C67.0775 11.2872 78.9741 29.6948 74.9583 48.386L74.9562 48.3855ZM70.9773 47.5306C74.5208 31.0382 64.023 14.7978 47.5326 11.2548C31.0423 7.71184 14.7982 18.2066 11.2547 34.6991C7.71125 51.1916 18.209 67.4319 34.6994 70.9749C51.1898 74.5179 67.4322 64.0206 70.9752 47.5302L70.9773 47.5306Z" fill="black"/>
<path d="M70.979 47.5287C67.4356 64.0212 51.1936 74.5164 34.7032 70.9734C18.2128 67.4304 7.71293 51.1897 11.2564 34.6972C14.7998 18.2047 31.0418 7.70947 47.5322 11.2525C64.0226 14.7955 74.5199 31.0379 70.9769 47.5283L70.979 47.5287ZM49.4767 28.9771C52.6638 28.9055 56.237 26.851 59.1768 28.8052C59.8793 29.2725 61.7226 31.533 62.2809 31.4871L64.9385 28.8665C63.2292 26.7542 60.93 24.5572 58.1811 23.9688C55.4323 23.3804 51.8991 24.7954 49.0266 24.9059L49.4767 28.9771ZM23.7787 27.2468C23.3996 27.663 24.7598 30.5761 24.9928 31.2211L29.3159 29.7325L36.0395 33.1301C36.7927 32.8053 40.959 31.6037 41.078 31.0498L39.6856 27.5658L36.1891 28.7277L29.7747 25.2395L23.7783 27.2489L23.7787 27.2468ZM53.4886 36.0298L49.4717 35.1667L47.7002 43.4119L51.7171 44.275L53.4886 36.0298ZM35.0327 36.488L31.0158 35.6249L30.1528 39.6418L34.1697 40.5048L35.0327 36.488ZM54.4308 53.2626L23.987 46.7217L23.124 50.7386L53.5677 57.2795L54.4308 53.2626Z" fill="white"/>
<path d="M54.4281 53.2636L23.9843 46.7227L23.1213 50.7395L53.565 57.2805L54.4281 53.2636Z" fill="black"/>
<path d="M23.7778 27.2489L29.7742 25.2396L36.1886 28.7277L39.6851 27.5658L41.0775 31.0499C40.9585 31.6038 36.7922 32.8054 36.039 33.1301L29.3154 29.7326L24.9923 31.2212C24.7593 30.5762 23.3986 27.6651 23.7782 27.2468L23.7778 27.2489Z" fill="black"/>
<path d="M49.4763 28.9789L49.0262 24.9077C51.8965 24.7968 55.332 23.3629 58.1806 23.9706C61.0293 24.5782 63.2266 26.7555 64.938 28.8683L62.2805 31.4889C61.7225 31.5327 59.8771 29.2717 59.1763 28.807C56.2365 26.8528 52.6633 28.9073 49.4763 28.9789Z" fill="black"/>
<path d="M53.4881 36.0339L49.4713 35.1709L47.6998 43.4161L51.7166 44.2791L53.4881 36.0339Z" fill="black"/>
<path d="M35.0299 36.489L31.013 35.626L30.15 39.6429L34.1668 40.5059L35.0299 36.489Z" fill="black"/>
<defs>
<filter id="filter0_d_1329_1038" x="2.49133" y="2.49121" width="78.2452" height="78.2471" filterUnits="userSpaceOnUse" color-interpolation-filters="sRGB">
<feFlood flood-opacity="0" result="BackgroundImageFix"/>
<feColorMatrix in="SourceAlpha" type="matrix" values="0 0 0 0 0 0 0 0 0 0 0 0 0 0 0 0 0 0 127 0" result="hardAlpha"/>
<feOffset dx="1" dy="1"/>
<feComposite in2="hardAlpha" operator="out"/>
<feColorMatrix type="matrix" values="0 0 0 0 0 0 0 0 0 0 0 0 0 0 0 0 0 0 0.17 0"/>
<feBlend mode="normal" in2="BackgroundImageFix" result="effect1_dropShadow_1329_1038"/>
<feBlend mode="normal" in="SourceGraphic" in2="effect1_dropShadow_1329_1038" result="shape"/>
</filter>
</defs>
</svg>
