<svg width="42" height="38" viewBox="0 0 42 38" fill="none" xmlns="http://www.w3.org/2000/svg">
<g id="suggest-icon">
<g id="Group 483171">
<g id="Group 482615">
<g id="Group 482604">
<path id="Vector" d="M15.0477 9.15672L18.7479 18.2207L26.9609 21.7587C27.4996 22.0891 27.5761 23.2042 27.3141 23.7053C26.8549 24.5837 20.0461 26.6845 18.7744 27.5628C17.279 29.8205 16.7256 34.358 15.2214 36.3514C13.9438 38.042 13.0754 36.01 12.5956 34.9885C11.5241 32.706 10.9353 29.9775 9.80496 27.6867L1.56846 24.1018C0.623527 23.4107 0.950279 22.2433 1.86283 21.6569C3.61728 20.5252 8.34193 19.5368 9.66071 18.2124C10.9442 16.8936 12.4101 9.60551 13.829 9.16773C14.1352 9.07412 14.7916 9.01079 15.0477 9.15672Z" stroke="black" stroke-width="2"/>
</g>
</g>
<g id="Group 482619">
<g id="Group 482604_2">
<path id="Vector_2" d="M34.7778 1.04175L36.5657 5.42128L40.534 7.13079C40.7943 7.29043 40.8313 7.82922 40.7047 8.07135C40.4828 8.49573 37.1929 9.51079 36.5785 9.93518C35.8559 11.0261 35.5885 13.2185 34.8617 14.1817C34.2444 14.9985 33.8248 14.0167 33.593 13.5231C33.0753 12.4203 32.7908 11.1019 32.2446 9.99504L28.2649 8.26292C27.8083 7.929 27.9662 7.36493 28.4071 7.08156C29.2549 6.53479 31.5377 6.05719 32.1749 5.41729C32.7951 4.78005 33.5034 1.2586 34.189 1.04707C34.3369 1.00184 34.654 0.971241 34.7778 1.04175Z" stroke="black" stroke-width="1.6"/>
</g>
</g>
</g>
</g>
</svg>
