<svg width="108" height="102" viewBox="0 0 108 102" fill="none" xmlns="http://www.w3.org/2000/svg" className="text-emerald-400">
<path d="M70.5209 1.66016C70.6438 1.67592 70.8125 1.70684 70.9877 1.77734L71.1635 1.86133L71.4633 2.03223L71.5941 2.35254L75.4135 11.709L83.8607 15.3486L83.9261 15.377L83.9877 15.4141C84.662 15.8277 84.8954 16.5936 84.9672 17.1045C85.0425 17.6415 84.9992 18.3062 84.7299 18.8213C84.6115 19.0474 84.4412 19.2105 84.3207 19.3125C84.188 19.4248 84.0383 19.5272 83.889 19.6191C83.5899 19.8033 83.217 19.9918 82.8148 20.1777C82.0066 20.5514 80.976 20.9617 79.9467 21.3613C78.9039 21.7661 77.8639 22.1594 76.9877 22.5146C76.2318 22.8211 75.6894 23.0646 75.3929 23.2305C74.7454 24.2968 74.2604 25.8752 73.722 27.6221C73.4479 28.5119 73.1619 29.4308 72.8392 30.2646C72.5189 31.0922 72.1391 31.8984 71.6527 32.543V32.5439C71.2396 33.0906 70.707 33.5463 70.0238 33.626C69.3136 33.7087 68.768 33.3506 68.4261 33.0186C68.0845 32.6866 67.8204 32.2642 67.6234 31.9053C67.4228 31.5397 67.25 31.1594 67.1293 30.9023C66.5246 29.6143 66.0601 28.2087 65.6117 26.8779C65.1973 25.648 64.793 24.4754 64.2933 23.4004L55.7914 19.7002L55.6888 19.6562L55.6 19.5908C54.7894 18.998 54.4662 18.122 54.6146 17.2588C54.7534 16.4518 55.2812 15.7558 55.9642 15.3164L56.184 15.1826C56.7167 14.8726 57.3779 14.5917 58.0521 14.333C58.8311 14.0341 59.7118 13.734 60.5355 13.4424C61.3748 13.1453 62.1661 12.8532 62.8285 12.5537C63.509 12.246 63.9472 11.975 64.1674 11.7568C64.2332 11.688 64.3536 11.52 64.516 11.2002C64.6727 10.8916 64.8399 10.5018 65.017 10.0459C65.3731 9.12912 65.7359 8.03369 66.1205 6.91895C66.4972 5.82677 66.8956 4.71282 67.3041 3.83691C67.5077 3.40031 67.7319 2.98398 67.9789 2.64648C68.2033 2.33975 68.556 1.94409 69.0648 1.78711L69.0668 1.78613C69.3309 1.70538 69.6776 1.65319 69.9945 1.64062C70.1579 1.63415 70.3404 1.63704 70.5209 1.66016Z" fill="white" stroke="white" stroke-width="2"/>
<path d="M68.8197 0.555664C69.0533 0.463404 69.292 0.504551 69.4457 0.545898C69.7703 0.633263 70.1304 0.839245 70.391 1.00195C70.5286 1.08786 70.6532 1.17146 70.7494 1.23633C70.7986 1.2695 70.8372 1.29582 70.8695 1.31738C70.9015 1.33871 70.9151 1.34726 70.9174 1.34863L71.0756 1.43848L71.139 1.60938L75.0258 12.0605L82.4144 14.3516L82.474 14.3701L82.5277 14.4033C82.669 14.49 82.7937 14.6187 82.8949 14.7393C83.0022 14.8672 83.1114 15.0197 83.2172 15.1836C83.4289 15.5117 83.645 15.9124 83.8314 16.3145C84.0172 16.715 84.1804 17.1332 84.2797 17.4971C84.329 17.6781 84.3668 17.8605 84.3793 18.0283C84.3905 18.1797 84.3885 18.3954 84.2875 18.5889C84.2129 18.7315 84.0982 18.8453 83.9974 18.9307C83.8906 19.0211 83.7634 19.109 83.6263 19.1934C83.3519 19.3623 83 19.5409 82.6049 19.7236C81.8126 20.09 80.7959 20.4957 79.766 20.8955C78.7294 21.2979 77.6801 21.6937 76.7992 22.0508C75.9735 22.3855 75.3521 22.6645 75.0336 22.8613C74.3085 24.0003 73.791 25.7011 73.2445 27.4746C72.9696 28.3668 72.6888 29.2691 72.3734 30.084C72.0592 30.8957 71.6994 31.6522 71.2543 32.2422C70.8701 32.7505 70.4416 33.0749 69.9633 33.1689C69.4749 33.2648 69.0422 33.1002 68.7015 32.8574C68.0523 32.3946 67.5791 31.5416 67.3187 30.9873V30.9863C66.7212 29.7134 66.3302 28.2477 65.9457 26.8389C65.5731 25.4736 65.2022 24.1592 64.6625 23.0156L55.9906 19.2412L55.9398 19.2197L55.8949 19.1865C55.2359 18.7045 54.9909 18.0169 55.1068 17.3428C55.218 16.6967 55.649 16.1134 56.2357 15.7363L56.4379 15.6123C56.9314 15.3254 57.5609 15.0562 58.2318 14.7988C59.0027 14.5031 59.8704 14.2076 60.7025 13.9131C61.5425 13.6157 62.3512 13.3178 63.0345 13.0088C63.7279 12.6952 64.2381 12.3931 64.5248 12.1064C64.6433 11.984 64.7917 11.7617 64.9623 11.4258C65.1295 11.0963 65.303 10.6895 65.4828 10.2266C65.8434 9.29804 66.2118 8.18751 66.5931 7.08203C66.9706 5.9877 67.3612 4.89689 67.7572 4.04785C67.9549 3.62408 68.163 3.24105 68.3822 2.94141C68.4795 2.80842 68.5915 2.67557 68.7181 2.56055C68.6134 2.33098 68.5313 2.12879 68.473 1.9502C68.3858 1.68286 68.3339 1.42419 68.3588 1.19434C68.3872 0.932376 68.5263 0.671671 68.8197 0.555664Z" fill="black" stroke="black"/>
<path d="M68.8779 0.577148C68.9807 0.590321 69.1025 0.613699 69.2207 0.661133L69.3369 0.716797L69.4863 0.802734L69.5518 0.962891L73.4482 10.5078L82.083 14.2285L82.1162 14.2422L82.1465 14.2617C82.6283 14.5573 82.8279 15.1338 82.8926 15.5947C82.9591 16.0686 82.9129 16.6176 82.708 17.0098C82.6334 17.1524 82.5188 17.2662 82.418 17.3516C82.3111 17.442 82.184 17.5298 82.0469 17.6143C81.7724 17.7832 81.4205 17.9618 81.0254 18.1445C80.2331 18.5109 79.2164 18.9166 78.1865 19.3164C77.1499 19.7188 76.1006 20.1155 75.2197 20.4727C74.3948 20.8071 73.7738 21.0854 73.4551 21.2822C72.7298 22.4212 72.2116 24.1217 71.665 25.8955C71.3901 26.7877 71.1093 27.69 70.7939 28.5049C70.519 29.2152 70.2094 29.8835 69.8379 30.4346L69.6748 30.6631C69.2967 31.1634 68.8717 31.4932 68.3857 31.5498C67.8866 31.6078 67.4834 31.361 67.1953 31.0811C66.9071 30.801 66.6706 30.4297 66.4814 30.085C66.2906 29.7371 66.1277 29.3759 66.0029 29.1104C65.4129 27.8534 64.9569 26.4784 64.5059 25.1396C64.0712 23.8496 63.638 22.5909 63.0859 21.4385L54.4111 17.6631L54.3604 17.6406L54.3154 17.6074C53.6567 17.1255 53.4116 16.4386 53.5273 15.7646C53.6385 15.1184 54.0694 14.5344 54.6562 14.1572C55.1738 13.8235 55.886 13.5147 56.6523 13.2207C57.4232 12.9249 58.2909 12.6295 59.123 12.335C59.9631 12.0376 60.7717 11.7387 61.4551 11.4297C62.1485 11.1161 62.6587 10.814 62.9453 10.5273C63.0639 10.4049 63.2123 10.1825 63.3828 9.84668C63.5501 9.5172 63.7235 9.1103 63.9033 8.64746C64.264 7.71893 64.6323 6.60839 65.0137 5.50293C65.3912 4.40856 65.7817 3.3178 66.1777 2.46875C66.3754 2.04494 66.5835 1.66195 66.8027 1.3623C67.0108 1.07803 67.2832 0.793426 67.6328 0.685547H67.6338C67.848 0.620046 68.1503 0.572812 68.4346 0.561523C68.5792 0.555789 68.7327 0.558547 68.8779 0.577148Z" fill="white" stroke="black"/>
<path d="M97.51 37.0547C97.6027 37.0666 97.744 37.0907 97.8967 37.1523L98.052 37.2266L98.3518 37.3984L98.4827 37.7178L100.844 43.5049L106.057 45.75L106.122 45.7783L106.184 45.8164C106.752 46.165 106.925 46.7882 106.976 47.1484C107.03 47.5347 107.005 48.0396 106.787 48.4561C106.68 48.6608 106.531 48.801 106.44 48.8779C106.337 48.9651 106.225 49.0408 106.121 49.1045C105.914 49.2322 105.662 49.3583 105.403 49.4785C104.879 49.7206 104.217 49.9844 103.566 50.2373C102.901 50.4955 102.248 50.7422 101.697 50.9658C101.28 51.1347 100.988 51.2646 100.815 51.3525C100.459 51.9755 100.174 52.8891 99.8411 53.9688C99.668 54.5304 99.4834 55.1242 99.2737 55.666C99.0923 56.1348 98.8742 56.6129 98.5959 57.0254L98.4729 57.1982C98.1855 57.5785 97.7683 57.96 97.1907 58.0273C96.5862 58.0977 96.1369 57.7895 95.8811 57.541C95.6254 57.2925 95.4364 56.9868 95.3059 56.749C95.239 56.627 95.177 56.5023 95.1223 56.3887L94.9836 56.0938C94.59 55.2553 94.289 54.3437 94.0071 53.5068C93.7603 52.7743 93.5239 52.0918 93.2434 51.4668L87.9875 49.1797L87.886 49.1357L87.7961 49.0703C87.1718 48.6137 86.9099 47.9206 87.0276 47.2354C87.1358 46.6058 87.5423 46.0817 88.0461 45.7578C88.4373 45.5058 88.9447 45.2896 89.4348 45.1016C89.9342 44.91 90.5013 44.7167 91.0168 44.5342C91.548 44.3462 92.0366 44.1662 92.4407 43.9834C92.8604 43.7936 93.0851 43.644 93.177 43.5547C93.1831 43.5471 93.1978 43.5303 93.218 43.499C93.2494 43.4505 93.288 43.3832 93.3333 43.2939C93.4246 43.114 93.525 42.8799 93.635 42.5967C93.8572 42.0247 94.0844 41.3417 94.3303 40.6289C94.5684 39.9387 94.8261 39.216 95.094 38.6416C95.2274 38.3556 95.3811 38.0677 95.5579 37.8262C95.7121 37.6154 95.994 37.2829 96.4329 37.1475H96.4348C96.6386 37.0851 96.8909 37.048 97.1155 37.0391C97.2328 37.0344 97.3698 37.0367 97.51 37.0547Z" fill="white" stroke="white" stroke-width="2"/>
<path d="M96.3186 36.5479C96.5225 36.4674 96.7217 36.5059 96.8303 36.5352C97.0646 36.5983 97.3125 36.7425 97.4778 36.8457C97.5678 36.9019 97.6488 36.9567 97.7102 36.998C97.7421 37.0195 97.7655 37.0355 97.7854 37.0488C97.7951 37.0553 97.8016 37.0593 97.8049 37.0615L97.9631 37.1514L98.0266 37.3223L100.456 43.8564L105.05 45.2812L105.11 45.2998L105.163 45.332C105.278 45.4025 105.372 45.5027 105.441 45.584C105.515 45.6726 105.588 45.776 105.657 45.8838C105.797 46.1 105.939 46.3612 106.06 46.6221C106.18 46.8815 106.287 47.1568 106.354 47.4004C106.387 47.5213 106.414 47.6492 106.423 47.7715C106.429 47.8509 106.431 47.9713 106.395 48.0977L106.344 48.2246C106.281 48.3455 106.188 48.4359 106.117 48.4961C106.04 48.5615 105.951 48.6225 105.86 48.6787C105.677 48.7912 105.446 48.9076 105.194 49.0244C104.686 49.2591 104.037 49.5184 103.385 49.7715C102.726 50.0272 102.064 50.2764 101.508 50.502C101.012 50.7031 100.65 50.8678 100.456 50.9805C100.025 51.6751 99.7071 52.7063 99.3635 53.8213C99.1897 54.3855 99.0093 54.9633 98.8069 55.4863C98.6057 56.006 98.3704 56.5029 98.0735 56.8965V56.8975C97.8151 57.2393 97.5084 57.4823 97.1448 57.5537C96.7712 57.6269 96.4469 57.4981 96.2043 57.3252C95.7512 57.0021 95.4347 56.4224 95.2688 56.0693C94.8823 55.246 94.6312 54.3008 94.3889 53.4131C94.1591 52.571 93.9344 51.7763 93.6165 51.084L88.1877 48.7207L88.137 48.6992L88.092 48.666C87.6191 48.3201 87.4354 47.8156 87.5208 47.3193C87.6014 46.8511 87.9096 46.4403 88.3167 46.1787C88.6615 45.9564 89.1278 45.7551 89.6145 45.5684C90.1057 45.3799 90.6599 45.1913 91.1838 45.0059C91.7156 44.8176 92.2216 44.6307 92.6467 44.4385C93.0817 44.2417 93.3776 44.0608 93.5344 43.9043C93.59 43.8463 93.6739 43.7265 93.7786 43.5205C93.8806 43.3195 93.9889 43.068 94.1018 42.7773C94.3286 42.1935 94.5603 41.4956 94.803 40.792C95.0418 40.0997 95.2917 39.4001 95.5471 38.8525C95.6745 38.5795 95.8122 38.3247 95.9612 38.1211C96.0023 38.0649 96.0499 38.0067 96.1028 37.9492C96.058 37.8443 96.0205 37.7473 95.9915 37.6582C95.9335 37.4806 95.8915 37.2876 95.9114 37.1035C95.9348 36.887 96.0546 36.6521 96.3186 36.5479Z" fill="black" stroke="black"/>
<path d="M96.4463 36.5498C96.5186 36.5591 96.6125 36.5769 96.708 36.6152L96.8037 36.6611L96.9541 36.7471L97.0195 36.9072L99.458 42.8828L104.858 45.21L104.892 45.2236L104.922 45.2422C105.298 45.4727 105.437 45.9075 105.48 46.2178C105.526 46.5411 105.497 46.9311 105.344 47.2246C105.281 47.3455 105.188 47.4359 105.117 47.4961C105.04 47.5615 104.951 47.6225 104.859 47.6787C104.677 47.7912 104.446 47.9076 104.193 48.0244C103.686 48.2591 103.037 48.5184 102.385 48.7715C101.726 49.0272 101.064 49.2764 100.508 49.502C100.012 49.7031 99.6502 49.8678 99.4561 49.9805C99.025 50.6751 98.7069 51.7063 98.3633 52.8213C98.1894 53.3855 98.0091 53.9633 97.8066 54.4863C97.6055 55.0061 97.3702 55.5039 97.0732 55.8975C96.821 56.2312 96.5127 56.4859 96.1328 56.5303C95.7392 56.5761 95.4317 56.3791 95.2295 56.1826C95.0273 55.9862 94.8668 55.7324 94.7441 55.5088C94.6197 55.282 94.5131 55.0459 94.4355 54.8809C94.0565 54.0734 93.7651 53.1916 93.4805 52.3467C93.2126 51.5515 92.9484 50.7863 92.6182 50.085L87.1875 47.7207L87.1367 47.6992L87.0918 47.666C86.6188 47.3201 86.4352 46.8156 86.5205 46.3193C86.6011 45.8511 86.9094 45.4403 87.3164 45.1787C87.6612 44.9564 88.1276 44.7551 88.6143 44.5684C89.1055 44.3799 89.6597 44.1913 90.1836 44.0059C90.7154 43.8176 91.2214 43.6307 91.6465 43.4385C92.0815 43.2417 92.3774 43.0608 92.5342 42.9043C92.5898 42.8463 92.6737 42.7265 92.7783 42.5205C92.8804 42.3195 92.9887 42.068 93.1016 41.7773C93.3283 41.1935 93.56 40.4956 93.8027 39.792C94.0415 39.0997 94.2915 38.4001 94.5469 37.8525C94.6742 37.5795 94.8119 37.3247 94.9609 37.1211C95.0987 36.9329 95.3004 36.7123 95.5801 36.626L95.5811 36.625C95.735 36.5779 95.9427 36.5467 96.1348 36.5391C96.2333 36.5352 96.3413 36.5363 96.4463 36.5498Z" fill="white" stroke="black"/>
<g filter="url(#filter0_d_1598_467)">
<path d="M40.232 33.2418L48.8563 54.3091L67.9985 62.5324C69.2541 63.3004 69.4325 65.8922 68.8219 67.0569C67.7516 69.0984 51.8821 73.9812 48.9181 76.0226C45.4327 81.2702 44.1428 91.8166 40.6369 96.4499C37.6592 100.379 35.6352 95.6564 34.5169 93.2821C32.0195 87.9769 30.6472 81.635 28.0126 76.3106L8.81553 67.9784C6.61314 66.3722 7.37471 63.6588 9.50163 62.2957C13.5908 59.6655 24.6027 57.368 27.6764 54.2899C30.6678 51.2245 34.0846 34.285 37.3916 33.2674C38.1052 33.0499 39.6351 32.9027 40.232 33.2418Z" fill="white"/>
<path d="M38.7963 31.5469C39.1256 31.5339 39.4824 31.54 39.8265 31.584C40.1058 31.6197 40.4713 31.6912 40.8236 31.8594L40.973 31.9375L41.4242 32.1934L41.6205 32.6738L50.0111 53.1719L68.5902 61.1543L68.6898 61.1963L68.7816 61.2529C69.9872 61.9905 70.4486 63.3961 70.5951 64.4365C70.747 65.5155 70.6497 66.8009 70.1508 67.7529V67.7539C69.9522 68.1325 69.6572 68.4188 69.4222 68.6172C69.1687 68.8313 68.8736 69.0337 68.5658 69.2227C67.9497 69.601 67.1686 69.9964 66.3051 70.3945C64.5727 71.1933 62.3556 72.0736 60.1215 72.9385C57.8669 73.8113 55.5975 74.6672 53.6898 75.4385C51.957 76.139 50.6789 76.7102 50.0052 77.1084C48.4962 79.5118 47.3986 83.089 46.2181 86.9092C45.6221 88.8379 45.0083 90.8046 44.3177 92.584C43.6308 94.354 42.834 96.0331 41.8334 97.3555H41.8324C40.9822 98.4774 39.9713 99.2952 38.7543 99.4365C37.4978 99.5823 36.5066 98.9561 35.8363 98.3066C35.1662 97.6574 34.6294 96.8127 34.2123 96.0547C33.7898 95.2868 33.4269 94.4885 33.1595 93.9209C31.8669 91.1749 30.8714 88.1734 29.8949 85.2832C28.9691 82.543 28.0578 79.8922 26.9056 77.4648L8.21814 69.3545L8.0658 69.2881L7.93201 69.1904C6.376 68.0556 5.77786 66.4101 6.05701 64.791C6.32143 63.2574 7.33755 61.9016 8.68982 61.0342L9.1449 60.7568C10.2483 60.117 11.6397 59.5247 13.098 58.9668C14.7777 58.3242 16.6712 57.6809 18.4701 57.0459C20.2924 56.4026 22.0328 55.7635 23.4984 55.1025C24.9999 54.4254 26.0502 53.7947 26.6146 53.2295C26.8269 53.0072 27.1217 52.5726 27.4808 51.8672C27.8348 51.1718 28.2063 50.3063 28.5941 49.3105C29.3729 47.3111 30.1682 44.9206 30.9984 42.5205C31.817 40.1542 32.6705 37.7749 33.5404 35.915C33.9744 34.9871 34.4389 34.1303 34.9379 33.4502C35.4034 32.8159 36.0604 32.1079 36.9506 31.834L36.9545 31.833C37.4604 31.6788 38.1526 31.5723 38.7963 31.5469Z" stroke="white" stroke-width="3"/>
</g>
<path d="M36.2727 24.3379C36.3997 24.3444 36.5193 24.3581 36.6252 24.3789C36.7225 24.398 36.8429 24.4299 36.9504 24.4912L37.1057 24.5791L37.1702 24.7451L47.5901 51.79L64.3938 55.2725L64.4797 55.29L64.554 55.3359C64.8088 55.4922 65.0444 55.7722 65.2522 56.0693C65.4701 56.3811 65.697 56.7703 65.9231 57.2051C66.3763 58.0764 66.845 59.1658 67.2502 60.2617C67.6552 61.3571 68.0024 62.4743 68.2092 63.4023C68.3124 63.8652 68.3836 64.294 68.4065 64.6562C68.4277 64.9911 68.4162 65.3652 68.2688 65.6475C68.1561 65.863 67.9708 66.0563 67.7698 66.2266C67.5625 66.4021 67.3049 66.581 67.0129 66.7607C66.4289 67.1203 65.6664 67.509 64.7903 67.9141C63.0359 68.7252 60.7757 69.626 58.469 70.5215C56.1556 71.4195 53.7957 72.3114 51.8176 73.1133C49.891 73.8943 48.3899 74.5678 47.6487 75.0547C45.929 77.696 44.7286 81.6559 43.4983 85.6484C42.8817 87.6493 42.2589 89.65 41.5618 91.4512C40.9094 93.1368 40.1823 94.6761 39.3147 95.8945L39.1389 96.1338C38.3296 97.2048 37.4899 97.8054 36.6233 97.9756C35.7468 98.1477 34.9497 97.859 34.2776 97.3799C32.9652 96.4442 31.9618 94.6667 31.3821 93.4326C30.0714 90.6406 29.2091 87.415 28.344 84.2451C27.4906 81.1181 26.6315 78.0426 25.3411 75.375L5.70239 66.8281L5.65161 66.8066L5.60669 66.7734C4.97637 66.3124 4.24829 65.5024 3.56763 64.5488C2.88149 63.5876 2.21945 62.4459 1.73267 61.2959C1.2492 60.1536 0.920962 58.9622 0.945557 57.9141C0.970335 56.8594 1.36054 55.894 2.35083 55.3418C3.51688 54.5897 5.37891 54.2208 7.45923 54.0088C9.56314 53.7944 11.9987 53.7324 14.3713 53.6572C16.7565 53.5816 19.0779 53.4924 20.9983 53.2266C21.9576 53.0937 22.8007 52.9187 23.4915 52.6865C24.1874 52.4526 24.6918 52.1721 25.011 51.8516C25.3193 51.5328 25.6007 51.0102 25.8469 50.2832C26.0914 49.561 26.2875 48.6796 26.4514 47.6855C26.7798 45.6944 26.9679 43.3172 27.1682 40.9736C27.3671 38.6463 27.5794 36.3452 27.9602 34.5586C28.1504 33.6664 28.3885 32.871 28.7053 32.2539C28.9554 31.7669 29.2812 31.3396 29.7161 31.0908C29.8124 27.8664 31.3376 26.0794 32.9846 25.168C33.8203 24.7056 34.6737 24.4748 35.3625 24.3828C35.707 24.3368 36.0183 24.3248 36.2727 24.3379Z" fill="black" stroke="black"/>
<path d="M33.3467 22.9424C33.6473 22.9305 33.9549 22.9366 34.2363 22.9727C34.4411 22.9989 34.6549 23.0437 34.8486 23.1211L35.0352 23.21L35.1846 23.2959L35.25 23.4551L44.0723 45.0664L63.6387 53.4951L63.6719 53.5098L63.7021 53.5283C64.5425 54.0438 64.9468 55.1019 65.083 56.0723C65.221 57.0557 65.1128 58.1426 64.7334 58.8682C64.6206 59.0839 64.4355 59.277 64.2344 59.4473C64.0272 59.6227 63.7704 59.8008 63.4785 59.9805C62.8944 60.3401 62.1312 60.7286 61.2549 61.1338C59.5006 61.9449 57.2412 62.8458 54.9346 63.7412C52.6211 64.6393 50.2613 65.5321 48.2832 66.334C46.357 67.1149 44.8557 67.7875 44.1143 68.2744C42.3944 70.9158 41.1943 74.8762 39.9639 78.8691C39.3473 80.8699 38.7244 82.8698 38.0273 84.6709C37.3315 86.4688 36.5501 88.1003 35.6045 89.3535H35.6035C34.8003 90.4164 33.985 90.9994 33.1416 91.0977C32.2849 91.1973 31.5583 90.7801 30.9795 90.2178C30.4008 89.6554 29.907 88.89 29.4932 88.1357C29.0774 87.3781 28.721 86.5929 28.4365 85.9873C27.1333 83.2113 26.1266 80.1678 25.1133 77.1602C24.1163 74.2009 23.1119 71.2732 21.8086 68.5967L2.16797 60.0488L2.11719 60.0264L2.07227 59.9932C0.784468 59.0513 0.333529 57.7458 0.552734 56.4707C0.76718 55.2235 1.61064 54.0565 2.80469 53.2891L3.2373 53.0244C4.29396 52.4105 5.66301 51.8228 7.16113 51.248C8.87745 50.5896 10.8048 49.9329 12.6787 49.2695C14.5605 48.6034 16.3929 47.9285 17.9492 47.2246C19.5175 46.5154 20.7515 45.8003 21.4766 45.0723C21.8078 44.7303 22.1714 44.1649 22.5615 43.3965C22.9494 42.6325 23.3467 41.7001 23.7529 40.6543C24.5663 38.5603 25.3989 36.0541 26.249 33.5898C27.0952 31.1369 27.9599 28.7242 28.8311 26.8564C29.2663 25.9232 29.7122 25.1065 30.1689 24.4824C30.6144 23.8738 31.1233 23.3741 31.709 23.1934L31.71 23.1924C32.1279 23.0646 32.7505 22.966 33.3467 22.9424Z" fill="white" stroke="black"/>
<defs>
<filter id="filter0_d_1598_467" x="4.49048" y="30.041" width="68.6703" height="71.917" filterUnits="userSpaceOnUse" color-interpolation-filters="sRGB">
<feFlood flood-opacity="0" result="BackgroundImageFix"/>
<feColorMatrix in="SourceAlpha" type="matrix" values="0 0 0 0 0 0 0 0 0 0 0 0 0 0 0 0 0 0 127 0" result="hardAlpha"/>
<feOffset dx="1" dy="1"/>
<feComposite in2="hardAlpha" operator="out"/>
<feColorMatrix type="matrix" values="0 0 0 0 0 0 0 0 0 0 0 0 0 0 0 0 0 0 0.17 0"/>
<feBlend mode="normal" in2="BackgroundImageFix" result="effect1_dropShadow_1598_467"/>
<feBlend mode="normal" in="SourceGraphic" in2="effect1_dropShadow_1598_467" result="shape"/>
</filter>
</defs>
</svg>
