<svg width="36" height="36" viewBox="0 0 36 36" fill="none" xmlns="http://www.w3.org/2000/svg">
<g filter="url(#filter0_d_1650_12783)">
<path d="M13.9531 11.2234L16.8006 18.5794L23.1207 21.4508C23.5352 21.7189 23.5941 22.6239 23.3925 23.0306C23.0391 23.7434 17.7996 25.4483 16.821 26.1611C15.6702 27.9934 15.2443 31.6758 14.0868 33.2936C13.1037 34.6656 12.4354 33.0165 12.0662 32.1875C11.2416 30.3351 10.7886 28.1207 9.91872 26.2616L3.58051 23.3523C2.85336 22.7915 3.1048 21.844 3.80704 21.3681C5.15713 20.4497 8.79288 19.6475 9.80771 18.5727C10.7954 17.5024 11.9235 11.5877 13.0153 11.2324C13.2509 11.1564 13.7561 11.105 13.9531 11.2234Z" fill="white"/>
<path d="M12.665 7.78955C12.7195 7.79251 12.777 7.7994 12.833 7.81104C12.8566 7.81594 12.8889 7.82381 12.9258 7.83643L13.0469 7.89111L13.1982 7.98291L13.2588 8.14893L16.6367 17.4224L22.0049 18.5981L22.0938 18.6177L22.1699 18.6675C22.3156 18.762 22.4243 18.9096 22.4961 19.0181C22.5784 19.1425 22.6602 19.292 22.7383 19.4507C22.895 19.7693 23.0546 20.1621 23.1914 20.5532C23.3281 20.9441 23.4466 21.3486 23.5186 21.6899C23.5542 21.8593 23.581 22.0255 23.5898 22.1733C23.5971 22.2947 23.6013 22.4997 23.5127 22.6792C23.4491 22.8079 23.3526 22.9082 23.2725 22.98C23.187 23.0565 23.0872 23.1295 22.9824 23.1978C22.7728 23.3343 22.5062 23.4767 22.2119 23.6206C21.6216 23.9092 20.8666 24.2281 20.1055 24.5405C19.3373 24.8559 18.564 25.1642 17.9141 25.4429C17.3163 25.6992 16.878 25.9097 16.6504 26.0542C16.1314 26.9301 15.7561 28.2326 15.3545 29.6108C15.1514 30.3079 14.9424 31.0162 14.708 31.6567C14.4748 32.2939 14.2056 32.8958 13.8682 33.3687C13.5773 33.7757 13.236 34.0611 12.832 34.145C12.4144 34.2317 12.0521 34.079 11.7822 33.8755C11.2751 33.493 10.9166 32.8017 10.7246 32.3696V32.3687C10.279 31.3648 9.98772 30.2108 9.7041 29.1118C9.4322 28.0582 9.16412 27.0515 8.77832 26.1753L2.41016 23.2446L2.3584 23.2212L2.31348 23.186C2.06454 22.9935 1.80079 22.6778 1.56836 22.3335C1.33042 21.981 1.10074 21.5621 0.930664 21.1372C0.763497 20.7195 0.638991 20.2579 0.648438 19.8315C0.65816 19.3934 0.816989 18.9221 1.28809 18.6528V18.6538C1.74955 18.3543 2.42567 18.2232 3.09668 18.1509C3.80705 18.0743 4.627 18.0529 5.4043 18.0269C6.1949 18.0004 6.94194 17.969 7.55371 17.8794C7.85848 17.8348 8.11251 17.7782 8.31152 17.7075C8.51198 17.6363 8.62291 17.5624 8.67871 17.5044C8.73339 17.4441 8.80905 17.3141 8.88477 17.0776C8.95846 16.8475 9.02033 16.5575 9.07324 16.2183C9.17942 15.5375 9.24006 14.7217 9.30664 13.8979C9.37196 13.0898 9.44316 12.2671 9.57324 11.6216C9.63808 11.2999 9.72278 10.991 9.84473 10.7397C9.91483 10.5954 10.0146 10.4368 10.1553 10.3091C10.2307 9.17198 10.7681 8.48818 11.3877 8.12549C11.707 7.93862 12.0328 7.84553 12.2979 7.80811C12.4303 7.78941 12.5557 7.78363 12.665 7.78955Z" fill="black" stroke="black"/>
<path d="M12.0195 7.31543C12.1299 7.33039 12.278 7.36295 12.4131 7.44434L12.5605 7.53223L12.6221 7.69238L15.4863 15.1133L21.8232 18.001L21.8564 18.0156L21.8877 18.0361C22.2904 18.2974 22.442 18.7899 22.4902 19.1533C22.5407 19.5337 22.5075 19.9832 22.3447 20.3125C22.2811 20.4411 22.1845 20.5406 22.1045 20.6123C22.019 20.6888 21.9192 20.7618 21.8145 20.8301C21.6049 20.9665 21.339 21.1091 21.0449 21.2529C20.4546 21.5416 19.6987 21.8603 18.9375 22.1729C18.1692 22.4883 17.396 22.7975 16.7461 23.0762C16.148 23.3326 15.7099 23.543 15.4824 23.6875C14.9636 24.5634 14.588 25.8653 14.1865 27.2432C13.9834 27.9403 13.7754 28.6494 13.541 29.29C13.3369 29.8477 13.1042 30.3777 12.8232 30.8184L12.7002 31.001C12.416 31.3987 12.0743 31.6963 11.6543 31.748C11.2173 31.8019 10.8783 31.57 10.6553 31.3408C10.4303 31.1096 10.2494 30.8089 10.1084 30.5371C9.96546 30.2616 9.84247 29.9755 9.75098 29.7695C9.31214 28.7809 8.97458 27.6995 8.6416 26.6543C8.32459 25.6592 8.00948 24.6941 7.6123 23.8096L1.24219 20.8779L1.19043 20.8535L1.14551 20.8193C0.620619 20.4134 0.431362 19.8375 0.521484 19.2832C0.608004 18.7517 0.943068 18.2701 1.40332 17.957C1.79869 17.6873 2.337 17.4405 2.90527 17.21C3.47751 16.9778 4.12277 16.7459 4.73535 16.5166C5.35616 16.2842 5.94908 16.0522 6.44824 15.8135C6.95577 15.5707 7.314 15.3439 7.50977 15.1377C7.58582 15.0548 7.69013 14.8928 7.81543 14.6318C7.93715 14.3783 8.06479 14.0638 8.19727 13.7031C8.46314 12.9793 8.7341 12.1131 9.0166 11.2471C9.29554 10.3919 9.58587 9.53509 9.88086 8.86621C10.028 8.53253 10.1848 8.22579 10.3525 7.9834C10.5076 7.75933 10.7283 7.50552 11.0322 7.40625H11.0342C11.2077 7.35018 11.4446 7.31104 11.665 7.30176C11.778 7.29702 11.901 7.29938 12.0195 7.31543Z" fill="#83F6AD" stroke="black"/>
</g>
<g filter="url(#filter1_d_1650_12783)">
<path d="M28.3871 1.65371L29.8069 5.33169L32.9582 6.76735C33.1649 6.90142 33.1942 7.3539 33.0937 7.55724C32.9175 7.91364 30.305 8.7661 29.8171 9.1225C29.2433 10.0386 29.0309 11.8799 28.4538 12.6888C27.9636 13.3747 27.6304 12.5502 27.4463 12.1357C27.0351 11.2095 26.8092 10.1023 26.3755 9.17278L23.2152 7.71813C22.8526 7.4377 22.978 6.96399 23.3281 6.72601C24.0013 6.26682 25.8141 5.86573 26.3202 5.32834C26.8126 4.79318 27.3751 1.83583 27.9195 1.65818C28.037 1.6202 28.2888 1.5945 28.3871 1.65371Z" fill="white"/>
<path d="M27.5996 0.546875C27.7884 0.468022 27.9649 0.508604 28.041 0.530273C28.2105 0.578545 28.3759 0.682817 28.4688 0.744141C28.5228 0.779861 28.5713 0.813822 28.6064 0.838867C28.6555 0.873865 28.655 0.873914 28.6455 0.868164L28.7998 0.960938L28.8594 1.12988L30.1963 4.93262L32.6855 5.74902L32.748 5.76953L32.8018 5.80469C32.8965 5.86614 32.9673 5.94752 33.0098 6.00098C33.0585 6.06243 33.1046 6.13149 33.1465 6.2002C33.2306 6.33814 33.3138 6.50214 33.3848 6.66406C33.4552 6.82477 33.5207 6.99891 33.5615 7.15723C33.5817 7.23554 33.5993 7.32382 33.6055 7.41211C33.6105 7.48396 33.6146 7.6312 33.542 7.77832C33.4902 7.88308 33.4164 7.95789 33.3672 8.00195C33.3127 8.05071 33.2523 8.09372 33.1953 8.13086C33.0811 8.20521 32.9419 8.28018 32.7959 8.35156C32.5022 8.49518 32.1293 8.65183 31.7617 8.80273C31.3873 8.95643 31.0185 9.10376 30.707 9.2373C30.4617 9.34251 30.2893 9.42353 30.1895 9.47852C29.9745 9.86519 29.8071 10.4343 29.6172 11.0859C29.5194 11.4216 29.4156 11.7719 29.2988 12.0908C29.1834 12.4064 29.0434 12.7229 28.8604 12.9795C28.7005 13.2031 28.4864 13.398 28.2021 13.457C27.9043 13.5188 27.6549 13.4066 27.4873 13.2803C27.1844 13.0519 26.989 12.6617 26.8955 12.4512C26.6697 11.9425 26.5232 11.3618 26.3877 10.8369C26.2647 10.3603 26.1463 9.92513 25.9893 9.54492L23.0059 8.17188L22.9541 8.14844L22.9092 8.11328C22.5784 7.85732 22.4525 7.48418 22.5107 7.12598C22.5653 6.79042 22.7728 6.4984 23.0459 6.3125C23.2613 6.1656 23.5436 6.03807 23.8203 5.92578C24.1012 5.8118 24.4203 5.69704 24.7119 5.58789C25.0113 5.47579 25.2887 5.36777 25.5186 5.25781C25.7596 5.1425 25.8963 5.04876 25.9561 4.98535C25.9578 4.98321 25.9602 4.98019 25.9629 4.97656C25.9693 4.96782 25.9775 4.95541 25.9873 4.93945C26.0073 4.90678 26.031 4.86306 26.0576 4.80762C26.1113 4.69576 26.1688 4.55229 26.2314 4.38184C26.3578 4.03795 26.487 3.62716 26.625 3.2041C26.7594 2.79197 26.9033 2.36598 27.0518 2.0293C27.1256 1.8618 27.2092 1.69708 27.3037 1.56055C27.3103 1.55106 27.3178 1.54149 27.3252 1.53125C27.3149 1.50229 27.3033 1.47453 27.2949 1.44727C27.2596 1.33265 27.2272 1.18944 27.2422 1.04297C27.2597 0.87163 27.354 0.649582 27.5996 0.546875Z" fill="black" stroke="black"/>
<path d="M27.5757 0.522949C27.6406 0.520233 27.7159 0.521358 27.7925 0.531738C27.8437 0.538693 27.9191 0.553186 27.9995 0.587402L28.0815 0.628418L28.228 0.717285L28.2896 0.877441L29.6353 4.36377L32.6011 5.71533L32.6353 5.73096L32.6665 5.75146C32.9586 5.94107 33.0466 6.27689 33.0728 6.47412C33.1011 6.68835 33.087 6.96163 32.978 7.18213C32.9262 7.28705 32.8524 7.36172 32.8032 7.40576C32.7487 7.45457 32.6884 7.4975 32.6313 7.53467C32.5172 7.60898 32.3778 7.68304 32.2319 7.75439C31.9382 7.89801 31.5653 8.05466 31.1978 8.20557C30.8233 8.35928 30.4546 8.50658 30.1431 8.64014C29.8978 8.74528 29.7254 8.82636 29.6255 8.88135C29.4104 9.26796 29.2431 9.83702 29.0532 10.4888C28.9554 10.8244 28.8516 11.1756 28.7349 11.4946C28.6194 11.81 28.4794 12.1258 28.2964 12.3823C28.1433 12.5966 27.9225 12.8109 27.6128 12.8491C27.286 12.8894 27.046 12.7137 26.9126 12.5767C26.7774 12.4377 26.6767 12.2655 26.605 12.1274L26.4253 11.7417C26.2064 11.2485 26.039 10.7114 25.8794 10.2104C25.7363 9.76119 25.5955 9.33889 25.4282 8.95068L22.4419 7.57568L22.3901 7.55225L22.3452 7.51709C22.0142 7.26109 21.8885 6.88713 21.9468 6.52881C22.0015 6.19307 22.2095 5.90113 22.4829 5.71533C22.6981 5.56869 22.98 5.44173 23.2563 5.32959C23.5373 5.21561 23.8564 5.10085 24.1479 4.9917C24.4474 4.87958 24.7247 4.77062 24.9546 4.66064C25.1953 4.54548 25.3323 4.45255 25.3921 4.38916C25.3938 4.38699 25.3962 4.38414 25.3989 4.38037C25.4053 4.37161 25.4135 4.35937 25.4233 4.34326C25.4434 4.31056 25.467 4.26704 25.4937 4.21143C25.5474 4.09945 25.6048 3.95544 25.6675 3.78467C25.7937 3.44092 25.9231 3.03076 26.061 2.60791C26.1954 2.19585 26.3393 1.76976 26.4878 1.43311C26.5617 1.26553 26.6452 1.09997 26.7397 0.963379C26.8217 0.845 26.9696 0.661841 27.2007 0.586426L27.2017 0.585449C27.3125 0.549628 27.4512 0.528168 27.5757 0.522949Z" fill="#83F6AD" stroke="black"/>
</g>
<defs>
<filter id="filter0_d_1650_12783" x="0" y="6.7998" width="25.0938" height="28.8701" filterUnits="userSpaceOnUse" color-interpolation-filters="sRGB">
<feFlood flood-opacity="0" result="BackgroundImageFix"/>
<feColorMatrix in="SourceAlpha" type="matrix" values="0 0 0 0 0 0 0 0 0 0 0 0 0 0 0 0 0 0 127 0" result="hardAlpha"/>
<feOffset dx="1" dy="1"/>
<feComposite in2="hardAlpha" operator="out"/>
<feColorMatrix type="matrix" values="0 0 0 0 0 0 0 0 0 0 0 0 0 0 0 0 0 0 0.17 0"/>
<feBlend mode="normal" in2="BackgroundImageFix" result="effect1_dropShadow_1650_12783"/>
<feBlend mode="normal" in="SourceGraphic" in2="effect1_dropShadow_1650_12783" result="shape"/>
</filter>
<filter id="filter1_d_1650_12783" x="21.4331" y="0" width="13.6748" height="14.9751" filterUnits="userSpaceOnUse" color-interpolation-filters="sRGB">
<feFlood flood-opacity="0" result="BackgroundImageFix"/>
<feColorMatrix in="SourceAlpha" type="matrix" values="0 0 0 0 0 0 0 0 0 0 0 0 0 0 0 0 0 0 127 0" result="hardAlpha"/>
<feOffset dx="1" dy="1"/>
<feComposite in2="hardAlpha" operator="out"/>
<feColorMatrix type="matrix" values="0 0 0 0 0 0 0 0 0 0 0 0 0 0 0 0 0 0 0.17 0"/>
<feBlend mode="normal" in2="BackgroundImageFix" result="effect1_dropShadow_1650_12783"/>
<feBlend mode="normal" in="SourceGraphic" in2="effect1_dropShadow_1650_12783" result="shape"/>
</filter>
</defs>
</svg>
