<svg width="33" height="32" viewBox="0 0 33 32" fill="none" xmlns="http://www.w3.org/2000/svg">
<g id="suggest-icon">
<g id="Group 482615" filter="url(#filter0_d_1789_692)">
<g id="Group 482604">
<path id="Vector" d="M13.0873 10.0213L15.7443 16.5119L21.6418 19.0454C22.0286 19.282 22.0836 20.0805 21.8955 20.4394C21.5657 21.0683 16.6765 22.5727 15.7633 23.2016C14.6895 24.8183 14.2921 28.0676 13.212 29.495C12.2946 30.7056 11.671 29.2505 11.3265 28.5191C10.5571 26.8846 10.1343 24.9307 9.3226 23.2903L3.40819 20.7233C2.72967 20.2284 2.9643 19.3925 3.61957 18.9725C4.8794 18.1622 8.27204 17.4544 9.21902 16.506C10.1406 15.5616 11.1933 10.3427 12.2122 10.0292C12.432 9.9622 12.9034 9.91685 13.0873 10.0213Z" fill="white"/>
<path id="Vector_2" d="M11.8853 6.93277C11.9362 6.93539 11.9898 6.94098 12.0425 6.95132C12.0645 6.95566 12.0958 6.96226 12.1313 6.97379L12.2476 7.02457L12.4028 7.11343L12.4663 7.27945L15.6089 15.4347L20.6011 16.4699L20.687 16.4875L20.7612 16.5334C20.904 16.6209 21.011 16.7575 21.0796 16.8556C21.1585 16.9684 21.2354 17.1036 21.3091 17.2453C21.4569 17.5296 21.6074 17.8785 21.7358 18.2257C21.8641 18.5726 21.9763 18.9327 22.0444 19.2384C22.0782 19.39 22.1041 19.5414 22.1128 19.6779C22.1188 19.7735 22.1232 19.9388 22.062 20.0978L22.0317 20.1662C21.9667 20.2904 21.87 20.3834 21.7944 20.4474C21.7127 20.5166 21.6183 20.5822 21.52 20.6427C21.323 20.764 21.0732 20.8906 20.7983 21.0177C20.2469 21.2727 19.5417 21.5536 18.8315 21.8293C18.1144 22.1076 17.3929 22.3803 16.7866 22.6261C16.2379 22.8486 15.8364 23.0319 15.6235 23.1574C15.1478 23.9205 14.7989 25.054 14.4243 26.2697C14.2349 26.8844 14.0397 27.5122 13.8198 28.0802C13.6013 28.6449 13.3466 29.1818 13.0269 29.6056V29.6066C12.7491 29.9741 12.4237 30.2299 12.0425 30.3048C11.6513 30.3816 11.3099 30.2472 11.0522 30.0636C10.6896 29.8051 10.407 29.3904 10.2124 29.0373L10.0474 28.713C9.62827 27.8203 9.35553 26.7945 9.09131 25.8263C8.83941 24.9034 8.59187 24.0287 8.23975 23.2668L2.31104 20.6867L2.26025 20.6642L2.21533 20.631C1.97808 20.4574 1.72809 20.1739 1.50928 19.8673C1.28509 19.5532 1.06867 19.1793 0.907715 18.799C0.750054 18.4264 0.628963 18.0074 0.638184 17.6144C0.647653 17.2133 0.800987 16.7887 1.229 16.5402V16.5392C1.66517 16.2579 2.31591 16.1405 2.95557 16.0753C3.61872 16.0078 4.38372 15.989 5.10889 15.966C5.84665 15.9426 6.54336 15.915 7.11377 15.8361C7.39808 15.7967 7.63522 15.7468 7.81982 15.6847C8.00682 15.6218 8.1042 15.5568 8.1499 15.5119C8.19281 15.4666 8.25931 15.363 8.32764 15.1613C8.39452 14.9638 8.45147 14.7123 8.50049 14.4152C8.59892 13.8184 8.65504 13.1025 8.71729 12.3742C8.77814 11.6622 8.84564 10.9311 8.96826 10.3556C9.02941 10.0688 9.11004 9.78858 9.22803 9.55875C9.2935 9.43127 9.38509 9.29286 9.51123 9.17886C9.59144 8.1631 10.1065 7.55285 10.687 7.2316C10.988 7.06505 11.2937 6.98245 11.5415 6.94937C11.6656 6.93283 11.7828 6.9275 11.8853 6.93277Z" fill="black" stroke="black"/>
<path id="Vector_3" d="M11.2842 6.51367C11.3613 6.52357 11.4596 6.54222 11.5586 6.58203L11.6572 6.62988L11.8066 6.71484L11.8721 6.875L14.5361 13.4014L20.4355 15.9434L20.4678 15.957L20.499 15.9756C20.8911 16.2161 21.0391 16.6733 21.0859 17.0068C21.1284 17.31 21.1104 17.6653 20.9971 17.9561L20.9424 18.0762C20.8774 18.2006 20.7807 18.2943 20.7051 18.3584C20.6234 18.4276 20.529 18.4932 20.4307 18.5537C20.2336 18.675 19.9838 18.8007 19.709 18.9277C19.1575 19.1827 18.4524 19.4645 17.7422 19.7402C17.0251 20.0186 16.3036 20.2913 15.6973 20.5371C15.1499 20.759 14.7484 20.9409 14.5352 21.0664C14.0589 21.8295 13.7098 22.9633 13.335 24.1797C13.1455 24.7944 12.9503 25.4222 12.7305 25.9902C12.5392 26.4844 12.3206 26.958 12.0547 27.3525L11.9375 27.5166C11.6658 27.8762 11.3389 28.1433 10.9424 28.1895C10.5327 28.2371 10.2105 28.0325 9.99512 27.8232C9.77966 27.6139 9.60755 27.3419 9.47461 27.0996C9.40726 26.9769 9.34538 26.8514 9.28906 26.7344L9.13965 26.418C8.72808 25.5412 8.4109 24.5832 8.10059 23.6621C7.80686 22.7903 7.51685 21.9488 7.15234 21.1777L1.22168 18.5967L1.1709 18.5752L1.12598 18.542C0.624496 18.1752 0.431563 17.6427 0.521484 17.1191C0.606695 16.6236 0.933631 16.1857 1.36816 15.9062L1.66992 15.7305C1.99333 15.5585 2.37679 15.3977 2.77441 15.2451C3.30869 15.0402 3.91108 14.8351 4.48242 14.6328C5.06168 14.4278 5.61419 14.2239 6.0791 14.0137C6.55373 13.799 6.88357 13.6003 7.06055 13.4238C7.12584 13.3561 7.2198 13.22 7.33496 12.9932C7.44706 12.7724 7.56431 12.4968 7.6875 12.1797C7.93492 11.5427 8.18805 10.7812 8.45215 10.0156C8.71237 9.2613 8.98365 8.50131 9.26074 7.90723C9.39892 7.611 9.54725 7.33656 9.70703 7.11816C9.85565 6.91508 10.0688 6.68438 10.3594 6.59473L10.3604 6.59375L10.4922 6.55957C10.6333 6.52852 10.7973 6.50809 10.9521 6.50195C11.0578 6.49777 11.173 6.49942 11.2842 6.51367Z" fill="#83F6AD" stroke="black"/>
</g>
</g>
<g id="Group 482619" filter="url(#filter1_d_1789_692)">
<g id="Group 482604_2">
<path id="Vector_4" d="M26.556 1.57711L27.8808 4.82238L30.8214 6.08914C31.0143 6.20744 31.0417 6.60669 30.9479 6.78611C30.7835 7.10058 28.3456 7.85275 27.8903 8.16722C27.3549 8.97558 27.1568 10.6002 26.6182 11.3139C26.1608 11.9192 25.8499 11.1917 25.6781 10.8259C25.2944 10.0087 25.0836 9.03177 24.6789 8.21158L21.7299 6.92806C21.3916 6.68062 21.5086 6.26264 21.8353 6.05267C22.4635 5.6475 24.1551 5.2936 24.6273 4.81942C25.0868 4.34722 25.6117 1.7378 26.1197 1.58105C26.2293 1.54754 26.4643 1.52486 26.556 1.57711Z" fill="white"/>
<path id="Vector_5" d="M25.8174 0.542236C25.9971 0.471261 26.1636 0.507302 26.2354 0.526611C26.3958 0.569804 26.5522 0.663453 26.6396 0.718018C26.6906 0.749853 26.7367 0.780808 26.7695 0.802979L26.8037 0.827393L26.9619 0.917236L27.0254 1.08716L28.2637 4.41724L30.5703 5.13208L30.6299 5.15063L30.6836 5.18384C30.7765 5.24085 30.8454 5.31629 30.8867 5.36548C30.9341 5.42192 30.9785 5.48511 31.0186 5.54712C31.099 5.67175 31.1787 5.81975 31.2461 5.96509C31.3128 6.10888 31.3755 6.2663 31.415 6.41138C31.4346 6.48305 31.4527 6.56657 31.459 6.65161C31.4628 6.70304 31.4667 6.79981 31.4355 6.90747L31.3906 7.01782C31.3366 7.12099 31.2616 7.1921 31.2148 7.23169C31.1619 7.2765 31.1037 7.31569 31.0498 7.34888C30.9419 7.41525 30.8111 7.48118 30.6748 7.54419C30.4001 7.67121 30.0519 7.80949 29.709 7.94263C29.3593 8.07838 29.0152 8.20861 28.7246 8.32642C28.4975 8.4185 28.3406 8.49196 28.249 8.53931C28.0592 8.87077 27.9083 9.35547 27.7334 9.9231C27.6423 10.2188 27.5455 10.5305 27.4355 10.8147C27.3268 11.0957 27.1933 11.3815 27.0176 11.6145V11.6155C26.8621 11.8213 26.6545 11.9971 26.3848 12.05C26.1053 12.1048 25.8693 12.0065 25.707 11.8909C25.4876 11.7344 25.3266 11.4953 25.2227 11.3059L25.1377 11.1379C24.9238 10.6823 24.7861 10.1628 24.6602 9.70142C24.5474 9.2884 24.4393 8.91668 24.2998 8.59204L21.5303 7.38599L21.4795 7.3645L21.4346 7.3313C21.1141 7.09684 20.9799 6.74242 21.04 6.39185C21.0955 6.06912 21.3045 5.79928 21.5645 5.63208L21.7275 5.53735C21.9001 5.44547 22.0975 5.36259 22.291 5.28833C22.5534 5.18767 22.8513 5.08668 23.123 4.99048C23.4026 4.89153 23.6603 4.79613 23.874 4.69946C24.0954 4.59934 24.2176 4.51947 24.2695 4.46899C24.2725 4.46551 24.2817 4.45528 24.2949 4.43481C24.3121 4.40833 24.3324 4.37183 24.3564 4.32446C24.4051 4.22866 24.4586 4.10475 24.5166 3.95532C24.6337 3.65373 24.7536 3.29375 24.8828 2.91919C25.0082 2.55584 25.1429 2.17617 25.2832 1.87524C25.3521 1.72759 25.4316 1.58031 25.5215 1.4563C25.5171 1.44395 25.5117 1.43221 25.5078 1.42017C25.4738 1.31582 25.4383 1.17629 25.4541 1.02954C25.4735 0.850405 25.5777 0.636933 25.8174 0.542236Z" fill="black" stroke="black"/>
<path id="Vector_6" d="M25.7988 0.520813C25.8595 0.518425 25.9301 0.519417 26.002 0.528625C26.0496 0.534738 26.1211 0.547393 26.1982 0.57843L26.2773 0.616516L26.4277 0.701477L26.4922 0.861633L27.7402 3.9173L30.4932 5.10382L30.5254 5.11749L30.5566 5.13702C30.8453 5.31426 30.9347 5.63174 30.9609 5.81866C30.9855 5.99369 30.978 6.2145 30.9014 6.40948L30.8643 6.49152C30.8103 6.59469 30.7352 6.66578 30.6885 6.70538C30.6356 6.75019 30.5773 6.78938 30.5234 6.82257C30.4156 6.88895 30.2847 6.95487 30.1484 7.01788C29.8737 7.14491 29.5256 7.28319 29.1826 7.41632C28.8329 7.55208 28.4888 7.6823 28.1982 7.80011C27.9721 7.89179 27.8154 7.96468 27.7236 8.01202C27.5335 8.34351 27.3822 8.8285 27.207 9.39679C27.1159 9.69263 27.0192 10.0051 26.9092 10.2894C26.8276 10.5 26.7319 10.7129 26.6152 10.9046L26.4912 11.0892C26.3418 11.2869 26.1276 11.4808 25.834 11.515C25.5269 11.5507 25.2978 11.394 25.166 11.2659C25.0343 11.1379 24.9364 10.9801 24.8682 10.8558L24.6992 10.512C24.4929 10.0725 24.335 9.59443 24.1865 9.15363C24.0552 8.76392 23.9278 8.40015 23.7773 8.06671L21.0039 6.86066L20.9531 6.8382L20.9082 6.80499C20.5878 6.57051 20.4535 6.21613 20.5137 5.86554C20.5692 5.5428 20.7781 5.27297 21.0381 5.10577L21.2012 5.01105C21.3736 4.9192 21.5712 4.83724 21.7646 4.763C22.0271 4.66232 22.3249 4.56039 22.5967 4.46417C22.8762 4.36522 23.1339 4.26983 23.3477 4.17316C23.5663 4.07427 23.6882 3.9952 23.7412 3.94464C23.7412 3.9446 23.7518 3.93441 23.7686 3.90851C23.7857 3.88203 23.806 3.84549 23.8301 3.79816C23.8787 3.70235 23.9322 3.57844 23.9902 3.42902C24.1074 3.12741 24.2272 2.76746 24.3564 2.39288C24.4818 2.02951 24.6165 1.64987 24.7568 1.34894C24.8267 1.19909 24.9074 1.04927 24.999 0.924133C25.0794 0.814399 25.2238 0.645124 25.4463 0.576477H25.4473L25.6182 0.538391C25.6784 0.52906 25.7405 0.523124 25.7988 0.520813Z" fill="#83F6AD" stroke="black"/>
</g>
</g>
</g>
<defs>
<filter id="filter0_d_1789_692" x="0" y="6" width="23.6162" height="25.827" filterUnits="userSpaceOnUse" color-interpolation-filters="sRGB">
<feFlood flood-opacity="0" result="BackgroundImageFix"/>
<feColorMatrix in="SourceAlpha" type="matrix" values="0 0 0 0 0 0 0 0 0 0 0 0 0 0 0 0 0 0 127 0" result="hardAlpha"/>
<feOffset dx="1" dy="1"/>
<feComposite in2="hardAlpha" operator="out"/>
<feColorMatrix type="matrix" values="0 0 0 0 0 0 0 0 0 0 0 0 0 0 0 0 0 0 0.17 0"/>
<feBlend mode="normal" in2="BackgroundImageFix" result="effect1_dropShadow_1789_692"/>
<feBlend mode="normal" in="SourceGraphic" in2="effect1_dropShadow_1789_692" result="shape"/>
</filter>
<filter id="filter1_d_1789_692" x="20" y="0.000274658" width="12.9614" height="13.566" filterUnits="userSpaceOnUse" color-interpolation-filters="sRGB">
<feFlood flood-opacity="0" result="BackgroundImageFix"/>
<feColorMatrix in="SourceAlpha" type="matrix" values="0 0 0 0 0 0 0 0 0 0 0 0 0 0 0 0 0 0 127 0" result="hardAlpha"/>
<feOffset dx="1" dy="1"/>
<feComposite in2="hardAlpha" operator="out"/>
<feColorMatrix type="matrix" values="0 0 0 0 0 0 0 0 0 0 0 0 0 0 0 0 0 0 0.17 0"/>
<feBlend mode="normal" in2="BackgroundImageFix" result="effect1_dropShadow_1789_692"/>
<feBlend mode="normal" in="SourceGraphic" in2="effect1_dropShadow_1789_692" result="shape"/>
</filter>
</defs>
</svg>
