<svg width="17" height="18" viewBox="0 0 17 18" fill="none" xmlns="http://www.w3.org/2000/svg">
<path d="M9.2583 1.30151C9.3402 1.31201 9.4628 1.33556 9.57959 1.4021L9.72998 1.48706L9.79541 1.64722L11.7036 6.32397L15.9263 8.14331L15.9595 8.15796L15.9897 8.17651C16.3269 8.38332 16.4441 8.76581 16.48 9.02124C16.5177 9.28973 16.4965 9.62208 16.3618 9.87964C16.3027 9.99272 16.217 10.0737 16.1567 10.1248C16.0903 10.181 16.0156 10.2331 15.9409 10.2791C15.7914 10.3711 15.6048 10.4644 15.4038 10.5574C14.9998 10.7442 14.4848 10.9494 13.9702 11.1492C13.4489 11.3516 12.9288 11.5487 12.4907 11.7263C12.1148 11.8787 11.8454 12.0009 11.6968 12.0837C11.3727 12.6168 11.1282 13.4051 10.8589 14.2791C10.7218 14.7238 10.5788 15.1836 10.4175 15.6003C10.2775 15.962 10.1148 16.3155 9.91357 16.614L9.82471 16.739C9.61825 17.0122 9.35171 17.2401 9.01025 17.28C8.65517 17.3214 8.3823 17.1423 8.21143 16.9763C8.0406 16.8103 7.90851 16.5991 7.81006 16.4197C7.75997 16.3284 7.71296 16.2355 7.67139 16.1492L7.56299 15.9187C7.26072 15.2748 7.02833 14.5722 6.8042 13.907C6.59671 13.2911 6.39246 12.7048 6.14209 12.1667L1.89502 10.3191L1.84424 10.2966L1.79932 10.2644C1.39417 9.96804 1.23293 9.52992 1.30713 9.09839C1.37652 8.69498 1.6405 8.34732 1.98193 8.12769L2.20947 7.99487C2.45252 7.86552 2.73693 7.74636 3.02588 7.6355C3.41532 7.48609 3.85535 7.33594 4.26709 7.19019C4.68666 7.04166 5.08249 6.89656 5.41357 6.74683C5.75413 6.5928 5.97267 6.45653 6.08252 6.34741C6.1155 6.31275 6.17559 6.22908 6.25635 6.07007C6.33466 5.91582 6.4188 5.72082 6.50732 5.49292C6.68532 5.03465 6.86686 4.48666 7.05908 3.92944C7.24738 3.3836 7.44671 2.82715 7.65088 2.3894C7.75271 2.17109 7.86431 1.96244 7.98779 1.7937C8.10001 1.6404 8.27651 1.44246 8.53076 1.36401H8.53174C8.66376 1.32366 8.83721 1.29803 8.99561 1.29175C9.0772 1.28853 9.1682 1.28998 9.2583 1.30151Z" fill="black" stroke="black"/>
<path d="M8.46875 0.511719C8.55065 0.52222 8.67325 0.545761 8.79004 0.612305L8.94043 0.697266L9.00586 0.857422L10.9141 5.53418L15.1367 7.35352L15.1699 7.36816L15.2002 7.38672C15.5374 7.59352 15.6546 7.97602 15.6904 8.23145C15.7281 8.49993 15.7069 8.83228 15.5723 9.08984C15.5131 9.20293 15.4275 9.28392 15.3672 9.33496C15.3008 9.39119 15.2261 9.44326 15.1514 9.48926C15.0019 9.5813 14.8153 9.67463 14.6143 9.76758C14.2102 9.95438 13.6952 10.1596 13.1807 10.3594C12.6593 10.5618 12.1393 10.7589 11.7012 10.9365C11.3253 11.0889 11.0559 11.2111 10.9072 11.2939C10.5832 11.827 10.3386 12.6153 10.0693 13.4893C9.93228 13.934 9.78924 14.3938 9.62793 14.8105C9.48794 15.1722 9.32522 15.5257 9.12402 15.8242L9.03516 15.9492C8.8287 16.2224 8.56216 16.4503 8.2207 16.4902C7.86562 16.5316 7.59275 16.3525 7.42188 16.1865C7.25105 16.0205 7.11896 15.8093 7.02051 15.6299C6.97042 15.5386 6.92341 15.4457 6.88184 15.3594L6.77344 15.1289C6.47117 14.485 6.23878 13.7824 6.01465 13.1172C5.80716 12.5013 5.60291 11.9151 5.35254 11.377L1.10547 9.5293L1.05469 9.50684L1.00977 9.47461C0.604615 9.17824 0.443379 8.74013 0.517578 8.30859C0.586971 7.90519 0.850946 7.55753 1.19238 7.33789L1.41992 7.20508C1.66297 7.07572 1.94738 6.95656 2.23633 6.8457C2.62577 6.6963 3.0658 6.54614 3.47754 6.40039C3.8971 6.25187 4.29293 6.10677 4.62402 5.95703C4.96458 5.80301 5.18312 5.66673 5.29297 5.55762C5.32595 5.52296 5.38604 5.43929 5.4668 5.28027C5.54511 5.12602 5.62925 4.93102 5.71777 4.70312C5.89577 4.24485 6.07731 3.69687 6.26953 3.13965C6.45783 2.59381 6.65716 2.03736 6.86133 1.59961C6.96316 1.3813 7.07476 1.17265 7.19824 1.00391C7.31046 0.850602 7.48696 0.652667 7.74121 0.574219H7.74219C7.87421 0.533865 8.04766 0.508233 8.20605 0.501953C8.28765 0.498732 8.37865 0.500185 8.46875 0.511719Z" fill="white" stroke="black"/>
</svg>
