<svg width="285" height="285" viewBox="0 0 285 285" xmlns="http://www.w3.org/2000/svg">
  <!-- Visage / disque -->
  <g filter="url(#filter0)">
    <path d="M279.02 141.514C279.02 65.5671 217.453 4 141.514 4C65.5756 4 4 65.5671 4 141.514C4 217.462 65.5671 279.029 141.514 279.029C217.462 279.029 279.029 217.462 279.029 141.514H279.02Z" fill="white"/>
    <path d="M141.515 2C217.89 2.00016 279.935 63.3848 281.005 139.515H281.028V141.515C281.028 218.566 218.566 281.028 141.515 281.028C64.4629 281.028 2.00016 218.566 2 141.515C2 64.4627 64.4714 2 141.515 2Z" stroke="white" stroke-width="4"/>
  </g>

  <!-- Anneau noir -->
  <path d="M279.02 141.514C279.02 217.462 217.453 279.029 141.506 279.029C65.5585 279.029 4 217.453 4 141.514C4 65.5756 65.5671 4 141.514 4C217.462 4 279.029 65.5671 279.029 141.514H279.02ZM262.853 141.514C262.853 74.501 208.528 20.1842 141.523 20.1842C74.5182 20.1842 20.1842 74.501 20.1842 141.514C20.1842 208.528 74.5096 262.844 141.514 262.844C208.519 262.844 262.844 208.519 262.844 141.514H262.853Z" fill="black"/>

  <!-- Traits fixes (bouche, oeil gauche, etc.) -->
  <path d="M262.858 141.506C262.858 208.519 208.532 262.836 141.528 262.836C74.523 262.836 20.189 208.519 20.189 141.506C20.189 74.4922 74.5144 20.1754 141.519 20.1754C208.524 20.1754 262.849 74.5008 262.849 141.506H262.858ZM163.863 87.3949C176.181 84.457 188.345 73.4957 201.394 78.6328C204.512 79.8612 213.558 87.1029 215.688 86.4586L223.823 74.0627C215.422 67.2849 204.658 60.6703 193.491 60.6789C182.323 60.6875 169.781 69.1318 158.717 71.9581L163.863 87.3949ZM62.6081 102.119C61.4828 104.052 69.1969 114.231 70.6401 116.542L86.1887 107.153L115.138 114.738C117.793 112.848 132.972 104.704 132.972 102.454L124.656 90.0837L112.046 97.5144L84.2215 89.3192L62.6081 102.127V102.119ZM185.33 111.439H169.008V144.942H185.33V111.439ZM114.03 128.62H97.7083V144.942H114.03V128.62ZM203.37 177.585H79.6686V193.907H203.37V177.585Z" fill="white"/>
  <path d="M203.361 177.593H79.6597V193.915H203.361V177.593Z" fill="black"/>
  <path d="M62.6061 102.128L84.2194 89.3197L112.044 97.5149L124.654 90.0843L132.97 102.454C132.97 104.705 117.791 112.849 115.136 114.739L86.1866 107.153L70.6381 116.543C69.1949 114.232 61.4808 104.061 62.6061 102.119V102.128Z" fill="black"/>

  <!-- SOURCIL DROIT (translateY) -->
  <g>
    <path d="M163.863 87.4042L158.717 71.9673C169.773 69.1411 181.92 60.7054 193.491 60.6882C205.062 60.671 215.413 67.2942 223.823 74.072L215.688 86.4679C213.558 87.1035 204.504 79.8619 201.394 78.642C188.345 73.505 176.181 84.4663 163.863 87.4042Z" fill="black"/>
    <animateTransform attributeName="transform"
      type="translate"
      dur="4.6s"
      repeatCount="indefinite"
      keyTimes="0;0.3;0.6;1"
      values="0 0; 0 -5; 0 0; 0 0"/>
  </g>

  <!-- OEIL DROIT (scaleY autour du centre) -->
  <!-- centre du rectangle = (177.17 , 128.205) -->
  <g transform="translate(177.17 128.205)">
    <g transform="translate(-177.17 -128.205)">
      <path d="M185.331 111.454H169.009V144.956H185.331V111.454Z" fill="black"/>
      <animateTransform attributeName="transform"
        type="scale"
        additive="sum"
        dur="4.6s"
        repeatCount="indefinite"
        keyTimes="0;0.22;0.24;0.26;0.60;0.62;0.64;1"
        values="1 1; 1 1; 1 0.12; 1 1; 1 1; 1 0.12; 1 1; 1 1"/>
    </g>
  </g>

  <defs>
    <filter id="filter0" x="0" y="0" width="284.029" height="284.029" color-interpolation-filters="sRGB">
      <feFlood flood-opacity="0" result="BackgroundImageFix"/>
      <feColorMatrix in="SourceAlpha" type="matrix" values="0 0 0 0 0 0 0 0 0 0 0 0 0 0 0 0 0 0 127 0" result="hardAlpha"/>
      <feOffset dx="1" dy="1"/>
      <feComposite in2="hardAlpha" operator="out"/>
      <feColorMatrix type="matrix" values="0 0 0 0 0 0 0 0 0 0 0 0 0 0 0 0 0 0 0.17 0"/>
      <feBlend mode="normal" in2="BackgroundImageFix" result="effect1_dropShadow"/>
      <feBlend mode="normal" in="SourceGraphic" in2="effect1_dropShadow" result="shape"/>
    </filter>
  </defs>
</svg>