<svg width="148" height="147" viewBox="0 0 148 147" fill="none" xmlns="http://www.w3.org/2000/svg">
<path d="M133.468 141.993H146.969C147.834 141.993 149.417 145.736 145.277 146.112L2.37854 146.101C-1.24118 145.681 0.108953 141.993 1.01816 141.993H61.3469C58.4825 138.794 56.7428 135.444 55.8985 131.206C36.918 130.348 31.0595 105.867 47.5755 96.3789L29.3949 28.8483C29.1419 28.4724 28.7591 28.5407 28.3831 28.4929C21.6085 27.6623 12.4892 29.5456 5.88547 28.4313C-2.02392 27.0949 -2.00683 15.4325 6.23411 14.2464C15.4219 14.6053 25.4333 13.4637 34.5288 14.1439C37.7452 14.3831 39.6559 15.4974 41.3171 18.2934L46.6185 37.9438L47.2098 38.7197L133.311 38.7539C137.658 38.8154 141.001 41.8233 140.208 46.3625L129.759 97.4351C127.541 104.784 121.809 103.236 115.578 103.42C114.108 105.83 112.693 107.939 109.682 108.462L56.3907 108.493C50.498 109.125 50.7406 116.518 57.0641 117.051C62.991 117.554 62.3108 115.94 66.7235 114.382C70.8217 112.936 74.585 113.069 78.6149 114.642C80.2761 115.288 81.8997 116.87 83.3865 117.048C92.0786 118.087 102.832 116.269 111.746 117.021C126.659 105.358 146.713 123.645 135.669 139.235C135.003 140.174 133.618 140.807 133.471 141.993H133.468ZM57.8297 96.6284C57.5221 96.3311 56.4385 96.4781 56.3873 95.5073L35.8789 19.2846L34.1938 18.5771C25.5769 19.1958 15.9893 17.8251 7.49538 18.5771C3.28775 18.9497 3.83464 23.4376 6.22044 23.9913L30.7655 24.0562C31.8798 24.0972 32.7651 24.7364 33.1547 25.7687L52.3266 98.2418C50.3031 100.634 47.432 101.202 45.2957 103.882C38.0973 112.909 44.3557 126.851 56.0181 126.625L57.9322 121.645C55.4712 121.344 53.2666 120.944 51.1918 119.505C41.7819 112.984 48.5497 104.835 57.4093 104.032L108.697 104.049C110.283 103.745 110.331 99.4415 108.865 98.7442L59.7985 98.5904C57.9015 98.3443 58.4005 97.1685 57.8365 96.6216L57.8297 96.6284ZM73.6519 43.211H48.0165L52.1181 58.9341H75.7027L73.6519 43.211ZM105.782 43.211H77.7536L79.8044 58.9341H105.098L105.782 43.211ZM135.006 43.211H109.883L109.2 58.9341H133.468C133.769 54.7231 136.069 49.4832 136.213 45.4157C136.243 44.5475 136.008 43.3922 135.006 43.211ZM78.0954 79.1006L75.8736 63.0358H53.4853L57.587 79.1006H78.0954ZM104.073 79.1006C104.155 73.9325 104.503 68.7303 104.702 63.6032L104.244 63.0358H80.488L82.5388 79.1006H104.073ZM132.442 63.0358H108.858L108.174 79.1006H129.366L132.442 63.0358ZM78.779 83.2023H58.9542L61.6887 94.1401H80.1462L78.779 83.2023ZM103.731 83.2023H83.2225L84.2479 94.1401H103.389L103.731 83.2023ZM128.341 83.2023H108.345L107.832 84.0568L107.508 94.123C110.857 94.2837 114.064 95.8149 115.065 99.2091C120.828 98.6964 124.328 101.694 126.122 94.8237C127.114 91.0365 127.585 87.0374 128.341 83.1989V83.2023ZM107.832 121.485H86.6405C87.8471 122.24 88.2743 126.352 88.9067 126.567L105.915 126.632L107.832 121.485ZM72.4556 126.789C69.2426 126.789 68.3402 130.929 71.1328 132.378C75.296 134.535 77.3844 126.793 72.4556 126.789ZM122.359 126.789C117.574 126.789 119.368 134.282 123.467 132.504C126.454 131.209 125.603 126.789 122.359 126.789ZM111.251 141.993L108.338 137.898L105.795 131.212L88.8998 131.035C88.1376 133.766 87.5634 136.343 85.9637 138.753C85.1776 139.939 83.9915 140.701 83.5643 141.993H111.251Z" fill="black"/>
<path d="M57.8299 96.6286C58.3938 97.1755 57.8948 98.3513 59.7918 98.5974L108.858 98.7512C110.324 99.4485 110.277 103.748 108.691 104.056L57.4026 104.039C48.543 104.842 41.7752 112.991 51.1852 119.512C53.2599 120.951 55.4646 121.351 57.9256 121.652L56.0114 126.632C44.349 126.858 38.0906 112.919 45.289 103.889C47.4287 101.205 50.2965 100.638 52.32 98.2487L33.1515 25.7722C32.7618 24.74 31.8765 24.1008 30.7623 24.0598L6.21718 23.9948C3.83138 23.4445 3.28449 18.9532 7.49212 18.5806C15.986 17.8252 25.5736 19.1959 34.1906 18.5806L35.8757 19.2882L56.3806 95.5109C56.4353 96.4816 57.5188 96.3346 57.823 96.632L57.8299 96.6286Z" fill="#4E8CFF"/>
<path d="M107.833 121.484L105.915 126.632L88.9068 126.567C88.2745 126.352 87.8472 122.24 86.6406 121.484H107.833Z" fill="#4E8CFF"/>
<path d="M72.4555 126.789C77.3844 126.789 75.2993 134.534 71.1327 132.378C68.3402 130.932 69.2425 126.789 72.4555 126.789Z" fill="white"/>
<path d="M122.359 126.789C125.603 126.789 126.458 131.212 123.467 132.504C119.369 134.282 117.571 126.789 122.359 126.789Z" fill="white"/>
<path d="M104.499 31.8596C104.566 31.8633 104.576 31.8718 104.606 31.899C104.79 32.0613 105.107 32.6029 105.353 33.8665C105.583 35.0416 105.679 36.4174 105.78 37.8396C105.861 38.9772 105.949 40.2798 106.178 41.316L106.285 41.7424C106.949 44.066 108.088 45.8096 109.574 47.1224C111.034 48.4116 112.74 49.2069 114.421 49.7844C116.071 50.3509 117.875 50.7616 119.452 51.1694C120.606 51.4681 121.683 51.7759 122.68 52.1558C122.534 52.7933 122.253 53.07 122.003 53.2481C121.404 53.6738 120.407 53.926 118.716 54.1681C115.74 54.594 110.802 54.8668 107.643 58.8786L107.642 58.8786C105.378 61.7567 105.047 65.3922 104.615 67.8091C104.232 69.9548 103.8 71.2638 102.774 72.0738C101.594 71.1014 101.269 69.5968 101.043 67.1189C100.794 64.3955 100.715 60.3826 97.94 57.231L97.939 57.231C96.676 55.7967 94.9429 54.9259 93.2912 54.3257C91.634 53.7235 89.8195 53.3133 88.2947 52.9489C86.6749 52.5617 85.4429 52.2375 84.5999 51.8228C84.1968 51.6245 84.0091 51.4633 83.9316 51.3732C83.8845 51.3185 83.8863 51.308 83.8847 51.2746C83.8747 51.0726 83.8918 50.969 84.1941 50.764C84.62 50.4753 85.3706 50.2097 86.4941 49.9879C87.5928 49.7709 88.7794 49.641 90.0247 49.4802C91.1763 49.3315 92.483 49.1458 93.5052 48.7781L93.5082 48.7772C99.3367 46.6689 101.196 42.1046 102.07 38.3216C102.285 37.3878 102.448 36.4775 102.591 35.6711C102.738 34.8417 102.861 34.1464 103.008 33.5423C103.32 32.2584 103.587 32.1037 103.561 32.1167C104.099 31.8738 104.391 31.8536 104.499 31.8596Z" fill="white" stroke="black" stroke-width="4" stroke-linejoin="round"/>
<path d="M130.488 2.05752C130.508 2.07997 130.538 2.11943 130.577 2.18417C130.765 2.50238 130.936 3.07853 131.065 3.93626C131.19 4.7657 131.253 5.67615 131.324 6.59892C131.382 7.35341 131.448 8.17878 131.586 8.86099L131.649 9.14397C132.16 11.2016 133.014 12.6865 134.135 13.7437C135.25 14.7946 136.52 15.3201 137.679 15.6388C138.255 15.7969 138.821 15.908 139.327 16.0029C139.854 16.1016 140.292 16.1783 140.706 16.2743C141.449 16.4466 141.833 16.6267 142.052 16.8249L142.137 16.9113C142.31 17.1123 142.386 17.2504 142.421 17.3261C142.355 17.3915 142.227 17.4958 141.995 17.623C141.699 17.786 141.311 17.946 140.843 18.0995C139.9 18.4083 138.798 18.6396 137.773 18.8481C137.277 18.9489 136.783 19.0474 136.372 19.1437C136.001 19.2305 135.537 19.349 135.179 19.5266C131.772 21.2164 130.863 24.9844 130.336 27.6594C130.044 29.143 129.874 30.2874 129.588 31.1814C129.476 31.5277 129.371 31.7487 129.285 31.8849C129.264 31.845 129.24 31.7983 129.215 31.7433C128.944 31.1292 128.743 30.1365 128.553 28.8282C128.376 27.6147 128.208 26.1177 127.972 24.8413C127.742 23.5978 127.393 22.2027 126.684 21.2222L126.683 21.2222C125.895 20.1337 124.747 19.444 123.652 18.9622C122.553 18.4788 121.341 18.1353 120.323 17.8418C119.237 17.5286 118.421 17.2834 117.86 16.993C117.612 16.8651 117.502 16.7741 117.457 16.7269C117.457 16.5389 117.496 16.4422 117.527 16.3866C117.566 16.3163 117.65 16.2124 117.846 16.0845C118.288 15.7951 119.005 15.5644 120.07 15.3074C121.039 15.0737 122.299 14.8179 123.428 14.4381C124.572 14.053 125.807 13.4745 126.736 12.4528C127.636 11.4639 128.177 10.1743 128.553 8.9573C128.932 7.73209 129.194 6.39787 129.433 5.27528C129.687 4.08655 129.907 3.17308 130.19 2.54713C130.322 2.2554 130.429 2.11531 130.488 2.05752Z" fill="white" stroke="black" stroke-width="3" stroke-linejoin="round"/>
<path d="M82.2369 11.8187C82.2667 11.9556 82.2979 12.1117 82.3248 12.2893C82.415 12.8856 82.4597 13.5421 82.513 14.2319C82.5616 14.8609 82.621 15.6034 82.7654 16.1808C83.1603 17.7628 83.8282 18.9335 84.7257 19.7766C85.6161 20.6128 86.6245 21.0244 87.5206 21.2698C87.9643 21.3913 88.3977 21.4764 88.7763 21.5471C89.1748 21.6215 89.4875 21.6755 89.7849 21.7442C90.2847 21.8597 90.4957 21.9699 90.5929 22.0468C90.4062 22.1434 90.1607 22.2454 89.855 22.3451C89.1784 22.5658 88.3811 22.7324 87.6161 22.8871C87.2506 22.961 86.8769 23.0357 86.5645 23.1085C86.2923 23.172 85.9062 23.2684 85.5953 23.4221C82.8732 24.7667 82.175 27.7539 81.7875 29.7163C81.6311 30.5085 81.524 31.1402 81.4047 31.6656C81.3426 31.3603 81.2803 31.0054 81.221 30.5999C81.0927 29.722 80.9643 28.5871 80.7869 27.6332C80.6156 26.7121 80.345 25.5996 79.7613 24.7956L79.7603 24.7946C79.116 23.9084 78.1902 23.3634 77.3499 22.995C76.5055 22.6249 75.5788 22.3635 74.8286 22.1479C74.0214 21.9158 73.4593 21.7452 73.0821 21.5541C73.0844 21.5526 73.0868 21.5511 73.0892 21.5495C73.3556 21.376 73.8273 21.2169 74.6237 21.0256C75.3237 20.8575 76.2908 20.6609 77.1504 20.3728C78.0256 20.0795 79.0147 19.6253 79.7702 18.7982C80.4964 18.003 80.9198 16.9832 81.2054 16.0626C81.4934 15.1342 81.6929 14.1243 81.8684 13.3034C81.9991 12.6922 82.116 12.2017 82.2369 11.8187Z" fill="white" stroke="black" stroke-width="3" stroke-linejoin="round"/>
</svg>
