<svg width="176" height="154" viewBox="0 0 176 154" fill="none" xmlns="http://www.w3.org/2000/svg">
<path d="M93.0839 34.6027H110.416C111.258 34.6027 112.518 36.5148 112.432 37.4317L115.075 73.366H165.952C167.006 73.366 168.333 75.8931 168.344 76.9367C170.16 98.9722 173.376 120.885 175.452 142.883C175.691 145.425 177.044 151.802 174.33 152.935C147.684 153.379 121.027 153.025 94.3735 153.114C93.4044 153.114 92.4875 153.517 91.4252 153.52C66.1023 153.599 40.772 153.491 15.449 153.424C14.275 153.163 13.1344 151.81 13.0301 150.621C12.8511 148.634 13.5221 143.763 13.6972 141.392C14.89 125.231 16.7498 109.077 18.1625 92.9304C19.7466 74.8309 20.6672 56.5711 22.6426 38.52C22.747 37.5658 23.6564 34.6027 24.6889 34.6027H42.3933V22.8618C42.3933 20.2826 44.3725 15.0533 45.6845 12.7349C55.3716 -4.38805 80.4634 -4.22405 89.7927 13.1076C93.4268 19.8614 93.1882 27.1072 93.0839 34.6027ZM86.3748 34.6027V22.1164C86.3748 16.5703 79.2446 9.20894 74.1793 7.47577C63.2323 3.72989 48.7296 11.5161 48.7296 23.6073V34.0436L49.2887 34.6027H86.3748ZM42.3933 40.939H28.9752L19.6571 147.166H88.6112L96.0992 76.9405C96.1029 75.8931 97.4373 73.366 98.4884 73.366H108.738L106.502 40.939H93.0839V51.9344C93.0839 54.3757 90.2176 55.8853 87.9514 54.8267C87.4706 54.6031 86.3748 52.978 86.3748 52.6798V40.939H48.7296V53.0525C48.7296 53.2501 47.7307 54.5509 47.4437 54.7447C45.6286 55.971 42.3933 54.8081 42.3933 52.6798V40.939ZM95.3202 146.793H169.12L161.822 79.68L102.421 79.721L95.3202 146.793Z" fill="black"/>
<path d="M42.3932 40.9387V52.6795C42.3932 54.8115 45.6284 55.9707 47.4436 54.7444C47.7306 54.5506 48.7295 53.2498 48.7295 53.0523V40.9387H86.3747V52.6795C86.3747 52.9777 87.4705 54.6028 87.9513 54.8264C90.2175 55.885 93.0837 54.3754 93.0837 51.9341V40.9387H106.502L108.738 73.3658H98.4883C97.4372 73.3658 96.1028 75.8928 96.0991 76.9402L88.611 147.165H19.657L28.9751 40.9387H42.3932Z" fill="#4E8CFF"/>
<path d="M95.3201 146.793L102.42 79.7207L161.822 79.6797L169.12 146.793H95.3201ZM117.952 93.1984C116.409 93.5413 115.98 94.8869 115.82 96.2883C112.659 124.362 149.734 125.998 151.616 102.267C151.892 98.8005 152.664 92.0169 147.397 93.1984C144.106 93.9402 145.522 99.9186 145.168 102.528C143.472 115.048 125.593 115.935 122.63 104.011C121.687 100.224 123.945 91.8641 117.948 93.1984H117.952Z" fill="#4E8CFF"/>
<path d="M117.952 93.1987C123.946 91.8644 121.691 100.225 122.634 104.011C125.597 115.931 143.473 115.044 145.172 102.528C145.526 99.9189 144.106 93.9404 147.401 93.1987C152.668 92.0135 151.896 98.797 151.62 102.267C149.738 125.998 112.663 124.366 115.824 96.2886C115.98 94.8872 116.409 93.5416 117.956 93.1987H117.952Z" fill="black"/>
<path d="M50.9043 79.9998C50.969 80.0008 50.9793 80.0084 51.0127 80.0359C51.2068 80.1957 51.5473 80.7353 51.8447 82.0017C52.1214 83.1799 52.2731 84.566 52.4307 85.9958C52.5568 87.1411 52.6962 88.4484 52.9658 89.4812L53.0898 89.906C53.8455 92.218 55.0534 93.9285 56.5938 95.1921C58.1071 96.4336 59.8479 97.1677 61.5566 97.6833C63.2326 98.1891 65.0575 98.5312 66.6533 98.8796C67.8271 99.1359 68.9224 99.4053 69.9395 99.7507C69.8196 100.42 69.5414 100.719 69.292 100.913C68.7079 101.366 67.7197 101.66 66.0352 101.971C63.0671 102.52 58.1306 102.992 55.126 107.16H55.125C52.9734 110.147 52.7858 113.818 52.4482 116.276C52.1484 118.459 51.7652 119.803 50.7666 120.664C49.541 119.727 49.1545 118.216 48.8291 115.722C48.4718 112.984 48.2333 108.949 45.333 105.886C44.012 104.492 42.2408 103.682 40.5605 103.142C38.8755 102.601 37.0397 102.26 35.4971 101.953C33.8587 101.627 32.612 101.349 31.751 100.965C31.3394 100.781 31.1433 100.625 31.0605 100.536C31.009 100.48 31.0076 100.464 31.0039 100.423C30.9848 100.206 31.0051 100.094 31.3008 99.8748C31.7169 99.5661 32.459 99.2682 33.5762 98.9998C34.6686 98.7373 35.8519 98.5591 37.0938 98.3474C38.2423 98.1516 39.5452 97.9125 40.5557 97.5007L40.5586 97.4998C46.3153 95.1421 47.995 90.4696 48.7197 86.6267C48.8988 85.6772 49.0242 84.7535 49.1357 83.9343C49.2505 83.0922 49.3474 82.3855 49.4707 81.7693C49.7531 80.3578 50.0372 80.2655 49.9639 80.3025L49.9648 80.3015C50.5023 80.0299 50.7961 79.998 50.9043 79.9998Z" fill="white" stroke="black" stroke-width="4" stroke-linejoin="round"/>
<path d="M128.458 25.0193C128.498 25.1638 128.541 25.3331 128.58 25.531C128.694 26.11 128.766 26.7504 128.848 27.4265C128.912 27.9638 128.989 28.5915 129.121 29.1199L129.182 29.3396C129.646 30.8872 130.37 32.0151 131.309 32.8083C132.238 33.5933 133.266 33.956 134.174 34.1609C134.624 34.2625 135.063 34.3289 135.447 34.3835C135.851 34.441 136.17 34.4827 136.474 34.5388C136.912 34.6199 137.139 34.7054 137.261 34.7742C137.082 34.8686 136.854 34.9689 136.576 35.0691C135.9 35.3129 135.1 35.5087 134.335 35.6902C133.969 35.777 133.596 35.8637 133.285 35.947C133.014 36.0198 132.633 36.1281 132.329 36.2888C129.637 37.7138 129.047 40.6857 128.732 42.6365C128.6 43.4584 128.517 44.1003 128.412 44.6306C128.332 44.32 128.249 43.952 128.167 43.5242C128.003 42.6707 127.827 41.5576 127.61 40.6267C127.4 39.7268 127.081 38.6358 126.455 37.863L126.323 37.7078C125.65 36.9542 124.761 36.4978 123.958 36.1912C123.095 35.8616 122.152 35.6425 121.387 35.4597C120.603 35.2726 120.042 35.1298 119.651 34.9656C119.925 34.7946 120.388 34.6268 121.135 34.4216C121.836 34.2289 122.8 33.9996 123.653 33.6843C124.519 33.3643 125.497 32.882 126.227 32.0398C126.931 31.2269 127.319 30.2023 127.571 29.283C127.826 28.357 127.987 27.3539 128.131 26.5427C128.244 25.9055 128.346 25.404 128.458 25.0193Z" fill="white" stroke="black" stroke-width="3" stroke-linejoin="round"/>
<path d="M12.4512 64.6208C12.5951 64.8788 12.745 65.3246 12.875 65.9939C13.0138 66.7088 13.1012 67.4971 13.1973 68.3083C13.275 68.9646 13.3641 69.7005 13.5146 70.3113L13.583 70.5652C14.1205 72.3845 14.9528 73.6916 16.0195 74.6062C17.0777 75.5134 18.2548 75.938 19.3125 76.1804C19.8375 76.3007 20.3513 76.3792 20.8076 76.4451C21.2838 76.5138 21.6721 76.5653 22.041 76.6345C22.707 76.7595 23.0231 76.9001 23.1924 77.0388L23.2568 77.0984C23.3261 77.1712 23.376 77.2329 23.4131 77.282C23.3594 77.3233 23.2887 77.3766 23.1914 77.4343C22.9437 77.5812 22.6121 77.7313 22.2041 77.8806C21.3828 78.1812 20.4166 78.4196 19.5078 78.6384C19.0701 78.7438 18.6306 78.8485 18.2646 78.948C18.0199 79.0145 17.7195 79.1015 17.4453 79.2156L17.1836 79.3386C14.1216 80.9841 13.4337 84.4167 13.0586 86.781C12.848 88.1085 12.7397 89.0959 12.5195 89.8757C12.486 89.9944 12.4526 90.0929 12.4229 90.1746C12.2067 89.6618 12.0172 88.8843 11.8242 87.863C11.626 86.8141 11.4208 85.4919 11.1641 84.3748C10.9302 83.3572 10.5922 82.1931 9.97754 81.3328L9.85059 81.1648C9.08156 80.2016 8.00084 79.6227 6.99805 79.2341C5.99006 78.8436 4.88651 78.582 3.9707 78.3601C2.98653 78.1216 2.26516 77.938 1.76953 77.7097C1.63705 77.6487 1.5536 77.5994 1.50293 77.5652C1.50835 77.4943 1.52344 77.4621 1.53027 77.449C1.54589 77.419 1.59395 77.3437 1.74902 77.2351C2.10924 76.9829 2.71726 76.7611 3.66113 76.4978C4.5098 76.261 5.63644 75.9896 6.6377 75.614C7.65294 75.2331 8.76324 74.6711 9.58398 73.7097C10.3778 72.7796 10.8253 71.5964 11.1211 70.5037C11.4188 69.4036 11.6073 68.2112 11.7803 67.2224C11.965 66.1664 12.1269 65.3789 12.3477 64.8425C12.3862 64.7488 12.4215 64.6764 12.4512 64.6208Z" fill="white" stroke="black" stroke-width="3" stroke-linejoin="round"/>
</svg>
