<svg width="156" height="127" viewBox="0 0 156 127" fill="none" xmlns="http://www.w3.org/2000/svg">
<path d="M135.593 60.1849C132.252 59.8089 128.284 60.4615 124.872 60.1849L129.841 56.6081C133.495 52.4782 134.303 47.5185 131.858 42.475L107.286 5.20605C103.389 0.678337 96.9472 -0.281898 91.8353 2.75418C73.827 14.8426 55.4924 26.4524 37.45 38.488C27.3131 45.25 15.3646 49.7342 23.9321 64.0072C30.0913 74.2715 37.7638 84.0385 43.9323 94.3494C45.4209 106.907 38.7551 125.304 57.2669 126.385C57.2669 126.385 133 126.385 133.43 126.385C139.685 126.273 145.127 122.355 146 115.959V70.5952C145.351 65.3621 140.863 60.7754 135.593 60.1818V60.1849Z" fill="white"/>
<path d="M135.593 60.1849C140.863 60.7785 145.351 65.3652 146 70.5983V115.962C145.127 122.358 139.685 126.276 133.43 126.388H57.2669C38.7551 125.307 45.5 114.5 43.9323 94.3525C37.7638 84.0385 30.0944 74.2715 23.9321 64.0103C15.3646 49.7373 27.3131 45.2531 37.45 38.4911C55.4924 26.4524 73.827 14.8457 91.8353 2.75418C96.9472 -0.281898 103.389 0.678337 107.286 5.20605L131.858 42.475C134.303 47.5154 133.495 52.4782 129.841 56.6081L124.872 60.1849C128.284 60.4615 132.252 59.8089 135.593 60.1849ZM96.2014 3.70199C93.9982 4.04693 90.4462 6.74739 88.4139 8.03703C67.5964 21.241 47.3786 35.4612 26.6668 48.8392C21.0017 54.063 23.9787 60.216 27.9098 65.331L108.557 12.6393L109.017 12.1732C105.487 7.21353 103.355 2.58327 96.2014 3.70199ZM68.0035 60.1849H120.055C126.774 56.0115 134.02 52.0773 129.16 43.0001L118.467 26.9589L68.0004 60.188L68.0035 60.1849ZM143.517 77.5872V70.2845C143.517 66.7201 137.622 62.2421 134.055 62.6554L55.7348 62.6741C52.4905 62.3074 46.8721 66.891 46.8721 69.9706V77.5841H143.517V77.5872ZM44.0753 76.0334C43.6091 75.934 43.3947 76.2044 43.0467 76.4033C42.0554 76.9719 39.0783 78.8147 38.3667 79.4922C38.143 79.7035 37.8042 79.7843 37.8477 80.2193L44.0753 89.7067V76.0334ZM143.517 94.9895H46.8721V116.587C47.5 121 51.9529 123.828 54.7995 123.576L135.294 123.591C138.604 123.703 143.517 119.157 143.517 115.966V94.9895Z" fill="black"/>
<path d="M143.517 94.9897V115.966C143.517 119.157 138.604 123.704 135.294 123.592L54.7994 123.576C51.9529 123.828 46.8721 119.142 46.8721 116.587V94.9897H143.517ZM124.486 102.218C121.425 102.665 120.422 104.713 120.198 107.563C119.903 111.335 119.409 117.734 124.402 118.296C126.205 118.498 130.708 118.517 132.491 118.303C134.275 118.088 136.078 116.451 136.348 114.701C136.618 112.951 136.562 108.066 136.37 106.329C136.087 103.8 134.542 102.566 132.094 102.215C130.279 101.954 126.301 101.951 124.486 102.215V102.218ZM56.6609 111.46H62.5652C63.1277 111.46 63.4322 109.403 62.1923 109.036C61.4248 108.809 57.0182 108.868 56.4029 109.26C55.6509 109.698 56.0518 111.27 56.6609 111.46ZM68.7803 111.46C69.7126 111.724 73.3733 111.46 74.6847 111.46C75.2472 111.46 75.5517 109.403 74.3118 109.036C73.5442 108.809 69.1346 108.868 68.5224 109.26L68.019 110.378C68.0003 110.726 68.5442 111.391 68.7803 111.46ZM80.8998 108.974C79.9458 109.415 80.039 111.46 80.8998 111.46H86.4934C86.7203 111.46 87.4505 110.475 87.2858 110.077C87.3045 109.754 86.6488 108.974 86.4934 108.974H80.8998ZM92.7085 111.46H98.6129C99.051 111.46 99.9274 110.027 98.8988 109.309C98.2524 108.859 93.8956 108.797 93.0845 109.036C92.0249 109.347 91.9565 111.227 92.7116 111.46H92.7085ZM104.828 111.46H110.732C111.192 111.46 111.817 109.648 110.99 109.26C110.375 108.871 105.968 108.812 105.201 109.036C104.141 109.347 104.073 111.227 104.828 111.46Z" fill="white" fill-opacity="0.47"/>
<path d="M143.517 77.5876H46.8721V69.9741C46.8721 66.8945 52.4905 62.3077 55.7348 62.6775L134.055 62.6589C137.625 62.2425 143.517 66.7204 143.517 70.2879V77.5907V77.5876Z" fill="white" fill-opacity="0.47"/>
<path d="M96.2015 3.70233C103.358 2.58361 105.487 7.21387 109.017 12.1735L108.557 12.6397L27.9099 65.3314C23.9788 60.2163 21.0018 54.0634 26.6669 48.8396C47.3787 35.4616 67.5965 21.2414 88.414 8.03427C90.4432 6.74774 93.9952 4.04417 96.2015 3.69923V3.70233Z" fill="#4E8CFF" fill-opacity="0.5"/>
<path d="M68.0034 60.1851L118.47 26.9561L129.163 42.9973C134.02 52.0744 126.777 56.0117 120.058 60.182H68.0065L68.0034 60.1851Z" fill="#4E8CFF" fill-opacity="0.5"/>
<path d="M44.0751 76.0335V89.7067L37.8476 80.2194C37.8041 79.7843 38.1428 79.7035 38.3665 79.4922C39.075 78.8148 42.0521 76.972 43.0465 76.4033C43.3945 76.2044 43.609 75.934 44.0751 76.0335Z" fill="#4E8CFF" fill-opacity="0.5"/>
<path d="M124.487 102.218C126.298 101.954 130.276 101.957 132.094 102.218C134.543 102.569 136.087 103.803 136.37 106.332C136.566 108.069 136.606 113.038 136.348 114.704C136.078 116.454 134.235 118.094 132.492 118.306C130.748 118.517 126.205 118.502 124.403 118.3C119.406 117.74 119.903 111.339 120.198 107.566C120.422 104.716 121.426 102.665 124.487 102.221V102.218Z" fill="black"/>
<path d="M92.7083 111.46C91.9532 111.227 92.0215 109.35 93.0812 109.036C93.8954 108.796 98.2491 108.855 98.8954 109.309C99.924 110.027 99.0477 111.46 98.6096 111.46H92.7052H92.7083Z" fill="black"/>
<path d="M68.7802 111.46C68.5472 111.394 68.0033 110.726 68.0189 110.378L68.5223 109.259C69.1314 108.868 73.5441 108.812 74.3117 109.036C75.5516 109.399 75.2471 111.46 74.6846 111.46C73.3732 111.46 69.7125 111.724 68.7802 111.46Z" fill="black"/>
<path d="M56.6609 111.459C56.0519 111.27 55.651 109.697 56.403 109.259C57.0183 108.871 61.4248 108.812 62.1924 109.035C63.4323 109.399 63.1278 111.459 62.5653 111.459H56.6609Z" fill="black"/>
<path d="M80.8998 108.974H86.4934C86.6487 108.974 87.3044 109.754 87.2858 110.077C87.4505 110.475 86.7202 111.46 86.4934 111.46H80.8998C80.039 111.46 79.9457 109.415 80.8998 108.974Z" fill="black"/>
<path d="M104.828 111.46C104.073 111.227 104.141 109.35 105.201 109.036C105.968 108.809 110.375 108.868 110.99 109.26C111.817 109.648 111.192 111.46 110.732 111.46H104.828Z" fill="black"/>
<path d="M120.872 9.5C121.002 9.50219 121.078 9.53553 121.161 9.60449C121.424 9.82197 121.753 10.4073 122.025 11.5713C122.282 12.668 122.42 13.9519 122.562 15.249C122.695 16.4556 122.839 17.8004 123.146 18.7451C123.813 20.7958 124.875 22.3019 126.224 23.4131C127.552 24.5076 129.088 25.1603 130.617 25.624C132.122 26.0802 133.756 26.3887 135.216 26.709C136.376 26.9634 137.466 27.2328 138.477 27.5967C138.391 28.4647 138.07 28.8709 137.734 29.1328C137.136 29.5995 136.166 29.8761 134.646 30.1582C131.906 30.6667 127.583 31.0873 124.948 34.7588L124.947 34.7598C123.055 37.3987 122.89 40.6365 122.578 42.9189C122.288 45.0424 121.899 46.412 120.75 47.2715C119.367 46.3445 118.984 44.8074 118.673 42.4121C118.344 39.879 118.131 36.3296 115.588 33.6318C114.443 32.4177 112.896 31.7004 111.392 31.2148C109.884 30.7282 108.24 30.4217 106.833 30.1406C105.354 29.8451 104.188 29.5859 103.369 29.2188C102.568 28.8593 102.517 28.5937 102.505 28.459C102.476 28.1271 102.563 27.9231 102.902 27.6699C103.332 27.3495 104.057 27.0661 105.079 26.8193C106.083 26.5771 107.172 26.4131 108.289 26.2217C109.336 26.0423 110.484 25.828 111.364 25.4678L111.367 25.4668C116.443 23.3781 117.929 19.2533 118.577 15.7988C118.738 14.9432 118.851 14.1094 118.952 13.3623C119.056 12.5982 119.145 11.9435 119.259 11.3701C119.482 10.2481 119.723 9.92581 119.835 9.83496L119.875 9.80859C120.392 9.54596 120.709 9.49727 120.872 9.5Z" fill="white" stroke="black" stroke-width="3" stroke-linejoin="round"/>
<path d="M44.8721 66.5C45.0021 66.5022 45.0776 66.5355 45.1611 66.6045C45.4244 66.822 45.7533 67.4073 46.0254 68.5713C46.2817 69.668 46.4202 70.9519 46.5625 72.249C46.6948 73.4556 46.8391 74.8004 47.1465 75.7451C47.8135 77.7958 48.8752 79.3019 50.2236 80.4131C51.5519 81.5076 53.0877 82.1603 54.6172 82.624C56.1218 83.0802 57.7556 83.3887 59.2158 83.709C60.3758 83.9634 61.4662 84.2328 62.4766 84.5967C62.3912 85.4647 62.0701 85.8709 61.7344 86.1328C61.1363 86.5995 60.1655 86.8761 58.6455 87.1582C55.9057 87.6667 51.5831 88.0873 48.9482 91.7588L48.9473 91.7598C47.0552 94.3987 46.8902 97.6365 46.5781 99.9189C46.2878 102.042 45.8992 103.412 44.75 104.271C43.3672 103.345 42.984 101.807 42.6729 99.4121C42.3439 96.879 42.1312 93.3296 39.5879 90.6318C38.4432 89.4177 36.8957 88.7004 35.3916 88.2148C33.8841 87.7282 32.2395 87.4217 30.833 87.1406C29.3543 86.8451 28.1877 86.5859 27.3691 86.2188C26.5679 85.8593 26.5167 85.5937 26.5049 85.459C26.4758 85.1271 26.5626 84.9231 26.9023 84.6699C27.3324 84.3495 28.0567 84.0661 29.0791 83.8193C30.0829 83.5771 31.1717 83.4131 32.2891 83.2217C33.3365 83.0423 34.4843 82.828 35.3643 82.4678L35.3672 82.4668C40.4435 80.3781 41.9287 76.2533 42.5771 72.7988C42.7378 71.9432 42.8508 71.1094 42.9521 70.3623C43.0558 69.5982 43.1446 68.9435 43.2588 68.3701C43.4823 67.2481 43.7232 66.9258 43.835 66.835L43.875 66.8086C44.3923 66.546 44.7093 66.4973 44.8721 66.5Z" fill="white" stroke="black" stroke-width="3" stroke-linejoin="round"/>
<path d="M145.458 2.01953C145.498 2.16405 145.541 2.33333 145.58 2.53125C145.694 3.11027 145.766 3.75061 145.848 4.42676C145.912 4.96409 145.989 5.59179 146.121 6.12012L146.182 6.33984C146.646 7.88745 147.37 9.01532 148.309 9.80859C149.238 10.5935 150.266 10.9562 151.174 11.1611C151.624 11.2628 152.063 11.3291 152.447 11.3838C152.851 11.4412 153.17 11.4829 153.474 11.5391C153.912 11.6202 154.139 11.7057 154.261 11.7744C154.082 11.8688 153.854 11.9692 153.576 12.0693C152.9 12.3131 152.1 12.5089 151.335 12.6904C150.969 12.7772 150.596 12.8639 150.285 12.9473C150.014 13.02 149.633 13.1283 149.329 13.2891C146.637 14.714 146.047 17.6859 145.732 19.6367C145.6 20.4586 145.517 21.1005 145.412 21.6309C145.332 21.3203 145.249 20.9523 145.167 20.5244C145.003 19.6709 144.827 18.5578 144.61 17.627C144.4 16.727 144.081 15.636 143.455 14.8633L143.323 14.708C142.65 13.9544 141.761 13.4981 140.958 13.1914C140.095 12.8619 139.152 12.6427 138.387 12.46C137.603 12.2728 137.042 12.1301 136.651 11.9658C136.925 11.7948 137.388 11.6271 138.135 11.4219C138.836 11.2291 139.8 10.9999 140.653 10.6846C141.519 10.3645 142.497 9.88226 143.227 9.04004C143.931 8.22713 144.319 7.20258 144.571 6.2832C144.826 5.35726 144.987 4.35415 145.131 3.54297C145.244 2.90578 145.346 2.40426 145.458 2.01953Z" fill="white" stroke="black" stroke-width="3" stroke-linejoin="round"/>
<path d="M10.458 94.0195C10.4983 94.164 10.5411 94.3333 10.5801 94.5312C10.6942 95.1103 10.7664 95.7506 10.8477 96.4268C10.9123 96.9641 10.9888 97.5918 11.1211 98.1201L11.1816 98.3398C11.6457 99.8875 12.3695 101.015 13.3086 101.809C14.2378 102.593 15.2663 102.956 16.1738 103.161C16.6241 103.263 17.0629 103.329 17.4473 103.384C17.851 103.441 18.1698 103.483 18.4736 103.539C18.9123 103.62 19.1393 103.706 19.2607 103.774C19.0817 103.869 18.8539 103.969 18.5762 104.069C17.9001 104.313 17.1 104.509 16.335 104.69C15.9692 104.777 15.5963 104.864 15.2852 104.947C15.0136 105.02 14.6326 105.128 14.3291 105.289C11.6371 106.714 11.0465 109.686 10.7324 111.637C10.6001 112.459 10.517 113.101 10.4121 113.631C10.3317 113.32 10.249 112.952 10.167 112.524C10.0033 111.671 9.82749 110.558 9.61035 109.627C9.40043 108.727 9.08084 107.636 8.45508 106.863L8.32324 106.708C7.64982 105.954 6.76123 105.498 5.95801 105.191C5.0948 104.862 4.15229 104.643 3.38672 104.46C2.60279 104.273 2.04159 104.13 1.65137 103.966C1.92511 103.795 2.38825 103.627 3.13477 103.422C3.83608 103.229 4.80021 103 5.65332 102.685C6.51923 102.365 7.49686 101.882 8.22656 101.04C8.93082 100.227 9.31872 99.2026 9.57129 98.2832C9.82566 97.3573 9.9868 96.3542 10.1309 95.543C10.244 94.9058 10.3459 94.4043 10.458 94.0195Z" fill="white" stroke="black" stroke-width="3" stroke-linejoin="round"/>
</svg>
