<svg width="156" height="141" viewBox="0 0 156 141" fill="none" xmlns="http://www.w3.org/2000/svg">
<path d="M103.828 129.727H109.047C112.296 129.727 117.8 123.749 117.648 120.274L117.662 38.7357C117.214 33.5336 112.491 29.3358 107.368 29.0001H9.72995C4.65198 29.7364 0.679884 33.6464 0 38.7385L0.0141055 120.274C-0.0225687 123.752 5.29237 129.727 8.61562 129.727H13.5525C13.4397 134.238 12.9404 139.576 18.7744 140.162C21.8917 140.476 27.7426 140.414 30.9135 140.177C37.5629 139.683 36.22 134.495 37.986 129.71L79.3799 129.716C81.507 134.075 80.136 139.635 86.4665 140.177C89.533 140.439 96.1485 140.498 99.1389 140.134C104.984 139.426 103.771 134.083 103.825 129.727H103.828Z" fill="white"/>
<path d="M103.827 129.727C103.774 134.083 104.987 139.426 99.1415 140.134C96.1512 140.498 89.5329 140.439 86.4692 140.176C80.1387 139.635 81.5097 134.074 79.3826 129.716L37.9887 129.71C36.2227 134.498 37.5655 139.686 30.9162 140.176C27.7425 140.411 21.8944 140.473 18.7771 140.162C12.943 139.576 13.4424 134.241 13.5552 129.727H8.61831C5.29506 129.727 -0.0198832 123.749 0.016791 120.274L0.00268555 38.7384C0.679748 33.6463 4.65185 29.7363 9.72982 29.0028H107.365C112.491 29.3357 117.211 33.5335 117.659 38.7384L117.645 120.276C117.797 123.752 112.293 129.73 109.044 129.73H103.825L103.827 129.727ZM9.5267 33.5955C6.93693 34.2585 4.69699 36.5662 4.51079 39.2998V119.441C4.83522 123.078 7.68735 125.18 11.1404 125.507H106.234C109.763 125.329 112.815 123.117 113.145 119.441V39.2998C112.894 36.2022 110.164 33.6266 107.077 33.5166L9.52388 33.5927L9.5267 33.5955ZM33.3001 129.727H18.0661V134.946C18.0661 135.304 18.9491 135.615 19.3215 135.666C23.02 136.165 27.8807 135.299 31.709 135.612C32.465 135.358 33.0405 130.7 33.3001 129.727ZM99.5957 129.727H84.3618L85.9586 135.663C89.8066 135.254 94.6193 136.165 98.3404 135.663C98.7127 135.612 99.5957 135.302 99.5957 134.943V129.724V129.727Z" fill="black"/>
<path d="M9.52675 33.5955L107.08 33.5193C110.164 33.6293 112.897 36.2021 113.146 39.3025V119.444C112.818 123.12 109.763 125.332 106.234 125.509H11.1432C7.6874 125.182 4.83528 123.078 4.51367 119.444V39.2997C4.69986 36.5661 6.93981 34.2584 9.52958 33.5955H9.52675ZM12.6695 108.323C12.2576 112.823 13.1406 116.823 18.2044 117.599L99.1811 117.608C102.155 117.467 104.77 115.153 104.964 112.106C104.713 89.8537 105.413 67.4768 104.612 45.2945C103.689 43.0264 101.576 41.6553 99.1811 41.4155H18.7602C13.1519 41.9008 12.2294 46.1098 12.692 51.0072C10.8978 51.058 9.14309 52.3529 8.53373 54.0399C7.97515 55.5802 7.95823 63.1408 8.45756 64.7178C9.03588 66.543 10.957 67.6771 12.7231 68.1172L12.7174 90.8919C10.8865 91.4787 8.91176 92.4858 8.38421 94.5142C7.96105 96.1447 7.9949 102.094 8.18956 103.914C8.4491 106.335 10.3928 107.883 12.6695 108.323Z" fill="#4E8CFF" fill-opacity="0.6"/>
<path d="M33.3003 129.727C33.0408 130.703 32.4653 135.358 31.7092 135.612C27.881 135.299 23.0202 136.162 19.3218 135.665C18.9494 135.615 18.0664 135.304 18.0664 134.946V129.727H33.3003Z" fill="#4E8CFF"/>
<path d="M99.5957 129.727V134.946C99.5957 135.304 98.7127 135.615 98.3403 135.665C94.6193 136.168 89.8065 135.254 85.9586 135.665L84.3618 129.73H99.5957V129.727Z" fill="#4E8CFF"/>
<path d="M12.6697 108.323C10.3931 107.886 8.44934 106.335 8.1898 103.914C7.99515 102.094 7.95847 96.1448 8.38446 94.5142C8.912 92.4858 10.8868 91.4787 12.7177 90.8919L12.7233 68.1172C10.9573 67.6743 9.03613 66.5431 8.45781 64.7178C7.95847 63.1408 7.9754 55.5831 8.53398 54.04C9.14333 52.3501 10.8981 51.0553 12.6923 51.0073C12.2296 46.1099 13.1521 41.9036 18.7604 41.4184H99.1842C101.579 41.6582 103.692 43.0292 104.615 45.2974C105.416 67.4797 104.716 89.8537 104.967 112.109C104.77 115.156 102.155 117.467 99.1842 117.61L18.2075 117.602C13.1436 116.826 12.2635 112.826 12.6725 108.326L12.6697 108.323ZM16.9747 91.0414C19.1215 91.5182 20.927 93.1996 21.1697 95.4508C21.4123 97.702 21.48 104.239 20.2782 106.126C19.3642 107.559 18.3429 107.717 16.9747 108.465C17.0001 109.96 16.3682 112.583 18.2696 113.023L99.8133 112.877L100.519 112.171L100.581 47.0775L99.5932 46.0901H18.0721C16.3061 47.1791 17.096 49.0833 16.9211 50.8493C19.5786 51.5461 20.9411 53.1908 21.1809 55.947C21.3502 57.9218 21.4094 63.4624 20.7465 65.124C20.0186 66.9436 18.642 67.4938 16.9211 68.12L16.9775 91.0414H16.9747ZM12.7064 55.2502V63.2903C13.4737 64.2608 16.292 64.1846 16.7998 63.1521C17.0509 62.6443 17.0424 57.6623 16.9521 56.7849C16.7095 54.37 14.5429 54.9032 12.7036 55.2502H12.7064ZM13.169 95.3492C12.8023 95.4423 12.7656 95.6934 12.7064 96.015C12.5851 96.6695 12.5992 103.175 12.743 103.595C13.3722 104.529 16.0663 104.436 16.6841 103.66C17.0734 103.172 17.0819 96.9714 16.8111 96.142C16.3569 94.7455 14.3454 95.4226 13.169 95.3492Z" fill="black"/>
<path d="M16.9745 91.0414L16.9181 68.12C18.639 67.4965 20.0157 66.9464 20.7435 65.124C21.4065 63.4624 21.3501 57.9218 21.178 55.947C20.941 53.1908 19.5756 51.5433 16.9181 50.8493C17.093 49.0861 16.3031 47.179 18.0691 46.0901H99.5874L100.575 47.0775L100.513 112.171L99.8075 112.877L18.2638 113.023C16.3624 112.583 16.9943 109.96 16.9689 108.464C18.3371 107.717 19.3584 107.559 20.2724 106.126C21.4742 104.238 21.4178 97.8092 21.1639 95.4508C20.91 93.0923 19.1158 91.5182 16.9689 91.0414H16.9745ZM41.7043 59.5665C27.675 60.8698 19.6518 76.2955 25.8102 88.8353C32.9448 103.367 54.2299 103.584 61.7425 89.1964C69.334 74.6508 57.8465 58.0713 41.7071 59.5693L41.7043 59.5665Z" fill="#4E8CFF"/>
<path d="M13.1689 95.3492C14.3453 95.4225 16.3568 94.7455 16.811 96.1419C17.0818 96.9713 17.0733 103.172 16.684 103.66C16.0662 104.436 13.3721 104.529 12.743 103.595C12.5991 103.175 12.585 96.6666 12.7063 96.015C12.7655 95.6934 12.8022 95.4451 13.1689 95.3492Z" fill="white"/>
<path d="M12.7063 55.2502C14.5457 54.9032 16.7123 54.37 16.9549 56.7849C17.0423 57.6651 17.0536 62.6443 16.8025 63.1521C16.2919 64.1846 13.4765 64.2608 12.7091 63.2903V55.2502H12.7063Z" fill="white"/>
<path d="M41.7042 59.5665C57.8437 58.0685 69.334 74.6509 61.7396 89.1936C54.2298 103.581 32.9447 103.367 25.8073 88.8325C19.6489 76.2928 27.6749 60.867 41.7014 59.5637L41.7042 59.5665ZM41.4813 64.2777C40.2965 63.863 34.1465 66.8308 34.1521 67.522L38.3725 71.4828L41.4813 70.4841V64.2777ZM45.9951 64.2777V70.061L49.1998 71.5674L53.6092 67.522C51.5554 65.6939 48.74 64.5626 45.9979 64.2777H45.9951ZM59.5363 78.6653C59.099 75.8865 58.6054 72.8679 56.5742 70.7719L52.2466 74.8991L53.3299 78.6653H59.5363ZM34.4286 78.6653C34.0506 77.4522 35.4978 75.8809 35.2354 74.9189C35.1367 74.555 31.1928 70.9806 30.9079 71.0455C29.2801 73.2742 28.5071 75.9458 28.2222 78.6625H34.4286V78.6653ZM42.5336 74.7835C36.6798 75.8696 37.8534 85.9099 44.6579 84.8068C51.0025 83.7771 50.0687 73.387 42.5336 74.7835ZM34.5696 83.179H28.7864C28.1545 84.4852 32.6485 91.521 33.2945 91.0781L36.3667 86.3584L34.5696 83.179ZM58.9721 83.179H52.7657L51.1182 86.381L54.5994 91.0725C55.8745 90.4687 59.7084 83.921 58.9721 83.179ZM50.7881 93.8964L47.005 88.8325C44.7538 89.7127 42.6464 89.3967 40.3585 88.9538L36.9591 93.7469C41.2274 96.0658 46.4098 95.7019 50.7909 93.8964H50.7881Z" fill="black"/>
<path d="M42.5334 74.7835C50.0686 73.387 51.0052 83.7771 44.6577 84.8068C37.8532 85.9099 36.6797 75.8696 42.5334 74.7835Z" fill="white"/>
<path d="M50.7881 93.8964C46.407 95.7048 41.2246 96.0659 36.9563 93.7469L40.3557 88.9539C42.6436 89.3968 44.751 89.7128 47.0022 88.8326L50.7853 93.8964H50.7881Z" fill="white"/>
<path d="M58.9721 83.1791C59.7084 83.921 55.8745 90.4688 54.5994 91.0725L51.1182 86.381L52.7657 83.1791H58.9721Z" fill="white"/>
<path d="M59.5363 78.6653H53.3299L52.2466 74.8991L56.5741 70.7719C58.6081 72.8679 59.1018 75.8865 59.5363 78.6653Z" fill="white"/>
<path d="M34.5695 83.1791L36.3666 86.3585L33.2944 91.0781C32.6484 91.5211 28.1516 84.4852 28.7863 83.1791H34.5695Z" fill="white"/>
<path d="M34.4286 78.6652H28.2222C28.5071 75.9457 29.2801 73.2769 30.9078 71.0482C31.19 70.9834 35.1338 74.5549 35.2354 74.9216C35.4978 75.8836 34.0534 77.4549 34.4286 78.668V78.6652Z" fill="white"/>
<path d="M45.9953 64.2778C48.7374 64.5627 51.5528 65.694 53.6066 67.522L49.1972 71.5675L45.9924 70.061V64.2778H45.9953Z" fill="white"/>
<path d="M41.4813 64.2777V70.4841L38.3725 71.4828L34.1521 67.522C34.1493 66.8308 40.2964 63.863 41.4813 64.2777Z" fill="white"/>
<path d="M102.455 50C102.573 50.002 102.631 50.0273 102.708 50.0918C102.994 50.3304 103.391 51.0212 103.726 52.4688C104.039 53.8247 104.21 55.4139 104.386 57.0293C104.528 58.3382 104.682 59.7935 104.975 60.9336L105.108 61.4023C105.936 63.9728 107.256 65.8683 108.938 67.2695C110.595 68.649 112.507 69.4694 114.401 70.0498C116.262 70.6198 118.285 71.0055 120.075 71.4023C121.462 71.7097 122.76 72.0331 123.963 72.4629C123.847 73.4487 123.474 73.8994 123.108 74.1875C122.407 74.7408 121.252 75.0792 119.378 75.4307C116.131 76.0397 110.963 76.5561 107.657 80.7939L107.344 81.2158C104.992 84.5307 104.787 88.5981 104.405 91.4209C104.056 94.0023 103.595 95.64 102.305 96.6758C100.74 95.5551 100.28 93.7164 99.9043 90.79C99.5015 87.655 99.2387 83.1923 96.0732 79.7988C94.6397 78.2622 92.7062 77.3599 90.8428 76.752C88.9758 76.1428 86.94 75.759 85.2129 75.4102C83.3892 75.0418 81.9734 74.7219 80.9863 74.2744C80.029 73.8403 80.015 73.5449 80.0059 73.4395C79.9738 73.0702 80.0588 72.8565 80.4414 72.5684C80.9442 72.1897 81.8086 71.8445 83.0605 71.5391C84.2888 71.2395 85.6206 71.0358 87.001 70.7969C88.2871 70.5742 89.7184 70.3059 90.8213 69.8496L90.8242 69.8486C97.1447 67.2205 98.9851 62.0297 99.7852 57.7227C99.9835 56.6549 100.123 55.6147 100.248 54.6855C100.376 53.734 100.484 52.9229 100.624 52.2139C100.94 50.6105 101.277 50.381 101.308 50.3652H101.309C101.93 50.0462 102.292 49.9972 102.455 50Z" fill="white" stroke="black" stroke-width="4" stroke-linejoin="round"/>
<path d="M140.943 42.3516C141.047 42.6157 141.156 42.9859 141.258 43.4834C141.421 44.2791 141.523 45.1581 141.639 46.0879C141.744 46.9325 141.873 47.9399 142.116 48.7197C142.78 50.8497 143.811 52.3884 145.133 53.4629C146.437 54.5229 147.878 55.0119 149.153 55.2891C149.788 55.4269 150.407 55.5177 150.955 55.5928C151.528 55.6713 151.991 55.7284 152.431 55.8066C153.151 55.9349 153.503 56.0753 153.685 56.1924C153.408 56.3391 153.049 56.4935 152.608 56.6465C151.631 56.9858 150.477 57.2566 149.386 57.5059C148.861 57.6256 148.332 57.7447 147.891 57.8584C147.502 57.9586 146.978 58.1028 146.564 58.3135C142.778 60.2429 141.928 64.2933 141.476 66.999C141.237 68.4262 141.11 69.4573 140.89 70.2842C140.719 69.7661 140.553 69.0791 140.382 68.2188C140.148 67.0455 139.896 65.5144 139.586 64.2344C139.285 62.9926 138.829 61.4989 137.944 60.4473H137.943C136.98 59.3027 135.644 58.6317 134.438 58.1885C133.218 57.7405 131.886 57.4415 130.789 57.1895C129.611 56.9188 128.763 56.7112 128.183 56.46C128.589 56.1935 129.293 55.9478 130.421 55.6494C131.433 55.3817 132.795 55.0704 134.003 54.6406C135.224 54.2063 136.595 53.5552 137.619 52.417C138.615 51.3106 139.169 49.909 139.53 48.6416C139.894 47.3684 140.124 45.9893 140.33 44.874C140.539 43.7401 140.719 42.9175 140.943 42.3516Z" fill="white" stroke="black" stroke-width="4" stroke-linejoin="round"/>
<path d="M48.4717 2.0957C48.6924 2.41852 48.9249 3.04429 49.126 4.03906C49.3198 4.99784 49.4415 6.05461 49.5762 7.14648C49.7003 8.15355 49.8466 9.30641 50.1182 10.1885V10.1895C50.8736 12.6463 52.0408 14.4007 53.5225 15.6211C54.9877 16.8279 56.6141 17.3898 58.0771 17.7119C58.805 17.8721 59.5182 17.9779 60.1562 18.0664C60.8197 18.1584 61.3685 18.2283 61.8896 18.3223C62.8351 18.4927 63.3054 18.6878 63.5625 18.8896L63.6602 18.9766C63.7478 19.0651 63.8136 19.1415 63.8643 19.2041C63.7867 19.2611 63.6847 19.3318 63.5488 19.4092C63.1931 19.6117 62.721 19.8169 62.1445 20.0195C60.9849 20.4272 59.6231 20.7508 58.3516 21.0449C57.7376 21.1869 57.1255 21.326 56.6162 21.459C56.1591 21.5784 55.5792 21.7419 55.1328 21.9727C50.8833 24.1668 49.9116 28.77 49.3828 31.9717C49.0873 33.7613 48.9361 35.083 48.6289 36.1279C48.5431 36.4198 48.4622 36.6203 48.3965 36.7578C48.0482 36.0856 47.7546 34.9625 47.4521 33.4248C47.1753 32.017 46.8871 30.235 46.5273 28.7314C46.177 27.2672 45.6603 25.5805 44.6875 24.4092V24.4082L44.4824 24.1738C43.4335 23.0293 42.0381 22.3244 40.7363 21.8398C39.3365 21.3188 37.8031 20.9689 36.5186 20.6699C35.1446 20.3501 34.118 20.0992 33.4082 19.7852C33.2061 19.6957 33.08 19.6241 33.0049 19.5742C33.0131 19.5001 33.0306 19.4669 33.0381 19.4531C33.0599 19.4129 33.1321 19.3056 33.3613 19.1514C33.8848 18.7994 34.7575 18.4958 36.0791 18.1416C37.2754 17.821 38.8401 17.4591 40.2334 16.957C41.6406 16.4499 43.1778 15.7033 44.3164 14.4219C45.4246 13.1747 46.0511 11.5819 46.4668 10.1064C46.8844 8.62426 47.1496 7.01789 47.3916 5.68945C47.6503 4.269 47.8764 3.21495 48.1836 2.49805C48.2879 2.25463 48.3713 2.11678 48.4277 2.04199C48.4398 2.05749 48.4567 2.07377 48.4717 2.0957Z" fill="white" stroke="black" stroke-width="4" stroke-linejoin="round"/>
</svg>
