<svg width="147" height="127" viewBox="0 0 147 127" fill="none" xmlns="http://www.w3.org/2000/svg">
<path d="M123.152 2C123.27 2.00201 123.327 2.02731 123.405 2.0918C123.691 2.33038 124.088 3.02124 124.422 4.46875C124.736 5.82473 124.907 7.41394 125.083 9.0293C125.225 10.3382 125.379 11.7935 125.671 12.9336L125.805 13.4023C126.633 15.9728 127.953 17.8683 129.635 19.2695C131.292 20.649 133.204 21.4694 135.098 22.0498C136.959 22.6198 138.982 23.0055 140.772 23.4023C142.158 23.7097 143.456 24.0331 144.66 24.4629C144.543 25.4487 144.17 25.8994 143.805 26.1875C143.104 26.7408 141.948 27.0792 140.075 27.4307C136.828 28.0397 131.66 28.5561 128.354 32.7939L128.041 33.2158C125.689 36.5307 125.484 40.5981 125.102 43.4209C124.753 46.0023 124.292 47.64 123.001 48.6758C121.436 47.5551 120.977 45.7164 120.601 42.79C120.198 39.655 119.936 35.1923 116.77 31.7988C115.336 30.2622 113.403 29.3599 111.54 28.752C109.673 28.1428 107.637 27.759 105.91 27.4102C104.086 27.0418 102.67 26.7219 101.683 26.2744C100.726 25.8403 100.712 25.5449 100.703 25.4395C100.671 25.0702 100.756 24.8565 101.138 24.5684C101.641 24.1897 102.505 23.8445 103.757 23.5391C104.986 23.2395 106.317 23.0358 107.698 22.7969C108.984 22.5742 110.415 22.3059 111.518 21.8496L111.521 21.8486C117.841 19.2205 119.682 14.0297 120.482 9.72266C120.68 8.65493 120.82 7.61467 120.945 6.68555C121.073 5.73398 121.181 4.9229 121.321 4.21387C121.637 2.61047 121.974 2.38104 122.004 2.36523H122.005C122.627 2.04625 122.989 1.99722 123.152 2Z" fill="white" stroke="black" stroke-width="4" stroke-linejoin="round"/>
<path d="M5.21258 121.182V32.1501C5.21258 31.9213 4.48006 30.4795 4.21079 30.2594C2.51991 28.861 -0.0569476 30.2739 0.000959233 32.4396L0.270226 124.821C0.701632 125.979 1.85977 126.379 3.02949 126.405L115.676 126.399C117.613 126.173 118.739 124.3 117.804 122.52C117.624 122.178 116.524 121.182 116.249 121.182H103.654V72.6849C103.654 72.5198 102.988 71.1388 102.78 70.9535C102.308 70.5394 101.787 70.551 101.208 70.4989C95.5878 69.9893 89.2239 70.9158 83.5172 70.4989C82.9004 70.2875 81.6497 71.7555 81.6497 72.1058V121.182H72.095V87.1616C72.095 86.1801 70.2767 85.3491 69.3589 85.2651C65.4849 84.9119 56.6426 84.8482 52.841 85.2796C52.0448 85.3694 50.3799 85.9427 50.3799 86.8721V121.182H40.8253V98.4534C40.8253 97.1997 39.5774 96.3746 38.3816 96.2617C32.8081 95.7376 26.3862 96.6757 20.72 96.2993C20.002 96.1285 18.8207 97.7441 18.8207 98.1639V121.182H5.21258ZM94.3863 49.6669C94.5426 51.9311 92.2466 57.2122 94.1112 58.7756C95.168 59.6645 97.6493 59.375 98.2255 57.991L100.493 41.9942C100.591 37.5151 95.8253 39.8691 93.2831 40.3091C91.1058 40.6855 82.5212 41.5512 81.3717 42.2954C79.8343 43.2856 79.9935 45.5758 81.4412 46.5457C83.135 47.6836 87.5619 45.7379 89.7566 46.6268L64.7119 71.9581L49.8038 57.05C48.747 56.2046 48.1187 55.666 46.6884 56.2596L15.7748 87.0139C13.7509 89.4373 16.1338 92.434 18.9828 91.0877L47.6294 62.4151L62.9747 77.7546C63.7188 78.4292 64.7437 78.5306 65.6529 78.1136L94.3863 49.6698V49.6669Z" fill="white"/>
<path d="M5.21258 121.182H18.8207V98.1639C18.8207 97.7441 20.0049 96.1285 20.72 96.2993C26.3862 96.6757 32.8081 95.7376 38.3816 96.2617C39.5774 96.3746 40.8253 97.1998 40.8253 98.4535V121.182H50.3799V86.8721C50.3799 85.9427 52.0448 85.3694 52.841 85.2797C56.6426 84.8482 65.4849 84.9119 69.3589 85.2652C70.2796 85.3491 72.095 86.1772 72.095 87.1616V121.182H81.6497V72.1058C81.6497 71.7555 82.9004 70.2876 83.5172 70.4989C89.221 70.9187 95.5849 69.9922 101.208 70.4989C101.787 70.551 102.308 70.5395 102.78 70.9535C102.988 71.1359 103.654 72.517 103.654 72.6849V121.182H116.249C116.524 121.182 117.624 122.181 117.804 122.52C118.739 124.3 117.613 126.171 115.676 126.399L3.02949 126.405C1.85977 126.379 0.701632 125.979 0.270226 124.821L0.000959233 32.4396C-0.0569476 30.271 2.51991 28.8581 4.21079 30.2594C4.48006 30.4824 5.21258 31.9243 5.21258 32.1501V121.182ZM98.7322 75.4355H86.5717V121.182H98.7322V75.4355ZM67.1729 90.4913H55.302V121.182H67.1729V90.4913ZM35.6137 101.204H23.7428V121.182H35.6137V101.204Z" fill="black"/>
<path d="M94.3862 49.6668L65.6528 78.1106C64.7436 78.5276 63.7187 78.4262 62.9746 77.7516L47.6293 62.4121L18.9827 91.0847C16.1337 92.431 13.7508 89.4343 15.7747 87.0109L46.6883 56.2566C48.1186 55.663 48.744 56.2016 49.8037 57.047L64.7118 71.9551L89.7565 46.6238C87.5618 45.7349 83.1349 47.6806 81.4411 46.5427C79.9963 45.5728 79.8342 43.2825 81.3716 42.2923C82.5239 41.5511 91.1086 40.6825 93.283 40.3061C95.8251 39.866 100.591 37.5092 100.492 41.9912L98.2254 57.988C97.6463 59.372 95.1679 59.6615 94.1111 58.7726C92.2494 57.2091 94.5454 51.9251 94.3862 49.6639V49.6668Z" fill="black"/>
<path d="M98.7322 75.4355H86.5718V121.182H98.7322V75.4355Z" fill="#4E8CFF"/>
<path d="M67.1732 90.4913H55.3022V121.182H67.1732V90.4913Z" fill="#4E8CFF"/>
<path d="M35.6136 101.204H23.7427V121.182H35.6136V101.204Z" fill="#4E8CFF"/>
</svg>
