<svg width="152" height="148" viewBox="0 0 152 148" fill="none" xmlns="http://www.w3.org/2000/svg">
<path d="M107.574 0.172605C77.413 2.83443 61.5799 38.0548 78.6156 62.9918C95.1419 87.1857 132.438 85.5848 146.532 59.8129C162.251 31.0766 140.221 -2.71136 107.574 0.172605ZM65.406 64.091C64.9464 64.2327 64.6515 64.6272 64.4256 65.0293C54.031 89.6828 36.0187 112.521 11.6562 124.478C9.77571 125.401 1.23488 128.465 0.579951 129.105C-0.657129 130.315 0.246744 132.33 1.77107 132.579C3.2571 132.82 7.11388 131.008 8.71098 130.342C32.9126 120.28 55.8656 95.7265 66.2295 71.8122C67.0721 69.8704 70.5573 62.513 65.4022 64.0872L65.406 64.091ZM87.9837 83.6889C84.6363 80.1539 78.7803 80.6518 75.6589 84.3056C70.316 90.5599 76.0112 100.767 80.1399 106.274C83.7248 111.054 83.9239 109.913 89.0216 107.626C92.775 105.941 98.2787 103.084 100.692 99.7633C106.743 91.4255 98.7651 81.1382 89.6574 86.615C89.5119 85.6346 88.6654 84.4051 87.9837 83.6851V83.6889ZM58.9296 104.7C54.7242 105.114 51.9284 109.591 52.1084 113.601C52.2884 117.611 55.6511 124.049 58.0831 127.182C58.7572 128.051 59.9445 129.855 61.0475 129.798C61.8633 129.756 68.5849 126.523 69.7377 125.88C72.1812 124.516 75.272 122.18 76.5129 119.633C79.914 112.663 73.7362 105.593 66.532 108.771C64.2915 106.634 62.3804 104.355 58.9296 104.696V104.7ZM99.1213 111.571C98.6923 111.636 98.2097 111.981 97.8765 112.272C95.6475 114.218 93.1963 117.546 90.8026 119.752C80.0135 129.695 66.961 137.998 53.4335 143.659C51.8441 146.512 53.4986 147.546 56.3558 146.96C63.2766 145.535 79.4352 134.31 85.3985 129.664C88.8378 126.987 98.9068 118.925 100.933 115.707C102.001 114.007 101.572 111.2 99.1213 111.571ZM48.5695 129.606C40.787 134.451 32.0087 138.626 23.0887 140.89C21.3346 141.334 15.5092 141.644 15.0381 143.184C14.1649 146.026 16.4973 146.125 18.6 145.972C25.4326 145.478 36.44 140.97 42.679 137.883C44.2799 137.09 50.3313 134.045 51.1509 132.95C52.6944 130.882 51.0398 128.741 48.5695 129.603V129.606Z" fill="white"/>
<path d="M107.574 0.172605C140.221 -2.71136 162.251 31.0766 146.532 59.8129C132.434 85.5809 95.1418 87.1857 78.6155 62.9918C61.5798 38.0548 77.4129 2.83826 107.574 0.172605ZM131.308 10.1037C131.075 9.77817 125.215 7.25805 124.319 6.94399C119.539 5.2703 113.258 4.24003 108.206 4.63452C107.551 4.68431 106.938 4.59239 106.505 5.232C115.226 9.03899 122.212 15.9751 126.808 24.1865C129.795 22.1605 131.63 17.9858 131.795 14.4354C131.833 13.5813 131.722 10.6744 131.312 10.1075L131.308 10.1037ZM78.5465 28.0165C83.6481 25.6649 90.0211 25.2666 95.6014 25.7032C104.215 26.3773 109.872 31.6282 119.508 28.5718C123.124 27.4267 123.629 27.082 121.599 23.8342C117.643 17.5032 108.248 8.8743 100.565 8.10064C96.4746 7.69084 94.8699 8.4913 91.6029 10.6208C85.7852 14.4163 80.2892 21.2489 78.5504 28.0127L78.5465 28.0165ZM145.56 31.0537C145.119 28.1237 143.943 25.3853 142.572 22.7809L136 13.8494C136.008 19.1348 133.909 24.8108 129.455 27.8863L132.744 36.4463L133.71 36.6722L145.563 31.0575L145.56 31.0537ZM129.098 39.1196L125.468 30.7473C121.113 32.9878 116.172 34.041 111.274 33.7768C104.046 33.3861 97.2674 29.357 89.8488 29.5485C87.1563 29.6174 79.1823 31.2183 77.4129 33.2061C74.3412 36.6569 77.1792 51.4521 79.753 55.5272C97.4245 55.5004 112.989 44.9871 129.098 39.1157V39.1196ZM146.716 35.6726C146.015 34.9564 136.015 40.8929 134.089 41.0652L136.046 49.0315C137.586 49.1426 138.98 48.9435 140.519 49.3418C142.469 49.8435 143.442 51.4865 145.18 52.1453C146.314 46.745 147.72 41.2184 146.712 35.6764L146.716 35.6726ZM130.243 43.3364C114.602 49.9316 99.2552 58.4762 81.9897 59.9967C86.1107 65.3587 90.8982 70.1079 97.3134 72.6318C101.289 74.1945 102.281 74.3591 106.318 72.8386C111.603 70.8471 116.758 65.9102 120.485 61.7279C123.936 57.8558 126.417 52.9113 131.312 50.5406L130.24 43.3402L130.243 43.3364ZM135.613 66.6992C137.337 64.5812 142.231 59.6827 142.702 57.1549C143.12 54.9144 138.382 52.4709 136.371 53.2943C136.471 57.7983 136.437 62.2679 135.609 66.6992H135.613ZM132.162 55.5923C130.649 56.1859 129.079 57.9898 127.938 59.2193C124.552 62.8769 121.825 66.9711 117.995 70.3415C115.602 72.448 112.917 74.0604 110.331 75.8873C114.816 75.7839 119.324 75.0945 123.553 73.6008C126.984 72.3867 128.271 71.8888 129.937 68.4955C130.542 67.266 132.162 62.6739 132.162 61.5287V55.5923Z" fill="black"/>
<path d="M65.4061 64.0912C70.5613 62.5209 67.076 69.8782 66.2334 71.8162C55.8657 95.7267 32.9165 120.284 8.71489 130.346C7.11779 131.008 3.26101 132.824 1.77498 132.583C0.25065 132.334 -0.653223 130.315 0.583858 129.109C1.23878 128.469 9.77579 125.405 11.6601 124.482C36.0226 112.525 54.0311 89.6869 64.4295 65.0333C64.6554 64.6312 64.9503 64.2367 65.4099 64.095L65.4061 64.0912Z" fill="black"/>
<path d="M87.9837 83.689C88.6654 84.409 89.5118 85.6385 89.6574 86.6189C98.765 81.1382 106.743 91.4294 100.691 99.7672C98.2786 103.088 92.7749 105.945 89.0216 107.63C83.9239 109.917 83.7247 111.062 80.1399 106.278C76.0112 100.771 70.316 90.5638 75.6588 84.3095C78.7802 80.6557 84.6363 80.1578 87.9837 83.6928V83.689ZM80.7297 85.5504C80.048 85.7074 79.5922 86.1517 79.102 86.6036C74.0885 91.1996 81.4382 101.284 84.2801 105.604C89.0905 103.406 101.664 98.5225 98.4893 91.3758C97.7577 89.725 95.1074 88.6144 93.3763 88.9897C91.1396 89.4761 90.5957 93.4669 88.0066 92.6856C86.6508 92.2758 86.7925 89.6867 86.3942 88.5378C85.4827 85.9142 83.4413 84.9299 80.7297 85.5542V85.5504Z" fill="black"/>
<path d="M58.9295 104.7C62.3803 104.359 64.2915 106.634 66.532 108.775C73.7362 105.596 79.9139 112.663 76.5129 119.637C75.272 122.184 72.1812 124.52 69.7377 125.884C68.5849 126.527 61.8633 129.756 61.0475 129.802C59.9444 129.859 58.7571 128.055 58.0831 127.186C55.651 124.053 52.2883 117.546 52.1083 113.605C51.9283 109.664 54.7204 105.118 58.9295 104.704V104.7ZM72.6791 112.778C72.3689 112.444 70.9633 111.74 70.5113 111.655C67.0529 111.02 67.7806 115.355 64.9694 114.968C62.6178 114.643 64.1766 108.197 59.6151 108.45C55.5208 108.676 55.7162 113.658 56.5204 116.489C56.9073 117.841 60.4079 124.551 61.3117 125.122C61.7943 125.424 62.0165 125.244 62.4607 125.133C64.0042 124.758 70.699 121.096 71.802 119.894C73.4259 118.124 74.4792 114.708 72.6791 112.774V112.778Z" fill="black"/>
<path d="M99.1213 111.571C101.572 111.196 102.001 114.007 100.933 115.708C98.9107 118.925 88.8378 126.987 85.3985 129.664C79.4353 134.31 63.2766 145.535 56.3559 146.96C53.4987 147.546 51.848 146.512 53.4336 143.659C66.9649 137.994 80.0136 129.695 90.8026 119.752C93.1963 117.546 95.6475 114.221 97.8766 112.272C98.2098 111.981 98.6885 111.636 99.1213 111.571Z" fill="black"/>
<path d="M48.5695 129.607C51.0361 128.745 52.6944 130.886 51.151 132.954C50.3352 134.049 44.28 137.094 42.6791 137.887C36.44 140.974 25.4327 145.482 18.6 145.976C16.4936 146.129 14.1611 146.026 15.0382 143.188C15.5131 141.648 21.3346 141.338 23.0888 140.893C32.0088 138.63 40.7871 134.455 48.5695 129.61V129.607Z" fill="black"/>
<path d="M129.098 39.1196C112.99 44.991 97.4246 55.5043 79.7531 55.5311C77.1793 51.456 74.3413 36.6608 77.413 33.21C79.1824 31.2222 87.1564 29.6213 89.8489 29.5524C97.2675 29.3609 104.047 33.3938 111.274 33.7807C116.172 34.0449 121.113 32.9917 125.468 30.7512L129.098 39.1235V39.1196Z" fill="white"/>
<path d="M130.243 43.3365L131.316 50.5368C126.421 52.9076 123.936 57.8559 120.489 61.7242C116.762 65.9065 111.607 70.8433 106.322 72.8349C102.285 74.3554 101.293 74.1907 97.3172 72.6281C90.902 70.1041 86.1146 65.3588 81.9935 59.993C99.259 58.4725 114.602 49.9317 130.247 43.3326L130.243 43.3365Z" fill="white"/>
<path d="M78.5466 28.0165C80.2854 21.2528 85.7852 14.4201 91.5991 10.6246C94.8622 8.49513 96.4708 7.69084 100.561 8.10447C108.248 8.87813 117.639 17.5032 121.595 23.838C123.625 27.0858 123.12 27.4267 119.504 28.5757C109.868 31.632 104.211 26.3811 95.5976 25.707C90.0173 25.2704 83.6442 25.6649 78.5427 28.0203L78.5466 28.0165Z" fill="white"/>
<path d="M131.308 10.1037C131.718 10.6744 131.833 13.5813 131.791 14.4316C131.626 17.9858 129.792 22.1605 126.804 24.1827C122.208 15.9674 115.222 9.03516 106.502 5.22817C106.938 4.58856 107.547 4.68431 108.202 4.63069C113.254 4.2362 119.535 5.26647 124.315 6.94016C125.211 7.25422 131.071 9.77434 131.304 10.0999L131.308 10.1037Z" fill="white"/>
<path d="M145.56 31.0537L133.706 36.6684L132.741 36.4425L129.451 27.8825C133.905 24.8108 136.004 19.131 135.996 13.8456L142.569 22.7771C143.944 25.3853 145.116 28.1199 145.556 31.0499L145.56 31.0537Z" fill="white"/>
<path d="M132.162 55.5923V61.5287C132.162 62.6701 130.538 67.266 129.937 68.4955C128.271 71.8888 126.984 72.3867 123.553 73.6008C119.328 75.0945 114.816 75.7839 110.332 75.8873C112.917 74.0604 115.602 72.4518 117.995 70.3415C121.825 66.9711 124.552 62.8769 127.938 59.2193C129.075 57.9898 130.646 56.1859 132.162 55.5923Z" fill="white"/>
<path d="M146.716 35.6727C147.724 41.2146 146.318 46.7451 145.184 52.1415C143.442 51.4828 142.473 49.8436 140.523 49.338C138.984 48.9397 137.59 49.1388 136.05 49.0278L134.093 41.0614C136.019 40.8929 146.019 34.9526 146.72 35.6688L146.716 35.6727Z" fill="white"/>
<path d="M135.613 66.6992C136.441 62.268 136.471 57.7984 136.375 53.2943C138.386 52.4709 143.124 54.9144 142.706 57.1549C142.235 59.6827 137.341 64.5813 135.617 66.6992H135.613Z" fill="white"/>
<path d="M80.7298 85.5503C83.4414 84.926 85.4828 85.9103 86.3943 88.5339C86.7926 89.6829 86.6509 92.2719 88.0067 92.6817C90.5958 93.4669 91.1396 89.4722 93.3763 88.9858C95.1113 88.6105 97.7578 89.7212 98.4894 91.3719C101.664 98.5186 89.0906 103.406 84.2802 105.6C81.4383 101.28 74.0886 91.1919 79.102 86.5997C79.5923 86.1516 80.048 85.7035 80.7298 85.5465V85.5503Z" fill="#4E8CFF"/>
<path d="M72.6791 112.778C74.4792 114.712 73.4259 118.128 71.802 119.897C70.699 121.1 64.0042 124.758 62.4607 125.137C62.0126 125.248 61.7905 125.428 61.3117 125.125C60.4079 124.555 56.9073 117.845 56.5205 116.493C55.7162 113.666 55.5208 108.679 59.6151 108.454C64.1804 108.201 62.6178 114.647 64.9694 114.972C67.7806 115.359 67.0529 111.023 70.5113 111.659C70.9633 111.743 72.3689 112.448 72.6791 112.781V112.778Z" fill="#4E8CFF"/>
</svg>
