<svg width="152" height="148" viewBox="0 0 152 148" fill="none" xmlns="http://www.w3.org/2000/svg">
<path d="M107.574 0.172758C77.413 2.83459 61.5799 38.055 78.6156 62.9919C95.1419 87.1859 132.438 85.5849 146.532 59.8131C162.251 31.0768 140.221 -2.71121 107.574 0.172758ZM65.406 64.0911C64.9464 64.2328 64.6515 64.6273 64.4256 65.0295C54.031 89.683 36.0187 112.521 11.6562 124.478C9.77571 125.401 1.23488 128.465 0.579951 129.105C-0.657129 130.315 0.246744 132.33 1.77107 132.579C3.2571 132.82 7.11388 131.008 8.71098 130.342C32.9126 120.281 55.8656 95.7267 66.2295 71.8124C67.0721 69.8706 70.5573 62.5132 65.4022 64.0873L65.406 64.0911ZM87.9837 83.6891C84.6363 80.154 78.7803 80.6519 75.6589 84.3057C70.316 90.5601 76.0112 100.767 80.1399 106.274C83.7248 111.054 83.9239 109.913 89.0216 107.626C92.775 105.941 98.2787 103.084 100.692 99.7635C106.743 91.4256 98.7651 81.1383 89.6574 86.6152C89.5119 85.6347 88.6654 84.4053 87.9837 83.6853V83.6891ZM58.9296 104.7C54.7242 105.114 51.9284 109.591 52.1084 113.601C52.2884 117.611 55.6511 124.049 58.0831 127.182C58.7572 128.052 59.9445 129.856 61.0475 129.798C61.8633 129.756 68.5849 126.523 69.7377 125.88C72.1812 124.517 75.272 122.18 76.5129 119.633C79.914 112.663 73.7362 105.593 66.532 108.772C64.2915 106.634 62.3804 104.356 58.9296 104.696V104.7ZM99.1213 111.571C98.6923 111.636 98.2097 111.981 97.8765 112.272C95.6475 114.218 93.1963 117.546 90.8026 119.752C80.0135 129.695 66.961 137.998 53.4335 143.659C51.8441 146.512 53.4986 147.546 56.3558 146.96C63.2766 145.535 79.4352 134.31 85.3985 129.664C88.8378 126.987 98.9068 118.925 100.933 115.708C102.001 114.007 101.572 111.2 99.1213 111.571ZM48.5695 129.607C40.787 134.452 32.0087 138.626 23.0887 140.89C21.3346 141.334 15.5092 141.644 15.0381 143.184C14.1649 146.026 16.4973 146.125 18.6 145.972C25.4326 145.478 36.44 140.97 42.679 137.883C44.2799 137.09 50.3313 134.046 51.1509 132.95C52.6944 130.882 51.0398 128.741 48.5695 129.603V129.607Z" fill="#4E8CFF"/>
<path d="M107.574 0.172727C140.221 -2.71124 162.251 31.0768 146.532 59.813C132.434 85.5811 95.1418 87.1858 78.6155 62.9919C61.5798 38.055 77.4129 2.83839 107.574 0.172727ZM131.308 10.1038C131.075 9.77829 125.215 7.25817 124.319 6.94411C119.539 5.27042 113.258 4.24016 108.206 4.63464C107.551 4.68443 106.938 4.59251 106.505 5.23212C115.226 9.03911 122.212 15.9752 126.808 24.1866C129.795 22.1606 131.63 17.9859 131.795 14.4355C131.833 13.5815 131.722 10.6745 131.312 10.1077L131.308 10.1038ZM78.5465 28.0166C83.6481 25.665 90.0211 25.2667 95.6014 25.7033C104.215 26.3774 109.872 31.6283 119.508 28.572C123.124 27.4268 123.629 27.0821 121.599 23.8343C117.643 17.5033 108.248 8.87442 100.565 8.10077C96.4746 7.69096 94.8699 8.49142 91.6029 10.6209C85.7852 14.4164 80.2892 21.2491 78.5504 28.0128L78.5465 28.0166ZM145.56 31.0538C145.119 28.1239 143.943 25.3854 142.572 22.781L136 13.8496C136.008 19.1349 133.909 24.8109 129.455 27.8864L132.744 36.4464L133.71 36.6723L145.563 31.0576L145.56 31.0538ZM129.098 39.1197L125.468 30.7474C121.113 32.9879 116.172 34.0412 111.274 33.7769C104.046 33.3862 97.2674 29.3571 89.8488 29.5486C87.1563 29.6175 79.1823 31.2185 77.4129 33.2062C74.3412 36.657 77.1792 51.4522 79.753 55.5273C97.4245 55.5005 112.989 44.9872 129.098 39.1159V39.1197ZM146.716 35.6727C146.015 34.9565 136.015 40.893 134.089 41.0653L136.046 49.0317C137.586 49.1427 138.98 48.9436 140.519 49.3419C142.469 49.8436 143.442 51.4867 145.18 52.1454C146.314 46.7452 147.72 41.2185 146.712 35.6766L146.716 35.6727ZM130.243 43.3365C114.602 49.9317 99.2552 58.4764 81.9897 59.9969C86.1107 65.3588 90.8982 70.108 97.3134 72.6319C101.289 74.1946 102.281 74.3593 106.318 72.8388C111.603 70.8472 116.758 65.9103 120.485 61.728C123.936 57.8559 126.417 52.9114 131.312 50.5407L130.24 43.3403L130.243 43.3365ZM135.613 66.6993C137.337 64.5813 142.231 59.6828 142.702 57.155C143.12 54.9145 138.382 52.471 136.371 53.2944C136.471 57.7985 136.437 62.268 135.609 66.6993H135.613ZM132.162 55.5924C130.649 56.186 129.079 57.99 127.938 59.2194C124.552 62.877 121.825 66.9712 117.995 70.3416C115.602 72.4481 112.917 74.0605 110.331 75.8874C114.816 75.784 119.324 75.0946 123.553 73.6009C126.984 72.3868 128.271 71.8889 129.937 68.4956C130.542 67.2662 132.162 62.674 132.162 61.5289V55.5924Z" fill="black"/>
<path d="M65.4061 64.0913C70.5613 62.521 67.076 69.8784 66.2334 71.8163C55.8657 95.7268 32.9165 120.285 8.71489 130.346C7.11779 131.009 3.26101 132.824 1.77498 132.583C0.25065 132.334 -0.653223 130.315 0.583858 129.109C1.23878 128.469 9.77579 125.405 11.6601 124.482C36.0226 112.525 54.0311 89.687 64.4295 65.0335C64.6554 64.6313 64.9503 64.2368 65.4099 64.0951L65.4061 64.0913Z" fill="black"/>
<path d="M87.9836 83.6891C88.6653 84.4092 89.5118 85.6386 89.6573 86.6191C98.765 81.1384 106.743 91.4295 100.691 99.7673C98.2786 103.088 92.7749 105.945 89.0215 107.63C83.9238 109.917 83.7247 111.062 80.1398 106.278C76.0111 100.771 70.3159 90.5639 75.6587 84.3096C78.7802 80.6558 84.6362 80.1579 87.9836 83.693V83.6891ZM80.7296 85.5505C80.0479 85.7075 79.5921 86.1518 79.1019 86.6037C74.0885 91.1997 81.4382 101.284 84.28 105.604C89.0905 103.406 101.664 98.5226 98.4892 91.3759C97.7577 89.7252 95.1073 88.6145 93.3762 88.9898C91.1395 89.4762 90.5956 93.467 88.0066 92.6857C86.6508 92.2759 86.7925 89.6869 86.3942 88.5379C85.4826 85.9143 83.4412 84.93 80.7296 85.5543V85.5505Z" fill="black"/>
<path d="M58.9295 104.7C62.3803 104.359 64.2915 106.634 66.532 108.775C73.7362 105.597 79.9139 112.663 76.5129 119.637C75.272 122.184 72.1812 124.52 69.7377 125.884C68.5849 126.527 61.8633 129.756 61.0475 129.802C59.9444 129.859 58.7571 128.056 58.0831 127.186C55.651 124.053 52.2883 117.546 52.1083 113.605C51.9283 109.664 54.7204 105.118 58.9295 104.704V104.7ZM72.6791 112.778C72.3689 112.445 70.9633 111.74 70.5113 111.656C67.0529 111.02 67.7806 115.355 64.9694 114.968C62.6178 114.643 64.1766 108.197 59.6151 108.45C55.5208 108.676 55.7162 113.659 56.5204 116.489C56.9073 117.841 60.4079 124.551 61.3117 125.122C61.7943 125.424 62.0165 125.244 62.4607 125.133C64.0042 124.758 70.699 121.096 71.802 119.894C73.4259 118.124 74.4792 114.708 72.6791 112.774V112.778Z" fill="black"/>
<path d="M99.1213 111.571C101.572 111.196 102.001 114.007 100.933 115.708C98.9107 118.925 88.8378 126.987 85.3985 129.664C79.4353 134.31 63.2766 145.535 56.3559 146.96C53.4987 147.546 51.848 146.512 53.4336 143.659C66.9649 137.994 80.0136 129.695 90.8026 119.752C93.1963 117.546 95.6475 114.222 97.8766 112.272C98.2098 111.981 98.6885 111.636 99.1213 111.571Z" fill="black"/>
<path d="M48.5695 129.607C51.036 128.745 52.6944 130.886 51.1509 132.954C50.3351 134.049 44.2799 137.094 42.679 137.887C36.44 140.974 25.4326 145.482 18.6 145.976C16.4935 146.129 14.161 146.026 15.0381 143.188C15.513 141.648 21.3346 141.338 23.0887 140.894C32.0087 138.63 40.787 134.455 48.5695 129.61V129.607Z" fill="black"/>
<path d="M129.098 39.1198C112.99 44.9911 97.4246 55.5044 79.7531 55.5312C77.1794 51.4561 74.3414 36.661 77.413 33.2102C79.1825 31.2224 87.1565 29.6215 89.8489 29.5525C97.2676 29.361 104.047 33.394 111.274 33.7808C116.172 34.0451 121.113 32.9918 125.468 30.7513L129.098 39.1236V39.1198Z" fill="#4E8CFF"/>
<path d="M130.243 43.3366L131.316 50.5369C126.421 52.9077 123.936 57.856 120.489 61.7243C116.762 65.9066 111.607 70.8434 106.322 72.835C102.285 74.3555 101.293 74.1908 97.3172 72.6282C90.902 70.1043 86.1146 65.3589 81.9935 59.9931C99.259 58.4726 114.602 49.9318 130.247 43.3328L130.243 43.3366Z" fill="#4E8CFF"/>
<path d="M78.5466 28.0166C80.2854 21.2529 85.7853 14.4202 91.5992 10.6247C94.8623 8.49525 96.4709 7.69096 100.561 8.1046C108.248 8.87825 117.639 17.5033 121.595 23.8381C123.625 27.0859 123.12 27.4268 119.504 28.5758C109.868 31.6321 104.211 26.3812 95.5976 25.7071C90.0174 25.2705 83.6443 25.665 78.5428 28.0204L78.5466 28.0166Z" fill="#4E8CFF"/>
<path d="M131.308 10.1038C131.718 10.6745 131.833 13.5815 131.791 14.4317C131.626 17.9859 129.792 22.1606 126.804 24.1828C122.208 15.9675 115.222 9.03528 106.502 5.22829C106.938 4.58868 107.547 4.68443 108.202 4.63081C113.254 4.23633 119.535 5.26659 124.315 6.94028C125.211 7.25434 131.071 9.77446 131.304 10.1L131.308 10.1038Z" fill="#4E8CFF"/>
<path d="M145.56 31.0538L133.706 36.6685L132.741 36.4426L129.451 27.8826C133.905 24.8109 136.004 19.1311 135.996 13.8457L142.569 22.7772C143.944 25.3854 145.116 28.12 145.556 31.05L145.56 31.0538Z" fill="#4E8CFF"/>
<path d="M132.162 55.5924V61.5289C132.162 62.6702 130.538 67.2662 129.937 68.4956C128.271 71.8889 126.984 72.3868 123.553 73.6009C119.328 75.0946 114.816 75.784 110.331 75.8874C112.917 74.0605 115.602 72.4519 117.995 70.3416C121.825 66.9713 124.552 62.877 127.938 59.2194C129.075 57.99 130.646 56.1861 132.162 55.5924Z" fill="#4E8CFF"/>
<path d="M146.716 35.6728C147.724 41.2148 146.318 46.7452 145.184 52.1417C143.442 51.4829 142.473 49.8437 140.523 49.3381C138.984 48.9398 137.59 49.139 136.05 49.0279L134.093 41.0616C136.019 40.893 146.019 34.9528 146.72 35.669L146.716 35.6728Z" fill="#4E8CFF"/>
<path d="M135.613 66.6994C136.441 62.2681 136.471 57.7985 136.375 53.2945C138.386 52.471 143.124 54.9145 142.706 57.1551C142.235 59.6829 137.341 64.5814 135.617 66.6994H135.613Z" fill="#4E8CFF"/>
<path d="M80.7297 85.5504C83.4413 84.9262 85.4827 85.9105 86.3942 88.534C86.7926 89.683 86.6509 92.272 88.0067 92.6819C90.5957 93.467 91.1396 89.4723 93.3763 88.9859C95.1113 88.6106 97.7578 89.7213 98.4893 91.372C101.664 98.5187 89.0905 103.406 84.2801 105.6C81.4383 101.28 74.0885 91.192 79.102 86.5999C79.5922 86.1518 80.048 85.7036 80.7297 85.5466V85.5504Z" fill="white"/>
<path d="M72.6791 112.778C74.4792 114.712 73.4259 118.128 71.802 119.898C70.699 121.1 64.0042 124.758 62.4607 125.137C62.0126 125.248 61.7905 125.428 61.3117 125.126C60.4079 124.555 56.9073 117.845 56.5205 116.493C55.7162 113.666 55.5208 108.68 59.6151 108.454C64.1804 108.201 62.6178 114.647 64.9694 114.972C67.7806 115.359 67.0529 111.024 70.5113 111.659C70.9633 111.744 72.3689 112.448 72.6791 112.782V112.778Z" fill="white"/>
</svg>
