<svg width="165" height="145" viewBox="0 0 165 145" fill="none" xmlns="http://www.w3.org/2000/svg">
<path d="M12.0584 0.13377L151.697 -0.00146484C159.032 0.733311 164.373 6.99018 164.995 14.1982V110.251C164.594 114.799 162.363 113.582 159.361 113.591C155.146 113.605 150.904 113.704 146.712 113.659L132.287 100.099L33.5472 100.063L31.7486 100.519L18.2612 113.663C14.0644 113.713 9.82706 113.614 5.61224 113.596C3.47103 113.587 1.45152 114.79 0.198344 111.833L0 13.7699C0.815917 7.15696 5.40488 1.51317 12.0584 0.13377ZM151.008 107.754H157.995L158.694 106.198L158.685 15.0998C158.135 8.66258 154.1 6.29146 148.091 5.85871H17.3281C11.5491 5.95337 6.92853 8.50931 6.31096 14.6715L6.28391 106.198L6.98262 107.754H13.9698V16.0194C13.9698 14.5363 17.274 13.1704 18.6849 13.522H146.743C148.06 13.2561 151.008 14.6986 151.008 16.0194V107.754ZM139.738 19.851H25.2393C25.041 20.6399 25.5639 20.7526 25.911 21.2079C26.4835 21.9562 31.1987 26.7705 31.7486 27.0906C32.1904 27.343 32.5555 27.6 33.101 27.5414C66.4544 27.2078 99.9746 28.0958 133.224 27.0906C134.852 25.026 137.511 23.2319 139.062 21.2079C139.409 20.7526 139.932 20.6399 139.734 19.851H139.738ZM20.2807 102.344C21.0696 102.543 21.1823 102.02 21.6376 101.673C22.6518 100.897 27.7772 95.7268 27.935 94.8973C27.6826 73.8818 28.4985 52.686 27.5203 31.7742L20.2852 24.8096V102.344H20.2807ZM144.697 102.344V24.8096C143.078 26.6759 138.544 29.8899 137.462 31.7742C137.115 32.3828 136.916 32.8516 137.006 33.5728L137.042 94.8973C137.2 95.7268 142.326 100.897 143.34 101.673C143.795 102.02 143.908 102.543 144.697 102.344ZM45.0738 33.8253H34.255V44.1933H44.3976L45.0738 43.5171V33.8253ZM62.2035 33.8253H51.3847V44.1933H61.5273L62.2035 43.5171V33.8253ZM79.3332 33.8253H68.5145V44.1933H79.3332V33.8253ZM96.463 33.8253H85.6442V44.1933H96.463V33.8253ZM113.593 33.8253H102.774V43.5171L103.45 44.1933H113.593V33.8253ZM130.722 33.8253H119.904V43.5171L120.58 44.1933H130.722V33.8253ZM45.0738 50.5042H34.255V60.4214H45.0738V50.5042ZM62.2035 50.5042H51.3847V60.4214H62.2035V50.5042ZM79.3332 50.5042H68.5145V60.4214H79.3332V50.5042ZM96.463 50.5042H85.6442V60.4214H96.463V50.5042ZM113.593 50.5042H102.774V60.4214H113.593V50.5042ZM130.722 50.5042H119.904V60.4214H130.722V50.5042ZM45.0738 77.1004V67.4086L44.3976 66.7324H34.9311L34.255 67.4086V77.1004H45.0738ZM62.2035 77.1004V67.4086L61.5273 66.7324H51.3847V77.1004H62.2035ZM79.3332 66.7324H68.5145V77.1004H79.3332V66.7324ZM96.463 66.7324H85.6442V77.1004H96.463V66.7324ZM113.593 66.7324H103.45L102.774 67.4086V77.1004H113.593V66.7324ZM130.722 77.1004V67.4086L130.046 66.7324H120.58L119.904 67.4086V77.1004H130.722ZM45.0738 83.4114H34.255V93.7794H45.0738V83.4114ZM62.2035 83.4114H51.3847V93.7794H62.2035V83.4114ZM79.3332 83.4114H68.5145V93.7794H79.3332V83.4114ZM96.463 83.4114H85.6442V93.7794H96.463V83.4114ZM113.593 83.4114H102.774V93.7794H113.593V83.4114ZM130.722 83.4114H119.904V93.7794H130.722V83.4114Z" fill="black"/>
<path d="M87.0054 26.5299C92.0314 26.5718 96.8813 28.468 100.757 31.4611C102.347 30.74 103.736 29.6239 105.352 28.9375C126.618 19.9058 146.023 45.0988 128.204 63.1972C121.999 69.5 112.681 78.3236 105.786 83.7823C102.255 86.5792 98.7444 87.6021 94.8499 84.5798C87.4404 76.0199 77.1995 68.2416 70.0718 59.6331C59.0315 46.2983 69.4932 26.3877 87.0054 26.5299Z" fill="#4E8CFF" stroke="black" stroke-width="5"/>
<path d="M104 109C103.52 116.17 99.608 132.807 87.8 142M93.92 111.652C93.44 118.821 85.28 132.571 68 142" stroke="black" stroke-width="5" stroke-linecap="round"/>
</svg>
