<svg width="189" height="103" viewBox="0 0 189 103" fill="none" xmlns="http://www.w3.org/2000/svg">
<path d="M48.3605 76.2141C49.0179 76.8687 49.39 77.8846 49.9564 78.6073C52.9456 72.5798 61.6609 72.4862 64.2987 78.7433C68.0155 87.5593 56.0381 96.728 49.9605 101C43.7052 96.3497 31.2482 87.2362 36.0937 77.9612C38.4504 73.4511 44.8256 72.686 48.3605 76.2141Z" fill="#4E8CFF" stroke="black" stroke-width="3"/>
<path d="M17.6284 61.0136C19.4844 60.8608 21.6873 62.0188 22.783 63.5388C26.5378 68.75 20.736 74.5765 17.1137 77.8054C16.3417 78.493 13.2341 81.1831 12.5284 80.9901C9.41305 78.3362 3.04196 73.704 2.20366 69.4819C0.659628 61.7414 8.25503 58.1948 12.8364 64.1379C14.2284 62.6139 15.4449 61.1905 17.6284 61.0136Z" fill="#4E8CFF" stroke="black" stroke-width="3"/>
<path d="M167.495 67.2815L154.905 13.788C153.825 11.3584 148.891 13.4273 147.201 14.4475C144.612 16.0088 143.576 17.9926 142.35 20.6695C136.187 16.4056 133.503 10.6061 132.691 3.28147C132.475 1.32341 133.145 -0.492939 130.043 0.125394C128.298 0.473206 124.333 2.591 122.635 3.53653C112.892 8.95725 101.7 19.1752 97.4538 29.625C96.9566 30.8462 96.7196 32.4333 96.2326 33.5566C95.4314 35.4013 92.6746 37.1481 91.3658 38.7377C89.4542 41.0564 89.3331 43.3314 91.3426 45.6656C110.614 62.2756 128.399 80.6967 147.632 97.3273C149.731 99.1437 150.44 100.061 153.423 100.295L183.83 100.282C186.419 100.048 188.557 98.8293 188.859 96.0365C189.506 90.0593 187.859 83.3118 185.37 77.8807C182.189 70.9399 175.155 66.7456 167.498 67.284L167.495 67.2815ZM76.9613 69.6749C75.7942 70.3474 75.704 71.8005 76.6341 72.7357L102.947 72.9882C104.601 72.9701 104.889 70.3397 103.573 69.76L76.9638 69.6749H76.9613ZM79.0352 83.085C76.7577 83.505 76.8943 86.4549 79.2233 86.6353H115.561C118.207 86.3313 117.9 83.018 115.298 83.0232L79.0327 83.085H79.0352Z" fill="white"/>
<path d="M167.495 67.2814C175.152 66.7455 182.186 70.9373 185.368 77.8781C187.857 83.3091 189.5 90.0567 188.856 96.0339C188.555 98.8267 186.416 100.045 183.827 100.28C183.827 100.28 154.325 100.293 153.421 100.293C150.427 100.293 149.729 99.141 147.629 97.3247C128.396 80.6941 110.614 62.2704 91.34 45.663C89.333 43.3288 89.4541 41.0538 91.3632 38.7351C92.672 37.148 95.4287 35.3987 96.23 33.554C96.7169 32.4307 96.9565 30.8462 97.4512 29.6224C101.697 19.1726 112.889 8.95462 122.633 3.5339C124.331 2.58837 128.296 0.470581 130.04 0.122769C133.142 -0.495564 132.469 1.32336 132.688 3.27884C133.503 10.6035 136.187 16.403 142.347 20.6669C143.574 17.99 144.609 16.0062 147.199 14.4449C148.889 13.4247 153.823 11.3558 154.902 13.7853L167.493 67.2789L167.495 67.2814ZM149.435 27.3758C138.431 25.1163 129.934 15.4265 129.213 4.18573C123.869 6.64103 118.92 9.84863 114.401 13.605C120.216 23.3978 118.426 35.95 110.81 44.2125L118.652 51.3336L131.903 47.585C132.462 47.2732 132.573 46.7605 132.305 46.186C131.882 45.2791 128.566 42.695 127.662 41.5459C125.529 38.8381 125.918 35.8109 129.009 34.1285L149.432 27.3758H149.435ZM111.817 16.0371C107.692 19.8914 103.635 24.3717 101.293 29.5992C100.898 30.4803 99.7596 33.1984 99.7674 33.9971C99.7725 34.5613 106.824 40.706 107.873 41.5047C115.035 35.3883 116.024 24.1811 111.817 16.0371ZM153.557 24.279L151.89 16.5447C151.692 16.1917 150.277 16.7868 149.953 16.9388C148.595 17.5701 144.903 21.0018 145.941 22.4884C146.421 23.1737 153.186 24.6216 153.557 24.279ZM157.296 86.8877H184.476C183.15 79.7821 179.468 71.9936 171.399 70.9811C169.755 70.775 166.362 71.2929 165.166 70.5148C163.971 69.7367 163.53 65.3672 163.087 63.9579C161.297 64.2258 156.669 66.5291 155.165 65.8309C154.405 65.478 154.152 64.3985 154.379 63.6281C154.83 62.1081 160.645 61.3119 162.077 60.4566L160.503 53.1474C160.052 52.7583 154.32 55.1389 153.163 55.2111C150.958 55.3476 150.143 53.15 151.823 52.0498C153.019 51.2666 159.058 49.999 159.372 49.543L157.934 42.0586C157.623 41.7494 150.708 44.5294 149.52 44.5526C147.611 44.5912 146.843 42.1849 148.477 41.229C149.78 40.4664 156.608 39.0288 156.899 38.699L155.054 30.1299L154.485 29.6997L130.179 37.4804C129.919 37.8617 129.78 38.2533 129.978 38.6964C130.331 39.4874 133.765 42.275 134.628 43.3417C136.968 46.2298 136.447 49.4966 132.946 50.942C129.952 52.1761 126.126 52.7944 122.96 53.8404C122.659 53.9409 121.677 54.0775 121.873 54.5489L157.296 86.8852V86.8877ZM185.249 90.4947H156.523C155.881 90.4947 154.691 89.1446 154.072 88.8226L98.1649 37.5345C97.9716 37.3619 97.8531 37.4314 97.6547 37.5345C97.4023 37.6633 93.7824 41.2908 93.6613 41.5485C93.4604 41.9813 93.432 42.3987 93.6613 42.8289L152.4 96.6806H184.605C184.652 96.6806 185.249 96.0829 185.249 96.0365V90.4972V90.4947Z" fill="black"/>
<path d="M82.8894 96.7295L129.481 96.6625C132.33 97.6416 131.194 100.362 128.448 100.293C128.448 100.293 84.9582 100.293 84.3708 100.293C81.7815 100.293 80.4727 98.484 82.8868 96.7295H82.8894Z" fill="black"/>
<path d="M79.0354 83.0851L115.301 83.0233C117.903 83.0181 118.209 86.3313 115.563 86.6354H79.2235C76.8919 86.455 76.7579 83.505 79.0354 83.0851Z" fill="black"/>
<path d="M76.9613 69.6749L103.57 69.76C104.889 70.3396 104.601 72.9676 102.944 72.9882L76.6315 72.7357C75.7014 71.8004 75.789 70.3474 76.9587 69.6749H76.9613Z" fill="black"/>
<path d="M157.296 86.8878L121.873 54.5516C121.677 54.0775 122.659 53.9436 122.96 53.8431C126.124 52.7971 129.95 52.1813 132.946 50.9446C136.448 49.5019 136.968 46.2324 134.629 43.3443C133.766 42.2802 130.331 39.4926 129.978 38.6991C129.783 38.2559 129.922 37.8617 130.179 37.483L154.485 29.7023L155.054 30.1326L156.899 38.7017C156.608 39.0314 149.78 40.4665 148.477 41.2317C146.843 42.1875 147.614 44.5938 149.52 44.5552C150.708 44.532 157.623 41.7521 157.935 42.0613L159.372 49.5457C159.061 50.0017 153.019 51.2693 151.824 52.0525C150.144 53.1526 150.955 55.3503 153.163 55.2137C154.32 55.1416 160.055 52.761 160.503 53.15L162.078 60.4592C160.645 61.3146 154.83 62.1107 154.379 63.6308C154.15 64.4011 154.405 65.478 155.165 65.8336C156.67 66.5344 161.297 64.2311 163.087 63.9605C163.531 65.3698 164.005 69.76 165.167 70.5174C166.329 71.2749 169.753 70.7777 171.399 70.9838C179.468 71.9963 183.15 79.7847 184.477 86.8904H157.296V86.8878Z" fill="#ffffff" fill-opacity="0.28"/>
<path d="M149.435 27.3758L129.012 34.1285C125.92 35.8109 125.531 38.8381 127.665 41.5459C128.569 42.695 131.882 45.2791 132.307 46.186C132.575 46.7605 132.467 47.2732 131.905 47.585L118.655 51.3336L110.812 44.2125C118.428 35.95 120.219 23.3978 114.404 13.605C118.923 9.84863 123.875 6.64103 129.216 4.18573C129.934 15.4239 138.434 25.1137 149.438 27.3758H149.435Z" fill="#ffffff" fill-opacity="0.28"/>
<path d="M185.249 90.4947V96.0339C185.249 96.0803 184.652 96.678 184.605 96.678H152.4L93.6613 42.8264C93.432 42.3961 93.4603 41.9813 93.6613 41.5459C93.7798 41.2883 97.4022 37.6633 97.6547 37.5319C97.8531 37.4289 97.9716 37.3593 98.1648 37.5319L154.07 88.82C154.691 89.1421 155.878 90.4921 156.52 90.4921H185.247L185.249 90.4947Z" fill="white"/>
<path d="M111.817 16.0372C116.022 24.1812 115.033 35.3885 107.873 41.5048C106.827 40.7061 99.7726 34.5614 99.7675 33.9972C99.7598 33.1985 100.899 30.4779 101.293 29.5993C103.635 24.3718 107.69 19.8915 111.817 16.0372Z" fill="#ffffff" fill-opacity="0.28"/>
<path d="M153.557 24.279C153.186 24.6217 146.42 23.1737 145.941 22.4884C144.9 21.0018 148.595 17.5701 149.953 16.9389C150.277 16.7869 151.692 16.1917 151.89 16.5447L153.557 24.279Z" fill="#ffffff" fill-opacity="0.31"/>
</svg>
