<svg width="145" height="143" viewBox="0 0 145 143" fill="none" xmlns="http://www.w3.org/2000/svg">
<path d="M127.154 17.5017V1.56384C127.154 1.41285 126.146 0.274829 125.774 0.146208C125.017 -0.111035 124.174 -0.0411318 123.534 0.456576L107.756 16.5342C107.435 16.9005 107.373 17.3088 107.318 17.7729C106.686 23.1219 107.921 29.5138 107.178 34.969L83.298 59.175C81.4521 58.8059 79.9329 57.5225 78.0032 56.9213C73.116 55.3946 69.0472 56.404 64.9001 59.1861C64.1684 59.6783 62.719 61.3447 61.9622 61.2721C53.467 51.947 38.4398 55.9846 34.7088 67.8233C30.3467 81.6725 40.3165 91.8895 49.7891 100.267C51.5568 101.83 59.1724 108.364 60.8871 108.728C63.797 109.343 66.8158 106.415 69.0332 104.71C75.6657 99.6068 85.0322 91.2156 88.2913 83.448C91.2235 76.4605 91.1816 69.1571 86.4062 63.0196L86.638 62.2255L110.398 38.1957L128.195 37.8406L144.705 21.1003C145.633 19.6882 144.152 18.2287 142.868 17.7002C138.983 17.6918 135.068 17.5101 131.186 17.6303C130.41 17.6527 127.441 18.4524 127.148 17.5017H127.154ZM61.4679 17.443C0.912271 18.3936 -22.8168 96.0809 26.8112 130.272C76.6906 164.633 141.245 114.504 120.178 57.4805C119.114 54.6005 114.439 44.5569 111.948 43.3518C109.708 42.2669 108.052 42.9435 108.848 45.6138C109.177 46.7211 111.797 50.0037 112.576 51.3878C125.537 74.397 120.485 104.293 100.906 121.8C56.8852 161.16 -11.4089 117.398 7.62299 60.8359C19.7905 24.6765 63.6685 10.682 95.0131 32.3463C96.2196 33.1795 100.369 36.8508 101.177 37.1052C102.514 37.5219 104.234 35.38 103.916 34.0743C103.721 33.2774 100.61 30.772 99.7634 30.1066C90.6482 22.9541 79.271 18.9864 67.8072 17.6443L61.4707 17.443H61.4679ZM100.249 55.2045C97.937 52.3552 95.4767 55.3415 96.9401 58.9373C99.5121 65.2481 102.09 69.213 102.576 76.5025C105.502 120.519 46.9853 136.946 26.2918 99.1957C6.49197 63.0783 47.6779 23.6224 83.3958 45.0965C84.3927 45.6949 88.537 48.8685 89.0481 48.9608C90.4332 49.2068 92.1702 47.3838 91.9748 46.0388C91.824 44.9959 86.6687 41.6909 85.521 41.0142C60.8954 26.4325 28.6125 37.6645 19.3549 64.7532C6.79078 101.519 42.5729 135.461 78.6315 121.587C102.983 112.217 113.78 84.3987 103.098 60.6038C102.525 59.326 101.04 56.1803 100.249 55.2073V55.2045ZM126.316 141.23V137.175C126.316 137.128 125.939 136.734 125.757 136.756V141.23L123.526 139.552C123.16 139.957 125.604 141.926 125.897 142.343C126.196 141.92 128.628 139.963 128.268 139.552L126.316 141.23Z" fill="white"/>
<path d="M61.4683 17.4429L67.8048 17.6443C79.2686 18.9864 90.6458 22.9541 99.761 30.1065C100.607 30.7692 103.721 33.2773 103.914 34.0742C104.232 35.38 102.509 37.5218 101.174 37.1052C100.367 36.8536 96.2199 33.1823 95.0107 32.3462C63.6689 10.6819 19.7909 24.6765 7.62335 60.8358C-11.4085 117.398 56.8856 161.16 100.906 121.799C120.488 104.293 125.537 74.397 112.576 51.3878C111.797 50.0037 109.178 46.721 108.848 45.6138C108.052 42.9435 109.706 42.2668 111.948 43.3517C114.439 44.5568 119.114 54.6005 120.178 57.4805C141.246 114.504 76.6882 164.636 26.8116 130.272C-22.8165 96.0808 0.912637 18.3936 61.4683 17.4429Z" fill="black"/>
<path d="M127.154 17.5016C127.447 18.4522 130.416 17.6526 131.192 17.6302C135.074 17.5127 138.992 17.6917 142.874 17.7001C144.158 18.2286 145.636 19.6881 144.711 21.1002L128.201 37.8405L110.404 38.1956L86.6438 62.2254L86.412 63.0195C91.1874 69.157 91.2293 76.4604 88.297 83.4479C85.038 91.2155 75.6687 99.6066 69.0389 104.71C66.8216 106.415 63.8027 109.343 60.8928 108.728C59.1781 108.367 51.5626 101.83 49.7948 100.267C40.3222 91.8894 30.3525 81.6724 34.7146 67.8232C38.4427 55.9845 53.4727 51.9469 61.968 61.2719C62.722 61.3446 64.1714 59.6753 64.9058 59.186C69.0529 56.4039 73.1218 55.3945 78.0089 56.9212C79.9386 57.5251 81.4578 58.8058 83.3037 59.1748L107.184 34.9689C107.924 29.5109 106.692 23.119 107.323 17.7728C107.379 17.3058 107.441 16.9004 107.762 16.5341L123.535 0.456454C124.174 -0.0412539 125.017 -0.111157 125.774 0.146086C126.146 0.271911 127.154 1.41273 127.154 1.56372V17.5016ZM111.515 30.5035L122.7 19.4728L122.979 18.3572L122.546 8.13458L111.515 19.4588V30.5035ZM136.928 22.1151H126.456L115.428 33.4422L119.184 33.87L125.551 33.7833L126.498 33.2017C129.165 29.5109 133.823 26.4715 136.512 22.9568C136.727 22.6744 137.051 22.6045 136.928 22.1151ZM83.0245 66.0141L82.3263 66.2854L66.8467 82.1002C64.9896 83.5625 61.8507 81.6528 63.2386 79.3292C67.7822 74.7352 72.3426 70.1636 76.7327 65.4409C77.1376 65.0047 79.4862 63.4137 78.9919 62.6504C78.21 61.4509 73.4122 60.8497 72.0019 60.9839C66.5395 61.5124 65.6878 65.9135 61.9428 68.7403C59.4071 66.4335 58.8933 63.685 55.5728 62.0492C49.0743 58.8505 41.8414 61.8675 39.3308 68.5334C34.7872 80.6015 46.1281 91.1764 54.4139 98.161C55.4136 99.0055 61.5323 104.05 62.183 103.983C62.8337 103.915 69.0334 98.7426 70.0387 97.8814C77.4615 91.5175 88.7857 80.8643 85.119 69.9343C84.6442 68.5167 83.5635 67.3926 83.0273 66.0141H83.0245Z" fill="black"/>
<path d="M100.25 55.2045C101.04 56.1775 102.526 59.3231 103.098 60.601C113.78 84.3987 102.984 112.217 78.6318 121.584C42.5732 135.459 6.78827 101.516 19.3552 64.7504C28.6128 37.6616 60.8957 26.4296 85.5212 41.0114C86.6662 41.6908 91.8242 44.993 91.975 46.036C92.1705 47.3837 90.4335 49.204 89.0483 48.9579C88.5373 48.8685 84.393 45.6949 83.396 45.0937C47.6781 23.6223 6.49225 63.0783 26.2921 99.1957C46.9856 136.946 105.503 120.519 102.576 76.5025C102.09 69.213 99.5124 65.2453 96.9403 58.9373C95.4742 55.3415 97.9373 52.3552 100.25 55.2045Z" fill="black"/>
<path d="M83.0244 66.0142C83.5606 67.3927 84.6414 68.5196 85.1161 69.9344C88.7829 80.8616 77.4587 91.5148 70.0359 97.8815C69.0305 98.7427 62.8141 103.921 62.1802 103.983C61.5462 104.044 55.4108 99.0056 54.411 98.1612C46.1253 91.1765 34.7871 80.6016 39.328 68.5335C41.8386 61.8648 49.0715 58.8478 55.57 62.0493C58.8904 63.6851 59.4043 66.4337 61.94 68.7404C65.6849 65.9108 66.5367 61.5097 71.9991 60.984C73.4094 60.847 78.2071 61.4482 78.9891 62.6505C79.4862 63.4139 77.1348 65.0076 76.7298 65.441C72.3398 70.1637 67.7794 74.7353 63.2358 79.3293C61.8451 81.6529 64.9868 83.5654 66.8439 82.1003L82.3235 66.2855L83.0217 66.0142H83.0244Z" fill="#4E8CFF"/>
<path d="M111.515 30.5035V19.4588L122.549 8.13458L122.982 18.3572L122.702 19.4728L111.515 30.5035Z" fill="white"/>
<path d="M136.928 22.1152C137.051 22.6045 136.727 22.6744 136.512 22.9568C133.823 26.4715 129.165 29.5109 126.498 33.2018L125.551 33.7834L119.184 33.87L115.428 33.4422L126.456 22.1152H136.928Z" fill="white"/>
</svg>
