<svg width="132" height="157" viewBox="0 0 132 157" fill="none" xmlns="http://www.w3.org/2000/svg">
<path d="M131.856 156.365V60.0548L131.413 59.6123H124.924C117.49 59.6123 107.865 50.6154 107.656 42.9578L107.535 5.32142L82.7357 0C81.898 0.0501464 80.0898 1.97341 79.1458 2.62531C71.1784 8.13257 62.9721 8.74318 54.4797 3.80228C52.639 2.73151 51.1022 1.33331 49.4296 0.0501464L24.4744 5.18278L24.1706 6.05887L24.1971 42.9578C24.0349 50.5181 14.2445 59.6123 6.92906 59.6123H0V156.365H131.856Z" fill="white"/>
<path d="M131.856 156.365H0V59.6123H6.93201C14.2475 59.6123 24.0349 50.5181 24.2001 42.9578L24.1735 6.05887L24.4774 5.18278L49.4326 0.0501464C51.1051 1.33331 52.642 2.73151 54.4826 3.80228C62.9751 8.74318 71.1814 8.13257 79.1488 2.62531C80.0927 1.97341 81.9009 0.0501464 82.7387 0L107.538 5.31847L107.658 42.9548C107.865 50.6125 117.493 59.6094 124.927 59.6094H131.416L131.859 60.0518V156.362L131.856 156.365ZM89.3786 9.1709V29.377C89.3786 30.3592 88.5999 33.0819 88.2754 34.1733C81.6974 56.5091 49.822 56.2908 43.5094 33.6512C43.2144 32.5922 42.477 30.0171 42.477 29.079V9.46588L32.1557 11.2387C31.7397 20.8875 32.7043 30.9846 32.1498 40.5832C31.8695 45.415 30.7162 49.9163 28.2619 54.0991C24.1765 61.0577 16.0056 66.149 7.96443 66.9868V148.696H124.186V67.4293C123.201 66.7272 121.694 66.7744 120.461 66.4352C108.479 63.1196 100.511 53.695 99.7059 41.1732L99.6882 11.2505L89.3786 9.1709ZM50.1464 9.76086V28.197C50.1464 37.07 59.1669 43.8634 67.6918 43.0876C74.5648 42.4622 81.7092 35.5302 81.7092 28.492V9.46588C74.4321 14.4215 66.4116 16.1855 57.8778 13.3861C55.1375 12.4865 52.7776 10.8641 50.1464 9.76086Z" fill="black"/>
<path d="M89.3786 9.17084L99.6881 11.2504L99.7058 41.1731C100.511 53.695 108.478 63.1195 120.461 66.4351C121.691 66.7743 123.201 66.7271 124.186 67.4292V148.696H7.96436V66.9867C16.0055 66.146 24.1735 61.0576 28.2619 54.0991C30.7161 49.9192 31.8724 45.4179 32.1497 40.5832C32.7042 30.9845 31.7397 20.8874 32.1556 11.2386L42.4769 9.46582V29.0819C42.4769 30.02 43.2144 32.5951 43.5093 33.6541C49.8219 56.2908 81.6973 56.5091 88.2754 34.1762C88.5969 33.0818 89.3786 30.3592 89.3786 29.3798V9.17084ZM50.9664 60.8748C44.1966 61.6388 38.1024 67.2345 35.9077 73.5441C30.0789 90.3137 48.9664 105.243 60.9662 113.54C61.7626 114.092 65.6062 116.874 66.1696 116.776C77.0602 109.222 93.0717 98.753 96.3696 85.0394C100.78 66.6976 80.9245 53.3882 65.9779 65.1756C61.5237 61.7803 56.6005 60.2376 50.9635 60.8748H50.9664Z" fill="white"/>
<path d="M50.1465 9.76086C52.7777 10.8641 55.1405 12.4865 57.8779 13.3862C66.4116 16.1855 74.4321 14.4215 81.7092 9.46588V28.492C81.7092 35.5332 74.5648 42.4622 67.6918 43.0876C59.164 43.8634 50.1465 37.07 50.1465 28.197V9.76086Z" fill="white"/>
<path d="M50.9665 60.8748C56.6035 60.2376 61.5238 61.7833 65.9809 65.1756C80.9275 53.3882 100.783 66.6977 96.3726 85.0395C93.0747 98.7501 77.0662 109.219 66.1726 116.776C65.6092 116.874 61.7657 114.092 60.9692 113.54C48.9665 105.243 30.079 90.3137 35.9107 73.5441C38.1054 67.2345 44.1997 61.6388 50.9694 60.8748H50.9665ZM51.5446 68.5324C49.3293 68.8776 46.5005 70.9955 45.1377 72.7447C36.3031 84.1044 53.4767 98.4551 61.8512 104.393C62.7833 105.054 65.4588 107.275 66.3732 106.986C67.2877 106.697 71.1519 103.623 72.2374 102.794C78.2491 98.2014 88.3551 89.5143 89.0778 81.5823C90.0188 71.2492 79.6384 64.2434 71.084 71.258C70.1814 71.9984 66.0783 76.8272 65.6387 76.7181C61.9426 72.0486 58.1935 67.4941 51.5417 68.5295L51.5446 68.5324Z" fill="black"/>
<path d="M51.5446 68.5324C58.1964 67.497 61.9456 72.0515 65.6417 76.721C66.0812 76.8302 70.1814 72.0014 71.087 71.261C79.6414 64.2464 90.0187 71.2521 89.0807 81.5852C88.358 89.5202 78.252 98.2073 72.2403 102.797C71.1548 103.626 67.326 106.688 66.3762 106.989C65.4263 107.29 62.7892 105.06 61.8541 104.396C53.4797 98.458 36.306 84.1044 45.1406 72.7477C46.5005 70.9984 49.3293 68.8775 51.5476 68.5354L51.5446 68.5324Z" fill="#4E8CFF"/>
<path d="M6.5 136H126.5" stroke="black" stroke-width="8" stroke-linecap="round"/>
</svg>
