<svg width="163" height="135" viewBox="0 0 163 135" fill="none" xmlns="http://www.w3.org/2000/svg">
<path d="M61.2039 12.2014C67.1007 13.2844 72.4093 16.5099 76.3479 20.8238C78.3638 20.3036 80.2251 19.2778 82.265 18.8037C109.11 12.5658 126.728 46.158 102.069 63.7581C93.4825 69.8875 80.7186 78.3382 71.4953 83.3341C66.7703 85.8939 62.4355 86.3738 58.4812 82.0217C51.5358 70.4401 41.103 59.1945 34.4988 47.6137C24.2695 29.6749 40.6569 8.4323 61.2039 12.2014Z" fill="#4E8CFF" stroke="black" stroke-width="5"/>
<path d="M121.498 24.6056C126.998 18.009 140.643 9.78882 155.573 10.8089M126.998 30.509C132.136 25.4851 143.998 22.009 155.573 24.6057" stroke="black" stroke-width="5" stroke-linecap="round"/>
<path d="M93.3352 110.578C93.4508 114.098 93.1888 117.661 93.3198 121.186C93.4507 124.71 94.4484 129.186 93.7512 132.753C92.3761 134.166 90.5811 133.488 90.2807 131.547C89.8185 128.593 89.6028 124.244 89.4718 121.186C89.3177 117.665 89.6182 114.098 89.4872 110.578H70.9984V131.955C70.9984 133.901 67.1466 133.716 67.1466 132.341V110.578H50.9689C50.8341 114.225 51.1461 117.923 50.9843 121.571C50.8533 124.506 50.6453 128.716 50.1754 131.547C49.8596 133.458 47.8797 134.401 46.7049 132.753C45.8806 131.601 47.0631 123.959 47.1363 121.956C47.2711 118.174 47.0054 114.356 47.1209 110.578H29.2099C28.817 110.867 28.7901 110.913 28.7901 111.364C28.7901 113.224 29.3601 115.508 29.4179 117.303C29.572 122.172 29.2792 127.075 29.3948 131.948C28.7592 133.916 26.5598 134.209 25.7201 132.171C26.3095 109.488 22.6926 86.9814 13.4212 66.2778C12.5546 65.5152 9.91223 66.0429 8.50246 65.8041C-1.5046 64.1324 -2.20563 48.024 10.7019 47.011H127.058C136.06 46.672 140.613 58.2968 133.521 63.9051C130.925 65.962 128.838 65.6962 125.879 66.2778C120.71 78.7924 116.7 91.9349 114.952 105.424C114.424 109.488 113.912 114.387 113.731 118.455C113.619 121.016 114.239 131.116 113.557 132.529C112.983 133.72 111.015 133.843 110.341 132.656C109.293 125.731 110.098 118.513 110.676 111.529C110.719 111.206 110.279 110.57 110.087 110.57H93.3313L93.3352 110.578ZM109.821 50.6047C80.1927 50.8127 50.4373 51.6601 20.7128 51.2788C16.2177 51.221 6.73447 48.8868 5.005 54.7917C3.96885 58.3354 6.04114 61.3822 9.55016 62.0524H128.591C133.159 61.7019 135.147 54.4335 131.222 52.0877C129.431 51.0169 124.616 50.6201 122.417 50.493C118.253 50.2542 113.989 50.5739 109.821 50.6009V50.6047ZM44.8021 84.3853L39.9873 65.8965H17.8393L23.617 84.3853H44.8021ZM67.1427 65.8965H44.4169L48.6539 84.3853H67.1427V65.8965ZM96.0315 65.8965H70.9946V84.3853H91.6019L96.0315 65.8965ZM121.839 65.8965H100.461C98.1769 71.682 96.7132 78.1261 96.0315 84.3853H115.676L121.839 65.8965ZM47.1132 106.726L45.5109 88.8765L44.9947 88.2371H25.1578L28.2392 106.726H47.1132ZM67.1427 88.2371H49.0391L50.965 106.726H67.1427V88.2371ZM91.4093 88.2371H70.9946V106.726H89.4834L91.4093 88.2371ZM114.52 88.2371H95.4537C94.745 89.0306 94.6987 90.7485 94.537 91.9426C93.8821 96.8421 93.8822 101.823 93.3352 106.726H111.054L114.52 88.2371Z" fill="black" stroke="black"/>
<path d="M109.821 50.6046C113.989 50.5737 118.253 50.254 122.416 50.4967C124.616 50.6238 129.431 51.0205 131.222 52.0914C135.147 54.4371 133.159 61.7055 128.591 62.056H9.55015C6.04113 61.3858 3.965 58.339 5.00499 54.7953C6.73446 48.8905 16.2177 51.2247 20.7128 51.2825C50.4373 51.66 80.1927 50.8164 109.821 50.6084V50.6046Z" fill="white"/>
</svg>
