<svg width="136" height="131" viewBox="0 0 136 131" fill="none" xmlns="http://www.w3.org/2000/svg">
<path d="M66.9199 7.11869C67.9302 8.2384 68.4278 9.89865 69.2801 11.1157C74.911 1.88659 89.3162 2.77979 92.9524 13.0466C98.0763 27.5123 77.2387 40.6628 66.709 46.7306C56.9129 38.5867 37.388 22.6029 46.4587 8.43075C50.8701 1.53958 61.4877 1.08485 66.9199 7.11869Z" fill="#4E8CFF" stroke="black" stroke-width="5"/>
<path d="M131.931 70.0904H92.5598L92.0836 69.6141V48.3411C92.0836 48.249 91.6137 46.9345 91.5057 46.6964C90.5881 44.658 88.6577 43.9119 86.5367 43.7277L48.4231 43.7372C46.6959 43.6134 43.5017 46.0678 43.5017 47.7061V64.6928H3.9752C2.53371 64.6928 0.447686 67.1185 0.22543 68.5632L0 127.728C0.190505 129.442 0.984274 130.236 2.69882 130.426L133.912 130.176C135.096 129.56 135.582 128.404 135.595 127.096C134.595 110.484 136.884 92.389 135.595 75.9548C135.423 73.7798 134.388 70.5857 131.931 70.0936V70.0904Z" fill="white"/>
<path d="M131.931 70.0904C134.385 70.5857 135.423 73.7798 135.595 75.9516C136.884 92.3889 134.595 110.484 135.595 127.093C135.585 128.401 135.1 129.556 133.912 130.172L2.69882 130.423C0.984274 130.233 0.190505 129.439 0 127.724L0.222255 68.5632C0.444511 67.1217 2.53371 64.6928 3.97202 64.6928H43.5017V47.7061C43.5017 46.0678 46.6959 43.6134 48.4231 43.7372L86.5367 43.7277C88.6545 43.9119 90.5881 44.658 91.5057 46.6964C91.6137 46.9377 92.0836 48.249 92.0836 48.3411V69.6141L92.5598 70.0904H131.931ZM87.0035 48.8174H48.585V110.096H87.0035V48.8174ZM43.5049 69.7729H5.08647V110.096H43.5049V69.7729ZM130.502 75.1705H92.0836V110.096H130.502V75.1705ZM130.502 115.176H5.08647V125.337H130.502V115.176Z" fill="black"/>
<path d="M87.0034 48.8175V110.096H48.585V48.8175H87.0034ZM65.0922 71.9956L65.1144 87.0581C65.5557 89.8712 69.8104 89.9887 70.1818 86.766C70.9407 80.2127 69.6167 72.2146 70.1564 65.5057C69.9056 63.9086 68.4482 63.1466 66.9115 63.4864C66.1876 63.6451 62.2505 67.4489 61.7742 68.2013C60.1962 70.697 62.4632 73.1703 65.0922 71.9987V71.9956Z" fill="white"/>
<path d="M65.0922 71.9953C62.4632 73.1669 60.1994 70.6967 61.7742 68.1979C62.2473 67.4455 66.1844 63.6417 66.9115 63.483C68.4482 63.1432 69.9056 63.9052 70.1564 65.5023L70.1818 86.7626C69.8072 89.9853 65.5557 89.8678 65.1144 87.0547L65.0922 71.9922V71.9953Z" fill="black"/>
<path d="M26.6769 98.0312C28.2359 98.1169 30.4648 97.5391 31.4014 99.1806C32.2682 100.705 31.4078 102.406 29.8012 102.902C28.3502 103.349 20.6506 103.318 18.9265 103.086C17.0342 102.832 15.8118 101.851 16.2023 99.7902C16.5675 97.8534 26.2451 92.7987 26.9341 89.2204C27.4294 86.6549 24.7338 85.5309 22.5398 86.1183C20.9141 86.5533 20.1553 88.652 17.9867 87.5122C14.9767 85.931 17.193 83.1147 19.3552 81.978C27.0833 77.9203 35.4782 85.3912 30.6172 93.24C29.6488 94.8022 28.1628 95.7579 27.15 97.0755C26.9055 97.393 26.534 97.4787 26.6769 98.028V98.0312Z" fill="black"/>
<path d="M109.788 80.6475C114.674 80.0633 118.919 84.2798 118.04 89.2266C117.897 90.0362 117.214 90.8745 117.173 91.5444C117.11 92.5318 118.056 93.9892 118.132 95.3227C118.51 101.794 111.023 105.077 105.946 101.47C102.828 99.2535 104.384 95.6149 107.721 96.5197C109.019 96.8722 109.95 98.7137 112.058 97.5326C114.992 95.8879 111.115 93.4463 111.115 91.8397C111.115 90.2331 115.227 87.4041 111.683 85.8896C109.14 84.8037 107.219 88.998 104.955 86.5849C102.209 83.6543 107.184 80.9587 109.785 80.6475H109.788Z" fill="black"/>
</svg>
