<svg width="146" height="136" viewBox="0 0 146 136" fill="none" xmlns="http://www.w3.org/2000/svg">
<path d="M110.829 42.6207H131.458C137.78 42.6207 145.291 51.1825 145.261 57.4598V119.847C144.511 127.72 138.414 134.281 130.446 135.038H15.1698C7.1229 134.475 1.01951 128.464 0 120.546L0.047736 55.7856C0.548964 50.1118 7.74687 42.6207 13.4786 42.6207H34.4484V33.244C34.4484 29.9672 37.1966 22.8818 38.823 19.8881C49.9796 -0.645206 77.3528 -6.3633 95.9801 7.85522C106.895 16.1886 111.77 29.0125 110.826 42.6207H110.829ZM104.692 42.6207V34.9488C104.692 29.9536 100.72 21.7396 97.5213 17.9105C81.823 -0.883887 50.4433 4.03974 42.2873 27.4406C41.7793 28.9 40.5893 32.5654 40.5893 33.9259V42.6207H104.692ZM34.4518 48.7582H14.164C10.0621 48.7582 5.81016 54.5717 5.81016 58.4759V109.792H34.4518V48.7582ZM104.692 48.7582H40.5893V109.792H104.692V48.7582ZM139.13 109.792V57.112C139.13 53.7364 134.166 48.7582 130.776 48.7582H110.829V109.792H139.13ZM139.13 115.93H6.32161C5.47259 116.833 5.9295 119.629 6.18523 120.84C7.10585 125.207 10.7304 128.44 15.1903 128.883L129.088 128.904C136.351 128.402 139.89 122.933 139.13 115.93Z" fill="black"/>
<path d="M104.692 48.7581V109.792H40.5892V48.7581H104.692ZM72.9747 67.1706C62.2205 54.4455 45.5606 66.4648 52.9256 81.2595C55.2169 85.8661 60.4508 90.4283 64.4913 93.5618C65.9848 94.7177 70.8846 98.4991 72.4769 98.5672C74.2534 98.6423 79.194 94.8097 80.7932 93.5686C88.2639 87.7789 98.3839 77.8805 92.4817 67.6173C88.2366 60.2386 77.3289 59.7306 72.9747 67.1706Z" fill="white"/>
<path d="M34.4518 48.7581V109.792H5.81018V58.4758C5.81018 54.5717 10.0621 48.7581 14.164 48.7581H34.4518Z" fill="white"/>
<path d="M139.13 109.792H110.829V48.7581H130.776C134.166 48.7581 139.13 53.7363 139.13 57.1119V109.792Z" fill="white"/>
<path d="M139.13 115.93C139.887 122.93 136.348 128.399 129.088 128.903L15.1903 128.883C10.7304 128.44 7.10586 125.207 6.18523 120.839C5.9295 119.629 5.4726 116.833 6.32162 115.93H139.13Z" fill="white"/>
<path d="M72.9747 67.1706C77.3289 59.7272 88.2366 60.2386 92.4817 67.6173C98.3874 77.8771 88.2673 87.7755 80.7932 93.5686C79.1907 94.8098 74.2534 98.6423 72.4769 98.5673C70.888 98.4991 65.9848 94.7211 64.4914 93.5618C60.4509 90.4283 55.2169 85.8661 52.9256 81.2596C45.5606 66.4648 62.2205 54.4455 72.9747 67.1706ZM61.9886 67.5764C57.9208 68.1356 56.4751 72.2033 56.9832 75.8347C57.6447 80.5742 65.1188 87.0697 68.9172 89.8145C71.9859 92.0343 71.8359 92.8389 75.1331 90.6329C79.0747 87.9937 86.2795 81.8733 87.8036 77.3895C90.4666 69.5472 82.8936 63.7472 77.08 70.7576C75.4331 72.7421 74.7342 76.4791 71.3619 75.0948C69.9981 74.5356 69.2854 72.1658 68.3478 70.952C66.943 69.1346 64.43 67.2422 61.9886 67.5798V67.5764Z" fill="black"/>
<path d="M61.9886 67.5763C64.4266 67.2388 66.9395 69.1346 68.3477 70.9485C69.2854 72.1624 70.0015 74.5321 71.3619 75.0913C74.7341 76.4757 75.4331 72.742 77.08 70.7542C82.8936 63.7438 90.4666 69.5403 87.8036 77.3861C86.2794 81.8698 79.0781 87.9937 75.1331 90.6294C71.8359 92.8355 71.9859 92.0308 68.9172 89.8111C65.1222 87.0628 57.6446 80.5707 56.9832 75.8312C56.4751 72.1999 57.9208 68.1321 61.9886 67.5729V67.5763Z" fill="#4E8CFF" stroke="#4E8CFF" stroke-width="3"/>
</svg>
