<svg width="150" height="168" viewBox="0 0 150 168" fill="none" xmlns="http://www.w3.org/2000/svg">
<path d="M49.8938 7.01546C50.8321 7.71514 51.4663 8.9074 52.3001 9.70592C55.1292 1.77912 66.1688 0.23312 70.5135 7.51944C76.6355 17.7856 62.9073 31.0632 55.8805 37.3311C47.2038 32.6209 29.9483 23.4224 34.6135 11.1844C36.8826 5.23356 44.8468 3.24312 49.8938 7.01546Z" fill="#4E8CFF"/>
<path d="M49.8938 7.01546L48.397 9.01791L48.3993 9.01961L49.8938 7.01546ZM52.3001 9.70592L50.5709 11.5115C51.183 12.0977 52.0504 12.3338 52.8751 12.1389C53.6999 11.9439 54.3697 11.3444 54.6546 10.5463L52.3001 9.70592ZM70.5135 7.51944L68.3663 8.79981L68.3663 8.79987L70.5135 7.51944ZM55.8805 37.3311L54.6878 39.5283L56.2328 40.367L57.5447 39.1967L55.8805 37.3311ZM34.6135 11.1844L32.2775 10.2937L32.2775 10.2939L34.6135 11.1844ZM49.8938 7.01546L48.3993 9.01961C48.5739 9.14981 48.7887 9.38089 49.1678 9.86497C49.4742 10.2563 49.9882 10.9534 50.5709 11.5115L52.3001 9.70592L54.0292 7.90035C53.7782 7.65993 53.5581 7.36163 53.1044 6.78228C52.7234 6.29568 52.1519 5.58079 51.3882 5.0113L49.8938 7.01546ZM52.3001 9.70592L54.6546 10.5463C56.851 4.39225 65.2217 3.52614 68.3663 8.79981L70.5135 7.51944L72.6608 6.23907C67.116 -3.0599 53.4074 -0.834014 49.9455 8.86557L52.3001 9.70592ZM70.5135 7.51944L68.3663 8.79987C70.6451 12.6212 69.4676 17.342 66.0396 22.5501C62.6876 27.6428 57.7141 32.3455 54.2164 35.4655L55.8805 37.3311L57.5447 39.1967C61.0737 36.0488 66.4777 30.9787 70.2161 25.2991C73.8784 19.7349 76.504 12.6838 72.6608 6.239L70.5135 7.51944ZM55.8805 37.3311L57.0733 35.134C52.6747 32.7462 46.4809 29.4105 41.9339 25.2386C37.3463 21.0293 35.1829 16.7091 36.9495 12.0749L34.6135 11.1844L32.2775 10.2939C29.3788 17.8976 33.5106 24.2957 38.5536 28.9228C43.6372 33.5871 50.4095 37.2058 54.6878 39.5283L55.8805 37.3311ZM34.6135 11.1844L36.9494 12.0751C38.5815 7.79487 44.5757 6.16168 48.397 9.01791L49.8938 7.01546L51.3905 5.013C45.1178 0.32456 35.1836 2.67224 32.2775 10.2937L34.6135 11.1844Z" fill="black"/>
<path d="M142.245 20.9258C143.946 21.0171 145.806 22.3031 146.62 23.7726C149.41 28.8106 143.463 33.2274 139.798 35.6255C139.017 36.1361 135.883 38.1232 135.266 37.8677C132.754 35.1558 127.524 30.3087 127.262 26.4949C126.775 19.5022 134.079 17.3079 137.532 23.0898C138.974 21.9193 140.244 20.8158 142.245 20.9258Z" fill="#4E8CFF"/>
<path d="M142.245 20.9258L142.135 22.9227L142.138 22.9229L142.245 20.9258ZM146.62 23.7726L148.37 22.8037L148.37 22.8033L146.62 23.7726ZM139.798 35.6255L140.893 37.2995L140.893 37.2991L139.798 35.6255ZM135.266 37.8677L133.798 39.2267L134.096 39.548L134.5 39.7156L135.266 37.8677ZM127.262 26.4949L129.257 26.3577L129.257 26.3559L127.262 26.4949ZM137.532 23.0898L135.815 24.1152C136.112 24.6135 136.612 24.958 137.183 25.0592C137.755 25.1603 138.342 25.0083 138.793 24.6425L137.532 23.0898ZM142.245 20.9258L142.138 22.9229C142.549 22.945 143.1 23.128 143.66 23.4995C144.218 23.869 144.644 24.3326 144.871 24.7418L146.62 23.7726L148.37 22.8033C147.782 21.7431 146.871 20.8289 145.87 20.1652C144.871 19.5036 143.642 18.9979 142.352 18.9286L142.245 20.9258ZM146.62 23.7726L144.871 24.7414C145.342 25.5927 145.417 26.3373 145.283 27.036C145.139 27.7822 144.733 28.5926 144.057 29.4542C142.68 31.2074 140.525 32.7595 138.703 33.952L139.798 35.6255L140.893 37.2991C142.736 36.0933 145.387 34.238 147.203 31.9238C148.123 30.7517 148.909 29.3634 149.211 27.7895C149.522 26.1681 149.294 24.4714 148.37 22.8037L146.62 23.7726ZM139.798 35.6255L138.704 33.9515C138.331 34.1954 137.399 34.789 136.504 35.2827C136.05 35.5332 135.658 35.7285 135.377 35.842C135.231 35.9005 135.177 35.9121 135.192 35.9088C135.202 35.9068 135.273 35.8917 135.387 35.8904C135.489 35.8892 135.734 35.8972 136.031 36.0198L135.266 37.8677L134.5 39.7156C135.172 39.9938 135.807 39.8672 136.018 39.8226C136.327 39.7575 136.624 39.6518 136.872 39.552C137.376 39.3488 137.932 39.0632 138.436 38.7852C139.458 38.2215 140.485 37.5663 140.893 37.2995L139.798 35.6255ZM135.266 37.8677L136.733 36.5088C135.377 35.0449 133.574 33.2968 131.97 31.3301C131.184 30.3676 130.509 29.4243 130.023 28.5379C129.529 27.6364 129.295 26.9093 129.257 26.3577L127.262 26.4949L125.266 26.6321C125.36 27.9874 125.877 29.2963 126.516 30.461C127.163 31.6409 128.002 32.7939 128.87 33.8588C130.574 35.9472 132.642 37.9786 133.798 39.2267L135.266 37.8677ZM127.262 26.4949L129.257 26.3559C129.066 23.61 130.361 22.2789 131.526 21.9075C132.703 21.5325 134.488 21.8937 135.815 24.1152L137.532 23.0898L139.249 22.0643C137.123 18.504 133.529 17.0714 130.312 18.0963C127.084 19.1247 124.971 22.3871 125.267 26.6339L127.262 26.4949ZM137.532 23.0898L138.793 24.6425C140.359 23.3707 141.031 22.8621 142.135 22.9227L142.245 20.9258L142.355 18.9288C139.457 18.7695 137.588 20.4679 136.271 21.5371L137.532 23.0898Z" fill="black"/>
<path d="M103.923 51.7834H145.736C147.008 51.7834 148.915 53.2979 149 54.7045L132.433 129.043C131.855 130.507 130.402 131.659 128.799 131.575L27.419 131.548C22.1625 132.184 21.8966 140.149 27.0259 141.209L135.288 141.236C137.882 141.274 139.874 143.652 138.791 146.196C138.63 146.581 136.788 148.13 136.491 148.13H124.352C128.849 156.666 123.068 167.341 113.388 167.8C102.717 168.304 96.416 157.564 100.844 148.13H58.0676C66.2683 163.653 43.173 176.208 34.8798 161.106C32.4211 156.624 32.8181 152.778 34.5599 148.13H27.0452C21.5421 148.13 16.2124 141.309 16.4321 136.01C16.6787 130.099 22.2627 124.623 28.2013 124.623H38.799L22.1818 42.1915L3.17141 42.126C-1.46076 40.9044 -0.855729 35.8444 3.96142 35.2587C8.57047 34.6999 18.8522 34.8001 23.5846 35.2009C25.8197 35.3897 27.0298 35.6248 27.9046 37.8176C29.4538 41.7098 29.631 47.6176 30.7024 51.7834H64.2297C61.1622 48.2419 57.8826 44.654 56.5107 40.0411C51.2735 22.4489 69.2318 8.08225 84.1457 19.7436C96.2772 9.80872 112.632 18.5913 112.644 33.9291C112.648 41.1317 108.686 46.8121 103.927 51.7834H103.923ZM71.0624 22.2023C66.5805 22.9692 63.0081 27.2237 62.3992 31.6516C61.1506 40.7579 67.9486 46.0414 73.8679 51.583L94.0151 51.7025C100.512 46.0953 108.031 39.6828 105.441 30.0292C103.642 23.3237 95.9381 19.8823 89.9186 23.7091C87.4985 25.2467 85.7335 29.8211 82.3576 27.6746C78.3998 25.1581 77.8064 21.0462 71.0624 22.1984V22.2023ZM50.3563 58.7201H32.2439L35.7122 75.2911H53.0539L50.3563 58.7201ZM82.7276 58.7201H56.9077L59.9906 75.2911H82.7276V58.7201ZM115.099 58.7201H89.2789V74.7131L89.8569 75.2911H111.823L115.099 58.7201ZM141.689 58.7201H122.036L119.111 74.5011L119.531 75.2911H137.836L141.689 58.7201ZM54.5954 81.8424H36.8683L41.1074 101.496H58.0638L54.5954 81.8424ZM82.7276 81.8424H61.1467L64.6151 101.496H82.7276V81.8424ZM110.86 81.8424H89.2789V101.496H107.199L110.86 81.8424ZM136.294 81.8424H117.796L114.328 101.496H131.477L136.294 81.8424ZM62.3029 124.619L59.0272 108.433H42.6489L45.7319 124.619H62.3029ZM82.7276 108.433H66.1566L68.8542 124.619H82.7276V108.433ZM106.235 108.433H89.2789V124.619H102.96L106.235 108.433ZM130.128 108.433H112.787L110.089 124.619H126.66L130.128 108.433ZM44.8571 148.223C39.3308 149.167 37.8818 157.156 42.7607 160.154C48.7455 163.83 55.5781 157.491 52.0635 151.236C50.5105 148.477 47.8938 147.702 44.8609 148.223H44.8571ZM110.756 148.215C109.511 148.473 107.734 149.999 107.068 151.078C103.118 157.468 110.76 164.181 116.613 159.853C122.425 155.56 118.112 146.697 110.752 148.215H110.756Z" fill="black"/>
<path d="M71.0624 22.2021C77.8065 21.0498 78.3999 25.1579 82.3577 27.6782C85.7335 29.8248 87.4986 25.2543 89.9187 23.7128C95.9382 19.886 103.642 23.3235 105.441 30.0329C108.035 39.6864 100.513 46.099 94.0152 51.7062L73.868 51.5867C67.9486 46.0451 61.1507 40.7616 62.3993 31.6553C63.0043 27.2312 66.5806 22.9729 71.0624 22.206V22.2021Z" fill="#4E8CFF"/>
</svg>
