<svg width="150" height="183" viewBox="0 0 150 183" fill="none" xmlns="http://www.w3.org/2000/svg">
<path d="M47.6623 6.06346C48.4575 6.65646 48.995 7.66694 49.7017 8.34371C52.0995 1.62551 61.4559 0.31523 65.1382 6.4906C70.3267 15.1914 58.6916 26.4446 52.7362 31.7569C45.3824 27.7648 30.7579 19.9688 34.7118 9.59675C36.6349 4.55325 43.3848 2.86629 47.6623 6.06346Z" fill="white"/>
<path d="M47.6623 6.06346L46.1656 8.06592L46.1678 8.06762L47.6623 6.06346ZM49.7017 8.34371L47.9726 10.1493C48.5846 10.7354 49.452 10.9716 50.2768 10.7767C51.1015 10.5817 51.7714 9.98223 52.0562 9.18406L49.7017 8.34371ZM65.1382 6.4906L62.9909 7.77097L62.991 7.77104L65.1382 6.4906ZM52.7362 31.7569L51.5435 33.954L53.0885 34.7927L54.4004 33.6225L52.7362 31.7569ZM34.7118 9.59675L32.3758 8.70604L32.3758 8.70624L34.7118 9.59675ZM47.6623 6.06346L46.1678 8.06762C46.2709 8.14447 46.4258 8.30344 46.7469 8.71352C46.9954 9.03085 47.4534 9.65204 47.9726 10.1493L49.7017 8.34371L51.4308 6.53814C51.2434 6.3586 51.0793 6.13618 50.6835 5.63083C50.3604 5.21823 49.8489 4.57546 49.1567 4.05931L47.6623 6.06346ZM49.7017 8.34371L52.0562 9.18406C53.8213 4.23864 60.5087 3.60825 62.9909 7.77097L65.1382 6.4906L67.2854 5.21023C62.403 -2.97779 50.3777 -0.987623 47.3472 7.50336L49.7017 8.34371ZM65.1382 6.4906L62.991 7.77104C64.803 10.8097 63.9154 14.6331 61.0279 19.02C58.2165 23.2914 54.0341 27.2491 51.0721 29.8913L52.7362 31.7569L54.4004 33.6225C57.3938 30.9524 62.0066 26.6274 65.2044 21.7689C68.3262 17.026 70.6619 10.8723 67.2854 5.21016L65.1382 6.4906ZM52.7362 31.7569L53.929 29.5598C50.1919 27.5311 44.9866 24.7255 41.1738 21.2272C37.3203 17.6916 35.6368 14.1885 37.0478 10.4873L34.7118 9.59675L32.3758 8.70624C29.8328 15.377 33.4847 20.958 37.7934 24.9114C42.1429 28.9021 47.9267 31.9906 51.5435 33.954L52.7362 31.7569ZM34.7118 9.59675L37.0477 10.4875C38.3338 7.11457 43.1137 5.78485 46.1656 8.06592L47.6623 6.06346L49.159 4.06101C43.6559 -0.052266 34.936 1.99193 32.3758 8.70604L34.7118 9.59675Z" fill="black"/>
<path d="M142.245 35.3593C143.945 35.4506 145.806 36.7366 146.62 38.2061C149.41 43.2441 143.463 47.6609 139.798 50.0591C139.017 50.5697 135.883 52.5567 135.265 52.3012C132.754 49.5893 127.524 44.7422 127.262 40.9284C126.774 33.9357 134.079 31.7414 137.532 37.5233C138.974 36.3528 140.244 35.2493 142.245 35.3593Z" fill="white"/>
<path d="M142.245 35.3593L142.135 37.3563L142.138 37.3564L142.245 35.3593ZM146.62 38.2061L148.37 37.2372L148.37 37.2369L146.62 38.2061ZM139.798 50.0591L140.893 51.733L140.893 51.7326L139.798 50.0591ZM135.265 52.3012L133.798 53.6602L134.096 53.9816L134.5 54.1491L135.265 52.3012ZM127.262 40.9284L129.257 40.7913L129.257 40.7894L127.262 40.9284ZM137.532 37.5233L135.815 38.5488C136.112 39.047 136.612 39.3915 137.183 39.4927C137.755 39.5939 138.342 39.4418 138.792 39.076L137.532 37.5233ZM142.245 35.3593L142.138 37.3564C142.549 37.3785 143.1 37.5615 143.66 37.933C144.218 38.3026 144.644 38.7661 144.871 39.1753L146.62 38.2061L148.37 37.2369C147.782 36.1766 146.871 35.2624 145.87 34.5987C144.871 33.9371 143.642 33.4314 142.352 33.3622L142.245 35.3593ZM146.62 38.2061L144.871 39.175C145.342 40.0262 145.417 40.7709 145.283 41.4695C145.139 42.2157 144.733 43.0261 144.056 43.8877C142.68 45.6409 140.525 47.1931 138.703 48.3855L139.798 50.0591L140.893 51.7326C142.736 50.5269 145.387 48.6715 147.203 46.3573C148.123 45.1852 148.909 43.7969 149.211 42.223C149.522 40.6017 149.294 38.905 148.37 37.2372L146.62 38.2061ZM139.798 50.0591L138.704 48.3851C138.331 48.6289 137.399 49.2225 136.504 49.7162C136.05 49.9668 135.658 50.162 135.377 50.2755C135.231 50.334 135.177 50.3456 135.192 50.3423C135.202 50.3403 135.273 50.3252 135.387 50.3239C135.489 50.3227 135.734 50.3307 136.031 50.4534L135.265 52.3012L134.5 54.1491C135.172 54.4273 135.807 54.3007 136.018 54.2561C136.327 54.191 136.624 54.0853 136.872 53.9855C137.376 53.7823 137.932 53.4968 138.436 53.2187C139.458 52.6551 140.485 51.9998 140.893 51.733L139.798 50.0591ZM135.265 52.3012L136.733 50.9423C135.377 49.4784 133.574 47.7303 131.97 45.7636C131.184 44.8011 130.509 43.8578 130.023 42.9715C129.529 42.0699 129.295 41.3429 129.257 40.7913L127.262 40.9284L125.266 41.0656C125.36 42.4209 125.877 43.7299 126.516 44.8945C127.163 46.0744 128.001 47.2274 128.87 48.2924C130.574 50.3807 132.642 52.4121 133.798 53.6602L135.265 52.3012ZM127.262 40.9284L129.257 40.7894C129.065 38.0435 130.361 36.7124 131.526 36.341C132.703 35.966 134.488 36.3272 135.815 38.5488L137.532 37.5233L139.249 36.4979C137.123 32.9375 133.529 31.5049 130.312 32.5298C127.084 33.5582 124.971 36.8207 125.266 41.0675L127.262 40.9284ZM137.532 37.5233L138.792 39.076C140.359 37.8042 141.031 37.2956 142.135 37.3563L142.245 35.3593L142.355 33.3623C139.457 33.203 137.588 34.9014 136.271 35.9706L137.532 37.5233Z" fill="black"/>
<path d="M103.923 66.2167C108.686 61.2454 112.648 55.5612 112.64 48.3625C112.629 33.0285 96.2736 24.2459 84.1421 34.1769C69.2282 22.5194 51.2699 36.8861 56.5071 54.4744C57.879 59.0873 61.1585 62.6752 64.2261 66.2167H30.6987C29.6274 62.0509 29.4501 56.1393 27.9009 52.2509C27.03 50.0581 25.8161 49.823 23.5809 49.6342C18.8485 49.2334 8.56681 49.1332 3.95776 49.692C-0.85939 50.2777 -1.46442 55.3377 3.16775 56.5593L22.1781 56.6248L38.7877 139.052H28.1899C22.2514 139.052 16.6712 144.528 16.4207 150.44C16.201 155.739 21.5307 162.56 27.0338 162.56H34.5486C32.8067 167.207 32.4098 171.053 34.8684 175.535C43.1616 190.638 66.2531 178.086 58.0563 162.56H100.833C96.4046 171.994 102.705 182.734 113.376 182.229C123.061 181.77 128.841 171.096 124.34 162.56H136.479C136.776 162.56 138.618 161.011 138.78 160.625C139.863 158.082 137.871 155.704 135.277 155.665L27.0146 155.638C21.8853 154.579 22.1473 146.613 27.4076 145.977L128.787 146.004C130.391 146.085 131.843 144.937 132.421 143.472L148.989 69.134C148.904 67.7274 147 66.2129 145.725 66.2129H103.912L103.923 66.2167Z" fill="#4E8CFF"/>
<path d="M103.923 66.2169H145.736C147.008 66.2169 148.915 67.7314 149 69.138L132.433 143.476C131.855 144.941 130.402 146.093 128.799 146.008L27.4191 145.981C22.1626 146.617 21.8967 154.583 27.026 155.642L135.288 155.669C137.882 155.708 139.874 158.086 138.792 160.629C138.63 161.015 136.788 162.564 136.491 162.564H124.352C128.849 171.1 123.068 181.775 113.388 182.233C102.717 182.738 96.416 171.998 100.844 162.564H58.0677C66.2684 178.087 43.1731 190.642 34.8799 175.539C32.4212 171.057 32.8181 167.211 34.56 162.564H27.0453C21.5421 162.564 16.2125 155.743 16.4321 150.444C16.6788 144.532 22.2628 139.056 28.2014 139.056H38.7991L22.1819 56.625L3.17147 56.5595C-1.4607 55.3379 -0.855667 50.2779 3.96148 49.6922C8.57053 49.1334 18.8522 49.2336 23.5846 49.6344C25.8198 49.8232 27.0298 50.0583 27.9046 52.251C29.4538 56.1433 29.6311 62.0511 30.7024 66.2169H64.2298C61.1622 62.6754 57.8827 59.0875 56.5108 54.4746C51.2736 36.8824 69.2319 22.5157 84.1458 34.1771C96.2773 24.2422 112.632 33.0248 112.644 48.3626C112.648 55.5652 108.686 61.2456 103.927 66.2169H103.923ZM71.0624 36.6358C66.5806 37.4027 63.0082 41.6572 62.3993 46.0851C61.1507 55.1914 67.9486 60.4749 73.8679 66.0165L94.0152 66.136C100.513 60.5288 108.031 54.1162 105.441 44.4627C103.642 37.7572 95.9382 34.3158 89.9187 38.1426C87.4985 39.6802 85.7335 44.2546 82.3577 42.1081C78.3999 39.5916 77.8064 35.4797 71.0624 36.6319V36.6358ZM50.3564 73.1536H32.2439L35.7123 89.7246H53.054L50.3564 73.1536ZM82.7276 73.1536H56.9077L59.9907 89.7246H82.7276V73.1536ZM115.099 73.1536H89.279V89.1466L89.857 89.7246H111.823L115.099 73.1536ZM141.69 73.1536H122.036L119.111 88.9346L119.531 89.7246H137.836L141.69 73.1536ZM54.5955 96.2759H36.8684L41.1075 115.93H58.0638L54.5955 96.2759ZM82.7276 96.2759H61.1468L64.6152 115.93H82.7276V96.2759ZM110.86 96.2759H89.279V115.93H107.199L110.86 96.2759ZM136.294 96.2759H117.796L114.328 115.93H131.477L136.294 96.2759ZM62.3029 139.052L59.0273 122.867H42.649L45.7319 139.052H62.3029ZM82.7276 122.867H66.1566L68.8542 139.052H82.7276V122.867ZM106.235 122.867H89.279V139.052H102.96L106.235 122.867ZM130.128 122.867H112.787L110.089 139.052H126.66L130.128 122.867ZM44.8571 162.656C39.3309 163.6 37.8819 171.589 42.7607 174.587C48.7455 178.264 55.5782 171.924 52.0636 165.67C50.5105 162.911 47.8939 162.136 44.861 162.656H44.8571ZM110.756 162.649C109.511 162.907 107.734 164.433 107.068 165.512C103.118 171.901 110.76 178.614 116.613 174.287C122.425 169.994 118.112 161.13 110.752 162.649H110.756Z" fill="black"/>
<path d="M71.0624 36.6356C77.8065 35.4834 78.3999 39.5914 82.3577 42.1118C85.7335 44.2583 87.4986 39.6878 89.9187 38.1463C95.9382 34.3196 103.642 37.7571 105.441 44.4664C108.035 54.12 100.513 60.5325 94.0152 66.1397L73.868 66.0202C67.9486 60.4786 61.1507 55.1951 62.3993 46.0888C63.0043 41.6647 66.5806 37.4064 71.0624 36.6395V36.6356Z" fill="white"/>
<path d="M115.099 73.1537L111.823 89.7246H89.8571L89.2791 89.1466V73.1537H115.099Z" fill="#4E8CFF"/>
<path d="M82.7277 73.1537V89.7246H59.9908L56.9078 73.1537H82.7277Z" fill="#4E8CFF"/>
<path d="M110.86 96.2758L107.199 115.93H89.2791V96.2758H110.86Z" fill="#4E8CFF"/>
<path d="M82.7277 96.2758V115.93H64.6152L61.1469 96.2758H82.7277Z" fill="#4E8CFF"/>
<path d="M136.295 96.2758L131.477 115.93H114.328L117.797 96.2758H136.295Z" fill="#4E8CFF"/>
<path d="M54.5955 96.2758L58.0638 115.93H41.1074L36.8683 96.2758H54.5955Z" fill="#4E8CFF"/>
<path d="M141.69 73.1537L137.836 89.7246H119.531L119.107 88.9346L122.036 73.1537H141.69Z" fill="#4E8CFF"/>
<path d="M50.3564 73.1537L53.054 89.7246H35.7122L32.2439 73.1537H50.3564Z" fill="#4E8CFF"/>
<path d="M130.129 122.866L126.66 139.052H110.089L112.787 122.866H130.129Z" fill="#4E8CFF"/>
<path d="M62.3028 139.052H45.7318L42.6489 122.866H59.0272L62.3028 139.052Z" fill="#4E8CFF"/>
<path d="M106.235 122.866L102.96 139.052H89.2791V122.866H106.235Z" fill="#4E8CFF"/>
<path d="M82.7276 122.866V139.052H68.8542L66.1566 122.866H82.7276Z" fill="#4E8CFF"/>
<path d="M44.8574 162.656C47.8942 162.14 50.5108 162.911 52.06 165.67C55.5746 171.921 48.7458 178.264 42.7571 174.587C37.8783 171.589 39.3273 163.596 44.8536 162.656H44.8574Z" fill="#4E8CFF"/>
<path d="M110.756 162.648C118.116 161.134 122.425 169.994 116.617 174.287C110.764 178.614 103.122 171.901 107.072 165.512C107.738 164.433 109.511 162.903 110.76 162.648H110.756Z" fill="#4E8CFF"/>
</svg>
