<svg width="161" height="113" viewBox="0 0 161 113" fill="none" xmlns="http://www.w3.org/2000/svg">
<path d="M17.143 6.10352e-05C8.42361 0.348238 0.99584 7.14705 0.00372314 15.8065V96.6622C2.68057 111.739 14.395 112.345 27.1578 112.222C65.7605 111.851 104.52 112.405 143.217 112.222C152.048 111.828 159.985 105.719 161 96.6847V15.4134C160.113 7.7835 153.168 0.917301 145.463 0.250898L17.143 6.10352e-05Z" fill="white"/>
<path d="M17.143 6.10352e-05L145.459 0.250898C153.164 0.917301 160.109 7.7835 160.996 15.4134V96.6809C159.982 105.719 152.045 111.825 143.213 112.218C104.517 112.401 65.7568 111.847 27.1541 112.218C14.3951 112.341 2.68059 111.739 0 96.6585V15.8065C0.995861 7.14705 8.42363 0.348238 17.143 6.10352e-05ZM16.7612 6.3571C11.2427 7.0834 6.92984 10.8722 6.36452 16.5516V95.9134C7.24433 101.832 11.4861 105.389 17.3901 105.853C60.4892 105.456 103.76 106.583 146.758 105.284C158.012 101.72 154.669 88.4033 154.594 79.463C154.415 57.6739 155.163 35.7275 154.134 14.032C152.198 8.68576 147.893 6.61168 142.461 6.23729L16.7574 6.3571H16.7612Z" fill="black"/>
<rect x="4" y="28" width="153" height="17" fill="#4E8CFF" fill-opacity="0.6" stroke="black" stroke-width="5"/>
<path d="M18.5 74.5H70" stroke="black" stroke-width="5" stroke-linecap="round"/>
<path d="M19 86H101" stroke="black" stroke-width="5" stroke-linecap="round"/>
<path d="M38.8222 18.4442C39.8959 19.4625 40.5037 21.0428 41.4288 22.1668C46.3111 12.7907 60.5462 12.6453 64.8545 22.3784C70.9254 36.0922 51.3623 50.3547 41.4356 57C31.2185 49.7662 10.8721 35.5896 18.7864 21.1618C22.6356 14.1462 33.0485 12.956 38.8222 18.4442Z" fill="#4E8CFF" stroke="black" stroke-width="5"/>
</svg>
