<svg width="198" height="163" viewBox="0 0 198 163" fill="none" xmlns="http://www.w3.org/2000/svg">
<path d="M95.5805 0.070792C112.322 -1.18192 130.829 14.3795 127.85 31.7838C126.508 39.6341 115.268 41.6551 111.053 34.9295C108.62 31.0433 110.58 27.146 107.117 22.7198C100.046 13.6947 85.531 19.3068 86.1991 30.8206C86.6557 38.7322 94.4559 40.7755 99.0157 45.8531C103.409 50.7415 104.906 56.2868 107.395 61.9713C131.72 76.4749 157.637 88.6345 181.806 103.366C186.733 106.373 191.171 108.7 193.782 114.218C199.461 126.232 193.175 140.402 180.336 143.843C125.59 145.201 70.248 145.201 15.5018 143.843C-0.510574 139.617 -5.38222 119.089 6.90546 107.926L87.6634 62.2719C86.2103 56.927 80.1137 54.7835 76.467 51.1423C58.5059 33.2147 70.4874 1.95264 95.5805 0.070792ZM84.7571 16.8014C94.1831 7.36991 111.276 11.0891 115.446 23.8611C116.387 26.7396 115.713 33.4931 119.822 32.1179C123.346 30.9375 119.092 20.103 117.639 17.7702C104.116 -3.98798 69.9919 9.33527 75.2254 35.1299C77.7085 47.3619 88.6711 48.8262 93.9993 58.6474L98.4812 57.8012C95.6529 48.6146 84.913 46.1426 81.1215 38.142C77.87 31.2827 79.4011 22.163 84.7571 16.8014ZM96.6551 65.1504L12.4731 112.38C0.864621 121.6 8.29736 138.264 22.4613 138.002H173.388C187.78 138.219 195.046 121.277 183.059 112.141L99.9956 65.4789C98.9322 64.9277 97.802 64.8943 96.6551 65.1504Z" fill="black"/>
<path d="M96.6552 65.1504C97.8022 64.8887 98.938 64.9221 99.9958 65.4789L183.059 112.141C195.046 121.283 187.774 138.225 173.388 138.002H22.4615C8.29753 138.27 0.870362 121.606 12.4732 112.38L96.6552 65.1504ZM97.7298 70.2169L15.0009 116.021C9.06029 120.52 10.8586 130.141 17.7346 132.708L176.177 132.997C184.517 132.195 187.351 120.949 180.848 116.021L100.53 71.0687L97.7354 70.2169H97.7298Z" fill="white"/>
<path d="M84.7571 16.8015C79.4011 22.1631 77.8644 31.2828 81.1215 38.1421C84.913 46.1372 95.6529 48.6092 98.4812 57.8013L93.9993 58.6476C88.6767 48.8263 77.7085 47.362 75.2254 35.13C69.9919 9.33539 104.116 -3.98786 117.639 17.7703C119.092 20.1031 123.341 30.9432 119.822 32.118C115.713 33.4932 116.381 26.7397 115.446 23.8612C111.276 11.0947 94.183 7.37003 84.7571 16.8015Z" fill="white"/>
<path d="M97.7295 70.2169L100.524 71.0688L180.843 116.022C187.346 120.949 184.512 132.19 176.171 132.997L17.7288 132.708C10.8584 130.141 9.05447 120.526 14.9951 116.022L97.724 70.2169H97.7295ZM100.068 78.4848C99.1827 77.0873 93.6095 77.7499 95.9702 81.7474C97.5681 84.4588 101.783 81.1962 100.068 78.4848ZM88.2813 82.9277L20.3455 120.81C17.9236 122.085 17.5395 124.573 19.7888 126.194L176.427 126.015C178.226 124.05 177.775 122.079 175.492 120.815L107.952 83.0836L106.816 83.0948C103.152 91.7357 92.6853 91.7301 89.0218 83.0948L88.2813 82.9333V82.9277Z" fill="black"/>
<path d="M100.068 78.4847C101.783 81.1961 97.5683 84.4587 95.9704 81.7473C93.6097 77.7497 99.1829 77.0872 100.068 78.4847Z" fill="white"/>
<path d="M67.7829 110.265C75.0761 109.399 81.1018 112.764 85.2643 118.529C91.134 108.872 105.465 106.808 112.43 116.565C122.666 130.913 103.717 147.505 93.6531 156.052C92.3856 157.126 87.3515 161.537 86.2879 161.881C85.812 162.032 85.4082 162.104 84.9044 162.052C83.257 161.877 74.6283 154.487 72.865 152.882C67.499 148 57.9106 138.77 55.8674 131.927C53.1324 122.749 57.4588 111.495 67.7869 110.269L67.7829 110.265ZM82.7932 126.398C81.9535 125.468 80.9379 122.641 79.8023 121.2C73.2088 112.844 59.8339 115.675 61.0774 127.524C62.0531 136.829 77.991 149.062 84.8604 154.858C85.6921 154.882 93.0693 148.578 94.2728 147.485C98.7791 143.385 108.284 133.891 109.019 127.875C110.371 116.769 98.9511 112.517 91.5139 119.978C89.9665 121.531 87.7953 126.326 86.8277 126.873C85.5761 127.583 83.8048 127.512 82.8012 126.398H82.7932Z" fill="black"/>
<path d="M82.7929 126.398C83.7965 127.512 85.5678 127.583 86.8193 126.873C87.787 126.326 89.9581 121.531 91.5056 119.978C98.9427 112.517 110.362 116.768 109.011 127.875C108.279 133.895 98.7748 143.389 94.2645 147.485C93.061 148.578 85.6838 154.878 84.8521 154.858C77.9867 149.061 62.0487 136.825 61.0691 127.524C59.8256 115.675 73.2005 112.844 79.794 121.2C80.9296 122.641 81.9492 125.468 82.7849 126.398H82.7929Z" fill="#4E8CFF"/>
<path d="M161.943 43.4514C167.469 42.7951 172.034 45.3449 175.188 49.7124C179.635 42.3958 190.492 40.8321 195.769 48.2243C203.525 59.0949 189.168 71.6653 181.543 78.141C180.583 78.9546 176.769 82.2969 175.963 82.557C175.603 82.6719 175.297 82.7264 174.915 82.687C173.667 82.5539 167.13 76.9553 165.794 75.7394C161.728 72.0403 154.464 65.0473 152.916 59.8631C150.844 52.9095 154.121 44.383 161.946 43.4545L161.943 43.4514ZM173.316 55.674C172.679 54.9693 171.91 52.8278 171.05 51.7359C166.054 45.4053 155.921 47.5498 156.863 56.5269C157.602 63.5774 169.677 72.8449 174.882 77.2366C175.512 77.2548 181.101 72.4789 182.013 71.6501C185.427 68.5438 192.628 61.3512 193.185 56.7931C194.209 48.3786 185.557 45.1573 179.923 50.8104C178.75 51.987 177.105 55.6195 176.372 56.0339C175.424 56.5723 174.082 56.5179 173.322 55.674H173.316Z" fill="black"/>
<path d="M173.315 55.674C174.076 56.5178 175.418 56.5723 176.366 56.0339C177.099 55.6195 178.744 51.9869 179.916 50.8103C185.551 45.1573 194.203 48.3785 193.179 56.7931C192.625 61.3542 185.424 68.5468 182.007 71.6501C181.095 72.4788 175.505 77.2517 174.875 77.2366C169.674 72.8448 157.599 63.5743 156.857 56.5269C155.914 47.5498 166.048 45.4053 171.043 51.7359C171.904 52.8278 172.676 54.9692 173.309 55.674H173.315Z" fill="#4E8CFF"/>
</svg>
