<svg width="140" height="174" viewBox="0 0 140 174" fill="none" xmlns="http://www.w3.org/2000/svg">
<path d="M41.0669 1.09422C22.5378 3.20016 12.1233 22.2636 17.4667 39.5983C17.8858 40.9499 19.667 43.7159 19.5884 44.6012C19.3369 47.5035 14.0197 56.5035 12.8724 60.3801C12.1128 62.9627 11.8142 65.6868 11.4004 68.3376C6.88466 97.1921 4.35439 126.434 0.00106482 155.315C-0.0984696 165.069 6.79036 172.498 16.309 173.818L123.193 173.844C132.974 172.864 140.104 165.227 139.999 155.315C134.745 125.643 133.728 93.6298 127.997 64.2252C126.577 56.954 120.993 49.337 119.872 43.5116C119.458 41.3585 120.532 37.7229 120.223 34.7997C119.814 30.9022 117.3 26.025 114.251 23.4842C112.512 22.0331 109.096 20.9644 108.006 19.7753C106.692 18.3503 105.141 13.9761 103.438 11.7706C94.0454 -0.419755 74.851 -2.84525 62.933 7.09771C56.3533 2.36197 49.2601 0.161735 41.0669 1.09422Z" fill="#ffffff" fill-opacity="0.13"/>
<path d="M41.0669 1.0943C49.2601 0.161821 56.3533 2.36206 62.9278 7.10828C74.8405 -2.83469 94.0349 -0.409192 103.433 11.7812C105.136 13.9866 106.686 18.3609 108.001 19.7858C109.096 20.9698 112.506 22.0437 114.246 23.4948C117.295 26.0355 119.809 30.9127 120.218 34.8103C120.527 37.7334 119.453 41.3743 119.867 43.5222C120.988 49.3423 126.572 56.9593 127.992 64.2358C133.723 93.6404 134.739 125.654 139.994 155.326C140.098 165.232 132.974 172.875 123.188 173.855L16.3038 173.828C6.79036 172.498 -0.0984696 165.069 0.00106482 155.315C4.35439 126.434 6.88466 97.1922 11.4004 68.3377C11.8142 65.6869 12.1128 62.9628 12.8724 60.3801C14.0145 56.5035 19.3369 47.5035 19.5884 44.6013C19.667 43.716 17.8858 40.95 17.4667 39.5984C12.1233 22.2637 22.5378 3.20024 41.0669 1.0943ZM41.9732 58.5728H75.7625C71.472 53.287 65.4214 49.7562 63.4674 42.8411C59.5331 28.9168 72.0221 15.6263 86.1455 19.6391C87.6437 20.0635 90.5983 21.9599 91.6932 21.9075C92.0599 21.8918 97.6601 19.7072 98.6135 19.3301C98.9854 19.1834 99.6979 19.4505 99.3259 18.5023C98.8073 17.1613 94.5483 13.0122 93.2177 12.0326C86.376 7.01398 76.3073 6.85158 69.1984 11.404C67.3754 12.5722 64.908 15.6106 62.933 15.6473C60.958 15.684 58.7421 12.9179 56.8562 11.7235C33.3713 -3.15425 11.2432 28.5291 30.4272 47.0792L41.9679 58.5728H41.9732ZM79.2881 26.2189C73.7666 27.1199 69.8533 32.3795 69.958 37.8749C70.11 45.801 81.0745 52.6165 85.7264 58.3004H97.2305C101.076 53.3708 112.045 46.0734 112.91 39.9284C114.094 31.5099 107.697 24.1444 99.0483 26.5908C95.1822 27.6857 93.6734 31.6095 89.5139 29.8859C88.5343 29.4826 87.8847 28.2567 86.9522 27.7381C84.7992 26.5332 81.7555 25.8155 79.2933 26.2189H79.2881ZM107.718 58.5728H118.719L115.309 50.7096L107.718 58.5728ZM31.7578 58.5728L24.4289 51.2387L21.2805 58.5728H31.7578ZM120.757 65.9646H19.2374L7.11516 155.252C7.01038 160.91 11.5209 166.421 17.3305 166.51H122.669C128.49 166.222 132.984 161.046 132.88 155.252L120.757 65.9646Z" fill="black"/>
<path d="M120.757 65.9645L132.879 155.252C132.984 161.046 128.49 166.222 122.669 166.51H17.3305C11.5209 166.416 7.01561 160.905 7.11514 155.252L19.2374 65.9645H120.757ZM48.6315 101.111C61.4452 95.6834 54.5826 76.5099 41.5698 80.6956C31.4277 83.9593 31.6006 97.3859 41.2135 101.357C41.4336 109.351 40.2758 117.24 42.628 124.978C49.1553 146.467 77.5331 151.947 92.018 134.806C100.421 124.863 98.8125 113.547 98.7916 101.352C112.705 95.5891 104.413 75.2736 90.7555 81.1566C82.2427 84.8236 82.4837 97.2445 90.965 100.733L91.4837 101.786C90.9703 109.11 92.7671 117.487 90.0011 124.407C84.6053 137.912 67.4278 141.873 56.2118 132.867C46.1536 124.795 48.6943 112.541 48.6367 101.105L48.6315 101.111Z" fill="#ffffff" fill-opacity="0.13"/>
<path d="M41.9732 58.5727L30.4325 47.0791C11.2433 28.529 33.3714 -3.15434 56.8615 11.7287C58.7474 12.9231 60.89 15.6891 62.9383 15.6524C64.9867 15.6158 67.3755 12.5773 69.2038 11.4091C76.3126 6.85673 86.3813 7.01913 93.223 12.0378C94.5536 13.0174 98.8126 17.1664 99.3313 18.5075C99.698 19.4557 98.9908 19.1833 98.6188 19.3352C97.6654 19.7124 92.0652 21.8969 91.6985 21.9126C90.6037 21.965 87.6491 20.0686 86.1508 19.6443C72.0274 15.6315 59.5385 28.9219 63.4727 42.8463C65.4267 49.7561 71.4773 53.2922 75.7678 58.578H41.9785L41.9732 58.5727Z" fill="#4E8CFF"/>
<path d="M79.2879 26.2188C81.7501 25.8154 84.7937 26.5331 86.9468 27.738C87.8793 28.2567 88.5341 29.4825 89.5085 29.8859C93.668 31.6042 95.1715 27.6804 99.0429 26.5908C107.697 24.1443 114.088 31.5099 112.904 39.9284C112.04 46.0733 101.07 53.3708 97.225 58.3003H85.721C81.069 52.6164 70.1045 45.8009 69.9526 37.8748C69.8478 32.3795 73.7611 27.1199 79.2827 26.2188H79.2879Z" fill="#4E8CFF"/>
<path d="M107.718 58.5727L115.309 50.7095L118.719 58.5727H107.718Z" fill="#ffffff" fill-opacity="0.13"/>
<path d="M31.7578 58.5729H21.2805L24.4289 51.244L31.7578 58.5729Z" fill="#ffffff" fill-opacity="0.13"/>
<path d="M48.6316 101.11C48.6892 112.546 46.1485 124.8 56.2067 132.872C67.4227 141.878 84.6002 137.917 89.996 124.412C92.762 117.492 90.9652 109.115 91.4786 101.792L90.9599 100.739C82.4786 97.2444 82.2323 84.8288 90.7504 81.1617C104.408 75.2787 112.706 95.5942 98.7865 101.357C98.8074 113.552 100.416 124.868 92.0129 134.811C77.5228 151.952 49.1502 146.467 42.6229 124.983C40.2707 117.24 41.4285 109.351 41.2084 101.362C31.5955 97.3911 31.4226 83.9644 41.5647 80.7007C54.5775 76.515 61.4401 95.6937 48.6264 101.116L48.6316 101.11ZM43.6601 87.4743C39.5268 88.6844 41.1141 95.4318 45.5146 94.6355C50.4861 93.7397 48.443 86.0756 43.6601 87.4743ZM94.4803 87.4795C89.9594 88.4225 91.1433 94.9813 95.3656 94.7141C100.285 94.3998 99.4308 86.4475 94.4803 87.4795Z" fill="black"/>
<path d="M43.6599 87.4742C48.4428 86.0755 50.4858 93.7397 45.5143 94.6355C41.1139 95.4265 39.5266 88.6791 43.6599 87.4742Z" fill="#ffffff" fill-opacity="0.13"/>
<path d="M94.4802 87.4797C99.4307 86.4477 100.29 94.3999 95.3655 94.7142C91.1379 94.9814 89.954 88.4226 94.4802 87.4797Z" fill="#ffffff" fill-opacity="0.13"/>
</svg>
