<svg width="148" height="149" viewBox="0 0 148 149" fill="none" xmlns="http://www.w3.org/2000/svg">
<path d="M86.4404 29.6282H103.76C105.758 29.6282 109.282 33.1863 109.497 35.3252L112.339 65.9491C130.056 59.5459 144.998 70.6002 147.557 88.4042C151.63 116.735 126.935 141.036 101.379 147.977L11.9355 148.021C5.39097 147.543 0.632253 142.96 0 136.418L8.83473 35.5976C9.31564 32.6381 12.0599 30.062 15.0059 29.6618C20.1615 28.9589 26.6589 30.1226 31.9624 29.6349C30.6979 9.17077 50.6879 -5.87215 69.9514 2.23616C80.8342 6.81663 86.9987 17.9719 86.4404 29.6349V29.6282ZM81.3959 29.6282V24.7518C81.3959 22.8987 79.6874 18.3754 78.7626 16.6233C70.7014 1.35841 48.253 1.11627 39.8555 16.1693C38.8365 17.9954 37.0036 22.7844 37.0036 24.7518V29.6282H81.3959ZM73.3245 133.21C58.0462 120.595 48.0882 95.0429 58.6886 76.7041C68.3069 60.0638 87.7318 61.3485 101.07 72.6853L107.483 68.3033L104.91 37.5583C104.853 36.7242 103.989 34.6728 103.088 34.6728H86.4404C85.9225 38.4663 86.8743 37.2253 88.8047 38.8665C92.7428 42.2094 91.7204 49.1372 86.9516 51.1584C77.5048 55.1672 71.8919 41.1567 81.342 37.6524L81.3925 34.6728H37.0036L37.0541 37.6524C45.0615 40.4438 42.5661 52.1976 34.1316 51.8445C26.2284 51.5116 24.4662 40.2352 31.9019 37.6491L31.9557 34.6761H15.3086C15.1001 34.6761 14.1618 35.4227 13.9802 35.7019C13.1596 36.9697 13.2941 42.0681 13.1193 43.9212C10.2909 73.7211 7.83927 103.561 5.03448 133.368C4.92687 136.714 4.92014 139.23 7.76864 141.423C8.25292 141.796 10.1497 142.966 10.597 142.966H87.7789L79.5563 138.241M33.543 42.1421C31.7539 42.6802 31.3739 45.6531 33.3883 46.5242C37.8309 48.4478 38.1504 40.7565 33.543 42.1421ZM82.9832 42.1455C80.6863 42.6735 81.0158 46.1206 82.9832 46.7091C87.1568 47.9602 87.6007 41.0861 82.9832 42.1455ZM77.6259 69.0768C64.1636 70.2202 58.2816 85.586 59.2435 97.3499C60.8914 117.528 77.3064 133.476 95.1911 140.77C96.385 141.258 99.5496 142.66 100.559 142.828C101.887 143.05 107.507 140.595 109.094 139.886C128.109 131.357 144.419 113.432 142.956 91.3233C141.584 70.5968 121.917 62.2666 105.785 75.3724C104.483 76.4284 102.798 79.0583 101.06 79.028C99.9767 79.0078 96.7818 75.6078 95.6316 74.7502C90.7687 71.1282 83.7265 68.5555 77.6259 69.0768Z" fill="black"/>
<path d="M79.5631 138.241L87.7857 142.966H10.6037C10.1565 142.966 8.2597 141.796 7.77542 141.423C4.92692 139.23 4.93365 136.714 5.04126 133.368C7.84268 103.565 10.2977 73.7245 13.126 43.9211C13.3009 42.0681 13.1664 36.9697 13.987 35.7018C14.1686 35.4227 15.1069 34.6761 15.3154 34.6761H31.9625L31.9087 37.649C24.473 40.2352 26.2352 51.5149 34.1384 51.8445C42.5729 52.1976 45.0683 40.4437 37.0609 37.6524L37.0104 34.6727H81.4026L81.3522 37.6524C71.8987 41.1601 77.5116 55.1705 86.9618 51.1584C91.7306 49.1338 92.7529 42.2093 88.8148 38.8665C86.8811 37.2253 85.9327 38.4662 86.4506 34.6727H103.098C103.999 34.6727 104.86 36.7276 104.92 37.5582L107.493 68.3032L101.08 72.6853C87.742 61.3484 68.317 60.0637 58.6987 76.7041C48.0984 95.0428 58.0564 120.595 73.3347 133.21" fill="white"/>
<path d="M77.6261 69.0764C83.7266 68.5585 90.7655 71.1279 95.6318 74.7499C96.7854 75.6075 99.9769 79.0109 101.06 79.0277C102.798 79.058 104.483 76.428 105.785 75.3721C121.917 62.2663 141.585 70.5965 142.957 91.323C144.42 113.432 128.109 131.36 109.094 139.885C107.507 140.598 101.887 143.05 100.559 142.828C99.5498 142.66 96.3818 141.254 95.1913 140.77C77.3066 133.475 60.8949 117.528 59.2436 97.3496C58.2818 85.5856 64.1638 70.2199 77.6261 69.0764Z" fill="#4E8CFF"/>
<path d="M82.9833 42.1452C87.5974 41.0859 87.1535 47.96 82.9833 46.7089C81.0193 46.1204 80.6897 42.6699 82.9833 42.1452Z" fill="white"/>
<path d="M33.543 42.142C38.1537 40.7564 37.8309 48.4477 33.3883 46.524C31.3738 45.653 31.7505 42.6801 33.543 42.142Z" fill="white"/>
</svg>
