<svg width="140" height="173" viewBox="0 0 140 173" fill="none" xmlns="http://www.w3.org/2000/svg">
<path d="M41.0669 0.210183C22.5378 2.31612 12.1233 21.3796 17.4667 38.7143C17.8858 40.0659 19.667 42.8319 19.5884 43.7172C19.3369 46.6194 14.0197 55.6194 12.8724 59.496C12.1128 62.0787 11.8142 64.8028 11.4004 67.4536C6.88466 96.3081 4.35439 125.55 0.00106482 154.431C-0.0984696 164.185 6.79036 171.614 16.309 172.934L123.193 172.96C132.974 171.98 140.104 164.342 139.999 154.431C134.745 124.759 133.728 92.7458 127.997 63.3412C126.577 56.07 120.993 48.453 119.872 42.6276C119.458 40.4745 120.532 36.8389 120.223 33.9157C119.814 30.0181 117.3 25.1409 114.251 22.6002C112.512 21.1491 109.096 20.0804 108.006 18.8912C106.692 17.4663 105.141 13.092 103.438 10.8866C94.0454 -1.30379 74.851 -3.72929 62.933 6.21368C56.3533 1.47794 49.2601 -0.722298 41.0669 0.210183Z" fill="white" fill-opacity="0.13"/>
<path d="M41.0669 0.210307C49.2601 -0.722174 56.3533 1.47806 62.9278 6.22428C74.8405 -3.71868 94.0349 -1.29319 103.433 10.8972C105.136 13.1026 106.686 17.4769 108.001 18.9018C109.096 20.0858 112.506 21.1597 114.246 22.6108C117.295 25.1515 119.809 30.0287 120.218 33.9263C120.527 36.8495 119.453 40.4903 119.867 42.6382C120.988 48.4583 126.572 56.0753 127.992 63.3518C133.723 92.7564 134.739 124.77 139.994 154.442C140.098 164.348 132.974 171.991 123.188 172.971L16.3038 172.944C6.79036 171.614 -0.0984696 164.185 0.00106482 154.431C4.35439 125.55 6.88466 96.3082 11.4004 67.4537C11.8142 64.8029 12.1128 62.0788 12.8724 59.4962C14.0145 55.6195 19.3369 46.6195 19.5884 43.7173C19.667 42.832 17.8858 40.066 17.4667 38.7144C12.1233 21.3797 22.5378 2.31625 41.0669 0.210307ZM41.9732 57.6888H75.7625C71.472 52.403 65.4214 48.8722 63.4674 41.9571C59.5331 28.0328 72.0221 14.7423 86.1455 18.7551C87.6437 19.1795 90.5983 21.0759 91.6932 21.0235C92.0599 21.0078 97.6601 18.8232 98.6135 18.4461C98.9854 18.2994 99.6979 18.5665 99.3259 17.6184C98.8073 16.2773 94.5483 12.1282 93.2177 11.1486C86.376 6.12999 76.3073 5.96759 69.1984 10.52C67.3754 11.6882 64.908 14.7266 62.933 14.7633C60.958 14.8 58.7421 12.0339 56.8562 10.8395C33.3713 -4.03824 11.2432 27.6451 30.4272 46.1952L41.9679 57.6888H41.9732ZM79.2881 25.3349C73.7666 26.2359 69.8533 31.4955 69.958 36.9909C70.11 44.917 81.0745 51.7325 85.7264 57.4164H97.2305C101.076 52.4868 112.045 45.1894 112.91 39.0444C114.094 30.6259 107.697 23.2604 99.0483 25.7068C95.1822 26.8017 93.6734 30.7255 89.5139 29.0019C88.5343 28.5986 87.8847 27.3727 86.9522 26.8541C84.7992 25.6492 81.7555 24.9315 79.2933 25.3349H79.2881ZM107.718 57.6888H118.719L115.309 49.8256L107.718 57.6888ZM31.7578 57.6888L24.4289 50.3547L21.2805 57.6888H31.7578ZM120.757 65.0806H19.2374L7.11516 154.368C7.01038 160.026 11.5209 165.537 17.3305 165.626H122.669C128.49 165.338 132.984 160.162 132.88 154.368L120.757 65.0806Z" fill="black"/>
<path d="M120.757 65.0804L132.879 154.368C132.984 160.162 128.49 165.338 122.669 165.626H17.3305C11.5209 165.532 7.01561 160.021 7.11514 154.368L19.2374 65.0804H120.757ZM48.6315 100.227C61.4452 94.7993 54.5826 75.6258 41.5698 79.8115C31.4277 83.0752 31.6006 96.5018 41.2135 100.473C41.4336 108.467 40.2758 116.356 42.628 124.094C49.1553 145.583 77.5331 151.062 92.018 133.922C100.421 123.979 98.8125 112.663 98.7916 100.468C112.705 94.705 104.413 74.3895 90.7555 80.2725C82.2427 83.9396 82.4837 96.3604 90.965 99.8494L91.4837 100.902C90.9703 108.226 92.7671 116.603 90.0011 123.523C84.6053 137.028 67.4278 140.988 56.2118 131.983C46.1536 123.91 48.6943 111.657 48.6367 100.221L48.6315 100.227Z" fill="#4E8CFF"/>
<path d="M41.9732 57.6888L30.4324 46.1951C11.2432 27.6451 33.3713 -4.03831 56.8614 10.8447C58.7474 12.0391 60.89 14.8051 62.9383 14.7685C64.9866 14.7318 67.3754 11.6934 69.2037 10.5251C76.3126 5.97276 86.3812 6.13515 93.2229 11.1538C94.5535 12.1334 98.8126 16.2824 99.3312 17.6235C99.6979 18.5717 98.9907 18.2993 98.6187 18.4512C97.6653 18.8284 92.0652 21.0129 91.6985 21.0286C90.6036 21.081 87.649 19.1846 86.1508 18.7603C72.0273 14.7475 59.5384 28.038 63.4726 41.9623C65.4266 48.8721 71.4773 52.4082 75.7677 57.694H41.9784L41.9732 57.6888Z" fill="#4E8CFF" fill-opacity="0.26"/>
<path d="M79.288 25.3348C81.7501 24.9314 84.7938 25.6491 86.9469 26.854C87.8794 27.3726 88.5342 28.5985 89.5086 29.0019C93.6681 30.7201 95.1716 26.7964 99.0429 25.7067C107.697 23.2603 114.088 30.6258 112.904 39.0444C112.04 45.1893 101.07 52.4867 97.2251 57.4163H85.721C81.0691 51.7324 70.1046 44.9169 69.9527 36.9908C69.8479 31.4955 73.7612 26.2358 79.2827 25.3348H79.288Z" fill="#4E8CFF" fill-opacity="0.06"/>
<path d="M107.718 57.6887L115.309 49.8254L118.719 57.6887H107.718Z" fill="white"/>
<path d="M31.7578 57.6889H21.2805L24.4289 50.36L31.7578 57.6889Z" fill="white"/>
<path d="M48.6316 100.227C48.6892 111.663 46.1485 123.916 56.2067 131.988C67.4227 140.994 84.6002 137.033 89.996 123.528C92.762 116.608 90.9652 108.231 91.4786 100.908L90.9599 99.8546C82.4786 96.3604 82.2323 83.9448 90.7504 80.2777C104.408 74.3947 112.706 94.7102 98.7865 100.473C98.8074 112.668 100.416 123.984 92.0129 133.927C77.5228 151.068 49.1502 145.583 42.6229 124.099C40.2707 116.356 41.4285 108.467 41.2084 100.478C31.5955 96.5071 31.4226 83.0804 41.5647 79.8167C54.5775 75.631 61.4401 94.8098 48.6264 100.232L48.6316 100.227ZM43.6601 86.5903C39.5268 87.8004 41.1141 94.5478 45.5146 93.7515C50.4861 92.8557 48.443 85.1916 43.6601 86.5903ZM94.4803 86.5955C89.9594 87.5385 91.1433 94.0973 95.3656 93.8301C100.285 93.5158 99.4308 85.5635 94.4803 86.5955Z" fill="black"/>
<path d="M43.6599 86.5902C48.4428 85.1915 50.4858 92.8557 45.5143 93.7515C41.1139 94.5425 39.5266 87.7951 43.6599 86.5902Z" fill="white"/>
<path d="M94.4801 86.5956C99.4306 85.5636 100.29 93.5159 95.3654 93.8302C91.1378 94.0974 89.9539 87.5386 94.4801 86.5956Z" fill="white"/>
</svg>
