<svg width="151" height="161" viewBox="0 0 151 161" fill="none" xmlns="http://www.w3.org/2000/svg">
<path d="M77.9407 38.9997H96.6634C98.5962 38.9997 98.9517 43.1263 99.1181 44.4879C100.779 58.112 101.115 72.3867 102.526 86.0902C102.73 88.0684 102.742 93.1519 104.784 93.6928C105.053 93.8289 105.287 93.7684 105.556 93.6928C107.22 93.2313 112.708 88.3331 114.804 87.0282C140.24 71.1952 163.203 106.621 142.82 127.904C132.202 138.99 118.544 148.677 107.818 159.85L106.286 160.966L1.51414 161C0.663112 160.644 -0.0328434 160.115 0.00119795 159.109C2.69046 124.799 5.86009 90.4815 9.09401 56.2095C9.45333 52.4044 9.3966 48.2514 9.85427 44.4879C10.0207 43.1263 10.3762 38.9997 12.309 38.9997H31.0317V21.0335C31.0393 9.05095 44.4781 -0.526008 55.8327 0.0224356C66.117 0.517926 77.9407 10.2764 77.9407 21.0335V38.9997ZM72.6453 38.9997V21.0335C72.6453 13.7108 63.9799 6.05153 56.9447 5.34044C47.9351 4.42889 36.3346 11.2825 36.3346 21.0335V38.9997H72.6453ZM31.0393 44.295H15.1534L5.31921 155.875H97.9872C96.9849 154.593 95.7745 153.39 94.5869 152.278C86.6174 144.793 67.2252 129.969 62.7431 121.334C52.508 101.621 69.9561 75.719 91.9279 84.9631C93.9325 85.8065 95.5703 87.3989 97.6052 88.1705L93.8266 44.295H77.9407V55.2639C87.8921 58.842 82.124 73.4306 72.373 69.7201C65.7803 67.2124 65.8144 57.3518 72.6453 55.2639V44.295H36.3346V55.2639C46.286 58.842 40.5179 73.4306 30.767 69.7201C24.1743 67.2124 24.2084 57.3518 31.0393 55.2639V44.295ZM33.2104 59.8595C30.0294 60.4306 30.714 65.291 33.8496 65.0905C37.4126 64.8636 36.7658 59.2203 33.2104 59.8595ZM74.8164 59.8595C71.6355 60.4306 72.3201 65.291 75.4556 65.0905C79.0186 64.8636 78.3718 59.2203 74.8164 59.8595ZM80.5051 88.6546C64.8272 90.5685 60.5304 111.924 70.3684 123.169C80.2063 134.414 94.1557 143.34 104.031 154.18L105.37 155.028L141.042 121.958C153.168 106.163 138.455 81.3244 119.781 90.1071C116.839 91.4914 107.069 99.8996 105.367 99.9223C103.377 99.9526 94.7873 92.5127 92.2796 91.0375C88.4783 88.8022 84.9191 88.1138 80.5013 88.6509L80.5051 88.6546Z" fill="black"/>
<path d="M31.0394 44.295V55.2639C24.2084 57.3518 24.1744 67.2124 30.767 69.7201C40.518 73.4306 46.2861 58.842 36.3347 55.2639V44.295H72.6454V55.2639C65.8145 57.3518 65.7804 67.2124 72.3731 69.7201C82.124 73.4306 87.8921 58.842 77.9407 55.2639V44.295H93.8267L97.6053 88.1705C95.5741 87.3989 93.9326 85.8065 91.9279 84.9631C69.9524 75.719 52.5043 101.621 62.7432 121.334C67.2253 129.969 86.6213 144.793 94.5869 152.278C95.7746 153.394 96.9812 154.593 97.9873 155.875H5.31927L15.1534 44.295H31.0394Z" fill="white"/>
<path d="M80.5051 88.6547C84.9229 88.1176 88.4821 88.8022 92.2834 91.0413C94.7911 92.5202 103.381 99.9564 105.37 99.9261C107.069 99.8996 116.839 91.4952 119.785 90.1109C138.459 81.3282 153.172 106.167 141.046 121.962L105.374 155.031L104.035 154.184C94.1594 143.344 79.8734 134.035 70.3721 123.173C60.8708 112.31 64.8347 90.5723 80.5089 88.6584L80.5051 88.6547Z" fill="#4E8CFF"/>
<path d="M33.2104 59.8595C36.7658 59.2203 37.4126 64.8636 33.8496 65.0905C30.714 65.291 30.0294 60.4269 33.2104 59.8595Z" fill="white"/>
<path d="M74.8164 59.8595C78.3718 59.2203 79.0186 64.8636 75.4556 65.0905C72.3201 65.291 71.6355 60.4269 74.8164 59.8595Z" fill="white"/>
</svg>
