<svg width="155" height="161" viewBox="0 0 155 161" fill="none" xmlns="http://www.w3.org/2000/svg">
<path d="M20.0471 100.055H21.0149C19.4223 94.406 22.4857 88.6893 28.6127 88.1661C31.8652 87.89 42.9559 87.768 45.6893 88.5866C50.3742 89.9925 53.082 95.4941 51.1208 100.052H56.139C56.2544 100.052 57.4016 98.7104 57.7637 98.4536C59.6031 97.1504 61.2566 96.3865 63.5702 96.1875H140.628C153.709 97.7121 149.469 112.105 150.164 121.237C152.43 120.996 154.532 121.523 155 123.985L154.952 158.561C154.404 160.034 153.494 160.593 151.962 160.731C148.613 161.033 139.952 161.142 136.757 160.696C136.049 160.596 134.309 159.624 134.309 158.949V149.962L133.822 149.48H20.0471V158.628C20.0471 159.315 18.3904 160.574 17.6021 160.696C14.9168 161.116 5.55334 161.036 2.7238 160.721C1.49008 160.583 0.471056 160.057 0.0672938 158.869L0 73.5838C0.269175 72.3993 1.23692 71.6675 2.42898 71.5006C4.83233 71.1667 10.9657 71.2984 13.2505 71.9596C15.8717 72.7203 20.0471 76.142 20.0471 79.0212V100.046V100.055ZM14.5451 155.265V79.3518C14.5451 78.7548 12.3084 76.9445 11.7924 76.9445H5.15598V155.265H14.5419H14.5451ZM45.5066 94.3899C44.8337 93.7351 43.4718 93.4142 42.5393 93.3211C39.4598 93.0129 32.3427 92.9872 29.3112 93.3532C24.5654 93.9277 25.1743 99.5514 28.3211 100.039C28.3211 100.039 39.3124 99.5482 44.1543 100.052C46.4039 99.3973 47.1153 95.9563 45.5066 94.3932V94.3899ZM144.662 121.24V105.352C144.662 104.174 143.025 102.055 141.759 101.811L63.2529 101.654C62.0737 101.5 59.8626 103.432 59.8626 104.389V121.24H144.666H144.662ZM54.3573 105.512H20.0471V121.24H54.3573V105.512ZM149.517 126.697H20.0471V144.03H149.517V126.697ZM149.517 149.487H139.484V155.265H149.517V149.487Z" fill="black"/>
<path d="M149.517 126.697H20.0471V144.03H149.517V126.697Z" fill="#4E8CFF"/>
<path d="M144.662 121.24H59.8594V104.389C59.8594 103.429 62.0705 101.497 63.2497 101.654L141.756 101.811C143.025 102.055 144.659 104.174 144.659 105.352V121.24H144.662Z" fill="#4E8CFF" fill-opacity="0.44"/>
<path d="M14.5451 155.265H5.15918V76.9445H11.7956C12.3115 76.9445 14.5483 78.7548 14.5483 79.3518V155.265H14.5451Z" fill="#4E8CFF"/>
<path d="M54.3573 105.512H20.0471V121.24H54.3573V105.512Z" fill="#4E8CFF"/>
<path d="M45.5067 94.3899C47.1153 95.9531 46.4071 99.3941 44.1544 100.049L28.3211 100.036C25.1743 99.5481 24.5655 93.9277 29.3113 93.3499C32.3459 92.9808 39.463 93.0097 42.5393 93.3178C43.4718 93.4109 44.8337 93.7351 45.5067 94.3867V94.3899Z" fill="#4E8CFF" fill-opacity="0.44"/>
<path d="M149.517 149.487H139.484V155.265H149.517V149.487Z" fill="#4E8CFF"/>
<path d="M61.2302 34.8167C61.4582 35.2018 61.6731 35.9147 61.8361 36.9976C61.9934 38.0425 62.0721 39.1894 62.1618 40.3587C62.2454 41.4475 62.3436 42.6651 62.5755 43.5963C63.2262 46.2154 64.3153 48.1135 65.7507 49.4673C67.1774 50.8127 68.8019 51.4831 70.2789 51.889C71.0114 52.0903 71.7304 52.2325 72.3725 52.3528C73.0413 52.478 73.5912 52.5733 74.1124 52.6941C75.1829 52.9423 75.6365 53.1995 75.8694 53.4681C76.0383 53.6635 76.1311 53.8078 76.1826 53.9017C76.0965 53.9766 75.952 54.0855 75.7188 54.2137C75.351 54.4158 74.8666 54.6156 74.2772 54.8087C73.0903 55.1974 71.7028 55.4884 70.4039 55.7524C69.7773 55.8797 69.151 56.0048 68.629 56.127C68.1609 56.2366 67.5632 56.3893 67.0986 56.6198C62.7355 58.7827 61.5789 63.6039 60.9136 66.9845C60.5426 68.8696 60.3297 70.3063 59.969 71.4302C59.8644 71.7561 59.7682 71.9809 59.6899 72.1356C59.6894 72.1342 59.6887 72.1329 59.6882 72.1316C59.3509 71.3689 59.0984 70.1254 58.8574 68.468C58.6348 66.9377 58.4207 65.037 58.1213 63.4195C57.83 61.8456 57.3854 60.0593 56.4732 58.7981L56.4732 58.7972L56.2781 58.5412C55.2768 57.2895 53.9009 56.4783 52.5951 55.9037C51.1971 55.2886 49.6558 54.8531 48.3695 54.482C46.9922 54.0848 45.9698 53.7767 45.2695 53.4146C45.0129 53.2819 44.8809 53.1834 44.8167 53.126C44.8222 52.9327 44.8634 52.838 44.8916 52.7879C44.9319 52.7164 45.0245 52.5962 45.262 52.4409C45.8058 52.0855 46.6963 51.7964 48.0456 51.4708C49.2664 51.1763 50.8696 50.851 52.3034 50.3684C53.7581 49.8787 55.3386 49.1388 56.5319 47.8271C57.6853 46.559 58.3756 44.9105 58.8532 43.3653C59.3341 41.8094 59.6675 40.1158 59.9698 38.6977C60.2908 37.1913 60.5686 36.0463 60.9213 35.2658C61.0373 35.009 61.1317 34.8563 61.198 34.7675C61.2076 34.7823 61.2193 34.7983 61.2302 34.8167Z" fill="white" stroke="black" stroke-width="4" stroke-linejoin="round"/>
<path d="M113.976 3.02044C114.23 3.00021 114.352 3.05085 114.432 3.09904C114.537 3.16199 114.706 3.30883 114.906 3.64648C115.335 4.37008 115.668 5.56022 115.91 7.16731C116.146 8.73662 116.263 10.4551 116.393 12.1492C116.517 13.7614 116.658 15.456 116.974 16.7265L116.974 16.7275C117.891 20.4204 119.408 23.0274 121.354 24.8626C123.291 26.6891 125.509 27.6137 127.584 28.1841C128.616 28.4676 129.636 28.6694 130.57 28.8444C131.531 29.0243 132.365 29.1703 133.152 29.3528C134.754 29.7244 135.668 30.1522 136.21 30.7782C136.811 31.473 136.947 31.8962 136.973 32.07C136.987 32.1727 136.983 32.256 136.86 32.4213C136.698 32.6393 136.358 32.9409 135.737 33.282C135.132 33.6149 134.365 33.9282 133.472 34.2208C131.678 34.8084 129.598 35.2437 127.706 35.6283C126.782 35.8159 125.884 35.9952 125.138 36.17C124.531 36.3119 123.863 36.486 123.323 36.717L123.101 36.8187C117.177 39.7556 115.536 46.3334 114.554 51.321C114.025 54.0094 113.696 56.212 113.147 57.923C112.573 59.7133 112.06 59.9563 111.83 60.0016C111.659 60.0352 111.65 60.0041 111.623 59.9837C111.514 59.902 111.284 59.6534 111.013 59.0399C110.462 57.7938 110.079 55.8561 109.729 53.4439C109.396 51.1586 109.092 48.4421 108.658 46.0981C108.232 43.798 107.609 41.3743 106.409 39.7154L106.15 39.3748C104.82 37.713 102.964 36.6027 101.116 35.7898C99.1402 34.9202 96.9505 34.299 95.0552 33.7523C93.0691 33.1794 91.4774 32.7051 90.356 32.1253C89.2155 31.5356 89.1969 31.1729 89.1932 31.0786L89.1932 31.0776C89.1721 30.5348 89.2798 30.1863 89.4211 29.9353C89.5697 29.6715 89.8246 29.3941 90.263 29.1075C91.2086 28.4896 92.6594 28.0387 94.6211 27.5653C96.4545 27.1229 98.7222 26.6636 100.767 25.9754C102.832 25.2801 104.97 24.2634 106.56 22.5156C108.11 20.8115 109.07 18.5552 109.754 16.3418C110.442 14.1176 110.918 11.6948 111.365 9.59837C111.831 7.41354 112.254 5.64074 112.818 4.39379C113.393 3.11961 113.814 3.03344 113.976 3.02044Z" fill="white" stroke="black" stroke-width="4" stroke-linejoin="round"/>
</svg>
