<svg width="175" height="151" viewBox="0 0 175 151" fill="none" xmlns="http://www.w3.org/2000/svg">
<path d="M87.6361 15.5855C65.2526 15.6578 44.8729 36.0926 47.4656 59.0133C48.2368 65.8444 56.4176 69.9175 62.4533 66.4228C68.9849 62.6423 66.6367 56.9749 68.4547 51.0769C73.3507 35.2008 95.1765 31.7887 104.762 45.4406C108.622 50.9358 111.617 62.384 104.349 66.3126C89.244 72.5033 73.5194 77.2513 58.3974 83.3697C52.4546 85.773 48.4021 87.6736 47.469 94.8214L47.5482 140.184C48.7808 145.483 52.3341 147.948 57.6261 148.355C76.9384 149.832 98.0446 147.246 117.546 148.372C123.331 147.972 126.949 145.48 128.037 139.582L128.051 53.8314C126.732 32.5497 109.073 15.5167 87.6361 15.5855Z" fill="white"/>
<path d="M87.6361 15.5855C109.073 15.5167 126.732 32.5497 128.048 53.8314L128.034 139.582C126.946 145.483 123.327 147.972 117.543 148.372C98.0411 147.246 76.9349 149.828 57.6226 148.355C52.3306 147.952 48.7773 145.483 47.5447 140.184L47.4655 94.8214C48.402 87.6736 52.4546 85.773 58.3939 83.3697C73.5159 77.2513 89.2406 72.5033 104.345 66.3126C111.614 62.384 108.618 50.9358 104.759 45.4406C95.173 31.7887 73.3472 35.2008 68.4512 51.0769C66.6332 56.9749 68.9814 62.6423 62.4499 66.4228C56.4141 69.9175 48.2333 65.8444 47.4621 59.0133C44.8729 36.0926 65.2525 15.6578 87.6361 15.5855ZM83.5457 20.7226C65.9825 22.4132 53.3153 36.8535 52.2893 54.1929C52.0517 58.2179 52.3719 62.9935 57.6226 62.9969C63.3347 62.9969 62.5222 57.2607 63.0558 53.5973C65.9205 33.8684 89.4712 25.5085 104.624 38.3478C114.01 46.3014 118.617 65.0283 105.086 71.1846C91.5543 77.3408 75.0516 81.7928 60.8075 87.5049C57.4815 88.8373 53.5667 89.7635 52.52 93.6783L52.3616 139.847C53.0881 141.992 54.6444 143.286 56.9306 143.541L119.443 143.386C121.186 142.98 122.398 141.74 123.048 140.105L123.224 54.52C121.895 33.0971 104.969 18.6568 83.5422 20.7226H83.5457Z" fill="black"/>
<path d="M83.5457 20.7225C104.972 18.6601 121.898 33.0969 123.227 54.5199L123.052 140.105C122.398 141.737 121.189 142.98 119.447 143.386L56.9341 143.541C54.6479 143.286 53.0916 141.988 52.3651 139.847L52.5235 93.6782C53.5702 89.7634 57.485 88.8372 60.811 87.5047C75.0585 81.7926 91.303 77.4612 105.089 71.1844C118.875 64.9077 114.014 46.3012 104.628 38.3477C89.4713 25.5084 65.924 33.8682 63.0593 53.5971C62.5257 57.2606 63.3382 63.0002 57.6261 62.9968C52.3754 62.9968 52.0552 58.2177 52.2928 54.1928C53.3154 36.8534 65.9825 22.413 83.5457 20.7225ZM98.4233 117.714V135.791C98.4233 136.741 101.405 137.963 102.579 136.159L102.892 94.8247C102.441 92.4593 98.4233 93.1858 98.4233 94.8178V112.378L97.9069 112.894H77.5926L77.0762 112.378V94.8178C77.0762 93.1858 73.0581 92.4593 72.607 94.8247L72.9204 136.159C74.0945 137.963 77.0762 136.744 77.0762 135.791V117.714H98.4233Z" fill="#4E8CFF"/>
<path d="M98.4237 117.714H77.0766V135.791C77.0766 136.741 74.0948 137.963 72.9207 136.159L72.6074 94.8248C73.0585 92.4594 77.0766 93.1859 77.0766 94.8179V112.378L77.593 112.894H97.9073L98.4237 112.378V94.8179C98.4237 93.1859 102.442 92.4594 102.893 94.8248L102.58 136.159C101.405 137.963 98.4237 136.744 98.4237 135.791V117.714Z" fill="black"/>
<path d="M139.448 64.4632C139.666 64.4669 139.815 64.5291 139.959 64.6487C140.345 64.9676 140.749 65.7403 141.072 67.1234C141.379 68.4391 141.546 69.9746 141.713 71.5032C141.871 72.9413 142.039 74.4978 142.391 75.5814C143.164 77.9589 144.392 79.6941 145.944 80.973C147.475 82.2351 149.253 82.9948 151.042 83.5374C152.808 84.0726 154.721 84.4326 156.459 84.8138C157.907 85.1314 159.276 85.4733 160.544 85.9476C160.471 87.1768 160.04 87.7751 159.545 88.1614C158.779 88.7598 157.566 89.0938 155.776 89.4261C152.496 90.0349 147.521 90.5242 144.484 94.7562L144.483 94.7571C142.296 97.8074 142.105 101.546 141.731 104.281C141.375 106.884 140.887 108.642 139.31 109.721C137.43 108.564 136.952 106.598 136.573 103.679C136.18 100.652 135.93 96.5632 132.998 93.4525C131.69 92.066 129.911 91.2365 128.151 90.6683C126.387 90.099 124.462 89.7392 122.792 89.4056C121.051 89.0576 119.64 88.7452 118.639 88.2962C117.656 87.855 117.484 87.4784 117.458 87.1732C117.413 86.6708 117.573 86.3432 118.037 85.9974C118.591 85.5843 119.492 85.2393 120.708 84.9456C121.907 84.6564 123.209 84.4596 124.522 84.2347C125.765 84.0218 127.092 83.7732 128.1 83.3607L128.102 83.3597C133.977 80.9425 135.702 76.18 136.461 72.1331C136.65 71.1293 136.783 70.1499 136.903 69.2659C137.025 68.3649 137.131 67.5817 137.268 66.8939C137.569 65.383 137.915 64.9724 138.14 64.8577H138.141C138.778 64.5343 139.197 64.459 139.448 64.4632Z" fill="white" stroke="black" stroke-width="3" stroke-linejoin="round"/>
<path d="M159.737 21.5497C159.763 21.5737 159.8 21.6155 159.846 21.6825C160.056 21.9909 160.259 22.5555 160.43 23.4061C160.595 24.2295 160.698 25.1364 160.812 26.0594C160.904 26.8122 161.009 27.6409 161.184 28.3241L161.263 28.6073C161.891 30.6603 162.857 32.1141 164.074 33.1219C165.28 34.12 166.622 34.5883 167.842 34.8583C168.449 34.9926 169.045 35.0821 169.583 35.1571C170.14 35.2348 170.61 35.2943 171.055 35.3749C171.857 35.5203 172.293 35.692 172.549 35.8944L172.648 35.9833C172.816 36.1539 172.904 36.2777 172.95 36.3544C172.876 36.426 172.742 36.534 172.514 36.6649C172.2 36.8443 171.79 37.0231 171.298 37.1971C170.308 37.547 169.149 37.8238 168.076 38.0731C167.556 38.194 167.042 38.3116 166.615 38.4237C166.276 38.5128 165.873 38.6261 165.539 38.7772L165.401 38.8446C161.906 40.6581 161.095 44.465 160.647 47.1874C160.4 48.6907 160.27 49.8372 160.006 50.7401C159.88 51.1699 159.757 51.4098 159.664 51.5341C159.65 51.5523 159.636 51.5642 159.626 51.5751C159.585 51.5219 159.529 51.4384 159.463 51.3104C159.154 50.711 158.902 49.7308 158.646 48.4276C158.41 47.2216 158.17 45.7235 157.867 44.452C157.572 43.2105 157.143 41.8206 156.354 40.8651V40.8641L156.187 40.6718C155.331 39.7334 154.185 39.1483 153.097 38.7411C151.928 38.3037 150.644 38.0092 149.557 37.7548C148.402 37.4846 147.516 37.2681 146.897 36.993C146.62 36.8697 146.494 36.7769 146.44 36.7284C146.436 36.5653 146.468 36.4819 146.495 36.4325C146.533 36.3628 146.619 36.2501 146.83 36.1073C147.301 35.7888 148.067 35.5254 149.181 35.2255C150.2 34.9509 151.507 34.6471 152.674 34.2245C153.852 33.7979 155.114 33.1768 156.044 32.1249C156.951 31.0992 157.47 29.7818 157.817 28.5409C158.167 27.2947 158.389 25.9444 158.595 24.8114C158.813 23.6095 159.006 22.6915 159.276 22.0585C159.406 21.7545 159.516 21.6095 159.577 21.5497C159.614 21.5141 159.614 21.5214 159.617 21.5214C159.669 21.5154 159.694 21.5196 159.699 21.5204H159.7C159.7 21.5205 159.713 21.5269 159.737 21.5497Z" fill="white" stroke="black" stroke-width="3" stroke-linejoin="round"/>
<path d="M19.6699 18.3054C19.8891 18.2807 20.0081 18.3189 20.0859 18.3591C20.1776 18.4065 20.3105 18.5093 20.4678 18.738C20.808 19.2326 21.0955 20.0633 21.3281 21.2077C21.5552 22.3251 21.6965 23.553 21.8477 24.7722C21.973 25.7834 22.1114 26.8519 22.335 27.7194L22.4355 28.0788C23.257 30.735 24.5078 32.5794 26.0547 33.8464C27.5891 35.1031 29.3052 35.7005 30.8994 36.0495C31.6938 36.2234 32.4776 36.3397 33.1982 36.4391C33.938 36.5412 34.5855 36.6225 35.1973 36.7321C36.4493 36.9566 37.1781 37.2454 37.6172 37.6852C38.1011 38.1713 38.2019 38.4593 38.2197 38.5495C38.2249 38.5754 38.241 38.5997 38.1611 38.7097C38.0485 38.8646 37.7982 39.0928 37.3262 39.36C36.8678 39.6196 36.2845 39.8688 35.6055 40.1061C34.2426 40.5826 32.6566 40.957 31.2188 41.2878C30.516 41.4494 29.8352 41.604 29.2705 41.7507C28.8105 41.8701 28.3102 42.0118 27.9111 42.1901L27.748 42.2682C23.2997 44.5513 22.228 49.3626 21.623 53.0056C21.2972 54.9676 21.114 56.5477 20.748 57.7858C20.3743 59.0501 20.0063 59.251 19.79 59.2995C19.6252 59.3364 19.5847 59.3052 19.5488 59.2819C19.4593 59.2239 19.281 59.0543 19.0605 58.6315C18.6086 57.7647 18.2587 56.3964 17.917 54.6686C17.5947 53.039 17.2781 51.0806 16.874 49.4011C16.5018 47.8539 15.9897 46.2211 15.1191 45.0554L14.9404 44.8278C13.854 43.528 12.3037 42.7202 10.7793 42.1559C9.24606 41.5884 7.55701 41.2052 6.08691 40.8649C4.54978 40.5091 3.30441 40.2101 2.41797 39.82C1.98518 39.6295 1.74029 39.4595 1.61328 39.3317C1.51234 39.2302 1.51029 39.1838 1.50781 39.154C1.47745 38.7904 1.54433 38.5622 1.63477 38.3962C1.73307 38.2158 1.91387 38.0107 2.24707 37.7878C2.96202 37.3096 4.07277 36.94 5.56348 36.5427C6.96005 36.1705 8.67538 35.7773 10.2158 35.2253C11.7663 34.6696 13.3684 33.8807 14.5352 32.5749C15.6796 31.294 16.3522 29.6264 16.8125 28.0016C17.2742 26.3721 17.5683 24.6052 17.8467 23.0856C18.1377 21.4966 18.406 20.2213 18.7939 19.321C19.1794 18.4266 19.4903 18.3256 19.6699 18.3054Z" fill="white" stroke="black" stroke-width="3" stroke-linejoin="round"/>
</svg>
