<svg width="237" height="284" viewBox="0 0 237 284" fill="none" xmlns="http://www.w3.org/2000/svg">
<path d="M13.3438 166.719C-0.712361 158.971 4.6501 140.645 10.7512 129.019C42.8964 67.7128 177.239 68.0157 210.691 127.8C216.068 137.403 221.593 152.227 214.576 162.228C213.712 163.462 209.665 166.505 209.879 167.709C214.746 172.731 215.433 178.182 211.496 184.077C225.737 195.983 225.671 215.927 211.349 227.745C222.487 240.109 214.074 260.754 202.817 270.135C192.543 278.695 176.722 281.214 163.648 281.931C132.507 283.629 91.3875 283.578 60.2173 281.968C40.2964 280.941 18.1744 276.886 9.31086 256.795C5.12283 247.311 3.47568 235.884 11.0836 227.745C-1.67997 216.325 -3.6595 202.247 6.39327 188.191C7.19838 187.061 9.30348 185.65 9.562 184.653C9.96825 183.065 7.79667 180.568 7.57508 178.7C7.10974 174.711 10.4557 170.294 13.3364 167.797V166.726L13.3438 166.719ZM98.1386 95.2785C69.694 97.2285 30.4505 109.867 18.8983 138.651C15.7665 146.451 12.4944 158.18 24.7704 157.87H196.931C208.217 157.959 207.323 151.171 204.863 142.492C193.636 102.872 132.936 92.8928 98.1386 95.2785ZM203.017 172.761C202.278 171.491 195.8 169.496 193.969 169.637H31.4181C24.9846 169.26 12.2506 178.153 24.763 180.036H194.707C198.194 180.62 205.277 176.631 203.024 172.761H203.017ZM22.5767 219.886H71.6956L45.3339 198.606C37.1942 193.088 33.8851 190.614 23.3079 191.818C8.11428 193.546 8.12905 217.492 22.5693 219.886H22.5767ZM96.8091 191.818H53.2299L75.7581 208.791L96.8091 191.818ZM80.5592 219.886H199.848C205.033 219.886 210.093 212.566 210.558 207.698C211.075 202.277 208.025 194.528 202.463 192.889C200.528 192.32 193.562 191.906 191.014 191.781C166.011 190.525 139.605 192.468 114.551 192.194L80.5592 219.878V219.886ZM23.4926 231.874C15.9955 234.474 16.5051 240.818 17.9898 247.377C21.417 262.564 35.5175 267.025 49.2708 269.278C87.1109 269.234 125.845 272.136 163.7 270.142C177.231 269.426 197.455 266.161 203.017 251.846C205.912 244.386 207.619 233.831 197.662 231.689L23.5 231.874H23.4926Z" fill="black"/>
<path d="M98.1377 95.2788C132.935 92.9004 193.635 102.879 204.863 142.492C207.322 151.171 208.216 157.959 196.93 157.87H24.7695C12.4935 158.173 15.773 146.451 18.8974 138.644C30.4496 109.852 69.6931 97.214 98.1377 95.2714V95.2788ZM86.9992 124.381C92.4577 119.986 85.4185 109.512 79.0294 115.31C73.0686 120.732 81.1862 129.064 86.9992 124.381ZM129.101 114.417C124.618 115.436 123.399 122.18 127.89 124.905C137.477 130.726 141.355 111.639 129.101 114.417ZM57.4539 128.451C52.9852 129.463 52.3648 137.048 56.7375 139.198C66.3027 143.903 69.2647 125.777 57.4539 128.451ZM157.908 128.451C152.708 129.618 152.486 138.585 158.831 139.826C167.407 141.51 168.758 126.013 157.908 128.451ZM107.696 129.189C100.036 129.943 100.723 141.488 108.257 141.488C116.589 141.488 115.968 128.377 107.696 129.189Z" fill="#FFD694"/>
<path d="M23.4915 231.875L197.653 231.69C207.61 233.839 205.904 244.394 203.008 251.847C197.447 266.162 177.223 269.427 163.691 270.143C125.836 272.137 87.1024 269.242 49.2623 269.279C35.509 267.026 21.4085 262.565 17.9813 247.378C16.504 240.819 15.9944 234.475 23.4841 231.875H23.4915Z" fill="#FFD694"/>
<path d="M80.5591 219.887L114.551 192.203C139.605 192.476 166.011 190.534 191.014 191.789C193.562 191.915 200.528 192.328 202.463 192.897C208.025 194.537 211.075 202.285 210.558 207.707C210.093 212.574 205.026 219.894 199.848 219.894H80.5591V219.887Z" fill="#421712" fill-opacity="0.71"/>
<path d="M203.016 172.762C205.269 176.632 198.193 180.621 194.699 180.03H24.7624C12.2574 178.154 24.984 169.261 31.4175 169.637H193.968C195.807 169.497 202.278 171.491 203.016 172.762Z" fill="#83D383"/>
<path d="M22.5761 219.887C8.13586 217.493 8.12109 193.547 23.3147 191.819C33.8845 190.615 37.1936 193.089 45.3407 198.607L71.7025 219.887H22.5761Z" fill="#421712" fill-opacity="0.71"/>
<path d="M96.8073 191.818L75.7563 208.799L53.228 191.818H96.8073Z" fill="#FFF8AD"/>
<path d="M107.695 129.19C115.975 128.378 116.588 141.488 108.256 141.488C100.722 141.488 100.028 129.943 107.695 129.19Z" fill="black"/>
<path d="M129.101 114.418C141.355 111.64 137.477 130.734 127.89 124.906C123.399 122.181 124.617 115.43 129.101 114.418Z" fill="black"/>
<path d="M86.9998 124.381C81.1868 129.064 73.0692 120.732 79.03 115.31C85.4117 109.505 92.4583 119.978 86.9998 124.381Z" fill="black"/>
<path d="M157.908 128.451C168.759 126.013 167.407 141.51 158.832 139.825C152.487 138.577 152.708 129.618 157.908 128.451Z" fill="black"/>
<path d="M57.4544 128.451C69.2651 125.777 66.2958 143.911 56.7379 139.198C52.3652 137.049 52.9857 129.463 57.4544 128.451Z" fill="black"/>
<path d="M187.96 58.5C188.376 58.507 188.646 58.6212 188.918 58.8457C189.687 59.4801 190.548 61.0802 191.247 64.0693C191.91 66.9017 192.269 70.2114 192.633 73.5273C192.952 76.4384 193.294 79.612 193.975 81.957L194.115 82.4141C195.807 87.6078 198.494 91.4081 201.898 94.21C205.255 96.9728 209.144 98.6291 213.043 99.8096C216.884 100.973 221.05 101.757 224.81 102.58C227.882 103.253 230.778 103.97 233.463 104.957C233.278 107.436 232.389 108.622 231.405 109.389C229.796 110.643 227.224 111.36 223.335 112.081C216.258 113.393 205.345 114.46 198.688 123.727L198.687 123.728C193.896 130.4 193.478 138.582 192.672 144.473C191.911 150.031 190.88 153.712 187.66 155.993C183.801 153.542 182.784 149.422 181.972 143.171C181.123 136.644 180.58 127.686 174.151 120.875L173.879 120.593C171.031 117.714 167.251 115.976 163.537 114.778C159.695 113.54 155.502 112.758 151.888 112.036C148.104 111.281 145.072 110.61 142.931 109.65C140.829 108.709 140.56 107.95 140.514 107.425C140.427 106.439 140.718 105.808 141.669 105.101C142.83 104.236 144.744 103.5 147.376 102.865C149.965 102.241 152.775 101.817 155.631 101.328C158.323 100.868 161.228 100.325 163.442 99.4199L163.448 99.418C176.305 94.1348 180.074 83.7136 181.729 74.9111C182.139 72.7293 182.428 70.6028 182.688 68.6885C182.953 66.7341 183.182 65.0454 183.478 63.5645C184.131 60.2867 184.867 59.5169 185.239 59.3281H185.24C186.599 58.6391 187.468 58.4918 187.96 58.5Z" fill="white" stroke="black" stroke-width="7" stroke-linejoin="round"/>
<path d="M84.7568 2.50879C85.0162 2.47929 85.1227 2.52741 85.1748 2.55469C85.2514 2.59482 85.4102 2.70656 85.6211 3.0166C86.0853 3.69907 86.4977 4.8803 86.8359 6.56348C87.1651 8.2013 87.3695 10.0026 87.5908 11.8076C87.7991 13.5069 88.0351 15.3479 88.459 16.7324V16.7334C89.6707 20.6968 91.5234 23.4718 93.835 25.3867C96.1271 27.2854 98.686 28.1842 101.043 28.7061C102.216 28.9659 103.372 29.1381 104.426 29.2852C105.511 29.4366 106.446 29.5565 107.33 29.7168C109.032 30.0253 109.999 30.4069 110.583 30.9297L110.695 31.0361C111.318 31.669 111.461 32.0389 111.491 32.1465C111.484 32.1595 111.475 32.1784 111.459 32.2002C111.329 32.3817 111.004 32.6924 110.336 33.0752C109.689 33.4455 108.858 33.8065 107.877 34.1533C105.907 34.8499 103.608 35.3978 101.506 35.8867C100.482 36.1248 99.4825 36.3542 98.6523 36.5723C97.8881 36.773 97.0114 37.0261 96.3623 37.3633C89.7192 40.8115 88.1461 48.0618 87.2656 53.4238C86.7865 56.3417 86.5225 58.6443 85.9941 60.4521C85.45 62.3137 84.9528 62.4536 84.8213 62.4834C84.7707 62.4948 84.7371 62.498 84.7178 62.499C84.6437 62.4485 84.4144 62.2449 84.1094 61.6533C83.4695 60.4123 82.9655 58.4268 82.4658 55.8721C81.998 53.4799 81.5318 50.5702 80.9404 48.084C80.3608 45.6475 79.5382 43.0091 78.0605 41.2197V41.2188L77.7461 40.8564C76.1358 39.0899 73.9628 37.9709 71.8545 37.1816C69.5923 36.3348 67.1042 35.764 64.9629 35.2627C62.7092 34.7351 60.9253 34.3011 59.665 33.7402C59.0529 33.4678 58.7347 33.2352 58.5859 33.084C58.5531 33.0506 58.5327 33.0253 58.5215 33.0098L58.5098 32.9932V32.9902C58.4692 32.498 58.5597 32.2134 58.6641 32.0195C58.7807 31.8032 59.0076 31.5333 59.4639 31.2246C60.458 30.5521 62.0292 30.0182 64.209 29.4307C66.2317 28.8855 68.7626 28.2981 71.0293 27.4766C73.3142 26.6484 75.7104 25.4612 77.4629 23.4775C79.1763 21.5381 80.1718 19.0277 80.8477 16.6152C81.5261 14.1936 81.9572 11.568 82.3623 9.33105C82.7882 6.97956 83.1759 5.12702 83.7285 3.83008C84.2802 2.53533 84.671 2.51852 84.7568 2.50879Z" fill="white" stroke="black" stroke-width="5" stroke-linejoin="round"/>
</svg>
