<svg width="239" height="224" viewBox="0 0 239 224" fill="none" xmlns="http://www.w3.org/2000/svg">
<path d="M224.973 74.1123H236.4C237.105 74.1123 238.609 71.6238 238.71 70.8366C239.244 66.8347 239.076 50.1413 237.908 46.7031C235.135 38.5417 227.624 37.0283 219.864 37.3229C219.021 36.7338 219.488 29.7913 219.163 27.8665C217.842 20.1166 211.078 14.718 203.414 14.1593C179.118 12.3971 152.729 15.5356 128.21 14.1593C120.597 14.6977 113.721 21.1323 112.796 28.7096C112.461 31.4622 113.116 34.3265 112.517 37.0639C111.872 37.9933 106.214 37.3686 104.478 37.6581C100.14 38.3894 95.8541 42.244 94.361 46.3323C93.0456 49.928 92.8527 66.6569 93.4113 70.8366C93.518 71.6187 95.0161 74.1123 95.7221 74.1123H107.149L107.662 92.4004C103.883 92.6391 98.0938 91.0139 97.4894 96.1941C96.8546 101.664 98.3375 110.699 98.5356 116.498C99.1704 134.964 99.6783 153.389 100.567 171.855C100.851 177.706 100.425 183.592 101.283 189.422C101.42 190.199 103.284 191.936 103.848 191.936H111.212L111.75 220.092L114.112 223.317L216.623 223.454C218.97 223.667 220.062 221.585 220.356 219.569L220.91 191.936H228.274C228.837 191.936 230.701 190.199 230.838 189.422L234.632 96.189C234.114 91.0495 228.167 92.6086 224.46 92.3953L224.973 74.1072V74.1123Z" fill="white"/>
<path d="M224.973 74.1122L224.46 92.4003C228.162 92.6136 234.109 91.0545 234.632 96.194L230.838 189.427C230.701 190.204 228.837 191.941 228.274 191.941H220.91L220.356 219.574C220.062 221.595 218.97 223.672 216.623 223.459L114.112 223.322L111.75 220.097L111.212 191.941H103.848C103.284 191.941 101.42 190.204 101.283 189.427C100.43 183.592 100.851 177.706 100.567 171.86C99.6783 153.394 99.1704 134.969 98.5356 116.503C98.3375 110.699 96.8495 101.669 97.4894 96.1991C98.0938 91.0189 103.883 92.639 107.662 92.4054L107.149 74.1173H95.7221C95.0161 74.1173 93.5129 71.6288 93.4113 70.8416C92.8527 66.6619 93.0456 49.933 94.361 46.3424C95.8592 42.2541 100.14 38.4045 104.478 37.6681C106.214 37.3736 111.867 37.9983 112.517 37.074C113.116 34.3366 112.461 31.4672 112.796 28.7196C113.721 21.1424 120.597 14.7078 128.21 14.1694C152.729 15.5407 179.118 12.4072 203.414 14.1694C211.078 14.723 217.847 20.1266 219.163 27.8766C219.493 29.8014 219.021 36.7438 219.864 37.333C227.629 37.0333 235.14 38.5518 237.908 46.7132C239.076 50.1514 239.244 66.8447 238.71 70.8467C238.604 71.6288 237.105 74.1224 236.4 74.1224H224.973V74.1122ZM212.276 37.5463V28.6587C212.276 26.1194 207.192 21.2846 204.414 21.2846C178.219 21.6756 151.8 20.5532 125.732 21.8534C123.7 22.6456 119.84 26.5358 119.84 28.6587V37.5463H212.271H212.276ZM231.575 67.0022V49.481C231.575 48.3586 228.05 44.1942 226.252 44.6462L104.579 44.8849C103.381 45.1642 100.542 48.6075 100.542 49.481V67.0022H231.57H231.575ZM217.863 74.1122H114.259L114.767 92.3952H217.355L217.863 74.1122ZM227.512 99.5053H104.61L108.134 184.602H223.992L227.517 99.5053H227.512ZM213.8 191.936H117.814L118.83 216.313H213.292L213.8 191.936Z" fill="black"/>
<path d="M227.512 99.5051L223.987 184.602H108.134L104.609 99.5051H227.512ZM216.191 107.738C215.293 108.002 214.526 109.043 214.328 109.932C212.357 118.565 214.145 130.794 212.443 139.809C212.723 143.826 218.162 144.578 219.264 140.764C220.651 135.97 220.199 126.005 220.412 120.581C220.559 116.813 223.347 105.625 216.197 107.732L216.191 107.738ZM176.853 127.305L169.037 111.506C167.599 109.632 164.593 109.612 163.084 111.506C161.246 113.812 156.289 126.716 155.06 127.478C149.718 129.174 142.684 128.656 137.483 130.089C135.406 130.662 133.872 132.968 134.832 135.04L148.214 148.62C148.138 153.897 145.137 161.322 145.228 166.299C145.259 167.914 146.533 169.727 148.153 170.011C151.008 170.514 162.333 162.612 165.842 161.439C167.721 161.281 179.087 168.986 182.307 169.869C184.658 170.514 186.852 168.762 186.842 166.35C186.822 161.002 184.059 154.151 183.907 148.62C185.806 145.456 196.974 136.894 197.467 134.167C197.812 132.267 196.431 130.581 194.638 130.083C191.784 129.296 178.061 128.463 176.848 127.3L176.853 127.305ZM215.191 148.849C211.199 149.611 211.093 158.605 216.547 157.899C221.224 157.295 220.244 147.889 215.191 148.849Z" fill="#4E8CFF" fill-opacity="0.42"/>
<path d="M231.575 67.0024H100.547V49.4812C100.547 48.6026 103.386 45.1644 104.584 44.885L226.258 44.6463C228.05 44.1943 231.58 48.3588 231.58 49.4812V67.0024H231.575Z" fill="white"/>
<path d="M213.8 191.936L213.292 216.313H118.83L117.814 191.936H213.8Z" fill="#4E8CFF"/>
<path d="M217.863 74.1126L217.355 92.3956H114.767L114.259 74.1126H217.863Z" fill="#4E8CFF"/>
<path d="M212.276 37.5462H119.846V28.6586C119.846 26.5358 123.705 22.6455 125.737 21.8533C151.805 20.5582 178.224 21.6755 204.42 21.2845C207.198 21.2845 212.281 26.1193 212.281 28.6586V37.5462H212.276Z" fill="white"/>
<path d="M176.853 127.306C178.067 128.469 191.789 129.302 194.643 130.089C196.436 130.587 197.818 132.273 197.472 134.172C196.975 136.899 185.812 145.462 183.912 148.626C184.065 154.162 186.833 161.008 186.848 166.355C186.858 168.768 184.664 170.52 182.313 169.875C179.093 168.991 167.727 161.287 165.848 161.444C162.338 162.617 151.013 170.52 148.159 170.017C146.539 169.733 145.264 167.92 145.234 166.305C145.137 161.327 148.139 153.903 148.22 148.626L134.838 135.046C133.878 132.974 135.412 130.663 137.489 130.094C142.689 128.662 149.723 129.18 155.066 127.484C156.295 126.727 161.252 113.817 163.09 111.511C164.598 109.617 167.605 109.637 169.042 111.511L176.858 127.311L176.853 127.306ZM166.564 121.851C165.381 121.592 165.751 122.014 165.436 122.502C163.974 124.767 161.333 132.283 159.657 133.466C157.412 135.056 146.747 135.381 146.26 136.072C147.296 139.713 154.507 142.684 155.289 146.076C156.158 149.855 153.685 155.98 153.37 159.936L166.279 153.852L178.758 159.936C178.275 155.299 175.05 148.148 177.986 144.187C178.976 142.857 186.553 137.057 185.868 136.077C182.673 134.883 174.553 135.345 172.176 133.263C170.439 131.739 167.894 124.249 166.564 121.857V121.851Z" fill="black"/>
<path d="M216.192 107.737C223.343 105.63 220.555 116.813 220.407 120.586C220.194 126.01 220.646 135.974 219.26 140.769C218.157 144.578 212.723 143.831 212.439 139.814C214.145 130.799 212.353 118.57 214.323 109.936C214.526 109.048 215.293 108.007 216.187 107.743L216.192 107.737Z" fill="black"/>
<path d="M215.191 148.849C220.244 147.884 221.219 157.29 216.547 157.899C211.098 158.605 211.199 149.611 215.191 148.849Z" fill="black"/>
<path d="M166.564 121.851C167.895 124.248 170.439 131.739 172.176 133.258C174.553 135.345 182.673 134.878 185.868 136.071C186.559 137.052 178.976 142.846 177.986 144.182C175.045 148.143 178.275 155.294 178.758 159.931L166.28 153.847L153.37 159.931C153.685 155.974 156.158 149.855 155.29 146.071C154.507 142.684 147.296 139.708 146.26 136.066C146.747 135.376 157.412 135.051 159.657 133.461C161.333 132.273 163.974 124.756 165.437 122.496C165.757 122.004 165.381 121.587 166.564 121.846V121.851Z" fill="#4E8CFF"/>
<path d="M30.8613 39.5124C31.0862 39.6982 31.5574 40.4108 31.9756 42.1999C32.3623 43.8545 32.5739 45.8033 32.7959 47.8278C32.9981 49.6709 33.2271 51.8399 33.7305 53.3874V53.3884C34.8031 56.686 36.5221 59.1329 38.7188 60.9431C40.875 62.7199 43.3511 63.7665 45.7695 64.4997C48.1383 65.2178 50.72 65.7051 52.958 66.196C54.552 66.5456 56.0362 66.9119 57.415 67.3727C57.2405 68.1844 56.8913 68.5412 56.5967 68.7712C55.8156 69.3807 54.4695 69.7902 52.0938 70.2311C47.9426 71.0017 40.9009 71.676 36.6201 77.6413L36.6191 77.6423C33.5601 81.9085 33.2944 87.1526 32.8223 90.6061C32.4128 93.6007 31.8974 95.4249 30.6309 96.6013C29.0652 95.3169 28.5404 93.2621 28.0938 89.8229C27.6091 86.0909 27.2787 80.5604 23.5049 76.237L23.1289 75.8229L22.7666 75.4567C20.9231 73.6753 18.5628 72.6141 16.333 71.8942C13.9479 71.1243 11.3513 70.6397 9.18457 70.2067C6.87309 69.7448 5.13977 69.3542 3.95117 68.821C3.38596 68.5674 3.13522 68.3606 3.04102 68.2585C2.99311 68.2065 3.00678 68.2185 3.00488 68.197C2.98346 67.953 2.97999 67.8484 3.35352 67.57C3.90783 67.157 4.9221 66.7429 6.48828 66.3649C8.01741 65.9959 9.67247 65.7463 11.4258 65.446C13.039 65.1697 14.8945 64.8277 16.3398 64.236L16.3447 64.2341C24.5338 60.8648 26.915 54.1843 27.9385 48.7321C28.1914 47.385 28.3694 46.0755 28.5264 44.9177C28.688 43.7255 28.8237 42.7314 28.9961 41.8659C29.3004 40.338 29.5985 39.9469 29.6396 39.8903C30.3521 39.5345 30.7212 39.5028 30.8291 39.5046C30.8734 39.5053 30.8452 39.4991 30.8613 39.5124Z" fill="white" stroke="black" stroke-width="6" stroke-linejoin="round"/>
<path d="M65.8936 2.99829C66.0643 3.32527 66.2454 3.86903 66.4043 4.67505C66.5844 5.58865 66.6968 6.59629 66.8223 7.63989C66.9378 8.60103 67.0744 9.70735 67.3291 10.5549C68.0344 12.907 69.1271 14.5985 70.5273 15.7815C71.9147 16.9534 73.4562 17.5003 74.8359 17.8118C75.5208 17.9664 76.1904 18.068 76.7852 18.1526C77.4063 18.241 77.9121 18.3059 78.3926 18.3948C79.3843 18.5781 79.7719 18.7866 79.957 18.9768V18.9778C80.0152 19.0381 80.0624 19.0921 80.1016 19.1389C80.041 19.1813 79.9693 19.2286 79.8838 19.2786C79.5635 19.4656 79.1336 19.6584 78.6025 19.8499C77.5332 20.2354 76.274 20.5423 75.0889 20.8235C74.5186 20.9588 73.946 21.0931 73.4688 21.2209C73.0444 21.3346 72.4875 21.4941 72.0537 21.7239C68.0354 23.8509 67.1323 28.2959 66.6426 31.3372C66.3668 33.05 66.2274 34.3078 65.9424 35.302C65.9123 35.4069 65.8812 35.4984 65.8535 35.5793C65.5925 34.9317 65.3589 33.9743 65.1191 32.7239C64.8618 31.3819 64.5921 29.6775 64.2568 28.2405C63.9312 26.8446 63.4487 25.2186 62.5293 24.0833V24.0823C61.517 22.8333 60.0992 22.0882 58.792 21.5891C57.4761 21.0867 56.0363 20.751 54.8428 20.4661C53.5587 20.1595 52.6208 19.923 51.9775 19.6311C51.8344 19.5661 51.7365 19.5115 51.6709 19.4709C51.6784 19.4329 51.6882 19.4165 51.6904 19.4124C51.7033 19.3881 51.7583 19.2995 51.957 19.1624C52.4207 18.8424 53.2078 18.5585 54.4395 18.22C55.5446 17.9162 57.0156 17.5662 58.3223 17.0833C59.6456 16.5941 61.1015 15.8698 62.1807 14.6243C63.2261 13.4176 63.8129 11.8836 64.2002 10.4739C64.5898 9.05547 64.8374 7.5187 65.0625 6.25122C65.3037 4.89317 65.5127 3.89196 65.7959 3.21411C65.8316 3.12858 65.8641 3.057 65.8936 2.99829Z" fill="white" stroke="black" stroke-width="4" stroke-linejoin="round"/>
</svg>
