<svg width="210" height="229" viewBox="0 0 210 229" fill="none" xmlns="http://www.w3.org/2000/svg">
<path d="M210 1.33688C195.391 -1.38627 177.605 -0.268349 164.623 7.67178C163.321 7.79599 159.303 3.28608 156.883 2.32103C147.622 -1.36716 141.575 3.15231 133.204 3.97403C121.972 5.07284 109.133 3.07587 97.7763 3.94536C72.8823 5.85635 50.6385 22.4723 39.9423 44.6015C31.7049 46.7418 21.6115 41.7541 15.5076 48.863C8.22693 57.3382 11.0493 66.9791 17.5072 74.7472L0.71665 142.052C2.33351 167.726 -1.46468 196.037 0.668814 221.386C0.812323 223.135 0.812323 224.883 1.89342 226.374C3.38591 227.454 5.13671 227.444 6.88752 227.597C43.9223 230.702 85.2336 225.16 122.728 227.597C128.258 228.103 137.251 221.071 141.805 220.966C148.301 220.823 161.303 233.875 162.451 222.351C165.015 196.515 160.423 166.426 162.384 140.131L148.043 82.3242C154.462 83.2224 159.552 79.9833 163.962 75.7791C177.778 82.8115 194.807 85.1525 210 82.0949V1.33688Z" fill="white"/>
<path d="M210 1.33688V82.1045C194.807 85.162 177.778 82.8306 163.962 75.7887C159.562 80.0024 154.462 83.2319 148.043 82.3338L162.384 140.141C160.423 166.436 165.015 196.524 162.451 222.361C161.303 233.884 148.301 220.823 141.805 220.975C137.251 221.081 128.258 228.113 122.728 227.607C85.2336 225.17 43.9223 230.712 6.88752 227.607C5.13671 227.463 3.38591 227.463 1.89342 226.383C0.812323 224.893 0.82189 223.144 0.668814 221.396C-1.46468 196.037 2.33351 167.736 0.71665 142.061L17.5072 74.7472C11.0493 66.9791 8.22693 57.3382 15.5076 48.863C21.6115 41.7541 31.7049 46.7513 39.9423 44.6015C50.6385 22.4723 72.8919 5.85634 97.7763 3.94536C109.133 3.07587 121.962 5.07284 133.204 3.97403C141.566 3.15231 147.622 -1.36716 156.883 2.32103C159.303 3.28608 163.321 7.80554 164.623 7.67178C177.615 -0.268349 195.391 -1.38627 210 1.33688ZM204.489 75.6358V8.27374C199.466 5.60792 189.832 6.98382 184.035 7.91065C178.552 8.7897 172.401 10.242 168.22 14.15L170.076 22.0901C177.462 21.0964 185.757 17.8191 191.947 23.7049C192.597 25.7401 191.497 27.8422 189.545 28.5779C183.843 27.46 176.668 25.7019 172.114 30.3265L172.343 53.6786C176.821 58.6758 192.836 51.0128 192.1 58.8765C191.516 65.1063 174.085 62.2876 170.066 61.3226L168.21 69.2627C168.813 71.3265 181.824 75.6262 183.901 75.6262H204.47L204.489 75.6358ZM147.086 75.6262C164.575 77.1073 167.053 48.4712 166.096 36.1072C165.311 25.893 161.111 5.15884 147.086 8.27374C164.116 24.7559 163.522 58.9243 147.086 75.6262ZM118.384 72.7693H137.04C137.691 72.7693 141.9 70.5813 142.79 69.9124C155.582 60.3288 155.333 24.24 143.288 13.9685C141.891 12.7741 139.547 11.2358 137.777 10.8727C129.291 9.14323 99.4984 10.2325 90.5913 12.0384C72.6336 15.6788 55.8526 28.8359 47.5866 45.0506H97.8146C99.2018 45.0506 109.554 33.9955 109.085 44.783C103.478 51.8441 74.26 68.3072 72.6623 75.3492C70.701 83.9486 78.2496 90.465 86.5443 87.2928L120.03 62.3831C122.115 61.5519 125.119 63.3673 125.1 65.584L118.375 72.7502L118.384 72.7693ZM88.7257 51.7485H23.1901C17.7368 51.7485 16.1582 66.5204 22.4151 68.7658L68.6153 68.4601L88.7257 51.7581V51.7485ZM136.562 79.4578H108.339C106.99 79.4578 92.3804 93.7041 86.2765 94.6787C74.6427 96.5324 65.0181 89.2515 65.6304 77.2028L64.2048 75.76L24.5773 76.0467L7.40415 142.042V219.437L8.83924 220.87H121.254V140.131L136.562 79.4578ZM155.696 218.959V140.131C155.696 135.316 145.201 97.6407 142.972 90.723C142.647 89.7197 142.733 87.8374 141.355 88.0667L127.951 142.042V218.004L138.523 214.507L138.504 144.938C139.394 140.236 145.172 141.24 145.172 142.998V213.704L155.696 218.959Z" fill="black"/>
<path d="M136.562 79.458L121.254 140.132V220.871H8.83914L7.40405 219.437V142.043L24.5677 76.0564L64.1952 75.7698L65.6207 77.2126C65.018 89.2517 74.633 96.5421 86.2668 94.6885C92.3707 93.7139 106.98 79.4675 108.329 79.4675H136.552L136.562 79.458ZM109.773 181.667C120.317 169.112 109.773 168.701 106.463 160.627C105.334 157.875 105.239 153.164 104.062 149.648C92.9065 116.216 45.606 112.098 28.2893 142.836C24.5103 149.543 25.247 154.989 22.9508 160.436C21.5827 163.675 15.4788 167.64 15.0578 171.749C14.5986 176.259 18.4446 178.456 18.7604 180.434C18.9613 181.724 11.3075 187.944 16.5121 195.044C18.1098 197.222 21.0087 197.346 22.195 198.923C24.5103 202 23.4866 207.322 29.0547 210.226C33.1686 212.367 49.4234 213.924 54.7236 214.211C64.1282 214.708 91.9593 214.153 99.948 210.57C106.664 207.561 104.473 201.656 106.406 198.866C107.353 197.499 112.644 196.821 114.127 192.244C115.351 188.46 113.897 182.546 109.773 181.648V181.667Z" fill="#FFCCBD"/>
<path d="M118.384 72.7695L125.11 65.6033C125.12 63.3866 122.125 61.5712 120.039 62.4024L86.554 87.3121C78.2592 90.4843 70.7106 83.9679 72.6719 75.3684C74.2697 68.3265 103.488 51.8634 109.094 44.8023C109.554 34.0148 99.2115 45.0699 97.8242 45.0699H47.5962C55.8623 28.8552 72.6432 15.6981 90.6009 12.0577C99.508 10.2518 129.3 9.16253 137.787 10.892C139.566 11.255 141.9 12.7934 143.297 13.9878C155.342 24.2497 155.591 60.3386 142.8 69.9317C141.91 70.6006 137.7 72.7886 137.05 72.7886H118.394L118.384 72.7695Z" fill="white"/>
<path d="M155.696 218.96L145.172 213.705V142.998C145.172 141.24 139.394 140.227 138.504 144.938L138.523 214.507L127.951 218.004V142.043L141.355 88.0672C142.733 87.8378 142.646 89.7202 142.972 90.7234C145.201 97.6412 155.696 135.316 155.696 140.132V218.96Z" fill="#FFCCBD"/>
<path d="M204.489 75.636H183.92C181.843 75.636 168.822 71.3458 168.229 69.2724L170.085 61.3323C174.104 62.2973 191.535 65.116 192.119 58.8862C192.846 51.0226 176.84 58.6856 172.362 53.6884L172.133 30.3362C176.687 25.7116 183.862 27.4602 189.564 28.5876C191.516 27.8615 192.616 25.7498 191.966 23.7146C185.776 17.8193 177.481 21.1061 170.095 22.0999L168.239 14.1597C172.41 10.2518 178.571 8.79943 184.053 7.92038C189.851 6.99356 199.476 5.61765 204.508 8.28347V75.6455L204.489 75.636Z" fill="#4E8CFF"/>
<path d="M88.7255 51.7488L68.6152 68.4508L22.415 68.7565C16.1484 66.5111 17.727 51.7393 23.1899 51.7393H88.7255V51.7488Z" fill="#FFCCBD"/>
<path d="M147.086 75.6262C163.532 58.9147 164.125 24.7463 147.086 8.27369C161.102 5.15879 165.311 25.9025 166.096 36.1071C167.053 48.4712 164.575 77.1168 147.086 75.6262Z" fill="white"/>
<path d="M109.774 181.667C113.897 182.565 115.351 188.479 114.127 192.263C112.644 196.84 107.353 197.518 106.406 198.884C104.473 201.665 106.664 207.57 99.948 210.589C91.9498 214.172 64.1282 214.727 54.7236 214.23C49.4234 213.953 33.1591 212.395 29.0547 210.245C23.4866 207.341 24.5103 202.019 22.195 198.942C21.0087 197.365 18.1098 197.241 16.5121 195.063C11.3171 187.963 18.9709 181.743 18.7604 180.453C18.4447 178.475 14.5986 176.278 15.0579 171.768C15.4788 167.65 21.5732 163.694 22.9508 160.455C25.2565 155.018 24.5103 149.572 28.2894 142.855C45.6156 112.116 92.9065 116.235 104.062 149.667C105.239 153.183 105.334 157.894 106.463 160.646C109.774 168.71 120.317 169.121 109.774 181.686V181.667ZM99.2496 158.763C94.6095 132.593 64.6831 119.502 42.889 136.395C37.8088 140.332 30.5568 150.842 30.3463 157.349C30.2793 159.375 34.0201 159.308 35.7614 159.595C56.7806 163.044 78.2973 161.764 99.2591 158.763H99.2496ZM101.928 165.662C77.6755 168.615 53.1642 169.99 28.9782 165.423C26.8638 165.691 22.4438 171.567 22.6543 173.526C30.8725 189.158 35.2734 174.806 42.755 172.58C45.1564 171.863 49.2607 171.796 51.6908 172.351C57.2398 173.621 60.0717 183.234 65.2476 182.679C70.4235 182.125 72.136 170.927 83.4732 172.121C92.83 173.105 98.0824 190.209 106.444 173.182L101.919 165.672L101.928 165.662ZM52.3605 182.651C51.9109 177.663 45.2999 177.52 42.8029 181.227L52.3605 182.651ZM86.8122 181.686C83.9898 177.281 78.3834 178.007 76.2882 182.641L86.8122 181.686ZM21.841 191.164C22.4151 192.024 39.6648 193.887 42.3245 194.107C57.5077 195.34 90.3233 195.922 104.445 192.148C106.1 191.709 107.688 190.983 107.784 188.976L104.473 186.473C78.0007 190.791 50.6193 190.428 24.118 186.444C21.9272 186.176 20.9513 189.846 21.8219 191.164H21.841ZM99.24 199.859C84.3917 200.738 69.639 202.315 54.7141 201.808C48.1031 201.579 40.4015 200.241 33.7331 199.821C32.078 199.716 29.9828 199.095 30.3463 201.302C30.9586 205.028 35.5892 204.847 38.6507 205.439C51.9683 207.99 69.9738 208.095 83.4541 206.548C88.2281 206.003 99.3931 205.764 99.24 199.869V199.859Z" fill="black"/>
<path d="M99.2496 158.763C78.2974 161.764 56.7711 163.044 35.7519 159.595C34.0106 159.308 30.2699 159.384 30.3368 157.349C30.5473 150.833 37.7993 140.332 42.8795 136.395C64.6736 119.502 94.6095 132.592 99.2401 158.763H99.2496ZM54.4176 132.143C52.2267 135.564 59.4978 143.657 62.9611 141.154C67.2759 136.816 57.0486 128.035 54.4176 132.143ZM81.6746 141.765C74.6044 143.103 83.8464 155.658 88.63 147.594C89.3858 144.718 83.9612 141.335 81.6746 141.765ZM46.3715 144.555C42.6403 145.119 38.2681 151.196 42.4585 153.909C46.2758 154.98 52.5041 149.447 49.5861 145.797C48.6772 144.718 47.797 144.335 46.3715 144.555ZM68.3475 150.317C65.6112 151.11 61.4208 157.321 65.4199 158.649C72.6527 161.047 75.6186 148.215 68.3475 150.317Z" fill="#DFB55B"/>
<path d="M101.928 165.662L106.454 173.172C98.0919 190.209 92.8394 173.096 83.4827 172.112C72.1359 170.927 70.2703 182.144 65.2571 182.67C60.2439 183.195 57.2493 173.602 51.7003 172.341C49.2798 171.787 45.1659 171.863 42.7645 172.57C35.2734 174.797 30.882 189.148 22.6638 173.516C22.4533 171.558 26.8733 165.681 28.9877 165.414C53.1737 169.981 77.6849 168.605 101.938 165.653L101.928 165.662Z" fill="#4E8CFF"/>
<path d="M21.8412 191.164C20.961 189.836 21.9465 186.176 24.1374 186.444C50.6386 190.428 78.0201 190.791 104.493 186.473L107.803 188.976C107.707 190.983 106.109 191.709 104.464 192.148C90.3427 195.922 57.5175 195.34 42.3438 194.107C39.6745 193.887 22.4248 192.024 21.8604 191.164H21.8412Z" fill="#FF8181"/>
<path d="M99.24 199.859C99.3835 205.745 88.2281 205.984 83.4541 206.538C69.9739 208.086 51.9683 207.991 38.6507 205.43C35.5892 204.847 30.9586 205.028 30.3463 201.293C29.9828 199.085 32.0876 199.716 33.7331 199.812C40.4015 200.222 48.1031 201.57 54.7141 201.799C69.639 202.315 84.3917 200.738 99.24 199.85V199.859Z" fill="#DFB55B"/>
<path d="M86.812 181.686L76.2881 182.641C78.3833 178.007 83.9897 177.281 86.812 181.686Z" fill="#896D32"/>
<path d="M52.3606 182.651L42.803 181.227C45.3 177.52 51.911 177.663 52.3606 182.651Z" fill="#896D32"/>
<path d="M54.4175 132.144C57.0485 128.035 67.2759 136.816 62.961 141.154C59.4977 143.657 52.2266 135.564 54.4175 132.144Z" fill="black"/>
<path d="M46.3713 144.555C47.7969 144.345 48.677 144.718 49.5859 145.797C52.5039 149.447 46.2757 154.98 42.4583 153.91C38.2679 151.196 42.6401 145.119 46.3713 144.555Z" fill="black"/>
<path d="M81.6746 141.766C83.9611 141.336 89.3858 144.718 88.6299 147.594C83.8463 155.668 74.6139 143.103 81.6746 141.766Z" fill="black"/>
<path d="M68.3473 150.317C75.6279 148.215 72.6525 161.048 65.4197 158.649C61.4206 157.321 65.611 151.111 68.3473 150.317Z" fill="black"/>
</svg>
