<svg width="343" height="275" viewBox="0 0 343 275" fill="none" xmlns="http://www.w3.org/2000/svg">
<path d="M25.1057 198.43C21.5161 199.482 21.2854 205.691 25.6683 206.681C28.2114 207.253 40.6567 207.151 43.5036 206.749C49.158 205.951 48.9273 199.414 44.5613 198.435C42.7666 198.034 26.6248 197.988 25.1057 198.435V198.43ZM3.16879 218.244C-0.876507 219.262 -1.20283 225.335 3.0844 226.009L46.4124 225.522C49.0061 222.947 47.7233 218.73 44.0887 218.159L3.16879 218.244ZM26.259 237.48C21.1954 238.29 21.2235 244.832 25.1113 245.732C27.4968 246.281 41.4331 246.236 44.0887 245.823C48.8598 245.076 49.2593 238.324 43.8693 237.616C40.9099 237.226 34.7266 238.012 31.1595 237.962C29.421 237.939 28.2564 237.175 26.2647 237.492L26.259 237.48Z" fill="white"/>
<path d="M168.182 140.584H190.968C194.389 140.584 196.915 146.034 195.503 149.107L172.683 211.328H205.034C208.134 211.328 214.053 206.738 216.022 204.27L260.751 154.229C260.267 149.011 255.158 141.195 258.275 136.413C259.035 135.247 260.391 134.93 260.751 134.353C261.775 132.728 256.301 116.644 255.873 113.492L230.037 113.163C224.951 110.781 225.941 104.368 230.937 102.693C240.53 103.316 251.31 101.765 260.757 102.637C263.547 102.891 265.072 104.091 266.36 106.621L273.095 133.238C279.154 135.236 286.125 130.753 288.989 138.756C289.822 141.076 294.21 157.925 294.087 159.407C293.642 164.716 281.984 169.362 277.934 172.345L279.053 176.216C302.453 169.685 328.306 181.134 338.365 203.41C357.062 244.798 315.883 288.173 273.961 271.025C234.988 255.082 232.586 201.492 268.234 180.427L264.948 167.184C263.823 167.042 263.086 168.14 262.411 168.87C249.15 183.302 236.158 200.377 222.205 213.886C208.252 227.395 188.611 221.04 170.455 222.67C163.36 269.349 106.619 287.403 75.3593 250.073C49.7766 219.528 66.5936 172.164 104.61 163.494L100.019 149.147L64.4331 149.005C57.5746 147.873 53.9738 143.889 53.3774 136.922V68.3966C53.8332 62.2277 56.1962 57.4341 62.6833 56.2512L161.171 56.7889C163.382 57.5699 168.176 62.1088 168.176 64.4575V140.578L168.182 140.584ZM114.158 162.656C116.763 157.104 118.468 148.722 121.371 143.589C121.844 142.751 122.373 141.993 123.177 141.444L158.465 140.72L160.001 139.435L160.569 65.8894L159.163 64.4745L62.2163 64.7009C61.3443 65.2555 61.333 66.8855 61.2542 67.8363C59.4313 89.948 62.6889 114.55 61.2542 136.933C61.2149 138.433 61.6593 140.069 63.1053 140.731L104.205 141.269C105.409 141.812 106.017 142.859 106.574 143.98C107.992 146.809 111.193 161.524 112.448 162.407L114.158 162.656ZM279.019 145.111H270.58L274.805 161.53L281.878 157.217L279.019 145.111ZM182.81 151.337H127.391L122.609 162.65C137.918 164.167 151.697 172.175 160.772 184.541L166.77 194.355L182.81 151.337ZM111.227 174.133C86.0549 176.98 69.176 203.218 76.3102 227.616C86.9045 263.848 136.596 269.587 154.206 236.043C170.73 204.559 145.716 170.234 111.227 174.133ZM272.825 191.52C247.237 206.964 248.553 245.302 275.261 258.97C306.037 274.72 340.155 245.257 329.673 212.16C323.596 192.968 302.194 181.949 282.958 186.998L283.397 189.669L298.593 221.939C299.854 228.34 291.695 231.612 288.477 225.873L272.825 191.525V191.52Z" fill="black"/>
<path d="M3.16879 218.244L44.0887 218.159C47.7233 218.731 49.0061 222.947 46.4124 225.522L3.0844 226.009C-1.20283 225.335 -0.876507 219.263 3.16879 218.244Z" fill="black"/>
<path d="M25.1056 198.43C26.6247 197.983 42.7665 198.028 44.5613 198.43C48.9273 199.409 49.1636 205.946 43.5036 206.744C40.6623 207.146 28.2114 207.253 25.6683 206.676C21.2854 205.686 21.5161 199.477 25.1056 198.424V198.43Z" fill="black"/>
<path d="M26.2592 237.48C28.2509 237.164 29.4156 237.928 31.1541 237.95C34.7212 238.001 40.9044 237.214 43.8639 237.605C49.2538 238.318 48.8544 245.064 44.0833 245.811C41.4333 246.23 27.4914 246.275 25.1058 245.721C21.2237 244.826 21.19 238.278 26.2536 237.469L26.2592 237.48Z" fill="black"/>
<path d="M114.158 162.656L112.448 162.407C111.193 161.524 107.992 146.809 106.574 143.979C106.011 142.859 105.404 141.812 104.205 141.268L63.1054 140.731C61.6594 140.069 61.2149 138.427 61.2543 136.933V67.8361C61.3331 66.8853 61.3443 65.261 62.2164 64.7007L159.163 64.4744L160.569 65.8892L160.001 139.435L158.465 140.719L123.177 141.444C122.373 141.993 121.844 142.751 121.371 143.589C118.468 148.722 116.763 157.104 114.158 162.656Z" fill="#4E8CFF"/>
<path d="M279.019 145.111L281.878 157.223L274.805 161.535L270.58 145.111H279.019Z" fill="white"/>
<path d="M137.087 171.534C138.322 169.702 140.808 169.217 142.64 170.452C144.472 171.686 144.955 174.173 143.721 176.005L118.712 213.115H165.847C168.055 213.115 169.846 214.906 169.847 217.115C169.847 219.324 168.056 221.115 165.847 221.115H111.192C109.714 221.115 108.356 220.299 107.661 218.994C106.967 217.688 107.049 216.106 107.875 214.88L137.087 171.534Z" fill="black"/>
<path d="M110.251 47.0088C110.504 46.98 110.582 47.0276 110.602 47.0381C110.651 47.0641 110.808 47.1636 111.031 47.4932C111.529 48.2268 111.984 49.5231 112.362 51.4082C112.729 53.2389 112.959 55.2528 113.207 57.2832C113.44 59.1872 113.706 61.2728 114.187 62.8467V62.8477C115.553 67.3275 117.648 70.4792 120.272 72.6582C122.874 74.818 125.777 75.8368 128.436 76.4268C129.759 76.7203 131.06 76.9149 132.241 77.0801C133.462 77.2507 134.503 77.3834 135.489 77.5625C137.389 77.9077 138.425 78.3289 139.036 78.877L139.153 78.9883C139.711 79.5566 139.906 79.9194 139.971 80.0762C139.834 80.2542 139.496 80.5763 138.792 80.9805C138.081 81.3882 137.162 81.7886 136.069 82.1758C133.874 82.9537 131.309 83.5668 128.952 84.1162C127.807 84.3833 126.682 84.6419 125.748 84.8877C125 85.0847 124.137 85.3311 123.431 85.6514L123.14 85.793C115.599 89.7157 113.828 97.9556 112.843 103.969C112.303 107.26 112.012 109.825 111.424 111.841C110.816 113.923 110.287 113.979 110.255 113.986C110.251 113.987 110.246 113.987 110.242 113.988C110.145 113.897 109.942 113.666 109.68 113.155C108.977 111.789 108.415 109.584 107.854 106.713C107.332 104.036 106.807 100.755 106.144 97.958C105.494 95.2214 104.565 92.2198 102.878 90.1729V90.1719L102.52 89.7588C100.684 87.741 98.2157 86.4705 95.8398 85.5791C93.2899 84.6224 90.4876 83.9783 88.0908 83.416C85.5594 82.8222 83.5816 82.3382 82.1904 81.7178C81.5162 81.417 81.1837 81.1688 81.041 81.0234C81.0266 81.0087 81.0163 80.9953 81.0078 80.9854C80.9749 80.496 81.0663 80.2252 81.1611 80.0488C81.2735 79.8399 81.5027 79.5584 81.9951 79.2246C83.0779 78.4906 84.8077 77.8988 87.2529 77.2383C89.5095 76.6287 92.3611 75.9646 94.9121 75.0381C97.4852 74.1035 100.207 72.7561 102.203 70.4922C104.152 68.2817 105.278 65.4293 106.038 62.71C106.801 59.9796 107.286 57.0198 107.739 54.5127C108.217 51.8679 108.649 49.8079 109.259 48.374C109.553 47.6821 109.815 47.3234 109.988 47.1533C110.114 47.0301 110.173 47.0177 110.251 47.0088Z" fill="white" stroke="black" stroke-width="6" stroke-linejoin="round"/>
<path d="M54.4258 2.84863C54.5929 3.2265 54.7705 3.79639 54.9307 4.59863C55.1446 5.67026 55.2782 6.85311 55.4287 8.08887C55.5664 9.21949 55.7318 10.5404 56.041 11.5576V11.5586C56.8928 14.3635 58.2154 16.3868 59.9121 17.8018C61.5903 19.2012 63.4506 19.8505 65.1074 20.2197C65.9304 20.4031 66.7341 20.524 67.4463 20.624C68.1909 20.7286 68.7933 20.8056 69.3662 20.9102C70.5558 21.1272 70.9931 21.3703 71.1885 21.5693C71.2056 21.5868 71.2208 21.6047 71.2363 21.6211C71.201 21.6429 71.1644 21.6685 71.123 21.6924C70.7466 21.9094 70.2375 22.1341 69.6045 22.3594C68.3301 22.813 66.8288 23.1746 65.4102 23.5068C64.7281 23.6666 64.0405 23.8252 63.4678 23.9766C63.024 24.0939 62.4511 24.2553 61.96 24.4795L61.7568 24.5781C56.8918 27.1203 55.8013 32.4396 55.2148 36.0352C54.8828 38.0708 54.7192 39.5374 54.3818 40.6992C54.3774 40.7146 54.3706 40.7293 54.3662 40.7441C54.101 40.0076 53.8555 38.9809 53.6006 37.6689C53.2943 36.0923 52.9695 34.0668 52.5674 32.3652C52.1772 30.7142 51.5933 28.7631 50.4707 27.3945L50.4697 27.3936C49.2384 25.8939 47.5213 25.0061 45.9531 24.415C44.3723 23.8193 42.6436 23.4202 41.2168 23.084C39.6776 22.7213 38.5642 22.4442 37.8037 22.1035C37.707 22.0602 37.628 22.0219 37.5645 21.9883C37.6046 21.9454 37.6749 21.8818 37.7939 21.8008C38.3334 21.4334 39.2614 21.1017 40.7373 20.7012C42.0556 20.3435 43.8215 19.9286 45.3896 19.3564C46.977 18.7773 48.7396 17.9149 50.0508 16.4209C51.3217 14.9727 52.0319 13.1362 52.498 11.4609C52.9669 9.77611 53.2646 7.95098 53.5332 6.45801C53.8224 4.85056 54.0704 3.68519 54.4014 2.90332C54.4094 2.88433 54.418 2.86633 54.4258 2.84863Z" fill="white" stroke="black" stroke-width="5" stroke-linejoin="round"/>
</svg>
