<svg width="173" height="150" viewBox="0 0 173 150" fill="none" xmlns="http://www.w3.org/2000/svg">
<path d="M149.605 68.682V50.3716C149.605 40.3025 138.92 29.7886 128.913 29.3094L42.6964 29.3642C34.4516 29.4943 22.9759 40.1862 22.9759 48.3181V68.3397C17.7703 67.5799 13.4443 67.8024 8.83756 70.4583C-0.516163 75.8556 -2.94614 88.69 3.97417 97.0922C5.44243 98.8754 7.49935 100.094 8.94365 101.706C9.31328 108.291 8.44739 115.392 8.92654 121.916C9.53232 130.15 15.1624 135.801 23.2669 136.838C23.8589 139.952 21.761 148.094 25.69 149.303C26.8879 149.672 35.6666 149.676 37.1896 149.47C41.7861 148.851 40.2049 140.096 41.1118 136.793H131.466C131.997 139.791 131.22 146.842 133.684 148.779C134.283 149.248 134.635 149.378 135.392 149.467C137.284 149.689 144.889 149.724 146.532 149.299C150.923 148.163 148.702 140.182 149.304 136.845C156.242 136.075 162.686 130.427 163.306 123.292C163.911 116.327 162.833 108.503 163.289 101.446C181.452 90.6682 169.901 63.3531 149.605 68.6923V68.682Z" fill="white"/>
<path d="M149.605 68.682C169.901 63.3463 181.452 90.6579 163.289 101.435C162.837 108.493 163.911 116.316 163.306 123.281C162.686 130.417 156.242 136.064 149.304 136.834C148.702 140.171 150.92 148.153 146.532 149.289C144.886 149.713 137.284 149.679 135.392 149.457C134.635 149.368 134.279 149.241 133.684 148.769C131.22 146.832 131.993 139.785 131.466 136.783H41.1118C40.2083 140.086 41.7861 148.841 37.1896 149.46C35.6666 149.665 26.8879 149.662 25.69 149.292C21.761 148.084 23.859 139.942 23.2669 136.828C15.1624 135.791 9.53232 130.14 8.92654 121.905C8.44739 115.386 9.30986 108.284 8.94365 101.696C7.49935 100.084 5.44243 98.8651 3.97417 97.082C-2.94614 88.6797 -0.516163 75.8453 8.83756 70.448C13.4443 67.7887 17.7703 67.5663 22.9759 68.3295V48.3078C22.9725 40.1828 34.4516 29.4943 42.6964 29.3642L128.913 29.3094C138.92 29.7886 149.605 40.3025 149.605 50.3716V68.682ZM136.258 104.618V83.9122C136.258 83.6692 136.723 81.886 136.839 81.4137C138.03 76.5401 141.155 73.6789 144.745 70.4959C144.52 64.2943 145.29 57.5246 144.831 51.3881C144.129 42.0412 136.918 34.7581 127.547 34.1044H44.6952C36.1937 34.6828 28.493 41.3225 27.7538 50.0191C27.1891 56.669 28.2055 64.0993 27.7606 70.8382C30.9709 72.8883 33.3804 75.7392 34.7768 79.302C35.0026 79.877 35.9815 82.5603 35.9815 82.8888V104.622C38.5997 102.513 41.632 101.114 45.0374 100.843H126.863C130.333 101.056 133.636 102.377 136.258 104.622V104.618ZM31.1865 131.656V83.9122C31.1865 81.1502 27.4765 76.3587 25.1355 74.9041C11.5995 66.4882 -2.92903 84.5008 9.44334 95.7301C10.9424 97.0888 13.2355 97.7973 13.6496 100.08C15.0049 107.565 11.4215 121.615 15.8434 127.662C16.8565 129.048 20.1045 131.656 21.7746 131.656H31.1865ZM141.049 131.656H150.461C151.358 131.656 154.623 129.787 155.386 129.052C161.358 123.305 157.152 108.274 158.583 100.419C159.106 97.5406 161.844 97.0272 163.648 95.2167C173.666 85.1614 162.758 68.5759 149.609 73.6481C146.053 75.0205 141.049 80.2843 141.049 84.2544V131.656ZM136.258 131.656V113.688C136.258 110.885 131.261 105.929 128.215 105.987L44.3461 105.974C40.3862 105.919 35.9746 111.008 35.9746 114.715V131.656H136.254H136.258Z" fill="black"/>
<path d="M136.257 104.618C133.632 102.377 130.333 101.056 126.862 100.837H45.037C41.6282 101.11 38.5959 102.507 35.9811 104.618V82.8855C35.9811 82.557 35.0023 79.8737 34.7764 79.2987C33.38 75.7359 30.9705 72.885 27.7602 70.8349C28.2051 64.0994 27.1887 56.6691 27.7534 50.0157C28.4926 41.3191 36.1899 34.6795 44.6948 34.1011H127.547C136.918 34.7548 144.129 42.0379 144.831 51.3847C145.293 57.5213 144.519 64.291 144.745 70.4926C141.155 73.6756 138.033 76.5402 136.839 81.4104C136.723 81.8827 136.257 83.6659 136.257 83.9089V104.615V104.618Z" fill="#4E8CFF"/>
<path d="M136.258 131.656H35.978V114.715C35.978 111.008 40.3896 105.919 44.3495 105.974L128.218 105.988C131.264 105.933 136.261 110.889 136.261 113.688V131.656H136.258Z" fill="#4E8CFF"/>
<path d="M141.049 131.656V84.2547C141.049 80.288 146.053 75.0208 149.609 73.6484C162.758 68.5762 173.666 85.1617 163.648 95.217C161.844 97.0275 159.106 97.5409 158.583 100.419C157.152 108.274 161.355 123.306 155.386 129.052C154.623 129.788 151.358 131.656 150.461 131.656H141.049Z" fill="#4E8CFF"/>
<path d="M31.1866 131.656H21.7747C20.1045 131.656 16.8566 129.045 15.8435 127.662C11.4216 121.615 15.005 107.565 13.6497 100.08C13.2355 97.7973 10.9425 97.0889 9.4434 95.7302C-2.92897 84.5009 11.5962 66.4917 25.1356 74.9042C27.4732 76.3587 31.1866 81.1503 31.1866 83.9122V131.656Z" fill="#4E8CFF"/>
<path d="M99.4985 43.0332C99.5941 43.0349 99.6309 43.0525 99.688 43.0996C99.9307 43.3001 100.301 43.917 100.619 45.2754C100.915 46.5439 101.077 48.033 101.245 49.5576C101.379 50.7864 101.526 52.1705 101.809 53.2588L101.939 53.7061C102.734 56.151 104.005 57.9557 105.623 59.2891C107.214 60.6004 109.048 61.3783 110.857 61.9268C112.633 62.4652 114.565 62.8298 116.267 63.2031C117.556 63.4858 118.761 63.783 119.878 64.1719C119.759 65.001 119.433 65.3762 119.123 65.6182C118.474 66.1241 117.394 66.4415 115.606 66.7734C112.43 67.3629 107.242 67.8632 104.084 72.2637V72.2646C101.822 75.4198 101.625 79.2944 101.263 81.9385C100.936 84.3298 100.511 85.8244 99.353 86.7754C97.9417 85.7439 97.5167 84.0646 97.1636 81.3457C96.7935 78.4962 96.5456 74.4143 93.7603 71.2236L93.4829 70.918L93.2183 70.6494C91.8681 69.3448 90.1295 68.559 88.4614 68.0205C86.6776 67.4447 84.7336 67.0813 83.0903 66.7529C81.3508 66.4053 80.0108 66.1058 79.0806 65.6885C78.1763 65.2827 78.2118 65.0281 78.2095 64.998C78.1839 64.7063 78.2356 64.5428 78.5786 64.2871C79.0422 63.9417 79.8522 63.6195 81.0435 63.332C82.2101 63.0505 83.4745 62.8594 84.7915 62.6338C86.0148 62.4243 87.3867 62.1702 88.4468 61.7363L88.4507 61.7344C94.5137 59.2397 96.2819 54.3033 97.0483 50.2207C97.2379 49.2107 97.372 48.2278 97.4907 47.3525C97.6125 46.4545 97.715 45.6947 97.8472 45.0312C97.9808 44.3604 98.1214 43.9172 98.2642 43.6318C98.3307 43.4989 98.3834 43.4288 98.4126 43.3965C98.4266 43.381 98.436 43.3734 98.439 43.3711C98.4406 43.3698 98.4415 43.3694 98.4419 43.3691H98.4429C99.0268 43.0727 99.359 43.0309 99.4985 43.0332Z" fill="white" stroke="black" stroke-width="4" stroke-linejoin="round"/>
<path d="M60.3438 2.00195C60.3618 2.01443 60.4239 2.06281 60.5166 2.19922C60.7874 2.59754 61.0526 3.33141 61.2764 4.44531C61.4928 5.52285 61.6271 6.70956 61.7754 7.91992C61.9134 9.04647 62.0739 10.3071 62.3672 11.2646C63.191 13.9602 64.4587 15.8713 66.0586 17.1973C67.6431 18.5104 69.4061 19.1259 71.0068 19.4805C71.8032 19.6569 72.5847 19.7738 73.2891 19.8721C74.0189 19.9739 74.6317 20.0518 75.2129 20.1572C76.2625 20.3476 76.8255 20.5717 77.1533 20.8311L77.2803 20.9443C77.4821 21.1496 77.5934 21.3025 77.6553 21.4014C77.5579 21.4921 77.3897 21.6257 77.1113 21.7852C76.7036 22.0187 76.1698 22.2519 75.5264 22.4795C74.2324 22.9372 72.7166 23.2992 71.3125 23.626C70.6322 23.7843 69.959 23.9389 69.3994 24.0859C68.8922 24.2192 68.2723 24.3959 67.8018 24.6406C63.2091 27.0264 62.1458 32.033 61.5605 35.5986C61.2368 37.5711 61.0666 39.0694 60.7217 40.25C60.5576 40.8115 60.3989 41.1221 60.2803 41.2803C60.2752 41.287 60.2683 41.292 60.2637 41.2979C60.2151 41.2298 60.1511 41.1327 60.0791 40.9932C59.6767 40.2124 59.3477 38.9313 59.0137 37.2227C58.7051 35.644 58.3895 33.6787 57.9932 32.0117C57.6063 30.3847 57.0439 28.5557 56.0049 27.2969L55.7852 27.043C54.6594 25.8072 53.1527 25.0375 51.7256 24.5029C50.1927 23.9288 48.5109 23.5432 47.0879 23.21C45.5749 22.8556 44.419 22.5726 43.6133 22.2139C43.2733 22.0625 43.1095 21.9479 43.0361 21.8848C43.0327 21.6841 43.0722 21.5835 43.1035 21.5254C43.1495 21.4401 43.2574 21.297 43.5303 21.1123C44.1413 20.6988 45.1375 20.3542 46.5957 19.9609C47.9282 19.6016 49.6423 19.2031 51.1719 18.6484C52.7161 18.0885 54.3753 17.2719 55.5986 15.8867C56.7905 14.537 57.4719 12.8054 57.9277 11.1777C58.3856 9.54262 58.6767 7.77011 58.9453 6.28613C59.2306 4.71043 59.4834 3.51115 59.835 2.68555C60.0037 2.28936 60.1459 2.10432 60.2217 2.03027C60.2363 2.01603 60.247 2.0083 60.2529 2.00391C60.3017 1.99836 60.3298 2.00025 60.3438 2.00195Z" fill="white" stroke="black" stroke-width="4" stroke-linejoin="round"/>
</svg>
