<svg width="184" height="135" viewBox="0 0 184 135" fill="none" xmlns="http://www.w3.org/2000/svg">
<path d="M132.533 56.0163H35.2927C35.2124 55.5112 35.8793 55.5599 36.2529 55.4101C61.8426 45.2937 89.4085 37.2395 115.431 27.8059C118.476 26.7016 125.253 24.803 127.585 23.211C129.286 22.0509 130.008 20.4171 129.774 18.3862C129.603 16.9196 123.999 3.29161 123.085 2.04099C121.395 -0.261689 118.982 -0.432387 116.468 0.619668C80.1035 14.1327 42.7717 25.2628 6.48034 38.9395C3.39729 40.1031 0.0733228 40.6605 0 44.6945L4.57046 59.6706C4.94755 81.9693 3.79533 104.477 5.16053 126.664C6.48733 130.737 9.8078 133.6 14.1548 134.063H126.615C131.562 133.827 135.822 130.085 136.552 125.166L136.559 60.012C136.503 58.0159 134.324 56.3089 132.536 56.0128L132.533 56.0163Z" fill="white"/>
<path d="M132.533 56.0163C134.32 56.3124 136.503 58.0194 136.555 60.0155L136.548 125.17C135.818 130.085 131.555 133.83 126.611 134.067H14.1548C9.8078 133.604 6.48733 130.74 5.16053 126.668C3.79184 104.481 4.94755 81.9763 4.57046 59.6741L0 44.6945C0.0733228 40.6605 3.39729 40.1031 6.48034 38.9396C42.7717 25.2629 80.1035 14.1327 116.465 0.619718C118.979 -0.432336 121.391 -0.258154 123.081 2.04104C123.996 3.28818 129.603 16.9161 129.771 18.3862C130.005 20.4172 129.282 22.051 127.582 23.211C125.249 24.803 118.472 26.7016 115.428 27.8059C89.405 37.2396 61.8391 45.2937 36.2494 55.4102C35.8758 55.5565 35.2089 55.5112 35.2892 56.0163H132.529H132.533ZM115.25 6.89721L100.676 11.8579L95.7003 28.8406L110.033 23.8102L115.25 6.89721ZM82.0797 18.3932L65.7601 24.0506L60.439 41.3851L77.0134 35.456C78.7418 29.7916 80.8402 24.1621 82.0797 18.3932ZM42.5447 47.5755L47.8589 30.2375L31.5288 35.8879C29.6539 41.6324 28.1315 47.4954 26.2147 53.2259L42.5447 47.5755ZM13.9942 42.0818L5.96359 44.8722L9.45865 56.3647C10.2303 56.0686 10.349 54.9155 10.5934 54.1909C11.9342 50.2544 12.9188 46.1019 13.9907 42.0818H13.9942ZM44.72 60.8934H27.4367L17.8349 73.7828H35.4673C38.0301 70.334 40.8164 66.9723 43.2605 63.4434C43.5154 63.0742 44.9748 61.1164 44.72 60.8934ZM81.3814 60.8934H63.9236C61.5982 64.9762 58.1939 68.3902 55.6171 72.2883C55.2959 72.7726 54.7617 73.1453 54.8455 73.7828H72.1287L81.3814 60.8934ZM116.995 60.8934H100.41L90.8086 73.7828H107.743L116.995 60.8934ZM131.314 73.7828L131.14 69.9508L128.521 73.7793H131.314V73.7828ZM131.311 78.6599H10.328L9.80431 79.1824V123.773C9.80431 125.396 11.798 128.019 13.453 128.493C51.4517 129.089 89.7227 128.96 127.725 128.559C128.877 128.371 131.311 125.762 131.311 124.818V78.6599Z" fill="black"/>
<path d="M131.311 78.6599V124.818C131.311 125.759 128.877 128.371 127.725 128.559C89.7229 128.96 51.4518 129.089 13.4531 128.493C11.7946 128.019 9.80444 125.4 9.80444 123.773V79.1825L10.3282 78.6599H131.311Z" fill="white"/>
<path d="M82.0797 18.3931C80.8402 24.1619 78.7417 29.7915 77.0134 35.4559L60.439 41.385L65.7601 24.0505L82.0797 18.3931Z" fill="white"/>
<path d="M42.5449 47.5754L26.2148 53.2259C28.1317 47.4953 29.654 41.6289 31.529 35.8879L47.8591 30.2374L42.5449 47.5754Z" fill="white"/>
<path d="M44.72 60.8933C44.9749 61.1128 43.5154 63.0741 43.2605 63.4433C40.8164 66.9757 38.0302 70.3339 35.4674 73.7827H17.835L27.4368 60.8933H44.72Z" fill="white"/>
<path d="M115.249 6.89722L110.033 23.8102L95.7002 28.8406L100.672 11.8579L115.249 6.89722Z" fill="white"/>
<path d="M81.3811 60.8933L72.1285 73.7827H54.8452C54.7614 73.1452 55.2956 72.7725 55.6169 72.2883C58.1971 68.3901 61.6014 64.9796 63.9233 60.8933H81.3811Z" fill="white"/>
<path d="M116.996 60.8933L107.743 73.7827H90.8091L100.411 60.8933H116.996Z" fill="white"/>
<path d="M131.314 73.783L128.521 73.7796L131.14 69.951L131.314 73.783Z" fill="white"/>
<path d="M71.2793 88.7588C71.4352 88.7615 71.5446 88.8072 71.6514 88.8965C71.9307 89.1301 72.2132 89.6865 72.4375 90.6582C72.6511 91.5839 72.767 92.663 72.8828 93.7324C72.9785 94.6162 73.0782 95.5558 73.2637 96.2803L73.3486 96.5762C73.8801 98.2307 74.7232 99.4378 75.79 100.328C76.8438 101.207 78.0684 101.738 79.3047 102.117C80.5241 102.492 81.8457 102.744 83.0488 103.011C84.0615 103.236 85.0195 103.478 85.9072 103.816C85.8632 104.721 85.556 105.164 85.1963 105.448C84.6583 105.873 83.8118 106.108 82.5752 106.341C80.3 106.768 76.8765 107.111 74.7881 110.058C73.2852 112.18 73.1541 114.78 72.8945 116.702C72.6467 118.538 72.3023 119.789 71.1846 120.556C69.8541 119.735 69.5166 118.336 69.2529 116.28C68.9803 114.155 68.8092 111.313 66.7949 109.149C65.8978 108.186 64.6743 107.607 63.458 107.209C62.2402 106.811 60.9099 106.56 59.7549 106.326C58.5516 106.083 57.5727 105.864 56.877 105.548C56.1962 105.239 56.0546 104.965 56.0332 104.719C56.0004 104.34 56.124 104.094 56.4531 103.846C56.8425 103.552 57.4706 103.309 58.3125 103.104C59.1426 102.901 60.0446 102.763 60.9521 102.605C61.8122 102.456 62.7265 102.282 63.4199 101.995L63.4219 101.994C67.4685 100.308 68.6535 96.9913 69.1768 94.1689C69.3068 93.4677 69.3985 92.7833 69.4814 92.1641C69.5659 91.5336 69.6392 90.983 69.7344 90.499C69.9171 89.5699 70.1272 89.2168 70.2939 89.083L70.3623 89.0381C70.8062 88.8099 71.1008 88.7557 71.2793 88.7588Z" fill="black" stroke="black" stroke-width="2" stroke-linejoin="round"/>
<path d="M85.8705 101.08C86.2842 107.339 78.1856 103.485 74.5759 108.579C71.9281 112.318 74.1053 117.684 70.1801 119.645C65.6861 117.6 68.5304 111.528 65.0345 107.773C62.1177 104.641 54.2777 105.849 54.0088 102.748C53.7399 99.6467 59.713 99.9657 62.0091 99.0139C69.1768 96.0279 66.3015 87.4148 68.8769 86.0917C73.1796 83.8796 72.4608 91.6873 73.2727 94.2132C75.181 100.154 81.2937 99.0244 85.8653 101.085L85.8705 101.08Z" fill="#4E8CFF" stroke="black" stroke-width="2" stroke-linejoin="round"/>
<path d="M173.207 44.7017C173.246 44.7023 173.256 44.7079 173.277 44.7251C173.383 44.8118 173.559 45.0946 173.711 45.7427C173.853 46.3462 173.93 47.0555 174.011 47.7856C174.085 48.4553 174.167 49.2301 174.347 49.7798C174.732 50.9581 175.348 51.8291 176.133 52.4722C176.904 53.104 177.791 53.4777 178.664 53.7407C179.52 53.9988 180.452 54.1738 181.27 54.3521C181.876 54.4844 182.443 54.6235 182.97 54.8032C182.91 55.1631 182.765 55.3253 182.63 55.4302C182.326 55.6661 181.814 55.817 180.952 55.9761C179.43 56.257 176.916 56.4976 175.386 58.6187C174.289 60.1398 174.193 62.0089 174.02 63.2681C173.865 64.3937 173.666 65.0902 173.139 65.5356C172.491 65.0516 172.29 64.2698 172.122 62.9849C171.939 61.5824 171.817 59.5282 170.339 57.9692C169.667 57.2607 168.765 56.8491 167.907 56.5737C167.047 56.2975 166.109 56.1233 165.319 55.9663C164.482 55.7998 163.841 55.6573 163.397 55.4595C163.185 55.3648 163.082 55.2836 163.037 55.2349C163.008 55.2031 163.004 55.1906 163.002 55.1646C162.991 55.045 163.006 54.9809 163.163 54.8647C163.38 54.7041 163.764 54.5509 164.336 54.4136C164.896 54.2792 165.502 54.1877 166.137 54.0796C166.725 53.9794 167.389 53.8573 167.903 53.6479H167.904C170.839 52.4473 171.696 50.0684 172.066 48.1069C172.158 47.6222 172.222 47.1506 172.279 46.7319C172.338 46.302 172.387 45.9401 172.45 45.6245C172.595 44.9037 172.742 44.8454 172.715 44.8589C172.992 44.7191 173.146 44.7007 173.207 44.7017Z" fill="white" stroke="black" stroke-width="2" stroke-linejoin="round"/>
<path d="M151.512 18.7095C151.521 18.7146 151.57 18.7434 151.642 18.8511C151.801 19.0907 151.949 19.516 152.071 20.1362C152.19 20.7381 152.264 21.4005 152.344 22.0679C152.419 22.6941 152.505 23.3805 152.66 23.8979C153.102 25.37 153.779 26.4085 154.631 27.1284C155.477 27.8428 156.421 28.1805 157.284 28.3755C157.714 28.4724 158.136 28.536 158.518 28.5903C158.913 28.6465 159.247 28.6899 159.564 28.7485C160.134 28.8539 160.457 28.9801 160.652 29.1382L160.729 29.2085C160.909 29.3944 160.968 29.5135 160.988 29.564C160.944 29.6206 160.839 29.7228 160.619 29.8511C160.392 29.9836 160.097 30.1149 159.745 30.2417C159.039 30.4964 158.213 30.6978 157.451 30.8784C157.081 30.9661 156.717 31.0513 156.414 31.1323C156.138 31.2063 155.809 31.3023 155.562 31.4331C153.114 32.7295 152.544 35.4469 152.227 37.4185C152.052 38.5002 151.958 39.3437 151.768 40.0063C151.677 40.3238 151.586 40.5105 151.511 40.6128C151.473 40.6646 151.446 40.6819 151.43 40.6899C151.422 40.6816 151.412 40.6726 151.401 40.6597C151.364 40.6125 151.318 40.5408 151.266 40.438C151.039 39.9893 150.857 39.2641 150.676 38.3198C150.507 37.4398 150.337 36.3612 150.123 35.4419C149.927 34.5994 149.65 33.6785 149.166 33.0103L149.066 32.8794C148.461 32.1322 147.603 31.6749 146.78 31.3608C145.954 31.0452 145.045 30.8326 144.271 30.6479C143.452 30.4524 142.817 30.2943 142.372 30.0923C142.157 29.9949 142.054 29.9153 142.011 29.8706C142.007 29.8672 142.004 29.8643 142.002 29.8618C141.991 29.6997 142.022 29.6103 142.052 29.5532C142.087 29.4864 142.159 29.3968 142.314 29.2896C142.659 29.052 143.212 28.8583 144.002 28.6411C144.729 28.4413 145.653 28.2219 146.479 27.9165C147.314 27.6079 148.2 27.1623 148.849 26.4136C149.48 25.6844 149.844 24.7452 150.09 23.8521C150.336 22.9546 150.492 21.9818 150.639 21.1577C150.793 20.288 150.933 19.6103 151.13 19.1392C151.225 18.9116 151.309 18.7951 151.362 18.7417C151.4 18.7046 151.412 18.7061 151.425 18.7046C151.466 18.6998 151.488 18.7022 151.496 18.7036C151.503 18.7049 151.507 18.7071 151.512 18.7095Z" fill="white" stroke="black" stroke-width="2" stroke-linejoin="round"/>
</svg>
