<svg width="148" height="160" viewBox="0 0 148 160" fill="none" xmlns="http://www.w3.org/2000/svg">
<path d="M124.066 55.3008C123.186 49.1998 118.476 44.008 112.214 43.042C110.424 42.7682 108.217 43.2486 106.723 42.8095C105.448 42.4376 104.751 40.4177 103.772 39.5395C95.2833 31.9352 82.1049 35.0864 78.701 45.9504C72.1899 45.3821 66.2045 49.3703 64.6326 55.7502C56.5965 56.928 52.0059 59.7538 49.8512 67.6835C49.5961 68.6289 49.8199 70.1632 49.5128 70.7056C49.3983 70.9071 46.6815 72.1779 45.7498 73.4229C42.3615 77.938 44.433 81.3062 47.509 85.0515C53.1718 107.906 54.7905 133.513 60.7967 156.068C61.0466 157.003 61.1454 158.418 62.1083 158.899L130.228 159.085L144.385 85.0515C147.56 81.1615 149.871 77.597 145.91 73.1388C145.035 72.1521 142.48 70.8968 142.376 70.7108C142.032 70.1012 142.376 68.5618 142.142 67.5854C139.898 58.3383 133.84 53.5495 124.071 55.3008H124.066Z" fill="white"/>
<path d="M124.066 55.3008C133.835 53.5495 139.888 58.3383 142.137 67.5854C142.376 68.5618 142.027 70.1012 142.371 70.7108C142.475 70.8968 145.03 72.1521 145.905 73.1388C149.866 77.597 147.555 81.1615 144.38 85.0515L130.223 159.085L62.1032 158.899C61.1403 158.418 61.0362 157.003 60.7916 156.068C54.7905 133.508 53.1667 107.906 47.5039 85.0515C44.4279 81.3062 42.3564 77.938 45.7447 73.4229C46.6763 72.1779 49.3932 70.9071 49.5077 70.7056C49.82 70.1632 49.591 68.6289 49.846 67.6835C52.0008 59.7538 56.5914 56.928 64.6275 55.7502C66.1993 49.3703 72.1848 45.3821 78.6959 45.9504C82.0998 35.0864 95.2782 31.9352 103.767 39.5395C104.746 40.4177 105.438 42.4376 106.718 42.8095C108.212 43.2434 110.424 42.763 112.209 43.042C118.471 44.008 123.186 49.1998 124.06 55.3008H124.066ZM82.4121 47.0352C84.671 47.7843 90.1203 52.1134 88.1789 54.5775L86.4197 55.2543C84.2025 53.503 82.4381 50.8219 79.4298 50.264C71.8985 48.8795 69.5304 53.2241 67.6306 59.4955C63.2274 60.2084 58.564 60.0689 55.6441 64.1294C53.1302 67.6216 54.5928 70.4732 53.5206 72.8702C52.5577 75.0192 47.176 74.4354 48.1597 79.2139C48.8779 82.701 52.5213 81.0943 54.5511 81.1253C58.9908 81.1873 62.0876 81.6264 65.5071 84.6692C71.2375 79.4257 79.7369 80.3401 85.7223 84.7053C91.5048 79.5394 100.618 80.0095 106.541 84.7208C112.339 79.4464 120.797 80.2213 126.84 84.7053C128.818 82.4892 131.805 81.4043 134.725 81.146C137.645 80.8877 142.053 82.6028 143.443 79.4516C145.436 74.9262 139.253 74.7092 138.363 72.8753C137.744 71.6045 138.243 68.9595 137.874 67.1618C137.057 63.1633 133.164 59.2114 128.984 58.9118C126.527 58.7361 122.65 60.8025 121.458 60.2446C119.522 59.3354 120.079 55.0011 119.053 52.7798C116.311 46.8544 110.414 46.3637 104.647 47.4847C102.731 46.1209 102.398 43.7652 100.603 42.1689C94.4663 36.7137 85.181 39.5808 82.4173 47.0352H82.4121ZM71.4821 155.014L63.446 90.4086C61.9158 84.5452 57.8249 85.1961 52.5629 85.3511L51.8082 86.4359L64.742 154.983L71.4873 155.009L71.4821 155.014ZM86.0554 155.014C85.2643 148.737 85.7535 142.445 85.5558 136.138C85.2122 125.16 84.5044 114.058 83.9787 103.091C83.7653 98.6482 84.2702 93.534 83.4426 89.1584C82.4121 83.7187 67.8805 83.9821 67.4901 89.7318L75.6459 155.014H86.0554ZM101.67 155.014L104.262 89.1584C103.288 84.0441 90.4534 83.9924 87.8927 88.3835L90.2244 155.014H101.675H101.67ZM116.243 155.014L124.498 89.6388C123.347 83.7703 110.783 84.1526 108.722 88.4042C107.135 91.6794 108.087 100.585 107.931 104.667C107.53 115.469 106.749 126.369 106.328 137.171C106.094 143.106 106.167 149.083 105.828 155.014H116.238H116.243ZM140.18 85.2788C135.334 85.1393 129.822 84.6485 128.438 90.4086L120.401 155.014L126.824 155.035L140.18 85.2736V85.2788Z" fill="black"/>
<path d="M82.4121 47.0352C85.1758 39.5807 94.4611 36.7136 100.597 42.1689C102.398 43.7703 102.731 46.1208 104.642 47.4846C110.414 46.3688 116.305 46.8544 119.048 52.7797C120.074 54.9959 119.517 59.3302 121.453 60.2445C122.645 60.8025 126.522 58.7361 128.979 58.9117C133.158 59.2113 137.051 63.1633 137.869 67.1617C138.233 68.9595 137.738 71.6045 138.358 72.8753C139.248 74.7092 145.431 74.9262 143.438 79.4515C142.048 82.6028 137.608 80.8928 134.72 81.146C131.831 81.3991 128.812 82.4891 126.835 84.7053C120.792 80.2213 112.329 79.4464 106.536 84.7208C100.613 80.0095 91.4944 79.5393 85.7171 84.7053C79.7316 80.3401 71.2323 79.4257 65.5019 84.6691C62.0772 81.6212 58.9855 81.1873 54.5459 81.1253C52.516 81.0943 48.8727 82.7009 48.1545 79.2139C47.1708 74.4406 52.5525 75.0243 53.5154 72.8701C54.5875 70.4731 53.125 67.6267 55.6389 64.1293C58.5587 60.0741 63.2274 60.2135 67.6254 59.4955C69.5251 53.224 71.8933 48.8794 79.4246 50.2639C82.4381 50.8167 84.1973 53.503 86.4145 55.2542L88.1737 54.5775C90.1151 52.1185 84.6657 47.7843 82.4069 47.0352H82.4121ZM104.652 54.4018C102.778 54.7221 97.7973 56.9177 98.0003 59.1597C99.494 63.2718 102.372 58.8756 105.084 58.4468C107.473 58.0697 110.882 58.3435 112.61 60.2084C113.932 61.6342 115.296 67.6008 118.075 65.1315C119.819 63.5817 116.857 58.7206 115.457 57.3826C112.735 54.779 108.321 53.7768 104.652 54.4018ZM70.8107 72.2037C72.5803 70.6901 72.2889 67.9935 76.4891 67.7248C81.5429 67.4045 82.4329 74.8538 85.5662 72.6531C87.6741 67.668 80.3614 63.3079 75.979 63.6127C72.2993 63.871 65.7933 67.9935 67.792 72.1469C68.5727 73.1491 69.9155 72.9683 70.8107 72.2037ZM93.4982 69.4193C96.0641 67.4717 99.4108 68.5152 102.372 68.1536C104.47 66.0924 103.049 64.398 100.374 64.088C95.8976 63.5611 90.2712 64.8371 88.663 69.5329C88.9336 71.2532 90.8386 71.8163 92.3115 71.0775C92.9569 70.7521 93.0818 69.7344 93.493 69.4193H93.4982ZM109.612 74.8125C111.564 76.7962 115.103 71.2945 120.027 73.5159C121.375 74.1254 124.149 77.4523 125.351 74.9365C127.308 70.8554 119.532 68.5979 116.529 68.727C113.994 68.8355 106.682 71.8318 109.612 74.8125Z" fill="#FFF6E2"/>
<path d="M101.67 155.014H90.2192L87.8875 88.3835C90.4482 83.9925 103.283 84.0441 104.256 89.1584L101.664 155.014H101.67Z" fill="#4E8CFF"/>
<path d="M86.0553 155.014H75.6458L67.49 89.7318C67.8856 83.9821 82.412 83.7186 83.4425 89.1584C84.2701 93.5339 83.7652 98.6482 83.9786 103.091C84.5043 114.058 85.2121 125.16 85.5556 136.138C85.7534 142.445 85.2642 148.737 86.0553 155.014Z" fill="#4E8CFF" fill-opacity="0.6"/>
<path d="M116.243 155.014H105.833C106.172 149.083 106.099 143.106 106.333 137.171C106.754 126.369 107.535 115.469 107.936 104.667C108.087 100.58 107.14 91.6794 108.727 88.4042C110.788 84.1526 123.352 83.7703 124.503 89.6388L116.248 155.014H116.243Z" fill="#4E8CFF" fill-opacity="0.6"/>
<path d="M140.179 85.2787L126.824 155.04L120.401 155.019L128.437 90.4137C129.822 84.6537 135.334 85.1444 140.179 85.2839V85.2787Z" fill="#4E8CFF"/>
<path d="M71.482 155.014L64.7367 154.988L51.8081 86.4409L52.5628 85.3561C57.8248 85.2011 61.9157 84.5502 63.4459 90.4135L71.482 155.019V155.014Z" fill="#4E8CFF"/>
<path d="M104.652 54.4017C108.321 53.7766 112.735 54.7788 115.457 57.3825C116.852 58.7204 119.818 63.5816 118.075 65.1314C115.301 67.6007 113.932 61.6289 112.61 60.2082C110.877 58.3433 107.473 58.0695 105.084 58.4466C102.372 58.8754 99.4939 63.2716 98.0002 59.1595C97.7972 56.9175 102.778 54.722 104.652 54.4017Z" fill="black"/>
<path d="M70.8107 72.2037C69.9155 72.9683 68.5726 73.1491 67.7919 72.1469C65.7933 67.9935 72.2992 63.871 75.979 63.6127C80.3666 63.3079 87.6792 67.668 85.5661 72.6531C82.4329 74.8538 81.5376 67.4045 76.489 67.7248C72.2888 67.9935 72.5803 70.6901 70.8107 72.2037Z" fill="black"/>
<path d="M109.612 74.8124C106.687 71.8317 113.994 68.8354 116.529 68.7269C119.532 68.5978 127.308 70.8553 125.351 74.9364C124.149 77.4522 121.375 74.1254 120.027 73.5158C115.103 71.2944 111.564 76.7961 109.612 74.8124Z" fill="black"/>
<path d="M93.498 69.4192C93.0868 69.7343 92.9567 70.752 92.3165 71.0775C90.8436 71.8162 88.9386 71.248 88.668 69.5329C90.2762 64.837 95.8974 63.561 100.379 64.0879C103.049 64.4031 104.475 66.0975 102.377 68.1535C99.4158 68.5152 96.0639 67.4768 93.5032 69.4192H93.498Z" fill="black"/>
<path d="M56.0186 1.5C56.1973 1.50301 56.3141 1.55233 56.4316 1.64941C56.763 1.92316 57.1331 2.61289 57.4336 3.89844C57.7183 5.11664 57.872 6.54032 58.0283 7.96582C58.1748 9.30101 58.3325 10.7634 58.665 11.7852C59.3911 14.0171 60.5446 15.6503 62.0059 16.8545C63.447 18.042 65.1169 18.7542 66.791 19.2617C68.4403 19.7617 70.2294 20.0981 71.8438 20.4521C73.1642 20.7418 74.4086 21.0525 75.5625 21.4775C75.4833 22.5466 75.1004 23.0591 74.6768 23.3896C73.9849 23.9293 72.8796 24.2379 71.21 24.5479C68.1703 25.112 63.4859 25.571 60.6279 29.5537H60.627C58.571 32.4211 58.3913 35.9373 58.0449 38.4707C57.718 40.8614 57.2752 42.446 55.8906 43.4277C54.2309 42.3731 53.7935 40.5998 53.4443 37.9111C53.0798 35.104 52.8465 31.2552 50.0869 28.3281C48.852 27.0183 47.1766 26.2385 45.5303 25.707C43.8807 25.1745 42.0806 24.8385 40.5283 24.5283C38.9038 24.2037 37.6014 23.9146 36.6816 23.502C35.7792 23.0971 35.6608 22.7704 35.6406 22.541C35.6032 22.1145 35.7299 21.8417 36.1387 21.5371C36.6378 21.1652 37.4604 20.848 38.5908 20.5752C39.7027 20.3069 40.9096 20.1241 42.1357 19.9141C43.2915 19.7161 44.5385 19.4838 45.4893 19.0947L45.4922 19.0928C51.012 16.8217 52.6296 12.3429 53.3398 8.55957C53.5159 7.62174 53.6403 6.70782 53.752 5.88477C53.8659 5.04451 53.964 4.31766 54.0908 3.68066C54.3716 2.2713 54.688 1.93846 54.8496 1.85645C55.4331 1.56018 55.807 1.49652 56.0186 1.5Z" fill="white" stroke="black" stroke-width="3" stroke-linejoin="round"/>
<path d="M13.7129 24.6235C13.7299 24.6394 13.7595 24.6718 13.7998 24.731C13.9832 25.0005 14.1694 25.5099 14.3281 26.2993C14.4813 27.0613 14.5769 27.9008 14.6826 28.7622C14.7684 29.4613 14.8665 30.2409 15.0312 30.8862L15.1064 31.1538C15.6964 33.0818 16.6059 34.4541 17.7578 35.4077C18.898 36.3516 20.1653 36.793 21.3105 37.0464C21.8802 37.1724 22.4389 37.2558 22.9404 37.3257C23.4612 37.3983 23.895 37.4533 24.3066 37.5278C25.0517 37.6628 25.436 37.8199 25.6533 37.9917L25.7363 38.0659C25.8422 38.1735 25.9101 38.2598 25.9551 38.3228C25.8869 38.3788 25.7846 38.4532 25.6338 38.5396C25.349 38.7025 24.9731 38.8659 24.5176 39.0269C23.6014 39.3506 22.527 39.6069 21.5273 39.8394C21.0439 39.9518 20.5635 40.0617 20.1641 40.1665C19.8042 40.261 19.3559 40.3888 19.0127 40.5669C15.7064 42.282 14.9463 45.8805 14.5303 48.4126C14.2989 49.8207 14.1792 50.8765 13.9355 51.7095C13.8443 52.0214 13.755 52.2174 13.6846 52.3364C13.6653 52.3041 13.6428 52.2671 13.6201 52.2231C13.3397 51.6796 13.1069 50.7801 12.8691 49.5649C12.6504 48.4472 12.4241 47.0446 12.1416 45.8579C11.8663 44.7012 11.4638 43.3851 10.7119 42.4751V42.4741C9.88487 41.474 8.72283 40.8724 7.63477 40.4653C6.53855 40.0552 5.33662 39.7801 4.3252 39.5435C3.24671 39.2912 2.43254 39.0917 1.86719 38.8403C1.66714 38.7514 1.55757 38.6818 1.50098 38.6392C1.50401 38.5355 1.52628 38.486 1.54004 38.4604C1.56515 38.4139 1.63241 38.3212 1.81934 38.1948C2.24211 37.909 2.93891 37.666 3.97754 37.3862C4.92176 37.1319 6.14696 36.8473 7.23926 36.4517C8.34238 36.0521 9.53783 35.467 10.4209 34.4683C11.2806 33.4957 11.7692 32.2507 12.0947 31.0894C12.4218 29.9227 12.6296 28.6585 12.8203 27.606C13.0235 26.4845 13.2031 25.6412 13.4492 25.064C13.5658 24.7905 13.6606 24.6685 13.7051 24.6245C13.708 24.6243 13.7105 24.6236 13.7129 24.6235Z" fill="white" stroke="black" stroke-width="3" stroke-linejoin="round"/>
</svg>
