<svg width="32" height="31" viewBox="0 0 32 31" fill="none" xmlns="http://www.w3.org/2000/svg">
<path d="M15.7532 0.0161227C15.1816 0.105825 14.9517 0.614141 14.902 1.11648C14.8523 1.61881 14.8398 3.15572 15.0635 3.58629C15.4798 4.3697 16.8405 4.23215 17.0145 3.40689C17.0891 3.06004 17.0891 1.09854 17.0269 0.739725C16.9337 0.189548 16.2813 -0.0675999 15.747 0.0161227H15.7532ZM5.11595 4.23813C4.41384 4.37568 4.20259 5.28466 4.57539 5.8169C4.73073 6.03817 6.14737 7.40165 6.37726 7.53919C7.39625 8.16113 8.51466 7.0548 7.82498 6.08003C7.66343 5.85278 6.29649 4.53714 6.06038 4.38166C5.78078 4.20225 5.45147 4.16637 5.11595 4.23215V4.23813ZM26.26 4.23813C26.1233 4.26803 25.9866 4.36372 25.8748 4.44744C25.6324 4.62684 24.1723 6.03219 24.0667 6.22953C23.5572 7.1744 24.7004 8.16113 25.6697 7.51527C25.9245 7.34783 27.4281 5.86474 27.5151 5.64946C27.863 4.81223 27.1671 4.05873 26.2538 4.24411L26.26 4.23813ZM21.3701 22.9202C30.0936 17.2092 24.0977 4.07069 13.7525 6.40296C5.71865 8.21496 3.73659 18.5607 10.6396 22.9142C10.5154 24.4213 11.2299 25.9342 12.7708 26.4306C12.7708 27.513 12.7087 28.4818 13.3611 29.4147C14.5851 31.1549 17.1761 31.2088 18.5244 29.5523C19.3321 28.5655 19.1271 27.6625 19.1954 26.4844C20.7798 25.8685 21.4384 24.5169 21.3701 22.9142V22.9202ZM0.996502 14.3506C-0.376649 14.542 -0.258595 16.2762 0.909515 16.3839C1.45008 16.4317 2.99099 16.4497 3.50048 16.3779C4.42006 16.2404 4.60025 14.8709 3.69931 14.4702C3.26437 14.2789 1.51221 14.2789 0.996502 14.3506ZM28.6583 14.3506C27.453 14.5181 27.4157 16.1028 28.4036 16.354C28.7329 16.4377 30.8517 16.4317 31.2182 16.3719C32.1627 16.2045 32.2932 14.8231 31.3798 14.4523C30.9511 14.2789 29.1616 14.2848 28.6583 14.3566V14.3506ZM6.78113 23.0518C6.60716 23.0757 6.47046 23.1594 6.33377 23.2611C6.09766 23.4285 4.53811 24.9475 4.4387 25.1449C3.96027 26.0957 5.08489 27.0525 6.0666 26.3947C6.30892 26.2273 7.78769 24.798 7.90575 24.5767C8.32826 23.7933 7.68828 22.9142 6.78735 23.0518H6.78113ZM24.8682 23.0458C24.1288 23.1475 23.7374 23.9668 24.0977 24.5887C24.1785 24.7262 25.9058 26.3887 26.0612 26.4725C27.0242 27.0167 28.0991 25.9701 27.5399 25.0492C27.4467 24.8997 25.7753 23.279 25.62 23.1893C25.415 23.0697 25.1105 23.0099 24.8744 23.0398L24.8682 23.0458Z" fill="white"/>
<path d="M21.3702 22.9195C21.4385 24.5162 20.7799 25.8737 19.1955 26.4897C19.1271 27.6678 19.3322 28.5648 18.5244 29.5575C17.1761 31.214 14.5852 31.1602 13.3611 29.42C12.7087 28.4871 12.7647 27.5183 12.7709 26.4359C11.2237 25.9395 10.5154 24.4325 10.6397 22.9195C3.73666 18.5659 5.71872 8.21424 13.7526 6.40822C24.104 4.07595 30.0937 17.2144 21.3702 22.9255V22.9195ZM15.5607 8.20826C8.99937 8.59099 6.08531 16.4669 10.9876 20.7009C11.3915 21.0537 12.5037 21.6398 12.6901 22.0105C13.1002 22.8298 12.193 24.4744 13.8831 24.6358C14.8772 24.7315 17.1389 24.7315 18.1268 24.6298C19.8417 24.4504 18.7792 22.7999 19.3632 21.9208C19.5745 21.6039 20.3077 21.251 20.6556 20.9939C26.316 16.736 22.793 7.79562 15.5607 8.21424V8.20826ZM17.0394 26.681H14.9145V27.7993C14.9145 28.2479 15.5047 28.7023 15.9521 28.7203C16.3249 28.7382 17.0394 28.3495 17.0394 27.9907V26.681Z" fill="black"/>
<path d="M24.8685 23.0455C25.1046 23.0156 25.409 23.0754 25.6141 23.195C25.7694 23.2906 27.4408 24.9053 27.534 25.0548C28.0932 25.9758 27.0183 27.0163 26.0552 26.4781C25.8999 26.3944 24.1726 24.7319 24.0918 24.5943C23.7314 23.9724 24.1229 23.1531 24.8622 23.0514L24.8685 23.0455Z" fill="black"/>
<path d="M6.7827 23.0511C7.68364 22.9135 8.32361 23.7926 7.9011 24.576C7.78305 24.7973 6.31049 26.2265 6.06195 26.394C5.08024 27.0578 3.95563 26.095 4.43405 25.1441C4.53347 24.9468 6.09302 23.4278 6.32913 23.2604C6.46582 23.1587 6.60873 23.081 6.77649 23.0511H6.7827Z" fill="black"/>
<path d="M28.6588 14.3499C29.1621 14.2781 30.9515 14.2781 31.3803 14.4456C32.2936 14.8103 32.1631 16.1977 31.2187 16.3652C30.8583 16.431 28.7334 16.431 28.4041 16.3473C27.4161 16.0961 27.4472 14.5173 28.6588 14.3439V14.3499Z" fill="black"/>
<path d="M0.997478 14.3501C1.51319 14.2783 3.26535 14.2724 3.70029 14.4697C4.60122 14.8704 4.42103 16.2398 3.50146 16.3774C2.99196 16.4551 1.45105 16.4372 0.910492 16.3834C-0.257619 16.2757 -0.375672 14.5415 0.997478 14.3501Z" fill="black"/>
<path d="M15.7544 0.0155124C16.2825 -0.0682102 16.9349 0.188938 17.0344 0.739115C17.0965 1.09793 17.0965 3.06541 17.0219 3.40628C16.848 4.23154 15.4934 4.36909 15.0709 3.58568C14.841 3.15511 14.8597 1.6481 14.9094 1.11587C14.9591 0.58363 15.189 0.105215 15.7606 0.0155124H15.7544Z" fill="black"/>
<path d="M5.11635 4.23754C5.45187 4.17176 5.78118 4.20764 6.06078 4.38705C6.29689 4.53655 7.65761 5.85219 7.82537 6.08542C8.51505 7.05421 7.39665 8.16652 6.37766 7.54458C6.15398 7.40704 4.73112 6.04356 4.57579 5.82229C4.20299 5.29005 4.42045 4.38106 5.11635 4.24352V4.23754Z" fill="black"/>
<path d="M26.2603 4.23752C27.1799 4.05213 27.8696 4.81161 27.5216 5.64286C27.4284 5.86413 25.9248 7.34721 25.6763 7.50868C24.7008 8.14856 23.5637 7.16781 24.0732 6.22294C24.1789 6.02559 25.639 4.62025 25.8813 4.44084C25.9932 4.3631 26.1299 4.26144 26.2666 4.23154L26.2603 4.23752Z" fill="black"/>
<path d="M15.5605 8.20857C22.799 7.78397 26.3158 16.7303 20.6554 20.9882C20.3075 21.2513 19.5681 21.6042 19.3631 21.9151C18.779 22.7942 19.8415 24.4448 18.1266 24.6242C17.1387 24.7258 14.877 24.7258 13.8829 24.6302C12.1928 24.4627 13.1 22.8241 12.6899 22.0049C12.5097 21.6401 11.3975 21.048 10.9875 20.6952C6.09133 16.4612 8.99918 8.58532 15.5605 8.20259V8.20857Z" fill="white"/>
<path d="M17.04 26.6813V27.9909C17.04 28.3497 16.3255 28.7385 15.9527 28.7205C15.4991 28.6966 14.915 28.2481 14.915 27.7996V26.6813H17.04Z" fill="white"/>
</svg>
