<svg width="161" height="113" viewBox="0 0 161 113" fill="none" xmlns="http://www.w3.org/2000/svg">
<path d="M17.1431 0.40509C8.42367 0.753267 0.995901 7.55208 0.00378418 16.2116V97.0672C2.68063 112.144 14.3951 112.75 27.1578 112.627C65.7605 112.256 104.52 112.81 143.217 112.627C152.049 112.234 159.985 106.124 161 97.0897V15.8185C160.113 8.18853 153.168 1.32233 145.463 0.655927L17.1431 0.40509Z" fill="white"/>
<path d="M17.143 0.40509L145.459 0.655927C153.164 1.32233 160.109 8.18853 160.996 15.8185V97.086C159.982 106.124 152.045 112.23 143.213 112.623C104.517 112.806 65.7568 112.252 27.1541 112.623C14.3951 112.746 2.68059 112.144 0 97.0635V16.2116C0.995861 7.55208 8.42363 0.753267 17.143 0.40509ZM16.7612 6.76213C11.2427 7.48843 6.92984 11.2772 6.36452 16.9566V96.3185C7.24433 102.237 11.4861 105.794 17.3901 106.258C60.4892 105.862 103.76 106.988 146.758 105.689C158.012 102.125 154.669 88.8083 154.594 79.868C154.415 58.0789 155.163 36.1325 154.134 14.437C152.198 9.09079 147.893 7.01671 142.461 6.64232L16.7574 6.76213H16.7612Z" fill="black"/>
<path d="M16.7612 6.76211L142.464 6.6423C147.897 7.01669 152.202 9.09077 154.138 14.437C155.167 36.1288 154.418 58.0789 154.598 79.868C154.673 88.812 158.012 102.125 146.762 105.689C103.76 106.988 60.4929 105.861 17.3939 106.258C11.4861 105.794 7.24434 102.237 6.36829 96.3185V16.9566C6.92986 11.2772 11.2465 7.48841 16.7649 6.76211H16.7612ZM25.7314 17.9786C20.0258 18.9333 17.0869 25.5375 17.5773 30.82C18.2437 38.0044 29.3292 47.2891 35.0723 51.1378C35.8098 51.632 37.1202 52.7739 37.9139 52.6578C38.8798 52.5155 45.9481 46.8511 47.1761 45.7841C53.6043 40.2096 61.8407 31.6025 56.0902 22.636C53.2187 18.1583 47.8013 16.5522 42.8595 18.6301C40.8041 19.4949 39.4713 21.1946 37.678 22.3552C34.4021 18.7873 30.6695 17.155 25.7352 17.9786H25.7314ZM18.0865 70.9352C18.386 71.2609 18.9663 71.4856 19.3706 71.7027L71.702 71.8113C76.3706 70.8491 75.5769 65.6751 70.9457 65.4355C54.8435 66.4651 37.0415 64.069 21.1377 65.4206C18.1052 65.6789 15.5856 68.191 18.0902 70.9315L18.0865 70.9352ZM19.3557 84.2333C15.6118 85.6298 16.6002 90.1524 20.3927 90.5267L99.1106 90.2347C102.147 88.5388 101.413 84.5591 97.9051 84.1472L19.3557 84.2333Z" fill="white"/>
<rect x="4" y="28.405" width="153" height="17" fill="#4E8CFF" fill-opacity="0.25" stroke="black" stroke-width="5"/>
<path d="M18.5 74.905H70" stroke="black" stroke-width="5" stroke-linecap="round"/>
<path d="M19 86.405H101" stroke="black" stroke-width="5" stroke-linecap="round"/>
<path d="M38.8222 18.8492C39.8959 19.8675 40.5037 21.4478 41.4288 22.5719C46.3111 13.1958 60.5462 13.0503 64.8545 22.7835C70.9254 36.4972 51.3623 50.7598 41.4356 57.405C31.2185 50.1713 10.8721 35.9947 18.7864 21.5668C22.6356 14.5513 33.0485 13.3611 38.8222 18.8492Z" fill="#4E8CFF" stroke="black" stroke-width="5"/>
</svg>
