<svg width="159" height="112" viewBox="0 0 159 112" fill="none" xmlns="http://www.w3.org/2000/svg">
<path d="M103.828 101.132H109.047C112.296 101.132 117.8 95.1543 117.648 91.6787L117.662 10.1407C117.214 4.93857 112.491 0.740785 107.368 0.405075H9.72995C4.65198 1.14138 0.679884 5.05142 0 10.1435L0.0141055 91.6787C-0.0225687 95.1571 5.29237 101.132 8.61562 101.132H13.5525C13.4397 105.643 12.9404 110.981 18.7744 111.567C21.8917 111.881 27.7426 111.819 30.9135 111.582C37.5629 111.088 36.22 105.9 37.986 101.115L79.3799 101.121C81.507 105.48 80.136 111.04 86.4665 111.582C89.533 111.844 96.1485 111.903 99.1389 111.539C104.984 110.831 103.771 105.488 103.825 101.132H103.828Z" fill="white"/>
<path d="M103.828 101.132C103.774 105.488 104.987 110.831 99.1417 111.539C96.1513 111.903 89.533 111.844 86.4693 111.581C80.1388 111.04 81.5098 105.479 79.3827 101.121L37.9888 101.115C36.2228 105.903 37.5657 111.091 30.9163 111.581C27.7426 111.816 21.8945 111.878 18.7772 111.567C12.9432 110.981 13.4425 105.646 13.5553 101.132H8.61843C5.29518 101.132 -0.0197611 95.1542 0.0169131 91.6786L0.00280762 10.1434C0.67987 5.05133 4.65197 1.14129 9.72994 0.407806H107.365C112.491 0.740695 117.211 4.93848 117.659 10.1434L117.645 91.6815C117.798 95.1571 112.294 101.135 109.044 101.135H103.825L103.828 101.132ZM9.52682 5.00055C6.93706 5.6635 4.69711 7.97116 4.51091 10.7048V90.8464C4.83534 94.4828 7.68747 96.5845 11.1405 96.9118H106.234C109.763 96.734 112.816 94.5223 113.146 90.8464V10.7048C112.895 7.60724 110.164 5.03158 107.077 4.92156L9.524 4.99773L9.52682 5.00055ZM33.3002 101.132H18.0663V106.351C18.0663 106.709 18.9493 107.02 19.3217 107.071C23.0201 107.57 27.8809 106.704 31.7091 107.017C32.4651 106.763 33.0406 102.105 33.3002 101.132ZM99.5959 101.132H84.362L85.9587 107.068C89.8067 106.659 94.6195 107.57 98.3405 107.068C98.7129 107.017 99.5959 106.707 99.5959 106.348V101.129V101.132Z" fill="black"/>
<path d="M9.52682 5.00047L107.08 4.9243C110.164 5.03432 112.897 7.60716 113.146 10.7075V90.8492C112.818 94.525 109.763 96.7368 106.234 96.9145H11.1433C7.68746 96.5873 4.83534 94.4827 4.51373 90.8492V10.7047C4.69993 7.97108 6.93987 5.66343 9.52964 5.00047H9.52682ZM12.6695 79.7284C12.2576 84.2281 13.1406 88.2284 18.2045 89.0042L99.1812 89.0126C102.155 88.8716 104.77 86.5583 104.964 83.5115C104.713 61.2587 105.413 38.8818 104.612 16.6995C103.689 14.4314 101.576 13.0603 99.1812 12.8205H18.7603C13.1519 13.3058 12.2294 17.5148 12.6921 22.4123C10.8979 22.463 9.14315 23.7579 8.53379 25.4449C7.97521 26.9853 7.95829 34.5458 8.45762 36.1228C9.03594 37.948 10.9571 39.0821 12.7231 39.5222L12.7175 62.2969C10.8866 62.8837 8.91182 63.8908 8.38427 65.9192C7.96111 67.5498 7.99496 73.4994 8.18962 75.3191C8.44916 77.7395 10.3929 79.2883 12.6695 79.7284Z" fill="white"/>
<path d="M33.3003 101.132C33.0408 102.108 32.4653 106.763 31.7092 107.017C27.881 106.704 23.0202 107.567 19.3218 107.071C18.9494 107.02 18.0664 106.709 18.0664 106.351V101.132H33.3003Z" fill="white"/>
<path d="M99.5958 101.132V106.351C99.5958 106.709 98.7128 107.02 98.3404 107.071C94.6194 107.573 89.8066 106.659 85.9586 107.071L84.3619 101.135H99.5958V101.132Z" fill="white"/>
<path d="M12.6696 79.7284C10.393 79.2912 8.44928 77.7396 8.18974 75.3191C7.99509 73.4995 7.95841 67.5498 8.3844 65.9192C8.91194 63.8908 10.8867 62.8837 12.7176 62.2969L12.7232 39.5222C10.9572 39.0793 9.03607 37.948 8.45774 36.1228C7.95841 34.5458 7.97534 26.9881 8.53391 25.445C9.14327 23.7551 10.898 22.4602 12.6922 22.4123C12.2295 17.5149 13.152 13.3086 18.7604 12.8234H99.1841C101.579 13.0632 103.692 14.4342 104.615 16.7024C105.416 38.8847 104.716 61.2587 104.967 83.5144C104.77 86.5611 102.155 88.8716 99.1841 89.0155L18.2074 89.007C13.1436 88.2312 12.2634 84.2309 12.6725 79.7313L12.6696 79.7284ZM16.9746 62.4464C19.1215 62.9232 20.927 64.6046 21.1696 66.8558C21.4122 69.107 21.4799 75.6435 20.2781 77.5308C19.3641 78.9639 18.3429 79.1219 16.9746 79.8695C17 81.3647 16.3681 83.9883 18.2695 84.4284L99.8132 84.2817L100.519 83.5764L100.581 18.4825L99.5932 17.4951H18.072C16.306 18.5841 17.0959 20.4883 16.921 22.2543C19.5785 22.9511 20.9411 24.5958 21.1809 27.352C21.3501 29.3268 21.4094 34.8674 20.7464 36.529C20.0186 38.3486 18.6419 38.8988 16.921 39.525L16.9774 62.4464H16.9746ZM12.7063 26.6552V34.6953C13.4736 35.6658 16.2919 35.5896 16.7997 34.5571C17.0508 34.0493 17.0423 29.0673 16.9521 28.1899C16.7094 25.775 14.5428 26.3082 12.7035 26.6552H12.7063ZM13.169 66.7542C12.8022 66.8473 12.7656 67.0984 12.7063 67.42C12.585 68.0745 12.5991 74.5799 12.743 75.0003C13.3721 75.9341 16.0662 75.841 16.6841 75.0652C17.0734 74.5771 17.0818 68.3764 16.811 67.547C16.3568 66.1505 14.3454 66.8276 13.169 66.7542Z" fill="black"/>
<path d="M16.9745 62.4464L16.9181 39.525C18.639 38.9016 20.0157 38.3514 20.7435 36.529C21.4065 34.8674 21.3501 29.3268 21.178 27.352C20.941 24.5958 19.5756 22.9483 16.9181 22.2543C17.093 20.4911 16.3031 18.584 18.0691 17.4951H99.5874L100.575 18.4825L100.513 83.5764L99.8075 84.2817L18.2638 84.4284C16.3624 83.9883 16.9943 81.3647 16.9689 79.8695C18.3371 79.1219 19.3584 78.9639 20.2724 77.5308C21.4742 75.6435 21.4178 69.2142 21.1639 66.8558C20.91 64.4973 19.1158 62.9232 16.9689 62.4464H16.9745ZM41.7043 30.9715C27.675 32.2748 19.6518 47.7005 25.8102 60.2403C32.9448 74.7718 54.2299 74.989 61.7425 60.6014C69.334 46.0558 57.8465 29.4763 41.7071 30.9743L41.7043 30.9715Z" fill="white"/>
<path d="M13.1689 66.7542C14.3453 66.8276 16.3567 66.1505 16.8109 67.547C17.0817 68.3764 17.0733 74.5771 16.684 75.0652C16.0661 75.841 13.372 75.9341 12.7429 75.0003C12.599 74.58 12.5849 68.0717 12.7062 67.42C12.7655 67.0984 12.8021 66.8502 13.1689 66.7542Z" fill="white"/>
<path d="M12.7062 26.6552C14.5456 26.3082 16.7122 25.7751 16.9548 28.1899C17.0423 29.0701 17.0535 34.0493 16.8025 34.5571C16.2918 35.5896 13.4764 35.6658 12.7091 34.6953V26.6552H12.7062Z" fill="white"/>
<path d="M41.7042 30.9715C57.8437 29.4735 69.334 46.0559 61.7396 60.5986C54.2298 74.9862 32.9447 74.7718 25.8073 60.2375C19.6489 47.6978 27.6749 32.272 41.7014 30.9687L41.7042 30.9715ZM41.4813 35.6827C40.2965 35.268 34.1465 38.2358 34.1521 38.927L38.3725 42.8878L41.4813 41.8891V35.6827ZM45.9951 35.6827V41.466L49.1998 42.9725L53.6092 38.927C51.5554 37.0989 48.74 35.9677 45.9979 35.6827H45.9951ZM59.5363 50.0703C59.099 47.2915 58.6054 44.273 56.5742 42.1769L52.2466 46.3042L53.3299 50.0703H59.5363ZM34.4286 50.0703C34.0506 48.8573 35.4978 47.2859 35.2354 46.3239C35.1367 45.96 31.1928 42.3857 30.9079 42.4505C29.2801 44.6792 28.5071 47.3508 28.2222 50.0675H34.4286V50.0703ZM42.5336 46.1885C36.6798 47.2746 37.8534 57.3149 44.6579 56.2118C51.0025 55.1821 50.0687 44.7921 42.5336 46.1885ZM34.5696 54.5841H28.7864C28.1545 55.8902 32.6485 62.926 33.2945 62.4831L36.3667 57.7634L34.5696 54.5841ZM58.9721 54.5841H52.7657L51.1182 57.786L54.5994 62.4775C55.8745 61.8738 59.7084 55.326 58.9721 54.5841ZM50.7881 65.3014L47.005 60.2375C44.7538 61.1177 42.6464 60.8018 40.3585 60.3588L36.9591 65.1519C41.2274 67.4708 46.4098 67.1069 50.7909 65.3014H50.7881Z" fill="black"/>
<path d="M42.5335 46.1885C50.0687 44.7921 51.0053 55.1822 44.6578 56.2119C37.8534 57.3149 36.6798 47.2746 42.5335 46.1885Z" fill="white"/>
<path d="M50.7882 65.3014C46.407 67.1098 41.2247 67.4709 36.9564 65.1519L40.3558 60.3589C42.6437 60.8018 44.751 61.1178 47.0023 60.2376L50.7854 65.3014H50.7882Z" fill="white"/>
<path d="M58.972 54.5841C59.7083 55.3261 55.8745 61.8738 54.5993 62.4775L51.1181 57.786L52.7656 54.5841H58.972Z" fill="white"/>
<path d="M59.5362 50.0703H53.3298L52.2465 46.3041L56.5741 42.1768C58.6081 44.2729 59.1018 47.2915 59.5362 50.0703Z" fill="white"/>
<path d="M34.5696 54.5841L36.3666 57.7635L33.2945 62.4832C32.6484 62.9261 28.1516 55.8903 28.7864 54.5841H34.5696Z" fill="white"/>
<path d="M34.4286 50.0702H28.2222C28.5072 47.3507 29.2801 44.682 30.9079 42.4533C31.19 42.3884 35.1339 45.9599 35.2355 46.3267C35.4978 47.2887 34.0534 48.86 34.4286 50.0731V50.0702Z" fill="white"/>
<path d="M45.9952 35.6828C48.7373 35.9677 51.5527 37.099 53.6065 38.927L49.1971 42.9725L45.9924 41.466V35.6828H45.9952Z" fill="white"/>
<path d="M41.4813 35.6827V41.8891L38.3725 42.8878L34.1521 38.927C34.1493 38.2358 40.2964 35.268 41.4813 35.6827Z" fill="white"/>
<path d="M100.456 43.2362C103.202 43.6188 105.72 45.0032 107.626 46.9178C108.547 46.6372 109.387 46.1259 110.32 45.8661C122.6 42.4471 131.413 57.6174 120.37 66.2431C116.524 69.247 110.795 73.4071 106.633 75.9C104.501 77.1773 102.507 77.4857 100.593 75.5537C97.1524 70.3408 92.1067 65.3529 88.8235 60.1336C83.7382 52.0487 90.886 41.9053 100.456 43.2362Z" fill="#4E8CFF" stroke="black" stroke-width="3"/>
<path d="M116.464 50.0812C118.859 50.9872 121.599 53.7167 121.019 57.9225C120.906 58.7432 120.149 59.3175 119.329 59.2043C118.508 59.0911 117.935 58.3335 118.048 57.5129C118.393 55.0105 116.814 53.4205 115.402 52.8866C114.627 52.5935 114.237 51.728 114.53 50.9532C114.823 50.1784 115.689 49.7882 116.464 50.0812Z" fill="#ffffff" fill-opacity="0.37"/>
<path d="M140.098 18.6401C141.95 18.8981 143.648 19.8317 144.934 21.123C145.555 20.9337 146.121 20.5889 146.751 20.4137C155.032 18.1079 160.976 28.339 153.528 34.1563C150.935 36.1822 147.071 38.9879 144.264 40.6691C142.826 41.5306 141.482 41.7386 140.191 40.4356C137.87 36.9199 134.467 33.556 132.253 30.036C128.823 24.5834 133.644 17.7424 140.098 18.6401Z" fill="#4E8CFF" stroke="black" stroke-width="3"/>
<path d="M150.89 23.2672C152.501 23.8766 154.345 25.713 153.955 28.5429C153.88 29.09 153.375 29.4729 152.828 29.3974C152.281 29.322 151.899 28.8175 151.974 28.2706C152.208 26.5762 151.138 25.4992 150.182 25.1377C149.666 24.9424 149.405 24.3654 149.601 23.8488C149.796 23.3322 150.373 23.0718 150.89 23.2672Z" fill="#ffffff" fill-opacity="0.37"/>
</svg>
