<svg width="140" height="124" viewBox="0 0 140 124" fill="none" xmlns="http://www.w3.org/2000/svg">
<path d="M5.21258 118.182V29.1501C5.21258 28.9213 4.48006 27.4795 4.21079 27.2594C2.51991 25.861 -0.0569476 27.2739 0.000959233 29.4396L0.270226 121.821C0.701632 122.979 1.85977 123.379 3.02949 123.405L115.676 123.399C117.613 123.173 118.739 121.3 117.804 119.52C117.624 119.178 116.524 118.182 116.249 118.182H103.654V69.6849C103.654 69.5198 102.988 68.1388 102.78 67.9535C102.308 67.5394 101.787 67.551 101.208 67.4989C95.5878 66.9893 89.2239 67.9158 83.5172 67.4989C82.9004 67.2875 81.6497 68.7555 81.6497 69.1058V118.182H72.095V84.1616C72.095 83.1801 70.2767 82.3491 69.3589 82.2651C65.4849 81.9119 56.6426 81.8482 52.841 82.2796C52.0448 82.3694 50.3799 82.9427 50.3799 83.8721V118.182H40.8253V95.4534C40.8253 94.1997 39.5774 93.3746 38.3816 93.2617C32.8081 92.7376 26.3862 93.6757 20.72 93.2993C20.002 93.1285 18.8207 94.7441 18.8207 95.1639V118.182H5.21258ZM94.3863 46.6669C94.5426 48.9311 92.2466 54.2122 94.1112 55.7756C95.168 56.6645 97.6493 56.375 98.2255 54.991L100.493 38.9942C100.591 34.5151 95.8253 36.8691 93.2831 37.3091C91.1058 37.6855 82.5212 38.5512 81.3717 39.2954C79.8343 40.2856 79.9935 42.5758 81.4412 43.5457C83.135 44.6836 87.5619 42.7379 89.7566 43.6268L64.7119 68.9581L49.8038 54.05C48.747 53.2046 48.1187 52.666 46.6884 53.2596L15.7748 84.0139C13.7509 86.4373 16.1338 89.434 18.9828 88.0877L47.6294 59.4151L62.9747 74.7546C63.7188 75.4292 64.7437 75.5306 65.6529 75.1136L94.3863 46.6698V46.6669Z" fill="white"/>
<path d="M5.21258 118.182H18.8207V95.1639C18.8207 94.7441 20.0049 93.1285 20.72 93.2993C26.3862 93.6757 32.8081 92.7376 38.3816 93.2617C39.5774 93.3746 40.8253 94.1998 40.8253 95.4535V118.182H50.3799V83.8721C50.3799 82.9427 52.0448 82.3694 52.841 82.2797C56.6426 81.8482 65.4849 81.9119 69.3589 82.2652C70.2796 82.3491 72.095 83.1772 72.095 84.1616V118.182H81.6497V69.1058C81.6497 68.7555 82.9004 67.2876 83.5172 67.4989C89.221 67.9187 95.5849 66.9922 101.208 67.4989C101.787 67.551 102.308 67.5395 102.78 67.9535C102.988 68.1359 103.654 69.517 103.654 69.6849V118.182H116.249C116.524 118.182 117.624 119.181 117.804 119.52C118.739 121.3 117.613 123.171 115.676 123.399L3.02949 123.405C1.85977 123.379 0.701632 122.979 0.270226 121.821L0.000959233 29.4396C-0.0569476 27.271 2.51991 25.8581 4.21079 27.2594C4.48006 27.4824 5.21258 28.9243 5.21258 29.1501V118.182ZM98.7322 72.4355H86.5717V118.182H98.7322V72.4355ZM67.1729 87.4913H55.302V118.182H67.1729V87.4913ZM35.6137 98.204H23.7428V118.182H35.6137V98.204Z" fill="black"/>
<path d="M94.3863 46.6668L65.6529 75.1106C64.7438 75.5276 63.7188 75.4262 62.9747 74.7516L47.6294 59.4121L18.9828 88.0847C16.1338 89.431 13.751 86.4343 15.7748 84.0109L46.6884 53.2566C48.1187 52.663 48.7441 53.2016 49.8038 54.047L64.7119 68.9551L89.7566 43.6238C87.562 42.7349 83.135 44.6806 81.4412 43.5427C79.9964 42.5728 79.8343 40.2825 81.3717 39.2923C82.5241 38.5511 91.1087 37.6825 93.2831 37.3061C95.8253 36.866 100.591 34.5092 100.493 38.9912L98.2255 54.988C97.6464 56.372 95.168 56.6615 94.1112 55.7726C92.2495 54.2091 94.5455 48.9251 94.3863 46.6639V46.6668Z" fill="black"/>
<path d="M117.291 7.92404C119.177 6.15246 120.506 3.84186 123.008 2.81874C127.757 0.875498 133.388 2.46854 136.155 6.77732C143.596 18.3578 126.732 31.6996 117.449 36.0633C115.594 35.0985 113.749 34.0857 112.011 32.9218C106.171 29.0216 97.0432 20.7542 96.9503 13.2491C96.8092 1.72695 112.001 -2.35866 117.288 7.92404H117.291Z" fill="#4E8CFF" stroke="black" stroke-width="4"/>
<path d="M98.7322 72.4355H86.5718V118.182H98.7322V72.4355Z" fill="white"/>
<path d="M67.173 87.4913H55.3021V118.182H67.173V87.4913Z" fill="white"/>
<path d="M35.6137 98.2041H23.7428V118.182H35.6137V98.2041Z" fill="white"/>
</svg>
