<svg width="143" height="126" viewBox="0 0 143 126" fill="none" xmlns="http://www.w3.org/2000/svg">
<path d="M123.463 66.3932C124.246 66.3671 125.203 66.6479 125.742 65.9035C122.852 61.3031 124.442 53.1015 130.806 52.984C138.501 52.8403 138.403 63.3568 133.261 67.0429C135.416 67.2356 136.823 67.0233 138.328 65.4203C139.324 64.3591 139.651 62.3414 141.747 63.2915C144.548 64.5648 142.001 68.1759 140.418 69.4655C138.008 71.4278 134.864 72.0188 131.893 71.1927C131.031 70.9544 129.245 69.8018 128.863 69.7822C127.782 69.73 124.877 71.3658 123.159 70.654C122.036 78.8752 119.111 86.9984 114.664 93.992C113.763 95.4122 108.669 101.41 108.522 101.89C106.42 108.658 111.373 119.593 103.455 124.248C99.8342 126.377 91.4825 126.511 87.6592 124.901C83.4572 123.132 81.9912 118.208 81.3513 114.065C68.9215 118.061 55.8029 117.758 43.3372 114.052C42.1488 118.463 41.153 122.936 36.5167 124.898C32.8077 126.469 25.0208 126.361 21.3803 124.572C13.897 120.895 16.6331 108.939 15.9703 102.229C-2.38864 82.0487 -4.30518 51.6486 10.8084 29.0093C7.65113 22.9136 5.42769 16.0735 5.92723 9.09302C6.59002 -0.123985 11.272 -1.33855 19.4801 1.08405C25.5758 2.88632 30.6626 6.88264 34.4761 11.8911L35.1389 12.1849C39.354 10.0529 43.7454 8.47268 48.3686 7.45401C59.6 4.97589 71.527 5.27301 82.5789 8.51512C83.7837 8.86774 89.5953 11.261 89.9871 11.2218C90.9274 11.1304 91.4694 9.73295 92.1159 9.08322C95.6224 5.53094 100.115 2.43901 104.937 1.00896C116.802 -2.51068 119.029 4.24781 118.258 14.6565C117.876 19.8086 115.539 24.7551 113.361 29.3391C120.684 40.1723 124.25 53.2876 123.466 66.3932H123.463ZM32.4682 16.6612C31.3613 15.6425 29.8268 12.7269 28.4653 11.3589C25.2591 8.13312 18.5072 4.41106 13.9264 4.3327C11.8825 4.29678 11.1642 4.58083 10.6353 6.62144C8.92121 13.2656 11.7389 22.8451 15.8756 28.1833C21.8733 21.4901 31.4462 23.1879 36.1184 30.4688C41.646 20.6184 55.5743 22.4696 58.8556 33.0416L64.1416 33.1003C67.1813 24.8595 76.382 20.9677 83.7804 26.5639L87.3751 30.472C90.8393 24.5592 97.3333 22.2737 103.664 25.2905C105.603 26.2145 106.547 27.7458 108.264 28.8428C112.395 22.8516 114.716 15.4466 113.985 8.11353C113.681 5.04772 112.715 4.12374 109.619 4.39473C104.575 4.84203 98.5021 8.78611 95.0413 12.3449C93.3761 14.0558 92.7786 16.7624 89.8173 15.956C87.5286 15.3324 84.5509 13.5562 81.9128 12.7563C68.8726 8.80897 53.4619 9.08649 40.7644 14.2255C39.2593 14.8361 35.5078 17.1999 34.4075 17.3599C33.8949 17.435 32.8273 16.9942 32.4616 16.6612H32.4682ZM37.8162 36.904C35.0671 39.9666 33.5717 34.8667 32.6314 33.3158C27.1789 24.3045 15.9768 28.5947 17.0281 38.7977C17.8999 47.2409 30.2708 54.2834 35.8441 59.8274C36.3273 59.909 42.1129 55.0344 42.9716 54.303C47.5719 50.3981 54.6797 44.5408 55.2185 38.148C55.9465 29.4762 45.7403 24.7224 40.389 31.8041C39.354 33.1722 38.5443 36.0943 37.8162 36.904ZM74.4034 28.5947C72.1538 28.9734 69.4831 31.5691 68.6799 33.6456C65.8818 40.8612 71.8208 46.6238 76.604 51.0544C79.9734 54.1757 83.7641 56.9542 87.3392 59.8339C93.3304 54.3259 105.744 46.983 106.446 38.1088C107.148 29.2411 96.8696 24.729 91.3257 32.1306C90.1144 33.7468 89.2721 37.7986 87.0813 37.655C84.8905 37.5113 84.2277 33.688 83.1209 32.1274C81.0019 29.1497 78.0373 27.9776 74.4034 28.5914V28.5947ZM12.4441 37.6713C10.2239 37.0477 9.29015 40.7436 8.62083 42.4741C2.26394 58.9295 4.10538 77.863 13.884 92.5521C15.1736 94.4915 19.6727 99.2094 20.0711 100.731C21.7656 107.241 16.5221 120.709 26.65 121.578C28.9812 121.777 33.5423 121.816 35.5438 120.654C39.2005 118.531 38.7369 110.186 40.5359 109.321C40.9146 109.138 41.2705 109.145 41.6754 109.125C43.8662 109.034 50.5234 111.518 53.5305 112.002C61.8463 113.337 69.3852 112.756 77.5051 110.699C79.2617 110.252 82.2948 108.554 83.8228 109.465C85.8569 110.676 85.1354 118.483 88.9554 120.654C91.7143 122.221 100.177 122.221 102.42 119.615C105.763 115.737 103.36 105.325 104.422 100.395C115.908 87.4196 121.337 71.9796 118.804 54.5642C117.952 48.7134 115.888 43.1075 113.629 37.7007L110.733 37.655C110.318 47.4695 100.993 54.4957 93.9116 60.1767C92.648 61.1889 88.6125 64.7248 87.3817 64.7771C86.7482 64.8032 86.3434 64.6726 85.7949 64.3853C84.6064 63.7649 81.5145 60.9113 80.2118 59.847C73.3521 54.2345 64.0731 47.2083 63.7172 37.6517L59.8417 37.6974C59.2997 40.5836 58.4769 43.2609 57.0272 45.8206C54.128 50.9434 43.716 59.9514 38.7304 63.4384C37.9664 63.9706 37.0881 64.7705 36.1249 64.7705C34.6132 64.7705 30.0717 60.6893 28.622 59.5205C21.6807 53.9112 13.1689 47.2442 12.4408 37.6648L12.4441 37.6713ZM132.2 57.6562C129.425 54.8711 126.996 62.472 129.862 64.0914C131.939 63.52 133.64 59.1025 132.2 57.6562Z" fill="black"/>
<path d="M12.4441 37.6712C13.1722 47.2506 21.684 53.9177 28.6253 59.5269C30.075 60.6991 34.6133 64.7803 36.1282 64.777C37.0881 64.777 37.9696 63.9771 38.7336 63.4449C43.7193 59.9579 54.1312 50.9499 57.0305 45.8271C58.4802 43.2674 59.3029 40.5901 59.8449 37.7039L63.7204 37.6582C64.0731 47.2147 73.3521 54.2409 80.2151 59.8534C81.5178 60.9178 84.6097 63.7714 85.7982 64.3917C86.3467 64.679 86.7515 64.8096 87.3849 64.7835C88.6158 64.7313 92.6513 61.1953 93.9149 60.1832C100.997 54.5021 110.321 47.4759 110.736 37.6614L113.632 37.7071C115.891 43.1172 117.955 48.7199 118.807 54.5707C121.341 71.9828 115.911 87.4261 104.425 100.401C103.364 105.331 105.767 115.743 102.423 119.622C100.18 122.227 91.7175 122.227 88.9587 120.66C85.1354 118.489 85.8569 110.682 83.8261 109.471C82.2949 108.56 79.265 110.258 77.5084 110.705C69.3917 112.766 61.8496 113.343 53.5337 112.008C50.5267 111.525 43.8694 109.04 41.6786 109.132C41.2738 109.148 40.9179 109.145 40.5392 109.327C38.7434 110.189 39.2071 118.538 35.547 120.66C33.5423 121.823 28.9845 121.783 26.6533 121.584C16.5253 120.716 21.7689 107.244 20.0744 100.737C19.6793 99.2159 15.1802 94.498 13.8872 92.5586C4.1054 77.863 2.26395 58.9327 8.61758 42.474C9.2869 40.7436 10.2207 37.0444 12.4409 37.6712H12.4441ZM59.4042 56.0367C49.2632 57.0749 39.4291 65.6814 43.2295 76.5896C48.8387 92.6827 78.0308 91.7979 81.8508 75.2216C84.8383 62.263 70.5834 54.8907 59.4009 56.0367H59.4042Z" fill="white" fill-opacity="0.55"/>
<path d="M32.4682 16.6613C32.8339 16.9976 33.9015 17.4351 34.4141 17.36C35.5144 17.2 39.2659 14.8362 40.771 14.2256C53.4685 9.08657 68.8759 8.80905 81.9194 12.7564C84.5575 13.5563 87.5319 15.3292 89.8239 15.9561C92.7852 16.7625 93.3827 14.0559 95.0479 12.345C98.5087 8.7862 104.582 4.84211 109.626 4.39481C112.721 4.12056 113.684 5.04454 113.991 8.11361C114.719 15.4435 112.398 22.8517 108.271 28.8429C106.557 27.7459 105.61 26.2146 103.671 25.2906C97.3399 22.2738 90.8491 24.5593 87.3817 30.4721L83.787 26.5639C76.3918 20.9678 67.1879 24.8596 64.1482 33.1004L58.8622 33.0416C55.5809 22.4697 41.6558 20.6184 36.125 30.4688C31.4528 23.188 21.8799 21.4902 15.8822 28.1834C11.7422 22.8451 8.92778 13.269 10.6419 6.62152C11.1676 4.58092 11.8891 4.29686 13.933 4.33278C18.5137 4.41114 25.2657 8.1332 28.4719 11.359C29.8301 12.727 31.3646 15.6426 32.4747 16.6613H32.4682Z" fill="##ffffff" fill-opacity="0.55"/>
<path d="M74.4034 28.5947C78.0373 27.9808 81.0019 29.1497 83.1209 32.1306C84.231 33.6913 84.9264 37.5178 87.0813 37.6582C89.2362 37.7986 90.1145 33.75 91.3258 32.1339C96.8697 24.7355 107.148 29.2444 106.446 38.112C105.744 46.9862 93.3304 54.3291 87.3392 59.8371C83.7641 56.9574 79.9735 54.1757 76.604 51.0576C71.8208 46.6271 65.8819 40.8644 68.6799 33.6488C69.4864 31.5723 72.1571 28.9799 74.4034 28.5979V28.5947Z" fill="#4E8CFF"/>
<path d="M37.8162 36.9041C38.5443 36.0944 39.3572 33.1722 40.389 31.8042C45.7403 24.7225 55.9465 29.4763 55.2185 38.1481C54.6797 44.5441 47.5719 50.3982 42.9716 54.3031C42.1096 55.0345 36.3241 59.9091 35.8441 59.8274C30.2708 54.2868 17.8966 47.241 17.0281 38.7978C15.9768 28.5948 27.1789 24.3046 32.6314 33.3159C33.5717 34.8668 35.0671 39.9666 37.8162 36.9041Z" fill="#4E8CFF"/>
<path d="M59.4042 56.0369C70.5867 54.8909 84.8416 62.2632 81.8541 75.2218C78.0308 91.7981 48.8388 92.6829 43.2328 76.5898C39.4324 65.6816 49.2632 57.0784 59.4075 56.0369H59.4042ZM59.3977 60.278C50.801 61.3098 42.2566 69.9097 48.8551 78.1472C56.9293 88.2262 79.3336 84.7751 77.7566 70.468C76.875 62.4721 66.1725 59.4618 59.3977 60.278Z" fill="black"/>
<path d="M59.3976 60.2778C66.1724 59.4648 76.875 62.4751 77.7565 70.4677C79.3335 84.7748 56.9293 88.2259 48.855 78.147C42.2565 69.9094 50.8009 61.3095 59.3976 60.2778ZM58.3985 77.3993C59.7437 76.0639 59.5902 69.1846 59.0711 67.2779C58.552 65.3711 56.1032 64.6202 54.8821 65.9719C53.5109 67.4934 53.5174 75.3064 54.6144 76.9552C55.4405 78.1992 57.3243 78.4637 58.3985 77.396V77.3993ZM66.8842 65.4821C64.7946 66.1025 65.1374 73.4715 65.3464 75.3685C65.7937 79.3811 70.1002 79.0448 70.567 74.3857C70.8446 71.6138 71.4159 64.137 66.8842 65.4821Z" fill="##ffffff" fill-opacity="0.55"/>
<path d="M58.3986 77.3995C57.3244 78.4672 55.4405 78.2027 54.6145 76.9587C53.5175 75.3067 53.5109 67.4936 54.8822 65.9754C56.1033 64.6204 58.5618 65.4236 59.0712 67.2814C59.5805 69.1391 59.7437 76.0674 58.3986 77.4028V77.3995Z" fill="black"/>
<path d="M66.8842 65.4824C71.416 64.1372 70.8446 71.614 70.5671 74.386C70.1002 79.0451 65.7937 79.3814 65.3464 75.3687C65.1342 73.4718 64.7947 66.0995 66.8842 65.4824Z" fill="black"/>
</svg>
