<svg width="137" height="128" viewBox="0 0 137 128" fill="none" xmlns="http://www.w3.org/2000/svg">
<path d="M107.854 2C107.986 2.12037 108.277 2.56693 108.538 3.68555C108.786 4.74688 108.922 5.9982 109.065 7.30371C109.179 8.34077 109.307 9.54701 109.557 10.5059L109.671 10.9004C110.366 13.0364 111.481 14.624 112.906 15.7988C114.305 16.9513 115.909 17.6288 117.472 18.1025C119.001 18.5663 120.67 18.8816 122.109 19.1973C123.114 19.4176 124.049 19.647 124.917 19.9336C124.804 20.4019 124.596 20.6064 124.427 20.7383C123.938 21.1196 123.087 21.3816 121.555 21.666C118.89 22.1606 114.319 22.5974 111.542 26.4678H111.541C109.558 29.2338 109.386 32.6351 109.083 34.8516C108.824 36.743 108.499 37.8874 107.733 38.6299C106.783 37.8175 106.452 36.5265 106.169 34.3477C105.848 31.8733 105.63 28.1301 102.952 25.2891H102.951C101.722 23.9855 100.082 23.2354 98.5449 22.7393C97.0035 22.2417 95.3253 21.9291 93.9307 21.6504C92.4398 21.3524 91.3309 21.1026 90.5732 20.7627C90.2136 20.6013 90.0612 20.4718 90.0088 20.415C90.0061 20.4121 90.0039 20.4095 90.002 20.4072C89.9907 20.283 89.9803 20.2349 90.2012 20.0703C90.5471 19.8126 91.1894 19.5487 92.1963 19.3057C93.1788 19.0685 94.2422 18.9077 95.374 18.7139C96.4122 18.536 97.6146 18.3151 98.5537 17.9307L98.5566 17.9297C103.864 15.746 105.407 11.4138 106.068 7.8916C106.232 7.02159 106.346 6.17558 106.447 5.42969C106.551 4.66108 106.638 4.02292 106.749 3.46777C106.934 2.54027 107.114 2.27903 107.144 2.23438C107.563 2.02701 107.785 2.00128 107.854 2Z" fill="white" stroke="black" stroke-width="4" stroke-linejoin="round"/>
<path d="M39.458 25.0195C39.4983 25.164 39.5411 25.3333 39.5801 25.5312C39.6942 26.1103 39.7664 26.7506 39.8477 27.4268C39.9123 27.9641 39.9888 28.5918 40.1211 29.1201L40.1816 29.3398C40.6457 30.8875 41.3695 32.0153 42.3086 32.8086C43.2378 33.5935 44.2663 33.9562 45.1738 34.1611C45.6241 34.2628 46.0629 34.3291 46.4473 34.3838C46.851 34.4412 47.1698 34.4829 47.4736 34.5391C47.9123 34.6202 48.1393 34.7057 48.2607 34.7744C48.0817 34.8688 47.8539 34.9692 47.5762 35.0693C46.9001 35.3131 46.1 35.5089 45.335 35.6904C44.9692 35.7772 44.5963 35.8639 44.2852 35.9473C44.0136 36.02 43.6326 36.1283 43.3291 36.2891C40.6371 37.714 40.0465 40.6859 39.7324 42.6367C39.6001 43.4586 39.517 44.1005 39.4121 44.6309C39.3317 44.3203 39.249 43.9523 39.167 43.5244C39.0033 42.6709 38.8275 41.5578 38.6104 40.627C38.4004 39.727 38.0808 38.636 37.4551 37.8633L37.3232 37.708C36.6498 36.9544 35.7612 36.4981 34.958 36.1914C34.0948 35.8619 33.1523 35.6427 32.3867 35.46C31.6028 35.2728 31.0416 35.1301 30.6514 34.9658C30.9251 34.7948 31.3883 34.6271 32.1348 34.4219C32.8361 34.2291 33.8002 33.9999 34.6533 33.6846C35.5192 33.3645 36.4969 32.8823 37.2266 32.04C37.9308 31.2271 38.3187 30.2026 38.5713 29.2832C38.8257 28.3573 38.9868 27.3542 39.1309 26.543C39.244 25.9058 39.3459 25.4043 39.458 25.0195Z" fill="white" stroke="black" stroke-width="3" stroke-linejoin="round"/>
<path d="M127.95 38.8232C127.998 39.161 128.041 39.5178 128.085 39.8916C128.148 40.4246 128.225 41.0797 128.376 41.5918V41.5928C128.781 42.9707 129.417 43.9914 130.257 44.7158C131.089 45.4333 132.009 45.7628 132.81 45.9473C133.205 46.0385 133.589 46.0975 133.92 46.1455C134.27 46.1964 134.536 46.2324 134.79 46.2803C134.866 46.2945 134.932 46.3113 134.991 46.3252C134.943 46.3445 134.893 46.3681 134.84 46.3877C134.275 46.5956 133.603 46.7637 132.945 46.9229C132.633 46.9984 132.309 47.0763 132.038 47.1504C131.865 47.1978 131.624 47.2657 131.394 47.3623L131.17 47.4688C128.764 48.7695 128.254 51.4664 127.987 53.1572C127.953 53.3723 127.923 53.5722 127.896 53.7588C127.765 53.0438 127.62 52.1446 127.447 51.3877C127.268 50.6017 126.988 49.6114 126.424 48.8994L126.423 48.8984C125.803 48.1175 124.946 47.6643 124.193 47.3711C123.436 47.076 122.613 46.8807 121.96 46.7217C121.527 46.6162 121.184 46.5261 120.911 46.4424C121.117 46.3619 121.391 46.274 121.751 46.1729C122.34 46.0076 123.186 45.8022 123.93 45.5215C124.688 45.2353 125.565 44.7957 126.223 44.0205C126.853 43.2777 127.195 42.3517 127.413 41.54C127.634 40.7207 127.773 39.8335 127.896 39.1279C127.914 39.0218 127.932 38.9203 127.95 38.8232Z" fill="white" stroke="black" stroke-width="3" stroke-linejoin="round"/>
<path d="M99.4551 94.7969C99.546 95.0327 99.6418 95.3632 99.7266 95.8047C99.8535 96.4662 99.9329 97.1956 100.021 97.9521C100.093 98.5614 100.176 99.253 100.316 99.8291L100.38 100.068C100.878 101.775 101.653 103.011 102.653 103.879C103.647 104.741 104.751 105.142 105.737 105.371C106.226 105.484 106.703 105.559 107.123 105.62C107.564 105.684 107.916 105.732 108.252 105.796C108.943 105.927 109.191 106.071 109.303 106.189V106.19C109.333 106.223 109.357 106.254 109.38 106.28C109.348 106.302 109.311 106.328 109.268 106.354C109.049 106.485 108.752 106.621 108.381 106.759C107.633 107.036 106.752 107.257 105.915 107.461C105.513 107.559 105.107 107.657 104.768 107.75C104.543 107.812 104.259 107.894 103.997 108.005L103.746 108.124C100.874 109.686 100.238 112.935 99.8945 115.127C99.706 116.33 99.6061 117.22 99.418 117.929C99.2724 117.48 99.1364 116.879 98.9971 116.133C98.8156 115.161 98.6254 113.923 98.3887 112.881C98.1594 111.871 97.8178 110.686 97.1621 109.854H97.1611C96.436 108.935 95.4202 108.386 94.4873 108.021C93.5503 107.653 92.526 107.408 91.6855 107.202C90.7763 106.979 90.1266 106.811 89.6846 106.604C89.6082 106.569 89.552 106.537 89.5107 106.513C89.5141 106.501 89.5169 106.495 89.5176 106.494C89.5229 106.484 89.5547 106.427 89.6855 106.334C89.9973 106.113 90.5361 105.911 91.4053 105.666C92.1792 105.448 93.226 105.191 94.1543 104.839C95.0978 104.481 96.142 103.948 96.915 103.031C97.6598 102.148 98.0746 101.03 98.3477 100.009C98.6229 98.9797 98.7983 97.8646 98.957 96.9463C99.1219 95.9927 99.2658 95.2844 99.4551 94.7969Z" fill="white" stroke="black" stroke-width="3" stroke-linejoin="round"/>
<path d="M81.9975 35.0081C81.4749 35.0943 80.7589 35.6379 80.3539 36.0037L0.792446 115.581C0.12349 116.516 -0.39652 117.517 0.410932 118.573L9.42356 127.585C10.5498 128.437 11.5977 127.818 12.5541 127.081L92.2487 47.376C93.26 45.9675 93.2548 45.3822 92.2487 43.9815C91.3368 42.7116 85.2848 36.657 84.0174 35.7502C83.419 35.3217 82.7684 34.8827 81.9949 35.0081H81.9975Z" fill="white"/>
<path d="M81.9975 35.0077C82.7684 34.8823 83.4217 35.3213 84.0201 35.7499C85.2874 36.6566 91.3394 42.7112 92.2514 43.9812C93.2574 45.3818 93.2626 45.9671 92.2514 47.3756L12.5567 127.083C11.6029 127.82 10.5524 128.44 9.42618 127.588L0.413552 118.572C-0.396513 117.517 0.126109 116.516 0.795066 115.58L80.3539 36.0033C80.7563 35.6375 81.4749 35.094 81.9975 35.0077ZM82.2405 40.7487L73.1757 49.4739L78.3078 54.8047L87.2499 45.7633C86.8501 44.9977 82.6273 40.6886 82.2405 40.7487ZM74.9865 58.4604C75.3184 57.9953 70.019 52.688 69.5408 53.0147L5.61626 117.543L10.4557 122.382L11.3729 121.977L74.9865 58.4604Z" fill="black"/>
<path d="M74.9865 58.4604L11.3729 121.98L10.4557 122.385L5.61621 117.546L69.5382 53.0147C70.0163 52.6881 75.3184 57.9953 74.9839 58.4604H74.9865Z" fill="#4E8CFF"/>
<path d="M82.2407 40.7487C82.6274 40.6886 86.8502 44.9976 87.25 45.7632L78.3079 54.8046L73.1758 49.4739L82.2407 40.7487Z" fill="white" fill-opacity="0.4"/>
<path d="M84.3335 72.9999L84.3335 79.6665" stroke="black" stroke-width="2" stroke-linecap="round"/>
<path d="M87.6665 76.3331L80.9998 76.3331" stroke="black" stroke-width="2" stroke-linecap="round"/>
<path d="M65.3335 28L65.3335 34.6667" stroke="black" stroke-width="2" stroke-linecap="round"/>
<path d="M68.6665 31.3334L61.9998 31.3334" stroke="black" stroke-width="2" stroke-linecap="round"/>
</svg>
