<svg width="116" height="112" viewBox="0 0 116 112" fill="none" xmlns="http://www.w3.org/2000/svg">
<path d="M38.2051 36.5C38.3091 36.5018 38.321 36.5115 38.3779 36.5586C38.7173 36.8396 39.3133 37.7908 39.833 40.0186C40.316 42.0891 40.5798 44.5236 40.8545 47.0332C41.0904 49.1884 41.3529 51.6659 41.8916 53.5273L42.0029 53.8916C43.3192 57.946 45.4254 60.9476 48.1133 63.167C50.7543 65.3476 53.7927 66.636 56.7754 67.542C59.7 68.4303 62.8848 69.0331 65.667 69.6445C67.7142 70.0944 69.6249 70.5639 71.3975 71.1699C71.1893 72.3664 70.6992 72.8981 70.2617 73.2402C69.2465 74.034 67.528 74.5483 64.5898 75.0947C59.4126 76.0576 50.7936 76.8881 45.5518 84.207V84.208C41.8023 89.4472 41.4759 95.8833 40.8867 100.201C40.3643 104.029 39.6956 106.39 37.9648 107.902C35.8398 106.257 35.1637 103.602 34.5967 99.2275C33.9733 94.4183 33.5588 87.3451 28.5039 81.9727C26.1991 79.5233 23.1076 78.1013 20.1738 77.1523C17.2327 76.2011 14.0289 75.6021 11.3389 75.0635C8.48005 74.491 6.30827 74.0028 4.80957 73.3291C4.09407 73.0074 3.75445 72.7357 3.61035 72.5791C3.52018 72.4811 3.51396 72.4495 3.50684 72.3682C3.47207 71.9712 3.5156 71.7695 4.02832 71.3867C4.75161 70.8467 6.04336 70.3253 7.99023 69.8545C9.89424 69.3941 11.9563 69.0828 14.123 68.7109C16.126 68.3672 18.4013 67.9459 20.167 67.2217L20.1729 67.2197C30.2204 63.0778 33.1442 54.8748 34.4062 48.1387C34.7184 46.4726 34.9382 44.8522 35.1328 43.4141C35.3329 41.9361 35.5015 40.6943 35.7168 39.6113C36.1704 37.3294 36.6286 37.0038 36.5986 37.0176C37.5234 36.5499 38.0254 36.497 38.2051 36.5Z" fill="white" stroke="black" stroke-width="7" stroke-linejoin="round"/>
<path d="M95.4209 2.68945C95.6391 3.08082 95.8724 3.75861 96.0791 4.78809C96.305 5.9131 96.4465 7.15419 96.6045 8.44434C96.7495 9.62891 96.9222 11.0005 97.2441 12.0537V12.0547C98.135 14.9718 99.5151 17.0669 101.277 18.5283C103.02 19.9734 104.953 20.6451 106.682 21.0283C107.541 21.2188 108.382 21.3447 109.13 21.4492C109.91 21.5582 110.548 21.639 111.154 21.749C112.409 21.9767 112.905 22.2364 113.14 22.4736V22.4746C113.194 22.5299 113.242 22.5801 113.282 22.626C113.214 22.6715 113.136 22.7215 113.045 22.7734C112.64 23.0057 112.097 23.2443 111.427 23.4814C110.079 23.9587 108.493 24.3384 107.002 24.6855C106.284 24.8528 105.563 25.0181 104.964 25.1758C104.496 25.2987 103.905 25.464 103.401 25.6924L103.193 25.7939C98.1394 28.4203 96.9958 33.9223 96.3779 37.6895C96.0301 39.81 95.856 41.3545 95.499 42.5771C95.4544 42.73 95.4103 42.8603 95.3701 42.9717C95.0349 42.1782 94.7367 40.9822 94.4277 39.4004C94.1047 37.7467 93.7649 35.6359 93.3428 33.8594C92.9325 32.1329 92.3222 30.1158 91.1602 28.707V28.7061C89.8854 27.1619 88.1044 26.2431 86.4658 25.6289C84.8139 25.0098 83.006 24.5952 81.5039 24.2432C79.8895 23.8648 78.7036 23.5726 77.8896 23.21C77.7231 23.1357 77.6054 23.0713 77.5225 23.0225C77.5269 23.0108 77.5292 23.0051 77.5293 23.0049C77.5423 22.981 77.609 22.8724 77.8604 22.7021C78.4481 22.3041 79.4441 21.9515 80.9941 21.5332C82.3869 21.1574 84.2329 20.7272 85.874 20.1318C87.5336 19.5297 89.3632 18.6369 90.7217 17.0977C92.0408 15.6029 92.7818 13.7015 93.2705 11.9551C93.7618 10.1994 94.0736 8.297 94.3564 6.7334C94.6601 5.055 94.9231 3.82604 95.2764 2.99609C95.3304 2.86917 95.3787 2.76857 95.4209 2.68945Z" fill="white" stroke="black" stroke-width="5" stroke-linejoin="round"/>
</svg>
