<svg width="123" height="124" viewBox="0 0 123 124" fill="none" xmlns="http://www.w3.org/2000/svg">
<path d="M118.339 37.9571C118.904 38.4177 120.315 38.1829 120.592 39.74C120.8 40.9138 119.849 41.5883 119.887 42.2183C119.997 44.1142 121.611 48.0961 122.033 50.4615C127.854 83.1072 106.735 114.995 74.2886 121.687C30.5083 130.715 -7.85473 92.2448 1.38688 48.4883C1.75238 46.7619 3.04205 43.6536 3.12525 42.2154C3.16686 41.5051 2.08223 40.8841 2.49528 39.5112C2.90833 38.1383 4.36143 38.3285 4.77151 37.8323C5.3896 37.0894 6.18004 34.4952 6.78029 33.3779C30.6421 -11.1245 92.3736 -11.1274 116.235 33.3779C116.678 34.2069 117.983 37.6629 118.342 37.9571H118.339ZM112.616 37.1399C113.178 36.5069 108.539 29.4524 107.808 28.4302C85.0695 -3.34191 37.9313 -3.38946 15.2047 28.4302C14.4975 29.4227 9.81428 36.5396 10.3967 37.1399L20.9666 35.3807L28.2737 20.6982C29.2781 19.046 31.1502 18.832 32.3418 20.3951L39.8124 35.5085C44.8967 36.6734 50.6051 36.6882 55.6301 37.8174C57.621 38.2661 58.9345 39.2467 57.9568 41.4665L45.812 53.4004C45.6664 53.7599 45.7704 54.1135 45.7852 54.4761C45.9903 59.1801 48.213 64.939 48.4329 69.6906C48.5102 71.3487 48.1773 72.3858 46.4241 72.7453L30.1726 64.7756L14.6579 72.7156C13.3861 72.68 12.1826 71.5835 12.1707 70.2878L15.1007 53.6946L6.98236 45.7634C6.31673 45.909 4.91712 54.5474 4.78637 55.7539C0.851997 92.3875 33.2987 123.134 69.6381 117.931C99.2796 113.685 121.361 86.0402 118.262 56.0154C118.063 54.0927 117.148 47.7514 116.42 46.2686C116.274 45.9744 116.134 45.6743 115.745 45.7604L107.915 53.6916L110.815 70.3146C110.866 71.5211 109.549 72.778 108.358 72.7127L92.5906 64.7726L76.5648 72.7127C75.0048 72.4541 74.5352 71.4735 74.565 69.9758L77.2156 53.4033L65.0648 41.4665C64.1942 39.2557 65.05 38.3553 67.142 37.865C72.1966 36.6852 78.0833 36.7655 83.2063 35.5085L90.6769 20.3951C91.8685 18.832 93.7406 19.046 94.7449 20.6982L102.052 35.3807L112.622 37.1399H112.616ZM43.0811 65.9642C42.6324 61.2572 41.1614 56.6245 41.0664 51.9116L50.8042 42.046C50.5308 41.5765 50.1624 41.6924 49.7731 41.5973C46.9798 40.896 43.4912 40.8603 40.5998 40.37C38.4514 40.0075 37.34 40.2749 36.0919 38.3404C34.1218 35.2856 32.8381 30.6084 30.963 27.72C30.7074 27.3248 30.6094 26.9206 30.0121 27.0395L24.057 39.3626C22.7971 40.4651 13.291 41.0683 10.8424 41.6002C10.4413 41.6864 10.0936 41.5616 9.80833 42.046L19.1747 51.0974L19.7899 52.286L17.5285 65.9642L30.1755 59.7358C31.9228 59.6258 42.5967 66.4931 43.0811 65.9672V65.9642ZM93.0036 27.0365C92.4063 26.9177 92.3083 27.3218 92.0527 27.717C90.1776 30.6054 88.8939 35.2827 86.9238 38.3374C85.6757 40.2719 84.5643 40.0045 82.4159 40.367C79.5245 40.8573 76.0359 40.893 73.2426 41.5943C72.8533 41.6923 72.4849 41.5735 72.2115 42.043L81.9493 51.9086C81.8542 56.6245 80.3833 61.2542 79.9346 65.9612L92.8431 59.7328L105.49 65.9612L103.229 52.2831C103.603 50.3278 113.195 42.7591 113.21 42.043C112.928 41.5616 112.58 41.6834 112.176 41.5973C109.725 41.0683 100.204 40.4473 98.9616 39.3597L93.0066 27.0365H93.0036Z" fill="black"/>
<path d="M112.616 37.1399L102.046 35.3807L94.739 20.6982C93.7346 19.046 91.8625 18.832 90.6709 20.3951L83.2003 35.5085C78.0744 36.7655 72.1906 36.6853 67.136 37.865C65.044 38.3553 64.1882 39.2557 65.0589 41.4665L77.2096 53.4034L74.559 69.9758C74.5293 71.4705 74.9988 72.4541 76.5589 72.7127L92.5846 64.7726L108.352 72.7127C109.543 72.778 110.86 71.5211 110.809 70.3146L107.909 53.6916L115.739 45.7605C116.128 45.6743 116.271 45.9744 116.414 46.2686C117.142 47.7514 118.06 54.0898 118.256 56.0154C121.358 86.0372 99.2736 113.685 69.6321 117.931C33.2986 123.131 0.851985 92.3845 4.78635 55.7509C4.9171 54.5444 6.31672 45.9061 6.98235 45.7605L15.1007 53.6916L12.1707 70.2849C12.1826 71.5805 13.3831 72.68 14.6579 72.7127L30.1725 64.7726L46.4241 72.7424C48.1744 72.3858 48.5101 71.3487 48.4329 69.6876C48.213 64.936 45.9903 59.1771 45.7852 54.4731C45.7704 54.1106 45.6663 53.754 45.812 53.3974L57.9568 41.4635C58.9344 39.2468 57.621 38.2632 55.63 37.8145C50.6051 36.6853 44.8967 36.6704 39.8123 35.5055L32.3418 20.3921C31.1502 18.829 29.2781 19.043 28.2737 20.6952L20.9666 35.3778L10.3967 37.1369C9.81426 36.5367 14.4975 29.4197 15.2047 28.4272C37.9313 -3.39242 85.0695 -3.34487 107.808 28.4272C108.539 29.4495 113.178 36.507 112.616 37.1369V37.1399ZM33.1887 80.5874C31.1591 81.1817 31.8842 85.2616 32.1219 86.8782C36.918 119.271 83.4678 120.888 90.4272 89.092C90.8343 87.2288 92.121 81.6215 90.029 80.6795L33.1887 80.5874Z" fill="#4E8CFF"/>
<path d="M93.0036 27.0364L98.9586 39.3595C100.201 40.4471 109.722 41.0682 112.173 41.5971C112.577 41.6833 112.922 41.5615 113.207 42.0428C113.19 42.762 103.6 50.3276 103.226 52.2829L105.487 65.9611L92.8402 59.7327L79.9316 65.9611C80.3803 61.2541 81.8513 56.6214 81.9464 51.9085L72.2085 42.0428C72.4819 41.5733 72.8504 41.6892 73.2396 41.5941C76.0329 40.8928 79.5215 40.8572 82.4129 40.3669C84.5613 40.0043 85.6727 40.2718 86.9208 38.3373C88.8909 35.2825 90.1747 30.6052 92.0497 27.7169C92.3053 27.3216 92.4033 26.9175 93.0006 27.0364H93.0036Z" fill="white"/>
<path d="M43.0809 65.964C42.5935 66.493 31.9196 59.6227 30.1753 59.7326L17.5283 65.9611L19.7896 52.2829L19.1745 51.0943L9.80811 42.0428C10.0904 41.5585 10.4381 41.6833 10.8422 41.5971C13.2908 41.0652 22.7969 40.462 24.0568 39.3595L30.0119 27.0364C30.6092 26.9175 30.7072 27.3216 30.9628 27.7169C32.8378 30.6052 34.1216 35.2825 36.0917 38.3373C37.3398 40.2718 38.4511 40.0043 40.5996 40.3669C43.4909 40.8572 46.9796 40.8928 49.7729 41.5941C50.1621 41.6922 50.5306 41.5733 50.804 42.0428L41.0661 51.9085C41.1612 56.6244 42.6322 61.2541 43.0809 65.9611V65.964Z" fill="white"/>
<path d="M33.1887 80.5875L90.029 80.6796C92.121 81.6216 90.8343 87.229 90.4272 89.0922C83.4708 120.891 36.921 119.272 32.1219 86.8783C31.8812 85.2618 31.1591 81.1789 33.1887 80.5875ZM86.4661 84.9825H36.5436C38.2107 101.897 55.5825 112.339 71.3913 105.715C79.7474 102.215 85.6341 94.0072 86.4661 84.9825Z" fill="black"/>
<path d="M86.466 84.9824C85.631 94.0071 79.7472 102.212 71.3912 105.715C55.5853 112.339 38.2135 101.897 36.5435 84.9824H86.466Z" fill="white" fill-opacity="0.28"/>
</svg>
