<svg width="157" height="135" viewBox="0 0 157 135" fill="none" xmlns="http://www.w3.org/2000/svg">
<path d="M15.79 14.5C15.8161 14.5004 15.8077 14.4985 15.8223 14.5107C15.9508 14.6183 16.196 15.0055 16.4111 15.9375C16.6103 16.8006 16.7204 17.8157 16.834 18.8643C16.9249 19.7035 17.025 20.6632 17.2197 21.4219L17.3096 21.7344C17.855 23.4321 18.7282 24.6927 19.8467 25.626C20.9457 26.543 22.2097 27.0839 23.4473 27.4639C24.6594 27.836 25.9808 28.089 27.1279 28.3438C27.9593 28.5284 28.7337 28.721 29.4521 28.9668C29.3645 29.4424 29.1706 29.6517 29.0029 29.7842C28.5957 30.106 27.8997 30.3185 26.6846 30.5469C24.5511 30.9479 20.9606 31.2976 18.7803 34.374V34.375C17.2248 36.5717 17.0897 39.2688 16.8467 41.0684C16.6342 42.6422 16.3621 43.6078 15.6875 44.2295C14.8585 43.5518 14.5846 42.4635 14.3535 40.6621C14.0964 38.6578 13.9252 35.6912 11.8262 33.4365C10.8654 32.4047 9.57713 31.8063 8.35938 31.4082C7.13929 31.0094 5.81047 30.7589 4.7002 30.5342C3.51732 30.2948 2.62739 30.0923 2.01562 29.8145C1.72516 29.6825 1.59117 29.5729 1.53711 29.5137C1.50592 29.4794 1.50543 29.4722 1.50293 29.4434C1.48919 29.285 1.50371 29.211 1.70312 29.0605C1.99273 28.8421 2.51649 28.6266 3.31836 28.4307C4.1024 28.2391 4.95121 28.1097 5.84863 27.9541C6.67544 27.8107 7.62389 27.6338 8.36133 27.3281L8.36328 27.3271C12.5419 25.5863 13.7529 22.141 14.2744 19.3281C14.4035 18.6316 14.4948 17.9541 14.5752 17.3535C14.6579 16.7359 14.7266 16.2171 14.8154 15.7656C15.003 14.8123 15.1917 14.6896 15.1631 14.7061C15.5356 14.5165 15.7305 14.499 15.79 14.5Z" fill="white" stroke="black" stroke-width="3" stroke-linejoin="round"/>
<path d="M39.498 3.5459C39.5567 4.02344 39.6324 4.6339 39.7803 5.11621V5.11719C40.1719 6.39485 40.7895 7.34375 41.6016 8.01465C42.4017 8.67561 43.2811 8.97565 44.0371 9.14258C44.4121 9.22538 44.7757 9.27883 45.0879 9.32227C45.2605 9.34628 45.4114 9.36589 45.5498 9.38574C45.1144 9.51608 44.6365 9.63086 44.165 9.74023C43.8707 9.80852 43.5642 9.87909 43.3076 9.94629C43.1446 9.98898 42.9147 10.0516 42.6934 10.1406L42.4775 10.2383C40.1551 11.441 39.6608 13.9511 39.4072 15.4912C39.4031 15.5165 39.3986 15.5416 39.3945 15.5664C39.2944 15.0201 39.1834 14.4073 39.0566 13.876C38.8861 13.161 38.614 12.2308 38.0566 11.5576L38.0557 11.5566C37.4512 10.8274 36.6245 10.4124 35.915 10.1475C35.197 9.87939 34.4163 9.7023 33.8008 9.55859C33.6129 9.51473 33.4435 9.47253 33.29 9.43457C33.3859 9.40649 33.4903 9.37639 33.6045 9.3457C34.1589 9.19667 34.9602 9.00962 35.665 8.75488C36.3805 8.49627 37.2249 8.09477 37.8643 7.37305C38.4803 6.67753 38.8117 5.81235 39.0215 5.06543C39.2087 4.39903 39.3341 3.68362 39.4404 3.08887C39.459 3.23694 39.4788 3.38944 39.498 3.5459Z" fill="white" stroke="black" stroke-width="3" stroke-linejoin="round"/>
<path d="M152.342 48.9584C152.907 49.419 154.318 49.1843 154.595 50.7414C154.803 51.9151 153.852 52.5897 153.89 53.2197C154 55.1155 155.614 59.0974 156.036 61.4628C161.857 94.1086 140.738 125.997 108.292 132.689C64.5113 141.716 26.1482 103.246 35.3898 59.4897C35.7553 57.7632 37.045 54.6549 37.1282 53.2167C37.1698 52.5065 36.0852 51.8854 36.4982 50.5126C36.9113 49.1397 38.3644 49.3299 38.7744 48.8336C39.3925 48.0907 40.183 45.4965 40.7832 44.3792C64.645 -0.123128 126.377 -0.126102 150.238 44.3792C150.681 45.2083 151.986 48.6642 152.345 48.9584H152.342ZM146.619 48.1412C147.181 47.5083 142.542 40.4538 141.811 39.4315C119.072 7.65943 71.9343 7.61189 49.2076 39.4315C48.5004 40.4241 43.8172 47.541 44.3996 48.1412L54.9695 46.3821L62.2766 31.6995C63.281 30.0473 65.1531 29.8333 66.3447 31.3964L73.8153 46.5098C78.8997 47.6747 84.6081 47.6896 89.633 48.8188C91.624 49.2675 92.9374 50.2481 91.9597 52.4679L79.8149 64.4017C79.6693 64.7613 79.7733 65.1149 79.7882 65.4774C79.9932 70.1814 82.2159 75.9403 82.4358 80.6919C82.5131 82.35 82.1803 83.3871 80.427 83.7467L64.1755 75.7769L48.6609 83.717C47.389 83.6813 46.1856 82.5848 46.1737 81.2892L49.1036 64.6959L40.9853 56.7648C40.3197 56.9104 38.92 65.5487 38.7893 66.7552C34.8549 103.389 67.3016 134.136 103.641 128.932C133.283 124.686 155.364 97.0415 152.265 67.0167C152.066 65.0941 151.151 58.7527 150.423 57.2699C150.277 56.9757 150.137 56.6756 149.748 56.7618L141.918 64.6929L144.818 81.3159C144.869 82.5224 143.552 83.7794 142.361 83.714L126.593 75.7739L110.568 83.714C109.008 83.4555 108.538 82.4748 108.568 80.9772L111.219 64.4047L99.0678 52.4679C98.1971 50.257 99.0529 49.3566 101.145 48.8663C106.2 47.6866 112.086 47.7668 117.209 46.5098L124.68 31.3964C125.871 29.8333 127.743 30.0473 128.748 31.6995L136.055 46.3821L146.625 48.1412H146.619ZM77.084 76.9655C76.6353 72.2586 75.1644 67.6259 75.0693 62.9129L84.8072 53.0473C84.5338 52.5778 84.1653 52.6937 83.776 52.5986C80.9827 51.8973 77.4941 51.8617 74.6028 51.3713C72.4543 51.0088 71.3429 51.2763 70.0949 49.3418C68.1247 46.287 66.841 41.6097 64.9659 38.7213C64.7104 38.3261 64.6123 37.922 64.015 38.0408L58.06 50.364C56.8 51.4664 47.294 52.0697 44.8454 52.6016C44.4442 52.6878 44.0965 52.5629 43.8113 53.0473L53.1777 62.0987L53.7928 63.2874L51.5314 76.9655L64.1785 70.7371C65.9257 70.6272 76.5997 77.4945 77.084 76.9685V76.9655ZM127.007 38.0379C126.409 37.919 126.311 38.3231 126.056 38.7184C124.181 41.6067 122.897 46.284 120.927 49.3388C119.679 51.2733 118.567 51.0058 116.419 51.3684C113.527 51.8587 110.039 51.8943 107.246 52.5956C106.856 52.6937 106.488 52.5748 106.214 53.0443L115.952 62.91C115.857 67.6259 114.386 72.2556 113.938 76.9626L126.846 70.7341L139.493 76.9626L137.232 63.2844C137.606 61.3291 147.198 53.7605 147.213 53.0443C146.931 52.5629 146.583 52.6848 146.179 52.5986C143.728 52.0697 134.207 51.4486 132.965 50.361L127.009 38.0379H127.007Z" fill="black"/>
<path d="M146.619 48.1412L136.049 46.3821L128.742 31.6995C127.738 30.0473 125.865 29.8334 124.674 31.3964L117.203 46.5099C112.077 47.7668 106.194 47.6866 101.139 48.8663C99.0469 49.3566 98.1911 50.257 99.0618 52.4679L111.213 64.4047L108.562 80.9772C108.532 82.4719 109.002 83.4555 110.562 83.714L126.588 75.774L142.355 83.714C143.546 83.7794 144.863 82.5224 144.812 81.3159L141.912 64.6929L149.742 56.7618C150.131 56.6756 150.274 56.9758 150.417 57.2699C151.145 58.7528 152.063 65.0911 152.259 67.0167C155.361 97.0386 133.277 124.686 103.635 128.933C67.3016 134.133 34.8549 103.386 38.7893 66.7522C38.92 65.5458 40.3196 56.9074 40.9853 56.7618L49.1036 64.6929L46.1737 81.2862C46.1855 82.5818 47.3861 83.6813 48.6609 83.714L64.1755 75.774L80.427 83.7437C82.1773 83.3871 82.5131 82.3501 82.4358 80.6889C82.2159 75.9374 79.9932 70.1785 79.7881 65.4745C79.7733 65.1119 79.6693 64.7553 79.8149 64.3988L91.9597 52.4649C92.9374 50.2481 91.6239 49.2645 89.633 48.8158C84.608 47.6866 78.8996 47.6717 73.8153 46.5069L66.3447 31.3934C65.1531 29.8304 63.281 30.0443 62.2766 31.6965L54.9695 46.3791L44.3996 48.1383C43.8172 47.538 48.5004 40.4211 49.2076 39.4286C71.9343 7.60892 119.072 7.65647 141.811 39.4286C142.542 40.4508 147.181 47.5083 146.619 48.1383V48.1412ZM67.1916 91.5887C65.162 92.183 65.8871 96.263 66.1248 97.8795C70.921 130.273 117.471 131.889 124.43 100.093C124.837 98.2302 126.124 92.6228 124.032 91.6808L67.1916 91.5887Z" fill="#FFD373"/>
<path d="M127.007 38.0377L132.962 50.3609C134.204 51.4485 143.725 52.0695 146.176 52.5985C146.58 52.6846 146.925 52.5628 147.21 53.0442C147.192 53.7633 137.603 61.3289 137.229 63.2842L139.49 76.9624L126.843 70.734L113.935 76.9624C114.383 72.2554 115.854 67.6228 115.949 62.9098L106.211 53.0442C106.485 52.5747 106.853 52.6906 107.243 52.5955C110.036 51.8942 113.524 51.8585 116.416 51.3682C118.564 51.0057 119.676 51.2731 120.924 49.3386C122.894 46.2839 124.178 41.6066 126.053 38.7182C126.308 38.323 126.406 37.9189 127.004 38.0377H127.007Z" fill="white"/>
<path d="M77.0838 76.9654C76.5965 77.4943 65.9225 70.624 64.1782 70.734L51.5312 76.9624L53.7926 63.2842L53.1774 62.0956L43.811 53.0442C44.0933 52.5598 44.441 52.6846 44.8451 52.5985C47.2937 52.0665 56.7998 51.4633 58.0598 50.3609L64.0148 38.0377C64.6121 37.9189 64.7101 38.323 64.9657 38.7182C66.8408 41.6066 68.1245 46.2838 70.0946 49.3386C71.3427 51.2731 72.4541 51.0057 74.6025 51.3682C77.4939 51.8585 80.9825 51.8942 83.7758 52.5955C84.1651 52.6935 84.5335 52.5747 84.8069 53.0442L75.0691 62.9098C75.1642 67.6257 76.6351 72.2554 77.0838 76.9624V76.9654Z" fill="white"/>
<path d="M67.1916 91.5889L124.032 91.681C126.124 92.623 124.837 98.2303 124.43 100.094C117.474 131.892 70.9239 130.273 66.1248 97.8797C65.8841 96.2632 65.162 92.1802 67.1916 91.5889ZM120.469 95.9838H70.5465C72.2136 112.898 89.5854 123.34 105.394 116.717C113.75 113.216 119.637 105.009 120.469 95.9838Z" fill="black"/>
<path d="M120.469 95.9838C119.634 105.008 113.75 113.213 105.394 116.716C89.5883 123.34 72.2164 112.898 70.5464 95.9838H120.469Z" fill="white" fill-opacity="0.28"/>
</svg>
