<svg width="154" height="156" viewBox="0 0 154 156" fill="none" xmlns="http://www.w3.org/2000/svg">
<g clip-path="url(#clip0_804_223)">
<path d="M33.995 2.23338C35.6664 3.40307 31.7181 9.99405 31.1077 11.6539C29.1601 16.9442 27.2271 22.8945 26.0257 28.4032C25.3135 31.6647 22.4794 47.7733 24.3204 49.5351C24.8145 50.0059 26.0111 50.0981 26.7087 50.5398C27.8715 51.2824 29.7657 53.6266 29.9934 53.68C31.127 53.9275 32.2461 52.8743 33.3265 52.7044C45.2491 50.797 42.5845 72.0212 43.8393 79.0053C44.2172 81.1068 46.7267 85.9214 46.6346 86.8727C46.4021 89.3722 44.3431 88.7025 43.0302 87.0911C38.2922 81.2767 40.5304 68.5801 38.7379 61.2999C36.3737 51.724 28.666 58.349 26.5295 64.3333C24.0927 71.1572 25.299 80.0245 27.9829 86.6398C31.345 94.9295 41.3831 107.214 51.4453 101.909C58.8333 98.0114 54.2794 91.6971 53.9015 85.4264C53.7756 83.354 54.4732 80.1216 54.2843 78.7432C54.0808 77.2435 51.9298 73.9091 51.5858 71.7299C50.0937 62.2657 57.036 59.1158 64.7244 63.4208L81.0023 74.3217C79.6797 77.36 77.5044 76.3747 75.2372 75.2147C71.0854 73.0841 67.4374 68.6917 62.9416 66.6629C51.1885 61.363 54.759 73.9092 59.4486 79.3984C65.7853 86.8193 85.7548 99.8994 92.7504 86.9892C99.0048 75.4428 85.5901 59.1935 84.4225 46.1134C83.4391 35.0815 87.3148 17.6625 91.9414 7.55277C92.8958 5.47064 93.6467 2.51488 96.2822 2.63622C100.41 2.82551 95.5264 10.4794 94.7076 12.7557C89.9842 25.9037 87.0144 40.0321 90.8513 53.7479C94.1747 65.634 104.751 77.5056 95.7686 89.5276C92.2611 94.2208 87.4407 96.6621 81.5109 96.3564C82.2667 99.516 84.0495 102.656 85.9583 105.243C89.1267 109.533 95.8655 113.572 97.1639 118.77C98.7771 125.259 92.9975 129.253 87.0968 129.389C73.7596 129.69 61.6481 113.14 57.7675 101.695C49.1683 111.47 36.553 106.592 29.9159 97.3368C20.1249 107.442 12.359 93.8229 11.0461 84.6838C9.03562 83.9461 7.4805 84.2616 5.68315 82.7764C0.586627 78.5588 -0.338692 69.211 0.0973225 63.0957C0.649608 55.3398 5.6008 38.5954 15.3821 38.7022C17.3974 38.7216 18.72 39.9835 20.4592 40.5465C21.2198 30.3203 23.8989 18.9487 27.978 9.49415C28.6466 7.94104 31.6745 0.607479 33.995 2.23824V2.23338ZM10.2855 80.3448V68.9392C10.2855 66.1388 13.2068 57.4996 14.7329 54.9516C16.7143 51.6415 18.7442 51.758 18.5456 47.0841C18.2501 40.2116 12.3203 42.6626 9.39412 46.6959C4.22493 53.8159 1.39568 70.4584 6.68114 77.889C7.11716 78.5005 9.51524 81.1408 10.2855 80.3448ZM21.8012 53.2626C19.3885 53.8595 17.0825 58.1257 16.2202 60.3195C13.0857 68.2986 13.1874 81.597 16.3558 89.5567C17.7462 93.0463 20.28 98.1182 24.8048 96.5748C29.6204 94.9343 25.6768 90.9496 24.5917 88.1006C20.4786 77.2823 19.6308 65.4205 27.1932 55.9028C26.1032 54.3158 23.7632 52.7724 21.8012 53.2626ZM77.0297 95.5022C71.4778 93.4928 66.1632 90.2119 61.6335 86.4165C60.9989 85.8875 57.8983 82.1649 57.2831 82.7716C58.2665 92.9832 61.1636 102.71 66.8608 111.271C71.313 117.959 81.7677 128.622 90.6576 124.701C99.1502 120.954 87.6539 113.178 84.8828 110.203C81.0507 106.092 78.764 100.773 77.0345 95.4973L77.0297 95.5022Z" fill="black" stroke="black"/>
<path d="M104.605 134.858C104.939 135.169 105.467 136.081 105.588 136.528C106.17 138.644 106.053 147.235 105.748 149.53C105.409 152.088 101.16 154.039 98.8445 154.748C93.714 156.311 79.2577 157.704 78.1386 150.448C77.8722 148.725 77.5524 141.119 77.7123 139.304C78.0659 135.285 81.9077 133.868 85.3716 133.004C90.3325 131.762 100.613 131.155 104.605 134.858ZM89.1456 136.295C87.9441 136.441 82.2275 137.814 81.9852 138.833C81.3651 141.478 92.6676 141.119 94.276 140.949C95.8844 140.78 104.392 138.935 100.666 137.096C97.9773 135.766 92.1831 135.926 89.1456 136.29V136.295ZM102.333 142.954C95.3467 144.997 88.6563 145.633 81.5056 143.925C81.898 146.007 81.2779 150.375 83.1479 151.253C87.4936 153.292 98.8106 152.234 102.241 148.443L102.333 142.959V142.954Z" fill="black"/>
<path d="M102.333 142.954L102.241 148.438C98.8156 152.229 87.4938 153.287 83.1482 151.249C81.2733 150.37 81.8983 146.002 81.5059 143.92C88.6565 145.633 95.3469 144.992 102.333 142.949V142.954Z" fill="#4E8CFF"/>
<path d="M89.1455 136.295C92.1831 135.931 97.9821 135.771 100.666 137.101C104.391 138.94 95.9473 140.78 94.2759 140.954C92.6045 141.129 81.3651 141.483 81.9852 138.838C82.2226 137.814 87.9392 136.441 89.1455 136.3V136.295Z" fill="#4E8CFF" fill-opacity="0.65"/>
<g clip-path="url(#clip1_804_223)">
<path d="M58.7261 84.0575C62.0707 86.6602 65.1905 89.4371 68.7349 91.6659C69.6573 92.2453 71.4409 92.9767 73.1157 93.6376C73.9401 93.9629 74.7338 94.2692 75.3501 94.5223C75.5288 94.5957 75.6951 94.6658 75.8452 94.7313V94.451L76.6733 95.1727C76.7752 95.2615 76.8538 95.3925 76.8999 95.4725C76.9591 95.5752 77.0257 95.7045 77.0972 95.8514C77.2406 96.1465 77.4174 96.5417 77.6177 97.0028C78.0184 97.9257 78.5244 99.1435 79.0591 100.408C79.5954 101.676 80.1628 102.997 80.6899 104.141C81.2215 105.293 81.6986 106.235 82.0552 106.764L82.2827 107.073C82.5438 107.404 82.9036 107.799 83.3452 108.252C83.9294 108.851 84.6353 109.53 85.4048 110.269C86.9372 111.741 88.7161 113.442 90.2065 115.147C91.6838 116.837 92.9397 118.599 93.353 120.197C93.5633 121.01 93.5655 121.819 93.23 122.557C92.894 123.297 92.2515 123.898 91.3081 124.356C87.191 126.355 82.9258 125.586 78.9321 123.194C74.9492 120.808 71.1856 116.783 67.98 112.15C64.7707 107.512 62.0977 102.23 60.3062 97.2938C58.5198 92.3717 57.5884 87.735 57.9214 84.4022L58.0122 83.5018L58.7261 84.0575Z" fill="#FFF9F9" stroke="black"/>
<path d="M22.0615 53.119C22.64 53.1299 23.2257 53.2707 23.832 53.4471C24.4636 53.6309 25.085 53.8416 25.8574 54.0497L26.2559 54.1571L26.2256 54.5692C26.1166 56.0805 25.4353 57.2843 24.7109 58.3837C23.9694 59.5091 23.2091 60.4956 22.7529 61.6923C18.4637 72.9388 21.8934 83.0927 26.2568 93.7987L26.2949 93.8915L26.2939 93.9921C26.2842 94.9288 25.9314 95.6257 25.3008 96.0389C24.7 96.4327 23.9307 96.5132 23.1807 96.4286C21.7779 96.2702 20.1827 95.5071 19.1758 94.5272L18.9824 94.328C17.1963 92.3871 15.8976 89.4447 15.0381 86.0536C14.1761 82.6527 13.7445 78.7533 13.7266 74.8524C13.7086 70.9511 14.1037 67.0324 14.9053 63.5936C15.7046 60.1645 16.9176 57.1687 18.5635 55.1493C19.779 53.6573 20.8339 53.0959 22.0615 53.119Z" fill="#FFF9F9" stroke="black"/>
<path d="M13.5791 42.9023C14.6532 42.4422 15.8202 42.2818 16.7383 42.9307C17.5878 43.5312 18.0471 44.7034 18.1211 46.4326L18.1299 46.7861L18.127 46.9717C18.1061 47.4161 17.9972 47.9303 17.8369 48.4824C17.6517 49.1204 17.3879 49.8435 17.0752 50.6211C16.4509 52.1733 15.6131 53.9895 14.7861 55.8447C13.9553 57.7085 13.1308 59.6198 12.5137 61.3906C11.8931 63.1712 11.5 64.7632 11.5 66V66.0312L11.4961 66.0615L9.88672 79.0723L9.83301 79.5107H9.43945C8.92648 79.6315 8.52213 79.6816 8.2002 79.6475C7.83215 79.6084 7.55229 79.4572 7.36523 79.1914C7.21643 78.9799 7.14765 78.7072 7.10547 78.5723C7.0527 78.4035 7.00419 78.2822 6.91895 78.1748C4.02007 74.524 3.19306 68.8316 3.59766 63.2178C4.00341 57.5883 5.65636 51.9046 7.86328 48.1836C8.45738 47.1809 9.34921 46.0943 10.3506 45.1475C11.3496 44.2028 12.4866 43.3705 13.5791 42.9023Z" fill="#FFF9F9" stroke="black"/>
</g>
</g>
<g clip-path="url(#clip2_804_223)">
<mask id="path-8-outside-1_804_223" maskUnits="userSpaceOnUse" x="22" y="1" width="74" height="103" fill="black">
<rect fill="white" x="22" y="1" width="74" height="103"/>
<path d="M34.842 2C34.9308 7.26642 31.4906 11.6301 29.9231 16.4771C26.6689 26.5544 24.6991 36.9789 24 47.5784L29.4626 53.0421C31.3325 53.8393 33.2273 51.6144 35.7963 52.0255C45.4759 53.5726 43.029 71.3357 44.0832 78.0687C44.713 82.0824 48.314 85.585 46.5634 89.5682C43.1455 89.9987 41.184 86.61 40.2019 83.7601C37.2473 75.1855 40.0688 66.2803 36.5399 58.0891C26.0558 56.578 25.0681 70.7135 25.9281 78.1854C27.1128 88.4904 40.1298 109.92 51.9178 100.787C57.4054 96.5373 53.4909 91.8458 52.8888 86.4016C52.592 83.7129 53.624 80.5602 53.2994 78.6242C52.4699 73.7133 47.3985 70.3552 52.1203 63.9721C58.9479 54.7392 75.1609 70.4857 81.6639 74.6522L80.2379 76.9771C72.3589 79.0575 64.3495 63.4972 55.7075 67.1192C53.8904 78.8076 72.2285 91.7458 82.3159 92.2264C105.448 93.3291 85.3648 58.8557 83.9499 49.8894C82.4574 40.4482 84.1386 29.9265 86.5051 20.7602C87.4511 17.091 91.5071 2.97773 95 2.1"/>
</mask>
<path d="M34.842 2C34.9308 7.26642 31.4906 11.6301 29.9231 16.4771C26.6689 26.5544 24.6991 36.9789 24 47.5784L29.4626 53.0421C31.3325 53.8393 33.2273 51.6144 35.7963 52.0255C45.4759 53.5726 43.029 71.3357 44.0832 78.0687C44.713 82.0824 48.314 85.585 46.5634 89.5682C43.1455 89.9987 41.184 86.61 40.2019 83.7601C37.2473 75.1855 40.0688 66.2803 36.5399 58.0891C26.0558 56.578 25.0681 70.7135 25.9281 78.1854C27.1128 88.4904 40.1298 109.92 51.9178 100.787C57.4054 96.5373 53.4909 91.8458 52.8888 86.4016C52.592 83.7129 53.624 80.5602 53.2994 78.6242C52.4699 73.7133 47.3985 70.3552 52.1203 63.9721C58.9479 54.7392 75.1609 70.4857 81.6639 74.6522L80.2379 76.9771C72.3589 79.0575 64.3495 63.4972 55.7075 67.1192C53.8904 78.8076 72.2285 91.7458 82.3159 92.2264C105.448 93.3291 85.3648 58.8557 83.9499 49.8894C82.4574 40.4482 84.1386 29.9265 86.5051 20.7602C87.4511 17.091 91.5071 2.97773 95 2.1" fill="#FFF9F9"/>
<path d="M29.9231 16.4771L28.9717 16.1694L28.9715 16.1698L29.9231 16.4771ZM24 47.5784L23.0022 47.5126L22.9723 47.9649L23.2928 48.2855L24 47.5784ZM29.4626 53.0421L28.7554 53.7491L28.8923 53.886L29.0704 53.962L29.4626 53.0421ZM35.7963 52.0255L35.6383 53.0129L35.6385 53.0129L35.7963 52.0255ZM44.0832 78.0687L43.0952 78.2234L43.0953 78.2237L44.0832 78.0687ZM46.5634 89.5682L46.6884 90.5603L47.2508 90.4895L47.4789 89.9705L46.5634 89.5682ZM40.2019 83.7601L39.2565 84.0859L39.2565 84.0859L40.2019 83.7601ZM36.5399 58.0891L37.4583 57.6934L37.2367 57.1792L36.6825 57.0993L36.5399 58.0891ZM25.9281 78.1854L26.9216 78.0712L26.9216 78.071L25.9281 78.1854ZM51.9178 100.787L51.3055 99.9965L51.3054 99.9966L51.9178 100.787ZM52.8888 86.4016L51.8949 86.5114L51.8949 86.5116L52.8888 86.4016ZM53.2994 78.6242L54.2857 78.4589L54.2855 78.4577L53.2994 78.6242ZM52.1203 63.9721L52.9243 64.5668L52.9244 64.5667L52.1203 63.9721ZM81.6639 74.6522L82.5163 75.175L83.029 74.3392L82.2034 73.8102L81.6639 74.6522ZM80.2379 76.9771L80.4932 77.9439L80.8808 77.8416L81.0904 77.4999L80.2379 76.9771ZM55.7075 67.1192L55.321 66.1969L54.8053 66.4131L54.7194 66.9656L55.7075 67.1192ZM82.3159 92.2264L82.3635 91.2275H82.3635L82.3159 92.2264ZM83.9499 49.8894L84.9377 49.7336L84.9377 49.7333L83.9499 49.8894ZM86.5051 20.7602L87.4733 21.0102L87.4734 21.0099L86.5051 20.7602ZM34.842 2L33.8421 2.01685C33.8828 4.42801 33.1176 6.67324 32.0896 8.99029C31.0904 11.2424 29.776 13.6821 28.9717 16.1694L29.9231 16.4771L30.8746 16.7848C31.6377 14.4251 32.8272 12.2594 33.9177 9.80138C34.9795 7.40823 35.89 4.83841 35.8418 1.98315L34.842 2ZM29.9231 16.4771L28.9715 16.1698C25.6915 26.327 23.7066 36.8328 23.0022 47.5126L24 47.5784L24.9978 47.6443C25.6917 37.1251 27.6463 26.7818 30.8748 16.7844L29.9231 16.4771ZM24 47.5784L23.2928 48.2855L28.7554 53.7491L29.4626 53.0421L30.1698 52.335L24.7072 46.8714L24 47.5784ZM29.4626 53.0421L29.0704 53.962C30.4454 54.5481 31.7905 53.9806 32.7338 53.609C33.8032 53.1877 34.6658 52.8573 35.6383 53.0129L35.7963 52.0255L35.9544 51.038C34.3579 50.7826 32.9886 51.359 32.0008 51.7481C30.887 52.1869 30.3497 52.3332 29.8548 52.1222L29.4626 53.0421ZM35.7963 52.0255L35.6385 53.0129C37.7034 53.343 39.1311 54.5183 40.1605 56.3007C41.2119 58.121 41.8244 60.5444 42.183 63.2345C42.5401 65.9131 42.635 68.7636 42.7052 71.4031C42.7743 74.0028 42.819 76.4594 43.0952 78.2234L44.0832 78.0687L45.0712 77.914C44.8202 76.3115 44.7755 74.0228 44.7044 71.3499C44.6344 68.7168 44.5384 65.7674 44.1655 62.9702C43.7941 60.1846 43.1376 57.4563 41.8924 55.3004C40.6254 53.1067 38.7291 51.4815 35.9542 51.038L35.7963 52.0255ZM44.0832 78.0687L43.0953 78.2237C43.271 79.3438 43.6494 80.4011 44.0598 81.384C44.2652 81.8758 44.4845 82.3624 44.6936 82.8294C44.9049 83.3014 45.1067 83.7554 45.2892 84.2056C46.0226 86.0149 46.3546 87.558 45.6479 89.1658L46.5634 89.5682L47.4789 89.9705C48.5229 87.5952 47.9296 85.3954 47.1427 83.4542C46.9451 82.9668 46.7296 82.4826 46.519 82.0122C46.3061 81.5367 46.0988 81.0765 45.9054 80.6133C45.5182 79.6861 45.2102 78.8005 45.0711 77.9137L44.0832 78.0687ZM46.5634 89.5682L46.4384 88.576C45.1412 88.7394 44.099 88.2048 43.2107 87.2233C42.2999 86.2168 41.6184 84.8011 41.1474 83.4343L40.2019 83.7601L39.2565 84.0859C39.7676 85.569 40.5579 87.2726 41.7278 88.5653C42.9202 89.883 44.5677 90.8275 46.6884 90.5603L46.5634 89.5682ZM40.2019 83.7601L41.1474 83.4343C39.7303 79.3217 39.692 75.1183 39.586 70.7565C39.4812 66.4477 39.309 61.9893 37.4583 57.6934L36.5399 58.0891L35.6215 58.4847C37.2996 62.3801 37.4811 66.4699 37.5865 70.8051C37.6907 75.0874 37.719 79.6239 39.2565 84.0859L40.2019 83.7601ZM36.5399 58.0891L36.6825 57.0993C33.8172 56.6863 31.5071 57.3403 29.7173 58.7568C27.9586 60.1486 26.7931 62.204 26.0328 64.4477C24.5166 68.9225 24.4962 74.49 24.9347 78.2997L25.9281 78.1854L26.9216 78.071C26.5001 74.4088 26.5435 69.1726 27.9271 65.0895C28.6167 63.0543 29.6102 61.3921 30.9584 60.325C32.2756 59.2826 34.0204 58.7363 36.3972 59.0788L36.5399 58.0891ZM25.9281 78.1854L24.9347 78.2996C25.5539 83.6864 29.2083 91.8059 34.1982 97.4386C36.6988 100.261 39.6158 102.553 42.758 103.514C45.9611 104.493 49.3231 104.062 52.5303 101.578L51.9178 100.787L51.3054 99.9966C48.6185 102.078 45.9329 102.393 43.3429 101.601C40.692 100.791 38.0705 98.7936 35.6952 96.1124C30.9335 90.7372 27.487 82.9894 26.9216 78.0712L25.9281 78.1854ZM51.9178 100.787L52.5301 101.578C54.0227 100.422 54.9413 99.1824 55.4125 97.8442C55.881 96.5139 55.8742 95.1793 55.6752 93.8898C55.4791 92.6188 55.0812 91.3144 54.7238 90.072C54.3581 88.8008 54.023 87.5596 53.8828 86.2917L52.8888 86.4016L51.8949 86.5116C52.0557 87.9658 52.4357 89.3526 52.8018 90.625C53.1761 91.9262 53.5268 93.0811 53.6986 94.1948C53.8676 95.2898 53.8482 96.2652 53.5261 97.1799C53.2067 98.0868 52.5567 99.0275 51.3055 99.9965L51.9178 100.787ZM52.8888 86.4016L53.8828 86.2919C53.7499 85.0879 53.9129 83.7479 54.0959 82.3615C54.2676 81.0606 54.4787 79.6102 54.2857 78.4589L53.2994 78.6242L52.3132 78.7896C52.4448 79.5743 52.3021 80.6682 52.1131 82.0998C51.9355 83.4459 51.7309 85.0266 51.8949 86.5114L52.8888 86.4016ZM53.2994 78.6242L54.2855 78.4577C54.0545 77.0901 53.5328 75.858 53.0066 74.7361C52.4632 73.5774 51.9407 72.5823 51.5728 71.5224C51.2162 70.4946 51.0386 69.4866 51.1867 68.3987C51.335 67.31 51.8212 66.058 52.9243 64.5668L52.1203 63.9721L51.3164 63.3774C50.0586 65.0778 49.408 66.6392 49.205 68.1288C49.002 69.6193 49.2588 70.9545 49.6834 72.1781C50.0968 73.3694 50.7026 74.5337 51.1959 75.5853C51.7063 76.6737 52.1296 77.7029 52.3134 78.7908L53.2994 78.6242ZM52.1203 63.9721L52.9244 64.5667C54.3889 62.5862 56.3148 61.9396 58.6087 62.1554C60.974 62.378 63.6933 63.5244 66.5137 65.1533C69.3172 66.7725 72.1259 68.8115 74.662 70.7255C77.1661 72.6155 79.4557 74.425 81.1244 75.4942L81.6639 74.6522L82.2034 73.8102C80.6207 72.7961 78.445 71.0749 75.8668 69.1291C73.3206 67.2074 70.4301 65.1056 67.514 63.4214C64.6148 61.747 61.5943 60.4276 58.7961 60.1642C55.9266 59.8942 53.2656 60.7416 51.3163 63.3776L52.1203 63.9721ZM81.6639 74.6522L80.8115 74.1293L79.3855 76.4542L80.2379 76.9771L81.0904 77.4999L82.5163 75.175L81.6639 74.6522ZM80.2379 76.9771L79.9826 76.0102C78.3771 76.4341 76.6811 75.9878 74.7826 74.9313C72.8748 73.8696 70.9421 72.2971 68.8744 70.682C66.8499 69.1005 64.7002 67.4827 62.4801 66.5083C60.2283 65.52 57.811 65.1533 55.321 66.1969L55.7075 67.1192L56.0941 68.0415C57.925 67.2741 59.7497 67.4941 61.6764 68.3397C63.6348 69.1992 65.6003 70.6623 67.6432 72.2581C69.6431 73.8203 71.7301 75.5214 73.8101 76.6789C75.8995 77.8417 78.1592 78.5602 80.4932 77.9439L80.2379 76.9771ZM55.7075 67.1192L54.7194 66.9656C54.2203 70.1761 55.1155 73.4054 56.8097 76.3983C58.5041 79.3917 61.0288 82.2074 63.9014 84.639C69.6116 89.4724 76.9222 92.9706 82.2683 93.2252L82.3159 92.2264L82.3635 91.2275C77.6222 91.0016 70.72 87.7904 65.1936 83.1124C62.4479 80.7884 60.0983 78.1479 58.5502 75.413C57.0018 72.6776 56.2862 69.9065 56.6957 67.2728L55.7075 67.1192ZM82.3159 92.2264L82.2683 93.2252C85.2715 93.3684 87.6771 92.9403 89.5429 91.9809C91.4295 91.0107 92.6933 89.5329 93.4513 87.7238C94.9327 84.1889 94.4691 79.4245 93.3104 74.6002C92.1399 69.7269 90.1962 64.5537 88.4779 60.0835C87.6144 57.8371 86.8108 55.7763 86.177 53.9932C85.5383 52.1965 85.0988 50.7541 84.9377 49.7336L83.9499 49.8894L82.9622 50.0453C83.1549 51.2664 83.6525 52.8626 84.2925 54.6631C84.9374 56.4772 85.7542 58.5719 86.6111 60.8011C88.3335 65.2819 90.2301 70.3394 91.3657 75.0673C92.5131 79.8444 92.8215 84.052 91.6068 86.9508C91.0168 88.3587 90.0654 89.4632 88.6283 90.2023C87.1702 90.952 85.1433 91.36 82.3635 91.2275L82.3159 92.2264ZM83.9499 49.8894L84.9377 49.7333C83.4772 40.4949 85.1184 30.1318 87.4733 21.0102L86.5051 20.7602L85.5368 20.5103C83.1588 29.7212 81.4376 40.4015 82.9622 50.0456L83.9499 49.8894ZM86.5051 20.7602L87.4734 21.0099C87.9413 19.1953 89.181 14.7893 90.7313 10.7409C91.508 8.71286 92.3489 6.81129 93.1937 5.37766C93.6166 4.66001 94.0227 4.09047 94.4007 3.68707C94.7911 3.27037 95.0764 3.11188 95.2437 3.06984L95 2.1L94.7563 1.13015C94.0503 1.30755 93.4449 1.7821 92.9412 2.31956C92.4252 2.87031 91.9339 3.57604 91.4706 4.36227C90.543 5.93639 89.6558 7.95704 88.8636 10.0257C87.2762 14.1707 86.0149 18.6559 85.5367 20.5106L86.5051 20.7602Z" fill="black" mask="url(#path-8-outside-1_804_223)"/>
</g>
<path d="M139.634 101.503C139.796 101.496 139.991 101.499 140.193 101.526C140.349 101.548 140.607 101.597 140.876 101.735L140.992 101.8L141.43 102.067L141.612 102.546L144.61 110.412L151.194 113.45L151.296 113.497L151.39 113.558C152.188 114.082 152.405 114.986 152.468 115.463C152.537 115.994 152.508 116.695 152.222 117.282C152.076 117.581 151.871 117.787 151.744 117.901C151.602 118.03 151.449 118.14 151.311 118.231C151.033 118.414 150.702 118.592 150.366 118.759C149.689 119.094 148.835 119.459 148.003 119.805C147.15 120.159 146.321 120.495 145.618 120.8C145.27 120.951 144.972 121.086 144.737 121.203C144.671 121.236 144.613 121.267 144.562 121.295C144.125 122.134 143.77 123.356 143.351 124.812C143.129 125.581 142.893 126.396 142.624 127.141C142.359 127.874 142.029 128.633 141.588 129.26V129.261C141.222 129.78 140.641 130.377 139.781 130.484C138.868 130.598 138.215 130.097 137.879 129.748C137.536 129.391 137.288 128.958 137.121 128.632C136.948 128.294 136.799 127.943 136.706 127.73V127.729C136.201 126.577 135.815 125.326 135.455 124.182C135.146 123.199 134.851 122.286 134.504 121.449L127.86 118.353L127.704 118.28L127.569 118.174C126.711 117.502 126.385 116.517 126.535 115.581C126.675 114.709 127.206 113.959 127.898 113.482C128.421 113.122 129.092 112.817 129.722 112.558C130.364 112.294 131.095 112.026 131.749 111.778C132.427 111.521 133.041 111.278 133.546 111.033C134.069 110.78 134.327 110.592 134.421 110.496C134.438 110.471 134.5 110.378 134.599 110.17C134.714 109.927 134.841 109.609 134.981 109.223C135.265 108.442 135.554 107.51 135.868 106.533C136.172 105.589 136.503 104.597 136.847 103.807C137.018 103.414 137.217 103.013 137.449 102.673C137.643 102.39 138.034 101.88 138.681 101.666L138.685 101.665C138.975 101.57 139.325 101.516 139.634 101.503Z" fill="white" stroke="black" stroke-width="3"/>
<path d="M122.466 83.5215C122.605 83.5412 122.884 83.5944 123.17 83.7744L123.602 84.0459L123.778 84.5234L125.244 88.4941L128.419 90.0059L128.521 90.0547L128.615 90.1182C129.294 90.5782 129.44 91.3267 129.479 91.627C129.524 91.9869 129.514 92.5051 129.29 92.9775C129.161 93.2499 128.983 93.431 128.888 93.5205C128.778 93.6234 128.666 93.706 128.575 93.7676C128.394 93.8906 128.191 94.0024 128.005 94.0977C127.627 94.2907 127.161 94.4956 126.728 94.6816C126.273 94.8769 125.853 95.0518 125.493 95.2129C125.368 95.2689 125.27 95.3166 125.193 95.3535C125.042 95.7175 124.894 96.2359 124.702 96.9248C124.588 97.3355 124.458 97.7951 124.31 98.2197C124.165 98.6335 123.97 99.1087 123.688 99.5205L123.688 99.5215C123.462 99.8515 123.005 100.387 122.241 100.485C121.416 100.592 120.858 100.12 120.621 99.8652C120.372 99.5978 120.207 99.293 120.111 99.1006C120.061 98.9984 120.014 98.8937 119.974 98.8018L119.878 98.5781C119.598 97.9179 119.386 97.2063 119.201 96.6006C119.07 96.1691 118.948 95.7829 118.818 95.4307L115.607 93.8867L115.45 93.8105L115.314 93.7012C114.658 93.1704 114.414 92.3922 114.526 91.6719C114.63 91.0076 115.018 90.4441 115.522 90.0859H115.523C115.864 89.8437 116.275 89.6548 116.61 89.5127C116.958 89.3652 117.36 89.2133 117.688 89.085C118.04 88.9471 118.333 88.8265 118.564 88.7109C118.674 88.6561 118.743 88.6125 118.783 88.5869C118.784 88.5849 118.786 88.5832 118.787 88.5811C118.835 88.4775 118.893 88.3283 118.963 88.1289C119.105 87.7232 119.25 87.2405 119.418 86.7031C119.576 86.1977 119.757 85.6337 119.951 85.1738C120.047 84.9464 120.17 84.6857 120.325 84.4512C120.44 84.2785 120.755 83.8264 121.334 83.6289L121.338 83.6279C121.569 83.5499 121.822 83.5124 122.037 83.5029C122.153 83.4979 122.303 83.4984 122.466 83.5215Z" fill="white" stroke="black" stroke-width="3"/>
<defs>
<clipPath id="clip0_804_223">
<rect width="106" height="154" fill="white" transform="translate(0 2)"/>
</clipPath>
<clipPath id="clip1_804_223">
<rect width="89" height="82" fill="white" transform="translate(4 43)"/>
</clipPath>
<clipPath id="clip2_804_223">
<rect width="73" height="104" fill="white" transform="translate(24)"/>
</clipPath>
</defs>
</svg>
