<svg width="317" height="797" viewBox="0 0 317 797" fill="none" xmlns="http://www.w3.org/2000/svg">
<path d="M229.211 141.963C229.427 141.955 229.651 141.959 229.859 141.986C230.008 142.005 230.172 142.038 230.325 142.099L230.473 142.17L230.623 142.256L230.688 142.415L236.836 157.478L250.47 163.352L250.503 163.365L250.534 163.385C251.18 163.781 251.472 164.578 251.57 165.272C251.657 165.89 251.61 166.576 251.407 167.103L251.31 167.319C251.218 167.495 251.072 167.645 250.925 167.769C250.773 167.898 250.585 168.027 250.377 168.155C249.961 168.411 249.421 168.686 248.806 168.97C247.574 169.54 245.989 170.172 244.375 170.798C242.755 171.427 241.107 172.051 239.724 172.612C238.394 173.151 237.37 173.61 236.859 173.939C235.679 175.765 234.85 178.498 233.991 181.286C233.56 182.686 233.122 184.09 232.632 185.356C232.205 186.461 231.728 187.484 231.164 188.322L230.917 188.668C230.344 189.426 229.741 189.872 229.091 189.948C228.429 190.025 227.878 189.699 227.457 189.29C227.035 188.881 226.681 188.329 226.389 187.797C226.096 187.262 225.845 186.707 225.647 186.286C224.731 184.335 224.022 182.197 223.314 180.095C222.622 178.041 221.927 176.019 221.031 174.169L207.343 168.212L207.292 168.19L207.248 168.157C206.301 167.465 205.962 166.495 206.125 165.546C206.284 164.625 206.903 163.775 207.767 163.219C208.552 162.713 209.644 162.237 210.843 161.777C212.047 161.315 213.399 160.855 214.708 160.392C216.024 159.926 217.301 159.456 218.383 158.966C219.476 158.472 220.316 157.981 220.803 157.492C221.019 157.27 221.267 156.89 221.539 156.356C221.807 155.828 222.082 155.181 222.366 154.451C222.933 152.99 223.514 151.241 224.11 149.514C224.702 147.798 225.309 146.103 225.922 144.788C226.229 144.132 226.545 143.551 226.873 143.103C227.189 142.67 227.569 142.287 228.027 142.146L228.029 142.145C228.336 142.051 228.785 141.98 229.211 141.963Z" fill="black" stroke="black"/>
<path d="M227.751 140.129L233.977 155.382L247.798 161.336C248.704 161.892 248.833 163.768 248.392 164.611C247.62 166.089 236.162 169.624 234.022 171.102C231.506 174.902 230.574 182.537 228.043 185.892C225.893 188.736 224.432 185.317 223.624 183.598C221.821 179.757 220.831 175.166 218.929 171.311L205.068 165.278C203.478 164.115 204.028 162.151 205.564 161.164C208.516 159.26 216.467 157.597 218.686 155.368C220.846 153.149 223.312 140.885 225.7 140.148C226.215 139.99 227.32 139.884 227.751 140.129Z" fill="white" stroke="black" stroke-width="2"/>
<path d="M173.132 774.554C173.208 774.563 173.304 774.582 173.402 774.621L173.5 774.668L173.65 774.753L173.715 774.913L176.293 781.23L182.001 783.689L182.035 783.704L182.066 783.723C182.452 783.959 182.596 784.408 182.641 784.732C182.688 785.07 182.659 785.474 182.5 785.777C182.436 785.9 182.342 785.993 182.268 786.056C182.188 786.123 182.095 786.187 182 786.246C181.808 786.364 181.566 786.487 181.299 786.61C180.765 786.857 180.08 787.129 179.392 787.396C178.697 787.666 177.999 787.931 177.412 788.169C176.884 788.383 176.497 788.558 176.292 788.679C175.832 789.416 175.495 790.511 175.132 791.688C174.949 792.284 174.76 792.892 174.546 793.443C174.361 793.923 174.148 794.382 173.889 794.766L173.776 794.926C173.512 795.275 173.192 795.537 172.801 795.583C172.398 795.63 172.081 795.428 171.871 795.224C171.66 795.019 171.493 794.754 171.364 794.519C171.233 794.281 171.122 794.033 171.04 793.858H171.039C170.639 793.008 170.332 792.078 170.032 791.186C169.748 790.344 169.468 789.531 169.117 788.787L163.376 786.289L163.325 786.266L163.281 786.234C162.79 785.875 162.6 785.353 162.688 784.84C162.772 784.355 163.092 783.928 163.516 783.655L163.809 783.484C164.123 783.317 164.495 783.161 164.88 783.014C165.398 782.815 165.983 782.616 166.537 782.42C167.098 782.221 167.632 782.024 168.082 781.82C168.542 781.612 168.859 781.42 169.028 781.251C169.089 781.187 169.18 781.057 169.291 780.839C169.399 780.625 169.512 780.359 169.631 780.052C169.871 779.435 170.116 778.698 170.372 777.956C170.624 777.225 170.888 776.488 171.157 775.912C171.291 775.625 171.435 775.358 171.59 775.145C171.735 774.948 171.944 774.72 172.23 774.632H172.231C172.391 774.583 172.607 774.55 172.808 774.542C172.911 774.538 173.024 774.54 173.132 774.554Z" fill="black" stroke="black"/>
<path d="M172.077 773.498C172.152 773.507 172.248 773.526 172.346 773.565L172.444 773.612L172.594 773.697L172.66 773.857L175.238 780.174L180.946 782.633L180.979 782.648L181.01 782.667C181.396 782.903 181.54 783.352 181.585 783.676C181.633 784.014 181.603 784.419 181.445 784.721C181.381 784.844 181.286 784.937 181.212 785C181.132 785.067 181.04 785.131 180.944 785.19C180.752 785.308 180.51 785.431 180.244 785.554C179.709 785.802 179.025 786.073 178.336 786.34C177.642 786.61 176.943 786.875 176.356 787.113C175.828 787.327 175.442 787.502 175.236 787.623C174.777 788.36 174.44 789.455 174.077 790.632C173.893 791.228 173.704 791.836 173.491 792.387C173.305 792.867 173.092 793.326 172.833 793.71L172.72 793.87C172.456 794.22 172.136 794.482 171.746 794.527C171.342 794.574 171.025 794.372 170.815 794.168C170.605 793.963 170.437 793.699 170.308 793.464C170.177 793.225 170.066 792.977 169.984 792.802H169.983C169.584 791.952 169.277 791.023 168.976 790.13C168.692 789.288 168.412 788.476 168.061 787.731L162.321 785.233L162.269 785.211L162.225 785.178C161.734 784.819 161.544 784.297 161.632 783.784C161.716 783.299 162.036 782.872 162.46 782.599L162.753 782.428C163.068 782.261 163.44 782.105 163.825 781.958C164.343 781.759 164.928 781.56 165.481 781.364C166.042 781.165 166.576 780.968 167.026 780.764C167.486 780.556 167.803 780.364 167.972 780.195C168.034 780.131 168.124 780.001 168.235 779.783C168.343 779.57 168.456 779.303 168.576 778.996C168.815 778.379 169.06 777.642 169.316 776.9C169.568 776.169 169.832 775.432 170.101 774.856C170.235 774.569 170.379 774.302 170.535 774.089C170.679 773.892 170.888 773.664 171.174 773.576H171.175C171.335 773.527 171.552 773.494 171.752 773.486C171.855 773.482 171.968 773.484 172.077 773.498Z" fill="#83F6AD" stroke="black"/>
<path d="M257.919 123.338C257.983 123.347 258.07 123.363 258.159 123.399L258.249 123.442L258.399 123.527L258.464 123.687L260.506 128.689L265.023 130.636L265.057 130.65L265.087 130.669C265.434 130.882 265.557 131.277 265.595 131.546C265.634 131.829 265.611 132.175 265.472 132.442C265.411 132.557 265.324 132.641 265.261 132.694C265.192 132.752 265.113 132.806 265.034 132.855C264.876 132.952 264.679 133.052 264.465 133.151C264.035 133.35 263.486 133.569 262.938 133.782C262.382 133.997 261.826 134.207 261.358 134.397C260.951 134.562 260.659 134.695 260.499 134.786C260.149 135.359 259.886 136.208 259.599 137.141C259.452 137.616 259.3 138.105 259.128 138.548C258.979 138.934 258.807 139.309 258.594 139.625L258.5 139.756C258.282 140.045 258.005 140.28 257.653 140.321C257.289 140.363 257.008 140.179 256.829 140.005C256.65 139.832 256.511 139.61 256.406 139.419C256.3 139.226 256.209 139.024 256.145 138.886C255.823 138.201 255.575 137.454 255.336 136.744C255.114 136.084 254.896 135.453 254.626 134.875L250.08 132.896L250.029 132.874L249.984 132.841C249.562 132.533 249.396 132.078 249.473 131.63C249.545 131.211 249.82 130.847 250.178 130.617L250.418 130.476C250.675 130.339 250.977 130.213 251.285 130.095C251.7 129.936 252.169 129.776 252.608 129.621C253.056 129.462 253.479 129.305 253.834 129.145C254.196 128.981 254.433 128.836 254.556 128.715C254.594 128.676 254.662 128.581 254.75 128.408C254.834 128.242 254.924 128.033 255.019 127.79C255.209 127.3 255.403 126.714 255.607 126.121C255.808 125.538 256.02 124.945 256.237 124.48C256.345 124.248 256.464 124.028 256.594 123.851C256.712 123.689 256.896 123.485 257.156 123.405H257.157C257.295 123.363 257.477 123.335 257.644 123.329C257.729 123.325 257.825 123.326 257.919 123.338Z" fill="black" stroke="black"/>
<path d="M257.159 123.033L259.279 128.226L263.984 130.253C264.292 130.442 264.336 131.081 264.186 131.368C263.923 131.871 260.023 133.074 259.294 133.577C258.437 134.871 258.12 137.47 257.259 138.612C256.527 139.58 256.029 138.416 255.754 137.831C255.141 136.524 254.803 134.961 254.156 133.648L249.437 131.595C248.896 131.199 249.083 130.53 249.606 130.194C250.611 129.546 253.318 128.98 254.073 128.221C254.808 127.466 255.648 123.29 256.461 123.04C256.636 122.986 257.012 122.95 257.159 123.033Z" fill="white" stroke="black"/>
<path d="M2.15982 33.9839L15.4078 -0.000113487H23.0878L36.1918 33.9839H28.7998L26.6878 28.1759H11.6638L9.55182 33.9839H2.15982ZM13.8718 21.9839H24.5278L19.2478 7.29588L13.8718 21.9839ZM53.7568 34.3199C52.9248 34.3199 52.0448 34.2399 51.1168 34.0799C50.2208 33.9199 49.3248 33.6159 48.4288 33.1679C47.5648 32.6879 46.7488 32.0159 45.9808 31.1519L45.9328 33.9839H39.3568V-0.000113487H46.0768V11.6639C47.0368 10.5119 48.2208 9.66389 49.6288 9.11989C51.0688 8.54389 52.5568 8.25589 54.0928 8.25589C56.5888 8.25589 58.6368 8.83189 60.2368 9.98389C61.8368 11.1039 63.0208 12.6399 63.7888 14.5919C64.5888 16.5439 64.9888 18.7839 64.9888 21.3119C64.9888 23.7759 64.5888 25.9999 63.7888 27.9839C62.9888 29.9359 61.7568 31.4879 60.0928 32.6399C58.4608 33.7599 56.3488 34.3199 53.7568 34.3199ZM52.3168 28.3199C53.8848 28.3199 55.1008 27.9679 55.9648 27.2639C56.8288 26.5599 57.4368 25.6639 57.7888 24.5759C58.1408 23.4879 58.3168 22.3519 58.3168 21.1679C58.3168 19.9839 58.1248 18.8799 57.7408 17.8559C57.3568 16.7999 56.7168 15.9679 55.8208 15.3599C54.9568 14.7199 53.7888 14.3999 52.3168 14.3999C50.9728 14.3999 49.8208 14.7359 48.8608 15.4079C47.9328 16.0479 47.2288 16.8959 46.7488 17.9519C46.2688 19.0079 46.0288 20.1439 46.0288 21.3599C46.0288 22.5759 46.2368 23.7279 46.6528 24.8159C47.1008 25.8719 47.7888 26.7199 48.7168 27.3599C49.6448 27.9999 50.8448 28.3199 52.3168 28.3199ZM69.7899 33.9839V8.68789H75.8379L76.2699 11.7119C76.9099 10.7519 77.6299 10.0319 78.4299 9.55189C79.2299 9.03989 80.0619 8.70389 80.9259 8.54389C81.7899 8.35189 82.6699 8.25589 83.5659 8.25589C83.9819 8.25589 84.3659 8.27189 84.7179 8.30389C85.0699 8.30389 85.3259 8.30389 85.4859 8.30389V14.7839H83.9019C82.3979 14.7839 81.0859 15.0399 79.9659 15.5519C78.8459 16.0639 77.9819 16.8639 77.3739 17.9519C76.7979 19.0399 76.5099 20.4319 76.5099 22.1279V33.9839H69.7899ZM97.1297 34.3199C95.9777 34.3199 94.8577 34.1759 93.7697 33.8879C92.7137 33.5679 91.7697 33.0879 90.9377 32.4479C90.1057 31.8079 89.4497 31.0079 88.9697 30.0479C88.4897 29.0879 88.2497 27.9679 88.2497 26.6879C88.2497 24.9599 88.6017 23.5839 89.3057 22.5599C90.0097 21.5039 90.9537 20.7039 92.1377 20.1599C93.3217 19.6159 94.6817 19.2479 96.2177 19.0559C97.7857 18.8639 99.4017 18.7679 101.066 18.7679H104.714C104.714 17.8399 104.538 17.0239 104.186 16.3199C103.866 15.5839 103.37 15.0239 102.698 14.6399C102.026 14.2239 101.162 14.0159 100.106 14.0159C99.4337 14.0159 98.7777 14.1119 98.1377 14.3039C97.5297 14.4639 97.0177 14.7039 96.6017 15.0239C96.1857 15.3439 95.9137 15.7599 95.7857 16.2719H88.9697C89.1617 14.8639 89.6097 13.6639 90.3137 12.6719C91.0177 11.6479 91.8977 10.8159 92.9537 10.1759C94.0097 9.53589 95.1617 9.07189 96.4097 8.78389C97.6897 8.46389 99.0017 8.30389 100.346 8.30389C104.026 8.30389 106.746 9.35989 108.506 11.4719C110.266 13.5519 111.146 16.5119 111.146 20.3519V33.9839H105.098L105.002 30.7199C104.202 31.8399 103.29 32.6559 102.266 33.1679C101.274 33.6799 100.314 33.9999 99.3857 34.1279C98.4577 34.2559 97.7057 34.3199 97.1297 34.3199ZM98.6657 28.9919C99.7857 28.9919 100.81 28.7679 101.738 28.3199C102.666 27.8719 103.402 27.2639 103.946 26.4959C104.49 25.7279 104.762 24.8639 104.762 23.9039V23.2799H100.154C99.4817 23.2799 98.8257 23.3119 98.1857 23.3759C97.5777 23.4399 97.0177 23.5679 96.5057 23.7599C96.0257 23.9199 95.6417 24.1919 95.3537 24.5759C95.0657 24.9599 94.9217 25.4719 94.9217 26.1119C94.9217 26.7519 95.0817 27.2959 95.4017 27.7439C95.7537 28.1599 96.2177 28.4799 96.7937 28.7039C97.3697 28.8959 97.9937 28.9919 98.6657 28.9919ZM128.203 34.3199C125.611 34.3199 123.387 33.7919 121.531 32.7359C119.707 31.6799 118.315 30.1919 117.355 28.2719C116.395 26.3199 115.915 24.0319 115.915 21.4079C115.915 18.7519 116.411 16.4479 117.403 14.4959C118.395 12.5119 119.819 10.9759 121.675 9.88789C123.563 8.79989 125.835 8.25589 128.491 8.25589C130.539 8.25589 132.363 8.62389 133.963 9.35989C135.563 10.0959 136.843 11.1519 137.803 12.5279C138.795 13.9039 139.371 15.5999 139.531 17.6159H132.955C132.667 16.4959 132.107 15.6799 131.275 15.1679C130.475 14.6559 129.515 14.3999 128.395 14.3999C126.955 14.3999 125.803 14.7519 124.939 15.4559C124.107 16.1599 123.499 17.0559 123.115 18.1439C122.763 19.2319 122.587 20.3199 122.587 21.4079C122.587 22.5919 122.779 23.7119 123.163 24.7679C123.547 25.7919 124.155 26.6399 124.987 27.3119C125.851 27.9519 126.971 28.2719 128.347 28.2719C129.499 28.2719 130.507 28.0159 131.371 27.5039C132.235 26.9599 132.795 26.1279 133.051 25.0079H139.771C139.611 27.0879 138.987 28.8159 137.899 30.1919C136.811 31.5679 135.419 32.6079 133.723 33.3119C132.059 33.9839 130.219 34.3199 128.203 34.3199ZM152.324 34.3199C151.172 34.3199 150.052 34.1759 148.964 33.8879C147.908 33.5679 146.964 33.0879 146.132 32.4479C145.3 31.8079 144.644 31.0079 144.164 30.0479C143.684 29.0879 143.444 27.9679 143.444 26.6879C143.444 24.9599 143.796 23.5839 144.5 22.5599C145.204 21.5039 146.148 20.7039 147.332 20.1599C148.516 19.6159 149.876 19.2479 151.412 19.0559C152.98 18.8639 154.596 18.7679 156.26 18.7679H159.908C159.908 17.8399 159.732 17.0239 159.38 16.3199C159.06 15.5839 158.564 15.0239 157.892 14.6399C157.22 14.2239 156.356 14.0159 155.3 14.0159C154.628 14.0159 153.972 14.1119 153.332 14.3039C152.724 14.4639 152.212 14.7039 151.796 15.0239C151.38 15.3439 151.108 15.7599 150.98 16.2719H144.164C144.356 14.8639 144.804 13.6639 145.508 12.6719C146.212 11.6479 147.092 10.8159 148.148 10.1759C149.204 9.53589 150.356 9.07189 151.604 8.78389C152.884 8.46389 154.196 8.30389 155.54 8.30389C159.22 8.30389 161.94 9.35989 163.7 11.4719C165.46 13.5519 166.34 16.5119 166.34 20.3519V33.9839H160.292L160.196 30.7199C159.396 31.8399 158.484 32.6559 157.46 33.1679C156.468 33.6799 155.508 33.9999 154.58 34.1279C153.652 34.2559 152.9 34.3199 152.324 34.3199ZM153.86 28.9919C154.98 28.9919 156.004 28.7679 156.932 28.3199C157.86 27.8719 158.596 27.2639 159.14 26.4959C159.684 25.7279 159.956 24.8639 159.956 23.9039V23.2799H155.348C154.676 23.2799 154.02 23.3119 153.38 23.3759C152.772 23.4399 152.212 23.5679 151.7 23.7599C151.22 23.9199 150.836 24.1919 150.548 24.5759C150.26 24.9599 150.116 25.4719 150.116 26.1119C150.116 26.7519 150.276 27.2959 150.596 27.7439C150.948 28.1599 151.412 28.4799 151.988 28.7039C152.564 28.8959 153.188 28.9919 153.86 28.9919ZM182.485 34.3199C179.925 34.3199 177.797 33.7439 176.101 32.5919C174.437 31.4079 173.189 29.8399 172.357 27.8879C171.525 25.9039 171.109 23.7119 171.109 21.3119C171.109 18.7839 171.557 16.5439 172.453 14.5919C173.349 12.6079 174.677 11.0559 176.437 9.93588C178.197 8.81589 180.389 8.25589 183.013 8.25589C183.909 8.25589 184.789 8.36789 185.653 8.59188C186.549 8.78389 187.365 9.08789 188.101 9.50388C188.869 9.88789 189.525 10.3999 190.069 11.0399V-0.000113487H196.789V33.9839H190.261L190.165 31.1519C189.589 31.8879 188.885 32.4959 188.053 32.9759C187.253 33.4239 186.389 33.7599 185.461 33.9839C184.533 34.2079 183.541 34.3199 182.485 34.3199ZM183.829 28.2719C185.269 28.2719 186.437 27.9359 187.333 27.2639C188.261 26.5919 188.949 25.7279 189.397 24.6719C189.845 23.6159 190.069 22.4799 190.069 21.2639C190.069 20.0159 189.845 18.8799 189.397 17.8559C188.981 16.7999 188.309 15.9679 187.381 15.3599C186.485 14.7199 185.301 14.3999 183.829 14.3999C182.357 14.3999 181.173 14.7359 180.277 15.4079C179.381 16.0799 178.741 16.9599 178.357 18.0479C178.005 19.1039 177.829 20.2399 177.829 21.4559C177.829 22.3519 177.925 23.2159 178.117 24.0479C178.341 24.8479 178.693 25.5679 179.173 26.2079C179.653 26.8479 180.277 27.3599 181.045 27.7439C181.813 28.0959 182.741 28.2719 183.829 28.2719ZM210.565 34.3199C209.413 34.3199 208.293 34.1759 207.205 33.8879C206.149 33.5679 205.205 33.0879 204.373 32.4479C203.541 31.8079 202.885 31.0079 202.405 30.0479C201.925 29.0879 201.685 27.9679 201.685 26.6879C201.685 24.9599 202.037 23.5839 202.741 22.5599C203.445 21.5039 204.389 20.7039 205.573 20.1599C206.757 19.6159 208.117 19.2479 209.653 19.0559C211.221 18.8639 212.837 18.7679 214.501 18.7679H218.149C218.149 17.8399 217.973 17.0239 217.621 16.3199C217.301 15.5839 216.805 15.0239 216.133 14.6399C215.461 14.2239 214.597 14.0159 213.541 14.0159C212.869 14.0159 212.213 14.1119 211.573 14.3039C210.965 14.4639 210.453 14.7039 210.037 15.0239C209.621 15.3439 209.349 15.7599 209.221 16.2719H202.405C202.597 14.8639 203.045 13.6639 203.749 12.6719C204.453 11.6479 205.333 10.8159 206.389 10.1759C207.445 9.53589 208.597 9.07189 209.845 8.78389C211.125 8.46389 212.437 8.30389 213.781 8.30389C217.461 8.30389 220.181 9.35989 221.941 11.4719C223.701 13.5519 224.581 16.5119 224.581 20.3519V33.9839H218.533L218.437 30.7199C217.637 31.8399 216.725 32.6559 215.701 33.1679C214.709 33.6799 213.749 33.9999 212.821 34.1279C211.893 34.2559 211.141 34.3199 210.565 34.3199ZM212.101 28.9919C213.221 28.9919 214.245 28.7679 215.173 28.3199C216.101 27.8719 216.837 27.2639 217.381 26.4959C217.925 25.7279 218.197 24.8639 218.197 23.9039V23.2799H213.589C212.917 23.2799 212.261 23.3119 211.621 23.3759C211.013 23.4399 210.453 23.5679 209.941 23.7599C209.461 23.9199 209.077 24.1919 208.789 24.5759C208.501 24.9599 208.357 25.4719 208.357 26.1119C208.357 26.7519 208.517 27.2959 208.837 27.7439C209.189 28.1599 209.653 28.4799 210.229 28.7039C210.805 28.8959 211.429 28.9919 212.101 28.9919ZM244.711 34.3199C243.879 34.3199 242.999 34.2399 242.071 34.0799C241.175 33.9199 240.279 33.6159 239.383 33.1679C238.519 32.6879 237.703 32.0159 236.935 31.1519L236.887 33.9839H230.311V-0.000113487H237.031V11.6639C237.991 10.5119 239.175 9.66389 240.583 9.11989C242.023 8.54389 243.511 8.25589 245.047 8.25589C247.543 8.25589 249.591 8.83189 251.191 9.98389C252.791 11.1039 253.975 12.6399 254.743 14.5919C255.543 16.5439 255.943 18.7839 255.943 21.3119C255.943 23.7759 255.543 25.9999 254.743 27.9839C253.943 29.9359 252.711 31.4879 251.047 32.6399C249.415 33.7599 247.303 34.3199 244.711 34.3199ZM243.271 28.3199C244.839 28.3199 246.055 27.9679 246.919 27.2639C247.783 26.5599 248.391 25.6639 248.743 24.5759C249.095 23.4879 249.271 22.3519 249.271 21.1679C249.271 19.9839 249.079 18.8799 248.695 17.8559C248.311 16.7999 247.671 15.9679 246.775 15.3599C245.911 14.7199 244.743 14.3999 243.271 14.3999C241.927 14.3999 240.775 14.7359 239.815 15.4079C238.887 16.0479 238.183 16.8959 237.703 17.9519C237.223 19.0079 236.983 20.1439 236.983 21.3599C236.983 22.5759 237.191 23.7279 237.607 24.8159C238.055 25.8719 238.743 26.7199 239.671 27.3599C240.599 27.9999 241.799 28.3199 243.271 28.3199ZM260.744 33.9839V8.68789H266.792L267.224 11.7119C267.864 10.7519 268.584 10.0319 269.384 9.55189C270.184 9.03989 271.016 8.70389 271.88 8.54389C272.744 8.35189 273.624 8.25589 274.52 8.25589C274.936 8.25589 275.32 8.27189 275.672 8.30389C276.024 8.30389 276.28 8.30389 276.44 8.30389V14.7839H274.856C273.352 14.7839 272.04 15.0399 270.92 15.5519C269.8 16.0639 268.936 16.8639 268.328 17.9519C267.752 19.0399 267.464 20.4319 267.464 22.1279V33.9839H260.744ZM288.083 34.3199C286.931 34.3199 285.811 34.1759 284.723 33.8879C283.667 33.5679 282.723 33.0879 281.891 32.4479C281.059 31.8079 280.403 31.0079 279.923 30.0479C279.443 29.0879 279.203 27.9679 279.203 26.6879C279.203 24.9599 279.555 23.5839 280.259 22.5599C280.963 21.5039 281.907 20.7039 283.091 20.1599C284.275 19.6159 285.635 19.2479 287.171 19.0559C288.739 18.8639 290.355 18.7679 292.019 18.7679H295.667C295.667 17.8399 295.491 17.0239 295.139 16.3199C294.819 15.5839 294.323 15.0239 293.651 14.6399C292.979 14.2239 292.115 14.0159 291.059 14.0159C290.387 14.0159 289.731 14.1119 289.091 14.3039C288.483 14.4639 287.971 14.7039 287.555 15.0239C287.139 15.3439 286.867 15.7599 286.739 16.2719H279.923C280.115 14.8639 280.563 13.6639 281.267 12.6719C281.971 11.6479 282.851 10.8159 283.907 10.1759C284.963 9.53589 286.115 9.07189 287.363 8.78389C288.643 8.46389 289.955 8.30389 291.299 8.30389C294.979 8.30389 297.699 9.35989 299.459 11.4719C301.219 13.5519 302.099 16.5119 302.099 20.3519V33.9839H296.051L295.955 30.7199C295.155 31.8399 294.243 32.6559 293.219 33.1679C292.227 33.6799 291.267 33.9999 290.339 34.1279C289.411 34.2559 288.659 34.3199 288.083 34.3199ZM289.619 28.9919C290.739 28.9919 291.763 28.7679 292.691 28.3199C293.619 27.8719 294.355 27.2639 294.899 26.4959C295.443 25.7279 295.715 24.8639 295.715 23.9039V23.2799H291.107C290.435 23.2799 289.779 23.3119 289.139 23.3759C288.531 23.4399 287.971 23.5679 287.459 23.7599C286.979 23.9199 286.595 24.1919 286.307 24.5759C286.019 24.9599 285.875 25.4719 285.875 26.1119C285.875 26.7519 286.035 27.2959 286.355 27.7439C286.707 28.1599 287.171 28.4799 287.747 28.7039C288.323 28.8959 288.947 28.9919 289.619 28.9919ZM309.749 41.3279L307.829 38.3999C308.309 38.1439 308.837 37.7759 309.413 37.2959C310.021 36.8159 310.565 36.2879 311.045 35.7119C311.525 35.1679 311.845 34.6559 312.005 34.1759C311.045 34.1119 310.197 33.7439 309.461 33.0719C308.725 32.3999 308.357 31.4719 308.357 30.2879C308.389 28.9759 308.821 27.9839 309.653 27.3119C310.517 26.6079 311.493 26.2559 312.581 26.2559C313.989 26.2559 315.077 26.7679 315.845 27.7919C316.613 28.7839 316.997 30.0959 316.997 31.7279C316.997 33.2319 316.645 34.6399 315.941 35.9519C315.237 37.2639 314.341 38.3839 313.253 39.3119C312.165 40.2399 310.997 40.9119 309.749 41.3279ZM-0.000183761 104.776V98.7759H1.87182C2.86382 98.7759 3.58382 98.5999 4.03182 98.2479C4.51182 97.8959 4.81582 97.4479 4.94382 96.9039C5.07182 96.3599 5.13582 95.7999 5.13582 95.2239V69.6879H11.8558V96.1839C11.8558 98.1039 11.5838 99.7039 11.0398 100.984C10.4958 102.264 9.61582 103.208 8.39982 103.816C7.21582 104.456 5.59982 104.776 3.55182 104.776H-0.000183761ZM8.44782 67.1439C7.19982 67.1439 6.19182 66.7759 5.42382 66.0399C4.65582 65.2719 4.27182 64.2959 4.27182 63.1119C4.27182 61.8639 4.67182 60.8559 5.47182 60.0879C6.27182 59.3199 7.27982 58.9359 8.49582 58.9359C9.61582 58.9359 10.5758 59.3199 11.3758 60.0879C12.2078 60.8239 12.6238 61.8159 12.6238 63.0639C12.6238 64.2799 12.2238 65.2719 11.4238 66.0399C10.6558 66.7759 9.66382 67.1439 8.44782 67.1439ZM29.6436 95.3199C26.9876 95.3199 24.7316 94.7919 22.8756 93.7359C21.0196 92.6799 19.5956 91.1919 18.6036 89.2719C17.6116 87.3199 17.1156 85.0479 17.1156 82.4559C17.1156 79.8319 17.6276 77.5439 18.6516 75.5919C19.6756 73.6079 21.1156 72.0559 22.9716 70.9359C24.8596 69.8159 27.0836 69.2559 29.6436 69.2559C31.5636 69.2559 33.2436 69.5759 34.6836 70.2159C36.1556 70.8559 37.3876 71.7519 38.3796 72.9039C39.4036 74.0559 40.1556 75.3999 40.6356 76.9359C41.1476 78.4399 41.3876 80.0719 41.3556 81.8319C41.3556 82.2799 41.3396 82.7119 41.3076 83.1279C41.2756 83.5439 41.2116 83.9599 41.1156 84.3759H23.7876C23.8836 85.3359 24.1556 86.2159 24.6036 87.0159C25.0516 87.8159 25.6756 88.4559 26.4756 88.9359C27.3076 89.3839 28.3316 89.6079 29.5476 89.6079C30.3476 89.6079 31.0836 89.5279 31.7556 89.3679C32.4276 89.1759 33.0036 88.8879 33.4836 88.5039C33.9636 88.1199 34.2996 87.6719 34.4916 87.1599H41.1156C40.6996 89.0479 39.9156 90.5999 38.7636 91.8159C37.6436 93.0319 36.2836 93.9279 34.6836 94.5039C33.0836 95.0479 31.4036 95.3199 29.6436 95.3199ZM23.9316 79.6719H34.9236C34.8916 78.8079 34.6676 78.0079 34.2516 77.2719C33.8676 76.5039 33.2756 75.8959 32.4756 75.4479C31.7076 74.9679 30.7156 74.7279 29.4996 74.7279C28.2836 74.7279 27.2596 74.9679 26.4276 75.4479C25.6276 75.9279 25.0196 76.5519 24.6036 77.3199C24.2196 78.0559 23.9956 78.8399 23.9316 79.6719ZM71.5198 95.3199C68.9278 95.3199 66.7038 94.7919 64.8478 93.7359C63.0238 92.6799 61.6318 91.1919 60.6718 89.2719C59.7118 87.3199 59.2318 85.0319 59.2318 82.4079C59.2318 79.7519 59.7278 77.4479 60.7198 75.4959C61.7118 73.5119 63.1358 71.9759 64.9918 70.8879C66.8798 69.7999 69.1518 69.2559 71.8078 69.2559C73.8558 69.2559 75.6798 69.6239 77.2798 70.3599C78.8798 71.0959 80.1598 72.1519 81.1198 73.5279C82.1118 74.9039 82.6878 76.5999 82.8478 78.6159H76.2718C75.9838 77.4959 75.4238 76.6799 74.5918 76.1679C73.7918 75.6559 72.8318 75.3999 71.7118 75.3999C70.2718 75.3999 69.1198 75.7519 68.2558 76.4559C67.4238 77.1599 66.8158 78.0559 66.4318 79.1439C66.0798 80.2319 65.9038 81.3199 65.9038 82.4079C65.9038 83.5919 66.0958 84.7119 66.4798 85.7679C66.8638 86.7919 67.4718 87.6399 68.3038 88.3119C69.1678 88.9519 70.2878 89.2719 71.6638 89.2719C72.8158 89.2719 73.8238 89.0159 74.6878 88.5039C75.5518 87.9599 76.1118 87.1279 76.3678 86.0079H83.0878C82.9278 88.0879 82.3038 89.8159 81.2158 91.1919C80.1278 92.5679 78.7358 93.6079 77.0398 94.3119C75.3758 94.9839 73.5358 95.3199 71.5198 95.3199ZM87.6249 94.9839V69.6879H93.6729L94.1049 72.7119C94.7449 71.7519 95.4649 71.0319 96.2649 70.5519C97.0649 70.0399 97.8969 69.7039 98.7609 69.5439C99.6249 69.3519 100.505 69.2559 101.401 69.2559C101.817 69.2559 102.201 69.2719 102.553 69.3039C102.905 69.3039 103.161 69.3039 103.321 69.3039V75.7839H101.737C100.233 75.7839 98.9209 76.0399 97.8009 76.5519C96.6809 77.0639 95.8169 77.8639 95.2089 78.9519C94.6329 80.0399 94.3449 81.4319 94.3449 83.1279V94.9839H87.6249ZM118.288 95.3199C115.728 95.3199 113.488 94.8079 111.568 93.7839C109.648 92.7279 108.16 91.2399 107.104 89.3199C106.048 87.3679 105.52 85.0639 105.52 82.4079C105.52 79.6879 106.048 77.3519 107.104 75.3999C108.192 73.4159 109.696 71.8959 111.616 70.8399C113.536 69.7839 115.744 69.2559 118.24 69.2559C120.8 69.2559 123.024 69.7999 124.912 70.8879C126.8 71.9759 128.272 73.4959 129.328 75.4479C130.384 77.3999 130.912 79.7359 130.912 82.4559C130.912 85.1119 130.384 87.4159 129.328 89.3679C128.304 91.2879 126.848 92.7599 124.96 93.7839C123.104 94.8079 120.88 95.3199 118.288 95.3199ZM118.192 89.1759C119.664 89.1759 120.848 88.8559 121.744 88.2159C122.64 87.5759 123.28 86.7439 123.664 85.7199C124.08 84.6639 124.288 83.5599 124.288 82.4079C124.288 81.2559 124.08 80.1519 123.664 79.0959C123.28 78.0399 122.64 77.1759 121.744 76.5039C120.88 75.7999 119.696 75.4479 118.192 75.4479C116.752 75.4479 115.584 75.7999 114.688 76.5039C113.792 77.1759 113.136 78.0399 112.72 79.0959C112.336 80.1519 112.144 81.2559 112.144 82.4079C112.144 83.5919 112.336 84.6959 112.72 85.7199C113.136 86.7439 113.792 87.5759 114.688 88.2159C115.584 88.8559 116.752 89.1759 118.192 89.1759ZM135.694 94.9839V69.6879H142.414V94.9839H135.694ZM139.054 67.1439C137.806 67.1439 136.798 66.7759 136.03 66.0399C135.262 65.2719 134.878 64.2959 134.878 63.1119C134.878 61.8639 135.278 60.8559 136.078 60.0879C136.878 59.3199 137.886 58.9359 139.102 58.9359C140.222 58.9359 141.182 59.3199 141.982 60.0879C142.814 60.8239 143.23 61.8159 143.23 63.0639C143.23 64.2799 142.83 65.2719 142.03 66.0399C141.262 66.7759 140.27 67.1439 139.054 67.1439ZM158.109 95.3199C156.925 95.3199 155.709 95.1919 154.461 94.9359C153.213 94.6799 152.061 94.2479 151.005 93.6399C149.949 92.9999 149.053 92.1519 148.317 91.0959C147.581 90.0079 147.101 88.6639 146.877 87.0639H153.693C153.885 87.6399 154.221 88.1359 154.701 88.5519C155.213 88.9679 155.789 89.2719 156.429 89.4639C157.101 89.6559 157.773 89.7519 158.445 89.7519C158.893 89.7519 159.341 89.7199 159.789 89.6559C160.237 89.5919 160.653 89.4639 161.037 89.2719C161.421 89.0799 161.725 88.8399 161.949 88.5519C162.173 88.2319 162.285 87.8319 162.285 87.3519C162.285 86.8399 162.125 86.4399 161.805 86.1519C161.485 85.8639 161.037 85.6399 160.461 85.4799C159.885 85.2879 159.229 85.1119 158.493 84.9519C157.181 84.6639 155.773 84.3439 154.269 83.9919C152.765 83.6399 151.469 83.1279 150.381 82.4559C149.933 82.1359 149.533 81.7839 149.181 81.3999C148.829 81.0159 148.541 80.5839 148.317 80.1039C148.093 79.6239 147.917 79.1279 147.789 78.6159C147.661 78.0719 147.597 77.4959 147.597 76.8879C147.597 75.5119 147.885 74.3439 148.461 73.3839C149.069 72.3919 149.869 71.5919 150.861 70.9839C151.853 70.3759 152.957 69.9439 154.173 69.6879C155.389 69.3999 156.637 69.2559 157.917 69.2559C159.645 69.2559 161.245 69.5439 162.717 70.1199C164.189 70.6639 165.405 71.5279 166.365 72.7119C167.325 73.8639 167.917 75.3679 168.141 77.2239H161.709C161.581 76.5199 161.149 75.9599 160.413 75.5439C159.677 75.0959 158.765 74.8719 157.677 74.8719C157.293 74.8719 156.877 74.9039 156.429 74.9679C156.013 75.0319 155.629 75.1439 155.277 75.3039C154.925 75.4639 154.637 75.6879 154.413 75.9759C154.189 76.2319 154.077 76.5839 154.077 77.0319C154.077 77.3839 154.173 77.7039 154.365 77.9919C154.589 78.2799 154.893 78.5199 155.277 78.7119C155.693 78.9039 156.189 79.0799 156.765 79.2399C157.853 79.4959 158.941 79.7359 160.029 79.9599C161.149 80.1519 162.141 80.3599 163.005 80.5839C164.061 80.8079 165.021 81.1759 165.885 81.6879C166.781 82.1999 167.501 82.9039 168.045 83.7999C168.621 84.6639 168.909 85.7999 168.909 87.2079C168.909 88.8079 168.589 90.1359 167.949 91.1919C167.309 92.2159 166.445 93.0319 165.357 93.6399C164.301 94.2479 163.133 94.6799 161.853 94.9359C160.605 95.1919 159.357 95.3199 158.109 95.3199ZM184.879 95.3199C182.223 95.3199 179.967 94.7919 178.111 93.7359C176.255 92.6799 174.831 91.1919 173.839 89.2719C172.847 87.3199 172.351 85.0479 172.351 82.4559C172.351 79.8319 172.863 77.5439 173.887 75.5919C174.911 73.6079 176.351 72.0559 178.207 70.9359C180.095 69.8159 182.319 69.2559 184.879 69.2559C186.799 69.2559 188.479 69.5759 189.919 70.2159C191.391 70.8559 192.623 71.7519 193.615 72.9039C194.639 74.0559 195.391 75.3999 195.871 76.9359C196.383 78.4399 196.623 80.0719 196.591 81.8319C196.591 82.2799 196.575 82.7119 196.543 83.1279C196.511 83.5439 196.447 83.9599 196.351 84.3759H179.023C179.119 85.3359 179.391 86.2159 179.839 87.0159C180.287 87.8159 180.911 88.4559 181.711 88.9359C182.543 89.3839 183.567 89.6079 184.783 89.6079C185.583 89.6079 186.319 89.5279 186.991 89.3679C187.663 89.1759 188.239 88.8879 188.719 88.5039C189.199 88.1199 189.535 87.6719 189.727 87.1599H196.351C195.935 89.0479 195.151 90.5999 193.999 91.8159C192.879 93.0319 191.519 93.9279 189.919 94.5039C188.319 95.0479 186.639 95.3199 184.879 95.3199ZM179.167 79.6719H190.159C190.127 78.8079 189.903 78.0079 189.487 77.2719C189.103 76.5039 188.511 75.8959 187.711 75.4479C186.943 74.9679 185.951 74.7279 184.735 74.7279C183.519 74.7279 182.495 74.9679 181.663 75.4479C180.863 75.9279 180.255 76.5519 179.839 77.3199C179.455 78.0559 179.231 78.8399 179.167 79.6719ZM215.427 94.9839V60.9999H222.147V94.9839H215.427ZM239.522 95.3199C236.866 95.3199 234.61 94.7919 232.754 93.7359C230.898 92.6799 229.474 91.1919 228.482 89.2719C227.49 87.3199 226.994 85.0479 226.994 82.4559C226.994 79.8319 227.506 77.5439 228.53 75.5919C229.554 73.6079 230.994 72.0559 232.85 70.9359C234.738 69.8159 236.962 69.2559 239.522 69.2559C241.442 69.2559 243.122 69.5759 244.562 70.2159C246.034 70.8559 247.266 71.7519 248.258 72.9039C249.282 74.0559 250.034 75.3999 250.514 76.9359C251.026 78.4399 251.266 80.0719 251.234 81.8319C251.234 82.2799 251.218 82.7119 251.186 83.1279C251.154 83.5439 251.09 83.9599 250.994 84.3759H233.666C233.762 85.3359 234.034 86.2159 234.482 87.0159C234.93 87.8159 235.554 88.4559 236.354 88.9359C237.186 89.3839 238.21 89.6079 239.426 89.6079C240.226 89.6079 240.962 89.5279 241.634 89.3679C242.306 89.1759 242.882 88.8879 243.362 88.5039C243.842 88.1199 244.178 87.6719 244.37 87.1599H250.994C250.578 89.0479 249.794 90.5999 248.642 91.8159C247.522 93.0319 246.162 93.9279 244.562 94.5039C242.962 95.0479 241.282 95.3199 239.522 95.3199ZM233.81 79.6719H244.802C244.77 78.8079 244.546 78.0079 244.13 77.2719C243.746 76.5039 243.154 75.8959 242.354 75.4479C241.586 74.9679 240.594 74.7279 239.378 74.7279C238.162 74.7279 237.138 74.9679 236.306 75.4479C235.506 75.9279 234.898 76.5519 234.482 77.3199C234.098 78.0559 233.874 78.8399 233.81 79.6719ZM265.931 95.3199C264.747 95.3199 263.531 95.1919 262.283 94.9359C261.035 94.6799 259.883 94.2479 258.827 93.6399C257.771 92.9999 256.875 92.1519 256.139 91.0959C255.403 90.0079 254.923 88.6639 254.699 87.0639H261.515C261.707 87.6399 262.043 88.1359 262.523 88.5519C263.035 88.9679 263.611 89.2719 264.251 89.4639C264.923 89.6559 265.595 89.7519 266.267 89.7519C266.715 89.7519 267.163 89.7199 267.611 89.6559C268.059 89.5919 268.475 89.4639 268.859 89.2719C269.243 89.0799 269.547 88.8399 269.771 88.5519C269.995 88.2319 270.107 87.8319 270.107 87.3519C270.107 86.8399 269.947 86.4399 269.627 86.1519C269.307 85.8639 268.859 85.6399 268.283 85.4799C267.707 85.2879 267.051 85.1119 266.315 84.9519C265.003 84.6639 263.595 84.3439 262.091 83.9919C260.587 83.6399 259.291 83.1279 258.203 82.4559C257.755 82.1359 257.355 81.7839 257.003 81.3999C256.651 81.0159 256.363 80.5839 256.139 80.1039C255.915 79.6239 255.739 79.1279 255.611 78.6159C255.483 78.0719 255.419 77.4959 255.419 76.8879C255.419 75.5119 255.707 74.3439 256.283 73.3839C256.891 72.3919 257.691 71.5919 258.683 70.9839C259.675 70.3759 260.779 69.9439 261.995 69.6879C263.211 69.3999 264.459 69.2559 265.739 69.2559C267.467 69.2559 269.067 69.5439 270.539 70.1199C272.011 70.6639 273.227 71.5279 274.187 72.7119C275.147 73.8639 275.739 75.3679 275.963 77.2239H269.531C269.403 76.5199 268.971 75.9599 268.235 75.5439C267.499 75.0959 266.587 74.8719 265.499 74.8719C265.115 74.8719 264.699 74.9039 264.251 74.9679C263.835 75.0319 263.451 75.1439 263.099 75.3039C262.747 75.4639 262.459 75.6879 262.235 75.9759C262.011 76.2319 261.899 76.5839 261.899 77.0319C261.899 77.3839 261.995 77.7039 262.187 77.9919C262.411 78.2799 262.715 78.5199 263.099 78.7119C263.515 78.9039 264.011 79.0799 264.587 79.2399C265.675 79.4959 266.763 79.7359 267.851 79.9599C268.971 80.1519 269.963 80.3599 270.827 80.5839C271.883 80.8079 272.843 81.1759 273.707 81.6879C274.603 82.1999 275.323 82.9039 275.867 83.7999C276.443 84.6639 276.731 85.7999 276.731 87.2079C276.731 88.8079 276.411 90.1359 275.771 91.1919C275.131 92.2159 274.267 93.0319 273.179 93.6399C272.123 94.2479 270.955 94.6799 269.675 94.9359C268.427 95.1919 267.179 95.3199 265.931 95.3199ZM15.1678 156.32C12.6078 156.32 10.4798 155.744 8.78382 154.592C7.11982 153.408 5.87182 151.84 5.03982 149.888C4.20782 147.904 3.79182 145.712 3.79182 143.312C3.79182 140.784 4.23982 138.544 5.13582 136.592C6.03182 134.608 7.35982 133.056 9.11982 131.936C10.8798 130.816 13.0718 130.256 15.6958 130.256C16.5918 130.256 17.4718 130.368 18.3358 130.592C19.2318 130.784 20.0478 131.088 20.7838 131.504C21.5518 131.888 22.2078 132.4 22.7518 133.04V122H29.4718V155.984H22.9438L22.8478 153.152C22.2718 153.888 21.5678 154.496 20.7358 154.976C19.9358 155.424 19.0718 155.76 18.1438 155.984C17.2158 156.208 16.2238 156.32 15.1678 156.32ZM16.5118 150.272C17.9518 150.272 19.1198 149.936 20.0158 149.264C20.9438 148.592 21.6318 147.728 22.0798 146.672C22.5278 145.616 22.7518 144.48 22.7518 143.264C22.7518 142.016 22.5278 140.88 22.0798 139.856C21.6638 138.8 20.9918 137.968 20.0638 137.36C19.1678 136.72 17.9838 136.4 16.5118 136.4C15.0398 136.4 13.8558 136.736 12.9598 137.408C12.0638 138.08 11.4238 138.96 11.0398 140.048C10.6878 141.104 10.5118 142.24 10.5118 143.456C10.5118 144.352 10.6078 145.216 10.7998 146.048C11.0238 146.848 11.3758 147.568 11.8558 148.208C12.3358 148.848 12.9598 149.36 13.7278 149.744C14.4958 150.096 15.4238 150.272 16.5118 150.272ZM47.0398 156.32C44.4798 156.32 42.2398 155.808 40.3198 154.784C38.3998 153.728 36.9118 152.24 35.8558 150.32C34.7998 148.368 34.2718 146.064 34.2718 143.408C34.2718 140.688 34.7998 138.352 35.8558 136.4C36.9438 134.416 38.4478 132.896 40.3678 131.84C42.2878 130.784 44.4958 130.256 46.9918 130.256C49.5518 130.256 51.7758 130.8 53.6638 131.888C55.5518 132.976 57.0238 134.496 58.0798 136.448C59.1358 138.4 59.6638 140.736 59.6638 143.456C59.6638 146.112 59.1358 148.416 58.0798 150.368C57.0558 152.288 55.5998 153.76 53.7118 154.784C51.8558 155.808 49.6318 156.32 47.0398 156.32ZM46.9438 150.176C48.4158 150.176 49.5998 149.856 50.4958 149.216C51.3918 148.576 52.0318 147.744 52.4158 146.72C52.8318 145.664 53.0398 144.56 53.0398 143.408C53.0398 142.256 52.8318 141.152 52.4158 140.096C52.0318 139.04 51.3918 138.176 50.4958 137.504C49.6318 136.8 48.4478 136.448 46.9438 136.448C45.5038 136.448 44.3358 136.8 43.4398 137.504C42.5438 138.176 41.8878 139.04 41.4718 140.096C41.0878 141.152 40.8958 142.256 40.8958 143.408C40.8958 144.592 41.0878 145.696 41.4718 146.72C41.8878 147.744 42.5438 148.576 43.4398 149.216C44.3358 149.856 45.5038 150.176 46.9438 150.176ZM64.4462 155.984V130.688H71.1662V155.984H64.4462ZM67.8062 128.144C66.5582 128.144 65.5502 127.776 64.7822 127.04C64.0142 126.272 63.6302 125.296 63.6302 124.112C63.6302 122.864 64.0302 121.856 64.8302 121.088C65.6302 120.32 66.6382 119.936 67.8542 119.936C68.9742 119.936 69.9342 120.32 70.7342 121.088C71.5662 121.824 71.9822 122.816 71.9822 124.064C71.9822 125.28 71.5822 126.272 70.7822 127.04C70.0142 127.776 69.0222 128.144 67.8062 128.144ZM89.1651 167.696C87.1811 167.696 85.3571 167.376 83.6931 166.736C82.0291 166.128 80.6211 165.152 79.4691 163.808C78.3171 162.464 77.5331 160.736 77.1171 158.624H83.9811C84.2051 159.264 84.5571 159.792 85.0371 160.208C85.5491 160.656 86.1571 160.992 86.8611 161.216C87.5971 161.44 88.3651 161.552 89.1651 161.552C90.6691 161.552 91.8371 161.232 92.6691 160.592C93.5011 159.952 94.0771 159.104 94.3971 158.048C94.7171 157.024 94.8771 155.888 94.8771 154.64V152.864C94.3011 153.792 93.5811 154.496 92.7171 154.976C91.8531 155.456 90.9411 155.792 89.9811 155.984C89.0531 156.208 88.1571 156.32 87.2931 156.32C84.6371 156.32 82.4771 155.728 80.8131 154.544C79.1491 153.36 77.9331 151.808 77.1651 149.888C76.3971 147.936 76.0131 145.84 76.0131 143.6C76.0131 141.136 76.4451 138.896 77.3091 136.88C78.1731 134.864 79.4691 133.264 81.1971 132.08C82.9251 130.896 85.0851 130.304 87.6771 130.304C89.2451 130.304 90.6371 130.56 91.8531 131.072C93.0691 131.552 94.1091 132.272 94.9731 133.232L95.5491 130.688H101.693V152.768C101.693 155.84 101.293 158.48 100.493 160.688C99.6931 162.928 98.3651 164.656 96.5091 165.872C94.6851 167.088 92.2371 167.696 89.1651 167.696ZM88.7811 150.272C90.1891 150.272 91.3411 149.952 92.2371 149.312C93.1651 148.672 93.8531 147.824 94.3011 146.768C94.7491 145.68 94.9731 144.512 94.9731 143.264C94.9731 141.952 94.7491 140.784 94.3011 139.76C93.8531 138.704 93.1811 137.872 92.2851 137.264C91.3891 136.624 90.2371 136.304 88.8291 136.304C87.2931 136.304 86.0771 136.672 85.1811 137.408C84.2851 138.112 83.6451 139.008 83.2611 140.096C82.9091 141.152 82.7331 142.272 82.7331 143.456C82.7331 144.672 82.9251 145.808 83.3091 146.864C83.6931 147.888 84.3331 148.72 85.2291 149.36C86.1251 149.968 87.3091 150.272 88.7811 150.272ZM117.773 156.32C114.925 156.32 112.813 155.52 111.437 153.92C110.093 152.32 109.421 150.128 109.421 147.344V136.688H105.629V130.688H109.421V123.872H116.141V130.688H123.821V136.688H116.141V145.952C116.141 146.784 116.237 147.504 116.429 148.112C116.653 148.72 117.005 149.2 117.485 149.552C117.997 149.872 118.685 150.032 119.549 150.032C120.317 150.032 120.957 149.92 121.469 149.696C122.013 149.44 122.461 149.168 122.813 148.88L124.925 154.064C124.253 154.608 123.501 155.056 122.669 155.408C121.869 155.728 121.053 155.952 120.221 156.08C119.389 156.24 118.573 156.32 117.773 156.32ZM138.071 156.32C136.887 156.32 135.671 156.192 134.423 155.936C133.175 155.68 132.023 155.248 130.967 154.64C129.911 154 129.015 153.152 128.279 152.096C127.543 151.008 127.063 149.664 126.839 148.064H133.655C133.847 148.64 134.183 149.136 134.663 149.552C135.175 149.968 135.751 150.272 136.391 150.464C137.063 150.656 137.735 150.752 138.407 150.752C138.855 150.752 139.303 150.72 139.751 150.656C140.199 150.592 140.615 150.464 140.999 150.272C141.383 150.08 141.687 149.84 141.911 149.552C142.135 149.232 142.247 148.832 142.247 148.352C142.247 147.84 142.087 147.44 141.767 147.152C141.447 146.864 140.999 146.64 140.423 146.48C139.847 146.288 139.191 146.112 138.455 145.952C137.143 145.664 135.735 145.344 134.231 144.992C132.727 144.64 131.431 144.128 130.343 143.456C129.895 143.136 129.495 142.784 129.143 142.4C128.791 142.016 128.503 141.584 128.279 141.104C128.055 140.624 127.879 140.128 127.751 139.616C127.623 139.072 127.559 138.496 127.559 137.888C127.559 136.512 127.847 135.344 128.423 134.384C129.031 133.392 129.831 132.592 130.823 131.984C131.815 131.376 132.919 130.944 134.135 130.688C135.351 130.4 136.599 130.256 137.879 130.256C139.607 130.256 141.207 130.544 142.679 131.12C144.151 131.664 145.367 132.528 146.327 133.712C147.287 134.864 147.879 136.368 148.103 138.224H141.671C141.543 137.52 141.111 136.96 140.375 136.544C139.639 136.096 138.727 135.872 137.639 135.872C137.255 135.872 136.839 135.904 136.391 135.968C135.975 136.032 135.591 136.144 135.239 136.304C134.887 136.464 134.599 136.688 134.375 136.976C134.151 137.232 134.039 137.584 134.039 138.032C134.039 138.384 134.135 138.704 134.327 138.992C134.551 139.28 134.855 139.52 135.239 139.712C135.655 139.904 136.151 140.08 136.727 140.24C137.815 140.496 138.903 140.736 139.991 140.96C141.111 141.152 142.103 141.36 142.967 141.584C144.023 141.808 144.983 142.176 145.847 142.688C146.743 143.2 147.463 143.904 148.007 144.8C148.583 145.664 148.871 146.8 148.871 148.208C148.871 149.808 148.551 151.136 147.911 152.192C147.271 153.216 146.407 154.032 145.319 154.64C144.263 155.248 143.095 155.68 141.815 155.936C140.567 156.192 139.319 156.32 138.071 156.32ZM168.835 144.464L168.307 122H175.699L175.123 144.464H168.835ZM171.955 156.416C171.283 156.416 170.627 156.256 169.987 155.936C169.347 155.616 168.819 155.152 168.403 154.544C167.987 153.936 167.779 153.184 167.779 152.288C167.779 151.36 167.971 150.592 168.355 149.984C168.771 149.376 169.299 148.928 169.939 148.64C170.579 148.32 171.267 148.16 172.003 148.16C173.059 148.16 174.003 148.512 174.835 149.216C175.699 149.92 176.131 150.944 176.131 152.288C176.131 153.184 175.923 153.936 175.507 154.544C175.123 155.152 174.611 155.616 173.971 155.936C173.331 156.256 172.659 156.416 171.955 156.416Z" fill="black"/>
</svg>
