<svg width="128" height="193" viewBox="0 0 128 193" fill="none" xmlns="http://www.w3.org/2000/svg">
<path d="M32.4444 76.0386L34.3147 73.3092C39.3179 67.5437 49.1264 68.7397 51.9011 76.0386C52.7986 76.2635 52.6109 75.3775 53.2389 74.8323C57.7131 70.958 63.5116 70.7945 67.9483 74.8323C68.6752 75.4934 68.979 76.6451 69.9789 77.0608C70.9652 71.8031 70.8594 65.782 72.1324 60.6367C74.9241 49.3613 91.828 50.4211 91.4799 64.6201C91.2205 75.1731 89.8417 86.3974 89.0977 96.9981C87.9407 113.535 89.4458 133.867 78.9957 147.565C77.7431 149.208 74.3951 152.019 73.716 153.198C73.1324 154.213 73.4464 155.334 73.3952 156.452C77.7534 156.047 76.1767 160.418 76.5009 163.236C78.7192 164.167 85.6848 164.739 85.5927 167.813C85.4869 171.353 78.9137 171.118 76.5145 172.518C76.2176 175.299 77.6408 179.337 73.3952 178.945C74.0197 184.826 72.6341 190.834 66.2453 192.418L26.7962 192.585C19.7452 191.941 17.6531 185.089 18.4483 178.942C14.4178 179.218 15.6464 175.108 15.2266 172.447C12.4963 170.961 5.54095 171.448 6.57846 166.916C7.08015 164.719 13.3973 164.17 15.3324 163.219C15.6089 160.268 14.2778 156.309 18.462 156.258C18.3971 155.573 18.6395 154.673 18.2777 154.067C18.0251 153.648 13.4929 150.339 12.4759 149.3C2.51376 139.122 0.271519 126.17 0.00531657 112.349C-0.138023 104.863 2.60591 99.0937 9.592 95.9179C9.42819 91.7403 9.4316 87.5287 9.25072 83.3545C8.64323 69.4417 6.68767 54.1659 6.84807 40.4371C6.99483 27.9759 24.4481 25.0489 28.3661 37.0092C30.3728 49.9031 31.011 63.0526 32.4478 76.042L32.4444 76.0386ZM28.6493 91.3382L23.8202 40.1815C22.6871 32.4738 12.6465 33.0735 11.9503 40.4201L14.742 93.8837L15.3973 94.313L28.6459 91.3382H28.6493ZM68.2759 156.459V151.518C68.2759 151.095 73.4498 146.512 74.2518 145.558C79.1185 139.783 81.3096 132.286 82.2276 124.899L86.3811 62.5654C86.0773 57.403 78.6851 56.6431 77.2415 61.6522C75.6954 73.0979 74.2279 84.5641 72.757 96.0201C72.03 101.677 72.0608 110.914 69.2315 115.671C64.8016 123.123 53.6314 124.544 48.8158 116.935L48.321 116.942C46.8023 118.891 44.7204 119.624 42.6864 120.854C45.4098 124.681 48.4746 130.156 49.611 134.716C50.6042 138.699 46.9661 140.209 45.2528 137.707C43.6454 135.356 42.3553 130.289 40.6899 127.27C38.0517 122.493 32.9154 116.022 27.1204 115.262C25.7416 115.082 24.3218 115.511 22.9704 114.976C21.0285 114.203 20.9909 111.521 22.7861 110.539C28.7893 108.093 46.8978 104.144 49.1776 97.7034C50.6349 93.5872 48.1913 92.8103 44.5942 93.1306C34.6116 95.8702 23.4277 97.0458 13.5953 100C7.00848 101.976 4.95736 106.406 5.13824 113.017C5.4727 125.127 7.69787 138.273 17.0764 146.758C18.2709 147.838 22.6871 150.424 23.1854 151.222C23.9908 152.506 23.3731 154.956 23.5642 156.466H68.2725L68.2759 156.459ZM47.1128 87.9648C47.6623 83.4397 49.5428 75.2889 42.7512 74.7506C35.4409 74.1679 36.6217 85.0991 35.8539 89.672C39.6626 89.3312 43.2222 87.5661 47.1128 87.9682V87.9648ZM59.3104 77.1426C57.307 77.5617 55.662 79.5722 55.1228 81.4804C54.5836 83.3886 53.8498 89.3244 53.9078 91.2088C54.0034 94.3266 55.703 94.4288 54.2969 98.7155C53.0512 102.501 52.1263 104.645 51.8977 108.928C51.7168 112.318 52.7577 116.377 56.8531 116.605C61.3956 116.86 62.573 112.407 63.1123 108.88C64.4194 100.32 64.7777 91.5597 66.2384 83.0137C66.0883 79.2382 63.2624 76.318 59.3069 77.1426H59.3104ZM46.0924 107.735L34.1508 112.332C36.7958 115.204 39.8776 117.412 43.5328 114.547C45.8296 112.744 45.5327 110.287 46.0924 107.735ZM71.6888 161.57H20.496V173.837H71.6888V161.57ZM68.2759 178.948H23.5676V184.23C23.5676 186.159 26.1648 187.324 27.82 187.481L64.6924 187.467C65.9791 187.784 68.2759 185.559 68.2759 184.571V178.948Z" fill="black"/>
<path d="M115.867 53.0656C118.652 52.4897 118.239 55.8461 118.959 57.6725C119.607 59.3149 121.577 61.5366 123.157 62.3408C124.604 63.0768 127.88 63.1075 127.873 65.1043C127.867 67.1011 124.99 67.0806 123.45 67.8166C121.662 68.6719 119.843 70.4915 119.099 72.3316C118.416 74.0149 118.713 77.3917 116.468 77.3883C114.058 77.3815 114.273 73.7866 113.478 72.0112C112.683 70.2359 111.038 68.5901 109.212 67.7519C107.628 67.0261 105.195 67.2408 105.001 65.1077C104.99 63.1756 108.301 63.0495 109.71 62.2794C111.243 61.4412 113.229 59.1854 113.836 57.5396C114.396 56.0199 113.987 53.4608 115.864 53.0724L115.867 53.0656ZM116.632 61.8671L115.928 62.0818C115.297 63.2029 114.116 64.5591 112.884 64.9373L116.174 68.3141L119.71 65.1008C118.505 64.3103 117.102 63.2676 116.635 61.8671H116.632Z" fill="black"/>
<path d="M68.2765 156.459H23.5682C23.3804 154.949 23.9982 152.496 23.1893 151.215C22.6911 150.421 18.2748 147.834 17.0803 146.751C7.70183 138.266 5.47665 125.12 5.14219 113.01C4.96131 106.396 7.01243 101.97 13.5992 99.9932C23.4351 97.0423 34.6155 95.8633 44.5981 93.1236C48.1953 92.8033 50.6389 93.5836 49.1816 97.6965C46.9018 104.137 28.7932 108.086 22.79 110.533C20.9949 111.514 21.0324 114.196 22.9743 114.969C24.3224 115.507 25.7456 115.075 27.1243 115.255C32.9194 116.019 38.0557 122.489 40.6938 127.263C42.3593 130.279 43.6493 135.349 45.2568 137.7C46.9666 140.202 50.6081 138.695 49.615 134.709C48.4785 130.149 45.4104 124.674 42.6903 120.847C44.7244 119.617 46.8062 118.888 48.325 116.935L48.8198 116.928C53.6319 124.541 64.8056 123.116 69.2355 115.664C72.0647 110.907 72.034 101.67 72.7609 96.0132C74.2319 84.5572 75.6994 73.091 77.2454 61.6452C78.689 56.6362 86.0813 57.3961 86.385 62.5584L82.2316 124.892C81.3135 132.279 79.1259 139.779 74.2558 145.551C73.4537 146.505 68.2799 151.089 68.2799 151.511V156.452L68.2765 156.459Z" fill="white"/>
<path d="M28.6497 91.3382L15.4011 94.3129L14.7458 93.8836L11.9541 40.42C12.6503 33.0768 22.6909 32.4771 23.824 40.1815L28.6532 91.3382H28.6497Z" fill="white"/>
<path d="M71.6893 161.57V173.837H20.4966V161.57H71.6893ZM28.5919 164.712C25.2985 165.465 26.2916 171.268 30.4962 170.017C33.148 169.23 32.7282 163.764 28.5919 164.712ZM43.8132 165.424C41.6972 167.734 44.4206 171.404 47.3045 169.762C50.9528 167.69 46.6151 162.361 43.8132 165.424ZM61.6999 164.705C58.4782 165.407 59.2222 171.302 63.5189 169.935C66.3925 169.022 65.5496 163.867 61.6999 164.705Z" fill="#4E8CFF"/>
<path d="M59.311 77.1426C63.2631 76.3146 66.0889 79.2382 66.2425 83.0137C64.7818 91.5631 64.4235 100.32 63.1163 108.88C62.5771 112.407 61.3997 116.86 56.8572 116.605C52.7618 116.373 51.7208 112.318 51.9017 108.928C52.127 104.644 53.0553 102.501 54.301 98.7154C55.7105 94.4288 54.0074 94.3266 53.9119 91.2087C53.8539 89.3244 54.6047 83.3204 55.1269 81.4803C55.649 79.6403 57.3077 77.5617 59.3144 77.1426H59.311Z" fill="white"/>
<path d="M68.2762 178.948V184.571C68.2762 185.559 65.9793 187.784 64.6927 187.467L27.8203 187.481C26.165 187.327 23.5679 186.162 23.5679 184.23V178.948H68.2762Z" fill="white"/>
<path d="M47.1135 87.9647C43.2262 87.5626 39.6666 89.3277 35.8545 89.6684C36.6224 85.0956 35.4415 74.1677 42.7519 74.747C49.5434 75.2854 47.6629 83.4361 47.1135 87.9613V87.9647Z" fill="white"/>
<path d="M46.0929 107.735C45.5298 110.284 45.8301 112.744 43.5333 114.547C39.8781 117.412 36.7963 115.204 34.1514 112.332L46.0929 107.735Z" fill="white"/>
<path d="M116.632 61.8672C117.103 63.2677 118.506 64.3104 119.707 65.101L116.171 68.3142L112.881 64.9374C114.11 64.5592 115.291 63.203 115.926 62.0819L116.629 61.8672H116.632Z" fill="white"/>
<path d="M28.5915 164.712C32.7279 163.764 33.1477 169.23 30.4959 170.017C26.2879 171.268 25.2982 165.465 28.5915 164.712Z" fill="black"/>
<path d="M61.6996 164.705C65.5493 163.867 66.3922 169.022 63.5186 169.935C59.2219 171.302 58.4779 165.407 61.6996 164.705Z" fill="black"/>
<path d="M43.8133 165.424C46.6186 162.36 50.9529 167.69 47.3046 169.762C44.4173 171.401 41.6973 167.734 43.8133 165.424Z" fill="black"/>
<path d="M95.6963 2.78851C95.9092 3.15892 96.1138 3.83911 96.2697 4.87524C96.4226 5.8908 96.4988 7.00622 96.5863 8.14613C96.6675 9.20436 96.7637 10.3935 96.9903 11.3051L96.9903 11.3061C97.626 13.8654 98.6913 15.7244 100.098 17.0513C101.496 18.3697 103.087 19.0257 104.531 19.4223C105.246 19.6189 105.948 19.7572 106.574 19.8743C107.226 19.9965 107.76 20.0896 108.266 20.2069C109.307 20.4481 109.735 20.6954 109.95 20.9439C110.092 21.1079 110.175 21.2348 110.227 21.3222C110.143 21.3901 110.014 21.4827 109.818 21.5905C109.464 21.7853 108.995 21.9792 108.422 22.1668C107.27 22.5443 105.921 22.8272 104.656 23.0844C104.046 23.2084 103.435 23.3307 102.925 23.45C102.469 23.5567 101.881 23.7063 101.423 23.9341C97.1482 26.0538 96.0183 30.7758 95.3708 34.0656C95.0087 35.9053 94.8026 37.2984 94.4525 38.3892C94.3732 38.6364 94.2972 38.822 94.2335 38.9621C93.9301 38.2194 93.6944 37.0535 93.4704 35.5133C93.254 34.0253 93.0456 32.1703 92.7537 30.5935C92.47 29.0606 92.0358 27.3101 91.1398 26.0713L91.1389 26.0702C90.1448 24.6973 88.7006 23.8341 87.3405 23.2356C85.9751 22.6349 84.4711 22.2085 83.2192 21.8474C81.876 21.46 80.8855 21.1617 80.2088 20.8119C79.9837 20.6954 79.8604 20.6073 79.7959 20.5532C79.8037 20.3904 79.8397 20.3123 79.8616 20.2734C79.8958 20.2127 79.9794 20.1005 80.2056 19.9527C80.7268 19.612 81.5861 19.3326 82.9009 19.0153C84.0872 18.729 85.6527 18.4109 87.052 17.9399C88.4724 17.4617 90.0225 16.738 91.1934 15.4509C92.3245 14.2073 92.9991 12.5924 93.465 11.0849C93.9343 9.56658 94.2595 7.91423 94.5535 6.53444C94.8665 5.06618 95.1358 3.95634 95.4767 3.20204C95.5646 3.00756 95.6387 2.87602 95.6963 2.78851Z" fill="white" stroke="black" stroke-width="4" stroke-linejoin="round"/>
</svg>
