<svg width="119" height="168" viewBox="0 0 119 168" fill="none" xmlns="http://www.w3.org/2000/svg">
<path d="M53.6955 0.949524H47.9205V61.7709C44.076 67.6716 41.9598 76.4546 38.1937 82.1491C37.8513 82.6645 37.5007 83.1346 36.7829 83.0068V14.9694H31.0079V83.8315L19.8703 85.4809V28.9892H14.0952V86.0994C11.744 87.3076 8.60068 86.8623 5.93178 87.8354C0.692989 89.7487 -1.60878 96.1937 1.22512 101.031L24.5934 125.458C23.1125 137.094 20.2168 148.62 19.4578 160.326C20.3983 166.483 27.085 169.761 32.6744 166.936L59.2891 152.277L88.0117 167.67C95.3584 169.451 100.548 163.769 99.4793 156.619L94.3519 125.458L115.786 103.632C119.51 99.8512 120.377 93.7526 116.355 89.86C113.492 87.089 109.26 87.0767 105.535 86.6561L104.85 86.1035V26.1028C103.019 26.3584 100.502 25.4595 99.075 26.7213V85.4809L87.9374 83.8315V12.0829H82.1624V83.0068C81.3745 83.1346 80.9332 82.4914 80.5701 81.9182C76.9277 76.1123 74.824 67.7004 71.0248 61.7709V0.949524H65.2498V50.8436C64.0453 50.7158 63.2904 49.5406 62.0611 49.2891C60.7411 49.0211 57.866 49.0499 56.5748 49.3881C55.5023 49.6685 54.8052 50.7859 53.6997 50.8436V0.949524H53.6955Z" fill="white"/>
<path d="M53.6956 0.949524V50.8436C54.8011 50.7859 55.4983 49.6685 56.5708 49.3881C57.8619 49.0499 60.7371 49.0211 62.0571 49.2891C63.2863 49.5406 64.0412 50.7158 65.2457 50.8436V0.949524H71.0208V61.7709C74.8241 67.7004 76.9237 76.1123 80.5661 81.9182C80.9291 82.4955 81.3705 83.1346 82.1584 83.0068V12.0829H87.9334V83.8315L99.071 85.4809V26.7213C100.498 25.4595 103.015 26.3584 104.846 26.1028V86.0994L105.531 86.652C109.256 87.0767 113.488 87.0849 116.351 89.8559C120.373 93.7526 119.506 99.8471 115.782 103.628L94.3478 125.454L99.4753 156.615C100.544 163.765 95.3544 169.447 88.0077 167.666L59.2851 152.273L32.6703 166.932C27.0809 169.757 20.3984 166.478 19.4537 160.322C20.2086 148.616 23.1085 137.09 24.5894 125.454L1.22108 101.031C-1.60869 96.1937 0.693079 89.7487 5.92775 87.8354C8.59664 86.8623 11.7399 87.3076 14.0912 86.0994V28.9892H19.8662V85.4809L31.0038 83.8315V14.9694H36.7789V83.0068C37.4966 83.1346 37.8473 82.6646 38.1896 82.1491C41.9558 76.4546 44.0719 67.6674 47.9165 61.7709V0.949524H53.6915H53.6956ZM59.3676 54.6331C58.196 54.7362 57.0039 55.6929 56.5048 56.7443C51.4475 65.8655 47.9412 76.9989 42.7849 85.9139C42.162 86.9942 41.4608 87.9509 40.1861 88.2642C30.4593 90.7012 17.6635 90.3219 8.29552 93.0846C4.85111 94.1031 4.91711 97.0019 6.86413 99.509C10.6427 104.375 17.4655 109.834 21.9411 114.539C24.6801 117.421 27.2583 120.497 30.0963 123.293C30.2861 124.477 30.2242 125.681 30.1252 126.868C29.2796 137.181 25.8517 148.298 24.8575 158.722C24.7874 160.895 26.7633 162.957 28.9413 162.417C37.6245 158.058 45.8663 152.764 54.5083 148.356C55.6055 147.795 58.6416 146.034 59.6439 146.1C60.7907 146.174 66.8462 149.729 68.4096 150.562C74.8323 153.976 82.0429 158.97 88.4779 161.835C92.7845 163.753 93.9147 160.932 93.7002 157.027C93.1392 146.83 89.3071 135.152 88.3748 124.802L88.5068 123.817C94.9666 115.706 103.712 108.882 110.415 101.154C112.968 98.2101 115.819 95.3566 110.72 93.0021C102.012 91.5465 93.1887 90.6187 84.489 89.1219C82.8431 88.8374 78.4417 88.4044 77.394 87.555L62.4407 56.3196C61.9292 55.3754 60.4318 54.5383 59.3593 54.6331H59.3676Z" fill="black"/>
<path d="M59.3673 54.6331C60.4398 54.5383 61.9372 55.3753 62.4487 56.3196L77.402 87.555C78.4497 88.4085 82.8511 88.8374 84.497 89.1219C93.1967 90.6187 102.016 91.5465 110.728 93.0021C115.827 95.3566 112.976 98.2101 110.423 101.154C103.72 108.882 94.9746 115.706 88.5148 123.817L88.3828 124.802C89.3151 135.152 93.1472 146.826 93.7082 157.027C93.9227 160.932 92.7925 163.757 88.4859 161.835C82.0509 158.965 74.8403 153.976 68.4176 150.562C66.8543 149.733 60.7987 146.174 59.6519 146.1C58.6537 146.034 55.6177 147.795 54.5163 148.356C45.8743 152.764 37.6325 158.058 28.9493 162.417C26.7713 162.957 24.7954 160.895 24.8655 158.722C25.8597 148.302 29.2876 137.181 30.1332 126.868C30.2322 125.681 30.2941 124.477 30.1043 123.293C27.2663 120.497 24.6882 117.421 21.9491 114.539C17.4735 109.834 10.6507 104.375 6.87214 99.509C4.92512 97.0019 4.85912 94.1031 8.30352 93.0846C17.6715 90.3177 30.4632 90.7012 40.1942 88.2642C41.4688 87.9508 42.17 86.9942 42.7929 85.9138C47.9492 76.9948 51.4555 65.8655 56.5128 56.7443C57.0119 55.6928 58.2041 54.7321 59.3756 54.6331H59.3673Z" fill="#4E8CFF"/>
<path d="M83.0965 127.779C84.4566 127.543 85.7513 128.453 85.9881 129.813L88.2762 142.972C88.5127 144.332 87.6022 145.627 86.242 145.863C84.8818 146.1 83.5871 145.189 83.3504 143.829L81.0623 130.671C80.8257 129.311 81.7364 128.016 83.0965 127.779Z" fill="white" fill-opacity="0.38"/>
</svg>
