<svg width="147" height="145" viewBox="0 0 147 145" fill="none" xmlns="http://www.w3.org/2000/svg">
<path d="M7.46674 56.1867C3.31709 56.8744 0.589737 59.8648 0.225048 64.0562C-0.306357 70.1908 0.620996 77.1016 0.256307 83.3196C0.865859 87.2139 4.854 86.2527 7.70379 87.5943C17.7223 92.3092 17.6806 108.903 7.36515 113.396C4.64561 114.581 1.18887 113.761 0.292776 117.264C1.47281 125.355 -4.17207 143.725 8.17007 144.697C52.1568 144.452 96.2426 145.142 140.172 144.35C143.652 143.272 145.806 140.38 146.119 136.752C146.531 131.987 146.541 122.732 146.119 117.976C145.752 113.831 142.277 114.641 139.242 113.391C127.898 108.715 128.778 90.2956 140.323 86.9326C142.621 86.2631 145.301 86.7815 145.994 83.7468C145.694 77.3908 146.807 69.7922 146.083 63.5716C145.59 59.3386 142.334 56.5071 138.174 56.1111L7.46674 56.1867Z" fill="white"/>
<path d="M7.46672 56.1867L138.177 56.1111C142.334 56.5097 145.59 59.3386 146.085 63.5716C146.809 69.7896 145.697 77.3908 145.997 83.7468C145.306 86.7841 142.626 86.2631 140.326 86.9326C128.781 90.2956 127.9 108.715 139.245 113.391C142.279 114.641 145.754 113.831 146.122 117.976C146.544 122.732 146.533 131.987 146.122 136.752C145.806 140.38 143.652 143.272 140.175 144.35C96.2452 145.142 52.1594 144.452 8.17266 144.697C-4.16948 143.725 1.478 125.355 0.295363 117.264C1.19146 113.761 4.64819 114.581 7.36773 113.396C17.6832 108.903 17.7249 92.3118 7.70637 87.5943C4.85659 86.2527 0.868447 87.2113 0.258895 83.3196C0.623584 77.1016 -0.303769 70.1908 0.227635 64.0562C0.58972 59.8648 3.31708 56.8744 7.46672 56.1867ZM104.432 62.1129H8.18047C7.52924 62.1129 6.23199 63.3059 6.24241 64.0822L6.26064 80.7042C6.37786 81.0455 9.64965 81.9546 10.3921 82.3037C14.5313 84.26 18.285 88.6362 19.8219 92.9318C23.8751 104.245 18.285 117.358 6.21115 120.101L6.2398 136.731C6.25804 137.403 7.68033 138.698 8.18047 138.698H104.432V129.971C104.432 129.81 105.032 128.624 105.209 128.403C106.563 126.689 110.163 127.637 110.163 129.19V138.698H138.166C138.599 138.698 140.24 137.445 140.104 136.728L140.094 119.968C126.194 116.988 121.028 99.7879 128.859 88.493C130.615 85.9636 133.441 83.3378 136.296 82.1239C137.012 81.8191 139.956 81.0924 140.086 80.7042L140.104 64.0822C140.115 63.3059 138.815 62.1129 138.166 62.1129H110.554L110.163 62.5036V70.3184C110.163 71.1624 108.118 72.3008 107.23 72.2174C105.902 72.095 104.432 70.5841 104.432 69.2764V62.1129Z" fill="black"/>
<path d="M104.433 62.1129V69.2765C104.433 70.5841 105.902 72.095 107.23 72.2174C108.118 72.3008 110.163 71.1624 110.163 70.3184V62.5037L110.554 62.1129H138.166C138.818 62.1129 140.115 63.306 140.104 64.0822L140.086 80.7043C139.953 81.0898 137.012 81.8192 136.296 82.1239C133.441 83.3378 130.615 85.9636 128.859 88.493C121.028 99.7853 126.194 116.988 140.094 119.968L140.104 136.728C140.24 137.442 138.599 138.698 138.166 138.698H110.163V129.19C110.163 127.635 106.563 126.689 105.209 128.403C105.032 128.624 104.433 129.812 104.433 129.971V138.698H8.18051C7.68036 138.698 6.25807 137.403 6.23984 136.731L6.21118 120.101C18.285 117.358 23.8752 104.245 19.8219 92.9318C18.2824 88.6363 14.5313 84.2626 10.3921 82.3037C9.65229 81.9546 6.3779 81.0429 6.26068 80.7043L6.24244 64.0822C6.23202 63.306 7.53188 62.1129 8.18051 62.1129H104.433ZM106.707 77.7998C105.274 78.0915 104.628 79.4331 104.461 80.7642C104.091 83.6973 104.162 90.4858 104.422 93.5075C104.836 98.3162 109.702 97.8551 110.148 95.047C109.767 90.3711 110.708 84.7679 110.169 80.2067C109.968 78.5031 108.382 77.4559 106.707 77.7972V77.7998ZM105.303 103.359C104.677 104.026 104.495 105.349 104.422 106.256C104.169 109.403 104.096 115.933 104.461 118.999C104.881 122.545 108.736 123.232 110.15 120.057V104.716C109.595 102.502 106.897 101.661 105.303 103.359Z" fill="#4E8CFF"/>
<path d="M105.303 103.359C106.897 101.661 109.595 102.502 110.148 104.716V120.057C108.736 123.232 104.881 122.545 104.461 118.999C104.096 115.933 104.169 109.403 104.422 106.256C104.495 105.349 104.677 104.026 105.303 103.359Z" fill="black"/>
<path d="M106.706 77.7998C108.381 77.4586 109.965 78.5057 110.168 80.2094C110.708 84.7706 109.767 90.3738 110.147 95.0496C109.702 97.8603 104.836 98.3188 104.422 93.5101C104.161 90.4884 104.091 83.7 104.461 80.7668C104.63 79.4357 105.276 78.0916 106.706 77.8024V77.7998Z" fill="black"/>
<path d="M63.4515 74.9289C63.462 74.9352 63.5546 74.9949 63.69 75.2237C63.9898 75.7298 64.246 76.6136 64.4373 77.8841C64.6228 79.1166 64.7161 80.4681 64.8202 81.8251C64.9182 83.1012 65.0311 84.4895 65.2932 85.542C66.0392 88.5449 67.2818 90.6959 68.8997 92.2216C70.5088 93.7391 72.3448 94.5007 74.0358 94.9654C74.8752 95.1961 75.7017 95.3596 76.4482 95.4994C77.2214 95.6442 77.8725 95.7577 78.4887 95.9005C79.7495 96.1928 80.368 96.5105 80.7115 96.9069C81.0944 97.3499 81.1909 97.6103 81.2148 97.6989C81.2129 97.7016 81.2119 97.7053 81.2095 97.7084C81.1287 97.8173 80.9131 98.0241 80.4451 98.2813C79.9925 98.53 79.4072 98.77 78.7095 98.9985C77.3056 99.4584 75.6702 99.801 74.1592 100.108C73.4264 100.257 72.7027 100.402 72.1004 100.543C71.5525 100.671 70.8923 100.842 70.39 101.091C65.4688 103.531 64.1382 108.98 63.3598 112.935C62.9323 115.107 62.678 116.818 62.2499 118.151C62.0441 118.793 61.8483 119.17 61.6885 119.376C61.6435 119.434 61.6063 119.469 61.5793 119.492C61.5734 119.484 61.5663 119.476 61.5598 119.467C61.4893 119.367 61.4026 119.217 61.3075 119.002C60.8938 118.066 60.5946 116.575 60.3143 114.648C60.0525 112.847 59.8057 110.655 59.4583 108.777C59.1189 106.944 58.6107 104.929 57.5955 103.526L57.3772 103.24C56.2585 101.841 54.7114 100.923 53.212 100.264C51.6074 99.5575 49.8346 99.0553 48.3306 98.6215C46.7355 98.1614 45.5098 97.7936 44.659 97.3537C44.2499 97.1421 44.0558 96.9766 43.9758 96.884C43.9635 96.8697 43.9559 96.8582 43.9507 96.8507C43.9387 96.4927 44.0104 96.2937 44.0813 96.1679C44.1603 96.0277 44.3115 95.8518 44.6207 95.6497C45.3081 95.2004 46.3992 94.8535 47.9674 94.4751C49.4071 94.1277 51.2476 93.754 52.8996 93.1979C54.5725 92.6347 56.3523 91.7971 57.6873 90.3298C58.9827 88.9058 59.7696 87.039 60.3211 85.2549C60.8759 83.4601 61.2597 81.506 61.6136 79.8456C61.9863 78.0969 62.3165 76.7278 62.7445 75.7806C62.9522 75.3209 63.1294 75.0883 63.2402 74.9831C63.317 74.9102 63.3285 74.9233 63.3305 74.9231C63.4031 74.9174 63.4367 74.9242 63.4428 74.9256C63.4474 74.9266 63.4479 74.9268 63.4515 74.9289Z" fill="white" stroke="black" stroke-width="4" stroke-linejoin="round"/>
<path d="M93.2302 2.8167C93.4582 3.20185 93.6731 3.91467 93.8361 4.99756C93.9934 6.0425 94.0721 7.18944 94.1618 8.35872C94.2454 9.44747 94.3436 10.6651 94.5755 11.5963C95.2262 14.2154 96.3153 16.1135 97.7507 17.4673C99.1774 18.8127 100.802 19.4831 102.279 19.889C103.011 20.0903 103.73 20.2325 104.373 20.3528C105.041 20.478 105.591 20.5733 106.112 20.6941C107.183 20.9423 107.637 21.1995 107.869 21.4681C108.038 21.6635 108.131 21.8078 108.183 21.9017C108.096 21.9766 107.952 22.0855 107.719 22.2137C107.351 22.4158 106.867 22.6156 106.277 22.8087C105.09 23.1974 103.703 23.4884 102.404 23.7524C101.777 23.8797 101.151 24.0048 100.629 24.127C100.161 24.2366 99.5632 24.3893 99.0986 24.6198C94.7355 26.7827 93.5789 31.6039 92.9136 34.9845C92.5426 36.8696 92.3297 38.3063 91.969 39.4302C91.8644 39.7561 91.7682 39.9809 91.6899 40.1356C91.6894 40.1342 91.6887 40.1329 91.6882 40.1316C91.3509 39.3689 91.0984 38.1254 90.8574 36.468C90.6348 34.9377 90.4207 33.037 90.1213 31.4195C89.83 29.8456 89.3854 28.0593 88.4732 26.7981L88.4732 26.7972L88.2781 26.5412C87.2768 25.2895 85.9009 24.4783 84.5951 23.9037C83.1971 23.2886 81.6558 22.8531 80.3695 22.482C78.9922 22.0848 77.9698 21.7767 77.2695 21.4146C77.0129 21.2819 76.8809 21.1834 76.8167 21.126C76.8222 20.9327 76.8634 20.838 76.8916 20.7879C76.9319 20.7164 77.0245 20.5962 77.262 20.4409C77.8058 20.0855 78.6963 19.7964 80.0456 19.4708C81.2664 19.1763 82.8696 18.851 84.3034 18.3684C85.7581 17.8787 87.3386 17.1388 88.5319 15.8271C89.6853 14.559 90.3756 12.9105 90.8532 11.3653C91.3341 9.80936 91.6675 8.11579 91.9698 6.69774C92.2908 5.19132 92.5686 4.04634 92.9213 3.2658C93.0373 3.00896 93.1317 2.8563 93.198 2.76754C93.2076 2.78234 93.2193 2.79831 93.2302 2.8167Z" fill="white" stroke="black" stroke-width="4" stroke-linejoin="round"/>
<path d="M41.9762 16.0204C42.2298 16.0002 42.3524 16.0508 42.4325 16.099C42.5369 16.162 42.7064 16.3088 42.9064 16.6465C43.3348 17.3701 43.668 18.5602 43.9099 20.1673C44.1461 21.7366 44.2635 23.4551 44.3935 25.1492C44.5172 26.7614 44.6581 28.456 44.9742 29.7265L44.9741 29.7275C45.8914 33.4204 47.4081 36.0274 49.354 37.8626C51.2909 39.6891 53.5087 40.6137 55.5843 41.1841C56.6161 41.4676 57.636 41.6694 58.5703 41.8444C59.5314 42.0243 60.3649 42.1703 61.1519 42.3528C62.7544 42.7244 63.6679 43.1522 64.2104 43.7782C64.811 44.473 64.9473 44.8962 64.9725 45.07C64.9874 45.1727 64.9827 45.256 64.86 45.4213C64.6981 45.6393 64.3579 45.9409 63.7372 46.282C63.1317 46.6149 62.365 46.9282 61.4719 47.2208C59.678 47.8084 57.5982 48.2437 55.7059 48.6283C54.7824 48.8159 53.884 48.9952 53.1376 49.17C52.5314 49.3119 51.8627 49.486 51.3226 49.717L51.1006 49.8187C45.1765 52.7556 43.536 59.3334 42.5543 64.321C42.0252 67.0094 41.6965 69.212 41.1473 70.923C40.5728 72.7133 40.0599 72.9563 39.83 73.0016C39.6592 73.0352 39.6498 73.0041 39.6225 72.9837C39.5137 72.902 39.2841 72.6534 39.0128 72.0399C38.4617 70.7938 38.0794 68.8561 37.7286 66.4439C37.3962 64.1586 37.0919 61.4421 36.658 59.0981C36.2323 56.798 35.609 54.3743 34.409 52.7154L34.1497 52.3748C32.8199 50.713 30.9638 49.6027 29.1163 48.7898C27.1402 47.9202 24.9505 47.299 23.0552 46.7523C21.0691 46.1794 19.4774 45.7051 18.356 45.1253C17.2155 44.5356 17.1969 44.1729 17.1932 44.0786L17.1932 44.0776C17.1721 43.5348 17.2798 43.1863 17.4211 42.9353C17.5697 42.6715 17.8246 42.3941 18.263 42.1075C19.2086 41.4896 20.6594 41.0387 22.6211 40.5653C24.4545 40.1229 26.7222 39.6636 28.7667 38.9754C30.8323 38.2801 32.97 37.2634 34.56 35.5156C36.1102 33.8115 37.07 31.5552 37.7542 29.3418C38.4418 27.1176 38.9184 24.6948 39.3652 22.5984C39.8308 20.4135 40.2542 18.6407 40.8176 17.3938C41.3934 16.1196 41.8144 16.0334 41.9762 16.0204Z" fill="white" stroke="black" stroke-width="4" stroke-linejoin="round"/>
</svg>
