<svg width="197" height="173" viewBox="0 0 197 173" fill="none" xmlns="http://www.w3.org/2000/svg">
<path d="M188.306 14.4712C190.391 14.2907 192.151 14.9551 193.404 16.1646C194.67 17.387 195.446 19.1956 195.481 21.3306C195.025 29.1458 195.316 37.2743 195.575 45.3531C195.835 53.4501 196.062 61.4987 195.484 69.188C195.048 75.0083 192.467 79.0887 188.914 81.6304C185.348 84.1812 180.768 85.2051 176.318 84.8296C171.868 84.454 167.593 82.6827 164.633 79.7007C161.685 76.7315 160.015 72.539 160.784 67.2368C161.439 62.7347 164.734 59.2138 168.98 57.0708C173.228 54.9274 178.34 54.2105 182.478 55.2486L183.099 55.4048V28.6314L182.441 28.8501L147.146 40.5523L146.803 40.6656V41.0259L146.737 83.8716V83.9419L146.757 84.0083C161.462 136.147 113.766 184.054 61.3516 168.986C13.8082 155.32 -3.89347 95.5374 28.8291 58.1109C57.0252 25.8573 106.514 26.8837 133.929 59.4019L134.811 60.4488V34.772C135.058 33.4473 135.878 32.4462 136.981 31.646C138.101 30.8343 139.473 30.2585 140.728 29.7837C148.372 26.8873 156.402 24.4828 164.469 22.0865C172.506 19.6987 180.579 17.3171 188.306 14.4712ZM130.597 59.6099C102.588 27.4347 51.8392 30.1756 27.0547 64.687C1.65058 100.067 17.2943 150.425 58.0293 165.198C105.838 182.537 154.13 141.866 146.015 92.1958L145.827 91.0435L145.123 91.9751C139.172 99.8442 128.529 102.113 119.893 97.2398C112.909 93.2969 110.057 85.2076 113.936 78.0669L114.125 77.7281C114.241 77.5271 114.522 77.1688 114.915 76.7046C115.298 76.2515 115.755 75.7357 116.199 75.2271C116.639 74.7231 117.069 74.2243 117.384 73.8218C117.54 73.6219 117.678 73.4337 117.776 73.273C117.825 73.1936 117.872 73.1073 117.906 73.021C117.933 72.9542 117.988 72.8029 117.957 72.6294L117.933 72.4937L117.842 72.3892L117.274 71.7486C111.374 65.1717 104.122 59.8861 95.5518 57.1929C88.9655 55.124 82.6553 54.8927 75.8535 55.1089C75.4939 55.1201 74.992 55.2147 74.4912 55.3091C73.9691 55.4075 73.41 55.5148 72.877 55.5738C72.3366 55.6335 71.8719 55.6372 71.5303 55.5581C71.2009 55.4819 71.0705 55.3536 71.0176 55.1958C70.805 54.5614 70.9833 53.7653 71.4316 53.3951L71.4326 53.3941C71.4592 53.3722 71.56 53.3141 71.7832 53.2378C71.9916 53.1666 72.2615 53.0936 72.5811 53.022C73.219 52.8791 74.0189 52.7466 74.8467 52.6324C76.5046 52.4036 78.2297 52.2531 78.9062 52.2281L78.9053 52.2271C95.1544 51.6382 110.135 59.1015 120.556 71.271L120.781 71.5347L121.107 71.4156C125.353 69.8646 129.861 68.8845 134.147 70.3286L134.29 69.9038L134.798 69.9507C135.23 67.6272 134.863 65.8064 134.025 64.1695C133.203 62.5618 131.928 61.137 130.597 59.6099ZM189.11 17.1851L138.649 33.5747L138.539 33.6109L138.455 33.6919C138.333 33.811 138.206 33.9877 138.095 34.1597C137.977 34.3411 137.854 34.5518 137.741 34.7622C137.628 34.9725 137.522 35.189 137.438 35.3824C137.36 35.5633 137.283 35.7637 137.255 35.9263L137.153 36.5122H137.261V73.0933C137.261 73.1891 137.234 73.2156 137.215 73.2329C137.176 73.2668 137.083 73.3186 136.891 73.3492C136.501 73.411 135.924 73.3575 135.254 73.231C134.598 73.1071 133.909 72.9246 133.317 72.7632C133.025 72.6835 132.751 72.6075 132.525 72.5493C132.309 72.4937 132.1 72.4447 131.946 72.4283H131.947C122.82 71.4143 116.825 76.2772 115.253 82.0552C114.47 84.9349 114.794 88.03 116.377 90.6861C117.962 93.3455 120.787 95.5259 124.935 96.6236C128.84 97.6576 133.456 97.1822 137.205 95.3345C140.963 93.4824 143.9 90.2196 144.308 85.6636C144.954 78.4424 144.586 70.64 144.237 62.896C143.888 55.1364 143.56 47.4349 144.265 40.3521V40.3511C144.282 40.1788 144.286 40.0072 144.291 39.8618C144.296 39.7094 144.302 39.5808 144.318 39.4605C144.343 39.2734 144.391 39.1273 144.485 38.9966L184.998 25.521C185.026 25.5298 185.076 25.5474 185.149 25.5845C185.28 25.6501 185.431 25.7479 185.577 25.8589C185.723 25.9698 185.85 26.0831 185.936 26.1734C185.952 26.1905 185.964 26.2066 185.975 26.2193V58.0064C185.975 58.1354 185.935 58.1968 185.861 58.2515C185.76 58.3266 185.569 58.4002 185.253 58.438C184.623 58.5133 183.726 58.4234 182.724 58.2515C181.732 58.0814 180.692 57.8412 179.787 57.6402C179.338 57.5405 178.92 57.4503 178.564 57.3853C178.305 57.3378 178.058 57.2995 177.849 57.2847L177.651 57.2779C173.264 57.3313 168.843 59.3865 166.053 62.5767C163.247 65.7855 162.078 70.1678 164.293 74.7798C167.088 80.6008 173.901 82.9081 180.059 82.187C186.124 81.4768 191.821 77.7896 192.564 71.314L192.596 71.0034C193.31 63.0074 193.029 54.4981 192.712 45.9966C192.394 37.4828 192.041 28.9777 192.597 20.938V20.9302L192.598 20.9214C192.635 19.891 192.394 18.9661 191.817 18.2808C191.235 17.5883 190.365 17.2073 189.286 17.1617L189.196 17.1577L189.11 17.1851Z" fill="black" stroke="black"/>
<path d="M27.8667 65.2704C52.2797 31.2719 102.263 28.5804 129.846 60.2625C131.203 61.8223 132.383 63.1473 133.137 64.6229C133.811 65.9397 134.143 67.3806 133.905 69.2108C129.579 67.9526 125.134 68.9255 121.09 70.3651C110.505 58.1419 95.3418 50.6363 78.8696 51.2332H78.8687C78.1481 51.26 76.3886 51.4144 74.7104 51.6454C73.8705 51.761 73.0397 51.8978 72.3628 52.0497C72.0248 52.1255 71.7157 52.2069 71.4595 52.2948C71.2788 52.3568 71.0927 52.4317 70.937 52.5272L70.7935 52.6297C69.9585 53.3248 69.7625 54.5829 70.0698 55.5155V55.5174C70.2731 56.1257 70.7812 56.4181 71.3042 56.5399C71.8146 56.6587 72.4158 56.6382 72.9868 56.575C73.5653 56.5111 74.1641 56.3969 74.6772 56.2997C75.211 56.1985 75.6223 56.1223 75.8862 56.1131L75.8853 56.1122C82.648 55.8972 88.825 56.1336 95.2515 58.1522C103.78 60.8337 111.004 66.1586 116.88 72.8172C116.812 72.9211 116.717 73.054 116.594 73.2108C116.298 73.5891 115.885 74.0681 115.443 74.5741C115.005 75.0754 114.539 75.603 114.149 76.0643C113.769 76.5135 113.427 76.9399 113.259 77.2332C108.794 84.9902 111.878 93.8678 119.401 98.1151C128.139 103.05 138.838 101.015 145.201 93.4803C152.295 141.893 105.1 181.204 58.3706 164.263C18.2596 149.716 2.84876 100.112 27.8667 65.2704ZM31.4312 109.538C30.6599 109.753 30.2615 110.364 30.0884 111.047C29.9194 111.713 29.9411 112.517 30.0386 113.302C30.2339 114.875 30.7672 116.595 30.9878 117.423C36.4091 137.83 56.1808 153.477 77.1294 154.888C78.2735 154.965 81.5129 154.992 84.5894 154.768C86.1273 154.657 87.645 154.481 88.8481 154.212C89.4484 154.077 89.9897 153.915 90.4224 153.717C90.837 153.527 91.2374 153.265 91.438 152.883L91.437 152.882C91.8416 152.137 91.7914 151.402 91.4438 150.696L91.4419 150.692L91.3647 150.56C91.1715 150.267 90.878 150.072 90.5649 149.942C90.2071 149.794 89.7793 149.712 89.3267 149.67C88.4207 149.585 87.3045 149.65 86.186 149.768C85.0627 149.887 83.9034 150.062 82.9126 150.205C81.902 150.351 81.0991 150.457 80.6353 150.456C62.2378 150.414 44.6288 138.589 37.4595 121.779L37.1265 120.974C36.7696 120.087 36.0531 117.483 35.313 114.978C34.9474 113.741 34.5782 112.538 34.2524 111.618C34.0901 111.159 33.9336 110.759 33.7905 110.455C33.7194 110.304 33.6457 110.164 33.5698 110.05C33.5063 109.954 33.3958 109.803 33.23 109.716L33.1431 109.67L33.0454 109.66L31.6226 109.522L31.5981 109.52H31.4976L31.4312 109.538ZM80.3296 73.3358L79.146 73.3524L79.1714 73.3778C56.5439 74.5495 43.5993 100.353 56.063 119.404L56.3677 119.86C68.7257 138.044 96.2699 136.598 106.796 117.384C117.643 97.5851 102.876 73.0201 80.3296 73.3358Z" fill="#4E8CFF" fill-opacity="0.55" stroke="black"/>
<path d="M189.337 18.1667C190.154 18.2173 190.711 18.5033 191.065 18.9245C191.437 19.3666 191.643 20.0224 191.611 20.8844C191.052 28.9834 191.408 37.5396 191.725 46.0319C192.042 54.542 192.319 62.9894 191.613 70.9147C191.075 76.9315 185.849 80.5039 179.952 81.195C174.051 81.8865 167.753 79.6526 165.208 74.3473C163.193 70.1483 164.234 66.1879 166.818 63.2321C169.419 60.2577 173.571 58.3259 177.677 58.278C177.815 58.2765 178.053 58.3049 178.397 58.3678C178.733 58.4291 179.135 58.5161 179.584 58.6159C180.475 58.8139 181.545 59.0616 182.567 59.237C183.579 59.4105 184.6 59.5241 185.385 59.4303C185.776 59.3836 186.166 59.2798 186.47 59.0553C186.8 58.8105 186.988 58.4497 186.988 58.0065V26.0944C186.988 25.9062 186.894 25.7588 186.858 25.7057C186.807 25.6275 186.741 25.5517 186.677 25.4831C186.546 25.3439 186.375 25.1937 186.195 25.0573C186.016 24.9209 185.812 24.7875 185.612 24.6872C185.435 24.5979 185.18 24.4925 184.925 24.5094L184.86 24.5133L184.8 24.5338L144.045 38.0895L143.925 38.1295L143.839 38.2223C143.507 38.5748 143.388 38.9658 143.341 39.3249C143.318 39.4982 143.311 39.6708 143.306 39.8219C143.3 39.9797 143.295 40.1143 143.282 40.2477C142.569 47.4151 142.904 55.1909 143.252 62.9362C143.601 70.6974 143.964 78.4287 143.325 85.57C142.956 89.6958 140.306 92.6961 136.776 94.4352C133.349 96.124 129.141 96.5939 125.549 95.7389L125.203 95.652C121.271 94.6111 118.682 92.5728 117.249 90.1696C115.814 87.7628 115.514 84.9497 116.231 82.3131C117.661 77.0584 123.162 72.4524 131.851 73.4176C131.921 73.4256 132.064 73.456 132.289 73.5143C132.506 73.5704 132.768 73.6435 133.067 73.7253C133.66 73.8869 134.383 74.0788 135.082 74.2106C135.768 74.3398 136.49 74.4238 137.062 74.3327C137.349 74.2867 137.652 74.1879 137.889 73.9792C138.144 73.7538 138.273 73.4436 138.273 73.0885V36.0309C138.291 35.9759 138.321 35.8923 138.369 35.7809C138.44 35.618 138.533 35.4265 138.636 35.235C138.738 35.0434 138.848 34.8573 138.947 34.7038C139.011 34.6061 139.063 34.5323 139.104 34.4811L189.337 18.1667Z" fill="white" stroke="black"/>
<path d="M80.8267 74.3361C102.331 74.3827 116.326 97.9189 105.924 116.906C95.7541 135.471 69.1333 136.863 57.1987 119.302C44.4437 100.532 57.6345 74.6607 80.3521 74.343L80.8267 74.3361ZM97.106 82.548C92.2817 78.5512 85.7245 76.3295 77.6753 77.2443C68.7099 78.2622 62.5659 82.5602 58.9897 88.3107C55.4225 94.0471 54.4331 101.19 55.6831 107.886C56.9332 114.582 60.4312 120.875 65.896 124.895C71.3741 128.925 78.7864 130.639 87.7778 128.241C102.808 124.234 108.343 110.536 106.106 98.3644C104.987 92.2771 101.922 86.5386 97.106 82.548Z" fill="black" stroke="black"/>
<path d="M32.748 110.636C32.7832 110.694 32.8283 110.773 32.8789 110.88C33.001 111.139 33.1441 111.503 33.3027 111.951C33.6191 112.844 33.9817 114.024 34.3467 115.259C34.9774 117.394 35.6236 119.729 36.0303 120.914L36.1895 121.347C43.2847 138.959 61.525 151.412 80.624 151.456C81.1767 151.457 82.0641 151.335 83.0449 151.194C84.0459 151.05 85.1806 150.878 86.2803 150.762C87.3845 150.646 88.4207 150.589 89.2246 150.665C89.6269 150.702 89.9445 150.771 90.1738 150.866C90.3457 150.937 90.4431 151.012 90.498 151.079L90.54 151.142C90.7705 151.604 90.7802 151.992 90.5498 152.407H90.5488L90.5439 152.417C90.5021 152.497 90.3579 152.642 89.9971 152.807C89.6542 152.964 89.1884 153.107 88.6211 153.234C87.4888 153.487 86.0274 153.658 84.5078 153.768C81.4695 153.988 78.2769 153.96 77.1865 153.888H77.1875C56.6483 152.505 37.2518 137.145 31.9453 117.165L31.7275 116.375C31.478 115.477 31.1606 114.29 31.0225 113.177C30.9302 112.434 30.9266 111.777 31.0498 111.292C31.1591 110.861 31.3468 110.628 31.6172 110.526L32.748 110.636Z" fill="black" stroke="black"/>
<path d="M77.7876 78.2379C85.5787 77.3537 91.8631 79.5041 96.4702 83.321C101.085 87.1443 104.043 92.6625 105.125 98.5475C107.289 110.321 101.942 123.431 87.52 127.275C78.7989 129.601 71.7042 127.926 66.4888 124.09C61.26 120.243 57.8769 114.191 56.6655 107.703C55.4542 101.214 56.4225 94.3327 59.8384 88.8395C63.2457 83.3605 69.1117 79.223 77.7876 78.2379ZM90.604 91.6032C87.6028 89.0115 83.2728 87.6358 77.6519 88.4489C69.0925 89.6867 65.3734 97.3992 66.104 104.575C66.4702 108.172 67.9516 111.684 70.5347 114.253C73.1262 116.829 76.8029 118.429 81.4956 118.224C86.4251 118.01 90.0939 115.835 92.4468 112.731C94.7913 109.638 95.8139 105.644 95.5161 101.791C95.2182 97.9366 93.5958 94.1868 90.604 91.6032Z" fill="#4E8CFF" fill-opacity="0.55" stroke="black"/>
<path d="M77.7949 89.4379C83.171 88.6601 87.1986 89.9834 89.9502 92.3598C92.7112 94.7443 94.2369 98.2327 94.5176 101.868C94.7983 105.503 93.8296 109.249 91.6484 112.127C89.4754 114.994 86.0837 117.023 81.4531 117.225C76.8015 117.427 73.2884 115.925 70.8633 113.555C68.4302 111.177 67.0614 107.894 66.7695 104.495C66.1844 97.6762 69.918 90.5775 77.7949 89.4379ZM87.7812 93.9467C85.5114 92.1322 82.3848 91.2236 78.4932 91.891C71.7189 93.0534 68.8844 99.3321 69.7197 104.894C70.139 107.685 71.4818 110.346 73.752 112.15C76.031 113.96 79.2 114.87 83.1924 114.23C90.057 113.127 92.7778 106.811 91.8682 101.227C91.4117 98.425 90.041 95.7531 87.7812 93.9467Z" fill="black" stroke="black"/>
<path d="M23.0918 44.4878C23.2998 44.4913 23.4411 44.5506 23.5791 44.6646C23.9512 44.9722 24.3466 45.7234 24.6641 47.0816C24.9659 48.3729 25.1291 49.8805 25.2939 51.3833C25.4295 52.6193 25.5722 53.9478 25.8389 54.9761L25.9609 55.397C26.7223 57.7378 27.931 59.4475 29.46 60.7076C30.9688 61.951 32.7196 62.6981 34.4805 63.232C36.2166 63.7583 38.0987 64.1125 39.8057 64.4868C41.2221 64.7975 42.5597 65.1322 43.7998 65.5943C43.7252 66.7832 43.3051 67.3597 42.8281 67.732C42.0801 68.3156 40.8945 68.6436 39.1348 68.9702C36.0157 69.5492 31.3175 70.0189 28.3066 73.8384L28.0205 74.2193C25.8662 77.2237 25.6775 80.9063 25.3105 83.5904C24.9618 86.1411 24.4848 87.8547 22.9561 88.9097C21.132 87.7784 20.6636 85.8606 20.292 82.9995C19.9061 80.0281 19.6615 75.9987 16.7725 72.9341C15.4834 71.5669 13.7297 70.75 11.998 70.1909C10.2631 69.6309 8.36928 69.2774 6.72949 68.9497C5.0175 68.6076 3.63384 68.3017 2.65332 67.8618C1.6901 67.4297 1.53197 67.0651 1.50684 66.7788C1.46445 66.2955 1.61517 65.9815 2.06543 65.646C2.60595 65.2434 3.48666 64.9051 4.68164 64.6167C5.85845 64.3327 7.13629 64.1397 8.42773 63.9185C9.64891 63.7093 10.9557 63.4648 11.9492 63.0581L11.9521 63.0572C17.7381 60.6767 19.4353 55.9851 20.1826 52.0044C20.3679 51.0172 20.4994 50.0547 20.6172 49.1861C20.7373 48.3003 20.8411 47.5311 20.9756 46.856C21.2715 45.3702 21.6099 44.9789 21.8193 44.8726H21.8203C22.4436 44.5562 22.8511 44.4839 23.0918 44.4878Z" fill="white" stroke="black" stroke-width="3" stroke-linejoin="round"/>
<path d="M58.6245 23.7184C58.7515 23.9632 58.8861 24.3693 59.0044 24.9694C59.1391 25.653 59.223 26.407 59.3169 27.1881C59.3926 27.8177 59.4808 28.531 59.6294 29.1246L59.6968 29.3717C60.2249 31.1327 61.0435 32.3998 62.0923 33.2858C63.1312 34.1632 64.2849 34.5721 65.3179 34.8053C65.8309 34.9211 66.3324 34.9978 66.7778 35.0612C67.2429 35.1273 67.6213 35.1763 67.981 35.2428C68.7254 35.3804 69.0143 35.5363 69.1519 35.6783C69.1939 35.7219 69.2267 35.7624 69.2554 35.7965C69.2108 35.8275 69.1585 35.8627 69.0962 35.899C68.8566 36.039 68.5347 36.1825 68.1372 36.3258C67.337 36.6143 66.3953 36.8439 65.5083 37.0543C65.0812 37.1556 64.6519 37.2564 64.2944 37.3522C63.9768 37.4372 63.5599 37.557 63.2349 37.7291C60.2252 39.3222 59.5487 42.6517 59.1821 44.9283C58.9757 46.2104 58.8719 47.1512 58.6587 47.8951C58.6372 47.97 58.6141 48.0359 58.5942 48.0944C58.4004 47.61 58.2258 46.897 58.0474 45.9664C57.8547 44.9618 57.6529 43.685 57.4019 42.609C57.1581 41.5641 56.7965 40.3471 56.1079 39.4967V39.4957C55.3497 38.5601 54.2879 38.0022 53.3091 37.6285C52.3237 37.2523 51.2455 37 50.3521 36.7867C49.3907 36.5573 48.6888 36.3811 48.2075 36.1627C48.1015 36.1146 48.029 36.0737 47.98 36.0436C47.9855 36.0166 47.9932 36.0053 47.9946 36.0026C48.0041 35.9846 48.0447 35.9183 48.1929 35.816C48.5396 35.5769 49.1284 35.3644 50.0503 35.111C50.8774 34.8836 51.9783 34.6219 52.9565 34.2604C53.9475 33.8941 55.0387 33.3517 55.8472 32.4186C56.6302 31.5147 57.0699 30.3657 57.3599 29.3102C57.6516 28.2482 57.8369 27.0978 58.0054 26.149C58.186 25.1321 58.3423 24.3828 58.5542 23.8756C58.5801 23.8136 58.603 23.7614 58.6245 23.7184Z" fill="white" stroke="black" stroke-width="3" stroke-linejoin="round"/>
<path d="M22.6079 1.64355C22.7349 1.88841 22.8695 2.29444 22.9878 2.89453C23.1225 3.57821 23.2064 4.33215 23.3003 5.11328C23.376 5.74287 23.4642 6.45613 23.6128 7.0498L23.6802 7.29688C24.2083 9.05792 25.0269 10.325 26.0757 11.2109C27.1146 12.0884 28.2683 12.4972 29.3013 12.7305C29.8142 12.8463 30.3158 12.923 30.7612 12.9863C31.2263 13.0525 31.6047 13.1015 31.9644 13.168C32.7088 13.3056 32.9977 13.4614 33.1353 13.6035C33.1773 13.6471 33.2101 13.6876 33.2388 13.7217C33.1942 13.7527 33.1419 13.7878 33.0796 13.8242C32.84 13.9641 32.5181 14.1077 32.1206 14.251C31.3204 14.5395 30.3787 14.769 29.4917 14.9795C29.0646 15.0808 28.6353 15.1816 28.2778 15.2773C27.9602 15.3624 27.5433 15.4822 27.2183 15.6543C24.2086 17.2474 23.5321 20.5768 23.1655 22.8535C22.9591 24.1356 22.8553 25.0763 22.6421 25.8203C22.6206 25.8951 22.5975 25.9611 22.5776 26.0195C22.3838 25.5351 22.2092 24.8222 22.0308 23.8916C21.8381 22.887 21.6363 21.6102 21.3853 20.5342C21.1415 19.4893 20.7799 18.2723 20.0913 17.4219V17.4209C19.3331 16.4853 18.2713 15.9274 17.2925 15.5537C16.3071 15.1775 15.2289 14.9252 14.3354 14.7119C13.3741 14.4824 12.6722 14.3063 12.1909 14.0879C12.0849 14.0398 12.0124 13.9989 11.9634 13.9688C11.9689 13.9418 11.9766 13.9305 11.978 13.9277C11.9875 13.9098 12.0281 13.8434 12.1763 13.7412C12.523 13.5021 13.1118 13.2895 14.0337 13.0361C14.8608 12.8088 15.9617 12.5471 16.9399 12.1855C17.9309 11.8193 19.0221 11.2769 19.8306 10.3438C20.6136 9.43991 21.0533 8.29086 21.3433 7.23535C21.635 6.17341 21.8203 5.02294 21.9888 4.07422C22.1694 3.0573 22.3257 2.30793 22.5376 1.80078C22.5635 1.73882 22.5864 1.68662 22.6079 1.64355Z" fill="white" stroke="black" stroke-width="3" stroke-linejoin="round"/>
</svg>
