<svg width="124" height="181" viewBox="0 0 124 181" fill="none" xmlns="http://www.w3.org/2000/svg">
<path d="M79.5023 2.03828C72.864 3.09793 72.8969 9.98774 75.5646 14.8489C76.7562 17.0177 82.0091 23.7756 83.9182 25.0579C84.3428 25.3424 84.4913 25.5279 85.0726 25.3836C86.7137 24.9754 95.2156 17.8053 96.502 16.156C103.248 7.50559 94.5064 -1.58185 86.8209 6.05836C85.0438 3.36594 82.9492 1.48578 79.4981 2.03828H79.5023ZM56.9238 27.9194C54.9736 27.5978 53.9716 26.2783 51.774 26.2371C48.9702 26.1794 46.4263 28.0554 45.4944 30.7066C42.5299 39.1385 56.3507 44.4326 62.4447 46.3994C66.2504 41.6866 70.8931 34.0959 69.619 27.808C68.345 21.5202 57.8969 21.3677 56.9279 27.9235L56.9238 27.9194ZM87.0311 49.3598C87.093 44.6759 81.403 42.1401 77.9396 45.4222C73.9319 49.2196 77.8736 59.1152 79.8898 63.4239C81.4937 64.5 92.2799 59.944 93.9952 58.1792C98.9182 53.1242 93.4179 45.752 87.0311 49.3598ZM7.45002 115.339V115.936C5.83786 117.33 3.96595 119.796 4.22983 122.022C4.35352 123.061 5.56573 124.459 5.33896 125.346C5.19465 125.902 4.01955 126.69 3.57012 127.321C-2.0415 135.167 -0.940615 143.026 6.18833 149.4C1.94147 153.944 2.86506 160.322 5.19877 165.616C10.1466 176.827 22.4954 179.091 33.6156 179.668C51.0153 180.567 73.969 180.596 91.3522 179.648C98.6502 179.248 107.482 177.842 113.217 173.063C119.501 167.826 124.197 156.302 117.98 149.4C125.974 142.803 126.012 131.67 118.062 125.024C120.26 121.738 119.876 118.695 117.159 115.887C117.04 115.215 119.299 113.516 119.781 112.828C123.698 107.245 120.61 98.9697 117.613 93.6096C98.9388 60.2408 23.9468 60.0677 6.00279 94.2899C2.60118 100.78 -0.396358 111.009 7.45002 115.335V115.339Z" fill="white"/>
<path d="M7.45013 115.338C-0.396248 111.013 2.59717 100.784 6.0029 94.2937C23.9469 60.0714 98.9389 60.2405 117.613 93.6133C120.614 98.9735 123.699 107.249 119.782 112.831C119.299 113.52 117.04 115.219 117.159 115.891C119.876 118.695 120.26 121.737 118.062 125.028C126.012 131.674 125.975 142.807 117.98 149.404C124.197 156.306 119.501 167.83 113.217 173.067C107.482 177.845 98.6503 179.251 91.3523 179.651C73.9691 180.6 51.0154 180.571 33.6157 179.672C22.4955 179.099 10.1467 176.835 5.19888 165.62C2.86105 160.326 1.94159 153.948 6.18844 149.404C-0.936381 143.029 -2.04139 135.171 3.57023 127.324C4.01966 126.693 5.19476 125.906 5.33907 125.349C5.56584 124.463 4.35363 123.069 4.22994 122.026C3.97018 119.8 5.83797 117.334 7.446 115.94V115.342L7.45013 115.338ZM54.784 75.4591C38.9057 76.5476 16.9994 83.6023 10.5507 99.6703C8.80252 104.024 6.97596 110.572 13.8287 110.399H109.931C116.231 110.448 115.733 106.659 114.36 101.814C108.092 79.6977 74.2082 74.1273 54.784 75.4591ZM113.329 118.711C112.916 118.002 109.3 116.889 108.278 116.967H17.5395C13.9482 116.757 6.8399 121.721 13.8245 122.772H108.69C110.636 123.098 114.59 120.872 113.333 118.711H113.329ZM12.6041 145.017H40.0231L25.3075 133.138C20.7638 130.058 18.9166 128.677 13.0123 129.349C4.53093 130.314 4.53918 143.681 12.6 145.017H12.6041ZM54.0418 129.349H29.7152L42.2908 138.824L54.0418 129.349ZM44.9709 145.017H111.56C114.454 145.017 117.279 140.931 117.539 138.214C117.827 135.187 116.124 130.862 113.02 129.947C111.939 129.629 108.051 129.398 106.629 129.328C92.6717 128.627 77.9314 129.712 63.9457 129.559L44.9709 145.013V145.017ZM13.1153 151.709C8.93034 153.16 9.21484 156.702 10.0436 160.363C11.9567 168.84 19.8279 171.331 27.5052 172.588C48.6281 172.564 70.25 174.184 91.3812 173.071C98.9348 172.671 110.224 170.848 113.329 162.858C114.945 158.693 115.897 152.801 110.339 151.606L13.1195 151.709H13.1153Z" fill="black"/>
<path d="M79.5019 2.03825C82.9489 1.48987 85.0435 3.3659 86.8247 6.05833C94.5102 -1.58189 103.251 7.50556 96.5059 16.1559C95.2194 17.8052 86.7175 24.9795 85.0765 25.3836C84.4951 25.5279 84.3467 25.3424 83.922 25.0579C82.0129 23.7714 76.76 17.0177 75.5684 14.8489C72.9008 9.9877 72.8678 3.0979 79.5061 2.03825H79.5019Z" fill="#4E8CFF" stroke="black" stroke-width="2"/>
<path d="M56.9239 27.9193C57.8929 21.3635 68.3121 21.3635 69.615 27.8039C70.9179 34.2442 66.2464 41.6824 62.4407 46.3952C56.3508 44.4284 42.53 39.1343 45.4904 30.7024C46.4222 28.0513 48.9662 26.1752 51.77 26.2329C53.9676 26.2783 54.9696 27.5936 56.9198 27.9152L56.9239 27.9193Z" fill="#4E8CFF" stroke="black" stroke-width="2"/>
<path d="M87.0309 49.3598C93.4135 45.7521 98.918 53.1284 93.9949 58.1793C92.2797 59.9399 81.4935 64.5001 79.8896 63.4239C77.8733 59.1152 73.9316 49.2196 77.9393 45.4222C81.4069 42.1402 87.0968 44.6759 87.0309 49.3598Z" fill="#4E8CFF" stroke="black" stroke-width="2"/>
<path d="M54.7837 75.4592C74.2079 74.1316 108.092 79.7019 114.359 101.814C115.732 106.659 116.231 110.448 109.931 110.399H13.8284C6.97568 110.568 8.80636 104.024 10.5505 99.6663C16.9991 83.5942 38.9054 76.5395 54.7837 75.4551V75.4592ZM48.566 91.7045C51.613 89.2512 47.6836 83.4045 44.1171 86.6412C40.7897 89.6676 45.3211 94.3185 48.566 91.7045ZM72.068 86.1423C69.5653 86.7113 68.8849 90.4758 71.3918 91.9972C76.7437 95.2463 78.9083 84.592 72.068 86.1423ZM32.0734 93.9763C29.5788 94.5412 29.2325 98.7757 31.6734 99.9755C37.0129 102.602 38.6663 92.4837 32.0734 93.9763ZM88.1483 93.9763C85.2456 94.6278 85.1219 99.6333 88.6637 100.326C93.4507 101.266 94.2053 92.6157 88.1483 93.9763ZM60.1191 94.3886C55.8434 94.8092 56.2268 101.254 60.4325 101.254C65.0834 101.254 64.737 93.9351 60.1191 94.3886Z" fill="#FFD694"/>
<path d="M13.115 151.709L110.335 151.606C115.893 152.806 114.941 158.698 113.324 162.858C110.22 170.849 98.9303 172.671 91.3767 173.071C70.2455 174.185 48.6236 172.568 27.5007 172.589C19.8233 171.331 11.9522 168.841 10.0391 160.364C9.21445 156.702 8.92995 153.161 13.1108 151.709H13.115Z" fill="#FFD694"/>
<path d="M44.9706 145.017L63.9454 129.564C77.9312 129.716 92.6715 128.632 106.628 129.333C108.051 129.403 111.939 129.634 113.019 129.951C116.124 130.867 117.827 135.192 117.538 138.218C117.279 140.935 114.45 145.022 111.56 145.022H44.9706V145.017Z" fill="#421712" fill-opacity="0.71"/>
<path d="M113.329 118.711C114.586 120.872 110.636 123.098 108.686 122.768H13.8243C6.84378 121.721 13.948 116.757 17.5393 116.967H108.278C109.304 116.889 112.916 118.002 113.329 118.711Z" fill="#83D383"/>
<path d="M12.604 145.017C4.54318 143.681 4.53493 130.314 13.0163 129.349C18.9165 128.677 20.7637 130.058 25.3115 133.138L40.0271 145.017H12.604Z" fill="#421712" fill-opacity="0.71"/>
<path d="M54.0412 129.349L42.2902 138.828L29.7145 129.349H54.0412Z" fill="#FFF8AD"/>
<path d="M60.1188 94.3889C64.7409 93.9353 65.0831 101.254 60.4322 101.254C56.2265 101.254 55.839 94.8095 60.1188 94.3889Z" fill="black"/>
<path d="M72.0679 86.1427C78.9082 84.5924 76.7435 95.2507 71.3917 91.9976C68.8848 90.4761 69.5651 86.7075 72.0679 86.1427Z" fill="black"/>
<path d="M48.566 91.7043C45.321 94.3184 40.7897 89.6675 44.1171 86.6411C47.6795 83.4003 51.613 89.2469 48.566 91.7043Z" fill="black"/>
<path d="M88.1487 93.9761C94.2056 92.6155 93.451 101.266 88.664 100.326C85.1223 99.629 85.2459 94.6276 88.1487 93.9761Z" fill="black"/>
<path d="M32.0734 93.9765C38.6663 92.4839 37.0088 102.606 31.6734 99.9757C29.2325 98.7759 29.5789 94.5414 32.0734 93.9765Z" fill="black"/>
</svg>
