<svg width="181" height="193" viewBox="0 0 181 193" fill="none" xmlns="http://www.w3.org/2000/svg">
<path d="M112.894 51.0706C103.796 39.8398 97.8633 22.9204 106.8 9.86851C115.132 -2.30475 132.423 -2.65771 141.285 9.00114C143.263 7.38655 144.487 5.56919 146.793 4.05223C158.632 -3.73911 174.106 1.73923 179.164 14.656C186.977 34.6281 168.199 56.166 154.002 67.96C152.125 69.5182 146.004 73.3895 145.009 74.7375C144.014 76.0855 143.211 80.1032 142.467 81.9581C132.964 105.565 113.386 121.185 88.2433 125.361C87.0906 125.552 83.1743 125.62 82.9152 126.416L83.0278 165.624C84.1956 166.123 85.4347 166.371 86.5762 166.957C93.9094 170.738 94.1835 180.264 101.385 183.689C105.857 185.818 112.038 184.203 116.848 184.747C121.339 185.258 122.349 190.353 118.173 192.077L39.7831 191.972C36.0432 189.565 37.2561 185.149 41.7394 184.732C46.2227 184.316 51.7573 185.551 55.8239 184.173C64.8393 181.113 64.843 167.066 75.3454 165.958L75.3642 125.796C45.2126 124.249 19.2928 101.318 12.9133 72.034C11.7606 66.7434 10.8969 59.2374 11.524 53.883C11.6892 52.4674 12.9621 51.0744 14.3477 51.0744H28.0529L0.559805 6.2676C-1.73817 2.02085 3.56369 -1.84666 6.95433 1.74674L37.609 51.0706H112.894ZM146.692 64.2126C157.115 56.1547 169.607 43.6698 172.788 30.4226C177.121 12.358 158.632 -0.468626 147.657 13.1765C146.211 14.9751 144.747 19.3458 142.666 19.8226C137.886 20.9153 137.507 15.8462 135.055 12.9475C129.134 5.94092 118.958 6.14744 113.333 13.3943C104.423 24.8729 113.701 42.5095 122.919 50.988C129.359 51.6564 136.809 50.3572 143.121 51.0631C149.489 51.7765 146.571 59.7143 146.692 64.2051V64.2126ZM32.7277 58.5803H18.647C18.5982 68.7485 21.7823 78.7402 26.7312 87.504C32.7878 84.166 39.2011 81.1658 46.0575 79.9793L32.7277 58.5803ZM139.366 58.5803H42.3026L54.9415 79.172C64.3549 78.6726 73.1263 82.2322 82.1004 84.3049C95.7868 87.4702 108.752 88.7506 122.799 87.0685C126.246 86.6554 129.705 85.927 133.076 85.1422C135.427 80.2121 137.522 74.8501 138.619 69.4694C139.302 66.1238 139.497 62.8496 139.91 59.4777C139.97 59.1511 139.606 58.6479 139.366 58.5766V58.5803ZM127.538 93.8798C117.595 95.0964 107.318 95.592 97.3151 94.6232C74.5456 92.4191 57.1493 79.6564 34.0269 91.7921C30.1969 93.8009 30.4335 93.7371 33.0994 96.8837C46.8159 113.06 68.2224 121.298 89.3172 117.798C104.588 115.264 118.417 106.199 127.538 93.8798ZM91.1158 184.744L85.307 174.97C81.3156 171.316 75.9725 171.474 72.518 175.725L67.0847 184.747H91.1158V184.744Z" fill="black"/>
<path d="M146.692 64.2127C146.571 59.7218 149.493 51.7803 143.121 51.0706C136.809 50.3647 129.359 51.6639 122.92 50.9955C113.701 42.5171 104.423 24.8767 113.333 13.4019C118.962 6.15122 129.134 5.9447 135.055 12.955C137.503 15.8538 137.886 20.9228 142.666 19.8302C144.747 19.3533 146.211 14.9827 147.657 13.1841C158.628 -0.464845 177.121 12.3618 172.788 30.4302C169.611 43.6773 157.115 56.1622 146.692 64.2202V64.2127Z" fill="#4E8CFF"/>
<path d="M139.366 58.5803C139.61 58.6517 139.97 59.1548 139.91 59.4815C139.497 62.8534 139.298 66.1276 138.619 69.4732C137.522 74.8501 135.427 80.2158 133.076 85.146C129.701 85.9307 126.246 86.6592 122.799 87.0722C108.752 88.7544 95.7906 87.474 82.1004 84.3086C73.1263 82.2322 64.3549 78.6763 54.9415 79.1757L42.3026 58.5841H139.366V58.5803Z" fill="#ffffff" fill-opacity="0.2"/>
<path d="M127.538 93.8798C118.417 106.199 104.588 115.264 89.3172 117.798C68.2224 121.298 46.8159 113.063 33.0994 96.8837C30.4334 93.7371 30.1969 93.8009 34.0269 91.7921C57.1493 79.6564 74.5456 92.4192 97.315 94.6233C107.318 95.592 117.599 95.0964 127.538 93.8798Z" fill="#FFF397" fill-opacity="0.67"/>
<path d="M32.7278 58.5803L46.0575 79.9793C39.2012 81.1658 32.7916 84.166 26.7313 87.504C21.7823 78.7402 18.5982 68.7485 18.647 58.5803H32.7278Z" fill="#ffffff" fill-opacity="0.2"/>
</svg>
