<svg width="125" height="212" viewBox="0 0 125 212" fill="none" xmlns="http://www.w3.org/2000/svg">
<path d="M88.8591 0.0128062C84.6889 0.262516 80.6986 4.4876 80.4738 8.64777C80.1742 14.1214 85.6278 19.4003 89.4784 22.6215C91.556 24.3645 94.7572 27.4909 97.5989 26.7467C99.9812 26.1225 108.356 18.3565 109.87 16.0292C117.281 4.64242 106.399 -4.89649 96.3004 3.34893C94.2928 1.47111 91.7457 -0.156996 88.8591 0.0128062ZM12.5778 105.765C11.7637 93.7788 19.6296 81.4232 31.0713 77.9922C34.747 80.1896 45.4446 90.148 49.2352 89.7785C51.917 89.5188 67.1893 77.1381 70.016 74.5561C75.0002 70.0164 80.7985 63.8586 83.5802 57.6558C95.1068 31.9507 63.9081 14.5659 48.7857 37.3344C33.4036 14.8356 2.98392 31.4213 13.4867 57.1614C16.1436 63.6738 21.6872 69.1075 26.5515 74.0517C15.1098 80.7539 6.91935 91.876 8.03305 105.715C-3.49355 107.278 -2.16509 123.559 9.13677 124.049L42.9575 206.483C44.7753 212.411 51.3177 212.95 53.9697 207.337L88.0301 124.533C88.7392 123.329 90.2974 123.934 91.501 123.509C99.8613 120.573 99.0023 106.514 89.5383 105.715C89.5832 103.028 89.3236 100.381 88.7542 97.7592C88.2148 95.2871 84.1496 83.0912 80.4539 88.0055C79.2702 89.5837 82.901 94.0984 83.6352 96.3808C84.5741 99.2974 85.0385 102.708 84.9936 105.76H12.5778V105.765ZM103.852 34.4428C102.303 34.6176 99.7814 36.1858 98.8425 37.4643C94.8621 42.883 98.0584 48.4715 101.484 53.0711C103.043 55.1637 106.384 59.6834 109.17 59.3089C112.147 58.9093 120.193 53.7254 122.205 51.3381C129.362 42.848 121.591 32.4601 112.207 38.7628C110.089 36.4255 107.318 34.0532 103.852 34.4428ZM90.3673 65.9212C86.6267 66.4606 84.3194 70.4609 84.4792 74.0318C84.604 76.7886 89.4234 87.586 92.2002 87.7508C94.3677 87.8807 102.718 83.6756 104.481 82.0574C108.067 78.7663 109.091 72.2638 104.321 69.7168C100.78 67.824 99.2071 70.1812 97.8087 69.7667C96.4103 69.3522 95.7561 65.1521 90.3673 65.9262V65.9212Z" fill="white"/>
<path d="M12.5778 105.765H84.9936C85.0335 102.713 84.5741 99.3024 83.6352 96.3858C82.901 94.1035 79.2702 89.5837 80.4539 88.0106C84.1446 83.0913 88.2148 95.2921 88.7542 97.7642C89.3236 100.386 89.5833 103.033 89.5383 105.72C99.0023 106.519 99.8613 120.578 91.501 123.514C90.2974 123.939 88.7392 123.334 88.0301 124.538L53.9697 207.342C51.3177 212.955 44.7703 212.416 42.9575 206.488L9.13677 124.049C-2.16509 123.559 -3.49355 107.278 8.03305 105.715C6.91935 91.8761 15.1098 80.754 26.5515 74.0518C21.6872 69.1125 16.1436 63.6739 13.4867 57.1614C2.98392 31.4213 33.4036 14.8356 48.7857 37.3345C63.9081 14.5659 95.1068 31.9457 83.5802 57.6558C80.7985 63.8586 75.0002 70.0165 70.016 74.5562C67.1843 77.1382 51.917 89.5188 49.2352 89.7785C45.4446 90.1481 34.747 80.1897 31.0713 77.9922C19.6296 81.4182 11.7637 93.7789 12.5778 105.765ZM76.8231 35.5266C69.0971 28.1801 57.3507 31.736 52.6012 40.6656C51.6274 42.4985 50.8782 47.0981 48.3112 46.8634C46.6082 46.7086 44.5206 39.7866 42.9575 37.6841C34.9118 26.8666 17.502 31.1267 16.1386 45.1504C14.7752 59.1741 34.2476 75.8697 45.3896 82.7017C46.5383 83.4059 47.8518 84.4847 49.1652 84.225C50.6036 83.9403 57.3557 78.7713 58.9738 77.5028C66.2654 71.8094 77.5323 61.846 80.359 52.9413C82.1918 47.168 81.4028 39.8815 76.8231 35.5266ZM91.3262 118.091C93.4937 116.108 92.9543 110.614 89.2436 110.749L7.80332 110.734C3.19867 111.323 4.24246 119.729 9.32655 119.249L87.7604 119.274C88.8641 119.264 90.5222 118.82 91.3212 118.091H91.3262ZM33.054 123.744H14.076L19.3249 136.734L33.054 123.744ZM65.5162 123.744H43.0424L55.2781 133.752C56.3968 133.752 64.1428 125.222 65.5162 123.744ZM82.9959 123.744H72.7578L59.0238 137.218L73.5019 148.216L82.9959 123.744ZM51.4626 138.162L51.2928 136.714L37.7935 125.827L23.58 138.971L37.7985 150.228L51.4626 138.162ZM55.3481 140.28L42.0835 153.39L56.7864 165.076L70.016 151.477L55.353 140.28H55.3481ZM22.5712 144.22L28.8089 159.193L34.5422 153.959L22.5712 144.22ZM38.0532 182.676L53.0158 168.442L38.2879 156.826C37.1043 158.439 30.5968 162.799 30.5619 164.432L38.0532 182.676ZM68.0083 160.701L60.532 167.943L63.7683 170.679C64.3426 170.679 67.7886 162.109 68.0083 160.701ZM56.7664 171.309L40.6152 187.53C40.3605 188.124 40.6501 188.614 40.77 189.163C41.2944 191.545 46.0988 202.632 47.4372 204.995C47.8018 205.639 48.2064 206.173 48.7857 206.633L61.9354 175.833L56.7664 171.304V171.309Z" fill="black"/>
<path d="M88.8591 0.0127355C91.7508 -0.162061 94.2928 1.47104 96.3005 3.34886C106.394 -4.89656 117.281 4.64235 109.87 16.0291C108.356 18.3514 99.9812 26.1224 97.599 26.7467C94.7523 27.4908 91.556 24.3644 89.4784 22.6215C85.6279 19.4002 80.1742 14.1213 80.4739 8.6477C80.6986 4.48753 84.689 0.262445 88.8591 0.0127355ZM88.8741 4.47255C85.4681 4.91703 84.5591 8.63271 85.6029 11.5194C86.5568 14.1513 93.4038 20.9784 95.9758 21.6726C97.554 22.0971 103.967 16.3737 105.18 14.8305C107.328 12.0937 109.705 8.10333 106.229 5.3765C101.569 1.72574 98.6827 9.72644 96.71 9.90124C94.128 10.131 92.8944 3.94816 88.8791 4.47255H88.8741Z" fill="black"/>
<path d="M103.852 34.4429C107.318 34.0484 110.084 36.4206 112.207 38.7629C121.591 32.4602 129.362 42.8432 122.205 51.3383C120.193 53.7255 112.147 58.9145 109.17 59.309C106.384 59.6836 103.043 55.1638 101.484 53.0713C98.0633 48.4716 94.8621 42.8881 98.8424 37.4644C99.7813 36.1859 102.308 34.6177 103.852 34.4429ZM107.313 39.9965C104.071 37.0849 101.08 40.386 101.504 44.0368C101.789 46.5089 107.178 54.4946 109.58 54.2499C113.545 53.8504 121.341 47.8374 120.437 43.1079C119.414 37.7491 112.492 45.0256 110.299 44.2765C108.941 43.4475 108.311 40.9004 107.313 40.0015V39.9965Z" fill="black"/>
<path d="M90.3673 65.9213C95.7561 65.1422 96.4602 69.3573 97.8087 69.7618C99.1571 70.1663 100.78 67.8191 104.321 69.7119C109.096 72.2639 108.067 78.7613 104.481 82.0525C102.718 83.6706 94.3677 87.8807 92.2002 87.7459C89.4184 87.5761 84.604 76.7836 84.4792 74.0268C84.3194 70.461 86.6267 66.4557 90.3673 65.9163V65.9213ZM95.1068 75.1655C93.8583 73.9469 93.7084 69.1026 90.4972 70.5509C86.6067 72.3088 91.0565 80.749 93.3089 82.7367C97.0745 81.7728 103.902 79.4555 102.973 74.5562C102.194 70.441 97.564 77.5677 95.1018 75.1655H95.1068Z" fill="black"/>
<path d="M76.8231 35.5265C81.4027 39.8815 82.1918 47.168 80.359 52.9413C77.5272 61.8459 66.2653 71.8094 58.9738 77.5027C57.3507 78.7713 50.6035 83.9402 49.1652 84.2249C47.8517 84.4846 46.5383 83.4059 45.3896 82.7017C34.2476 75.8696 14.7402 59.5037 16.1386 45.1503C17.537 30.797 34.9168 26.8666 42.9574 37.684C44.5206 39.7866 46.6082 46.7085 48.3112 46.8634C50.8782 47.0981 51.6274 42.4984 52.6012 40.6656C57.3507 31.7359 69.097 28.1801 76.8231 35.5265Z" fill="#4E8CFF"/>
<path d="M91.3263 118.09C90.5272 118.824 88.8691 119.264 87.7654 119.274L9.33161 119.249C4.24752 119.728 3.20373 111.323 7.80838 110.734L89.2487 110.749C92.9544 110.614 93.4938 116.108 91.3313 118.09H91.3263Z" fill="#FFD8A2"/>
<path d="M55.3481 140.28L70.0111 151.477L56.7815 165.076L42.0836 153.389L55.3481 140.28Z" fill="#FFD8A2"/>
<path d="M51.4625 138.162L37.7984 150.233L23.5799 138.976L37.7934 125.832L51.2927 136.719L51.4625 138.162Z" fill="#FFD8A2"/>
<path d="M56.7665 171.309L61.9355 175.838L48.7858 206.638C48.2065 206.178 47.8019 205.644 47.4373 204.999C46.1039 202.632 41.2995 191.545 40.7701 189.168C40.6502 188.618 40.3606 188.124 40.6153 187.535L56.7665 171.314V171.309Z" fill="#FFD8A2"/>
<path d="M38.0531 182.675L30.5618 164.432C30.5967 162.799 37.0992 158.439 38.2878 156.825L53.0157 168.442L38.0531 182.675Z" fill="#FFD8A2"/>
<path d="M82.9959 123.744L73.4969 148.215L59.0237 137.218L72.7578 123.744H82.9959Z" fill="#FFD8A2"/>
<path d="M33.0539 123.744L19.3249 136.734L14.076 123.744H33.0539Z" fill="#FFD8A2"/>
<path d="M65.5163 123.744C64.1429 125.217 56.3969 133.752 55.2782 133.752L43.0424 123.744H65.5163Z" fill="#FFD8A2"/>
<path d="M22.5711 144.22L34.5372 153.959L28.8089 159.193L22.5711 144.22Z" fill="#FFD8A2"/>
<path d="M68.0085 160.701C67.7887 162.11 64.3427 170.68 63.7684 170.68L60.5322 167.943L68.0085 160.701Z" fill="#FFD8A2"/>
<path d="M88.8741 4.47251C92.8895 3.94811 94.128 10.1359 96.705 9.90119C98.6777 9.7214 101.569 1.7257 106.224 5.37645C109.7 8.09829 107.323 12.0936 105.175 14.8305C103.962 16.3737 97.549 22.097 95.9709 21.6725C93.3989 20.9783 86.5518 14.1513 85.5979 11.5193C84.5541 8.63267 85.4631 4.91699 88.8691 4.47251H88.8741Z" fill="#4E8CFF"/>
<path d="M107.313 39.9963C108.312 40.8953 108.941 43.4423 110.299 44.2714C112.492 45.0205 119.414 37.744 120.437 43.1027C121.341 47.8372 113.545 53.8452 109.58 54.2448C107.178 54.4895 101.794 46.5038 101.504 44.0316C101.08 40.3809 104.071 37.0797 107.313 39.9913V39.9963Z" fill="#4E8CFF"/>
<path d="M95.1068 75.1655C97.569 77.5677 102.199 70.446 102.978 74.5562C103.902 79.4555 97.0796 81.7728 93.3139 82.7367C91.0616 80.749 86.6067 72.3088 90.5022 70.5509C93.7135 69.1025 93.8633 73.9469 95.1118 75.1655H95.1068Z" fill="#4E8CFF"/>
</svg>
