<svg width="343" height="251" viewBox="0 0 343 251" fill="none" xmlns="http://www.w3.org/2000/svg">
<path d="M234.966 0.968384C232.22 1.79467 232.687 5.7337 232.057 7.65794C229.643 15.0097 225.413 20.9522 218.374 24.4554C214.205 26.5325 208.179 25.8477 207.037 30.5564C207.037 34.552 214.762 35.1576 217.89 36.5781C223.32 39.0457 228.023 43.9638 230.465 49.3969C231.736 52.2324 232.541 59.3803 234.707 60.4217C240.159 63.0364 240.39 53.9132 241.611 50.6533C243.991 44.2864 249.949 38.3439 256.222 35.9216C259.75 34.5577 267.778 34.4331 265.1 28.7114C264.194 26.7758 257.212 25.7062 254.624 24.5346C248.919 21.9482 244.114 16.6679 241.785 10.8499C240.153 6.78071 240.654 -0.746452 234.972 0.962724L234.966 0.968384ZM25.1057 174.144C21.5161 175.197 21.2854 181.405 25.6683 182.396C28.2114 182.967 40.6567 182.865 43.5036 182.464C49.158 181.666 48.9273 175.129 44.5613 174.15C42.7666 173.748 26.6248 173.703 25.1057 174.15V174.144ZM3.16879 193.958C-0.876507 194.977 -1.20283 201.05 3.0844 201.723L46.4124 201.236C49.0061 198.661 47.7233 194.445 44.0887 193.873L3.16879 193.958ZM26.259 213.195C21.1954 214.004 21.2235 220.547 25.1113 221.446C27.4968 221.995 41.4331 221.95 44.0887 221.537C48.8598 220.79 49.2593 214.038 43.8693 213.331C40.9099 212.94 34.7266 213.727 31.1595 213.676C29.421 213.653 28.2564 212.889 26.2647 213.206L26.259 213.195Z" fill="white"/>
<path d="M168.182 116.298H190.968C194.389 116.298 196.915 121.748 195.503 124.821L172.683 187.042H205.034C208.134 187.042 214.053 182.452 216.022 179.985L260.751 129.943C260.267 124.725 255.158 116.909 258.275 112.127C259.035 110.961 260.391 110.644 260.751 110.067C261.775 108.443 256.301 92.3584 255.873 89.206L230.037 88.8778C224.951 86.4951 225.941 80.0829 230.937 78.4076C240.53 79.0302 251.31 77.4795 260.757 78.351C263.547 78.6057 265.072 79.8055 266.36 82.3353L273.095 108.952C279.155 110.95 286.126 106.468 288.989 114.47C289.822 116.791 294.211 133.639 294.087 135.122C293.642 140.43 281.985 145.077 277.934 148.059L279.053 151.931C302.453 145.399 328.306 156.849 338.366 179.125C357.062 220.513 315.883 263.887 273.962 246.739C234.988 230.796 232.586 177.206 268.234 156.141L264.948 142.898C263.823 142.756 263.086 143.854 262.411 144.584C249.15 159.016 236.159 176.091 222.205 189.6C208.252 203.11 188.611 196.754 170.455 198.384C163.36 245.064 106.619 263.118 75.3594 225.787C49.7767 195.243 66.5937 147.878 104.61 139.208L100.019 124.861L64.4332 124.72C57.5748 123.588 53.9739 119.603 53.3776 112.636V44.1109C53.8333 37.942 56.1963 33.1484 62.6834 31.9656L161.171 32.5032C163.383 33.2842 168.176 37.8232 168.176 40.1719V116.292L168.182 116.298ZM114.158 138.37C116.763 132.818 118.468 124.437 121.371 119.303C121.844 118.466 122.373 117.707 123.177 117.158L158.465 116.434L160.001 115.149L160.569 41.6037L159.163 40.1889L62.2165 40.4152C61.3444 40.9699 61.3331 42.5998 61.2544 43.5506C59.4314 65.6624 62.6891 90.2643 61.2544 112.648C61.215 114.148 61.6594 115.783 63.1054 116.445L104.205 116.983C105.409 117.526 106.017 118.573 106.574 119.694C107.992 122.524 111.193 137.238 112.448 138.121L114.158 138.37ZM279.02 120.826H270.58L274.805 137.244L281.878 132.931L279.02 120.826ZM182.81 127.051H127.391L122.609 138.365C137.918 139.881 151.697 147.89 160.772 160.256L166.77 170.069L182.81 127.051ZM111.227 149.848C86.055 152.695 69.1762 178.932 76.3103 203.33C86.9046 239.563 136.596 245.301 154.206 211.757C170.731 180.273 145.716 145.948 111.227 149.848ZM272.825 167.234C247.237 182.679 248.553 221.016 275.261 234.684C306.037 250.435 340.155 220.971 329.673 187.874C323.597 168.683 302.194 157.664 282.958 162.712L283.397 165.383L298.593 197.654C299.854 204.055 291.696 207.326 288.477 201.587L272.825 167.24V167.234Z" fill="black"/>
<path d="M234.966 0.968368C240.648 -0.740808 240.148 6.7807 241.779 10.8556C244.114 16.6735 248.919 21.9482 254.618 24.5403C257.201 25.7118 264.189 26.7815 265.094 28.717C267.773 34.4388 259.738 34.5633 256.216 35.9272C249.949 38.3552 243.985 44.2977 241.605 50.659C240.384 53.9189 240.153 63.042 234.701 60.4273C232.535 59.386 231.731 52.238 230.459 49.4026C228.023 43.9694 223.314 39.0456 217.884 36.5838C214.751 35.1632 207.031 34.5576 207.031 30.562C208.173 25.8476 214.199 26.5381 218.368 24.4611C225.407 20.9578 229.638 15.0153 232.051 7.66359C232.681 5.73935 232.214 1.80032 234.96 0.974028L234.966 0.968368ZM236.811 16.6962C235.264 16.2887 235.737 17.6243 235.056 18.5808C231.635 23.3801 227.691 27.8455 222.194 30.2847C227.404 34.1671 232.929 38.276 235.703 44.4222C236.789 45.1749 239.41 40.0021 240.204 39.0626C242.888 35.8989 246.466 32.458 250.314 30.8393L241.864 24.3535L236.806 16.6962H236.811Z" fill="black"/>
<path d="M3.16879 193.958L44.0887 193.873C47.7233 194.445 49.0061 198.661 46.4124 201.236L3.0844 201.723C-1.20283 201.05 -0.876507 194.977 3.16879 193.958Z" fill="black"/>
<path d="M25.1055 174.144C26.6246 173.697 42.7664 173.742 44.5612 174.144C48.9272 175.123 49.1635 181.66 43.5035 182.458C40.6622 182.86 28.2112 182.967 25.6682 182.39C21.2853 181.4 21.516 175.191 25.1055 174.139V174.144Z" fill="black"/>
<path d="M26.2594 213.195C28.2511 212.878 29.4157 213.642 31.1542 213.665C34.7213 213.715 40.9046 212.929 43.864 213.319C49.254 214.032 48.8545 220.779 44.0834 221.526C41.4334 221.944 27.4915 221.99 25.106 221.435C21.2238 220.541 21.1901 213.993 26.2537 213.183L26.2594 213.195Z" fill="black"/>
<path d="M114.158 138.37L112.448 138.121C111.193 137.238 107.992 122.523 106.574 119.694C106.011 118.573 105.404 117.526 104.205 116.983L63.1052 116.445C61.6593 115.783 61.2148 114.142 61.2542 112.648V43.5505C61.333 42.5997 61.3442 40.9754 62.2163 40.4151L159.163 40.1887L160.569 41.6036L160.001 115.149L158.465 116.434L123.177 117.158C122.372 117.707 121.844 118.466 121.371 119.303C118.468 124.436 116.763 132.818 114.158 138.37ZM94.3592 49.1025C83.5174 50.0985 76.0176 60.6479 77.0472 71.2991C78.3525 84.8367 100.115 99.144 108.267 109.507C110.619 111.403 112.515 110.904 114.749 109.235C119.458 105.715 139.505 85.2159 142.436 80.4845C147.595 72.1424 147.466 63.2456 140.911 55.7298C132.387 45.9614 119.205 47.382 111.649 57.422C107.333 52.385 101.251 48.4629 94.3705 49.0968L94.3592 49.1025Z" fill="white"/>
<path d="M279.019 120.825L281.878 132.937L274.805 137.249L270.58 120.825H279.019Z" fill="white"/>
<path d="M236.811 16.6959L241.869 24.3532L250.32 30.839C246.472 32.4633 242.893 35.8986 240.21 39.0623C239.411 40.0018 236.794 45.1746 235.709 44.4219C232.929 38.2756 227.404 34.1668 222.2 30.2844C227.702 27.8451 231.641 23.3741 235.062 18.5805C235.742 17.6297 235.27 16.2884 236.817 16.6959H236.811Z" fill="#4E8CFF"/>
<path d="M94.3599 49.1025C101.241 48.4687 107.323 52.3964 111.638 57.4277C119.194 47.3821 132.382 45.9672 140.901 55.7355C147.455 63.2514 147.585 72.1481 142.425 80.4903C139.5 85.2216 119.453 105.715 114.738 109.241C112.505 110.91 110.609 111.408 108.257 109.512C100.104 99.1497 78.3419 84.8424 77.0366 71.3049C76.0126 60.6536 83.5068 50.1043 94.3487 49.1082L94.3599 49.1025ZM94.9225 56.9976C85.0315 57.9993 82.646 69.3127 87.5971 77.1002C90.5509 81.7467 105.686 97.2594 110.215 100.757C110.637 101.08 110.879 101.68 111.559 101.544C118.238 93.8354 128.27 86.5573 134.329 78.566C135.128 77.5134 136.467 75.5835 136.956 74.4176C141.559 63.4155 130.509 52.1021 120.404 59.4651C116.933 61.9949 115.307 67.745 110.547 67.0319C107.565 66.5848 104.476 60.5687 101.415 58.6615C99.6036 57.5296 97.0436 56.7769 94.9169 56.9919L94.9225 56.9976Z" fill="black"/>
<path d="M94.922 56.9974C97.0487 56.7823 99.6031 57.535 101.42 58.6669C104.481 60.5742 107.57 66.5903 110.552 67.0374C115.312 67.7505 116.938 62.0004 120.409 59.4706C130.508 52.1076 141.564 63.4209 136.962 74.4231C136.472 75.5889 135.133 77.5188 134.334 78.5715C128.275 86.5627 118.243 93.8409 111.565 101.549C110.884 101.679 110.642 101.085 110.22 100.762C105.691 97.2649 90.556 81.7521 87.6022 77.1057C82.6567 69.3238 85.0366 58.0048 94.9276 57.003L94.922 56.9974Z" fill="#4E8CFF"/>
<path d="M137.087 147.248C138.322 145.416 140.808 144.932 142.64 146.166C144.472 147.401 144.955 149.887 143.721 151.719L118.712 188.829H165.847C168.055 188.829 169.846 190.62 169.847 192.829C169.847 195.038 168.056 196.829 165.847 196.829H111.192C109.714 196.829 108.356 196.014 107.661 194.708C106.967 193.403 107.049 191.82 107.875 190.594L137.087 147.248Z" fill="black"/>
</svg>
