<svg width="129" height="219" viewBox="0 0 129 219" fill="none" xmlns="http://www.w3.org/2000/svg">
<path d="M72.3194 198.446V149.774C84.2992 136.319 99.8264 124.226 111.442 110.664C123.057 97.1012 123.332 75.9664 108.098 64.4225C105.792 62.6787 101.26 61.5918 100.949 59.0299C100.692 56.8799 100.734 42.0216 101.295 40.7914C104.652 36.0795 128.426 15.7031 128.958 12.2812C129.155 11.0211 128.51 10.3462 127.853 9.42655C127.029 8.26799 120.603 1.74658 119.534 1.02995C117.85 -0.0927873 116.799 -0.319723 114.983 0.737318C106.581 11.5765 84.144 25.9809 82.5315 39.9494C82.1851 42.9592 82.9555 58.349 82.3882 59.215C73.0002 61.0902 66.4967 68.3282 60.0709 74.8078C48.9869 60.6244 30.7723 53.3744 14.3076 63.694C-5.53733 76.1336 -3.10077 98.5166 11.6082 114.026C23.2237 126.274 36.3681 137.317 47.8283 149.768V198.44C36.4159 197.001 30.7902 203.002 32.2713 214.295C32.6714 217.341 35.2334 217.914 37.9507 218.171C49.2616 219.228 70.1038 218.995 81.5939 218.171C83.1645 218.058 86.8075 217.843 87.548 216.362C88.0735 215.311 88.0198 208.64 87.8705 207.063C87.1001 199.109 78.9483 197.771 72.3135 198.434L72.3194 198.446Z" fill="white"/>
<path d="M72.3194 198.446C78.9543 197.783 87.1061 199.12 87.8765 207.075C88.0258 208.646 88.0855 215.316 87.554 216.373C86.8134 217.855 83.1646 218.07 81.5999 218.183C70.1098 219.007 49.2676 219.24 37.9566 218.183C35.2394 217.926 32.6714 217.353 32.2773 214.307C30.8022 203.014 36.4218 197.012 47.8343 198.452V149.78C36.3741 137.328 23.2297 126.286 11.6142 114.038C-3.09478 98.5283 -5.53135 76.1453 14.3135 63.7057C30.7783 53.3861 48.9929 60.6361 60.0769 74.8195C66.5027 68.34 73.0062 61.0959 82.3942 59.2267C82.9615 58.3548 82.1852 42.971 82.5375 39.9611C84.1499 25.9926 106.581 11.5882 114.989 0.749037C116.805 -0.308004 117.856 -0.0810686 119.54 1.04166C120.609 1.7583 127.035 8.27971 127.859 9.43827C128.516 10.358 129.161 11.0328 128.964 12.2929C128.426 15.7208 104.652 36.0912 101.301 40.8031C100.746 42.0334 100.698 56.8917 100.955 59.0416C101.266 61.6036 105.798 62.6905 108.104 64.4343C123.338 75.9781 123.44 96.677 111.448 110.675C99.4561 124.674 84.3052 136.331 72.3254 149.786V198.458L72.3194 198.446ZM93.8186 58.7012V39.8894C93.8186 36.1629 116.661 16.2105 120.083 11.8211L117.701 9.39647H116.518C109.997 16.8376 101.343 23.4605 95.001 30.9135C87.2972 39.973 90.0204 46.5243 89.6143 57.7038L93.8186 58.6952V58.7012ZM87.7212 65.4495C74.535 66.5782 71.1907 76.3782 62.4657 82.5831C60.3456 84.094 59.844 84.1239 57.6881 82.5831C51.519 78.1818 48.3419 70.7049 40.232 67.7905C17.4429 59.6149 -2.04371 83.5267 11.7516 103.437L60.0709 151.852L106.658 105.289C120.854 89.6599 109.256 63.5982 87.7152 65.4495H87.7212ZM65.153 198.446V157.239C63.3853 158.242 62.382 160.559 60.0769 160.559C57.6283 160.559 57.0909 158.063 55.0007 157.836V197.55L55.8965 198.446H65.153ZM80.6802 210.39C80.8713 207.696 80.9669 206.114 77.951 205.654C71.1549 204.615 50.5814 204.937 43.3254 205.588C39.7482 205.911 39.1033 206.633 39.4735 210.396H80.6802V210.39Z" fill="black"/>
<path d="M87.7212 65.4499C109.262 63.6046 120.86 89.6603 106.664 105.289L60.0769 151.853L11.7516 103.438C-2.04965 83.5271 17.4429 59.6153 40.232 67.7909C48.3419 70.6993 51.519 78.1822 57.6881 82.5835C59.85 84.1243 60.3456 84.0944 62.4657 82.5835C71.1908 76.3786 74.5351 66.5786 87.7212 65.4499ZM79.6232 78.2658C82.1195 80.7621 85.9475 77.2087 88.2826 76.7608C97.4197 74.9991 102.138 82.1595 100.931 90.5979C100.537 93.3689 97.5153 96.4624 100.406 98.9886C104.544 102.602 107.112 96.0444 107.877 92.7717C111.454 77.5073 98.7156 65.0498 83.6662 70.9561C82.7047 71.3323 79.9397 72.5984 79.4321 73.2911C78.5781 74.4616 78.6438 77.2983 79.6172 78.2718L79.6232 78.2658Z" fill="#4E8CFF"/>
<path d="M65.1531 198.446H55.8965L55.0007 197.55V157.836C57.0909 158.063 57.6284 160.554 60.0769 160.56C62.3821 160.56 63.3854 158.243 65.1531 157.239V198.446Z" fill="white"/>
<path d="M93.8187 58.7013L89.6144 57.71C90.0145 46.5304 87.2913 39.9791 95.0012 30.9196C101.343 23.4606 109.997 16.8437 116.518 9.40259H117.701L120.083 11.8272C116.662 16.2166 93.8187 36.169 93.8187 39.8955V58.7073V58.7013Z" fill="white"/>
<path d="M80.6802 210.39H39.4735C39.1032 206.628 39.7482 205.905 43.3254 205.583C50.5814 204.932 71.1549 204.609 77.951 205.648C80.9669 206.108 80.8713 207.691 80.6802 210.384V210.39Z" fill="white"/>
<path d="M79.6232 78.2655C78.6498 77.2921 78.5841 74.4494 79.4381 73.2849C79.9398 72.5981 82.7108 71.332 83.6722 70.9498C98.7157 65.0495 111.46 77.5011 107.883 92.7655C107.112 96.0381 104.544 102.595 100.412 98.9823C97.5213 96.4562 100.537 93.3686 100.937 90.5917C102.144 82.1473 97.4317 74.9928 88.2886 76.7546C85.9535 77.2025 82.1255 80.7558 79.6292 78.2595L79.6232 78.2655Z" fill="black"/>
</svg>
