<svg width="97" height="238" viewBox="0 0 97 238" fill="none" xmlns="http://www.w3.org/2000/svg">
<g filter="url(#filter0_d_1152_909)">
<path d="M68.2936 202.989C68.2936 214.034 59.3393 222.989 48.2936 222.989L47.1413 222.989C36.0956 222.989 27.1413 214.034 27.1413 202.989L27.1413 39.1869C27.1413 28.1413 36.0956 19.1869 47.1413 19.1869L48.2935 19.1869C59.3392 19.1869 68.2936 28.1412 68.2936 39.1869L68.2936 202.989Z" fill="white"/>
<path d="M48.2936 222.789L47.1412 222.789C36.206 222.789 27.3414 213.924 27.3414 202.989L27.3414 39.187C27.3414 28.2518 36.206 19.3872 47.1412 19.3872L48.2936 19.3872C59.2288 19.3872 68.0934 28.2518 68.0934 39.187L68.0934 202.989C68.0934 213.924 59.2288 222.789 48.2936 222.789Z" stroke="#E0E0E0" stroke-width="0.4"/>
</g>
<path d="M54.0863 90.2241C55.0661 91.2039 55.6319 92.6737 55.6319 94.6333" stroke="white" stroke-opacity="0.44" stroke-width="2" stroke-linecap="round"/>
<path d="M46.2652 157.396L48.2992 162.379L52.8138 164.323C53.11 164.505 53.152 165.118 53.008 165.393C52.7556 165.876 49.0128 167.031 48.3138 167.514C47.4918 168.755 47.1876 171.249 46.3607 172.345C45.6585 173.274 45.1811 172.157 44.9173 171.596C44.3283 170.341 44.0047 168.841 43.3834 167.582L38.8558 165.611C38.3364 165.231 38.516 164.59 39.0176 164.267C39.982 163.645 42.5791 163.102 43.3041 162.374C44.0096 161.649 44.8154 157.643 45.5953 157.402C45.7636 157.351 46.1245 157.316 46.2652 157.396Z" fill="white" stroke="black" stroke-width="1.2"/>
<path d="M57.1106 152.936L58.0934 155.343L60.2747 156.283C60.4178 156.37 60.4381 156.667 60.3686 156.8C60.2466 157.033 58.4382 157.591 58.1004 157.824C57.7032 158.424 57.5562 159.629 57.1567 160.158C56.8174 160.607 56.5867 160.068 56.4593 159.796C56.1747 159.19 56.0183 158.466 55.7181 157.857L53.5305 156.905C53.2795 156.721 53.3663 156.411 53.6087 156.256C54.0747 155.955 55.3295 155.692 55.6798 155.341C56.0207 154.99 56.4101 153.055 56.7869 152.938C56.8682 152.914 57.0426 152.897 57.1106 152.936Z" fill="white" stroke="black" stroke-width="1.2"/>
<ellipse cx="47.7175" cy="202.413" rx="15.6771" ry="15.6771" fill="#F4F4F4"/>
<path fill-rule="evenodd" clip-rule="evenodd" d="M42.8184 202.413C42.8184 202.153 42.9216 201.904 43.1053 201.72C43.2891 201.536 43.5383 201.433 43.7982 201.433C44.058 201.433 44.3073 201.536 44.491 201.72C44.6748 201.904 44.778 202.153 44.778 202.413C44.778 202.673 44.6748 202.922 44.491 203.106C44.3073 203.29 44.058 203.393 43.7982 203.393C43.5383 203.393 43.2891 203.29 43.1053 203.106C42.9216 202.922 42.8184 202.673 42.8184 202.413ZM46.7376 202.413C46.7376 202.153 46.8409 201.904 47.0246 201.72C47.2084 201.536 47.4576 201.433 47.7174 201.433C47.9773 201.433 48.2265 201.536 48.4103 201.72C48.594 201.904 48.6973 202.153 48.6973 202.413C48.6973 202.673 48.594 202.922 48.4103 203.106C48.2265 203.29 47.9773 203.393 47.7174 203.393C47.4576 203.393 47.2084 203.29 47.0246 203.106C46.8409 202.922 46.7376 202.673 46.7376 202.413ZM50.6471 202.413C50.6471 202.153 50.7503 201.904 50.9341 201.72C51.1178 201.536 51.367 201.433 51.6269 201.433C51.8868 201.433 52.136 201.536 52.3197 201.72C52.5035 201.904 52.6067 202.153 52.6067 202.413C52.6067 202.673 52.5035 202.922 52.3197 203.106C52.136 203.29 51.8868 203.393 51.6269 203.393C51.367 203.393 51.1178 203.29 50.9341 203.106C50.7503 202.922 50.6471 202.673 50.6471 202.413Z" fill="#808080"/>
<g filter="url(#filter1_d_1152_909)">
<path d="M42 31H54.415C58.2809 31.0002 61.415 34.1341 61.415 38V49.6768C61.415 53.5426 58.2808 56.6766 54.415 56.6768H49.9482L49.7041 56.8311L43.626 60.6611V56.6768H42C38.134 56.6768 35.0001 53.5427 35 49.6768V38C35 34.134 38.134 31 42 31Z" stroke="black" stroke-width="2" shape-rendering="crispEdges"/>
</g>
<path d="M49.1738 36.9985H52.4891V45.723C52.4891 46.7313 52.2452 47.6097 51.7575 48.3582C51.2699 49.1023 50.5898 49.6791 49.7174 50.0885C48.8449 50.4936 47.8316 50.6962 46.6773 50.6962C45.5095 50.6962 44.4895 50.4936 43.617 50.0885C42.7446 49.6791 42.0668 49.1023 41.5836 48.3582C41.1004 47.6097 40.8588 46.7313 40.8588 45.723V36.9985H44.1807V45.439C44.1807 45.9057 44.2836 46.3218 44.4895 46.6873C44.6997 47.0527 44.9928 47.3389 45.3686 47.5458C45.7444 47.7528 46.1806 47.8562 46.6773 47.8562C47.1739 47.8562 47.6079 47.7528 47.9792 47.5458C48.355 47.3389 48.6481 47.0527 48.8584 46.6873C49.0686 46.3218 49.1738 45.9057 49.1738 45.439V36.9985Z" fill="black"/>
<path d="M55.7708 50.716C55.2876 50.716 54.8737 50.5487 54.5292 50.214C54.1892 49.8794 54.0214 49.4743 54.0259 48.9988C54.0214 48.5321 54.1892 48.1336 54.5292 47.8034C54.8737 47.4688 55.2876 47.3015 55.7708 47.3015C56.2271 47.3015 56.6298 47.4688 56.9788 47.8034C57.3322 48.1336 57.5112 48.5321 57.5156 48.9988C57.5112 49.3158 57.4262 49.6042 57.2606 49.864C57.0996 50.1238 56.887 50.3307 56.6231 50.4848C56.3636 50.6389 56.0795 50.716 55.7708 50.716Z" fill="black"/>
<path d="M49.1738 36.9985H52.4891V45.723C52.4891 46.7313 52.2452 47.6097 51.7575 48.3582C51.2699 49.1023 50.5898 49.6791 49.7174 50.0885C48.8449 50.4936 47.8316 50.6962 46.6773 50.6962C45.5095 50.6962 44.4895 50.4936 43.617 50.0885C42.7446 49.6791 42.0668 49.1023 41.5836 48.3582C41.1004 47.6097 40.8588 46.7313 40.8588 45.723V36.9985H44.1807V45.439C44.1807 45.9057 44.2836 46.3218 44.4895 46.6873C44.6997 47.0527 44.9928 47.3389 45.3686 47.5458C45.7444 47.7528 46.1806 47.8562 46.6773 47.8562C47.1739 47.8562 47.6079 47.7528 47.9792 47.5458C48.355 47.3389 48.6481 47.0527 48.8584 46.6873C49.0686 46.3218 49.1738 45.9057 49.1738 45.439V36.9985Z" stroke="black" stroke-width="0.4" stroke-linejoin="round"/>
<path d="M55.7708 50.716C55.2876 50.716 54.8737 50.5487 54.5292 50.214C54.1892 49.8794 54.0214 49.4743 54.0259 48.9988C54.0214 48.5321 54.1892 48.1336 54.5292 47.8034C54.8737 47.4688 55.2876 47.3015 55.7708 47.3015C56.2271 47.3015 56.6298 47.4688 56.9788 47.8034C57.3322 48.1336 57.5112 48.5321 57.5156 48.9988C57.5112 49.3158 57.4262 49.6042 57.2606 49.864C57.0996 50.1238 56.887 50.3307 56.6231 50.4848C56.3636 50.6389 56.0795 50.716 55.7708 50.716Z" stroke="black" stroke-width="0.4" stroke-linejoin="round"/>
<path d="M54.7106 97.7003C54.6955 97.7032 54.6803 97.7053 54.6652 97.7089C54.505 97.7516 53.6364 98.4185 53.3651 98.5702C52.2137 99.2162 50.9757 99.6121 49.7073 99.7675C49.3199 99.8123 48.926 99.8354 48.5249 99.8354V99.8426C47.5249 99.8477 46.5171 99.7075 45.5272 99.4242L38.9641 99.4264V92.6931C38.9641 92.5486 38.7499 91.9814 38.7102 91.7574C37.1959 83.2343 46.2927 76.9106 53.702 81.4482C56.6788 83.2711 58.4038 86.5392 58.4002 89.9351H58.3864C58.3864 90.696 58.3049 91.4337 58.1498 92.141C58.1058 92.3347 58.0553 92.5276 57.999 92.7205C57.8778 93.1345 57.4853 93.8939 57.4356 94.2111C57.4327 94.227 57.432 94.2429 57.4305 94.2588C56.792 95.61 55.8592 96.7834 54.7106 97.7003Z" fill="white" stroke="black" stroke-width="1.2"/>
<path d="M48.1933 82.1357C49.6268 81.9897 50.9903 82.9912 51.0704 84.4717C50.779 86.4919 50.7645 88.6277 50.4716 90.6371C50.24 92.2274 48.5352 93.0887 47.2142 92.0619C46.6111 91.593 46.5159 91.0258 46.4228 90.3127C46.2049 88.6487 45.943 86.5092 45.8803 84.8532C45.8254 83.4059 46.7374 82.2838 48.1933 82.1357ZM48.1911 82.9991C47.2496 83.1263 46.7186 83.8206 46.7439 84.7455C46.7972 86.6971 47.2712 88.8076 47.3636 90.7773C47.7185 91.9528 49.2841 91.9203 49.5958 90.7339C49.6874 88.7823 50.1275 86.7332 50.2018 84.7968C50.2465 83.6292 49.3454 82.8438 48.1911 82.9998V82.9991Z" fill="black"/>
<path d="M48.1918 93.3837C51.1525 93.0397 51.4779 97.4834 48.6623 97.6952C45.8466 97.9069 45.4938 93.6974 48.1918 93.3837ZM48.2437 94.2473C46.6476 94.501 46.9506 97.0404 48.6586 96.8258C50.3666 96.6112 50.008 93.9669 48.2437 94.2473Z" fill="black"/>
<path d="M45.4175 119.373C46.8325 119.57 48.1295 120.283 49.1116 121.269C49.5862 121.125 50.0187 120.861 50.4995 120.728C56.8263 118.966 61.3667 126.782 55.6773 131.226C53.6961 132.774 50.7444 134.917 48.6001 136.201C47.5015 136.859 46.4745 137.018 45.4883 136.023C43.7155 133.337 41.1159 130.767 39.4244 128.078C36.8044 123.913 40.487 118.687 45.4175 119.373Z" stroke="black" stroke-width="1.2"/>
<path d="M53.6251 123.282C54.6058 123.653 55.7185 124.766 55.4802 126.494" stroke="black" stroke-width="1.2" stroke-linecap="round"/>
<g filter="url(#filter2_d_1152_909)">
<path d="M62.0323 93.9008C64.3263 84.3303 56.0749 75.4686 46.2436 77.2184C38.313 78.6304 33.2799 86.8072 35.5803 94.571C35.7705 97.3739 34.7692 100.149 35.0206 102.911C35.0526 103.262 35.1009 103.555 36.0914 103.86C38.89 104.05 42.0296 103.604 44.7871 103.856C45.2388 103.897 45.7718 104.102 46.2427 104.18C48.3684 104.53 50.4045 104.46 52.3656 103.92C57.204 102.644 60.9087 98.8215 62.0323 93.9008Z" fill="black"/>
</g>
<path d="M34.8351 91.7261C33.2997 80.7764 45.0585 72.7846 54.671 78.6714C58.5983 81.0766 60.8682 85.384 60.8634 89.854L60.8624 90.353H60.8361C60.8064 91.1773 60.7044 91.9805 60.5343 92.7563L60.5333 92.7593C60.4752 93.0152 60.4089 93.2697 60.3351 93.5229V93.5239C60.2477 93.8223 60.0677 94.2305 59.924 94.5688C59.8482 94.7471 59.7793 94.9126 59.7257 95.0562C59.6692 95.2075 59.6423 95.3031 59.6349 95.3501C59.6348 95.3516 59.6342 95.3537 59.6339 95.3569C59.6336 95.3614 59.6337 95.3693 59.6329 95.3774L59.6241 95.4663L59.587 95.5464C58.7453 97.3277 57.515 98.8751 56.0001 100.084L55.9034 100.162L55.7814 100.185C55.7801 100.185 55.7787 100.185 55.7775 100.185C55.7733 100.187 55.7684 100.191 55.7628 100.194C55.7254 100.215 55.6742 100.247 55.6095 100.29C55.4803 100.374 55.3195 100.487 55.1476 100.608C54.8239 100.836 54.4285 101.119 54.2267 101.232L54.2277 101.233C52.7106 102.084 51.0788 102.605 49.4083 102.81H49.4044C49.0565 102.85 48.7047 102.876 48.3488 102.889V102.907L47.8517 102.909C46.5593 102.915 45.2582 102.737 43.9816 102.378L35.7325 102.381H35.2325V93.3481C35.2325 93.3793 35.2353 93.3636 35.2062 93.2554C35.1828 93.1686 35.1506 93.0613 35.1134 92.9419C35.0463 92.7265 34.9505 92.4329 34.9181 92.2505L34.8351 91.7261Z" fill="#FFE23B" stroke="black"/>
<path d="M47.4287 79.969C49.2453 79.7841 50.9733 81.0532 51.0748 82.9294C50.7055 85.4895 50.6872 88.1962 50.316 90.7427C50.0225 92.758 47.862 93.8495 46.188 92.5484C45.4236 91.9541 45.303 91.2353 45.185 90.3315C44.9089 88.2228 44.577 85.5115 44.4975 83.4128C44.428 81.5788 45.5836 80.1568 47.4287 79.969ZM47.4259 81.0633C46.2328 81.2244 45.5599 82.1044 45.5919 83.2764C45.6595 85.7496 46.2602 88.4242 46.3772 90.9203C46.8271 92.4101 48.8111 92.3689 49.206 90.8654C49.3221 88.3922 49.8799 85.7954 49.974 83.3414C50.0307 81.8617 48.8888 80.8664 47.4259 81.0642V81.0633Z" fill="black"/>
<path d="M47.4267 94.2238C51.1787 93.7878 51.5911 99.4192 48.0229 99.6876C44.4547 99.9559 44.0075 94.6212 47.4267 94.2238ZM47.4925 95.3182C45.4697 95.6396 45.8538 98.8578 48.0183 98.5858C50.1828 98.3138 49.7283 94.9628 47.4925 95.3182Z" fill="black"/>
<path d="M47.4249 81.0636C48.8877 80.8658 50.0297 81.8611 49.973 83.3408C49.8788 85.7957 49.3211 88.3916 49.205 90.8648C48.81 92.3683 46.826 92.4086 46.3762 90.9197C46.2592 88.4246 45.6585 85.7499 45.5908 83.2758C45.5588 82.1047 46.2317 81.2238 47.4249 81.0627V81.0636Z" fill="#FF8F8F"/>
<path d="M47.4936 95.3193C49.7289 94.9639 50.1204 98.3237 48.0195 98.5875C45.9186 98.8514 45.4704 95.6408 47.4936 95.3193Z" fill="#FF8F8F"/>
<path d="M55.8135 83.6021C56.8298 84.6183 57.4165 86.1427 57.4165 88.1753" stroke="white" stroke-opacity="0.44" stroke-width="2" stroke-linecap="round"/>
<defs>
<filter id="filter0_d_1152_909" x="16.6412" y="12.687" width="62.1523" height="224.802" filterUnits="userSpaceOnUse" color-interpolation-filters="sRGB">
<feFlood flood-opacity="0" result="BackgroundImageFix"/>
<feColorMatrix in="SourceAlpha" type="matrix" values="0 0 0 0 0 0 0 0 0 0 0 0 0 0 0 0 0 0 127 0" result="hardAlpha"/>
<feOffset dy="4"/>
<feGaussianBlur stdDeviation="5.25"/>
<feComposite in2="hardAlpha" operator="out"/>
<feColorMatrix type="matrix" values="0 0 0 0 0 0 0 0 0 0 0 0 0 0 0 0 0 0 0.19 0"/>
<feBlend mode="normal" in2="BackgroundImageFix" result="effect1_dropShadow_1152_909"/>
<feBlend mode="normal" in="SourceGraphic" in2="effect1_dropShadow_1152_909" result="shape"/>
</filter>
<filter id="filter1_d_1152_909" x="0" y="0" width="96.4147" height="99.6631" filterUnits="userSpaceOnUse" color-interpolation-filters="sRGB">
<feFlood flood-opacity="0" result="BackgroundImageFix"/>
<feColorMatrix in="SourceAlpha" type="matrix" values="0 0 0 0 0 0 0 0 0 0 0 0 0 0 0 0 0 0 127 0" result="hardAlpha"/>
<feOffset dy="4"/>
<feGaussianBlur stdDeviation="17"/>
<feComposite in2="hardAlpha" operator="out"/>
<feColorMatrix type="matrix" values="0 0 0 0 0 0 0 0 0 0 0 0 0 0 0 0 0 0 0.1 0"/>
<feBlend mode="normal" in2="BackgroundImageFix" result="effect1_dropShadow_1152_909"/>
<feBlend mode="normal" in="SourceGraphic" in2="effect1_dropShadow_1152_909" result="shape"/>
</filter>
<filter id="filter2_d_1152_909" x="34.9799" y="76.9961" width="28.4391" height="28.3989" filterUnits="userSpaceOnUse" color-interpolation-filters="sRGB">
<feFlood flood-opacity="0" result="BackgroundImageFix"/>
<feColorMatrix in="SourceAlpha" type="matrix" values="0 0 0 0 0 0 0 0 0 0 0 0 0 0 0 0 0 0 127 0" result="hardAlpha"/>
<feOffset dx="1" dy="1"/>
<feComposite in2="hardAlpha" operator="out"/>
<feColorMatrix type="matrix" values="0 0 0 0 0 0 0 0 0 0 0 0 0 0 0 0 0 0 0.17 0"/>
<feBlend mode="normal" in2="BackgroundImageFix" result="effect1_dropShadow_1152_909"/>
<feBlend mode="normal" in="SourceGraphic" in2="effect1_dropShadow_1152_909" result="shape"/>
</filter>
</defs>
</svg>
