<svg width="97" height="238" viewBox="0 0 128 450" preserveAspectRatio="xMidYMid meet" fill="none" xmlns="http://www.w3.org/2000/svg">
<g filter="url(#filter0_d_615_771)" transform="translate(8 0) scale(0.88, 1)">
<path d="M105.971 393.019C105.971 416.215 87.1665 435.02 63.9705 435.02L61.6055 435.02C38.4096 435.02 19.6056 416.215 19.6056 393.02L19.6055 49.3072C19.6055 26.1113 38.4096 7.3072 61.6055 7.30719L63.9705 7.30719C87.1665 7.30719 105.97 26.1112 105.97 49.3072L105.971 393.019Z" fill="white"/>
<path d="M63.9705 434.819L61.6053 434.819C38.5199 434.819 19.8055 416.105 19.8055 393.02L19.8054 49.3076C19.8054 26.2222 38.5199 7.50699 61.6052 7.50684L63.9705 7.50684C87.056 7.50684 105.77 26.2221 105.77 49.3076L105.77 393.02C105.77 416.105 87.056 434.819 63.9705 434.819Z" stroke="#E0E0E0" stroke-width="0.4"/>
</g>
<g transform="translate(64 225) scale(1, 1) translate(-64 -225)">
<path d="M76.1542 156.389C78.2105 158.445 79.3978 161.53 79.3978 165.643" stroke="white" stroke-opacity="0.44" stroke-width="2" stroke-linecap="round"/>
<path d="M59.7405 297.361L64.0092 307.818L73.4838 311.899C74.1053 312.281 74.1936 313.567 73.8914 314.145C73.3616 315.158 65.5068 317.582 64.0398 318.595C62.3146 321.2 61.6762 326.434 59.9409 328.734C58.4671 330.684 57.4653 328.34 56.9117 327.162C55.6756 324.528 54.9964 321.381 53.6924 318.738L44.1906 314.602C43.1005 313.805 43.4774 312.458 44.5302 311.782C46.5541 310.476 52.0046 309.336 53.526 307.808C55.0066 306.287 56.6978 297.879 58.3346 297.374C58.6878 297.266 59.4451 297.193 59.7405 297.361Z" fill="white" stroke="black" stroke-width="2"/>
<path d="M82.5015 288L84.564 293.052L89.142 295.024C89.4422 295.208 89.4849 295.83 89.3389 296.109C89.0829 296.599 85.2876 297.77 84.5788 298.259C83.7452 299.518 83.4368 302.047 82.5983 303.158C81.8862 304.101 81.4021 302.968 81.1347 302.399C80.5374 301.126 80.2092 299.605 79.5791 298.329L74.9881 296.33C74.4614 295.945 74.6435 295.294 75.1521 294.967C76.1301 294.337 78.7636 293.786 79.4987 293.048C80.2141 292.312 81.0313 288.25 81.8222 288.006C81.9928 287.954 82.3587 287.918 82.5015 288Z" fill="white" stroke="black" stroke-width="2"/>
<circle cx="62.7883" cy="391.837" r="32.9009" fill="#F4F4F4"/>
<path fill-rule="evenodd" clip-rule="evenodd" d="M52.5065 391.837C52.5065 391.291 52.7231 390.768 53.1087 390.383C53.4944 389.997 54.0174 389.78 54.5628 389.78C55.1081 389.78 55.6312 389.997 56.0168 390.383C56.4024 390.768 56.6191 391.291 56.6191 391.837C56.6191 392.382 56.4024 392.905 56.0168 393.291C55.6312 393.676 55.1081 393.893 54.5628 393.893C54.0174 393.893 53.4944 393.676 53.1087 393.291C52.7231 392.905 52.5065 392.382 52.5065 391.837ZM60.7317 391.837C60.7317 391.291 60.9484 390.768 61.334 390.383C61.7196 389.997 62.2426 389.78 62.788 389.78C63.3334 389.78 63.8564 389.997 64.242 390.383C64.6277 390.768 64.8443 391.291 64.8443 391.837C64.8443 392.382 64.6277 392.905 64.242 393.291C63.8564 393.676 63.3334 393.893 62.788 393.893C62.2426 393.893 61.7196 393.676 61.334 393.291C60.9484 392.905 60.7317 392.382 60.7317 391.837ZM68.9364 391.837C68.9364 391.291 69.153 390.768 69.5387 390.383C69.9243 389.997 70.4473 389.78 70.9927 389.78C71.5381 389.78 72.0611 389.997 72.4467 390.383C72.8324 390.768 73.049 391.291 73.049 391.837C73.049 392.382 72.8324 392.905 72.4467 393.291C72.0611 393.676 71.5381 393.893 70.9927 393.893C70.4473 393.893 69.9243 393.676 69.5387 393.291C69.153 392.905 68.9364 392.382 68.9364 391.837Z" fill="#808080"/>
<g filter="url(#filter1_d_615_771)">
<path d="M50 31.2002H77.6328C85.8066 31.2002 92.4326 37.8262 92.4326 46V72.084C92.4326 80.2578 85.8066 86.8838 77.6328 86.8838H67.7295L67.4365 87.0693L53.3027 95.9766V86.8838H50C41.8262 86.8838 35.2002 80.2578 35.2002 72.084V46C35.2002 37.8262 41.8262 31.2002 50 31.2002Z" stroke="black" stroke-width="2.4" shape-rendering="crispEdges"/>
</g>
<path d="M65.8444 44.6875H72.802V62.9973C72.802 65.1133 72.2903 66.9568 71.2668 68.5276C70.2434 70.0892 68.8162 71.2997 66.9852 72.1591C65.1542 73.0092 63.0275 73.4342 60.605 73.4342C58.1543 73.4342 56.0135 73.0092 54.1826 72.1591C52.3516 71.2997 50.9291 70.0892 49.915 68.5276C48.901 66.9568 48.3939 65.1133 48.3939 62.9973V44.6875H55.3657V62.4013C55.3657 63.3807 55.5816 64.254 56.0135 65.0209C56.4548 65.7879 57.0699 66.3885 57.8586 66.8228C58.6473 67.2571 59.5628 67.4742 60.605 67.4742C61.6473 67.4742 62.558 67.2571 63.3374 66.8228C64.1261 66.3885 64.7411 65.7879 65.1824 65.0209C65.6237 64.254 65.8444 63.3807 65.8444 62.4013V44.6875Z" fill="black"/>
<path d="M79.6893 73.4758C78.6752 73.4758 77.8067 73.1247 77.0837 72.4224C76.3701 71.7202 76.0179 70.87 76.0273 69.8721C76.0179 68.8926 76.3701 68.0564 77.0837 67.3633C77.8067 66.6611 78.6752 66.3099 79.6893 66.3099C80.647 66.3099 81.4921 66.6611 82.2244 67.3633C82.9662 68.0564 83.3418 68.8926 83.3512 69.8721C83.3418 70.5374 83.1634 71.1426 82.816 71.6878C82.478 72.233 82.0319 72.6673 81.478 72.9907C80.9334 73.3141 80.3371 73.4758 79.6893 73.4758Z" fill="black"/>
<path d="M65.8444 44.6875H72.802V62.9973C72.802 65.1133 72.2903 66.9568 71.2668 68.5276C70.2434 70.0892 68.8162 71.2997 66.9852 72.1591C65.1542 73.0092 63.0275 73.4342 60.605 73.4342C58.1543 73.4342 56.0135 73.0092 54.1826 72.1591C52.3516 71.2997 50.9291 70.0892 49.915 68.5276C48.901 66.9568 48.3939 65.1133 48.3939 62.9973V44.6875H55.3657V62.4013C55.3657 63.3807 55.5816 64.254 56.0135 65.0209C56.4548 65.7879 57.0699 66.3885 57.8586 66.8228C58.6473 67.2571 59.5628 67.4742 60.605 67.4742C61.6473 67.4742 62.558 67.2571 63.3374 66.8228C64.1261 66.3885 64.7411 65.7879 65.1824 65.0209C65.6237 64.254 65.8444 63.3807 65.8444 62.4013V44.6875Z" stroke="black" stroke-width="0.4" stroke-linejoin="round"/>
<path d="M79.6893 73.4758C78.6752 73.4758 77.8067 73.1247 77.0837 72.4224C76.3701 71.7202 76.0179 70.87 76.0273 69.8721C76.0179 68.8926 76.3701 68.0564 77.0837 67.3633C77.8067 66.6611 78.6752 66.3099 79.6893 66.3099C80.647 66.3099 81.4921 66.6611 82.2244 67.3633C82.9662 68.0564 83.3418 68.8926 83.3512 69.8721C83.3418 70.5374 83.1634 71.1426 82.816 71.6878C82.478 72.233 82.0319 72.6673 81.478 72.9907C80.9334 73.3141 80.3371 73.4758 79.6893 73.4758Z" stroke="black" stroke-width="0.4" stroke-linejoin="round"/>
<path d="M77.4646 172.08C77.4328 172.086 77.401 172.091 77.3692 172.098C77.0331 172.188 75.2101 173.587 74.6408 173.906C72.2243 175.261 69.6261 176.092 66.9643 176.418C66.1513 176.512 65.3246 176.561 64.4827 176.561V176.576C62.3842 176.587 60.269 176.293 58.1917 175.698L44.4179 175.703V161.572C44.4179 161.268 43.9682 160.078 43.885 159.608C40.7069 141.721 59.7981 128.45 75.3479 137.972C81.595 141.798 85.2152 148.657 85.2077 155.784H85.1789C85.1789 157.38 85.0078 158.929 84.6823 160.413C84.5899 160.82 84.4839 161.224 84.3658 161.629C84.1115 162.498 83.2878 164.092 83.1833 164.758C83.1773 164.791 83.1757 164.824 83.1727 164.858C81.8327 167.693 79.875 170.156 77.4646 172.08Z" fill="white" stroke="black" stroke-width="2"/>
<path d="M63.7867 139.416C66.7952 139.11 69.6568 141.211 69.8249 144.318C69.2132 148.558 69.1829 153.04 68.5682 157.257C68.0821 160.595 64.5043 162.403 61.732 160.248C60.4662 159.264 60.2664 158.073 60.0711 156.577C59.6138 153.084 59.0642 148.594 58.9325 145.119C58.8174 142.082 60.7312 139.727 63.7867 139.416ZM63.7821 141.228C61.8062 141.495 60.6918 142.952 60.7448 144.893C60.8569 148.989 61.8516 153.418 62.0454 157.552C62.7904 160.019 66.076 159.951 66.7301 157.461C66.9223 153.365 67.8459 149.065 68.0019 145.001C68.0958 142.55 66.2047 140.902 63.7821 141.229V141.228Z" fill="black"/>
<path d="M63.7837 163.021C69.9972 162.299 70.6802 171.625 64.7711 172.07C58.862 172.514 58.1215 163.679 63.7837 163.021ZM63.8928 164.834C60.543 165.366 61.179 170.696 64.7635 170.245C68.3481 169.795 67.5954 164.245 63.8928 164.834Z" fill="black"/>
<g transform="translate(63 232) scale(1) translate(-63 -232)">
<path d="M57.9614 217.563C60.931 217.976 63.653 219.473 65.7141 221.543C66.7101 221.24 67.6179 220.687 68.6268 220.406C81.9048 216.709 91.4334 233.112 79.4933 242.439C75.3355 245.687 69.1408 250.185 64.6406 252.88C62.3351 254.261 60.1797 254.595 58.1099 252.506C54.3895 246.869 48.9339 241.476 45.3839 235.833C39.8853 227.091 47.6139 216.123 57.9614 217.563Z" stroke="black" stroke-width="2"/>
<path d="M75.1862 225.767C77.2445 226.545 79.5796 228.881 79.0795 232.508" stroke="black" stroke-width="2" stroke-linecap="round"/>
<path d="M55.8328 213.223C59.0426 213.67 61.9847 215.288 64.2125 217.525C65.289 217.197 66.2702 216.6 67.3607 216.296C81.7124 212.3 92.0115 230.03 79.1059 240.11C74.6119 243.621 67.9163 248.483 63.0521 251.396C60.5602 252.889 58.2305 253.25 55.9934 250.992C51.9721 244.899 46.0753 239.07 42.2383 232.97C36.2951 223.522 44.6486 211.667 55.8328 213.223Z" fill="#FF1E1E" stroke="black" stroke-width="2"/>
</g>
<path d="M73.9205 222.862C76.1452 223.703 78.6691 226.227 78.1286 230.147" stroke="#FF7C7C" stroke-width="4" stroke-linecap="round"/>
</g>
<defs>
<filter id="filter0_d_615_771" x="9.10553" y="0.807129" width="107.365" height="448.712" filterUnits="userSpaceOnUse" color-interpolation-filters="sRGB">
<feFlood flood-opacity="0" result="BackgroundImageFix"/>
<feColorMatrix in="SourceAlpha" type="matrix" values="0 0 0 0 0 0 0 0 0 0 0 0 0 0 0 0 0 0 127 0" result="hardAlpha"/>
<feOffset dy="4"/>
<feGaussianBlur stdDeviation="5.25"/>
<feComposite in2="hardAlpha" operator="out"/>
<feColorMatrix type="matrix" values="0 0 0 0 0 0 0 0 0 0 0 0 0 0 0 0 0 0 0.19 0"/>
<feBlend mode="normal" in2="BackgroundImageFix" result="effect1_dropShadow_615_771"/>
<feBlend mode="normal" in="SourceGraphic" in2="effect1_dropShadow_615_771" result="shape"/>
</filter>
<filter id="filter1_d_615_771" x="0" y="0" width="127.633" height="135.341" filterUnits="userSpaceOnUse" color-interpolation-filters="sRGB">
<feFlood flood-opacity="0" result="BackgroundImageFix"/>
<feColorMatrix in="SourceAlpha" type="matrix" values="0 0 0 0 0 0 0 0 0 0 0 0 0 0 0 0 0 0 127 0" result="hardAlpha"/>
<feOffset dy="4"/>
<feGaussianBlur stdDeviation="17"/>
<feComposite in2="hardAlpha" operator="out"/>
<feColorMatrix type="matrix" values="0 0 0 0 0 0 0 0 0 0 0 0 0 0 0 0 0 0 0.1 0"/>
<feBlend mode="normal" in2="BackgroundImageFix" result="effect1_dropShadow_615_771"/>
<feBlend mode="normal" in="SourceGraphic" in2="effect1_dropShadow_615_771" result="shape"/>
</filter>
</defs>
</svg>
