<svg width="97" height="238" viewBox="0 0 97 238" fill="none" xmlns="http://www.w3.org/2000/svg">
<g filter="url(#filter0_d_615_771)">
<path d="M68.2938 202.989C68.2938 214.034 59.3395 222.989 48.2938 222.989L47.1415 222.989C36.0958 222.989 27.1415 214.034 27.1415 202.989L27.1415 39.1869C27.1415 28.1413 36.0958 19.1869 47.1415 19.1869L48.2937 19.1869C59.3394 19.1869 68.2937 28.1412 68.2937 39.1869L68.2938 202.989Z" fill="white"/>
<path d="M48.2938 222.789L47.1414 222.789C36.2062 222.789 27.3416 213.924 27.3416 202.989L27.3416 39.187C27.3416 28.2518 36.2062 19.3872 47.1414 19.3872L48.2937 19.3872C59.229 19.3872 68.0935 28.2518 68.0936 39.187L68.0936 202.989C68.0936 213.924 59.229 222.789 48.2938 222.789Z" stroke="#E0E0E0" stroke-width="0.4"/>
</g>
<path d="M54.0864 90.2241C55.0662 91.2039 55.6319 92.6737 55.6319 94.6333" stroke="white" stroke-opacity="0.44" stroke-width="2" stroke-linecap="round"/>
<path d="M46.2652 157.396L48.2992 162.379L52.8138 164.323C53.11 164.505 53.152 165.118 53.008 165.393C52.7556 165.876 49.0128 167.031 48.3138 167.514C47.4918 168.755 47.1876 171.249 46.3607 172.345C45.6585 173.274 45.1811 172.157 44.9173 171.596C44.3283 170.341 44.0047 168.841 43.3834 167.582L38.8558 165.611C38.3364 165.231 38.516 164.59 39.0176 164.267C39.982 163.645 42.5791 163.102 43.3041 162.374C44.0096 161.649 44.8154 157.643 45.5953 157.402C45.7636 157.351 46.1245 157.316 46.2652 157.396Z" fill="white" stroke="black" stroke-width="1.2"/>
<path d="M57.1107 152.936L58.0935 155.343L60.2749 156.283C60.4179 156.37 60.4383 156.667 60.3687 156.8C60.2467 157.033 58.4383 157.591 58.1005 157.824C57.7034 158.424 57.5564 159.629 57.1568 160.158C56.8175 160.607 56.5869 160.068 56.4594 159.796C56.1748 159.19 56.0185 158.466 55.7182 157.857L53.5306 156.905C53.2796 156.721 53.3664 156.411 53.6088 156.256C54.0748 155.955 55.3297 155.692 55.6799 155.341C56.0208 154.99 56.4102 153.055 56.787 152.938C56.8683 152.914 57.0427 152.897 57.1107 152.936Z" fill="white" stroke="black" stroke-width="1.2"/>
<ellipse cx="47.7175" cy="202.413" rx="15.6771" ry="15.6771" fill="#F4F4F4"/>
<path fill-rule="evenodd" clip-rule="evenodd" d="M42.8184 202.413C42.8184 202.153 42.9217 201.904 43.1054 201.72C43.2892 201.536 43.5384 201.433 43.7982 201.433C44.0581 201.433 44.3073 201.536 44.4911 201.72C44.6748 201.904 44.7781 202.153 44.7781 202.413C44.7781 202.673 44.6748 202.922 44.4911 203.106C44.3073 203.29 44.0581 203.393 43.7982 203.393C43.5384 203.393 43.2892 203.29 43.1054 203.106C42.9217 202.922 42.8184 202.673 42.8184 202.413ZM46.7377 202.413C46.7377 202.153 46.8409 201.904 47.0247 201.72C47.2084 201.536 47.4576 201.433 47.7175 201.433C47.9774 201.433 48.2266 201.536 48.4103 201.72C48.5941 201.904 48.6973 202.153 48.6973 202.413C48.6973 202.673 48.5941 202.922 48.4103 203.106C48.2266 203.29 47.9774 203.393 47.7175 203.393C47.4576 203.393 47.2084 203.29 47.0247 203.106C46.8409 202.922 46.7377 202.673 46.7377 202.413ZM50.6472 202.413C50.6472 202.153 50.7504 201.904 50.9341 201.72C51.1179 201.536 51.3671 201.433 51.627 201.433C51.8868 201.433 52.1361 201.536 52.3198 201.72C52.5036 201.904 52.6068 202.153 52.6068 202.413C52.6068 202.673 52.5036 202.922 52.3198 203.106C52.1361 203.29 51.8868 203.393 51.627 203.393C51.3671 203.393 51.1179 203.29 50.9341 203.106C50.7504 202.922 50.6472 202.673 50.6472 202.413Z" fill="#808080"/>
<g filter="url(#filter1_d_615_771)">
<path d="M42 31H54.415C58.2809 31.0002 61.415 34.1341 61.415 38V49.6768C61.415 53.5426 58.2808 56.6766 54.415 56.6768H49.9482L49.7041 56.8311L43.626 60.6611V56.6768H42C38.134 56.6768 35.0001 53.5427 35 49.6768V38C35 34.134 38.134 31 42 31Z" stroke="black" stroke-width="2" shape-rendering="crispEdges"/>
</g>
<path d="M49.1738 36.9985H52.4891V45.723C52.4891 46.7313 52.2453 47.6097 51.7576 48.3582C51.2699 49.1023 50.5899 49.6791 49.7174 50.0885C48.845 50.4936 47.8316 50.6962 46.6773 50.6962C45.5096 50.6962 44.4895 50.4936 43.6171 50.0885C42.7446 49.6791 42.0668 49.1023 41.5836 48.3582C41.1004 47.6097 40.8588 46.7313 40.8588 45.723V36.9985H44.1808V45.439C44.1808 45.9057 44.2837 46.3218 44.4895 46.6873C44.6998 47.0527 44.9928 47.3389 45.3687 47.5458C45.7445 47.7528 46.1807 47.8562 46.6773 47.8562C47.1739 47.8562 47.6079 47.7528 47.9793 47.5458C48.3551 47.3389 48.6481 47.0527 48.8584 46.6873C49.0687 46.3218 49.1738 45.9057 49.1738 45.439V36.9985Z" fill="black"/>
<path d="M55.7708 50.716C55.2876 50.716 54.8738 50.5487 54.5293 50.214C54.1893 49.8794 54.0215 49.4743 54.0259 48.9988C54.0215 48.5321 54.1893 48.1336 54.5293 47.8034C54.8738 47.4688 55.2876 47.3015 55.7708 47.3015C56.2272 47.3015 56.6298 47.4688 56.9788 47.8034C57.3323 48.1336 57.5112 48.5321 57.5157 48.9988C57.5112 49.3158 57.4262 49.6042 57.2607 49.864C57.0996 50.1238 56.8871 50.3307 56.6231 50.4848C56.3636 50.6389 56.0795 50.716 55.7708 50.716Z" fill="black"/>
<path d="M49.1738 36.9985H52.4891V45.723C52.4891 46.7313 52.2453 47.6097 51.7576 48.3582C51.2699 49.1023 50.5899 49.6791 49.7174 50.0885C48.845 50.4936 47.8316 50.6962 46.6773 50.6962C45.5096 50.6962 44.4895 50.4936 43.6171 50.0885C42.7446 49.6791 42.0668 49.1023 41.5836 48.3582C41.1004 47.6097 40.8588 46.7313 40.8588 45.723V36.9985H44.1808V45.439C44.1808 45.9057 44.2837 46.3218 44.4895 46.6873C44.6998 47.0527 44.9928 47.3389 45.3687 47.5458C45.7445 47.7528 46.1807 47.8562 46.6773 47.8562C47.1739 47.8562 47.6079 47.7528 47.9793 47.5458C48.3551 47.3389 48.6481 47.0527 48.8584 46.6873C49.0687 46.3218 49.1738 45.9057 49.1738 45.439V36.9985Z" stroke="black" stroke-width="0.4" stroke-linejoin="round"/>
<path d="M55.7708 50.716C55.2876 50.716 54.8738 50.5487 54.5293 50.214C54.1893 49.8794 54.0215 49.4743 54.0259 48.9988C54.0215 48.5321 54.1893 48.1336 54.5293 47.8034C54.8738 47.4688 55.2876 47.3015 55.7708 47.3015C56.2272 47.3015 56.6298 47.4688 56.9788 47.8034C57.3323 48.1336 57.5112 48.5321 57.5157 48.9988C57.5112 49.3158 57.4262 49.6042 57.2607 49.864C57.0996 50.1238 56.8871 50.3307 56.6231 50.4848C56.3636 50.6389 56.0795 50.716 55.7708 50.716Z" stroke="black" stroke-width="0.4" stroke-linejoin="round"/>
<path d="M54.7108 97.7003C54.6956 97.7032 54.6805 97.7053 54.6653 97.7089C54.5051 97.7516 53.6365 98.4185 53.3652 98.5702C52.2138 99.2162 50.9758 99.6121 49.7075 99.7675C49.32 99.8123 48.9261 99.8354 48.525 99.8354V99.8426C47.5251 99.8477 46.5172 99.7075 45.5273 99.4242L38.9643 99.4264V92.6931C38.9643 92.5486 38.75 91.9814 38.7103 91.7574C37.196 83.2343 46.2928 76.9106 53.7022 81.4482C56.6789 83.2711 58.4039 86.5392 58.4003 89.9351H58.3866C58.3866 90.696 58.305 91.4337 58.1499 92.141C58.1059 92.3347 58.0554 92.5276 57.9991 92.7205C57.8779 93.1345 57.4855 93.8939 57.4357 94.2111C57.4328 94.227 57.4321 94.2429 57.4306 94.2588C56.7922 95.61 55.8593 96.7834 54.7108 97.7003Z" fill="white" stroke="black" stroke-width="1.2"/>
<path d="M48.1934 82.1357C49.6269 81.9897 50.9905 82.9912 51.0705 84.4717C50.7791 86.4919 50.7646 88.6277 50.4717 90.6371C50.2401 92.2274 48.5353 93.0887 47.2144 92.0619C46.6112 91.593 46.516 91.0258 46.4229 90.3127C46.205 88.6487 45.9432 86.5092 45.8804 84.8532C45.8256 83.4059 46.7375 82.2838 48.1934 82.1357ZM48.1912 82.9991C47.2497 83.1263 46.7187 83.8206 46.744 84.7455C46.7974 86.6971 47.2714 88.8076 47.3637 90.7773C47.7187 91.9528 49.2842 91.9203 49.5959 90.7339C49.6875 88.7823 50.1276 86.7332 50.2019 84.7968C50.2466 83.6292 49.3455 82.8438 48.1912 82.9998V82.9991Z" fill="black"/>
<path d="M48.192 93.3837C51.1526 93.0397 51.4781 97.4834 48.6624 97.6952C45.8468 97.9069 45.4939 93.6974 48.192 93.3837ZM48.2439 94.2473C46.6478 94.501 46.9508 97.0404 48.6588 96.8258C50.3668 96.6112 50.0082 93.9669 48.2439 94.2473Z" fill="black"/>
<path d="M45.4176 119.373C46.8327 119.57 48.1297 120.283 49.1118 121.269C49.5864 121.125 50.0189 120.861 50.4997 120.728C56.8265 118.966 61.3668 126.782 55.6775 131.226C53.6963 132.774 50.7446 134.917 48.6002 136.201C47.5017 136.859 46.4747 137.018 45.4885 136.023C43.7157 133.337 41.1161 130.767 39.4246 128.078C36.8046 123.913 40.4872 118.687 45.4176 119.373Z" stroke="black" stroke-width="1.2"/>
<path d="M53.6253 123.282C54.606 123.653 55.7187 124.766 55.4804 126.494" stroke="black" stroke-width="1.2" stroke-linecap="round"/>
<g filter="url(#filter2_d_615_771)">
<path d="M47.3798 159.082L49.4105 164.043L53.9178 165.979C54.2135 166.16 54.2555 166.77 54.1117 167.044C53.8597 167.525 50.123 168.675 49.4251 169.155C48.6044 170.391 48.3007 172.874 47.4752 173.965C46.774 174.89 46.2974 173.778 46.0341 173.219C45.4461 171.97 45.123 170.477 44.5026 169.223L39.9824 167.261C39.4638 166.883 39.6431 166.244 40.1439 165.923C41.1068 165.304 43.6997 164.763 44.4234 164.038C45.1278 163.316 45.9323 159.328 46.711 159.088C46.879 159.037 47.2393 159.002 47.3798 159.082Z" fill="white"/>
<path d="M46.4673 156.604C46.5102 156.606 46.557 156.61 46.604 156.62C46.6232 156.623 46.6517 156.63 46.6851 156.641L46.7964 156.689L46.9517 156.778L47.0151 156.944L49.3931 163.117L53.147 163.895L53.2319 163.913L53.3062 163.958C53.4372 164.039 53.5305 164.161 53.5845 164.238C53.6487 164.33 53.7104 164.438 53.7681 164.548C53.884 164.771 54.0007 165.043 54.1001 165.312C54.1992 165.58 54.2868 165.861 54.3403 166.101C54.3668 166.22 54.3879 166.342 54.395 166.455C54.4004 166.54 54.4071 166.722 54.3198 166.889C54.2599 167.004 54.1733 167.087 54.1108 167.14C54.0422 167.198 53.9644 167.252 53.8862 167.3C53.7298 167.397 53.5345 167.495 53.3228 167.593C52.8975 167.79 52.3548 168.006 51.812 168.216C51.2625 168.43 50.7137 168.637 50.2515 168.825C49.8505 168.987 49.5617 169.118 49.4038 169.207C49.0578 169.773 48.7987 170.611 48.5142 171.535C48.3695 172.004 48.2191 172.488 48.0493 172.926C47.8808 173.362 47.6814 173.784 47.4272 174.121V174.122C47.2053 174.415 46.9342 174.635 46.604 174.7C46.2635 174.767 45.9696 174.648 45.7554 174.496C45.4581 174.284 45.2318 173.949 45.0786 173.67L44.9497 173.417C44.6242 172.724 44.4126 171.929 44.2114 171.192C44.023 170.502 43.8415 169.857 43.5874 169.295L39.0962 167.341L39.0454 167.319L39.0015 167.286C38.8054 167.142 38.6055 166.914 38.4351 166.675C38.2593 166.429 38.0892 166.136 37.9624 165.836C37.8389 165.545 37.739 165.207 37.7466 164.882C37.7544 164.549 37.8842 164.182 38.2534 163.965L38.2524 163.964C38.612 163.732 39.136 163.641 39.6245 163.591C40.1363 163.539 40.7257 163.525 41.2778 163.507C41.8429 163.489 42.3695 163.468 42.7983 163.409C43.0117 163.379 43.1845 163.343 43.3159 163.298C43.4506 163.253 43.506 163.21 43.5229 163.194C43.5403 163.174 43.5828 163.113 43.6304 162.972C43.6786 162.83 43.7204 162.644 43.7573 162.42C43.8316 161.97 43.8746 161.428 43.9224 160.87C43.9687 160.327 44.0202 159.76 44.1157 159.312C44.1633 159.089 44.2287 158.864 44.3257 158.675C44.3736 158.582 44.4405 158.476 44.5337 158.382C44.6101 157.593 45.0192 157.105 45.4878 156.846C45.7325 156.711 45.9806 156.645 46.1821 156.618C46.2831 156.604 46.3807 156.6 46.4673 156.604Z" fill="black" stroke="black"/>
<path d="M46.0167 156.284C46.0803 156.292 46.1661 156.308 46.255 156.344L46.3448 156.387L46.4952 156.473L46.5607 156.633L48.5782 161.576L53.0421 163.499L53.0753 163.514L53.1056 163.532C53.4505 163.744 53.572 164.137 53.6095 164.403C53.6487 164.683 53.6258 165.027 53.4874 165.292C53.4275 165.407 53.3409 165.49 53.2784 165.543C53.2098 165.601 53.1319 165.655 53.0538 165.703C52.8975 165.799 52.702 165.898 52.4904 165.996C52.0651 166.193 51.5224 166.408 50.9796 166.619C50.4302 166.832 49.8813 167.04 49.4191 167.228C49.0182 167.39 48.7294 167.52 48.5714 167.609C48.2254 168.176 47.9664 169.014 47.6818 169.938C47.5371 170.407 47.3867 170.89 47.2169 171.329C47.0484 171.764 46.849 172.187 46.5948 172.523V172.524C46.3789 172.81 46.1036 173.043 45.754 173.084C45.3913 173.126 45.112 172.944 44.9347 172.771C44.7574 172.599 44.6192 172.379 44.5157 172.19C44.4105 171.999 44.3199 171.799 44.256 171.663C43.9381 170.986 43.6936 170.247 43.4572 169.545C43.2376 168.893 43.0222 168.27 42.756 167.699L38.2638 165.744L38.213 165.722L38.1681 165.688C37.7494 165.382 37.583 164.931 37.6593 164.486C37.731 164.07 38.0046 163.709 38.3595 163.48L38.5978 163.342C38.8524 163.206 39.1506 163.081 39.4552 162.964C39.8654 162.806 40.3291 162.649 40.7638 162.495C41.2063 162.338 41.6244 162.184 41.9747 162.025C42.3371 161.862 42.5737 161.716 42.6925 161.597C42.7305 161.556 42.7942 161.464 42.8781 161.299C42.9612 161.135 43.0493 160.929 43.1427 160.688C43.3307 160.205 43.5232 159.626 43.7257 159.039C43.9244 158.463 44.134 157.876 44.3488 157.416C44.4558 157.187 44.5726 156.969 44.7013 156.793C44.8187 156.632 45.0003 156.43 45.2599 156.35H45.2609C45.3974 156.308 45.578 156.281 45.7433 156.274C45.8284 156.271 45.9235 156.272 46.0167 156.284Z" fill="#83F6AD" stroke="black"/>
</g>
<g filter="url(#filter3_d_615_771)">
<path d="M57.6734 152.628L58.686 155.108L60.9334 156.076C61.0808 156.166 61.1017 156.472 61.03 156.609C60.9044 156.849 59.0412 157.424 58.6932 157.664C58.284 158.282 58.1326 159.524 57.721 160.069C57.3714 160.532 57.1337 159.976 57.0024 159.696C56.7092 159.072 56.5481 158.325 56.2388 157.698L53.985 156.717C53.7264 156.528 53.8158 156.209 54.0655 156.048C54.5456 155.739 55.8385 155.468 56.1993 155.106C56.5505 154.745 56.9517 152.75 57.3399 152.631C57.4237 152.605 57.6033 152.588 57.6734 152.628Z" fill="white"/>
<path d="M57.0657 151.727C57.239 151.659 57.3972 151.695 57.4593 151.711C57.6005 151.75 57.7332 151.83 57.8001 151.872C57.8409 151.897 57.8773 151.921 57.9026 151.938C57.9418 151.964 57.934 151.96 57.9212 151.953L58.0794 152.042L58.1429 152.212L59.0687 154.703L60.7757 155.233L60.8362 155.251L60.89 155.284C60.9773 155.337 61.0393 155.407 61.0735 155.448C61.1138 155.496 61.1506 155.548 61.1829 155.598C61.2479 155.699 61.3112 155.817 61.3646 155.932C61.4172 156.046 61.4678 156.172 61.5003 156.292C61.5163 156.35 61.5328 156.422 61.5384 156.498C61.5428 156.556 61.5478 156.697 61.473 156.84C61.4213 156.939 61.3503 157.005 61.3099 157.04C61.2634 157.079 61.2142 157.112 61.1702 157.139C61.0819 157.194 60.9764 157.246 60.8704 157.295C60.6568 157.394 60.3881 157.501 60.1263 157.603C59.8575 157.707 59.5963 157.805 59.3753 157.895C59.2659 157.939 59.1726 157.979 59.0989 158.013C59.0818 158.021 59.066 158.029 59.0521 158.036C58.9232 158.273 58.8163 158.618 58.6859 159.042C58.6164 159.267 58.5412 159.509 58.4554 159.731C58.3708 159.95 58.2645 160.18 58.1204 160.371H58.1194C57.9909 160.541 57.8108 160.7 57.5657 160.749C57.3107 160.799 57.0977 160.707 56.9564 160.606C56.7682 160.472 56.6341 160.271 56.5501 160.118L56.4827 159.985C56.314 159.625 56.2061 159.218 56.1107 158.868C56.0292 158.569 55.9534 158.307 55.8597 158.079L53.7855 157.176L53.7347 157.154L53.6898 157.121C53.4091 156.915 53.2884 156.6 53.3421 156.288C53.3911 156.003 53.5736 155.77 53.7952 155.627H53.7962C53.9624 155.521 54.1739 155.431 54.3714 155.355C54.5738 155.277 54.8044 155.198 55.0101 155.125C55.2236 155.05 55.4171 154.978 55.5755 154.907C55.7394 154.833 55.8167 154.779 55.8421 154.755C55.8484 154.746 55.8632 154.721 55.887 154.674C55.9217 154.606 55.9615 154.515 56.0052 154.403C56.0937 154.175 56.184 153.903 56.2835 153.615C56.3791 153.338 56.4839 153.042 56.5941 152.806C56.6394 152.709 56.6932 152.609 56.7532 152.518C56.7278 152.434 56.7009 152.32 56.7142 152.197C56.7325 152.027 56.8324 151.819 57.0657 151.727Z" fill="black" stroke="black"/>
<path d="M57.265 151.71C57.3063 151.715 57.3722 151.727 57.4447 151.756L57.5189 151.791L57.6683 151.877L57.7338 152.037L58.6693 154.327L60.7289 155.215L60.7621 155.229L60.7924 155.248C61.0586 155.411 61.1349 155.699 61.1566 155.854C61.1802 156.021 61.1708 156.247 61.0707 156.438C61.0191 156.537 60.948 156.603 60.9076 156.638C60.8612 156.677 60.8119 156.71 60.7679 156.737C60.6796 156.792 60.5741 156.845 60.4681 156.894C60.2545 156.992 59.9858 157.1 59.724 157.201C59.4552 157.306 59.1941 157.404 58.973 157.493C58.8636 157.538 58.7704 157.577 58.6967 157.611C58.6795 157.619 58.6637 157.627 58.6498 157.634C58.5209 157.871 58.414 158.216 58.2836 158.64C58.2141 158.865 58.1389 159.107 58.0531 159.329C57.9685 159.548 57.8622 159.778 57.7181 159.969H57.7172C57.5947 160.131 57.406 160.308 57.1351 160.34C56.8508 160.373 56.6421 160.228 56.5287 160.118C56.4154 160.008 56.3347 159.875 56.2806 159.776C56.2248 159.675 56.1766 159.568 56.1478 159.507C55.9866 159.163 55.8633 158.791 55.7504 158.456C55.6553 158.174 55.5653 157.915 55.4613 157.678L53.3832 156.773L53.3324 156.752L53.2875 156.719C53.0068 156.513 52.8862 156.198 52.9398 155.886C52.9888 155.601 53.1713 155.368 53.3929 155.226H53.3939C53.5602 155.119 53.7716 155.028 53.9691 154.952C54.1715 154.874 54.4021 154.796 54.6078 154.724C54.8213 154.648 55.0148 154.577 55.1732 154.505C55.3391 154.43 55.4154 154.375 55.4398 154.352C55.4466 154.341 55.4619 154.317 55.4847 154.272C55.5194 154.204 55.5592 154.114 55.6029 154.001C55.6914 153.773 55.7817 153.501 55.8812 153.213C55.9768 152.936 56.0816 152.641 56.1918 152.404C56.2466 152.287 56.3116 152.164 56.3881 152.06C56.4533 151.97 56.5827 151.815 56.7904 151.751H56.7914C56.8831 151.723 56.9935 151.707 57.0902 151.703C57.141 151.701 57.2019 151.702 57.265 151.71Z" fill="#83F6AD" stroke="black"/>
</g>
<defs>
<filter id="filter0_d_615_771" x="16.6415" y="12.687" width="62.1523" height="224.802" filterUnits="userSpaceOnUse" color-interpolation-filters="sRGB">
<feFlood flood-opacity="0" result="BackgroundImageFix"/>
<feColorMatrix in="SourceAlpha" type="matrix" values="0 0 0 0 0 0 0 0 0 0 0 0 0 0 0 0 0 0 127 0" result="hardAlpha"/>
<feOffset dy="4"/>
<feGaussianBlur stdDeviation="5.25"/>
<feComposite in2="hardAlpha" operator="out"/>
<feColorMatrix type="matrix" values="0 0 0 0 0 0 0 0 0 0 0 0 0 0 0 0 0 0 0.19 0"/>
<feBlend mode="normal" in2="BackgroundImageFix" result="effect1_dropShadow_615_771"/>
<feBlend mode="normal" in="SourceGraphic" in2="effect1_dropShadow_615_771" result="shape"/>
</filter>
<filter id="filter1_d_615_771" x="0" y="0" width="96.4147" height="99.6631" filterUnits="userSpaceOnUse" color-interpolation-filters="sRGB">
<feFlood flood-opacity="0" result="BackgroundImageFix"/>
<feColorMatrix in="SourceAlpha" type="matrix" values="0 0 0 0 0 0 0 0 0 0 0 0 0 0 0 0 0 0 127 0" result="hardAlpha"/>
<feOffset dy="4"/>
<feGaussianBlur stdDeviation="17"/>
<feComposite in2="hardAlpha" operator="out"/>
<feColorMatrix type="matrix" values="0 0 0 0 0 0 0 0 0 0 0 0 0 0 0 0 0 0 0.1 0"/>
<feBlend mode="normal" in2="BackgroundImageFix" result="effect1_dropShadow_615_771"/>
<feBlend mode="normal" in="SourceGraphic" in2="effect1_dropShadow_615_771" result="shape"/>
</filter>
<filter id="filter2_d_615_771" x="37.1417" y="155.772" width="18.7565" height="20.4463" filterUnits="userSpaceOnUse" color-interpolation-filters="sRGB">
<feFlood flood-opacity="0" result="BackgroundImageFix"/>
<feColorMatrix in="SourceAlpha" type="matrix" values="0 0 0 0 0 0 0 0 0 0 0 0 0 0 0 0 0 0 127 0" result="hardAlpha"/>
<feOffset dx="1" dy="1"/>
<feComposite in2="hardAlpha" operator="out"/>
<feColorMatrix type="matrix" values="0 0 0 0 0 0 0 0 0 0 0 0 0 0 0 0 0 0 0.17 0"/>
<feBlend mode="normal" in2="BackgroundImageFix" result="effect1_dropShadow_615_771"/>
<feBlend mode="normal" in="SourceGraphic" in2="effect1_dropShadow_615_771" result="shape"/>
</filter>
<filter id="filter3_d_615_771" x="52.4271" y="151.187" width="10.6133" height="11.0752" filterUnits="userSpaceOnUse" color-interpolation-filters="sRGB">
<feFlood flood-opacity="0" result="BackgroundImageFix"/>
<feColorMatrix in="SourceAlpha" type="matrix" values="0 0 0 0 0 0 0 0 0 0 0 0 0 0 0 0 0 0 127 0" result="hardAlpha"/>
<feOffset dx="1" dy="1"/>
<feComposite in2="hardAlpha" operator="out"/>
<feColorMatrix type="matrix" values="0 0 0 0 0 0 0 0 0 0 0 0 0 0 0 0 0 0 0.17 0"/>
<feBlend mode="normal" in2="BackgroundImageFix" result="effect1_dropShadow_615_771"/>
<feBlend mode="normal" in="SourceGraphic" in2="effect1_dropShadow_615_771" result="shape"/>
</filter>
</defs>
</svg>
