<svg width="418" height="473" viewBox="0 0 418 473" fill="none" xmlns="http://www.w3.org/2000/svg">
<g filter="url(#filter0_d_615_771)">
<path d="M55.3 66.2998C55.3 57.4632 62.4635 50.2998 71.3 50.2998H346.599C355.436 50.2998 362.599 57.4632 362.599 66.2998V134.407V149.108V153.8V395.8C362.599 404.636 355.436 411.8 346.599 411.8H71.3C62.4635 411.8 55.3 404.636 55.3 395.8V66.2998Z" fill="white"/>
<path d="M71.3 50.5498H346.599C355.297 50.5498 362.349 57.6013 362.349 66.2998V395.8C362.349 404.498 355.297 411.55 346.599 411.55H71.3C62.6016 411.55 55.55 404.498 55.55 395.8V66.2998L55.5549 65.8936C55.7704 57.3828 62.7374 50.5498 71.3 50.5498Z" stroke="#D4D4D4" stroke-width="0.5"/>
</g>
<path d="M110.998 112.42V115.3H102.358V112.42H105.198V107.32C105.078 107.48 104.892 107.64 104.638 107.8C104.385 107.96 104.098 108.113 103.778 108.26C103.472 108.406 103.158 108.526 102.838 108.62C102.518 108.7 102.225 108.74 101.958 108.74V105.78C102.185 105.78 102.465 105.713 102.798 105.58C103.132 105.433 103.465 105.253 103.798 105.04C104.145 104.826 104.445 104.613 104.698 104.4C104.965 104.186 105.132 104.013 105.198 103.88H108.458V112.42H110.998ZM122.83 109.44C122.83 110.613 122.603 111.66 122.15 112.58C121.697 113.486 121.077 114.2 120.29 114.72C119.503 115.24 118.61 115.5 117.61 115.5C116.623 115.5 115.73 115.24 114.93 114.72C114.143 114.2 113.523 113.486 113.07 112.58C112.617 111.66 112.39 110.613 112.39 109.44C112.39 108.266 112.617 107.226 113.07 106.32C113.523 105.4 114.143 104.68 114.93 104.16C115.73 103.626 116.623 103.36 117.61 103.36C118.61 103.36 119.503 103.626 120.29 104.16C121.077 104.68 121.697 105.4 122.15 106.32C122.603 107.226 122.83 108.266 122.83 109.44ZM119.61 109.44C119.61 108.813 119.523 108.266 119.35 107.8C119.177 107.333 118.937 106.966 118.63 106.7C118.337 106.433 117.997 106.3 117.61 106.3C117.21 106.3 116.857 106.433 116.55 106.7C116.243 106.966 116.003 107.333 115.83 107.8C115.67 108.266 115.59 108.813 115.59 109.44C115.59 110.066 115.67 110.613 115.83 111.08C116.003 111.546 116.243 111.913 116.55 112.18C116.857 112.433 117.21 112.56 117.61 112.56C117.997 112.56 118.337 112.433 118.63 112.18C118.937 111.913 119.177 111.546 119.35 111.08C119.523 110.613 119.61 110.066 119.61 109.44ZM136.163 115.5C135.376 115.5 134.69 115.333 134.103 115C133.516 114.653 133.056 114.186 132.723 113.6V119.56H129.523V104.8H132.303V106.5C132.69 105.9 133.176 105.433 133.763 105.1C134.35 104.766 135.036 104.6 135.823 104.6C136.53 104.6 137.176 104.74 137.763 105.02C138.363 105.3 138.883 105.686 139.323 106.18C139.763 106.673 140.103 107.246 140.343 107.9C140.583 108.553 140.703 109.26 140.703 110.02C140.703 111.06 140.51 111.993 140.123 112.82C139.736 113.646 139.196 114.3 138.503 114.78C137.823 115.26 137.043 115.5 136.163 115.5ZM135.083 112.8C135.43 112.8 135.743 112.726 136.023 112.58C136.316 112.42 136.57 112.213 136.783 111.96C136.996 111.706 137.156 111.413 137.263 111.08C137.383 110.733 137.443 110.373 137.443 110C137.443 109.613 137.376 109.26 137.243 108.94C137.123 108.62 136.95 108.34 136.723 108.1C136.496 107.846 136.23 107.653 135.923 107.52C135.616 107.386 135.283 107.32 134.923 107.32C134.71 107.32 134.49 107.353 134.263 107.42C134.05 107.486 133.843 107.586 133.643 107.72C133.456 107.84 133.283 107.986 133.123 108.16C132.963 108.333 132.83 108.533 132.723 108.76V110.92C132.87 111.28 133.063 111.6 133.303 111.88C133.543 112.16 133.816 112.386 134.123 112.56C134.43 112.72 134.75 112.8 135.083 112.8ZM148.976 107.54C148.203 107.54 147.503 107.666 146.876 107.92C146.249 108.16 145.796 108.52 145.516 109V115.3H142.316V104.8H145.256V106.92C145.616 106.213 146.083 105.66 146.656 105.26C147.229 104.86 147.829 104.653 148.456 104.64C148.603 104.64 148.709 104.64 148.776 104.64C148.856 104.64 148.923 104.646 148.976 104.66V107.54ZM155.246 115.5C154.352 115.5 153.552 115.353 152.846 115.06C152.152 114.766 151.566 114.366 151.086 113.86C150.606 113.353 150.239 112.773 149.986 112.12C149.746 111.466 149.626 110.78 149.626 110.06C149.626 109.326 149.746 108.633 149.986 107.98C150.239 107.326 150.606 106.746 151.086 106.24C151.566 105.733 152.152 105.333 152.846 105.04C153.552 104.746 154.352 104.6 155.246 104.6C156.139 104.6 156.932 104.746 157.626 105.04C158.319 105.333 158.906 105.733 159.386 106.24C159.866 106.746 160.232 107.326 160.486 107.98C160.739 108.633 160.866 109.326 160.866 110.06C160.866 110.78 160.739 111.466 160.486 112.12C160.232 112.773 159.866 113.353 159.386 113.86C158.906 114.366 158.319 114.766 157.626 115.06C156.932 115.353 156.139 115.5 155.246 115.5ZM152.906 110.06C152.906 110.606 153.006 111.086 153.206 111.5C153.419 111.913 153.699 112.233 154.046 112.46C154.392 112.686 154.792 112.8 155.246 112.8C155.686 112.8 156.079 112.686 156.426 112.46C156.786 112.22 157.066 111.893 157.266 111.48C157.466 111.066 157.566 110.593 157.566 110.06C157.566 109.513 157.466 109.033 157.266 108.62C157.066 108.206 156.786 107.886 156.426 107.66C156.079 107.433 155.686 107.32 155.246 107.32C154.792 107.32 154.392 107.433 154.046 107.66C153.699 107.886 153.419 108.206 153.206 108.62C153.006 109.033 152.906 109.513 152.906 110.06ZM168.753 115.5C167.953 115.5 167.253 115.333 166.653 115C166.053 114.653 165.579 114.173 165.233 113.56V115.3H162.453V100.7H165.653V106.52C165.999 105.906 166.459 105.433 167.033 105.1C167.619 104.766 168.306 104.6 169.093 104.6C169.759 104.6 170.366 104.746 170.913 105.04C171.473 105.32 171.953 105.713 172.353 106.22C172.766 106.713 173.086 107.293 173.313 107.96C173.539 108.613 173.653 109.326 173.653 110.1C173.653 110.86 173.526 111.566 173.273 112.22C173.033 112.873 172.693 113.446 172.253 113.94C171.813 114.433 171.293 114.82 170.693 115.1C170.106 115.366 169.459 115.5 168.753 115.5ZM167.853 112.8C168.213 112.8 168.546 112.733 168.853 112.6C169.173 112.453 169.446 112.26 169.673 112.02C169.899 111.78 170.073 111.5 170.193 111.18C170.313 110.846 170.373 110.486 170.373 110.1C170.373 109.606 170.273 109.146 170.073 108.72C169.873 108.293 169.593 107.953 169.233 107.7C168.886 107.446 168.479 107.32 168.013 107.32C167.679 107.32 167.359 107.4 167.053 107.56C166.746 107.72 166.473 107.94 166.233 108.22C165.993 108.486 165.799 108.793 165.653 109.14V111.34C165.759 111.566 165.893 111.773 166.053 111.96C166.213 112.133 166.386 112.28 166.573 112.4C166.773 112.52 166.979 112.62 167.193 112.7C167.419 112.766 167.639 112.8 167.853 112.8ZM175.206 100.7H178.406V111.56C178.406 112 178.486 112.313 178.646 112.5C178.806 112.686 179.032 112.78 179.326 112.78C179.526 112.78 179.726 112.753 179.926 112.7C180.139 112.633 180.326 112.56 180.486 112.48L180.906 114.88C180.506 115.066 180.046 115.213 179.526 115.32C179.006 115.426 178.519 115.48 178.066 115.48C177.159 115.48 176.452 115.24 175.946 114.76C175.452 114.266 175.206 113.573 175.206 112.68V100.7ZM186.965 115.5C186.072 115.5 185.278 115.36 184.585 115.08C183.892 114.786 183.298 114.393 182.805 113.9C182.325 113.406 181.958 112.84 181.705 112.2C181.452 111.546 181.325 110.866 181.325 110.16C181.325 109.146 181.545 108.226 181.985 107.4C182.438 106.56 183.085 105.886 183.925 105.38C184.765 104.86 185.778 104.6 186.965 104.6C188.152 104.6 189.158 104.853 189.985 105.36C190.825 105.866 191.465 106.533 191.905 107.36C192.345 108.173 192.565 109.06 192.565 110.02C192.565 110.206 192.552 110.393 192.525 110.58C192.512 110.753 192.498 110.906 192.485 111.04H184.725C184.765 111.506 184.892 111.9 185.105 112.22C185.332 112.54 185.618 112.786 185.965 112.96C186.312 113.12 186.678 113.2 187.065 113.2C187.545 113.2 187.992 113.086 188.405 112.86C188.832 112.633 189.125 112.326 189.285 111.94L192.005 112.7C191.738 113.246 191.358 113.733 190.865 114.16C190.385 114.573 189.812 114.9 189.145 115.14C188.492 115.38 187.765 115.5 186.965 115.5ZM184.645 109.08H189.205C189.152 108.64 189.025 108.26 188.825 107.94C188.625 107.606 188.358 107.353 188.025 107.18C187.692 106.993 187.325 106.9 186.925 106.9C186.512 106.9 186.138 106.993 185.805 107.18C185.485 107.353 185.225 107.606 185.025 107.94C184.825 108.26 184.698 108.64 184.645 109.08ZM184.205 100.7H187.105L188.145 103.3L186.125 103.86L184.205 100.7ZM210.615 115.3H207.415V109.4C207.415 108.72 207.289 108.22 207.035 107.9C206.782 107.58 206.455 107.42 206.055 107.42C205.629 107.42 205.209 107.593 204.795 107.94C204.382 108.286 204.089 108.733 203.915 109.28V115.3H200.715V109.4C200.715 108.706 200.589 108.206 200.335 107.9C200.082 107.58 199.755 107.42 199.355 107.42C198.942 107.42 198.529 107.593 198.115 107.94C197.702 108.286 197.402 108.733 197.215 109.28V115.3H194.015V104.8H196.895V106.56C197.282 105.933 197.802 105.453 198.455 105.12C199.122 104.773 199.895 104.6 200.775 104.6C201.642 104.6 202.309 104.806 202.775 105.22C203.242 105.62 203.542 106.093 203.675 106.64C204.075 105.986 204.602 105.486 205.255 105.14C205.922 104.78 206.669 104.6 207.495 104.6C208.162 104.6 208.702 104.726 209.115 104.98C209.529 105.22 209.842 105.54 210.055 105.94C210.269 106.34 210.415 106.773 210.495 107.24C210.575 107.693 210.615 108.14 210.615 108.58V115.3ZM217.727 115.5C216.833 115.5 216.04 115.36 215.347 115.08C214.653 114.786 214.06 114.393 213.567 113.9C213.087 113.406 212.72 112.84 212.467 112.2C212.213 111.546 212.087 110.866 212.087 110.16C212.087 109.146 212.307 108.226 212.747 107.4C213.2 106.56 213.847 105.886 214.687 105.38C215.527 104.86 216.54 104.6 217.727 104.6C218.913 104.6 219.92 104.853 220.747 105.36C221.587 105.866 222.227 106.533 222.667 107.36C223.107 108.173 223.327 109.06 223.327 110.02C223.327 110.206 223.313 110.393 223.287 110.58C223.273 110.753 223.26 110.906 223.247 111.04H215.487C215.527 111.506 215.653 111.9 215.867 112.22C216.093 112.54 216.38 112.786 216.727 112.96C217.073 113.12 217.44 113.2 217.827 113.2C218.307 113.2 218.753 113.086 219.167 112.86C219.593 112.633 219.887 112.326 220.047 111.94L222.767 112.7C222.5 113.246 222.12 113.733 221.627 114.16C221.147 114.573 220.573 114.9 219.907 115.14C219.253 115.38 218.527 115.5 217.727 115.5ZM215.407 109.08H219.967C219.913 108.64 219.787 108.26 219.587 107.94C219.387 107.606 219.12 107.353 218.787 107.18C218.453 106.993 218.087 106.9 217.687 106.9C217.273 106.9 216.9 106.993 216.567 107.18C216.247 107.353 215.987 107.606 215.787 107.94C215.587 108.26 215.46 108.64 215.407 109.08ZM228.797 115.5C227.904 115.5 227.03 115.353 226.177 115.06C225.324 114.766 224.604 114.333 224.017 113.76L225.117 111.74C225.757 112.206 226.377 112.56 226.977 112.8C227.59 113.04 228.164 113.16 228.697 113.16C229.11 113.16 229.43 113.093 229.657 112.96C229.884 112.826 229.997 112.62 229.997 112.34C229.997 112.14 229.93 111.986 229.797 111.88C229.664 111.76 229.457 111.653 229.177 111.56C228.91 111.466 228.577 111.366 228.177 111.26C227.377 110.993 226.71 110.733 226.177 110.48C225.644 110.226 225.244 109.92 224.977 109.56C224.71 109.186 224.577 108.706 224.577 108.12C224.577 107.413 224.75 106.8 225.097 106.28C225.457 105.746 225.964 105.333 226.617 105.04C227.27 104.746 228.05 104.6 228.957 104.6C229.677 104.6 230.377 104.713 231.057 104.94C231.75 105.166 232.397 105.546 232.997 106.08L231.757 108.08C231.157 107.666 230.624 107.366 230.157 107.18C229.69 106.993 229.237 106.9 228.797 106.9C228.57 106.9 228.364 106.926 228.177 106.98C227.99 107.033 227.837 107.126 227.717 107.26C227.61 107.38 227.557 107.54 227.557 107.74C227.557 107.94 227.61 108.1 227.717 108.22C227.837 108.34 228.017 108.446 228.257 108.54C228.51 108.62 228.824 108.72 229.197 108.84C230.064 109.093 230.784 109.353 231.357 109.62C231.93 109.873 232.357 110.193 232.637 110.58C232.93 110.953 233.077 111.453 233.077 112.08C233.077 113.146 232.69 113.986 231.917 114.6C231.157 115.2 230.117 115.5 228.797 115.5Z" fill="#182C39"/>
<path d="M243.556 115.5C242.729 115.5 241.963 115.36 241.256 115.08C240.549 114.8 239.929 114.373 239.396 113.8L239.856 113.1C240.429 113.646 241.009 114.046 241.596 114.3C242.183 114.54 242.823 114.66 243.516 114.66C244.409 114.66 245.129 114.473 245.676 114.1C246.236 113.726 246.516 113.206 246.516 112.54C246.516 112.086 246.383 111.74 246.116 111.5C245.863 111.246 245.489 111.046 244.996 110.9C244.516 110.74 243.929 110.573 243.236 110.4C242.529 110.213 241.929 110.02 241.436 109.82C240.956 109.62 240.596 109.36 240.356 109.04C240.116 108.72 239.996 108.286 239.996 107.74C239.996 107.06 240.163 106.5 240.496 106.06C240.843 105.606 241.303 105.273 241.876 105.06C242.463 104.833 243.109 104.72 243.816 104.72C244.629 104.72 245.336 104.853 245.936 105.12C246.549 105.386 247.016 105.74 247.336 106.18L246.796 106.82C246.463 106.393 246.029 106.08 245.496 105.88C244.963 105.666 244.376 105.56 243.736 105.56C243.256 105.56 242.803 105.626 242.376 105.76C241.949 105.893 241.603 106.113 241.336 106.42C241.083 106.713 240.956 107.113 240.956 107.62C240.956 108.02 241.049 108.333 241.236 108.56C241.436 108.786 241.729 108.973 242.116 109.12C242.503 109.253 242.983 109.4 243.556 109.56C244.369 109.76 245.069 109.966 245.656 110.18C246.243 110.393 246.696 110.673 247.016 111.02C247.336 111.353 247.496 111.826 247.496 112.44C247.496 113.386 247.136 114.133 246.416 114.68C245.696 115.226 244.743 115.5 243.556 115.5ZM249.846 115.3V104.9H250.846V115.3H249.846ZM249.846 102.54V100.7H250.846V102.54H249.846ZM258.187 115.46C257.48 115.46 256.82 115.313 256.207 115.02C255.607 114.726 255.087 114.326 254.647 113.82C254.22 113.3 253.88 112.726 253.627 112.1C253.387 111.46 253.267 110.8 253.267 110.12C253.267 109.413 253.38 108.733 253.607 108.08C253.847 107.426 254.18 106.853 254.607 106.36C255.047 105.853 255.56 105.453 256.147 105.16C256.734 104.866 257.387 104.72 258.107 104.72C259.014 104.72 259.8 104.96 260.467 105.44C261.147 105.906 261.72 106.48 262.187 107.16V104.9H263.107V115.5C263.107 116.433 262.88 117.22 262.427 117.86C261.974 118.5 261.374 118.973 260.627 119.28C259.88 119.6 259.074 119.76 258.207 119.76C256.994 119.76 256.027 119.54 255.307 119.1C254.6 118.66 254.027 118.08 253.587 117.36L254.267 116.9C254.68 117.593 255.24 118.106 255.947 118.44C256.654 118.773 257.407 118.94 258.207 118.94C258.914 118.94 259.56 118.806 260.147 118.54C260.747 118.286 261.22 117.9 261.567 117.38C261.927 116.873 262.107 116.246 262.107 115.5V113.22C261.694 113.9 261.127 114.446 260.407 114.86C259.7 115.26 258.96 115.46 258.187 115.46ZM258.427 114.6C258.867 114.6 259.294 114.52 259.707 114.36C260.12 114.2 260.5 113.986 260.847 113.72C261.194 113.44 261.48 113.133 261.707 112.8C261.934 112.466 262.067 112.133 262.107 111.8V108.38C261.907 107.846 261.6 107.373 261.187 106.96C260.787 106.533 260.334 106.206 259.827 105.98C259.32 105.74 258.8 105.62 258.267 105.62C257.64 105.62 257.08 105.753 256.587 106.02C256.094 106.286 255.674 106.64 255.327 107.08C254.994 107.506 254.734 107.993 254.547 108.54C254.374 109.073 254.287 109.606 254.287 110.14C254.287 110.74 254.394 111.306 254.607 111.84C254.82 112.373 255.114 112.853 255.487 113.28C255.874 113.693 256.314 114.02 256.807 114.26C257.314 114.486 257.854 114.6 258.427 114.6ZM274.733 115.3H273.733V109.5C273.733 108.166 273.54 107.193 273.153 106.58C272.78 105.953 272.18 105.64 271.353 105.64C270.766 105.64 270.186 105.78 269.613 106.06C269.053 106.34 268.56 106.726 268.133 107.22C267.72 107.7 267.42 108.246 267.233 108.86V115.3H266.233V104.9H267.173V107.38C267.453 106.846 267.826 106.386 268.293 106C268.76 105.6 269.28 105.286 269.853 105.06C270.426 104.833 271.02 104.72 271.633 104.72C272.206 104.72 272.686 104.826 273.073 105.04C273.473 105.24 273.793 105.533 274.033 105.92C274.286 106.306 274.466 106.786 274.573 107.36C274.68 107.933 274.733 108.586 274.733 109.32V115.3ZM276.897 112.3C276.897 111.673 277.083 111.133 277.457 110.68C277.83 110.213 278.343 109.853 278.997 109.6C279.65 109.333 280.403 109.2 281.257 109.2C281.79 109.2 282.343 109.246 282.917 109.34C283.49 109.433 284.003 109.56 284.457 109.72V108.74C284.457 107.78 284.177 107.013 283.617 106.44C283.07 105.866 282.31 105.58 281.337 105.58C280.817 105.58 280.277 105.686 279.717 105.9C279.157 106.113 278.583 106.42 277.997 106.82L277.577 106.1C278.257 105.646 278.91 105.306 279.537 105.08C280.177 104.84 280.81 104.72 281.437 104.72C282.677 104.72 283.657 105.086 284.377 105.82C285.097 106.553 285.457 107.553 285.457 108.82V113.98C285.457 114.14 285.49 114.26 285.557 114.34C285.637 114.42 285.75 114.466 285.897 114.48V115.3C285.777 115.313 285.677 115.32 285.597 115.32C285.517 115.32 285.45 115.32 285.397 115.32C285.143 115.28 284.943 115.173 284.797 115C284.663 114.826 284.59 114.633 284.577 114.42V113.6C284.097 114.2 283.477 114.666 282.717 115C281.97 115.333 281.183 115.5 280.357 115.5C279.703 115.5 279.11 115.36 278.577 115.08C278.057 114.8 277.643 114.42 277.337 113.94C277.043 113.446 276.897 112.9 276.897 112.3ZM284.057 113.16C284.19 112.986 284.29 112.82 284.357 112.66C284.423 112.5 284.457 112.353 284.457 112.22V110.5C283.977 110.313 283.477 110.173 282.957 110.08C282.437 109.986 281.903 109.94 281.357 109.94C280.317 109.94 279.47 110.146 278.817 110.56C278.177 110.973 277.857 111.533 277.857 112.24C277.857 112.68 277.97 113.086 278.197 113.46C278.423 113.833 278.737 114.133 279.137 114.36C279.55 114.586 280.023 114.7 280.557 114.7C281.303 114.7 281.99 114.56 282.617 114.28C283.257 113.986 283.737 113.613 284.057 113.16ZM288.579 100.7H289.599V113.24C289.599 113.72 289.699 114.053 289.899 114.24C290.099 114.413 290.359 114.5 290.679 114.5C290.892 114.5 291.112 114.48 291.339 114.44C291.565 114.4 291.765 114.346 291.939 114.28L292.139 115.1C291.912 115.18 291.632 115.253 291.299 115.32C290.965 115.386 290.679 115.42 290.439 115.42C289.879 115.42 289.425 115.253 289.079 114.92C288.745 114.573 288.579 114.113 288.579 113.54V100.7ZM298.095 115.5C297.361 115.5 296.681 115.36 296.055 115.08C295.428 114.786 294.881 114.393 294.415 113.9C293.961 113.393 293.601 112.813 293.335 112.16C293.081 111.493 292.955 110.793 292.955 110.06C292.955 109.073 293.175 108.18 293.615 107.38C294.055 106.58 294.661 105.94 295.435 105.46C296.208 104.966 297.075 104.72 298.035 104.72C299.021 104.72 299.895 104.966 300.655 105.46C301.415 105.953 302.015 106.606 302.455 107.42C302.908 108.22 303.135 109.1 303.135 110.06C303.135 110.14 303.135 110.22 303.135 110.3C303.135 110.38 303.128 110.446 303.115 110.5H293.995C294.048 111.286 294.268 112 294.655 112.64C295.041 113.28 295.535 113.786 296.135 114.16C296.748 114.52 297.415 114.7 298.135 114.7C298.855 114.7 299.535 114.513 300.175 114.14C300.815 113.766 301.261 113.286 301.515 112.7L302.395 112.94C302.195 113.433 301.875 113.873 301.435 114.26C301.008 114.646 300.501 114.953 299.915 115.18C299.341 115.393 298.735 115.5 298.095 115.5ZM293.955 109.72H302.175C302.121 108.906 301.908 108.186 301.535 107.56C301.161 106.933 300.668 106.44 300.055 106.08C299.455 105.72 298.788 105.54 298.055 105.54C297.321 105.54 296.655 105.72 296.055 106.08C295.455 106.44 294.968 106.933 294.595 107.56C294.221 108.186 294.008 108.906 293.955 109.72ZM298.355 102.72L297.655 102.4L298.875 100.7H300.035L298.355 102.72ZM308.615 115.5C307.788 115.5 307.021 115.36 306.315 115.08C305.608 114.8 304.988 114.373 304.455 113.8L304.915 113.1C305.488 113.646 306.068 114.046 306.655 114.3C307.241 114.54 307.881 114.66 308.575 114.66C309.468 114.66 310.188 114.473 310.735 114.1C311.295 113.726 311.575 113.206 311.575 112.54C311.575 112.086 311.441 111.74 311.175 111.5C310.921 111.246 310.548 111.046 310.055 110.9C309.575 110.74 308.988 110.573 308.295 110.4C307.588 110.213 306.988 110.02 306.495 109.82C306.015 109.62 305.655 109.36 305.415 109.04C305.175 108.72 305.055 108.286 305.055 107.74C305.055 107.06 305.221 106.5 305.555 106.06C305.901 105.606 306.361 105.273 306.935 105.06C307.521 104.833 308.168 104.72 308.875 104.72C309.688 104.72 310.395 104.853 310.995 105.12C311.608 105.386 312.075 105.74 312.395 106.18L311.855 106.82C311.521 106.393 311.088 106.08 310.555 105.88C310.021 105.666 309.435 105.56 308.795 105.56C308.315 105.56 307.861 105.626 307.435 105.76C307.008 105.893 306.661 106.113 306.395 106.42C306.141 106.713 306.015 107.113 306.015 107.62C306.015 108.02 306.108 108.333 306.295 108.56C306.495 108.786 306.788 108.973 307.175 109.12C307.561 109.253 308.041 109.4 308.615 109.56C309.428 109.76 310.128 109.966 310.715 110.18C311.301 110.393 311.755 110.673 312.075 111.02C312.395 111.353 312.555 111.826 312.555 112.44C312.555 113.386 312.195 114.133 311.475 114.68C310.755 115.226 309.801 115.5 308.615 115.5ZM168.663 138.5C167.837 138.5 167.07 138.36 166.363 138.08C165.657 137.8 165.037 137.373 164.503 136.8L164.963 136.1C165.537 136.646 166.117 137.046 166.703 137.3C167.29 137.54 167.93 137.66 168.623 137.66C169.517 137.66 170.237 137.473 170.783 137.1C171.343 136.726 171.623 136.206 171.623 135.54C171.623 135.086 171.49 134.74 171.223 134.5C170.97 134.246 170.597 134.046 170.103 133.9C169.623 133.74 169.037 133.573 168.343 133.4C167.637 133.213 167.037 133.02 166.543 132.82C166.063 132.62 165.703 132.36 165.463 132.04C165.223 131.72 165.103 131.286 165.103 130.74C165.103 130.06 165.27 129.5 165.603 129.06C165.95 128.606 166.41 128.273 166.983 128.06C167.57 127.833 168.217 127.72 168.923 127.72C169.737 127.72 170.443 127.853 171.043 128.12C171.657 128.386 172.123 128.74 172.443 129.18L171.903 129.82C171.57 129.393 171.137 129.08 170.603 128.88C170.07 128.666 169.483 128.56 168.843 128.56C168.363 128.56 167.91 128.626 167.483 128.76C167.057 128.893 166.71 129.113 166.443 129.42C166.19 129.713 166.063 130.113 166.063 130.62C166.063 131.02 166.157 131.333 166.343 131.56C166.543 131.786 166.837 131.973 167.223 132.12C167.61 132.253 168.09 132.4 168.663 132.56C169.477 132.76 170.177 132.966 170.763 133.18C171.35 133.393 171.803 133.673 172.123 134.02C172.443 134.353 172.603 134.826 172.603 135.44C172.603 136.386 172.243 137.133 171.523 137.68C170.803 138.226 169.85 138.5 168.663 138.5ZM174.854 133.9V127.9H175.854V133.76C175.854 135.053 176.067 136.02 176.494 136.66C176.934 137.286 177.594 137.6 178.474 137.6C179.06 137.6 179.62 137.473 180.154 137.22C180.7 136.953 181.18 136.586 181.594 136.12C182.007 135.64 182.314 135.086 182.514 134.46V127.9H183.514V136.98C183.514 137.14 183.547 137.26 183.614 137.34C183.694 137.42 183.8 137.466 183.934 137.48V138.3C183.8 138.313 183.694 138.32 183.614 138.32C183.547 138.32 183.487 138.313 183.434 138.3C183.207 138.273 183.02 138.18 182.874 138.02C182.727 137.846 182.647 137.64 182.634 137.4L182.614 135.84C182.16 136.666 181.534 137.32 180.734 137.8C179.947 138.266 179.094 138.5 178.174 138.5C177.08 138.5 176.254 138.113 175.694 137.34C175.134 136.566 174.854 135.42 174.854 133.9ZM191.612 128.8C190.679 128.826 189.859 129.106 189.152 129.64C188.459 130.16 187.972 130.88 187.692 131.8V138.3H186.692V127.9H187.652V130.46C188.012 129.726 188.492 129.133 189.092 128.68C189.692 128.213 190.325 127.946 190.992 127.88C191.125 127.866 191.245 127.86 191.352 127.86C191.459 127.86 191.545 127.86 191.612 127.86V128.8ZM202.577 138.5C201.857 138.5 201.184 138.36 200.557 138.08C199.93 137.786 199.384 137.393 198.917 136.9C198.45 136.393 198.084 135.813 197.817 135.16C197.564 134.506 197.437 133.806 197.437 133.06C197.437 132.06 197.657 131.16 198.097 130.36C198.537 129.56 199.144 128.92 199.917 128.44C200.69 127.96 201.57 127.72 202.557 127.72C203.504 127.72 204.337 127.94 205.057 128.38C205.777 128.806 206.317 129.393 206.677 130.14L205.697 130.46C205.39 129.886 204.95 129.44 204.377 129.12C203.817 128.786 203.197 128.62 202.517 128.62C201.757 128.62 201.07 128.813 200.457 129.2C199.844 129.586 199.35 130.12 198.977 130.8C198.617 131.466 198.437 132.22 198.437 133.06C198.437 133.886 198.624 134.646 198.997 135.34C199.37 136.033 199.864 136.586 200.477 137C201.104 137.4 201.79 137.6 202.537 137.6C203.017 137.6 203.484 137.513 203.937 137.34C204.404 137.153 204.804 136.913 205.137 136.62C205.484 136.326 205.71 136.013 205.817 135.68L206.797 135.96C206.624 136.453 206.324 136.893 205.897 137.28C205.47 137.653 204.97 137.953 204.397 138.18C203.837 138.393 203.23 138.5 202.577 138.5ZM213.378 138.5C212.644 138.5 211.964 138.36 211.338 138.08C210.711 137.786 210.164 137.393 209.698 136.9C209.244 136.393 208.884 135.813 208.618 135.16C208.364 134.493 208.238 133.793 208.238 133.06C208.238 132.073 208.458 131.18 208.898 130.38C209.338 129.58 209.944 128.94 210.718 128.46C211.491 127.966 212.358 127.72 213.318 127.72C214.304 127.72 215.178 127.966 215.938 128.46C216.698 128.953 217.298 129.606 217.738 130.42C218.191 131.22 218.418 132.1 218.418 133.06C218.418 133.14 218.418 133.22 218.418 133.3C218.418 133.38 218.411 133.446 218.398 133.5H209.278C209.331 134.286 209.551 135 209.938 135.64C210.324 136.28 210.818 136.786 211.418 137.16C212.031 137.52 212.698 137.7 213.418 137.7C214.138 137.7 214.818 137.513 215.458 137.14C216.098 136.766 216.544 136.286 216.798 135.7L217.678 135.94C217.478 136.433 217.158 136.873 216.718 137.26C216.291 137.646 215.784 137.953 215.198 138.18C214.624 138.393 214.018 138.5 213.378 138.5ZM209.238 132.72H217.458C217.404 131.906 217.191 131.186 216.818 130.56C216.444 129.933 215.951 129.44 215.338 129.08C214.738 128.72 214.071 128.54 213.338 128.54C212.604 128.54 211.938 128.72 211.338 129.08C210.738 129.44 210.251 129.933 209.878 130.56C209.504 131.186 209.291 131.906 209.238 132.72ZM229.035 138.5C228.208 138.5 227.441 138.36 226.735 138.08C226.028 137.8 225.408 137.373 224.875 136.8L225.335 136.1C225.908 136.646 226.488 137.046 227.075 137.3C227.661 137.54 228.301 137.66 228.995 137.66C229.888 137.66 230.608 137.473 231.155 137.1C231.715 136.726 231.995 136.206 231.995 135.54C231.995 135.086 231.861 134.74 231.595 134.5C231.341 134.246 230.968 134.046 230.475 133.9C229.995 133.74 229.408 133.573 228.715 133.4C228.008 133.213 227.408 133.02 226.915 132.82C226.435 132.62 226.075 132.36 225.835 132.04C225.595 131.72 225.475 131.286 225.475 130.74C225.475 130.06 225.641 129.5 225.975 129.06C226.321 128.606 226.781 128.273 227.355 128.06C227.941 127.833 228.588 127.72 229.295 127.72C230.108 127.72 230.815 127.853 231.415 128.12C232.028 128.386 232.495 128.74 232.815 129.18L232.275 129.82C231.941 129.393 231.508 129.08 230.975 128.88C230.441 128.666 229.855 128.56 229.215 128.56C228.735 128.56 228.281 128.626 227.855 128.76C227.428 128.893 227.081 129.113 226.815 129.42C226.561 129.713 226.435 130.113 226.435 130.62C226.435 131.02 226.528 131.333 226.715 131.56C226.915 131.786 227.208 131.973 227.595 132.12C227.981 132.253 228.461 132.4 229.035 132.56C229.848 132.76 230.548 132.966 231.135 133.18C231.721 133.393 232.175 133.673 232.495 134.02C232.815 134.353 232.975 134.826 232.975 135.44C232.975 136.386 232.615 137.133 231.895 137.68C231.175 138.226 230.221 138.5 229.035 138.5ZM235.325 138.3V127.9H236.325V138.3H235.325ZM235.325 125.54V123.7H236.325V125.54H235.325ZM244.106 137.8C244.039 137.826 243.906 137.893 243.706 138C243.506 138.106 243.252 138.206 242.946 138.3C242.639 138.38 242.299 138.42 241.926 138.42C241.566 138.42 241.226 138.353 240.906 138.22C240.599 138.073 240.352 137.86 240.166 137.58C239.979 137.3 239.886 136.96 239.886 136.56V128.72H238.426V127.9H239.886V124.34H240.886V127.9H243.306V128.72H240.886V136.32C240.912 136.706 241.052 137 241.306 137.2C241.559 137.386 241.852 137.48 242.186 137.48C242.599 137.48 242.959 137.413 243.266 137.28C243.572 137.133 243.752 137.04 243.806 137L244.106 137.8ZM250.096 138.5C249.363 138.5 248.683 138.36 248.056 138.08C247.43 137.786 246.883 137.393 246.416 136.9C245.963 136.393 245.603 135.813 245.336 135.16C245.083 134.493 244.956 133.793 244.956 133.06C244.956 132.073 245.176 131.18 245.616 130.38C246.056 129.58 246.663 128.94 247.436 128.46C248.21 127.966 249.076 127.72 250.036 127.72C251.023 127.72 251.896 127.966 252.656 128.46C253.416 128.953 254.016 129.606 254.456 130.42C254.91 131.22 255.136 132.1 255.136 133.06C255.136 133.14 255.136 133.22 255.136 133.3C255.136 133.38 255.13 133.446 255.116 133.5H245.996C246.05 134.286 246.27 135 246.656 135.64C247.043 136.28 247.536 136.786 248.136 137.16C248.75 137.52 249.416 137.7 250.136 137.7C250.856 137.7 251.536 137.513 252.176 137.14C252.816 136.766 253.263 136.286 253.516 135.7L254.396 135.94C254.196 136.433 253.876 136.873 253.436 137.26C253.01 137.646 252.503 137.953 251.916 138.18C251.343 138.393 250.736 138.5 250.096 138.5ZM245.956 132.72H254.176C254.123 131.906 253.91 131.186 253.536 130.56C253.163 129.933 252.67 129.44 252.056 129.08C251.456 128.72 250.79 128.54 250.056 128.54C249.323 128.54 248.656 128.72 248.056 129.08C247.456 129.44 246.97 129.933 246.596 130.56C246.223 131.186 246.01 131.906 245.956 132.72Z" fill="#1B1839"/>
<path d="M198.872 384.384C198.704 384.384 198.572 384.34 198.476 384.252C198.388 384.156 198.344 384.02 198.344 383.844V376.38C198.344 376.204 198.388 376.072 198.476 375.984C198.572 375.888 198.708 375.84 198.884 375.84H203.24C203.376 375.84 203.48 375.876 203.552 375.948C203.624 376.02 203.66 376.12 203.66 376.248C203.66 376.384 203.624 376.488 203.552 376.56C203.48 376.632 203.376 376.668 203.24 376.668H199.328V379.62H202.988C203.124 379.62 203.228 379.656 203.3 379.728C203.38 379.8 203.42 379.9 203.42 380.028C203.42 380.164 203.38 380.268 203.3 380.34C203.228 380.412 203.124 380.448 202.988 380.448H199.328V383.844C199.328 384.204 199.176 384.384 198.872 384.384ZM207.192 384.408C206.576 384.408 206.044 384.288 205.596 384.048C205.156 383.8 204.812 383.452 204.564 383.004C204.324 382.556 204.204 382.02 204.204 381.396C204.204 380.788 204.324 380.26 204.564 379.812C204.804 379.356 205.132 379 205.548 378.744C205.972 378.488 206.46 378.36 207.012 378.36C207.404 378.36 207.756 378.428 208.068 378.564C208.38 378.692 208.644 378.88 208.86 379.128C209.084 379.376 209.252 379.676 209.364 380.028C209.484 380.38 209.544 380.776 209.544 381.216C209.544 381.344 209.508 381.44 209.436 381.504C209.364 381.56 209.26 381.588 209.124 381.588H204.948V380.952H208.896L208.704 381.108C208.704 380.676 208.64 380.312 208.512 380.016C208.384 379.712 208.196 379.48 207.948 379.32C207.708 379.16 207.404 379.08 207.036 379.08C206.628 379.08 206.28 379.176 205.992 379.368C205.712 379.552 205.5 379.812 205.356 380.148C205.212 380.476 205.14 380.86 205.14 381.3V381.372C205.14 382.108 205.316 382.668 205.668 383.052C206.028 383.436 206.536 383.628 207.192 383.628C207.464 383.628 207.732 383.592 207.996 383.52C208.268 383.448 208.532 383.328 208.788 383.16C208.9 383.088 209 383.056 209.088 383.064C209.184 383.064 209.26 383.092 209.316 383.148C209.372 383.196 209.408 383.26 209.424 383.34C209.448 383.412 209.44 383.492 209.4 383.58C209.368 383.668 209.3 383.744 209.196 383.808C208.932 384 208.62 384.148 208.26 384.252C207.9 384.356 207.544 384.408 207.192 384.408ZM211.442 384.384C211.282 384.384 211.158 384.34 211.07 384.252C210.99 384.164 210.95 384.04 210.95 383.88V378.876C210.95 378.716 210.99 378.596 211.07 378.516C211.15 378.428 211.266 378.384 211.418 378.384C211.57 378.384 211.686 378.428 211.766 378.516C211.854 378.596 211.898 378.716 211.898 378.876V379.848H211.778C211.906 379.376 212.15 379.012 212.51 378.756C212.87 378.5 213.314 378.364 213.842 378.348C213.962 378.34 214.058 378.368 214.13 378.432C214.202 378.488 214.242 378.588 214.25 378.732C214.258 378.868 214.226 378.976 214.154 379.056C214.082 379.136 213.97 379.184 213.818 379.2L213.626 379.224C213.082 379.272 212.662 379.448 212.366 379.752C212.078 380.048 211.934 380.456 211.934 380.976V383.88C211.934 384.04 211.89 384.164 211.802 384.252C211.722 384.34 211.602 384.384 211.442 384.384ZM215.755 384.384C215.595 384.384 215.475 384.34 215.395 384.252C215.315 384.164 215.275 384.04 215.275 383.88V378.876C215.275 378.716 215.315 378.596 215.395 378.516C215.475 378.428 215.591 378.384 215.743 378.384C215.895 378.384 216.011 378.428 216.091 378.516C216.179 378.596 216.223 378.716 216.223 378.876V379.932L216.091 379.764C216.243 379.316 216.487 378.972 216.823 378.732C217.167 378.484 217.575 378.36 218.047 378.36C218.543 378.36 218.943 378.48 219.247 378.72C219.559 378.952 219.767 379.316 219.871 379.812H219.691C219.835 379.364 220.091 379.012 220.459 378.756C220.835 378.492 221.271 378.36 221.767 378.36C222.207 378.36 222.567 378.444 222.847 378.612C223.135 378.78 223.351 379.036 223.495 379.38C223.639 379.716 223.711 380.144 223.711 380.664V383.88C223.711 384.04 223.667 384.164 223.579 384.252C223.499 384.34 223.379 384.384 223.219 384.384C223.067 384.384 222.947 384.34 222.859 384.252C222.779 384.164 222.739 384.04 222.739 383.88V380.712C222.739 380.176 222.647 379.784 222.463 379.536C222.279 379.28 221.967 379.152 221.527 379.152C221.047 379.152 220.667 379.32 220.387 379.656C220.115 379.984 219.979 380.432 219.979 381V383.88C219.979 384.04 219.935 384.164 219.847 384.252C219.767 384.34 219.647 384.384 219.487 384.384C219.335 384.384 219.215 384.34 219.127 384.252C219.047 384.164 219.007 384.04 219.007 383.88V380.712C219.007 380.176 218.911 379.784 218.719 379.536C218.535 379.28 218.227 379.152 217.795 379.152C217.315 379.152 216.935 379.32 216.655 379.656C216.383 379.984 216.247 380.432 216.247 381V383.88C216.247 384.216 216.083 384.384 215.755 384.384ZM228.156 384.408C227.54 384.408 227.008 384.288 226.56 384.048C226.12 383.8 225.776 383.452 225.528 383.004C225.288 382.556 225.168 382.02 225.168 381.396C225.168 380.788 225.288 380.26 225.528 379.812C225.768 379.356 226.096 379 226.512 378.744C226.936 378.488 227.424 378.36 227.976 378.36C228.368 378.36 228.72 378.428 229.032 378.564C229.344 378.692 229.608 378.88 229.824 379.128C230.048 379.376 230.216 379.676 230.328 380.028C230.448 380.38 230.508 380.776 230.508 381.216C230.508 381.344 230.472 381.44 230.4 381.504C230.328 381.56 230.224 381.588 230.088 381.588H225.912V380.952H229.86L229.668 381.108C229.668 380.676 229.604 380.312 229.476 380.016C229.348 379.712 229.16 379.48 228.912 379.32C228.672 379.16 228.368 379.08 228 379.08C227.592 379.08 227.244 379.176 226.956 379.368C226.676 379.552 226.464 379.812 226.32 380.148C226.176 380.476 226.104 380.86 226.104 381.3V381.372C226.104 382.108 226.28 382.668 226.632 383.052C226.992 383.436 227.5 383.628 228.156 383.628C228.428 383.628 228.696 383.592 228.96 383.52C229.232 383.448 229.496 383.328 229.752 383.16C229.864 383.088 229.964 383.056 230.052 383.064C230.148 383.064 230.224 383.092 230.28 383.148C230.336 383.196 230.372 383.26 230.388 383.34C230.412 383.412 230.404 383.492 230.364 383.58C230.332 383.668 230.264 383.744 230.16 383.808C229.896 384 229.584 384.148 229.224 384.252C228.864 384.356 228.508 384.408 228.156 384.408ZM232.407 384.384C232.247 384.384 232.123 384.34 232.035 384.252C231.955 384.164 231.915 384.04 231.915 383.88V378.876C231.915 378.716 231.955 378.596 232.035 378.516C232.115 378.428 232.231 378.384 232.383 378.384C232.535 378.384 232.651 378.428 232.731 378.516C232.819 378.596 232.863 378.716 232.863 378.876V379.848H232.743C232.871 379.376 233.115 379.012 233.475 378.756C233.835 378.5 234.279 378.364 234.807 378.348C234.927 378.34 235.023 378.368 235.095 378.432C235.167 378.488 235.207 378.588 235.215 378.732C235.223 378.868 235.191 378.976 235.119 379.056C235.047 379.136 234.935 379.184 234.783 379.2L234.591 379.224C234.047 379.272 233.627 379.448 233.331 379.752C233.043 380.048 232.899 380.456 232.899 380.976V383.88C232.899 384.04 232.855 384.164 232.767 384.252C232.687 384.34 232.567 384.384 232.407 384.384Z" fill="#424B5A"/>
<rect x="79.8" y="186.8" width="258" height="43" rx="21.5" stroke="black" stroke-opacity="0.08"/>
<path d="M321.3 215.3L317.959 211.959L321.3 215.3Z" fill="#F8F8F8"/>
<path d="M321.3 215.3L317.959 211.959" stroke="#1B1839" stroke-width="2" stroke-linecap="round"/>
<path d="M313.346 213.391C316.684 213.391 319.391 210.684 319.391 207.345C319.391 204.006 316.684 201.3 313.346 201.3C310.007 201.3 307.3 204.006 307.3 207.345C307.3 210.684 310.007 213.391 313.346 213.391Z" fill="#F8F8F8" stroke="#1B1839" stroke-width="2" stroke-linecap="round" stroke-linejoin="round"/>
<path d="M344.271 68.9575L332.957 80.2712" stroke="#C3C4C5" stroke-width="2" stroke-linecap="round"/>
<path d="M344.413 80.1274L332.956 68.9566" stroke="#C3C4C5" stroke-width="2" stroke-linecap="round"/>
<path d="M79.3 314.3C79.3 309.882 82.8818 306.3 87.3 306.3H331.3C335.718 306.3 339.3 309.882 339.3 314.3V350.3C339.3 354.718 335.718 358.3 331.3 358.3H87.3C82.8818 358.3 79.3 354.718 79.3 350.3V314.3Z" fill="black"/>
<path d="M115.846 334.092C113.608 321.492 127.068 312.116 138.041 318.836C142.456 321.539 145.006 326.38 145 331.401C145 331.458 144.99 331.512 144.978 331.564C144.967 332.629 144.849 333.665 144.631 334.66L144.63 334.666L143.948 334.511L144.629 334.666C144.564 334.954 144.489 335.239 144.406 335.523V335.524C144.306 335.867 144.101 336.333 143.944 336.704C143.859 336.902 143.783 337.083 143.725 337.239C143.665 337.399 143.639 337.493 143.632 337.533V337.535C143.632 337.54 143.631 337.55 143.63 337.561C143.623 337.642 143.601 337.722 143.566 337.796C142.62 339.798 141.237 341.537 139.534 342.896C139.451 342.963 139.353 343.008 139.249 343.031C139.211 343.053 139.159 343.087 139.089 343.133C138.948 343.226 138.77 343.349 138.578 343.483C138.224 343.733 137.775 344.057 137.542 344.188L137.541 344.187C135.837 345.143 134.004 345.73 132.127 345.96H132.122C131.586 346.022 131.042 346.055 130.489 346.059C130.453 346.064 130.416 346.07 130.378 346.07C128.934 346.078 127.48 345.879 126.054 345.48L116.894 345.483C116.708 345.483 116.53 345.41 116.399 345.279C116.267 345.148 116.194 344.97 116.194 344.784V335.323C116.192 335.314 116.185 335.284 116.169 335.224C116.144 335.13 116.108 335.013 116.067 334.88C115.994 334.646 115.884 334.306 115.846 334.092Z" fill="#FFE23B" stroke="black" stroke-width="1.4" stroke-linejoin="round"/>
<path d="M116.3 345.57V333.131C117.996 339.916 122.52 344.439 129.304 345.57H116.3Z" fill="#F8D820"/>
<path d="M129.907 320.402C131.929 320.196 133.851 321.609 133.964 323.696C133.553 326.545 133.533 329.557 133.12 332.39C132.793 334.632 130.389 335.847 128.527 334.399C127.676 333.738 127.542 332.938 127.411 331.933C127.104 329.586 126.734 326.569 126.646 324.234C126.568 322.193 127.854 320.611 129.907 320.402ZM129.904 321.62C128.577 321.799 127.828 322.778 127.863 324.082C127.939 326.834 128.607 329.81 128.737 332.588C129.238 334.245 131.445 334.199 131.885 332.527C132.014 329.775 132.635 326.885 132.74 324.155C132.803 322.508 131.532 321.401 129.904 321.621V321.62Z" fill="black"/>
<path d="M129.906 336.263C134.08 335.778 134.539 342.044 130.569 342.343C126.599 342.641 126.101 336.705 129.906 336.263ZM129.979 337.481C127.728 337.839 128.155 341.419 130.564 341.117C132.972 340.814 132.467 337.085 129.979 337.481Z" fill="black"/>
<path d="M129.903 321.62C131.531 321.4 132.801 322.508 132.738 324.154C132.633 326.886 132.013 329.774 131.884 332.526C131.444 334.199 129.237 334.244 128.736 332.587C128.606 329.811 127.937 326.835 127.862 324.082C127.827 322.779 128.575 321.798 129.903 321.619V321.62Z" fill="#FF8F8F"/>
<path d="M129.98 337.481C132.467 337.086 132.902 340.824 130.565 341.118C128.227 341.412 127.728 337.839 129.98 337.481Z" fill="#FF8F8F"/>
<path d="M139.453 326.292C140.669 327.988 141.235 330.249 141.235 331.946" stroke="white" stroke-opacity="0.34" stroke-width="2" stroke-linecap="round"/>
<path d="M115.95 333.477C114.248 321.338 127.282 312.482 137.937 319.007C142.289 321.672 144.805 326.446 144.8 331.4L144.799 331.9H144.772C144.741 332.833 144.628 333.741 144.436 334.618L144.435 334.621C144.37 334.905 144.296 335.187 144.214 335.468V335.469C144.118 335.797 143.921 336.247 143.76 336.625C143.676 336.823 143.598 337.009 143.538 337.17C143.475 337.338 143.443 337.448 143.434 337.507L143.432 337.519C143.433 337.514 143.434 337.511 143.434 337.509C143.434 337.511 143.433 337.514 143.433 337.52C143.432 337.525 143.432 337.533 143.431 337.542L143.423 337.631L143.385 337.711C142.452 339.685 141.088 341.4 139.409 342.74L139.313 342.817L139.192 342.841C139.187 342.842 139.181 342.842 139.177 342.843C139.171 342.846 139.163 342.851 139.154 342.856C139.111 342.881 139.052 342.917 138.98 342.965C138.835 343.06 138.654 343.185 138.463 343.32C138.191 343.512 137.878 343.736 137.646 343.889L137.445 344.013C135.763 344.956 133.954 345.534 132.103 345.761L132.1 345.762C131.697 345.808 131.288 345.838 130.875 345.852V345.868L130.377 345.871C128.942 345.878 127.497 345.679 126.079 345.28L116.894 345.284H116.394V335.289C116.394 335.315 116.395 335.29 116.363 335.171C116.336 335.073 116.299 334.953 116.258 334.82C116.183 334.578 116.078 334.256 116.043 334.058L115.95 333.477Z" stroke="black"/>
<path d="M158.229 328.964C158.163 328.898 158.042 328.81 157.865 328.698C157.697 328.586 157.487 328.478 157.235 328.376C156.992 328.273 156.726 328.184 156.437 328.11C156.147 328.026 155.853 327.984 155.555 327.984C155.032 327.984 154.635 328.082 154.365 328.278C154.103 328.474 153.973 328.749 153.973 329.104C153.973 329.374 154.057 329.589 154.225 329.748C154.393 329.906 154.645 330.042 154.981 330.154C155.317 330.266 155.737 330.387 156.241 330.518C156.894 330.676 157.459 330.872 157.935 331.106C158.42 331.33 158.789 331.628 159.041 332.002C159.302 332.366 159.433 332.851 159.433 333.458C159.433 333.99 159.335 334.447 159.139 334.83C158.943 335.203 158.672 335.506 158.327 335.74C157.981 335.973 157.589 336.146 157.151 336.258C156.712 336.36 156.245 336.412 155.751 336.412C155.256 336.412 154.761 336.36 154.267 336.258C153.772 336.155 153.296 336.01 152.839 335.824C152.381 335.628 151.961 335.394 151.579 335.124L152.433 333.458C152.517 333.542 152.666 333.654 152.881 333.794C153.095 333.924 153.357 334.06 153.665 334.2C153.973 334.33 154.309 334.442 154.673 334.536C155.037 334.629 155.405 334.676 155.779 334.676C156.301 334.676 156.698 334.587 156.969 334.41C157.239 334.232 157.375 333.98 157.375 333.654C157.375 333.355 157.267 333.122 157.053 332.954C156.838 332.786 156.539 332.641 156.157 332.52C155.774 332.389 155.321 332.249 154.799 332.1C154.173 331.922 153.651 331.726 153.231 331.512C152.811 331.288 152.498 331.008 152.293 330.672C152.087 330.336 151.985 329.916 151.985 329.412C151.985 328.73 152.143 328.161 152.461 327.704C152.787 327.237 153.226 326.887 153.777 326.654C154.327 326.411 154.939 326.29 155.611 326.29C156.077 326.29 156.516 326.341 156.927 326.444C157.347 326.546 157.739 326.682 158.103 326.85C158.467 327.018 158.793 327.2 159.083 327.396L158.229 328.964ZM160.711 336.3V328.964H162.587V336.3H160.711ZM160.711 327.942V326.08H162.587V327.942H160.711ZM167.149 336.342C166.664 336.342 166.216 336.248 165.805 336.062C165.404 335.866 165.054 335.595 164.755 335.25C164.466 334.904 164.242 334.508 164.083 334.06C163.924 333.612 163.845 333.136 163.845 332.632C163.845 332.1 163.929 331.605 164.097 331.148C164.265 330.69 164.498 330.289 164.797 329.944C165.105 329.589 165.464 329.318 165.875 329.132C166.295 328.936 166.757 328.838 167.261 328.838C167.83 328.838 168.33 328.968 168.759 329.23C169.188 329.482 169.543 329.822 169.823 330.252V328.964H171.461V335.95C171.461 336.678 171.284 337.298 170.929 337.812C170.584 338.334 170.103 338.731 169.487 339.002C168.871 339.282 168.171 339.422 167.387 339.422C166.594 339.422 165.922 339.286 165.371 339.016C164.82 338.754 164.349 338.381 163.957 337.896L164.979 336.902C165.259 337.247 165.609 337.518 166.029 337.714C166.458 337.91 166.911 338.008 167.387 338.008C167.788 338.008 168.152 337.933 168.479 337.784C168.815 337.644 169.081 337.42 169.277 337.112C169.482 336.813 169.585 336.426 169.585 335.95V335.026C169.342 335.446 168.997 335.772 168.549 336.006C168.11 336.23 167.644 336.342 167.149 336.342ZM167.779 334.844C167.984 334.844 168.18 334.811 168.367 334.746C168.554 334.68 168.726 334.592 168.885 334.48C169.044 334.368 169.184 334.237 169.305 334.088C169.426 333.929 169.52 333.77 169.585 333.612V331.862C169.473 331.572 169.314 331.32 169.109 331.106C168.913 330.891 168.689 330.728 168.437 330.616C168.194 330.494 167.938 330.434 167.667 330.434C167.378 330.434 167.116 330.494 166.883 330.616C166.65 330.737 166.449 330.91 166.281 331.134C166.113 331.348 165.982 331.591 165.889 331.862C165.805 332.123 165.763 332.398 165.763 332.688C165.763 332.986 165.814 333.266 165.917 333.528C166.02 333.789 166.16 334.018 166.337 334.214C166.524 334.41 166.738 334.564 166.981 334.676C167.233 334.788 167.499 334.844 167.779 334.844ZM179.97 336.3H178.094V332.184C178.094 331.596 177.991 331.166 177.786 330.896C177.581 330.625 177.296 330.49 176.932 330.49C176.68 330.49 176.423 330.555 176.162 330.686C175.91 330.816 175.681 330.998 175.476 331.232C175.271 331.456 175.121 331.717 175.028 332.016V336.3H173.152V328.964H174.846V330.322C175.033 330.004 175.271 329.738 175.56 329.524C175.849 329.3 176.181 329.132 176.554 329.02C176.937 328.898 177.338 328.838 177.758 328.838C178.215 328.838 178.589 328.922 178.878 329.09C179.177 329.248 179.401 329.468 179.55 329.748C179.709 330.018 179.816 330.326 179.872 330.672C179.937 331.017 179.97 331.367 179.97 331.722V336.3ZM181.097 334.13C181.097 333.654 181.228 333.238 181.489 332.884C181.76 332.52 182.133 332.24 182.609 332.044C183.085 331.848 183.631 331.75 184.247 331.75C184.555 331.75 184.868 331.773 185.185 331.82C185.503 331.866 185.778 331.941 186.011 332.044V331.652C186.011 331.185 185.871 330.826 185.591 330.574C185.321 330.322 184.915 330.196 184.373 330.196C183.972 330.196 183.589 330.266 183.225 330.406C182.861 330.546 182.479 330.751 182.077 331.022L181.475 329.79C181.961 329.472 182.455 329.234 182.959 329.076C183.473 328.917 184.009 328.838 184.569 328.838C185.615 328.838 186.427 329.099 187.005 329.622C187.593 330.144 187.887 330.891 187.887 331.862V334.2C187.887 334.396 187.92 334.536 187.985 334.62C188.06 334.704 188.177 334.755 188.335 334.774V336.3C188.167 336.328 188.013 336.351 187.873 336.37C187.743 336.388 187.631 336.398 187.537 336.398C187.164 336.398 186.879 336.314 186.683 336.146C186.497 335.978 186.38 335.772 186.333 335.53L186.291 335.152C185.974 335.562 185.577 335.88 185.101 336.104C184.625 336.328 184.14 336.44 183.645 336.44C183.16 336.44 182.721 336.342 182.329 336.146C181.947 335.94 181.643 335.665 181.419 335.32C181.205 334.965 181.097 334.568 181.097 334.13ZM185.661 334.508C185.764 334.396 185.848 334.284 185.913 334.172C185.979 334.06 186.011 333.957 186.011 333.864V333.122C185.787 333.028 185.545 332.958 185.283 332.912C185.022 332.856 184.775 332.828 184.541 332.828C184.056 332.828 183.655 332.935 183.337 333.15C183.029 333.355 182.875 333.63 182.875 333.976C182.875 334.162 182.927 334.34 183.029 334.508C183.132 334.676 183.281 334.811 183.477 334.914C183.673 335.016 183.907 335.068 184.177 335.068C184.457 335.068 184.733 335.016 185.003 334.914C185.274 334.802 185.493 334.666 185.661 334.508ZM189.626 326.08H191.502V333.948C191.502 334.284 191.558 334.512 191.67 334.634C191.782 334.746 191.936 334.802 192.132 334.802C192.282 334.802 192.436 334.783 192.594 334.746C192.753 334.708 192.893 334.662 193.014 334.606L193.266 336.034C193.014 336.155 192.72 336.248 192.384 336.314C192.048 336.379 191.745 336.412 191.474 336.412C190.886 336.412 190.429 336.258 190.102 335.95C189.785 335.632 189.626 335.184 189.626 334.606V326.08ZM197.486 336.44C196.898 336.44 196.366 336.342 195.89 336.146C195.414 335.94 195.008 335.665 194.672 335.32C194.336 334.965 194.074 334.564 193.888 334.116C193.71 333.658 193.622 333.178 193.622 332.674C193.622 331.974 193.776 331.334 194.084 330.756C194.401 330.177 194.849 329.715 195.428 329.37C196.016 329.015 196.706 328.838 197.5 328.838C198.302 328.838 198.988 329.015 199.558 329.37C200.127 329.715 200.561 330.177 200.86 330.756C201.168 331.325 201.322 331.941 201.322 332.604C201.322 332.716 201.317 332.832 201.308 332.954C201.298 333.066 201.289 333.159 201.28 333.234H195.61C195.647 333.607 195.754 333.934 195.932 334.214C196.118 334.494 196.352 334.708 196.632 334.858C196.921 334.998 197.229 335.068 197.556 335.068C197.929 335.068 198.279 334.979 198.606 334.802C198.942 334.615 199.17 334.372 199.292 334.074L200.902 334.522C200.724 334.895 200.468 335.226 200.132 335.516C199.805 335.805 199.418 336.034 198.97 336.202C198.522 336.36 198.027 336.44 197.486 336.44ZM195.568 332.044H199.404C199.366 331.67 199.259 331.348 199.082 331.078C198.914 330.798 198.69 330.583 198.41 330.434C198.13 330.275 197.817 330.196 197.472 330.196C197.136 330.196 196.828 330.275 196.548 330.434C196.277 330.583 196.053 330.798 195.876 331.078C195.708 331.348 195.605 331.67 195.568 332.044ZM206.833 330.588C206.263 330.588 205.755 330.7 205.307 330.924C204.859 331.138 204.537 331.451 204.341 331.862V336.3H202.465V328.964H204.187V330.532C204.448 330.028 204.779 329.631 205.181 329.342C205.582 329.052 206.007 328.894 206.455 328.866C206.557 328.866 206.637 328.866 206.693 328.866C206.749 328.866 206.795 328.87 206.833 328.88V330.588ZM210.857 333.556V328.964H212.733V333.15C212.733 333.71 212.836 334.134 213.041 334.424C213.247 334.704 213.55 334.844 213.951 334.844C214.194 334.844 214.432 334.797 214.665 334.704C214.908 334.601 215.127 334.452 215.323 334.256C215.529 334.06 215.701 333.812 215.841 333.514V328.964H217.717V334.2C217.717 334.396 217.75 334.536 217.815 334.62C217.89 334.704 218.007 334.755 218.165 334.774V336.3C217.979 336.328 217.82 336.346 217.689 336.356C217.568 336.374 217.456 336.384 217.353 336.384C217.017 336.384 216.742 336.309 216.527 336.16C216.322 336.001 216.201 335.786 216.163 335.516L216.121 334.928C215.795 335.422 215.375 335.8 214.861 336.062C214.348 336.314 213.783 336.44 213.167 336.44C212.411 336.44 211.837 336.197 211.445 335.712C211.053 335.217 210.857 334.498 210.857 333.556ZM226.4 336.3H224.524V332.184C224.524 331.596 224.421 331.166 224.216 330.896C224.01 330.625 223.726 330.49 223.362 330.49C223.11 330.49 222.853 330.555 222.592 330.686C222.34 330.816 222.111 330.998 221.906 331.232C221.7 331.456 221.551 331.717 221.458 332.016V336.3H219.582V328.964H221.276V330.322C221.462 330.004 221.7 329.738 221.99 329.524C222.279 329.3 222.61 329.132 222.984 329.02C223.366 328.898 223.768 328.838 224.188 328.838C224.645 328.838 225.018 328.922 225.308 329.09C225.606 329.248 225.83 329.468 225.98 329.748C226.138 330.018 226.246 330.326 226.302 330.672C226.367 331.017 226.4 331.367 226.4 331.722V336.3ZM235.79 336.44C235.221 336.44 234.717 336.314 234.278 336.062C233.849 335.8 233.513 335.45 233.27 335.012V339.282H231.394V328.964H233.032V330.224C233.312 329.794 233.667 329.458 234.096 329.216C234.526 328.964 235.016 328.838 235.566 328.838C236.061 328.838 236.514 328.936 236.924 329.132C237.344 329.328 237.708 329.603 238.016 329.958C238.324 330.303 238.562 330.704 238.73 331.162C238.908 331.61 238.996 332.095 238.996 332.618C238.996 333.327 238.856 333.971 238.576 334.55C238.306 335.128 237.928 335.59 237.442 335.936C236.966 336.272 236.416 336.44 235.79 336.44ZM235.16 334.844C235.45 334.844 235.711 334.783 235.944 334.662C236.178 334.54 236.378 334.377 236.546 334.172C236.724 333.957 236.854 333.719 236.938 333.458C237.032 333.187 237.078 332.907 237.078 332.618C237.078 332.31 237.027 332.025 236.924 331.764C236.831 331.502 236.691 331.274 236.504 331.078C236.318 330.872 236.098 330.714 235.846 330.602C235.604 330.49 235.338 330.434 235.048 330.434C234.871 330.434 234.689 330.466 234.502 330.532C234.325 330.588 234.152 330.672 233.984 330.784C233.816 330.896 233.667 331.026 233.536 331.176C233.415 331.325 233.326 331.488 233.27 331.666V333.388C233.382 333.658 233.532 333.906 233.718 334.13C233.914 334.354 234.138 334.531 234.39 334.662C234.642 334.783 234.899 334.844 235.16 334.844ZM244.635 330.588C244.066 330.588 243.557 330.7 243.109 330.924C242.661 331.138 242.339 331.451 242.143 331.862V336.3H240.267V328.964H241.989V330.532C242.251 330.028 242.582 329.631 242.983 329.342C243.385 329.052 243.809 328.894 244.257 328.866C244.36 328.866 244.439 328.866 244.495 328.866C244.551 328.866 244.598 328.87 244.635 328.88V330.588ZM248.974 336.44C248.376 336.44 247.84 336.342 247.364 336.146C246.888 335.94 246.482 335.66 246.146 335.306C245.819 334.951 245.567 334.545 245.39 334.088C245.212 333.63 245.124 333.15 245.124 332.646C245.124 332.132 245.212 331.647 245.39 331.19C245.567 330.732 245.819 330.326 246.146 329.972C246.482 329.617 246.888 329.342 247.364 329.146C247.84 328.94 248.376 328.838 248.974 328.838C249.571 328.838 250.103 328.94 250.57 329.146C251.046 329.342 251.452 329.617 251.788 329.972C252.124 330.326 252.376 330.732 252.544 331.19C252.721 331.647 252.81 332.132 252.81 332.646C252.81 333.15 252.721 333.63 252.544 334.088C252.376 334.545 252.124 334.951 251.788 335.306C251.461 335.66 251.06 335.94 250.584 336.146C250.108 336.342 249.571 336.44 248.974 336.44ZM247.056 332.646C247.056 333.075 247.14 333.458 247.308 333.794C247.476 334.12 247.704 334.377 247.994 334.564C248.283 334.75 248.61 334.844 248.974 334.844C249.328 334.844 249.65 334.75 249.94 334.564C250.229 334.368 250.458 334.106 250.626 333.78C250.803 333.444 250.892 333.061 250.892 332.632C250.892 332.212 250.803 331.834 250.626 331.498C250.458 331.162 250.229 330.9 249.94 330.714C249.65 330.527 249.328 330.434 248.974 330.434C248.61 330.434 248.283 330.532 247.994 330.728C247.704 330.914 247.476 331.176 247.308 331.512C247.14 331.838 247.056 332.216 247.056 332.646ZM258.248 336.44C257.688 336.44 257.189 336.314 256.75 336.062C256.311 335.81 255.966 335.464 255.714 335.026V336.3H254.076V326.08H255.952V330.252C256.213 329.813 256.554 329.468 256.974 329.216C257.403 328.964 257.903 328.838 258.472 328.838C258.948 328.838 259.382 328.94 259.774 329.146C260.166 329.342 260.502 329.617 260.782 329.972C261.071 330.326 261.291 330.732 261.44 331.19C261.599 331.647 261.678 332.137 261.678 332.66C261.678 333.182 261.589 333.672 261.412 334.13C261.244 334.587 261.006 334.993 260.698 335.348C260.39 335.693 260.026 335.964 259.606 336.16C259.195 336.346 258.743 336.44 258.248 336.44ZM257.73 334.844C258.029 334.844 258.299 334.788 258.542 334.676C258.794 334.554 259.009 334.396 259.186 334.2C259.373 334.004 259.513 333.775 259.606 333.514C259.709 333.243 259.76 332.963 259.76 332.674C259.76 332.272 259.676 331.904 259.508 331.568C259.349 331.222 259.125 330.947 258.836 330.742C258.556 330.536 258.225 330.434 257.842 330.434C257.571 330.434 257.31 330.499 257.058 330.63C256.815 330.751 256.596 330.919 256.4 331.134C256.213 331.348 256.064 331.591 255.952 331.862V333.612C256.008 333.798 256.097 333.966 256.218 334.116C256.349 334.265 256.498 334.396 256.666 334.508C256.834 334.61 257.007 334.694 257.184 334.76C257.371 334.816 257.553 334.844 257.73 334.844ZM262.935 326.08H264.811V333.948C264.811 334.284 264.867 334.512 264.979 334.634C265.091 334.746 265.245 334.802 265.441 334.802C265.59 334.802 265.744 334.783 265.903 334.746C266.062 334.708 266.202 334.662 266.323 334.606L266.575 336.034C266.323 336.155 266.029 336.248 265.693 336.314C265.357 336.379 265.054 336.412 264.783 336.412C264.195 336.412 263.738 336.258 263.411 335.95C263.094 335.632 262.935 335.184 262.935 334.606V326.08ZM270.794 336.44C270.206 336.44 269.674 336.342 269.198 336.146C268.722 335.94 268.316 335.665 267.98 335.32C267.644 334.965 267.383 334.564 267.196 334.116C267.019 333.658 266.93 333.178 266.93 332.674C266.93 331.974 267.084 331.334 267.392 330.756C267.71 330.177 268.158 329.715 268.736 329.37C269.324 329.015 270.015 328.838 270.808 328.838C271.611 328.838 272.297 329.015 272.866 329.37C273.436 329.715 273.87 330.177 274.168 330.756C274.476 331.325 274.63 331.941 274.63 332.604C274.63 332.716 274.626 332.832 274.616 332.954C274.607 333.066 274.598 333.159 274.588 333.234H268.918C268.956 333.607 269.063 333.934 269.24 334.214C269.427 334.494 269.66 334.708 269.94 334.858C270.23 334.998 270.538 335.068 270.864 335.068C271.238 335.068 271.588 334.979 271.914 334.802C272.25 334.615 272.479 334.372 272.6 334.074L274.21 334.522C274.033 334.895 273.776 335.226 273.44 335.516C273.114 335.805 272.726 336.034 272.278 336.202C271.83 336.36 271.336 336.44 270.794 336.44ZM268.876 332.044H272.712C272.675 331.67 272.568 331.348 272.39 331.078C272.222 330.798 271.998 330.583 271.718 330.434C271.438 330.275 271.126 330.196 270.78 330.196C270.444 330.196 270.136 330.275 269.856 330.434C269.586 330.583 269.362 330.798 269.184 331.078C269.016 331.348 268.914 331.67 268.876 332.044ZM269.03 326.066H270.766L271.536 327.732L270.332 328.096L269.03 326.066ZM287.169 336.3H285.293V332.184C285.293 331.605 285.191 331.18 284.985 330.91C284.789 330.63 284.514 330.49 284.159 330.49C283.795 330.49 283.445 330.634 283.109 330.924C282.783 331.204 282.549 331.572 282.409 332.03V336.3H280.533V332.184C280.533 331.596 280.431 331.166 280.225 330.896C280.029 330.625 279.754 330.49 279.399 330.49C279.035 330.49 278.685 330.63 278.349 330.91C278.023 331.19 277.789 331.558 277.649 332.016V336.3H275.773V328.964H277.467V330.322C277.747 329.846 278.121 329.482 278.587 329.23C279.054 328.968 279.591 328.838 280.197 328.838C280.804 328.838 281.275 328.987 281.611 329.286C281.957 329.584 282.176 329.953 282.269 330.392C282.568 329.888 282.946 329.505 283.403 329.244C283.87 328.973 284.393 328.838 284.971 328.838C285.429 328.838 285.797 328.922 286.077 329.09C286.367 329.248 286.591 329.468 286.749 329.748C286.908 330.018 287.015 330.326 287.071 330.672C287.137 331.017 287.169 331.367 287.169 331.722V336.3ZM292.204 336.44C291.616 336.44 291.084 336.342 290.608 336.146C290.132 335.94 289.726 335.665 289.39 335.32C289.054 334.965 288.793 334.564 288.606 334.116C288.429 333.658 288.34 333.178 288.34 332.674C288.34 331.974 288.494 331.334 288.802 330.756C289.12 330.177 289.568 329.715 290.146 329.37C290.734 329.015 291.425 328.838 292.218 328.838C293.021 328.838 293.707 329.015 294.276 329.37C294.846 329.715 295.28 330.177 295.578 330.756C295.886 331.325 296.04 331.941 296.04 332.604C296.04 332.716 296.036 332.832 296.026 332.954C296.017 333.066 296.008 333.159 295.998 333.234H290.328C290.366 333.607 290.473 333.934 290.65 334.214C290.837 334.494 291.07 334.708 291.35 334.858C291.64 334.998 291.948 335.068 292.274 335.068C292.648 335.068 292.998 334.979 293.324 334.802C293.66 334.615 293.889 334.372 294.01 334.074L295.62 334.522C295.443 334.895 295.186 335.226 294.85 335.516C294.524 335.805 294.136 336.034 293.688 336.202C293.24 336.36 292.746 336.44 292.204 336.44ZM290.286 332.044H294.122C294.085 331.67 293.978 331.348 293.8 331.078C293.632 330.798 293.408 330.583 293.128 330.434C292.848 330.275 292.536 330.196 292.19 330.196C291.854 330.196 291.546 330.275 291.266 330.434C290.996 330.583 290.772 330.798 290.594 331.078C290.426 331.348 290.324 331.67 290.286 332.044Z" fill="white"/>
<path d="M93.7001 213.3V203.845H95.1266V212.072H99.4107V213.3H93.7001ZM103.983 213.443C103.285 213.443 102.683 213.294 102.178 212.995C101.677 212.694 101.289 212.27 101.015 211.726C100.744 211.178 100.609 210.536 100.609 209.801C100.609 209.074 100.744 208.434 101.015 207.88C101.289 207.326 101.67 206.894 102.16 206.583C102.652 206.272 103.228 206.117 103.886 206.117C104.286 206.117 104.674 206.183 105.05 206.315C105.425 206.447 105.762 206.655 106.061 206.938C106.359 207.221 106.595 207.589 106.767 208.042C106.939 208.491 107.026 209.037 107.026 209.68V210.17H101.389V209.136H105.673C105.673 208.773 105.599 208.451 105.451 208.171C105.304 207.888 105.096 207.665 104.828 207.502C104.563 207.338 104.253 207.257 103.896 207.257C103.508 207.257 103.169 207.352 102.88 207.543C102.594 207.731 102.372 207.977 102.215 208.282C102.061 208.583 101.984 208.911 101.984 209.265V210.073C101.984 210.547 102.067 210.95 102.234 211.282C102.403 211.615 102.638 211.869 102.94 212.044C103.242 212.216 103.594 212.303 103.997 212.303C104.259 212.303 104.497 212.266 104.713 212.192C104.928 212.115 105.114 212.001 105.271 211.85C105.428 211.699 105.548 211.513 105.631 211.292L106.938 211.527C106.833 211.912 106.645 212.249 106.375 212.538C106.107 212.824 105.77 213.047 105.364 213.207C104.96 213.364 104.5 213.443 103.983 213.443ZM111.544 213.443C110.858 213.443 110.267 213.287 109.771 212.977C109.279 212.663 108.9 212.23 108.636 211.679C108.371 211.129 108.239 210.498 108.239 209.787C108.239 209.066 108.374 208.431 108.645 207.88C108.916 207.326 109.297 206.894 109.79 206.583C110.282 206.272 110.862 206.117 111.53 206.117C112.069 206.117 112.549 206.217 112.97 206.417C113.392 206.614 113.732 206.891 113.991 207.248C114.252 207.605 114.408 208.022 114.457 208.499H113.114C113.04 208.166 112.87 207.88 112.606 207.64C112.344 207.4 111.993 207.28 111.553 207.28C111.168 207.28 110.831 207.381 110.542 207.585C110.256 207.785 110.033 208.071 109.873 208.443C109.713 208.813 109.633 209.25 109.633 209.754C109.633 210.271 109.711 210.718 109.868 211.093C110.025 211.469 110.247 211.759 110.533 211.966C110.822 212.172 111.162 212.275 111.553 212.275C111.815 212.275 112.052 212.227 112.264 212.132C112.48 212.033 112.66 211.893 112.804 211.712C112.952 211.53 113.055 211.312 113.114 211.056H114.457C114.408 211.515 114.258 211.924 114.009 212.284C113.76 212.644 113.426 212.927 113.007 213.134C112.592 213.34 112.104 213.443 111.544 213.443ZM119.243 206.209V207.317H115.37V206.209H119.243ZM116.409 204.51H117.789V211.218C117.789 211.486 117.829 211.687 117.909 211.823C117.989 211.955 118.092 212.046 118.218 212.095C118.347 212.141 118.487 212.164 118.638 212.164C118.749 212.164 118.846 212.156 118.929 212.141C119.012 212.126 119.077 212.113 119.123 212.104L119.372 213.244C119.292 213.275 119.178 213.306 119.031 213.337C118.883 213.371 118.698 213.389 118.477 213.392C118.114 213.398 117.775 213.334 117.461 213.198C117.147 213.063 116.893 212.854 116.699 212.57C116.505 212.287 116.409 211.932 116.409 211.504V204.51ZM125.262 210.359V206.209H126.647V213.3H125.289V212.072H125.216C125.053 212.45 124.791 212.766 124.431 213.018C124.074 213.267 123.629 213.392 123.097 213.392C122.641 213.392 122.238 213.292 121.887 213.092C121.539 212.889 121.265 212.589 121.065 212.192C120.868 211.795 120.77 211.304 120.77 210.719V206.209H122.15V210.553C122.15 211.036 122.284 211.421 122.552 211.707C122.82 211.993 123.167 212.136 123.595 212.136C123.854 212.136 124.111 212.072 124.366 211.943C124.625 211.813 124.839 211.618 125.008 211.356C125.18 211.095 125.265 210.762 125.262 210.359ZM128.501 213.3V206.209H129.836V207.335H129.909C130.039 206.954 130.266 206.654 130.593 206.435C130.922 206.214 131.294 206.103 131.71 206.103C131.796 206.103 131.898 206.106 132.015 206.112C132.135 206.118 132.228 206.126 132.296 206.135V207.455C132.241 207.44 132.142 207.423 132.001 207.405C131.859 207.383 131.718 207.372 131.576 207.372C131.25 207.372 130.959 207.441 130.703 207.58C130.451 207.715 130.251 207.905 130.103 208.148C129.956 208.388 129.882 208.662 129.882 208.97V213.3H128.501ZM136.293 213.443C135.594 213.443 134.993 213.294 134.488 212.995C133.986 212.694 133.598 212.27 133.324 211.726C133.054 211.178 132.918 210.536 132.918 209.801C132.918 209.074 133.054 208.434 133.324 207.88C133.598 207.326 133.98 206.894 134.469 206.583C134.962 206.272 135.537 206.117 136.196 206.117C136.596 206.117 136.984 206.183 137.359 206.315C137.735 206.447 138.072 206.655 138.37 206.938C138.669 207.221 138.904 207.589 139.077 208.042C139.249 208.491 139.335 209.037 139.335 209.68V210.17H133.698V209.136H137.982C137.982 208.773 137.909 208.451 137.761 208.171C137.613 207.888 137.405 207.665 137.138 207.502C136.873 207.338 136.562 207.257 136.205 207.257C135.817 207.257 135.479 207.352 135.19 207.543C134.903 207.731 134.682 207.977 134.525 208.282C134.371 208.583 134.294 208.911 134.294 209.265V210.073C134.294 210.547 134.377 210.95 134.543 211.282C134.712 211.615 134.948 211.869 135.25 212.044C135.551 212.216 135.904 212.303 136.307 212.303C136.568 212.303 136.807 212.266 137.022 212.192C137.238 212.115 137.424 212.001 137.581 211.85C137.738 211.699 137.858 211.513 137.941 211.292L139.247 211.527C139.143 211.912 138.955 212.249 138.684 212.538C138.416 212.824 138.079 213.047 137.673 213.207C137.27 213.364 136.81 213.443 136.293 213.443Z" fill="#939393"/>
<defs>
<filter id="filter0_d_615_771" x="4.95911e-05" y="-0.00019455" width="417.899" height="472.1" filterUnits="userSpaceOnUse" color-interpolation-filters="sRGB">
<feFlood flood-opacity="0" result="BackgroundImageFix"/>
<feColorMatrix in="SourceAlpha" type="matrix" values="0 0 0 0 0 0 0 0 0 0 0 0 0 0 0 0 0 0 127 0" result="hardAlpha"/>
<feOffset dy="5"/>
<feGaussianBlur stdDeviation="27.65"/>
<feComposite in2="hardAlpha" operator="out"/>
<feColorMatrix type="matrix" values="0 0 0 0 0 0 0 0 0 0 0 0 0 0 0 0 0 0 0.24 0"/>
<feBlend mode="normal" in2="BackgroundImageFix" result="effect1_dropShadow_615_771"/>
<feBlend mode="normal" in="SourceGraphic" in2="effect1_dropShadow_615_771" result="shape"/>
</filter>
</defs>
</svg>
