<svg width="178" height="124" viewBox="0 0 178 124" fill="none" xmlns="http://www.w3.org/2000/svg">
<path d="M154.183 40.5772V21.7065C154.183 11.3294 143.171 0.493811 132.857 0L44.0028 0.0564356C35.5057 0.19047 23.6789 11.2095 23.6789 19.5902V40.2244C18.314 39.4414 13.8556 39.6707 9.10794 42.4078C-0.531955 47.9702 -3.03628 61.1973 4.09576 69.8566C5.60894 71.6943 7.7288 72.95 9.21729 74.6113C9.59823 81.3977 8.70584 88.7167 9.19965 95.4396C9.82397 103.926 15.6263 109.75 23.9787 110.818C24.5889 114.028 22.4267 122.419 26.476 123.664C27.7105 124.045 36.7578 124.049 38.3275 123.837C43.0645 123.199 41.4349 114.176 42.3697 110.772H135.488C136.035 113.862 135.234 121.128 137.774 123.125C138.391 123.608 138.755 123.742 139.534 123.834C141.485 124.063 149.322 124.098 151.015 123.661C155.541 122.49 153.251 114.264 153.872 110.825C161.022 110.032 167.664 104.212 168.302 96.8575C168.926 89.6796 167.815 81.6164 168.284 74.3433C187.003 63.236 175.099 35.0853 154.183 40.5877V40.5772Z" fill="#ffffff" fill-opacity="0.18"/>
<path d="M154.183 40.5772C175.099 35.0782 187.003 63.2255 168.284 74.3327C167.819 81.6058 168.926 89.6691 168.302 96.847C167.664 104.201 161.022 110.021 153.872 110.815C153.251 114.254 155.537 122.479 151.015 123.65C149.319 124.088 141.485 124.052 139.534 123.823C138.755 123.731 138.388 123.601 137.774 123.114C135.234 121.118 136.032 113.855 135.488 110.762H42.3697C41.4385 114.166 43.0645 123.188 38.3275 123.827C36.7578 124.038 27.7105 124.035 26.476 123.654C22.4267 122.409 24.5889 114.017 23.9787 110.808C15.6263 109.739 9.82397 103.915 9.19965 95.429C8.70584 88.7096 9.5947 81.3907 9.21729 74.6008C7.7288 72.9394 5.60894 71.6837 4.09576 69.8461C-3.03628 61.1867 -0.531955 47.9596 9.10794 42.3972C13.8556 39.6566 18.314 39.4273 23.6789 40.2139V19.5796C23.6754 11.206 35.5057 0.19047 44.0028 0.0564356L132.857 0C143.171 0.493811 154.183 11.3294 154.183 21.7065V40.5772ZM140.426 77.613V56.2733C140.426 56.0229 140.906 54.1852 141.026 53.6984C142.254 48.6757 145.474 45.7269 149.174 42.4466C148.941 36.0553 149.735 29.0784 149.262 22.7541C148.539 13.1213 141.107 5.61534 131.45 4.94164H46.0627C37.301 5.53774 29.3648 12.3806 28.6029 21.3432C28.0209 28.1966 29.0685 35.8542 28.61 42.7993C31.9185 44.9121 34.4017 47.8503 35.8408 51.5221C36.0736 52.1147 37.0823 54.8801 37.0823 55.2187V77.6165C39.7807 75.4438 42.9058 74.0011 46.4154 73.7225H130.744C134.321 73.9412 137.725 75.3027 140.426 77.6165V77.613ZM32.1407 105.478V56.2733C32.1407 53.4268 28.3172 48.4887 25.9046 46.9897C11.9544 38.3162 -3.01865 56.88 9.73226 68.4528C11.2772 69.8531 13.6404 70.5833 14.0672 72.9359C15.464 80.6499 11.771 95.1292 16.3282 101.362C17.3722 102.79 20.7196 105.478 22.4408 105.478H32.1407ZM145.365 105.478H155.064C155.989 105.478 159.354 103.552 160.14 102.794C166.295 96.8716 161.96 81.3801 163.435 73.2851C163.974 70.3187 166.796 69.7896 168.655 67.9237C178.979 57.5607 167.738 40.4678 154.186 45.6952C150.521 47.1096 145.365 52.5345 145.365 56.626V105.478ZM140.426 105.478V86.9601C140.426 84.0714 135.277 78.9639 132.137 79.0239L45.7029 79.0098C41.6219 78.9534 37.0753 84.1983 37.0753 88.0183V105.478H140.423H140.426Z" fill="black"/>
<path d="M140.426 77.613C137.721 75.3027 134.321 73.9412 130.744 73.7154H46.4153C42.9022 73.9976 39.7771 75.4367 37.0823 77.613V55.2151C37.0823 54.8765 36.0735 52.1112 35.8407 51.5186C34.4016 47.8468 31.9185 44.9086 28.6099 42.7958C29.0685 35.8542 28.0209 28.1966 28.6029 21.3397C29.3647 12.377 37.2975 5.53421 46.0626 4.93811H131.45C141.107 5.61181 148.539 13.1177 149.262 22.7506C149.738 29.0749 148.941 36.0517 149.174 42.4431C145.474 45.7234 142.257 48.6757 141.026 53.6949C140.906 54.1817 140.426 56.0193 140.426 56.2698V77.6095V77.613ZM54.2775 21.2656C46.2566 22.3626 42.6906 31.2653 45.0256 38.4467C47.0397 44.637 57.7095 54.4004 63.4271 57.4338C66.912 59.2785 69.1342 56.552 71.9665 54.4744C77.342 50.538 85.0596 43.7975 86.7139 37.124C89.2781 26.7857 79.3737 17.2446 69.3423 22.5742C67.9173 23.3326 66.8838 24.5671 65.5188 25.3784C62.5383 22.158 58.6971 20.6589 54.274 21.2621L54.2775 21.2656ZM100.131 21.2691C91.9483 22.4649 88.8231 31.491 91.391 38.6442C93.5778 44.7358 104.163 54.6966 109.909 57.5149C112.487 58.7812 112.967 58.111 115.143 56.7354C120.843 53.127 130.406 44.9403 132.476 38.4432C136.818 24.8034 122.046 15.093 111.986 25.3854C108.385 22.2779 105.073 20.5461 100.135 21.2691H100.131Z" fill="#ffffff" fill-opacity="0.18"/>
<path d="M140.426 105.478H37.0789V88.0183C37.0789 84.1983 41.6254 78.9534 45.7064 79.0098L132.141 79.0239C135.28 78.9675 140.43 84.0749 140.43 86.9602V105.478H140.426Z" fill="#ffffff" fill-opacity="0.18"/>
<path d="M145.365 105.478V56.626C145.365 52.538 150.521 47.1096 154.186 45.6952C167.738 40.4678 178.979 57.5608 168.655 67.9237C166.796 69.7896 163.974 70.3187 163.434 73.2851C161.96 81.3801 166.292 96.8717 160.14 102.794C159.353 103.552 155.988 105.478 155.064 105.478H145.365Z" fill="#ffffff" fill-opacity="0.18"/>
<path d="M32.1407 105.478H22.4408C20.7195 105.478 17.3722 102.787 16.3281 101.362C11.771 95.1292 15.464 80.6499 14.0672 72.9359C13.6404 70.5832 11.2772 69.8531 9.73223 68.4528C-3.01868 56.88 11.9509 38.3197 25.9045 46.9896C28.3136 48.4887 32.1407 53.4268 32.1407 56.2733V105.478Z" fill="#ffffff" fill-opacity="0.18"/>
<path d="M100.131 21.2691C105.07 20.5461 108.385 22.2779 111.983 25.3854C122.043 15.0965 136.815 24.8034 132.473 38.4432C130.402 44.9439 120.84 53.127 115.14 56.7354C112.963 58.111 112.484 58.7812 109.905 57.5149C104.16 54.6966 93.5743 44.7322 91.3874 38.6442C88.8196 31.491 91.9447 22.4684 100.128 21.2691H100.131ZM100.83 26.2002C97.7329 26.7293 95.278 30.7327 95.285 33.6991C95.2921 37.7836 99.3378 42.4678 102.149 45.1731C103.511 46.4817 110.121 51.9948 111.503 52.4322C112.159 52.6403 112.223 52.5133 112.762 52.2558C114.381 51.4833 118.815 47.7656 120.332 46.4041C124.593 42.5771 129.058 37.9071 128.004 31.6674C127.496 28.6728 124.596 26.2214 121.566 26.0944C115.415 25.8334 114.918 32.4892 111.676 32.4293C109.905 32.3975 108.551 29.3324 107.461 28.2284C105.659 26.4048 103.384 25.7699 100.837 26.2037L100.83 26.2002Z" fill="black"/>
<path d="M54.2776 21.2656C58.7007 20.6589 62.5418 22.1615 65.5223 25.3819C66.8874 24.5706 67.9209 23.3361 69.3459 22.5778C79.3773 17.2481 89.2817 26.7893 86.7174 37.1276C85.0632 43.8011 77.3456 50.5416 71.9701 54.478C69.1377 56.552 66.9121 59.282 63.4307 57.4373C57.7131 54.4074 47.0397 44.6441 45.0292 38.4503C42.6942 31.2688 46.2602 22.3661 54.2811 21.2692L54.2776 21.2656ZM54.9759 26.2002C52.8984 26.5494 50.9302 28.2143 50.0696 30.1084C46.9092 37.0676 54.3058 43.9774 59.1345 47.9738C60.0516 48.7321 64.5136 52.3334 65.2155 52.5062C65.868 52.6685 66.0338 52.4992 66.5593 52.2417C68.2701 51.4128 72.8872 47.4905 74.4744 46.0444C78.6824 42.2103 83.0421 37.6108 81.7193 31.3817C80.6294 26.2531 74.0124 24.3625 70.2206 28.0344C68.3864 29.8086 66.9332 34.3869 63.6952 31.417C60.8029 28.761 60.4996 25.269 54.9759 26.1967V26.2002Z" fill="black"/>
<path d="M100.83 26.2002C103.376 25.7664 105.652 26.3977 107.454 28.2248C108.544 29.3289 109.898 32.394 111.669 32.4258C114.914 32.4857 115.408 25.8299 121.559 26.0909C124.589 26.2214 127.489 28.6693 127.996 31.6639C129.051 37.9035 124.586 42.5736 120.325 46.4006C118.808 47.7621 114.378 51.4763 112.755 52.2523C112.216 52.5098 112.152 52.6367 111.496 52.4286C110.117 51.9913 103.507 46.4782 102.142 45.1696C99.3307 42.4678 95.285 37.7801 95.278 33.6956C95.2744 30.7327 97.7259 26.7258 100.823 26.1967L100.83 26.2002Z" fill="#4E8CFF"/>
<path d="M54.9759 26.2002C60.4996 25.2726 60.8029 28.7645 63.6952 31.4205C66.9332 34.394 68.39 29.8156 70.2206 28.0379C74.0123 24.3661 80.6329 26.2531 81.7193 31.3852C83.042 37.6143 78.6789 42.2138 74.4744 46.0479C72.8872 47.4941 68.2736 51.4163 66.5593 52.2452C66.0338 52.4992 65.868 52.6685 65.2155 52.5098C64.5135 52.3369 60.0516 48.7356 59.1345 47.9773C54.3058 43.9809 46.9127 37.0711 50.0696 30.1119C50.9302 28.2178 52.8984 26.5494 54.9759 26.2037V26.2002Z" fill="#4E8CFF"/>
</svg>
