<svg width="190" height="171" viewBox="0 0 190 171" fill="none" xmlns="http://www.w3.org/2000/svg">
<path d="M132.533 92.3146H35.2927C35.2124 91.8095 35.8793 91.8583 36.2529 91.7085C61.8426 81.592 89.4085 73.5379 115.431 64.1042C118.476 62.9999 125.253 61.1013 127.585 59.5093C129.286 58.3493 130.008 56.7155 129.774 54.6845C129.603 53.2179 123.999 39.5899 123.085 38.3393C121.395 36.0367 118.982 35.866 116.468 36.918C80.1035 50.431 42.7717 61.5612 6.48034 75.2379C3.39729 76.4014 0.0733228 76.9588 0 80.9928L4.57046 95.969C4.94755 118.268 3.79533 140.775 5.16053 162.963C6.48733 167.035 9.8078 169.898 14.1548 170.362H126.615C131.562 170.125 135.822 166.383 136.552 161.465L136.559 96.3103C136.503 94.3142 134.324 92.6073 132.536 92.3111L132.533 92.3146Z" fill="white"/>
<path d="M132.533 92.3147C134.32 92.6108 136.503 94.3178 136.555 96.3139L136.548 161.468C135.818 166.384 131.555 170.128 126.611 170.365H14.1548C9.8078 169.902 6.48733 167.038 5.16053 162.966C3.79184 140.779 4.94755 118.275 4.57046 95.9725L0 80.9929C0.0733228 76.9588 3.39729 76.4015 6.48034 75.2379C42.7717 61.5612 80.1035 50.431 116.465 36.9181C118.979 35.866 121.391 36.0402 123.081 38.3394C123.996 39.5865 129.603 53.2145 129.771 54.6845C130.005 56.7155 129.282 58.3493 127.582 59.5094C125.249 61.1014 118.472 63 115.428 64.1043C89.405 73.5379 61.8391 81.5921 36.2494 91.7085C35.8758 91.8548 35.2089 91.8095 35.2892 92.3147H132.529H132.533ZM115.25 43.1956L100.676 48.1562L95.7003 65.1389L110.033 60.1086L115.25 43.1956ZM82.0797 54.6915L65.7601 60.3489L60.439 77.6834L77.0134 71.7543C78.7418 66.0899 80.8402 60.4604 82.0797 54.6915ZM42.5447 83.8738L47.8589 66.5358L31.5288 72.1863C29.6539 77.9308 28.1315 83.7937 26.2147 89.5243L42.5447 83.8738ZM13.9942 78.3802L5.96359 81.1706L9.45865 92.663C10.2303 92.3669 10.349 91.2138 10.5934 90.4893C11.9342 86.5528 12.9188 82.4003 13.9907 78.3802H13.9942ZM44.72 97.1917H27.4367L17.8349 110.081H35.4673C38.0301 106.632 40.8164 103.271 43.2605 99.7418C43.5154 99.3725 44.9748 97.4147 44.72 97.1917ZM81.3814 97.1917H63.9236C61.5982 101.275 58.1939 104.689 55.6171 108.587C55.2959 109.071 54.7617 109.444 54.8455 110.081H72.1287L81.3814 97.1917ZM116.995 97.1917H100.41L90.8086 110.081H107.743L116.995 97.1917ZM131.314 110.081L131.14 106.249L128.521 110.078H131.314V110.081ZM131.311 114.958H10.328L9.80431 115.481V160.071C9.80431 161.695 11.798 164.318 13.453 164.791C51.4517 165.387 89.7227 165.258 127.725 164.858C128.877 164.67 131.311 162.06 131.311 161.116V114.958Z" fill="black"/>
<path d="M144.639 65.0955C146.243 63.4782 148.046 62.998 149.774 63.2644C151.541 63.5369 153.32 64.6076 154.739 66.2537L155.438 67.0632L156.198 66.3123C159.64 62.9159 163.325 63.3383 165.44 65.2673C167.571 67.2096 168.393 70.9328 165.493 74.7839C164.823 75.6728 162.753 77.6474 160.506 79.5691C159.399 80.5156 158.278 81.4253 157.307 82.1531C156.309 82.9006 155.544 83.3986 155.124 83.5837C154.731 83.7565 154.63 83.8017 154.524 83.823C154.474 83.8332 154.381 83.8454 154.107 83.7937C154.052 83.7612 153.969 83.7058 153.855 83.6218C153.626 83.4531 153.327 83.2077 152.971 82.8992C152.262 82.2847 151.382 81.4624 150.49 80.6013C148.694 78.8661 146.928 77.0456 146.481 76.5154C145.029 74.7887 143.705 72.7262 143.191 70.6873C142.699 68.7315 142.952 66.8346 144.574 65.1599L144.639 65.0955Z" fill="#4E8CFF" stroke="black" stroke-width="2"/>

<path d="M166.272 31.2938C167.876 29.6766 169.679 29.1964 171.407 29.4628C173.175 29.7352 174.953 30.806 176.372 32.452L177.071 33.2616L177.831 32.5106C181.274 29.1143 184.958 29.5367 187.073 31.4657C189.204 33.408 190.026 37.1312 187.126 40.9823C186.456 41.8712 184.386 43.8458 182.139 45.7675C181.032 46.7139 179.911 47.6237 178.94 48.3515C177.942 49.099 177.177 49.5969 176.757 49.7821C176.364 49.9549 176.263 50 176.157 50.0214C176.107 50.0316 176.014 50.0438 175.74 49.9921C175.685 49.9596 175.602 49.9041 175.489 49.8202C175.259 49.6515 174.96 49.4061 174.604 49.0975C173.895 48.4831 173.015 47.6608 172.123 46.7997C170.327 45.0645 168.561 43.244 168.115 42.7138C166.662 40.9871 165.338 38.9246 164.824 36.8856C164.332 34.9299 164.585 33.033 166.207 31.3583L166.272 31.2938Z" fill="#4E8CFF" stroke="black" stroke-width="2"/>
<path d="M139.23 2.90048C140.835 1.28322 142.637 0.802995 144.366 1.06943C146.133 1.34188 147.911 2.41265 149.331 4.05869L150.029 4.86826L150.79 4.11728C154.232 0.720958 157.916 1.14333 160.032 3.07236C162.162 5.01461 162.985 8.73785 160.085 12.589C159.415 13.4778 157.345 15.4524 155.098 17.3741C153.991 18.3206 152.87 19.2304 151.898 19.9581C150.901 20.7056 150.135 21.2036 149.716 21.3888C149.323 21.5615 149.222 21.6067 149.116 21.628C149.065 21.6382 148.972 21.6504 148.699 21.5987C148.644 21.5663 148.561 21.5108 148.447 21.4268C148.218 21.2581 147.918 21.0127 147.562 20.7042C146.854 20.0897 145.973 19.2675 145.082 18.4063C143.286 16.6712 141.519 14.8506 141.073 14.3204C139.621 12.5937 138.297 10.5312 137.783 8.49228C137.291 6.53655 137.544 4.6396 139.166 2.96494L139.23 2.90048Z" fill="#4E8CFF" stroke="black" stroke-width="2"/>
<path d="M131.311 114.958V161.116C131.311 162.057 128.877 164.67 127.725 164.858C89.7229 165.258 51.4518 165.387 13.4531 164.792C11.7946 164.318 9.80444 161.698 9.80444 160.071V115.481L10.3282 114.958H131.311ZM58.2673 124.451C50.8024 125.029 46.5252 132.836 48.7424 139.682C50.3764 144.726 61.6961 154.219 66.2526 157.396C67.5584 158.309 68.1171 158.803 69.8035 158.27C71.3014 157.796 78.4137 151.749 79.9884 150.317C85.739 145.092 92.565 138.42 88.0259 130.098C83.8675 122.469 73.5918 122.988 68.6373 129.579C66.2211 126.395 62.4328 124.124 58.2673 124.448V124.451Z" fill="white"/>
<path d="M82.0796 54.6914C80.8401 60.4603 78.7417 66.0898 77.0134 71.7542L60.4389 77.6833L65.76 60.3488L82.0796 54.6914Z" fill="white"/>
<path d="M42.5448 83.8738L26.2147 89.5243C28.1316 83.7937 29.6539 77.9273 31.5289 72.1862L47.8589 66.5358L42.5448 83.8738Z" fill="white"/>

<path d="M44.72 97.1916C44.9749 97.4111 43.5154 99.3724 43.2605 99.7417C40.8164 103.274 38.0302 106.632 35.4674 110.081H17.835L27.4368 97.1916H44.72Z" fill="white"/>
<path d="M115.249 43.1955L110.033 60.1085L95.7002 65.1389L100.672 48.1562L115.249 43.1955Z" fill="white"/>
<path d="M81.3812 97.1916L72.1286 110.081H54.8453C54.7616 109.444 55.2958 109.071 55.617 108.587C58.1972 104.688 61.6015 101.278 63.9234 97.1916H81.3812Z" fill="white"/>
<path d="M116.996 97.1916L107.743 110.081H90.8088L100.411 97.1916H116.996Z" fill="white"/>
<path d="M131.314 110.081L128.521 110.078L131.14 106.249L131.314 110.081Z" fill="white"/>
<path d="M58.5708 125.936C62.0278 125.745 65.2873 127.65 67.4419 130.489L68.6431 132.071L69.8364 130.484C72.0272 127.569 75.3888 126.01 78.6304 126.01C81.8372 126.01 84.9143 127.528 86.7085 130.82C88.6848 134.445 88.2161 137.642 86.5542 140.649C85.0493 143.371 82.5974 145.869 80.0669 148.214L78.98 149.21C78.2165 149.903 76.0679 151.753 73.9224 153.49C72.85 154.359 71.7939 155.186 70.9224 155.82C70.4857 156.137 70.1098 156.395 69.8101 156.583C69.4755 156.793 69.3411 156.847 69.3511 156.844C68.695 157.051 68.4763 156.993 68.3608 156.954C68.2342 156.912 68.1105 156.848 67.9243 156.728L67.1099 156.168C64.8975 154.624 60.986 151.505 57.4312 148.151C55.6551 146.475 53.9919 144.762 52.6831 143.178C51.3457 141.559 50.4865 140.201 50.1694 139.223C48.1998 133.142 52.042 126.438 58.3823 125.95L58.5708 125.936Z" fill="#4E8CFF" stroke="black" stroke-width="3"/>
</svg>
