<svg width="104" height="124" viewBox="0 0 104 124" fill="none" xmlns="http://www.w3.org/2000/svg" class="logo-dyn">
    <g clip-path="url(#clip0_442_157)">
    <path d="M80.0647 19.9407C79.1851 13.8397 74.4748 8.64789 68.2135 7.68186C66.4231 7.40807 64.2163 7.8885 62.7225 7.44939C61.4473 7.07745 60.7499 5.05756 59.7714 4.17935C51.2825 -3.42493 38.1041 -0.273701 34.7002 10.5903C28.189 10.022 22.2036 14.0102 20.6318 20.3901C12.5956 21.5679 8.00506 24.3937 5.8503 32.3234C5.59526 33.2688 5.81907 34.8031 5.51199 35.3455C5.39749 35.547 2.68061 36.8178 1.74896 38.0628C-1.63933 42.5779 0.432161 45.946 3.50816 49.6914C9.17092 72.5455 10.7896 98.1531 16.7959 120.708C17.0457 121.643 17.1446 123.058 18.1075 123.539L86.2271 123.725L100.384 49.6914C103.559 45.8014 105.87 42.2369 101.909 37.7787C101.035 36.792 98.4791 35.5367 98.375 35.3507C98.0315 34.7411 98.375 33.2017 98.1408 32.2253C95.8975 22.9782 89.8392 18.1894 80.0699 19.9407H80.0647Z" fill="white"/>
    <path d="M80.0645 19.9405C89.8338 18.1893 95.887 22.9781 98.1354 32.2252C98.3748 33.2015 98.0261 34.741 98.3696 35.3506C98.4737 35.5365 101.029 36.7919 101.904 37.7786C105.864 42.2368 103.554 45.8013 100.379 49.6912L86.2218 123.724L18.1021 123.538C17.1392 123.058 17.0351 121.643 16.7905 120.708C10.7894 98.1479 9.16555 72.5454 3.50279 49.6912C0.42679 45.9459 -1.6447 42.5777 1.74359 38.0627C2.67524 36.8177 5.39211 35.5469 5.50662 35.3454C5.8189 34.803 5.58989 33.2687 5.84493 32.3233C7.99969 24.3936 12.5903 21.5678 20.6264 20.39C22.1982 14.01 28.1837 10.0219 34.6948 10.5902C38.0987 -0.273823 51.2771 -3.42505 59.7661 4.17923C60.7445 5.05744 61.4368 7.07732 62.7171 7.44927C64.2109 7.88321 66.4229 7.40278 68.2081 7.68174C74.4694 8.64777 79.1849 13.8396 80.0593 19.9405H80.0645ZM38.411 11.675C40.6699 12.4241 46.1192 16.7531 44.1778 19.2173L42.4186 19.894C40.2014 18.1428 38.437 15.4617 35.4287 14.9037C27.8974 13.5193 25.5293 17.8638 23.6295 24.1353C19.2263 24.8482 14.5629 24.7087 11.643 28.7691C9.12912 32.2613 10.5917 35.1129 9.51947 37.5099C8.5566 39.659 3.17489 39.0752 4.15859 43.8537C4.87684 47.3407 8.52016 45.7341 10.55 45.7651C14.9897 45.8271 18.0865 46.2662 21.506 49.309C27.2364 44.0655 35.7358 44.9799 41.7212 49.3451C47.5037 44.1792 56.6172 44.6493 62.5402 49.3606C68.3383 44.0862 76.796 44.8611 82.8387 49.3451C84.8165 47.1289 87.804 46.0441 90.7239 45.7858C93.6437 45.5275 98.0521 47.2426 99.4418 44.0914C101.435 39.566 95.252 39.349 94.362 37.5151C93.7426 36.2443 94.2423 33.5993 93.8727 31.8016C93.0556 27.8031 89.1624 23.8512 84.983 23.5515C82.5264 23.3759 78.6489 25.4423 77.457 24.8844C75.5208 23.9751 76.0777 19.6409 75.0524 17.4196C72.3095 11.4942 66.4125 11.0034 60.6457 12.1245C58.7303 10.7606 58.3972 8.40497 56.6016 6.80869C50.4652 1.35345 41.1799 4.22055 38.4162 11.675H38.411ZM27.481 119.654L19.4449 55.0483C17.9147 49.185 13.8238 49.8359 8.5618 49.9909L7.80711 51.0757L20.7409 119.623L27.4862 119.649L27.481 119.654ZM42.0543 119.654C41.2632 113.377 41.7524 107.085 41.5547 100.777C41.2111 89.7997 40.5033 78.698 39.9776 67.7307C39.7642 63.288 40.2691 58.1737 39.4415 53.7982C38.411 48.3584 23.8794 48.6219 23.489 54.3716L31.6448 119.654H42.0543ZM57.6685 119.654L60.2605 53.7982C59.2872 48.6839 46.4523 48.6322 43.8916 53.0233L46.2233 119.654H57.6737H57.6685ZM72.2418 119.654L80.4965 54.2786C79.3463 48.4101 66.782 48.7924 64.721 53.0439C63.1335 56.3192 64.086 65.2253 63.9298 69.3064C63.5291 80.1084 62.7484 91.0085 62.3268 101.811C62.0926 107.746 62.1654 113.723 61.8271 119.654H72.2366H72.2418ZM96.1784 49.9185C91.3328 49.7791 85.821 49.2883 84.4365 55.0483L76.4004 119.654L82.8231 119.674L96.1784 49.9134V49.9185Z" fill="black"/>
    <path d="M38.411 11.6751C41.1747 4.22062 50.46 1.35352 56.5964 6.80876C58.3972 8.41021 58.7303 10.7607 60.6404 12.1245C66.4125 11.0087 72.3043 11.4943 75.0472 17.4196C76.0725 19.6358 75.5156 23.97 77.4518 24.8844C78.6436 25.4423 82.5212 23.376 84.9778 23.5516C89.1572 23.8512 93.0504 27.8032 93.8675 31.8016C94.2318 33.5994 93.7374 36.2443 94.3568 37.5152C95.2468 39.3491 101.43 39.566 99.4366 44.0914C98.0469 47.2426 93.6073 45.5327 90.7186 45.7859C87.83 46.039 84.8113 47.129 82.8335 49.3452C76.7907 44.8611 68.3278 44.0863 62.535 49.3607C56.612 44.6493 47.4933 44.1792 41.716 49.3452C35.7305 44.98 27.2312 44.0656 21.5008 49.309C18.0761 46.2611 14.9844 45.8272 10.5448 45.7652C8.51494 45.7342 4.87162 47.3408 4.15337 43.8538C3.16967 39.0805 8.55137 39.6642 9.51425 37.51C10.5864 35.113 9.1239 32.2666 11.6378 28.7692C14.5576 24.7139 19.2263 24.8534 23.6243 24.1354C25.524 17.8639 27.8922 13.5193 35.4235 14.9038C38.437 15.4566 40.1962 18.1429 42.4134 19.8941L44.1726 19.2174C46.114 16.7584 40.6646 12.4242 38.4058 11.6751H38.411ZM60.6508 19.0417C58.7771 19.362 53.7962 21.5576 53.9992 23.7996C55.4929 27.9117 58.3712 23.5154 61.0828 23.0867C63.4718 22.7096 66.8809 22.9834 68.6089 24.8483C69.9309 26.2741 71.2945 32.2407 74.0739 29.7714C75.8175 28.2216 72.856 23.3605 71.4559 22.0225C68.7338 19.4188 64.3202 18.4167 60.6508 19.0417ZM26.8096 36.8436C28.5792 35.33 28.2878 32.6333 32.488 32.3647C37.5418 32.0444 38.4318 39.4937 41.5651 37.293C43.673 32.3079 36.3603 27.9478 31.9779 28.2526C28.2982 28.5109 21.7922 32.6333 23.7909 36.7868C24.5716 37.789 25.9144 37.6082 26.8096 36.8436ZM49.4971 34.0591C52.063 32.1116 55.4097 33.1551 58.3712 32.7935C60.4687 30.7323 59.0478 29.0378 56.3725 28.7279C51.8965 28.201 46.2701 29.477 44.6619 34.1728C44.9325 35.8931 46.8375 36.4561 48.3104 35.7174C48.9558 35.392 49.0807 34.3743 49.4919 34.0591H49.4971ZM65.611 39.4524C67.5627 41.4361 71.102 35.9344 76.0257 38.1557C77.3737 38.7653 80.1478 42.0922 81.3501 39.5764C83.3071 35.4953 75.5312 33.2378 72.5281 33.3669C69.9934 33.4754 62.6807 36.4716 65.611 39.4524Z" fill="#FFF6E2"/>

    <path d="M57.6685 119.654H46.2181L43.8864 53.0233C46.4471 48.6322 59.282 48.6839 60.2553 53.7982L57.6633 119.654H57.6685Z" fill="white"/>
    <path d="M42.0543 119.654H31.6448L23.489 54.3717C23.8846 48.622 38.411 48.3585 39.4415 53.7983C40.2691 58.1738 39.7642 63.2881 39.9776 67.7308C40.5033 78.6981 41.2112 89.7998 41.5547 100.777C41.7525 107.085 41.2632 113.377 42.0543 119.654Z" fill="#4E8CFF"/>
    <path d="M72.2418 119.654H61.8323C62.1706 113.723 62.0977 107.746 62.3319 101.811C62.7535 91.0085 63.5342 80.1084 63.935 69.3064C64.0859 65.2201 63.1387 56.3192 64.7261 53.044C66.7872 48.7924 79.3514 48.4101 80.5017 54.2786L72.247 119.654H72.2418Z" fill="#4E8CFF"/>
    <path d="M96.1784 49.9185L82.823 119.679L76.4004 119.659L84.4365 55.0535C85.821 49.2934 91.3328 49.7842 96.1784 49.9237V49.9185Z" fill="white"/>
    <path d="M27.4811 119.654L20.7357 119.628L7.80713 51.0809L8.56182 49.9961C13.8238 49.8411 17.9147 49.1902 19.4449 55.0535L27.4811 119.659V119.654Z" fill="white"/>

    <path d="M60.6508 19.0417C64.3202 18.4166 68.7338 19.4188 71.4559 22.0225C72.8508 23.3605 75.8175 28.2216 74.0739 29.7714C71.2998 32.2407 69.9309 26.2689 68.6089 24.8482C66.8757 22.9833 63.4718 22.7095 61.0828 23.0867C58.3712 23.5154 55.4929 27.9117 53.9992 23.7996C53.7962 21.5575 58.7771 19.362 60.6508 19.0417Z" fill="black"/>
    <path d="M26.8096 36.8436C25.9144 37.6082 24.5715 37.789 23.7908 36.7868C21.7922 32.6334 28.2981 28.5109 31.9779 28.2526C36.3655 27.9478 43.6781 32.3079 41.565 37.293C38.4318 39.4937 37.5365 32.0444 32.4879 32.3647C28.2877 32.6334 28.5792 35.33 26.8096 36.8436Z" fill="black"/>
    <path d="M65.611 39.4523C62.686 36.4716 69.9934 33.4753 72.5281 33.3668C75.5313 33.2377 83.3072 35.4952 81.3502 39.5763C80.1479 42.0921 77.3737 38.7652 76.0257 38.1557C71.102 35.9343 67.5628 41.436 65.611 39.4523Z" fill="black"/>
    <path d="M49.4971 34.0591C49.0859 34.3742 48.9558 35.3919 48.3156 35.7174C46.8427 36.4561 44.9378 35.8878 44.6671 34.1727C46.2754 29.4769 51.8965 28.2009 56.3778 28.7278C59.0478 29.043 60.4739 30.7374 58.3764 32.7934C55.4149 33.1551 52.0631 32.1167 49.5023 34.0591H49.4971Z" fill="black"/>
    </g>
    <defs>
    <clipPath id="clip0_442_157">
    <rect width="103.996" height="123.719" fill="white"/>
    </clipPath>
    </defs>
</svg> 