<svg width="203" height="124" viewBox="0 0 203 124" fill="none" xmlns="http://www.w3.org/2000/svg">
<path d="M162.244 61.8941C164.757 55.0926 165.962 48.9656 164.831 41.691C160.969 16.901 133.008 3.91541 111.473 16.9949C108.48 18.8136 106.309 21.1724 103.692 23.3166C101.353 21.508 99.4135 19.2968 96.917 17.666C75.3147 3.5396 46.1391 16.5319 42.5018 41.9762C41.4851 49.0964 42.6461 55.2537 45.1358 61.8907C40.4349 61.1827 35.3648 63.2396 36.1063 68.7425C37.1197 76.2755 49.1859 72.0409 54.0479 73.618L102.497 122.141C103.071 122.789 104.061 122.839 104.718 122.309L153.201 73.8227C153.641 73.4368 154.131 73.363 154.688 73.2959C159.043 72.7825 164.385 73.7757 168.791 73.306C174.065 72.7389 175.401 65.7998 171.143 62.9007C170.71 62.6054 169.18 61.8974 168.791 61.8974H162.247L162.244 61.8941Z" fill="white" stroke="black"/>
<path d="M162.244 61.8941H168.787C169.176 61.8941 170.707 62.6021 171.139 62.8974C175.401 65.7998 174.062 72.7389 168.787 73.3026C164.382 73.7757 159.043 72.7791 154.684 73.2925C154.124 73.3596 153.637 73.4334 153.198 73.8193L104.715 122.305C104.057 122.836 103.068 122.785 102.494 122.138L54.0479 73.6213C49.1859 72.0409 37.123 76.2789 36.1063 68.7459C35.3648 63.243 40.4349 61.1861 45.1358 61.8941C42.6428 55.2537 41.4818 49.0964 42.5018 41.9795C46.1391 16.5319 75.3147 3.5396 96.917 17.666C99.4135 19.3001 101.353 21.508 103.692 23.3166C106.309 21.1724 108.483 18.8136 111.473 16.9949C133.008 3.91541 160.969 16.901 164.828 41.691C165.959 48.9622 164.754 55.0926 162.241 61.8941H162.244ZM158.842 61.8471C169.77 39.0771 152.621 13.0623 127.183 14.9213C121.281 15.3541 114.077 18.3069 109.56 22.1287C108.315 23.1824 104.943 27.3699 103.692 27.3699C102.44 27.3699 99.3665 23.4843 98.1585 22.4643C72.5934 0.861959 35.0595 28.4974 47.3269 58.8675C47.6759 59.7365 48.4745 61.733 49.3335 61.8941L77.9688 61.837L87.2735 44.4659C89.9813 41.0971 94.7964 41.399 96.9976 45.0967L103.863 66.2494L110.292 52.7203C112.607 49.4957 116.442 49.328 119.308 51.9788L128.257 61.8203L158.845 61.8438L158.842 61.8471ZM169.854 65.6924C169.317 65.1992 168.2 64.9039 167.462 64.8972L126.915 64.8469L116.959 53.9987C115.11 52.6566 113.647 53.0458 112.52 54.955L105.158 71.4135C104.004 72.8328 102.849 72.3933 102.162 70.8095C98.9907 63.5148 97.5277 54.1732 94.387 46.7074C93.1321 44.6605 91.0786 44.5632 89.6189 46.4792C86.0857 51.1164 83.7436 58.8876 80.3143 63.6825C79.9855 64.1422 79.6902 64.6288 79.1265 64.8435L41.9448 64.9073C39.0591 65.3603 37.9787 68.2157 40.4483 70.1116L82.1464 70.2122C82.7436 70.078 82.9752 69.8431 83.3443 69.3968C84.8173 67.6151 89.0452 57.6494 90.3404 57.2535C91.5114 56.8945 92.0047 57.3709 92.4711 58.3574C95.8634 65.5582 97.2392 75.5239 100.44 82.9361C101.484 85.352 103.792 85.9325 105.497 83.832C108.52 77.6714 110.862 70.8766 113.976 64.7965C114.798 63.1893 115.328 60.9915 117.452 62.5685C119.388 64.008 121.707 67.9708 123.653 69.4505C124.24 69.8968 124.673 70.3263 125.499 70.2894L168.784 70.2726C170.663 69.6988 171.331 67.038 169.861 65.6924H169.854ZM82.8879 73.3026H58.561L103.692 118.93L148.822 73.3026H124.16C124.012 73.3026 121.939 72.0678 121.633 71.8027L116.785 66.5917L107.701 86.0331C104.967 89.3215 99.7188 88.59 97.9102 84.7883L90.7699 62.5652C88.5385 64.924 86.3709 72.6013 82.8879 73.3026Z" fill="black" stroke="black"/>
<path d="M158.842 61.8474L128.254 61.8239L119.305 51.9824C116.439 49.3316 112.604 49.4993 110.289 52.7239L103.86 66.2531L96.9944 45.1004C94.7932 41.4027 89.9782 41.1007 87.2703 44.4695L77.9657 61.8407L49.3303 61.8977C48.4747 61.7366 47.6761 59.7368 47.3238 58.8711C35.0596 28.4976 72.5936 0.862204 98.1587 22.4645C99.3667 23.4846 102.447 27.3702 103.692 27.3702C104.937 27.3702 108.312 23.1826 109.561 22.129C114.08 18.3071 121.281 15.3544 127.183 14.9215C152.621 13.0626 169.771 39.0773 158.842 61.8474Z" stroke="black"/>
<path d="M82.888 73.3026C86.3709 72.6013 88.5386 64.9241 90.7699 62.5652L97.9103 84.7883C99.7189 88.5934 104.963 89.3215 107.701 86.0331L116.785 66.5917L121.633 71.8027C121.939 72.0644 124.016 73.3026 124.16 73.3026H148.822L103.692 118.93L58.561 73.3026H82.888Z" stroke="black"/>
<path d="M169.854 65.6926C171.324 67.0415 170.653 69.7023 168.777 70.2727L125.492 70.2895C124.67 70.3231 124.234 69.8969 123.647 69.4507C121.7 67.9709 119.378 64.0048 117.446 62.5686C115.322 60.9916 114.795 63.1894 113.97 64.7967C110.856 70.8767 108.514 77.6681 105.49 83.8321C103.786 85.9326 101.477 85.3521 100.434 82.9362C97.2326 75.524 95.8568 65.5617 92.4645 58.3576C92.0014 57.3744 91.5082 56.8946 90.3338 57.2536C89.0352 57.6496 84.8107 67.6152 83.3377 69.397C82.9686 69.8432 82.7404 70.0815 82.1398 70.2123L40.4417 70.1117C37.9755 68.2159 39.0526 65.3637 41.9382 64.9074L79.1199 64.8436C79.6836 64.6255 79.9789 64.1423 80.3077 63.6827C83.7336 58.8877 86.0791 51.1165 89.6124 46.4793C91.072 44.5633 93.1255 44.6573 94.3804 46.7075C97.5211 54.1733 98.9841 63.5149 102.155 70.8096C102.843 72.3934 103.994 72.8329 105.151 71.4136L112.513 54.9552C113.641 53.0493 115.104 52.6567 116.952 53.9988L126.908 64.847L167.455 64.8973C168.197 64.904 169.314 65.2027 169.848 65.6926H169.854Z" fill="#4E8CFF" fill-opacity="0.4" stroke="black"/>
<path d="M58.876 2C58.9374 2.00105 58.9454 2.0078 58.9785 2.03516C59.1733 2.19624 59.5142 2.73957 59.8115 4.01172C60.088 5.1946 60.2392 6.58547 60.3965 8.01953C60.5226 9.16903 60.6618 10.4799 60.9307 11.5146L61.0547 11.9395C61.8085 14.257 63.0142 15.9723 64.5527 17.2402C66.0644 18.4859 67.8035 19.2226 69.5107 19.7402C71.185 20.2478 73.0082 20.5919 74.6016 20.9414C75.7745 21.1987 76.869 21.4677 77.8848 21.8145C77.7655 22.496 77.4851 22.7995 77.2344 22.9951C76.652 23.4495 75.6666 23.7434 73.9844 24.0557C71.0198 24.6059 66.0875 25.0804 63.0869 29.2617L63.0859 29.2627C60.9392 32.2568 60.7523 35.9351 60.415 38.4023C60.1157 40.5919 59.7318 41.941 58.7373 42.8057C57.5173 41.8648 57.1305 40.3476 56.8057 37.8467C56.4599 35.1841 56.226 31.3066 53.5801 28.2754L53.3164 27.9844C51.9972 26.5853 50.2279 25.7735 48.5488 25.2314C46.8653 24.688 45.0316 24.3459 43.4912 24.0381C41.8543 23.711 40.6099 23.4313 39.751 23.0459C39.3408 22.8619 39.1453 22.707 39.0625 22.6172C39.0107 22.561 39.0079 22.5426 39.0039 22.4971C38.9842 22.2723 39.0085 22.1578 39.3027 21.9385C39.7177 21.6293 40.4581 21.3307 41.5732 21.0615C42.6637 20.7984 43.8446 20.6197 45.085 20.4072C46.2318 20.2108 47.5338 19.9701 48.5439 19.5566L48.5479 19.5557C54.2985 17.1896 55.9733 12.5032 56.6963 8.65234C56.875 7.70028 57.0009 6.7739 57.1123 5.95215C57.2269 5.10747 57.3231 4.39706 57.4463 3.77832C57.7287 2.36082 58.0146 2.26556 57.9414 2.30273V2.30176C58.4785 2.02908 58.7708 1.99823 58.876 2Z" fill="white" stroke="black" stroke-width="4" stroke-linejoin="round"/>
<path d="M13.7129 24.5C13.7299 24.5159 13.7595 24.5483 13.7998 24.6074C13.9832 24.8769 14.1694 25.3864 14.3281 26.1758C14.4813 26.9377 14.5769 27.7772 14.6826 28.6387C14.7684 29.3377 14.8665 30.1174 15.0312 30.7627L15.1064 31.0303C15.6964 32.9583 16.6059 34.3306 17.7578 35.2842C18.898 36.2281 20.1653 36.6694 21.3105 36.9229C21.8802 37.0489 22.4389 37.1322 22.9404 37.2021C23.4612 37.2748 23.895 37.3297 24.3066 37.4043C25.0517 37.5393 25.436 37.6964 25.6533 37.8682L25.7363 37.9424C25.8422 38.0499 25.9101 38.1362 25.9551 38.1992C25.8869 38.2553 25.7846 38.3297 25.6338 38.416C25.349 38.579 24.9731 38.7424 24.5176 38.9033C23.6014 39.227 22.527 39.4834 21.5273 39.7158C21.0439 39.8282 20.5635 39.9381 20.1641 40.043C19.8042 40.1374 19.3559 40.2652 19.0127 40.4434C15.7064 42.1585 14.9463 45.757 14.5303 48.2891C14.2989 49.6971 14.1792 50.753 13.9355 51.5859C13.8443 51.8979 13.755 52.0939 13.6846 52.2129C13.6653 52.1806 13.6428 52.1436 13.6201 52.0996C13.3397 51.5561 13.1069 50.6565 12.8691 49.4414C12.6504 48.3237 12.4241 46.9211 12.1416 45.7344C11.8663 44.5777 11.4638 43.2616 10.7119 42.3516V42.3506C9.88487 41.3505 8.72283 40.7489 7.63477 40.3418C6.53855 39.9317 5.33662 39.6565 4.3252 39.4199C3.24671 39.1676 2.43254 38.9682 1.86719 38.7168C1.66714 38.6278 1.55757 38.5583 1.50098 38.5156C1.50401 38.412 1.52628 38.3624 1.54004 38.3369C1.56515 38.2904 1.63241 38.1977 1.81934 38.0713C2.24211 37.7855 2.93891 37.5425 3.97754 37.2627C4.92176 37.0083 6.14696 36.7237 7.23926 36.3281C8.34238 35.9286 9.53783 35.3435 10.4209 34.3447C11.2806 33.3722 11.7692 32.1272 12.0947 30.9658C12.4218 29.7991 12.6296 28.535 12.8203 27.4824C13.0235 26.361 13.2031 25.5177 13.4492 24.9404C13.5658 24.667 13.6606 24.5449 13.7051 24.501C13.708 24.5008 13.7105 24.5001 13.7129 24.5Z" fill="white" stroke="black" stroke-width="3" stroke-linejoin="round"/>
<path d="M191.801 28.1143C191.839 28.2491 191.881 28.4076 191.919 28.5938C192.031 29.147 192.102 29.7589 192.183 30.4121C192.257 31.001 192.347 31.7148 192.519 32.2705V32.2715C192.986 33.7785 193.715 34.8748 194.655 35.6426C195.582 36.3996 196.605 36.748 197.504 36.9443C197.951 37.0419 198.387 37.1056 198.769 37.1582C199.171 37.2135 199.49 37.2533 199.794 37.3076C200.118 37.3655 200.327 37.4264 200.464 37.4805C200.306 37.5535 200.119 37.631 199.901 37.707C199.226 37.9425 198.427 38.1308 197.665 38.3057C197.3 38.3894 196.929 38.4736 196.62 38.5537C196.349 38.6238 195.972 38.7269 195.672 38.8809C192.981 40.259 192.385 43.1474 192.07 45.0381C191.938 45.8284 191.856 46.4379 191.754 46.9404C191.675 46.6469 191.595 46.2974 191.514 45.8896C191.352 45.0727 191.176 43.9937 190.959 43.0947C190.762 42.2789 190.467 41.2902 189.909 40.5469L189.794 40.4014C189.105 39.5795 188.153 39.1015 187.304 38.7881C186.447 38.4714 185.51 38.2602 184.747 38.084C184.044 37.9217 183.518 37.7933 183.135 37.6533C183.417 37.5108 183.851 37.3661 184.494 37.1953C185.194 37.0092 186.152 36.7886 187.001 36.4854C187.859 36.1786 188.834 35.7147 189.565 34.8984C190.274 34.1067 190.665 33.1085 190.919 32.2158C191.174 31.3182 191.336 30.3454 191.479 29.5664C191.592 28.954 191.692 28.4774 191.801 28.1143Z" fill="white" stroke="black" stroke-width="3" stroke-linejoin="round"/>
</svg>
