<svg width="150" height="134" viewBox="0 0 150 134" fill="none" xmlns="http://www.w3.org/2000/svg">
<path d="M103.156 52.6556C108.718 49.9225 113.717 46.2762 118.747 42.7043L135.78 69.0174C136.659 69.6767 137.6 69.6396 138.424 68.8657C140.383 65.3433 143.206 62.1118 144.614 58.3448L136.604 28.9952C141.671 23.1265 150.319 15.4904 149.991 7.07114C149.719 0.0417157 143.797 -0.716634 138.096 0.444104C131.181 1.85247 125.956 7.07733 120.935 11.6491L88.7287 2.15271C87.8094 1.98556 87.1935 2.26414 86.4011 2.60462C85.4477 3.0163 78.3688 7.70878 78.0437 8.25045C77.6321 8.93761 77.6197 10.0983 78.149 10.7329L104.044 27.723L93.5481 38.8196L78.8361 35.2508C77.9076 35.3158 73.506 38.4946 72.9644 39.3056C72.2215 40.4199 72.3824 41.1287 73.246 42.0945C75.4561 44.5676 80.2198 47.0841 82.8446 49.5201C83.1417 49.7956 83.8103 50.2815 83.8784 50.6344C83.9063 50.7799 83.3336 52.7268 83.2439 52.8383C83.0891 53.0271 82.2317 53.2499 81.7643 53.6802C80.4612 54.8719 79.2881 56.4721 79.2973 58.3355C79.3159 63.4242 88.0942 60.1896 90.7592 59.2424C92.731 61.0532 98.4758 71.1501 100.339 71.6763C102.336 72.2396 105.208 67.0674 105.942 65.4578L103.159 52.6556H103.156ZM15.7694 52.3863C1.50624 54.0888 -2.93552 70.6827 1.85291 82.5346C7.56374 96.6677 22.0498 107.659 34.0936 116.218C24.461 122.374 13.7543 126.349 2.29864 127.441C0.540505 128.172 1.1348 130.617 3.01365 130.905C4.02581 131.06 6.11514 130.679 7.23874 130.527C29.073 127.599 63.9385 104.155 72.8436 83.7727C84.2622 57.6329 54.8073 40.1971 39.8539 61.9261C39.4763 62.4739 37.8729 65.6064 37.6594 65.6064C33.1928 56.8962 26.0705 51.1575 15.7694 52.3894V52.3863ZM23.0341 130.066C22.4583 130.982 22.5017 132.149 23.2662 132.938C25.0893 134.019 38.232 130.97 40.9806 130.215C63.6227 123.99 84.1755 106.802 95.7551 86.5585C96.5537 85.1594 98.6089 81.8072 98.9649 80.4762C99.5282 78.3745 97.5411 77.1952 95.9872 78.4333C95.2877 78.9905 91.8488 85.9982 90.88 87.5614C78.8826 106.898 58.6641 122.572 36.2789 127.676C31.8897 128.676 27.3303 128.899 23.0402 130.066H23.0341Z" fill="white"/>
<path d="M103.156 52.6555L105.939 65.4577C105.205 67.0672 102.333 72.2395 100.336 71.6761C98.4728 71.1499 92.7279 61.0562 90.7562 59.2423C88.0911 60.1926 79.3129 63.4272 79.2943 58.3354C79.2881 56.4751 80.4612 54.8718 81.7612 53.6801C82.2317 53.2498 83.0891 53.027 83.2408 52.8381C83.3306 52.7298 83.9032 50.7798 83.8753 50.6343C83.8072 50.2814 83.1386 49.7955 82.8415 49.52C80.2167 47.084 75.453 44.5675 73.243 42.0944C72.3794 41.1286 72.2184 40.4198 72.9613 39.3055C73.503 38.4945 77.9045 35.3156 78.8331 35.2506L93.545 38.8195L104.041 27.7229L78.1459 10.7328C77.6166 10.0982 77.629 8.93749 78.0407 8.25033C78.3657 7.70556 85.4477 3.01308 86.398 2.6045C87.1873 2.26402 87.8064 1.98544 88.7257 2.15259L120.932 11.649C125.953 7.07412 131.178 1.85234 138.093 0.443982C143.794 -0.716756 149.715 0.0415936 149.988 7.07102C150.316 15.4933 141.668 23.1264 136.601 28.995L144.611 58.3447C143.203 62.1117 140.38 65.3432 138.421 68.8656C137.6 69.6394 136.656 69.6766 135.777 69.0173L118.744 42.7041C113.714 46.2761 108.715 49.9193 103.153 52.6555H103.156ZM83.9372 56.9394C86.5744 57.1654 88.3542 55.6239 90.4312 54.6148C100.376 49.78 109.916 44.8399 118.617 37.9188C119.044 37.7114 119.521 37.6681 119.982 37.7455C121.539 38.0055 134.586 61.0747 137.022 63.746C137.684 62.4769 140.631 58.9606 140.526 57.7937L132.233 28.02C132.267 27.4876 132.564 27.1657 132.846 26.7633C134.607 24.2623 138.374 21.427 140.575 18.7094C143.008 15.7038 147.258 9.77631 145.76 5.79885C145.24 4.41525 143.933 3.48976 142.445 4.17692C140.956 4.86407 137.505 10.4263 136.334 10.7699C135.038 11.1506 134.044 10.2251 134.443 8.87868C134.678 8.08628 137.3 5.901 137.795 4.94765C135.01 5.36551 132.159 7.2846 129.912 8.97773C125.346 12.4166 120.459 17.3381 116.277 21.3435C109.015 28.2955 102.057 35.619 95.0772 42.8558C94.4458 43.1622 93.7989 43.0477 93.1427 42.9425C88.8557 42.2584 84.0549 40.1629 79.7183 39.3117L77.8952 40.2279L87.9023 48.4892C88.4471 50.2629 87.1997 54.3239 85.8037 55.562C85.1846 56.1099 84.3118 56.2182 83.9372 56.9425V56.9394ZM117.363 14.8495L88.7009 6.18886C87.2275 6.13315 85.1846 8.62796 83.6277 8.97154L107.31 24.7545L117.363 14.8495ZM99.7202 54.7758C99.5468 54.5777 95.2939 56.6144 94.8513 56.8713C94.5913 57.023 94.3374 56.7877 94.4674 57.3975L100.807 66.2253L101.862 64.5384L99.7233 54.7758H99.7202Z" fill="black"/>
<path d="M15.7694 52.3862C26.0705 51.1543 33.1928 56.893 37.6594 65.6031C37.8729 65.6031 39.4763 62.4707 39.8539 61.9228C54.8073 40.1938 84.2622 57.6327 72.8436 83.7695C63.9385 104.152 29.073 127.596 7.23874 130.524C6.11514 130.676 4.02581 131.056 3.01365 130.902C1.1348 130.617 0.540505 128.168 2.29864 127.438C13.7543 126.345 24.461 122.371 34.0936 116.214C22.0498 107.656 7.56065 96.6645 1.85291 82.5313C-2.93552 70.6794 1.50624 54.0855 15.7694 52.3831V52.3862ZM17.0075 56.1006C11.7331 56.6825 7.14897 60.4216 5.05036 65.1915C-1.60144 80.2934 15.5094 97.0143 26.216 105.533C27.5687 106.61 37.3839 113.927 38.1484 113.76C50.0684 105.211 67.6683 92.5477 71.1505 77.4365C75.5892 58.1589 53.7333 47.5699 42.8254 64.2783C41.999 65.5443 41.3149 66.9341 40.6432 68.2868C39.8849 69.8127 39.5506 73.1185 37.1146 72.6821C35.3162 72.3602 35.1769 69.7416 34.5579 68.4013C31.1902 61.1273 25.8291 55.1255 17.0044 56.1006H17.0075Z" fill="black"/>
<path d="M23.0341 130.066C27.3242 128.896 31.8836 128.676 36.2727 127.676C58.6579 122.572 78.8764 106.901 90.8738 87.5611C91.8457 85.998 95.2815 78.9902 95.981 78.4331C97.5349 77.1981 99.5221 78.3743 98.9587 80.476C98.6028 81.8039 96.5506 85.1592 95.7489 86.5583C84.1694 106.802 63.6166 123.99 40.9745 130.214C38.2289 130.97 25.0863 134.015 23.26 132.938C22.4955 132.149 22.4522 130.982 23.0279 130.066H23.0341Z" fill="black"/>
<path d="M83.9373 56.9395C84.3118 56.2152 85.1847 56.1099 85.8038 55.5589C87.1997 54.3208 88.4472 50.2629 87.9024 48.4862L77.8953 40.2248L79.7184 39.3086C84.0549 40.1598 88.8557 42.2522 93.1427 42.9394C93.7958 43.0446 94.4458 43.1561 95.0773 42.8527C102.057 35.6159 109.015 28.2924 116.277 21.3404C120.459 17.3351 125.346 12.4166 129.912 8.97467C132.159 7.28154 135.01 5.36245 137.796 4.94459C137.3 5.90103 134.682 8.08322 134.443 8.87562C134.044 10.2221 135.038 11.1476 136.335 10.7668C137.501 10.4233 140.913 4.87649 142.445 4.17386C143.977 3.47122 145.24 4.41219 145.76 5.79579C147.255 9.77326 143.005 15.7008 140.575 18.7063C138.374 21.424 134.607 24.2624 132.846 26.7603C132.561 27.1627 132.267 27.4846 132.233 28.017L140.526 57.7907C140.631 58.9576 137.684 62.4739 137.022 63.7429C134.586 61.0748 121.539 38.0024 119.982 37.7424C119.518 37.665 119.044 37.7083 118.617 37.9157C109.916 44.8368 100.376 49.7769 90.4312 54.6118C88.3543 55.6209 86.5714 57.1623 83.9373 56.9364V56.9395ZM125.312 19.2573C123.189 19.3532 122.062 22.5228 124.08 23.145C127.114 24.0797 128.092 19.1334 125.312 19.2573ZM120.075 25.7543C118.499 24.1819 115.2 26.7757 116.912 28.7629C118.564 30.6789 121.746 27.4227 120.075 25.7543ZM111.715 31.3011C109.529 31.6911 109.26 35.2754 111.631 35.3033C114.541 35.3373 114.801 30.7501 111.715 31.3011Z" fill="white"/>
<path d="M117.363 14.8495L107.31 24.7545L83.6277 8.97152C85.1846 8.62794 87.2275 6.13622 88.7009 6.18884L117.363 14.8495Z" fill="white"/>
<path d="M99.7202 54.7757L101.859 64.5383L100.804 66.2253L94.4644 57.3975C94.3375 56.7877 94.5882 57.0229 94.8482 56.8713C95.2909 56.6144 99.5438 54.5777 99.7171 54.7757H99.7202Z" fill="white"/>
<path d="M17.0076 56.1007C25.8292 55.1256 31.1933 61.1274 34.561 68.4014C35.1801 69.7416 35.3194 72.3603 37.1177 72.6822C39.5537 73.1186 39.888 69.8128 40.6464 68.2869C41.3181 66.9342 42.0021 65.5444 42.8286 64.2784C53.7364 47.57 75.5954 58.159 71.1537 77.4366C67.6715 92.5509 50.0716 105.211 38.1516 113.76C37.387 113.927 27.5718 106.61 26.2192 105.533C15.5125 97.0143 -1.60138 80.2935 5.05352 65.1916C7.15523 60.4248 11.7363 56.6857 17.0107 56.1007H17.0076Z" fill="#4E8CFF"/>
<path d="M111.714 31.3011C114.8 30.747 114.544 35.3343 111.631 35.3033C109.257 35.2754 109.529 31.6942 111.714 31.3011Z" fill="black"/>
<path d="M120.075 25.7543C121.746 27.4227 118.564 30.679 116.911 28.763C115.2 26.7758 118.496 24.1788 120.075 25.7543Z" fill="black"/>
<path d="M125.312 19.2572C128.092 19.1334 127.114 24.0828 124.08 23.1449C122.062 22.5228 123.189 19.3501 125.312 19.2572Z" fill="black"/>
<path d="M57.9444 60.0466C59.7588 60.4187 61.926 61.5062 63.6715 63.1826C65.4437 64.8849 66.9049 67.321 66.9732 70.3892C66.9976 71.4932 66.1227 72.4085 65.0186 72.4333C63.9143 72.4579 62.9994 71.582 62.9748 70.4777C62.9353 68.7097 62.1047 67.2235 60.9006 66.067C59.6697 64.8847 58.1749 64.1767 57.1411 63.9648C56.0592 63.7429 55.362 62.686 55.5837 61.6041C55.8055 60.522 56.8623 59.8248 57.9444 60.0466Z" fill="#ffffff" fill-opacity="0.37"/>
</svg>
