<svg width="190" height="163" viewBox="0 0 190 163" fill="none" xmlns="http://www.w3.org/2000/svg">
<path d="M41.132 48.6696C8.67351 50.1833 -9.93226 84.3285 5.5293 112.994C14.7803 130.142 31.1717 145.357 42.0878 161.636L43.1258 162.272C52.2902 150.318 62.2721 138.883 71.2334 126.777C81.9202 112.345 89.8521 99.3056 84.779 80.4533C79.641 61.3632 60.9271 47.7484 41.132 48.6696ZM145.021 68.0062H133.776V79.0348L134.425 79.6835H145.021V68.0062ZM145.021 90.0633H133.776V101.308H145.021V90.0633ZM145.021 111.688H134.425L133.776 112.337V122.716L134.425 123.365H145.021V111.688ZM168.375 112.12H156.698V123.365H167.943L168.375 112.12ZM190 130.713C188.867 125.627 186.289 121.203 182.431 117.751L175.356 126.254C176.701 128.36 178.893 130.112 178.764 132.876L190 130.717V130.713ZM177.894 156.234C182.539 154.453 186.09 150.084 188.239 145.682L178.526 141.058L173.111 146.923L177.894 156.234ZM71.9297 148.017H60.2524V159.262H71.9297V148.017ZM94.8517 148.017H83.6069V159.262H94.8517V148.017ZM118.206 148.017H106.529V159.262H118.206V148.017ZM141.128 148.017H129.883V159.262H141.128V148.017ZM164.483 148.017H152.805V159.262H164.483V148.017Z" fill="white"/>
<path d="M41.132 48.6695C60.9271 47.7483 79.641 61.3631 84.779 80.4533C89.8521 99.3056 81.9202 112.345 71.2334 126.777C62.2722 138.883 52.2903 150.314 43.1258 162.272L42.0878 161.636C31.1717 145.357 14.7846 130.142 5.52932 112.994C-9.93656 84.3327 8.6692 50.1832 41.1277 48.6695H41.132ZM40.6995 59.9186C23.1793 61.2723 9.72448 76.5738 10.9268 94.1892C11.528 102.995 17.7948 112.068 22.8722 119.006C29.1606 127.59 36.4049 135.57 42.7755 144.107C43.368 144.233 43.861 143.415 44.2286 143.03C50.0543 136.984 58.2976 125.614 63.4485 118.573C71.5058 107.557 77.8202 97.4415 73.8629 83.1477C69.8926 68.8149 55.5988 58.7682 40.6952 59.9186H40.6995Z" fill="black"/>
<path d="M71.9298 148.017H60.2526V159.262H71.9298V148.017Z" fill="black"/>
<path d="M118.206 148.017H106.529V159.262H118.206V148.017Z" fill="black"/>
<path d="M164.483 148.017H152.806V159.262H164.483V148.017Z" fill="black"/>
<path d="M145.021 68.0063V79.6836H134.425L133.776 79.0349V68.0063H145.021Z" fill="black"/>
<path d="M145.021 111.688V123.365H134.425L133.776 122.716V112.336L134.425 111.688H145.021Z" fill="black"/>
<path d="M190 130.713L178.764 132.871C178.893 130.107 176.701 128.356 175.356 126.25L182.431 117.747C186.289 121.202 188.867 125.623 190 130.709V130.713Z" fill="black"/>
<path d="M177.894 156.234L173.111 146.923L178.526 141.058L188.239 145.681C186.09 150.084 182.539 154.452 177.894 156.234Z" fill="black"/>
<path d="M168.375 112.12L167.943 123.365H156.698V112.12H168.375Z" fill="black"/>
<path d="M145.021 90.0634H133.776V101.308H145.021V90.0634Z" fill="black"/>
<path d="M94.8517 148.017H83.6069V159.262H94.8517V148.017Z" fill="black"/>
<path d="M141.128 148.017H129.884V159.262H141.128V148.017Z" fill="black"/>
<path d="M40.6995 59.9187C55.6032 58.7683 69.9013 68.8151 73.8673 83.1478C77.8246 97.4416 71.5102 107.558 63.4529 118.573C58.3019 125.614 50.0587 136.984 44.233 143.031C43.8654 143.411 43.3723 144.229 42.7798 144.107C36.4049 135.57 29.165 127.595 22.8766 119.006C17.7948 112.068 11.5323 102.999 10.9312 94.1893C9.72886 76.5739 23.1793 61.2724 40.7039 59.9187H40.6995ZM39.3848 72.0112C16.0649 75.1424 17.7516 112.626 43.1647 112.466C71.095 112.289 69.3478 67.989 39.3848 72.0112Z" fill="white"/>
<path d="M39.3848 72.0112C69.3478 67.989 71.095 112.289 43.1647 112.466C17.7516 112.626 16.0648 75.1424 39.3848 72.0112ZM42.4338 82.8062C30.7306 83.4549 31.2626 101.793 43.5756 101.317C55.162 100.871 54.6906 82.1271 42.4338 82.8062Z" fill="black"/>
<path d="M122.783 0.539641C129.051 0.387576 134.951 3.71699 138.897 8.44299C147.388 -2.24954 163.57 -2.12949 170.563 10.0837C179.138 25.062 166.926 38.2076 156.323 47.2554C152.297 50.6889 146.802 55.2148 142.392 57.996C139.884 59.5766 139.163 60.2329 136.353 58.6442C128.037 53.9422 110.318 38.5797 106.664 29.804C101.272 16.8385 107.825 0.903799 122.787 0.543646L122.783 0.539641ZM141.354 17.927C137.34 21.6366 135.24 15.53 133.358 13.245C123.639 1.42401 108.119 11.1321 112.533 25.074C114.252 30.5083 120.053 36.2988 124.253 40.0484C125.822 41.449 137.986 51.1331 138.901 51.1331C146.952 45.1905 159.976 36.5829 164.41 27.403C171.181 13.3731 155.935 1.29996 145.582 11.7884C144.016 13.3731 142.594 16.7825 141.358 17.927H141.354Z" fill="black"/>
<path d="M141.554 17.8805C142.788 16.7346 144.207 13.3212 145.768 11.7346C156.102 1.2338 171.311 13.3252 164.555 27.3677C160.135 36.5584 147.136 45.1722 139.103 51.1257C138.19 51.1257 126.049 41.4302 124.488 40.028C120.297 36.2699 114.51 30.4767 112.794 25.0359C108.39 11.0776 123.875 1.358 133.572 13.193C135.45 15.4846 137.546 21.5944 141.55 17.8805H141.554Z" fill="#4E8CFF"/>
</svg>
