<svg width="155" height="131" viewBox="0 0 155 131" fill="none" xmlns="http://www.w3.org/2000/svg">
<path d="M123.955 6.1794C118.222 -2.9526 104.491 -1.49533 100.957 8.89493C96.7556 21.2336 108.59 31.5532 117.505 38.0884C118.751 39.0032 122.869 42.1457 124.112 42.1457C124.83 42.1457 125.407 41.7541 125.996 41.4267C131.752 38.2361 142.288 28.9243 145.576 23.2879C149.649 16.2968 149.588 6.77964 142.179 2.0676C135.655 -2.07952 128.364 0.379219 123.962 6.1794H123.955ZM93.4134 25.8846C90.5294 25.9263 88.6163 27.191 86.5045 28.9179C82.688 26.0868 78.5895 24.5975 74.4173 27.8394C66.4959 33.9895 73.5136 42.5918 78.9516 47.4323C80.4609 48.774 84.9888 52.5809 86.857 52.3979C89.693 52.1186 98.8321 42.794 100.373 40.101C103.854 34.0216 100.918 25.7819 93.4134 25.8878V25.8846ZM20.0471 70.0552V49.0308C20.0471 46.1515 15.8717 42.7299 13.2505 41.9691C10.9657 41.3047 4.83233 41.1731 2.42898 41.5101C1.23692 41.677 0.269175 42.4089 0 43.5933L0.0672938 128.879C0.471056 130.066 1.49008 130.596 2.7238 130.731C5.55334 131.045 14.9168 131.122 17.6021 130.705C18.3936 130.583 20.0471 129.325 20.0471 128.638V119.49H133.818L134.306 119.971V128.959C134.306 129.63 136.046 130.606 136.754 130.705C139.949 131.151 148.61 131.042 151.959 130.74C153.491 130.602 154.401 130.044 154.949 128.571L154.997 93.9942C154.529 91.5323 152.427 91.0059 150.161 91.2466C149.466 82.1146 153.709 67.7217 140.625 66.197H63.567C61.2534 66.396 59.5999 67.16 57.7605 68.4631C57.3984 68.7199 56.248 70.0616 56.1358 70.0616H51.1176C53.0788 65.5037 50.371 60.002 45.6861 58.5961C42.9559 57.7744 31.862 57.8964 28.6095 58.1756C22.4825 58.6956 19.4223 64.4155 21.0117 70.0616H20.0439L20.0471 70.0552Z" fill="white"/>
<path d="M20.0471 70.0553H21.0149C19.4223 64.406 22.4857 58.6893 28.6127 58.1661C31.8652 57.89 42.9559 57.768 45.6893 58.5866C50.3742 59.9925 53.082 65.4941 51.1208 70.0521H56.139C56.2544 70.0521 57.4016 68.7104 57.7637 68.4536C59.6031 67.1504 61.2566 66.3865 63.5702 66.1875H140.628C153.709 67.7121 149.469 82.105 150.164 91.237C152.43 90.9963 154.532 91.5227 155 93.9847L154.952 128.561C154.404 130.034 153.494 130.593 151.962 130.731C148.613 131.033 139.952 131.142 136.757 130.696C136.049 130.596 134.309 129.624 134.309 128.949V119.962L133.822 119.48H20.0471V128.628C20.0471 129.315 18.3904 130.574 17.6021 130.696C14.9168 131.116 5.55334 131.036 2.7238 130.721C1.49008 130.583 0.471056 130.057 0.0672938 128.869L0 43.5838C0.269175 42.3993 1.23692 41.6675 2.42898 41.5006C4.83233 41.1667 10.9657 41.2984 13.2505 41.9596C15.8717 42.7203 20.0471 46.142 20.0471 49.0212V70.0457V70.0553ZM14.5451 125.265V49.3518C14.5451 48.7548 12.3084 46.9445 11.7924 46.9445H5.15598V125.265H14.5419H14.5451ZM45.5066 64.3899C44.8337 63.7351 43.4718 63.4142 42.5393 63.3211C39.4598 63.0129 32.3427 62.9872 29.3112 63.3532C24.5654 63.9277 25.1743 69.5514 28.3211 70.0393C32.9772 70.7583 39.3124 69.5482 44.1543 70.0521C46.4039 69.3973 47.1153 65.9563 45.5066 64.3932V64.3899ZM144.662 91.2403V75.3515C144.662 74.1735 143.025 72.055 141.759 71.8111L63.2529 71.6538C62.0737 71.4997 59.8626 73.4321 59.8626 74.3886V91.2403H144.666H144.662ZM54.3573 75.512H20.0471V91.2403H54.3573V75.512ZM149.517 96.697H20.0471V114.03H149.517V96.697ZM149.517 119.487H139.484V125.265H149.517V119.487Z" fill="black"/>
<path d="M123.955 6.17946C128.361 0.37928 135.648 -2.07946 142.173 2.06766C149.584 6.7797 149.645 16.2969 145.569 23.2879C142.285 28.9276 131.745 38.2361 125.99 41.4267C125.4 41.7541 124.824 42.1457 124.106 42.1457C122.862 42.1457 118.745 39.0001 117.498 38.0885C108.583 31.5533 96.7524 21.2304 100.95 8.89499C104.488 -1.49527 118.216 -2.95253 123.949 6.17946H123.955ZM126.125 13.1544C123.144 16.1749 120.872 10.3587 119.549 8.77622C113.444 1.46742 104.427 6.95945 105.523 15.6228C106.507 23.3778 117.892 31.9609 124.106 36.0278C130.531 31.7234 142.682 22.6716 143.044 14.3517C143.236 9.94139 140.061 5.4091 135.382 5.34169C131.659 5.28713 129.31 7.9545 127.371 10.7021C126.903 11.3666 126.503 12.7725 126.121 13.1544H126.125Z" fill="black"/>
<path d="M93.4134 25.8847C100.918 25.7788 103.854 34.0184 100.373 40.0979C98.8321 42.7909 89.6898 52.1187 86.857 52.3948C84.9888 52.5777 80.4609 48.774 78.9516 47.4291C73.5136 42.5887 66.4959 33.9831 74.4173 27.8363C78.5927 24.5975 82.688 26.0869 86.5045 28.9148C88.6163 27.1879 90.5294 25.9232 93.4134 25.8815V25.8847ZM80.3648 41.6964C81.4511 42.7845 84.7132 45.5835 85.979 46.2672C86.386 46.4886 86.4725 46.601 86.9532 46.3923C88.7925 45.5931 94.317 40.1909 95.4065 38.3806C96.7428 36.1658 97.8035 32.3589 94.6343 31.2226C90.3595 29.6851 89.6385 35.4789 87.4627 35.9636C83.8288 36.7725 84.0243 33.3026 81.983 31.9063C78.7241 29.6787 75.7952 31.993 76.4457 35.7967C76.7758 37.7194 78.9933 40.3225 80.3648 41.6964Z" fill="black"/>
<path d="M149.517 96.697H20.0471V114.03H149.517V96.697Z" fill="white"/>
<path d="M144.662 91.2403H59.8594V74.3886C59.8594 73.4289 62.0705 71.4965 63.2497 71.6538L141.756 71.8111C143.025 72.0551 144.659 74.1736 144.659 75.3516V91.2403H144.662Z" fill="#4E8CFF"/>
<path d="M14.5451 125.265H5.15919V46.9445H11.7956C12.3116 46.9445 14.5483 48.7548 14.5483 49.3518V125.265H14.5451Z" fill="white"/>
<path d="M54.3573 75.512H20.0471V91.2402H54.3573V75.512Z" fill="#4E8CFF" fill-opacity="0.24"/>
<path d="M45.5066 64.3899C47.1153 65.9531 46.4071 69.3941 44.1543 70.0489C39.3092 69.5481 32.9772 70.7582 28.3211 70.036C25.1743 69.5481 24.5654 63.9277 29.3112 63.3499C32.3459 62.9808 39.463 63.0097 42.5393 63.3178C43.4718 63.4109 44.8337 63.7351 45.5066 64.3867V64.3899Z" fill="#4E8CFF" fill-opacity="0.24"/>
<path d="M149.517 119.487H139.484V125.265H149.517V119.487Z" fill="white"/>
<path d="M126.125 13.1545C126.503 12.7693 126.903 11.3666 127.374 10.7021C129.313 7.95451 131.662 5.28714 135.385 5.3417C140.064 5.40911 143.243 9.94462 143.047 14.3517C142.682 22.6716 130.534 31.7266 124.109 36.0278C117.895 31.9609 106.507 23.3778 105.526 15.6228C104.43 6.95946 113.448 1.46743 119.552 8.77623C120.872 10.3587 123.144 16.1749 126.128 13.1545H126.125Z" fill="#4E8CFF"/>
<path d="M80.3648 41.6964C78.9933 40.3225 76.7758 37.7162 76.4457 35.7967C75.7952 31.993 78.7241 29.6755 81.983 31.9063C84.0243 33.3026 83.8288 36.7757 87.4627 35.9636C89.6385 35.4789 90.3563 29.6851 94.6343 31.2226C97.8035 32.3621 96.7396 36.169 95.4066 38.3806C94.317 40.1909 88.7925 45.5899 86.9532 46.3924C86.4725 46.601 86.3892 46.4886 85.979 46.2672C84.7133 45.5867 81.4511 42.7877 80.3648 41.6964Z" fill="#4E8CFF"/>
</svg>
