<svg width="136" height="164" viewBox="0 0 136 164" fill="none" xmlns="http://www.w3.org/2000/svg">
<path d="M113.011 129.378C112.699 129.642 113.892 131.066 114.137 131.408C120.773 140.63 129.033 149.251 135.772 158.466C137.267 164.183 131.01 165.176 128.62 160.418H7.43875C5.04851 165.443 -1.75421 164.176 0.424148 158.236L23.0441 129.928C23.3712 129.092 21.152 129.367 20.4271 129.211C13.7842 127.779 9.11155 123.244 7.24917 116.743C5.96669 86.3238 7.04843 55.6298 6.699 25.1142C7.90714 11.8656 18.5275 1.23035 31.791 0.0184951L103.915 -9.15527e-05C117.509 0.479444 128.323 11.9697 129.378 25.4636L129.36 113.944C128.401 122.296 121.665 129.415 113.011 129.378ZM121.185 20.4601C117.992 11.7021 110.84 7.25986 101.688 6.68739H34.3708C25.215 7.25986 18.0666 11.7058 14.8734 20.4601H121.189H121.185ZM13.9404 27.1513L13.3828 27.7089V74.5473L13.9404 75.1049H64.1243L64.6819 74.5473V27.7089L64.1243 27.1513H13.9404ZM71.9307 27.1513L71.3731 27.7089V74.5473L71.9307 75.1049H122.115L122.672 74.5473V27.7089L122.115 27.1513H71.9307ZM122.672 81.7961H13.3828V113.208C13.3828 117.694 18.3157 122.627 22.8657 122.683L112.465 122.702C117.301 123.003 122.672 117.969 122.672 113.208V81.7961ZM108.918 136.441C108.955 135.735 108.342 135.17 107.952 134.619C107.216 133.582 104.138 129.575 103.149 129.385L32.3486 129.571L27.1369 136.441H108.918ZM122.672 153.169L115.249 143.678L114.301 143.139L22.4679 143.11L20.9736 143.474L13.379 153.165H122.669L122.672 153.169Z" fill="black"/>
<path d="M122.672 81.796V113.207C122.672 117.969 117.305 123.003 112.465 122.701L22.8657 122.683C18.3157 122.627 13.3828 117.694 13.3828 113.207V81.796H122.672ZM33.0103 88.5801C13.7211 90.0633 18.2525 120.088 37.1849 115.453C53.504 111.457 49.1324 87.3422 33.0103 88.5801ZM101.417 88.5838C85.6998 89.5131 83.7407 112.085 99.1714 115.52C119.264 119.992 121.46 87.398 101.417 88.5838ZM55.4927 92.6803C53.359 94.4052 54.3329 98.4236 57.4704 98.8585C61.3066 99.3938 74.7522 99.3938 78.5922 98.8585C80.3765 98.6095 81.5401 97.4645 81.7074 95.643C81.9824 92.6877 79.4695 92.0446 77.1313 91.8365C72.3843 91.4127 64.0686 91.461 59.2807 91.8179C58.4257 91.8811 56.0726 92.2082 55.4927 92.6803ZM80.5661 111.799C82.6999 110.074 81.7259 106.055 78.5885 105.62C74.7522 105.085 61.3066 105.085 57.4666 105.62C55.2474 105.929 53.9463 107.836 54.5114 109.966C55.1136 112.233 56.7864 112.46 58.9238 112.642C63.7229 113.051 71.9456 113.022 76.7745 112.661C77.6294 112.598 79.9825 112.271 80.5624 111.799H80.5661Z" fill="#4E8CFF"/>
<path d="M121.185 20.4603H14.8694C18.0626 11.706 25.2147 7.26003 34.3668 6.68756H101.688C110.84 7.26003 117.992 11.7022 121.185 20.4603Z" fill="#4E8CFF"/>
<path d="M101.416 88.5836C121.46 87.3978 119.263 119.991 99.1712 115.519C83.7443 112.085 85.7033 89.513 101.416 88.5836ZM100.268 95.6354C92.6213 97.2078 94.1268 110.843 103.818 108.851C111.825 107.204 109.959 93.6429 100.268 95.6354Z" fill="black"/>
<path d="M33.0101 88.5802C49.1359 87.3386 53.5037 111.453 37.1847 115.453C18.2523 120.092 13.7209 90.0672 33.0101 88.5802ZM32.2406 95.6357C25.4082 97.0409 25.6126 107.799 32.5492 108.91C43.571 110.676 43.1844 93.3867 32.2406 95.6357Z" fill="black"/>
<path d="M55.4925 92.6802C56.0724 92.2081 58.4255 91.881 59.2805 91.8178C64.0684 91.4609 72.3841 91.4163 77.1311 91.8364C79.4693 92.0445 81.9822 92.6876 81.7071 95.6429C81.5361 97.4644 80.3763 98.6093 78.592 98.8584C74.7557 99.3937 61.3101 99.3937 57.4701 98.8584C54.3327 98.4198 53.3587 94.405 55.4925 92.6802Z" fill="black"/>
<path d="M80.5659 111.799C79.986 112.271 77.6329 112.598 76.778 112.661C71.9491 113.022 63.7264 113.051 58.9273 112.642C56.7899 112.46 55.1171 112.234 54.5149 109.966C53.9498 107.836 55.2509 105.929 57.4701 105.62C61.3064 105.085 74.752 105.085 78.592 105.62C81.7294 106.059 82.7034 110.074 80.5696 111.799H80.5659Z" fill="black"/>
<path d="M100.268 95.6356C109.959 93.6431 111.825 107.204 103.818 108.851C94.1268 110.843 92.6213 97.208 100.268 95.6356Z" fill="white"/>
<path d="M32.2405 95.6358C43.188 93.3868 43.5709 110.676 32.549 108.91C25.6125 107.799 25.4043 97.041 32.2405 95.6358Z" fill="white"/>
</svg>
