<svg width="233" height="186" viewBox="0 0 233 186" fill="none" xmlns="http://www.w3.org/2000/svg">
<path d="M170.011 151.378C169.699 151.642 170.892 153.066 171.137 153.408C177.773 162.63 186.033 171.251 192.772 180.466C194.267 186.183 188.01 187.176 185.62 182.418H64.4388C62.0485 187.443 55.2458 186.176 57.4241 180.236L80.0441 151.928C80.3712 151.092 78.152 151.367 77.4271 151.211C70.7842 149.779 66.1116 145.244 64.2492 138.743C62.9667 108.324 64.0484 77.6298 63.699 47.1142C64.9071 33.8657 75.5275 23.2304 88.791 22.0185L160.915 21.9999C174.509 22.4795 185.323 33.9697 186.378 47.4637L186.36 135.944C185.401 144.296 178.665 151.415 170.011 151.378ZM178.185 42.4601C174.992 33.7021 167.84 29.2599 158.688 28.6874H91.3708C82.215 29.2599 75.0666 33.7058 71.8734 42.4601H178.189H178.185ZM70.9404 49.1513L70.3828 49.7089V96.5473L70.9404 97.1049H121.124L121.682 96.5473V49.7089L121.124 49.1513H70.9404ZM128.931 49.1513L128.373 49.7089V96.5473L128.931 97.1049H179.115L179.672 96.5473V49.7089L179.115 49.1513H128.931ZM179.672 103.796H70.3828V135.208C70.3828 139.694 75.3157 144.627 79.8657 144.683L169.465 144.702C174.301 145.003 179.672 139.969 179.672 135.208V103.796ZM165.918 158.441C165.955 157.735 165.342 157.17 164.952 156.619C164.216 155.582 161.138 151.575 160.149 151.385L89.3486 151.571L84.1369 158.441H165.918ZM179.672 175.169L172.249 165.678L171.301 165.139L79.4679 165.11L77.9736 165.474L70.379 175.165H179.669L179.672 175.169Z" fill="black"/>
<path d="M179.672 103.796V135.207C179.672 139.969 174.305 145.003 169.465 144.701L79.8657 144.683C75.3157 144.627 70.3828 139.694 70.3828 135.207V103.796H179.672ZM90.0103 110.58C70.7211 112.063 75.2525 142.088 94.1849 137.453C110.504 133.457 106.132 109.342 90.0103 110.58ZM158.417 110.584C142.7 111.513 140.741 134.085 156.171 137.52C176.264 141.992 178.46 109.398 158.417 110.584ZM112.493 114.68C110.359 116.405 111.333 120.424 114.47 120.859C118.307 121.394 131.752 121.394 135.592 120.859C137.377 120.609 138.54 119.465 138.707 117.643C138.982 114.688 136.47 114.045 134.131 113.836C129.384 113.413 121.069 113.461 116.281 113.818C115.426 113.881 113.073 114.208 112.493 114.68ZM137.566 133.799C139.7 132.074 138.726 128.055 135.589 127.62C131.752 127.085 118.307 127.085 114.467 127.62C112.247 127.929 110.946 129.836 111.511 131.966C112.114 134.233 113.786 134.46 115.924 134.642C120.723 135.051 128.946 135.022 133.774 134.661C134.629 134.598 136.983 134.271 137.562 133.799H137.566Z" fill="#4E8CFF"/>
<path d="M178.185 42.4603H71.8694C75.0626 33.706 82.2147 29.26 91.3668 28.6876H158.688C167.84 29.26 174.992 33.7022 178.185 42.4603Z" fill="#4E8CFF"/>
<path d="M158.416 110.584C178.46 109.398 176.263 141.991 156.171 137.519C140.744 134.085 142.703 111.513 158.416 110.584ZM157.268 117.635C149.621 119.208 151.127 132.843 160.818 130.851C168.825 129.204 166.959 115.643 157.268 117.635Z" fill="black"/>
<path d="M90.01 110.58C106.136 109.339 110.504 133.453 94.1846 137.453C75.2522 142.092 70.7208 112.067 90.01 110.58ZM89.2406 117.636C82.4081 119.041 82.6125 129.799 89.5491 130.91C100.571 132.676 100.184 115.387 89.2406 117.636Z" fill="black"/>
<path d="M112.492 114.68C113.072 114.208 115.425 113.881 116.28 113.818C121.068 113.461 129.384 113.416 134.131 113.836C136.469 114.045 138.982 114.688 138.707 117.643C138.536 119.464 137.376 120.609 135.592 120.858C131.756 121.394 118.31 121.394 114.47 120.858C111.333 120.42 110.359 116.405 112.492 114.68Z" fill="black"/>
<path d="M137.566 133.799C136.986 134.271 134.633 134.598 133.778 134.661C128.949 135.022 120.726 135.051 115.927 134.642C113.79 134.46 112.117 134.234 111.515 131.966C110.95 129.836 112.251 127.929 114.47 127.62C118.306 127.085 131.752 127.085 135.592 127.62C138.73 128.059 139.703 132.074 137.57 133.799H137.566Z" fill="black"/>
<path d="M157.268 117.636C166.959 115.643 168.825 129.204 160.818 130.851C151.127 132.843 149.621 119.208 157.268 117.636Z" fill="white"/>
<path d="M89.2405 117.636C100.188 115.387 100.571 132.676 89.5491 130.91C82.6125 129.799 82.4044 119.041 89.2405 117.636Z" fill="white"/>
<path d="M48.4821 34.5499C53.7416 34.4237 58.692 37.186 62.0033 41.1069C69.1279 32.2358 82.7056 32.3354 88.5735 42.4681C95.7679 54.895 85.5215 65.8013 76.6249 73.3078C73.2471 76.1564 68.6359 79.9114 64.9356 82.2188C62.8311 83.5302 62.226 84.0747 59.8689 82.7566C52.8905 78.8556 38.0229 66.11 34.9576 58.8292C30.4329 48.0723 35.9317 34.852 48.4854 34.5532L48.4821 34.5499ZM64.0645 48.9754C60.6967 52.053 58.9347 46.9867 57.3555 45.0909C49.2002 35.2836 36.1778 43.338 39.8814 54.9049C41.3243 59.4135 46.1915 64.2176 49.7155 67.3285C51.0321 68.4905 61.2386 76.5249 62.0066 76.5249C68.7622 71.5947 79.6902 64.4533 83.4104 56.8372C89.0921 45.1972 76.2991 35.1807 67.6119 43.8825C66.2987 45.1972 65.1051 48.0259 64.0679 48.9754H64.0645Z" fill="black"/>
<path d="M64.2598 48.7086C65.3085 47.7572 66.5153 44.9228 67.843 43.6055C76.6296 34.8863 89.5607 44.9262 83.8161 56.5861C80.0581 64.2175 69.006 71.3698 62.1758 76.3132C61.3993 76.3132 51.0766 68.2627 49.7488 67.0984C46.1858 63.978 41.2648 59.1676 39.806 54.65C36.0614 43.0599 49.2278 34.9894 57.4732 44.8164C59.0699 46.7192 60.8514 51.7924 64.2564 48.7086H64.2598Z" fill="white"/>
<path d="M20.7912 0.100353C28.132 -0.901428 32.4048 5.76591 30.9977 12.5615C30.1401 16.7091 24.1672 24.7295 20.8667 27.3592C19.3086 28.5992 18.6412 28.8588 16.7298 28.1777C12.3392 26.6109 4.26766 21.5989 1.83382 17.5918C-2.56582 10.3564 1.24196 1.78017 10.1469 2.76973C11.7836 2.94993 12.8133 3.91201 14.308 4.25713C16.1259 2.26884 17.986 0.482129 20.7912 0.100353ZM22.5275 5.68345C18.0705 5.57655 18.5144 11.2268 15.8571 11.6147C13.6014 11.9446 12.9522 10.2098 11.2974 9.23855C5.86204 6.04995 3.69393 11.8132 7.41414 15.915C8.5284 17.1428 16.7207 22.5885 17.9316 22.277C20.9815 18.9082 27.3529 12.8669 25.363 7.83972C24.8829 6.63025 23.8441 5.71399 22.5275 5.68345Z" fill="black"/>
<path d="M22.5808 5.43873C23.914 5.46872 24.9604 6.36864 25.4455 7.55653C27.4559 12.4941 21.0158 18.4275 17.9376 21.7362C16.7143 22.0452 8.43771 16.6937 7.312 15.4878C3.55351 11.4622 5.74393 5.79869 11.2352 8.9304C12.9101 9.88432 13.5629 11.5882 15.8418 11.2642C18.5234 10.8802 18.078 5.33374 22.5808 5.43873Z" fill="white"/>
<path d="M222.729 19.7279C229.822 21.866 230.939 29.7058 226.837 35.3029C224.334 38.7194 215.569 43.534 211.474 44.555C209.542 45.0357 208.827 44.9946 207.371 43.5811C204.028 40.332 198.768 32.42 198.218 27.764C197.222 19.3547 204.248 13.1352 211.937 17.7345C213.351 18.5783 213.888 19.8811 215.105 20.816C217.584 19.7625 220.018 18.9099 222.729 19.7279ZM221.989 25.5278C217.979 23.5791 216.036 28.9032 213.457 28.1522C211.268 27.5153 211.399 25.6675 210.297 24.0967C206.677 18.9384 202.311 23.2802 203.991 28.5568C204.495 30.1365 209.684 38.4932 210.915 38.7128C215.089 36.9153 223.394 34.0667 223.672 28.6671C223.738 27.3674 223.174 26.1025 221.989 25.5278Z" fill="black"/>
<path d="M222.139 25.3273C223.339 25.9084 223.917 27.1617 223.865 28.4437C223.643 33.7702 215.32 36.4924 211.145 38.2234C209.904 37.9963 204.599 29.6903 204.075 28.1257C202.329 22.9026 206.674 18.6607 210.368 23.7905C211.495 25.354 211.381 27.1751 213.589 27.827C216.188 28.5917 218.087 23.3614 222.139 25.3273Z" fill="white"/>
</svg>
