<svg width="125" height="172" viewBox="0 0 125 172" fill="none" xmlns="http://www.w3.org/2000/svg">
<path d="M54.9015 22.3831C54.6799 21.7114 52.6049 22.2003 52.1653 20.1956C51.8276 18.6692 51.9296 13.2143 52.1266 11.5156C52.7843 5.88492 57.8909 0.961129 63.5216 0.401927C69.1523 -0.157275 80.6951 -0.10452 86.3926 0.384342C91.2461 0.802864 95.9272 4.33041 97.5204 8.95174C98.3399 11.3292 99.4829 19.7559 97.4958 21.3562C96.5497 22.1194 95.3504 21.3808 95.3504 23.4312V49.2811H105.374C109.608 49.2811 116.118 53.0021 118.904 56.1498C125.737 63.8766 124.06 70.4499 124.176 79.6855C124.401 97.6996 125.653 118.003 124.556 135.989C124.042 144.423 120.036 152.357 111.884 155.508C118.267 175.151 87.9085 177.866 90.599 157.249H59.4771C62.8675 177.644 31.7104 175.306 38.3716 155.505C31.83 152.832 26.6108 145.928 26.0516 138.799L26.1078 67.7875C26.5053 59.2694 35.9238 49.2811 44.5299 49.2811H54.905V22.3831H54.9015ZM91.8299 15.1733C92.1148 11.7372 90.6025 7.99512 86.9272 7.23896C83.0058 6.43357 69.3669 6.73955 64.9108 7.07015C60.4548 7.40075 58.2426 10.763 58.7702 15.1733H91.8299ZM89.0163 21.8556H61.2321V49.2881H89.0163V21.8556ZM43.9109 56.0619C37.3271 57.335 32.8921 62.9235 32.3962 69.5179C33.6237 91.4956 30.7468 115.288 32.3786 137.051C32.9836 145.109 38.2239 150.338 46.2708 150.943C65.055 149.86 85.3727 152.336 103.978 150.943C111.68 150.367 117.064 145.467 117.87 137.755V68.7969C117.096 62.3643 112.25 56.8321 105.719 55.9775L43.9144 56.0654L43.9109 56.0619ZM44.9343 157.316C42.8909 159.433 43.3341 162.525 45.585 164.29C50.1324 167.86 55.9636 161.888 52.4431 157.432L44.9343 157.316ZM98.0409 157.316C95.8885 159.331 96.4934 162.567 98.6916 164.29C103.236 167.86 108.87 162.064 105.553 157.429L98.0409 157.316Z" fill="black"/>
<path d="M24.2155 18.43C32.7653 17.2764 37.7419 24.954 36.103 32.7793C35.1041 37.5554 28.1475 46.791 24.3035 49.8191C22.4887 51.247 21.7114 51.546 19.4852 50.7617C14.3715 48.9575 4.97054 43.1861 2.13585 38.5718C-2.98841 30.24 1.44651 20.3643 11.8181 21.5038C13.7243 21.7113 14.9236 22.8192 16.6645 23.2166C18.7818 20.927 20.9482 18.8696 24.2155 18.43ZM26.2378 24.859C21.0467 24.7359 21.5637 31.2424 18.4688 31.689C15.8416 32.0689 15.0854 30.0712 13.1581 28.9528C6.82752 25.2811 4.30231 31.9176 8.63525 36.6409C9.93302 38.0548 19.4746 44.3256 20.8849 43.9668C24.4371 40.0876 31.858 33.131 29.5403 27.342C28.9811 25.9493 27.7712 24.8942 26.2378 24.859Z" fill="black"/>
<path d="M43.9107 56.062L105.715 55.9741C112.246 56.8322 117.092 62.3644 117.866 68.7935V137.751C117.061 145.464 111.676 150.363 103.974 150.94C85.369 152.333 65.0513 149.857 46.2671 150.94C38.2202 150.335 32.9799 145.105 32.375 137.048C30.7431 115.281 33.62 91.4887 32.3925 69.5145C32.8884 62.9201 37.3234 57.3316 43.9072 56.0585L43.9107 56.062ZM60.8169 73.9916C47.5402 74.3081 41.7231 88.3128 46.5062 99.7079C49.7454 107.421 65.4734 120.922 72.8591 125.055C75.3561 126.451 75.9962 125.874 78.219 124.485C82.1369 122.041 87.015 118.067 90.5847 115.045C99.9962 107.09 110.839 95.5402 103.225 82.3761C97.0173 71.6423 82.6539 71.5368 75.117 80.9342C71.6141 76.7806 66.3773 73.858 60.8134 73.9881L60.8169 73.9916Z" fill="white"/>
<path d="M91.8298 15.1733H58.77C58.2425 10.763 60.3175 7.40777 64.9107 7.07014C69.5039 6.73251 83.0057 6.43356 86.9271 7.23895C90.6024 7.99511 92.1147 11.7372 91.8298 15.1733Z" fill="white"/>
<path d="M44.9342 157.316L52.4429 157.432C55.9635 161.888 50.1323 167.863 45.5848 164.29C43.3374 162.525 42.8943 159.43 44.9342 157.316Z" fill="white" fill-opacity="0.27"/>
<path d="M98.0407 157.316L105.553 157.428C108.866 162.064 103.235 167.86 98.6913 164.29C96.4932 162.563 95.8883 159.331 98.0407 157.316Z" fill="white" fill-opacity="0.27"/>
<path d="M26.2377 24.8592C27.7747 24.8944 28.981 25.9495 29.5402 27.3422C31.8579 33.1312 24.4335 40.0878 20.8849 43.967C19.4746 44.3293 9.93295 38.055 8.63518 36.6411C4.30224 31.9213 6.82745 25.2812 13.158 28.953C15.0889 30.0714 15.8415 32.069 18.4687 31.6892C21.5601 31.239 21.0467 24.7361 26.2377 24.8592Z" fill="#4E8CFF"/>
<path d="M60.8168 73.9916C66.3807 73.8579 71.6175 76.7841 75.1204 80.9376C82.6573 71.5402 97.0207 71.6457 103.228 82.3796C110.839 95.5437 99.9996 107.097 90.5881 115.049C87.0149 118.067 82.1368 122.044 78.2224 124.489C75.9961 125.878 75.356 126.455 72.8625 125.058C65.4803 120.926 49.7523 107.424 46.5096 99.7114C41.723 88.3163 47.5401 74.3116 60.8203 73.9951L60.8168 73.9916ZM77.3009 89.2729C73.7382 92.5332 71.8742 87.1662 70.2036 85.158C61.5764 74.7688 47.8004 83.3011 51.7183 95.5543C53.2447 100.33 58.3936 105.419 62.1216 108.715C63.5143 109.946 74.3115 118.457 75.1239 118.457C82.2704 113.234 93.8308 105.669 97.7663 97.6012C103.777 85.2706 90.2435 74.6598 81.0536 83.8778C79.6643 85.2706 78.4017 88.2671 77.3044 89.2729H77.3009Z" fill="black"/>
<path d="M77.3012 89.2728C78.3985 88.2669 79.6611 85.2704 81.0503 83.8777C90.2438 74.6597 103.774 85.274 97.7631 97.601C93.8311 105.669 82.2672 113.231 75.1207 118.457C74.3083 118.457 63.5076 109.946 62.1184 108.715C58.3903 105.416 53.2415 100.33 51.7151 95.5541C47.7972 83.3009 61.5732 74.7687 70.2004 85.1579C71.871 87.1696 73.735 92.533 77.2977 89.2728H77.3012Z" fill="#4E8CFF"/>
</svg>
